<?xml version="1.0" encoding="UTF-8" standalone="no"?>
<!DOCTYPE svg PUBLIC "-//W3C//DTD SVG 1.1//EN"
 "http://www.w3.org/Graphics/SVG/1.1/DTD/svg11.dtd">
<!-- Generated by graphviz version 2.36.0 (20140111.2315)
 -->
<!-- Title: cellsociety_team01.rules.MovementRule Pages: 1 -->
<svg width="416pt" height="188pt"
 viewBox="0.00 0.00 416.00 188.00" xmlns="http://www.w3.org/2000/svg" xmlns:xlink="http://www.w3.org/1999/xlink">
<g id="graph0" class="graph" transform="scale(1 1) rotate(0) translate(4 184)">
<title>cellsociety_team01.rules.MovementRule</title>
<polygon fill="white" stroke="none" points="-4,4 -4,-184 412,-184 412,4 -4,4"/>
<!-- Node1 -->
<g id="node1" class="node"><title>Node1</title>
<polygon fill="#bfbfbf" stroke="black" points="186,-1 186,-31 324,-31 324,-1 186,-1"/>
<text text-anchor="start" x="194" y="-19" font-family="Helvetica,sans-Serif" font-size="10.00">cellsociety_team01.rules.</text>
<text text-anchor="middle" x="255" y="-8" font-family="Helvetica,sans-Serif" font-size="10.00">MovementRule</text>
</g>
<!-- Node2 -->
<g id="node2" class="node"><title>Node2</title>
<g id="a_node2"><a xlink:href="../../d4/d46/classcellsociety__team01_1_1rules_1_1_rule.html" target="_top" xlink:title="cellsociety_team01.rules.Rule">
<polygon fill="white" stroke="black" points="0,-86.5 0,-105.5 158,-105.5 158,-86.5 0,-86.5"/>
<text text-anchor="middle" x="79" y="-93.5" font-family="Helvetica,sans-Serif" font-size="10.00">cellsociety_team01.rules.Rule</text>
</a>
</g>
</g>
<!-- Node2&#45;&gt;Node1 -->
<g id="edge1" class="edge"><title>Node2&#45;&gt;Node1</title>
<path fill="none" stroke="midnightblue" d="M107.69,-82.2852C139.399,-68.2324 190.326,-45.6623 223.222,-31.0836"/>
<polygon fill="midnightblue" stroke="midnightblue" points="106.232,-79.103 98.5075,-86.3546 109.068,-85.5027 106.232,-79.103"/>
</g>
<!-- Node3 -->
<g id="node3" class="node"><title>Node3</title>
<g id="a_node3"><a xlink:href="../../d2/d65/classcellsociety__team01_1_1_cell_state_1_1_state.html" target="_top" xlink:title="cellsociety_team01.CellState.\lState">
<polygon fill="white" stroke="black" points="176,-81 176,-111 334,-111 334,-81 176,-81"/>
<text text-anchor="start" x="184" y="-99" font-family="Helvetica,sans-Serif" font-size="10.00">cellsociety_team01.CellState.</text>
<text text-anchor="middle" x="255" y="-88" font-family="Helvetica,sans-Serif" font-size="10.00">State</text>
</a>
</g>
</g>
<!-- Node3&#45;&gt;Node1 -->
<g id="edge2" class="edge"><title>Node3&#45;&gt;Node1</title>
<path fill="none" stroke="#9a32cd" stroke-dasharray="5,2" d="M255,-70.5644C255,-57.6243 255,-42.1862 255,-31.2157"/>
<polygon fill="#9a32cd" stroke="#9a32cd" points="251.5,-70.6936 255,-80.6936 258.5,-70.6936 251.5,-70.6936"/>
<text text-anchor="middle" x="292" y="-53.5" font-family="Helvetica,sans-Serif" font-size="10.00"> myTargetState</text>
</g>
<!-- Node4 -->
<g id="node4" class="node"><title>Node4</title>
<polygon fill="white" stroke="#bfbfbf" points="234.5,-160.5 234.5,-179.5 275.5,-179.5 275.5,-160.5 234.5,-160.5"/>
<text text-anchor="middle" x="255" y="-167.5" font-family="Helvetica,sans-Serif" font-size="10.00">Color</text>
</g>
<!-- Node4&#45;&gt;Node3 -->
<g id="edge3" class="edge"><title>Node4&#45;&gt;Node3</title>
<path fill="none" stroke="#9a32cd" stroke-dasharray="5,2" d="M255,-150.085C255,-137.915 255,-122.354 255,-111.232"/>
<polygon fill="#9a32cd" stroke="#9a32cd" points="251.5,-150.458 255,-160.458 258.5,-150.458 251.5,-150.458"/>
<text text-anchor="middle" x="276.5" y="-133.5" font-family="Helvetica,sans-Serif" font-size="10.00"> myColor</text>
</g>
<!-- Node5 -->
<g id="node5" class="node"><title>Node5</title>
<polygon fill="white" stroke="#bfbfbf" points="352,-86.5 352,-105.5 408,-105.5 408,-86.5 352,-86.5"/>
<text text-anchor="middle" x="380" y="-93.5" font-family="Helvetica,sans-Serif" font-size="10.00">Random</text>
</g>
<!-- Node5&#45;&gt;Node1 -->
<g id="edge4" class="edge"><title>Node5&#45;&gt;Node1</title>
<path fill="none" stroke="#9a32cd" stroke-dasharray="5,2" d="M365.954,-78.8802C357.185,-69.5392 345.262,-58.0682 333,-50 321.699,-42.5646 308.447,-36.2114 296.106,-31.1229"/>
<polygon fill="#9a32cd" stroke="#9a32cd" points="363.466,-81.3467 372.777,-86.4015 368.651,-76.6434 363.466,-81.3467"/>
<text text-anchor="middle" x="378" y="-53.5" font-family="Helvetica,sans-Serif" font-size="10.00"> myRandom</text>
</g>
</g>
</svg>
