<?xml version="1.0" encoding="UTF-8" standalone="no"?>
<!DOCTYPE svg PUBLIC "-//W3C//DTD SVG 1.1//EN"
 "http://www.w3.org/Graphics/SVG/1.1/DTD/svg11.dtd">
<!-- Generated by graphviz version 2.36.0 (20140111.2315)
 -->
<!-- Title: cellsociety_team01.exceptions.CellLocationException.handleException Pages: 1 -->
<svg width="1358pt" height="87pt"
 viewBox="0.00 0.00 1358.00 87.00" xmlns="http://www.w3.org/2000/svg" xmlns:xlink="http://www.w3.org/1999/xlink">
<g id="graph0" class="graph" transform="scale(1 1) rotate(0) translate(4 83)">
<title>cellsociety_team01.exceptions.CellLocationException.handleException</title>
<polygon fill="white" stroke="none" points="-4,4 -4,-83 1354,-83 1354,4 -4,4"/>
<!-- Node1 -->
<g id="node1" class="node"><title>Node1</title>
<polygon fill="#bfbfbf" stroke="black" points="0.5,-24 0.5,-54 203.5,-54 203.5,-24 0.5,-24"/>
<text text-anchor="start" x="8.5" y="-42" font-family="Helvetica,sans-Serif" font-size="10.00">cellsociety_team01.exceptions.</text>
<text text-anchor="middle" x="102" y="-31" font-family="Helvetica,sans-Serif" font-size="10.00">CellLocationException.handleException</text>
</g>
<!-- Node2 -->
<g id="node2" class="node"><title>Node2</title>
<g id="a_node2"><a xlink:href="../../db/d40/classcellsociety__team01_1_1parser_1_1_parser.html#afa693f17f280ab1cf88baf2565c593a9" target="_top" xlink:title="cellsociety_team01.parser.\lParser.parseGrid">
<polygon fill="white" stroke="black" points="422.5,-24 422.5,-54 567.5,-54 567.5,-24 422.5,-24"/>
<text text-anchor="start" x="430.5" y="-42" font-family="Helvetica,sans-Serif" font-size="10.00">cellsociety_team01.parser.</text>
<text text-anchor="middle" x="495" y="-31" font-family="Helvetica,sans-Serif" font-size="10.00">Parser.parseGrid</text>
</a>
</g>
</g>
<!-- Node1&#45;&gt;Node2 -->
<g id="edge1" class="edge"><title>Node1&#45;&gt;Node2</title>
<path fill="none" stroke="midnightblue" d="M213.688,-40.7543C222.59,-40.8532 231.445,-40.9376 240,-41 304.887,-41.4736 321.114,-41.6007 386,-41 397.72,-40.8915 410.155,-40.7168 422.257,-40.5146"/>
<polygon fill="midnightblue" stroke="midnightblue" points="213.671,-37.2539 203.631,-40.6368 213.589,-44.2535 213.671,-37.2539"/>
</g>
<!-- Node9 -->
<g id="node9" class="node"><title>Node9</title>
<g id="a_node9"><a xlink:href="../../db/d40/classcellsociety__team01_1_1parser_1_1_parser.html#a6328c0a6b8dab4bc6d860e80739fadca" target="_top" xlink:title="cellsociety_team01.parser.\lParser.placeGivenCells">
<polygon fill="white" stroke="black" points="240.5,-2 240.5,-32 385.5,-32 385.5,-2 240.5,-2"/>
<text text-anchor="start" x="248.5" y="-20" font-family="Helvetica,sans-Serif" font-size="10.00">cellsociety_team01.parser.</text>
<text text-anchor="middle" x="313" y="-9" font-family="Helvetica,sans-Serif" font-size="10.00">Parser.placeGivenCells</text>
</a>
</g>
</g>
<!-- Node1&#45;&gt;Node9 -->
<g id="edge9" class="edge"><title>Node1&#45;&gt;Node9</title>
<path fill="none" stroke="midnightblue" d="M213.732,-27.344C222.765,-26.3932 231.736,-25.4489 240.373,-24.5397"/>
<polygon fill="midnightblue" stroke="midnightblue" points="213.1,-23.8912 203.521,-28.4189 213.832,-30.8527 213.1,-23.8912"/>
</g>
<!-- Node3 -->
<g id="node3" class="node"><title>Node3</title>
<g id="a_node3"><a xlink:href="../../db/d40/classcellsociety__team01_1_1parser_1_1_parser.html#a31a05836dde41569f62542b9ea327f95" target="_top" xlink:title="cellsociety_team01.parser.\lParser.parseXmlFile">
<polygon fill="white" stroke="black" points="604.5,-24 604.5,-54 749.5,-54 749.5,-24 604.5,-24"/>
<text text-anchor="start" x="612.5" y="-42" font-family="Helvetica,sans-Serif" font-size="10.00">cellsociety_team01.parser.</text>
<text text-anchor="middle" x="677" y="-31" font-family="Helvetica,sans-Serif" font-size="10.00">Parser.parseXmlFile</text>
</a>
</g>
</g>
<!-- Node2&#45;&gt;Node3 -->
<g id="edge2" class="edge"><title>Node2&#45;&gt;Node3</title>
<path fill="none" stroke="midnightblue" d="M577.921,-39C586.722,-39 595.626,-39 604.295,-39"/>
<polygon fill="midnightblue" stroke="midnightblue" points="577.658,-35.5001 567.658,-39 577.658,-42.5001 577.658,-35.5001"/>
</g>
<!-- Node4 -->
<g id="node4" class="node"><title>Node4</title>
<g id="a_node4"><a xlink:href="../../db/d10/classcellsociety__team01_1_1modelview_1_1_g_u_i.html#afa183319cc9816a6147cba0869ef82eb" target="_top" xlink:title="cellsociety_team01.modelview.\lGUI.loadXML">
<polygon fill="white" stroke="black" points="786,-49 786,-79 950,-79 950,-49 786,-49"/>
<text text-anchor="start" x="794" y="-67" font-family="Helvetica,sans-Serif" font-size="10.00">cellsociety_team01.modelview.</text>
<text text-anchor="middle" x="868" y="-56" font-family="Helvetica,sans-Serif" font-size="10.00">GUI.loadXML</text>
</a>
</g>
</g>
<!-- Node3&#45;&gt;Node4 -->
<g id="edge3" class="edge"><title>Node3&#45;&gt;Node4</title>
<path fill="none" stroke="midnightblue" d="M759.781,-49.8175C768.42,-50.9604 777.205,-52.1223 785.837,-53.2642"/>
<polygon fill="midnightblue" stroke="midnightblue" points="760.095,-46.3287 749.722,-48.4871 759.177,-53.2683 760.095,-46.3287"/>
</g>
<!-- Node7 -->
<g id="node7" class="node"><title>Node7</title>
<g id="a_node7"><a xlink:href="../../db/d10/classcellsociety__team01_1_1modelview_1_1_g_u_i.html#a5c5e37ae72fe72af97fab2cb9a12b045" target="_top" xlink:title="cellsociety_team01.modelview.\lGUI.reset">
<polygon fill="white" stroke="black" points="786,-0 786,-30 950,-30 950,-0 786,-0"/>
<text text-anchor="start" x="794" y="-18" font-family="Helvetica,sans-Serif" font-size="10.00">cellsociety_team01.modelview.</text>
<text text-anchor="middle" x="868" y="-7" font-family="Helvetica,sans-Serif" font-size="10.00">GUI.reset</text>
</a>
</g>
</g>
<!-- Node3&#45;&gt;Node7 -->
<g id="edge6" class="edge"><title>Node3&#45;&gt;Node7</title>
<path fill="none" stroke="midnightblue" d="M759.781,-28.6152C768.42,-27.518 777.205,-26.4026 785.837,-25.3064"/>
<polygon fill="midnightblue" stroke="midnightblue" points="759.202,-25.1605 749.722,-29.8924 760.084,-32.1047 759.202,-25.1605"/>
</g>
<!-- Node5 -->
<g id="node5" class="node"><title>Node5</title>
<g id="a_node5"><a xlink:href="../../db/d10/classcellsociety__team01_1_1modelview_1_1_g_u_i.html#a4072ce794f518e806e7a912892f1e9da" target="_top" xlink:title="cellsociety_team01.modelview.\lGUI.makeMenuBar">
<polygon fill="white" stroke="black" points="986,-49 986,-79 1150,-79 1150,-49 986,-49"/>
<text text-anchor="start" x="994" y="-67" font-family="Helvetica,sans-Serif" font-size="10.00">cellsociety_team01.modelview.</text>
<text text-anchor="middle" x="1068" y="-56" font-family="Helvetica,sans-Serif" font-size="10.00">GUI.makeMenuBar</text>
</a>
</g>
</g>
<!-- Node4&#45;&gt;Node5 -->
<g id="edge4" class="edge"><title>Node4&#45;&gt;Node5</title>
<path fill="none" stroke="midnightblue" d="M960.363,-64C968.817,-64 977.346,-64 985.7,-64"/>
<polygon fill="midnightblue" stroke="midnightblue" points="960.106,-60.5001 950.105,-64 960.105,-67.5001 960.106,-60.5001"/>
</g>
<!-- Node6 -->
<g id="node6" class="node"><title>Node6</title>
<g id="a_node6"><a xlink:href="../../db/d10/classcellsociety__team01_1_1modelview_1_1_g_u_i.html#a07bcff60812627c8dfe97f1aadc671e5" target="_top" xlink:title="cellsociety_team01.modelview.\lGUI.GUI">
<polygon fill="white" stroke="black" points="1186,-24 1186,-54 1350,-54 1350,-24 1186,-24"/>
<text text-anchor="start" x="1194" y="-42" font-family="Helvetica,sans-Serif" font-size="10.00">cellsociety_team01.modelview.</text>
<text text-anchor="middle" x="1268" y="-31" font-family="Helvetica,sans-Serif" font-size="10.00">GUI.GUI</text>
</a>
</g>
</g>
<!-- Node5&#45;&gt;Node6 -->
<g id="edge5" class="edge"><title>Node5&#45;&gt;Node6</title>
<path fill="none" stroke="midnightblue" d="M1160.08,-52.4994C1168.63,-51.4205 1177.25,-50.3316 1185.7,-49.2651"/>
<polygon fill="midnightblue" stroke="midnightblue" points="1159.59,-49.0342 1150.11,-53.7594 1160.47,-55.9791 1159.59,-49.0342"/>
</g>
<!-- Node8 -->
<g id="node8" class="node"><title>Node8</title>
<g id="a_node8"><a xlink:href="../../db/d10/classcellsociety__team01_1_1modelview_1_1_g_u_i.html#aa924c28ce131195d3f377b18177f6cb9" target="_top" xlink:title="cellsociety_team01.modelview.\lGUI.makeButtonsAndSlider">
<polygon fill="white" stroke="black" points="986,-0 986,-30 1150,-30 1150,-0 986,-0"/>
<text text-anchor="start" x="994" y="-18" font-family="Helvetica,sans-Serif" font-size="10.00">cellsociety_team01.modelview.</text>
<text text-anchor="middle" x="1068" y="-7" font-family="Helvetica,sans-Serif" font-size="10.00">GUI.makeButtonsAndSlider</text>
</a>
</g>
</g>
<!-- Node7&#45;&gt;Node8 -->
<g id="edge7" class="edge"><title>Node7&#45;&gt;Node8</title>
<path fill="none" stroke="midnightblue" d="M960.363,-15C968.817,-15 977.346,-15 985.7,-15"/>
<polygon fill="midnightblue" stroke="midnightblue" points="960.106,-11.5001 950.105,-15 960.105,-18.5001 960.106,-11.5001"/>
</g>
<!-- Node8&#45;&gt;Node6 -->
<g id="edge8" class="edge"><title>Node8&#45;&gt;Node6</title>
<path fill="none" stroke="midnightblue" d="M1160.08,-26.0406C1168.63,-27.0763 1177.25,-28.1217 1185.7,-29.1455"/>
<polygon fill="midnightblue" stroke="midnightblue" points="1160.45,-22.5598 1150.11,-24.831 1159.61,-29.5089 1160.45,-22.5598"/>
</g>
<!-- Node9&#45;&gt;Node2 -->
<g id="edge10" class="edge"><title>Node9&#45;&gt;Node2</title>
<path fill="none" stroke="midnightblue" d="M395.634,-26.9775C404.528,-28.0646 413.532,-29.165 422.295,-30.236"/>
<polygon fill="midnightblue" stroke="midnightblue" points="396.009,-23.4973 385.658,-25.7582 395.159,-30.4456 396.009,-23.4973"/>
</g>
</g>
</svg>
