<?xml version="1.0" encoding="UTF-8" standalone="no"?>
<!DOCTYPE svg PUBLIC "-//W3C//DTD SVG 1.1//EN"
 "http://www.w3.org/Graphics/SVG/1.1/DTD/svg11.dtd">
<!-- Generated by graphviz version 2.36.0 (20140111.2315)
 -->
<!-- Title: cellsociety_team01.rules.MovementRule.pickCell Pages: 1 -->
<svg width="344pt" height="185pt"
 viewBox="0.00 0.00 344.00 185.00" xmlns="http://www.w3.org/2000/svg" xmlns:xlink="http://www.w3.org/1999/xlink">
<g id="graph0" class="graph" transform="scale(1 1) rotate(0) translate(4 181)">
<title>cellsociety_team01.rules.MovementRule.pickCell</title>
<polygon fill="white" stroke="none" points="-4,4 -4,-181 340,-181 340,4 -4,4"/>
<!-- Node1 -->
<g id="node1" class="node"><title>Node1</title>
<polygon fill="#bfbfbf" stroke="black" points="0,-73 0,-103 138,-103 138,-73 0,-73"/>
<text text-anchor="start" x="8" y="-91" font-family="Helvetica,sans-Serif" font-size="10.00">cellsociety_team01.rules.</text>
<text text-anchor="middle" x="69" y="-80" font-family="Helvetica,sans-Serif" font-size="10.00">MovementRule.pickCell</text>
</g>
<!-- Node2 -->
<g id="node2" class="node"><title>Node2</title>
<g id="a_node2"><a xlink:href="../../df/d97/classcellsociety__team01_1_1rules_1_1_threshold_movement_rule.html#a80b6469bcd4546835352adbf0b901a22" target="_top" xlink:title="cellsociety_team01.rules.\lThresholdMovementRule.apply">
<polygon fill="white" stroke="black" points="174,-147 174,-177 336,-177 336,-147 174,-147"/>
<text text-anchor="start" x="182" y="-165" font-family="Helvetica,sans-Serif" font-size="10.00">cellsociety_team01.rules.</text>
<text text-anchor="middle" x="255" y="-154" font-family="Helvetica,sans-Serif" font-size="10.00">ThresholdMovementRule.apply</text>
</a>
</g>
</g>
<!-- Node1&#45;&gt;Node2 -->
<g id="edge1" class="edge"><title>Node1&#45;&gt;Node2</title>
<path fill="none" stroke="midnightblue" d="M108.24,-107.561C127.658,-117.096 151.785,-128.343 174,-137 182.948,-140.487 192.6,-143.838 201.998,-146.891"/>
<polygon fill="midnightblue" stroke="midnightblue" points="109.629,-104.343 99.115,-103.037 106.52,-110.615 109.629,-104.343"/>
</g>
<!-- Node3 -->
<g id="node3" class="node"><title>Node3</title>
<g id="a_node3"><a xlink:href="../../d9/d10/classcellsociety__team01_1_1rules_1_1_movement_rule.html#a5f0521febc4a9092ad136a10e8307cea" target="_top" xlink:title="cellsociety_team01.rules.\lMovementRule.apply">
<polygon fill="white" stroke="black" points="186,-98 186,-128 324,-128 324,-98 186,-98"/>
<text text-anchor="start" x="194" y="-116" font-family="Helvetica,sans-Serif" font-size="10.00">cellsociety_team01.rules.</text>
<text text-anchor="middle" x="255" y="-105" font-family="Helvetica,sans-Serif" font-size="10.00">MovementRule.apply</text>
</a>
</g>
</g>
<!-- Node1&#45;&gt;Node3 -->
<g id="edge2" class="edge"><title>Node1&#45;&gt;Node3</title>
<path fill="none" stroke="midnightblue" d="M148.202,-98.6253C160.724,-100.327 173.594,-102.075 185.857,-103.741"/>
<polygon fill="midnightblue" stroke="midnightblue" points="148.634,-95.1518 138.253,-97.2736 147.691,-102.088 148.634,-95.1518"/>
</g>
<!-- Node4 -->
<g id="node4" class="node"><title>Node4</title>
<g id="a_node4"><a xlink:href="../../d5/d26/classcellsociety__team01_1_1rules_1_1_reproduction_rule.html#ab011923eec073a1756fa121391885c3c" target="_top" xlink:title="cellsociety_team01.rules.\lReproductionRule.apply">
<polygon fill="white" stroke="black" points="186,-49 186,-79 324,-79 324,-49 186,-49"/>
<text text-anchor="start" x="194" y="-67" font-family="Helvetica,sans-Serif" font-size="10.00">cellsociety_team01.rules.</text>
<text text-anchor="middle" x="255" y="-56" font-family="Helvetica,sans-Serif" font-size="10.00">ReproductionRule.apply</text>
</a>
</g>
</g>
<!-- Node1&#45;&gt;Node4 -->
<g id="edge3" class="edge"><title>Node1&#45;&gt;Node4</title>
<path fill="none" stroke="midnightblue" d="M148.202,-77.7997C160.724,-76.1665 173.594,-74.4877 185.857,-72.8882"/>
<polygon fill="midnightblue" stroke="midnightblue" points="147.717,-74.3333 138.253,-79.0974 148.622,-81.2745 147.717,-74.3333"/>
</g>
<!-- Node5 -->
<g id="node5" class="node"><title>Node5</title>
<g id="a_node5"><a xlink:href="../../d4/d68/classcellsociety__team01_1_1rules_1_1_consumption_rule.html#a2298782f412ffc7b683876b65d6e2d03" target="_top" xlink:title="cellsociety_team01.rules.\lConsumptionRule.apply">
<polygon fill="white" stroke="black" points="186,-0 186,-30 324,-30 324,-0 186,-0"/>
<text text-anchor="start" x="194" y="-18" font-family="Helvetica,sans-Serif" font-size="10.00">cellsociety_team01.rules.</text>
<text text-anchor="middle" x="255" y="-7" font-family="Helvetica,sans-Serif" font-size="10.00">ConsumptionRule.apply</text>
</a>
</g>
</g>
<!-- Node1&#45;&gt;Node5 -->
<g id="edge4" class="edge"><title>Node1&#45;&gt;Node5</title>
<path fill="none" stroke="midnightblue" d="M109.123,-68.4831C128.403,-59.2422 152.152,-48.4149 174,-40 183.098,-36.4959 192.913,-33.1135 202.448,-30.0292"/>
<polygon fill="midnightblue" stroke="midnightblue" points="107.522,-65.3691 100.044,-72.8746 110.571,-71.6705 107.522,-65.3691"/>
</g>
</g>
</svg>
