<?xml version="1.0" encoding="UTF-8" standalone="no"?>
<!DOCTYPE svg PUBLIC "-//W3C//DTD SVG 1.1//EN"
 "http://www.w3.org/Graphics/SVG/1.1/DTD/svg11.dtd">
<!-- Generated by graphviz version 2.36.0 (20140111.2315)
 -->
<!-- Title: cellsociety_team01.CellState.State.updateColor Pages: 1 -->
<svg width="372pt" height="87pt"
 viewBox="0.00 0.00 372.00 87.00" xmlns="http://www.w3.org/2000/svg" xmlns:xlink="http://www.w3.org/1999/xlink">
<g id="graph0" class="graph" transform="scale(1 1) rotate(0) translate(4 83)">
<title>cellsociety_team01.CellState.State.updateColor</title>
<polygon fill="white" stroke="none" points="-4,4 -4,-83 368,-83 368,4 -4,4"/>
<!-- Node1 -->
<g id="node1" class="node"><title>Node1</title>
<polygon fill="#bfbfbf" stroke="black" points="0,-24 0,-54 158,-54 158,-24 0,-24"/>
<text text-anchor="start" x="8" y="-42" font-family="Helvetica,sans-Serif" font-size="10.00">cellsociety_team01.CellState.</text>
<text text-anchor="middle" x="79" y="-31" font-family="Helvetica,sans-Serif" font-size="10.00">State.updateColor</text>
</g>
<!-- Node2 -->
<g id="node2" class="node"><title>Node2</title>
<g id="a_node2"><a xlink:href="../../df/df3/classcellsociety__team01_1_1simulations_1_1_slime_molds.html#a0a8b87c816e05186ca040523491a30f9" target="_top" xlink:title="cellsociety_team01.simulations.\lSlimeMolds.update">
<polygon fill="white" stroke="black" points="194,-49 194,-79 364,-79 364,-49 194,-49"/>
<text text-anchor="start" x="202" y="-67" font-family="Helvetica,sans-Serif" font-size="10.00">cellsociety_team01.simulations.</text>
<text text-anchor="middle" x="279" y="-56" font-family="Helvetica,sans-Serif" font-size="10.00">SlimeMolds.update</text>
</a>
</g>
</g>
<!-- Node1&#45;&gt;Node2 -->
<g id="edge1" class="edge"><title>Node1&#45;&gt;Node2</title>
<path fill="none" stroke="midnightblue" d="M168.185,-50.1345C176.7,-51.2096 185.322,-52.2983 193.797,-53.3683"/>
<polygon fill="midnightblue" stroke="midnightblue" points="168.615,-46.661 158.255,-48.8807 167.738,-53.6059 168.615,-46.661"/>
</g>
<!-- Node3 -->
<g id="node3" class="node"><title>Node3</title>
<g id="a_node3"><a xlink:href="../../d7/d89/classcellsociety__team01_1_1simulations_1_1_sugarscape.html#afcb37216cf85c2b1ed557b0c6517d4b6" target="_top" xlink:title="cellsociety_team01.simulations.\lSugarscape.update">
<polygon fill="white" stroke="black" points="194,-0 194,-30 364,-30 364,-0 194,-0"/>
<text text-anchor="start" x="202" y="-18" font-family="Helvetica,sans-Serif" font-size="10.00">cellsociety_team01.simulations.</text>
<text text-anchor="middle" x="279" y="-7" font-family="Helvetica,sans-Serif" font-size="10.00">Sugarscape.update</text>
</a>
</g>
</g>
<!-- Node1&#45;&gt;Node3 -->
<g id="edge2" class="edge"><title>Node1&#45;&gt;Node3</title>
<path fill="none" stroke="midnightblue" d="M168.185,-28.3109C176.7,-27.2788 185.322,-26.2337 193.797,-25.2064"/>
<polygon fill="midnightblue" stroke="midnightblue" points="167.761,-24.8366 158.255,-29.5146 168.603,-31.7857 167.761,-24.8366"/>
</g>
</g>
</svg>
