<?xml version="1.0" encoding="UTF-8" standalone="no"?>
<!DOCTYPE svg PUBLIC "-//W3C//DTD SVG 1.1//EN"
 "http://www.w3.org/Graphics/SVG/1.1/DTD/svg11.dtd">
<!-- Generated by graphviz version 2.36.0 (20140111.2315)
 -->
<!-- Title: cellsociety_team01.CellState.State.newInstanceOf Pages: 1 -->
<svg width="1886pt" height="155pt"
 viewBox="0.00 0.00 1886.00 155.00" xmlns="http://www.w3.org/2000/svg" xmlns:xlink="http://www.w3.org/1999/xlink">
<g id="graph0" class="graph" transform="scale(1 1) rotate(0) translate(4 151)">
<title>cellsociety_team01.CellState.State.newInstanceOf</title>
<polygon fill="white" stroke="none" points="-4,4 -4,-151 1882,-151 1882,4 -4,4"/>
<!-- Node1 -->
<g id="node1" class="node"><title>Node1</title>
<polygon fill="#bfbfbf" stroke="black" points="0,-92 0,-122 158,-122 158,-92 0,-92"/>
<text text-anchor="start" x="8" y="-110" font-family="Helvetica,sans-Serif" font-size="10.00">cellsociety_team01.CellState.</text>
<text text-anchor="middle" x="79" y="-99" font-family="Helvetica,sans-Serif" font-size="10.00">State.newInstanceOf</text>
</g>
<!-- Node2 -->
<g id="node2" class="node"><title>Node2</title>
<g id="a_node2"><a xlink:href="../../d5/d26/classcellsociety__team01_1_1rules_1_1_reproduction_rule.html#ab011923eec073a1756fa121391885c3c" target="_top" xlink:title="cellsociety_team01.rules.\lReproductionRule.apply">
<polygon fill="white" stroke="black" points="210,-117 210,-147 348,-147 348,-117 210,-117"/>
<text text-anchor="start" x="218" y="-135" font-family="Helvetica,sans-Serif" font-size="10.00">cellsociety_team01.rules.</text>
<text text-anchor="middle" x="279" y="-124" font-family="Helvetica,sans-Serif" font-size="10.00">ReproductionRule.apply</text>
</a>
</g>
</g>
<!-- Node1&#45;&gt;Node2 -->
<g id="edge1" class="edge"><title>Node1&#45;&gt;Node2</title>
<path fill="none" stroke="midnightblue" d="M168.345,-118.155C182.293,-119.916 196.526,-121.713 209.92,-123.404"/>
<polygon fill="midnightblue" stroke="midnightblue" points="168.615,-114.661 158.255,-116.881 167.738,-121.606 168.615,-114.661"/>
</g>
<!-- Node3 -->
<g id="node3" class="node"><title>Node3</title>
<g id="a_node3"><a xlink:href="../../da/df7/classcellsociety__team01_1_1simulations_1_1_simulation.html#af6dd9ee9d5ef64a7f1526fddb9e2ad69" target="_top" xlink:title="cellsociety_team01.simulations.\lSimulation.findState">
<polygon fill="white" stroke="black" points="194,-68 194,-98 364,-98 364,-68 194,-68"/>
<text text-anchor="start" x="202" y="-86" font-family="Helvetica,sans-Serif" font-size="10.00">cellsociety_team01.simulations.</text>
<text text-anchor="middle" x="279" y="-75" font-family="Helvetica,sans-Serif" font-size="10.00">Simulation.findState</text>
</a>
</g>
</g>
<!-- Node1&#45;&gt;Node3 -->
<g id="edge2" class="edge"><title>Node1&#45;&gt;Node3</title>
<path fill="none" stroke="midnightblue" d="M168.185,-96.3109C176.7,-95.2788 185.322,-94.2337 193.797,-93.2064"/>
<polygon fill="midnightblue" stroke="midnightblue" points="167.761,-92.8366 158.255,-97.5146 168.603,-99.7857 167.761,-92.8366"/>
</g>
<!-- Node4 -->
<g id="node4" class="node"><title>Node4</title>
<g id="a_node4"><a xlink:href="../../db/d40/classcellsociety__team01_1_1parser_1_1_parser.html#a5ffbb8ad89f8a4a661d2204b837a070a" target="_top" xlink:title="cellsociety_team01.parser.\lParser.getState">
<polygon fill="white" stroke="black" points="400.5,-68 400.5,-98 545.5,-98 545.5,-68 400.5,-68"/>
<text text-anchor="start" x="408.5" y="-86" font-family="Helvetica,sans-Serif" font-size="10.00">cellsociety_team01.parser.</text>
<text text-anchor="middle" x="473" y="-75" font-family="Helvetica,sans-Serif" font-size="10.00">Parser.getState</text>
</a>
</g>
</g>
<!-- Node3&#45;&gt;Node4 -->
<g id="edge3" class="edge"><title>Node3&#45;&gt;Node4</title>
<path fill="none" stroke="midnightblue" d="M374.458,-83C383.207,-83 391.972,-83 400.464,-83"/>
<polygon fill="midnightblue" stroke="midnightblue" points="374.214,-79.5001 364.214,-83 374.214,-86.5001 374.214,-79.5001"/>
</g>
<!-- Node5 -->
<g id="node5" class="node"><title>Node5</title>
<g id="a_node5"><a xlink:href="../../db/d40/classcellsociety__team01_1_1parser_1_1_parser.html#a6328c0a6b8dab4bc6d860e80739fadca" target="_top" xlink:title="cellsociety_team01.parser.\lParser.placeGivenCells">
<polygon fill="white" stroke="black" points="582.5,-93 582.5,-123 727.5,-123 727.5,-93 582.5,-93"/>
<text text-anchor="start" x="590.5" y="-111" font-family="Helvetica,sans-Serif" font-size="10.00">cellsociety_team01.parser.</text>
<text text-anchor="middle" x="655" y="-100" font-family="Helvetica,sans-Serif" font-size="10.00">Parser.placeGivenCells</text>
</a>
</g>
</g>
<!-- Node4&#45;&gt;Node5 -->
<g id="edge4" class="edge"><title>Node4&#45;&gt;Node5</title>
<path fill="none" stroke="midnightblue" d="M555.634,-94.3381C564.528,-95.5734 573.532,-96.8239 582.295,-98.0409"/>
<polygon fill="midnightblue" stroke="midnightblue" points="556.044,-90.8615 545.658,-92.9525 555.081,-97.795 556.044,-90.8615"/>
</g>
<!-- Node13 -->
<g id="node13" class="node"><title>Node13</title>
<g id="a_node13"><a xlink:href="../../db/d40/classcellsociety__team01_1_1parser_1_1_parser.html#aaf8f8745b89e52aee75fa2920608bbac" target="_top" xlink:title="cellsociety_team01.parser.\lParser.fillMap">
<polygon fill="white" stroke="black" points="582.5,-44 582.5,-74 727.5,-74 727.5,-44 582.5,-44"/>
<text text-anchor="start" x="590.5" y="-62" font-family="Helvetica,sans-Serif" font-size="10.00">cellsociety_team01.parser.</text>
<text text-anchor="middle" x="655" y="-51" font-family="Helvetica,sans-Serif" font-size="10.00">Parser.fillMap</text>
</a>
</g>
</g>
<!-- Node4&#45;&gt;Node13 -->
<g id="edge13" class="edge"><title>Node4&#45;&gt;Node13</title>
<path fill="none" stroke="midnightblue" d="M555.634,-72.1154C564.528,-70.9296 573.532,-69.729 582.295,-68.5607"/>
<polygon fill="midnightblue" stroke="midnightblue" points="555.108,-68.6546 545.658,-73.4456 556.033,-75.5932 555.108,-68.6546"/>
</g>
<!-- Node6 -->
<g id="node6" class="node"><title>Node6</title>
<g id="a_node6"><a xlink:href="../../db/d40/classcellsociety__team01_1_1parser_1_1_parser.html#afa693f17f280ab1cf88baf2565c593a9" target="_top" xlink:title="cellsociety_team01.parser.\lParser.parseGrid">
<polygon fill="white" stroke="black" points="950.5,-49 950.5,-79 1095.5,-79 1095.5,-49 950.5,-49"/>
<text text-anchor="start" x="958.5" y="-67" font-family="Helvetica,sans-Serif" font-size="10.00">cellsociety_team01.parser.</text>
<text text-anchor="middle" x="1023" y="-56" font-family="Helvetica,sans-Serif" font-size="10.00">Parser.parseGrid</text>
</a>
</g>
</g>
<!-- Node5&#45;&gt;Node6 -->
<g id="edge5" class="edge"><title>Node5&#45;&gt;Node6</title>
<path fill="none" stroke="midnightblue" d="M738.044,-104.604C788.91,-101.765 855.489,-96.7244 914,-88 929.483,-85.6914 946.054,-82.4203 961.45,-79.0334"/>
<polygon fill="midnightblue" stroke="midnightblue" points="737.559,-101.125 727.762,-105.159 737.936,-108.114 737.559,-101.125"/>
</g>
<!-- Node7 -->
<g id="node7" class="node"><title>Node7</title>
<g id="a_node7"><a xlink:href="../../db/d40/classcellsociety__team01_1_1parser_1_1_parser.html#a31a05836dde41569f62542b9ea327f95" target="_top" xlink:title="cellsociety_team01.parser.\lParser.parseXmlFile">
<polygon fill="white" stroke="black" points="1132.5,-49 1132.5,-79 1277.5,-79 1277.5,-49 1132.5,-49"/>
<text text-anchor="start" x="1140.5" y="-67" font-family="Helvetica,sans-Serif" font-size="10.00">cellsociety_team01.parser.</text>
<text text-anchor="middle" x="1205" y="-56" font-family="Helvetica,sans-Serif" font-size="10.00">Parser.parseXmlFile</text>
</a>
</g>
</g>
<!-- Node6&#45;&gt;Node7 -->
<g id="edge6" class="edge"><title>Node6&#45;&gt;Node7</title>
<path fill="none" stroke="midnightblue" d="M1105.92,-64C1114.72,-64 1123.63,-64 1132.29,-64"/>
<polygon fill="midnightblue" stroke="midnightblue" points="1105.66,-60.5001 1095.66,-64 1105.66,-67.5001 1105.66,-60.5001"/>
</g>
<!-- Node8 -->
<g id="node8" class="node"><title>Node8</title>
<g id="a_node8"><a xlink:href="../../db/d10/classcellsociety__team01_1_1modelview_1_1_g_u_i.html#afa183319cc9816a6147cba0869ef82eb" target="_top" xlink:title="cellsociety_team01.modelview.\lGUI.loadXML">
<polygon fill="white" stroke="black" points="1314,-74 1314,-104 1478,-104 1478,-74 1314,-74"/>
<text text-anchor="start" x="1322" y="-92" font-family="Helvetica,sans-Serif" font-size="10.00">cellsociety_team01.modelview.</text>
<text text-anchor="middle" x="1396" y="-81" font-family="Helvetica,sans-Serif" font-size="10.00">GUI.loadXML</text>
</a>
</g>
</g>
<!-- Node7&#45;&gt;Node8 -->
<g id="edge7" class="edge"><title>Node7&#45;&gt;Node8</title>
<path fill="none" stroke="midnightblue" d="M1287.78,-74.8175C1296.42,-75.9604 1305.2,-77.1223 1313.84,-78.2642"/>
<polygon fill="midnightblue" stroke="midnightblue" points="1288.09,-71.3287 1277.72,-73.4871 1287.18,-78.2683 1288.09,-71.3287"/>
</g>
<!-- Node11 -->
<g id="node11" class="node"><title>Node11</title>
<g id="a_node11"><a xlink:href="../../db/d10/classcellsociety__team01_1_1modelview_1_1_g_u_i.html#a5c5e37ae72fe72af97fab2cb9a12b045" target="_top" xlink:title="cellsociety_team01.modelview.\lGUI.reset">
<polygon fill="white" stroke="black" points="1314,-25 1314,-55 1478,-55 1478,-25 1314,-25"/>
<text text-anchor="start" x="1322" y="-43" font-family="Helvetica,sans-Serif" font-size="10.00">cellsociety_team01.modelview.</text>
<text text-anchor="middle" x="1396" y="-32" font-family="Helvetica,sans-Serif" font-size="10.00">GUI.reset</text>
</a>
</g>
</g>
<!-- Node7&#45;&gt;Node11 -->
<g id="edge10" class="edge"><title>Node7&#45;&gt;Node11</title>
<path fill="none" stroke="midnightblue" d="M1287.78,-53.6152C1296.42,-52.518 1305.2,-51.4026 1313.84,-50.3064"/>
<polygon fill="midnightblue" stroke="midnightblue" points="1287.2,-50.1605 1277.72,-54.8924 1288.08,-57.1047 1287.2,-50.1605"/>
</g>
<!-- Node9 -->
<g id="node9" class="node"><title>Node9</title>
<g id="a_node9"><a xlink:href="../../db/d10/classcellsociety__team01_1_1modelview_1_1_g_u_i.html#a4072ce794f518e806e7a912892f1e9da" target="_top" xlink:title="cellsociety_team01.modelview.\lGUI.makeMenuBar">
<polygon fill="white" stroke="black" points="1514,-74 1514,-104 1678,-104 1678,-74 1514,-74"/>
<text text-anchor="start" x="1522" y="-92" font-family="Helvetica,sans-Serif" font-size="10.00">cellsociety_team01.modelview.</text>
<text text-anchor="middle" x="1596" y="-81" font-family="Helvetica,sans-Serif" font-size="10.00">GUI.makeMenuBar</text>
</a>
</g>
</g>
<!-- Node8&#45;&gt;Node9 -->
<g id="edge8" class="edge"><title>Node8&#45;&gt;Node9</title>
<path fill="none" stroke="midnightblue" d="M1488.36,-89C1496.82,-89 1505.35,-89 1513.7,-89"/>
<polygon fill="midnightblue" stroke="midnightblue" points="1488.11,-85.5001 1478.11,-89 1488.11,-92.5001 1488.11,-85.5001"/>
</g>
<!-- Node10 -->
<g id="node10" class="node"><title>Node10</title>
<g id="a_node10"><a xlink:href="../../db/d10/classcellsociety__team01_1_1modelview_1_1_g_u_i.html#a07bcff60812627c8dfe97f1aadc671e5" target="_top" xlink:title="cellsociety_team01.modelview.\lGUI.GUI">
<polygon fill="white" stroke="black" points="1714,-49 1714,-79 1878,-79 1878,-49 1714,-49"/>
<text text-anchor="start" x="1722" y="-67" font-family="Helvetica,sans-Serif" font-size="10.00">cellsociety_team01.modelview.</text>
<text text-anchor="middle" x="1796" y="-56" font-family="Helvetica,sans-Serif" font-size="10.00">GUI.GUI</text>
</a>
</g>
</g>
<!-- Node9&#45;&gt;Node10 -->
<g id="edge9" class="edge"><title>Node9&#45;&gt;Node10</title>
<path fill="none" stroke="midnightblue" d="M1688.08,-77.4994C1696.63,-76.4205 1705.25,-75.3316 1713.7,-74.2651"/>
<polygon fill="midnightblue" stroke="midnightblue" points="1687.59,-74.0342 1678.11,-78.7594 1688.47,-80.9791 1687.59,-74.0342"/>
</g>
<!-- Node12 -->
<g id="node12" class="node"><title>Node12</title>
<g id="a_node12"><a xlink:href="../../db/d10/classcellsociety__team01_1_1modelview_1_1_g_u_i.html#aa924c28ce131195d3f377b18177f6cb9" target="_top" xlink:title="cellsociety_team01.modelview.\lGUI.makeButtonsAndSlider">
<polygon fill="white" stroke="black" points="1514,-25 1514,-55 1678,-55 1678,-25 1514,-25"/>
<text text-anchor="start" x="1522" y="-43" font-family="Helvetica,sans-Serif" font-size="10.00">cellsociety_team01.modelview.</text>
<text text-anchor="middle" x="1596" y="-32" font-family="Helvetica,sans-Serif" font-size="10.00">GUI.makeButtonsAndSlider</text>
</a>
</g>
</g>
<!-- Node11&#45;&gt;Node12 -->
<g id="edge11" class="edge"><title>Node11&#45;&gt;Node12</title>
<path fill="none" stroke="midnightblue" d="M1488.36,-40C1496.82,-40 1505.35,-40 1513.7,-40"/>
<polygon fill="midnightblue" stroke="midnightblue" points="1488.11,-36.5001 1478.11,-40 1488.11,-43.5001 1488.11,-36.5001"/>
</g>
<!-- Node12&#45;&gt;Node10 -->
<g id="edge12" class="edge"><title>Node12&#45;&gt;Node10</title>
<path fill="none" stroke="midnightblue" d="M1688.08,-51.0406C1696.63,-52.0763 1705.25,-53.1217 1713.7,-54.1455"/>
<polygon fill="midnightblue" stroke="midnightblue" points="1688.45,-47.5598 1678.11,-49.831 1687.61,-54.5089 1688.45,-47.5598"/>
</g>
<!-- Node14 -->
<g id="node14" class="node"><title>Node14</title>
<g id="a_node14"><a xlink:href="../../db/d40/classcellsociety__team01_1_1parser_1_1_parser.html#a0ed864ecdf8cf6ee778114ebe5c605ea" target="_top" xlink:title="cellsociety_team01.parser.\lParser.placeDistributedCells">
<polygon fill="white" stroke="black" points="764.5,-49 764.5,-79 913.5,-79 913.5,-49 764.5,-49"/>
<text text-anchor="start" x="772.5" y="-67" font-family="Helvetica,sans-Serif" font-size="10.00">cellsociety_team01.parser.</text>
<text text-anchor="middle" x="839" y="-56" font-family="Helvetica,sans-Serif" font-size="10.00">Parser.placeDistributedCells</text>
</a>
</g>
</g>
<!-- Node13&#45;&gt;Node14 -->
<g id="edge14" class="edge"><title>Node13&#45;&gt;Node14</title>
<path fill="none" stroke="midnightblue" d="M737.918,-61.2505C746.709,-61.492 755.615,-61.7367 764.302,-61.9753"/>
<polygon fill="midnightblue" stroke="midnightblue" points="737.762,-57.745 727.67,-60.969 737.57,-64.7424 737.762,-57.745"/>
</g>
<!-- Node15 -->
<g id="node15" class="node"><title>Node15</title>
<g id="a_node15"><a xlink:href="../../db/d40/classcellsociety__team01_1_1parser_1_1_parser.html#aaaea4078e4a144cf51ab40a295f4f396" target="_top" xlink:title="cellsociety_team01.parser.\lParser.placeRandomCells">
<polygon fill="white" stroke="black" points="766.5,-0 766.5,-30 911.5,-30 911.5,-0 766.5,-0"/>
<text text-anchor="start" x="774.5" y="-18" font-family="Helvetica,sans-Serif" font-size="10.00">cellsociety_team01.parser.</text>
<text text-anchor="middle" x="839" y="-7" font-family="Helvetica,sans-Serif" font-size="10.00">Parser.placeRandomCells</text>
</a>
</g>
</g>
<!-- Node13&#45;&gt;Node15 -->
<g id="edge16" class="edge"><title>Node13&#45;&gt;Node15</title>
<path fill="none" stroke="midnightblue" d="M727.877,-41.6231C743.737,-37.7888 760.409,-33.7582 775.846,-30.0262"/>
<polygon fill="midnightblue" stroke="midnightblue" points="727.023,-38.2288 718.125,-43.9808 728.668,-45.0328 727.023,-38.2288"/>
</g>
<!-- Node14&#45;&gt;Node6 -->
<g id="edge15" class="edge"><title>Node14&#45;&gt;Node6</title>
<path fill="none" stroke="midnightblue" d="M923.534,-64C932.473,-64 941.508,-64 950.292,-64"/>
<polygon fill="midnightblue" stroke="midnightblue" points="923.502,-60.5001 913.502,-64 923.502,-67.5001 923.502,-60.5001"/>
</g>
<!-- Node15&#45;&gt;Node6 -->
<g id="edge17" class="edge"><title>Node15&#45;&gt;Node6</title>
<path fill="none" stroke="midnightblue" d="M905.923,-32.7485C925.648,-38.0591 947.078,-43.8288 966.094,-48.9484"/>
<polygon fill="midnightblue" stroke="midnightblue" points="906.657,-29.3216 896.091,-30.1014 904.837,-36.0809 906.657,-29.3216"/>
</g>
</g>
</svg>
