<?xml version="1.0" encoding="UTF-8" standalone="no"?>
<!DOCTYPE svg PUBLIC "-//W3C//DTD SVG 1.1//EN"
 "http://www.w3.org/Graphics/SVG/1.1/DTD/svg11.dtd">
<!-- Generated by graphviz version 2.36.0 (20140111.2315)
 -->
<!-- Title: cellsociety_team01.CellState.State.State Pages: 1 -->
<svg width="2080pt" height="204pt"
 viewBox="0.00 0.00 2080.00 204.00" xmlns="http://www.w3.org/2000/svg" xmlns:xlink="http://www.w3.org/1999/xlink">
<g id="graph0" class="graph" transform="scale(1 1) rotate(0) translate(4 200)">
<title>cellsociety_team01.CellState.State.State</title>
<polygon fill="white" stroke="none" points="-4,4 -4,-200 2076,-200 2076,4 -4,4"/>
<!-- Node1 -->
<g id="node1" class="node"><title>Node1</title>
<polygon fill="#bfbfbf" stroke="black" points="0,-141 0,-171 158,-171 158,-141 0,-141"/>
<text text-anchor="start" x="8" y="-159" font-family="Helvetica,sans-Serif" font-size="10.00">cellsociety_team01.CellState.</text>
<text text-anchor="middle" x="79" y="-148" font-family="Helvetica,sans-Serif" font-size="10.00">State.State</text>
</g>
<!-- Node2 -->
<g id="node2" class="node"><title>Node2</title>
<g id="a_node2"><a xlink:href="../../d2/d65/classcellsociety__team01_1_1_cell_state_1_1_state.html#a85eca1b5621ff1f0a4f459df8cafd511" target="_top" xlink:title="cellsociety_team01.CellState.\lState.equals">
<polygon fill="white" stroke="black" points="194,-166 194,-196 352,-196 352,-166 194,-166"/>
<text text-anchor="start" x="202" y="-184" font-family="Helvetica,sans-Serif" font-size="10.00">cellsociety_team01.CellState.</text>
<text text-anchor="middle" x="273" y="-173" font-family="Helvetica,sans-Serif" font-size="10.00">State.equals</text>
</a>
</g>
</g>
<!-- Node1&#45;&gt;Node2 -->
<g id="edge1" class="edge"><title>Node1&#45;&gt;Node2</title>
<path fill="none" stroke="midnightblue" d="M168.153,-167.478C176.769,-168.6 185.47,-169.733 193.975,-170.841"/>
<polygon fill="midnightblue" stroke="midnightblue" points="168.462,-163.989 158.094,-166.168 167.558,-170.93 168.462,-163.989"/>
</g>
<!-- Node4 -->
<g id="node4" class="node"><title>Node4</title>
<g id="a_node4"><a xlink:href="../../d2/d65/classcellsociety__team01_1_1_cell_state_1_1_state.html#a1d275a76d7d39ec3662c4d6da0e4daed" target="_top" xlink:title="cellsociety_team01.CellState.\lState.newInstanceOf">
<polygon fill="white" stroke="black" points="194,-117 194,-147 352,-147 352,-117 194,-117"/>
<text text-anchor="start" x="202" y="-135" font-family="Helvetica,sans-Serif" font-size="10.00">cellsociety_team01.CellState.</text>
<text text-anchor="middle" x="273" y="-124" font-family="Helvetica,sans-Serif" font-size="10.00">State.newInstanceOf</text>
</a>
</g>
</g>
<!-- Node1&#45;&gt;Node4 -->
<g id="edge3" class="edge"><title>Node1&#45;&gt;Node4</title>
<path fill="none" stroke="midnightblue" d="M168.153,-144.981C176.769,-143.904 185.47,-142.816 193.975,-141.753"/>
<polygon fill="midnightblue" stroke="midnightblue" points="167.582,-141.525 158.094,-146.238 168.451,-148.471 167.582,-141.525"/>
</g>
<!-- Node3 -->
<g id="node3" class="node"><title>Node3</title>
<g id="a_node3"><a xlink:href="../../d2/d65/classcellsociety__team01_1_1_cell_state_1_1_state.html#a04df90abc6c1c7e71fa003bc03395ce3" target="_top" xlink:title="cellsociety_team01.CellState.\lState.comparePopulations">
<polygon fill="white" stroke="black" points="394,-166 394,-196 552,-196 552,-166 394,-166"/>
<text text-anchor="start" x="402" y="-184" font-family="Helvetica,sans-Serif" font-size="10.00">cellsociety_team01.CellState.</text>
<text text-anchor="middle" x="473" y="-173" font-family="Helvetica,sans-Serif" font-size="10.00">State.comparePopulations</text>
</a>
</g>
</g>
<!-- Node2&#45;&gt;Node3 -->
<g id="edge2" class="edge"><title>Node2&#45;&gt;Node3</title>
<path fill="none" stroke="midnightblue" d="M362.311,-181C372.869,-181 383.591,-181 393.989,-181"/>
<polygon fill="midnightblue" stroke="midnightblue" points="362.255,-177.5 352.255,-181 362.255,-184.5 362.255,-177.5"/>
</g>
<!-- Node5 -->
<g id="node5" class="node"><title>Node5</title>
<g id="a_node5"><a xlink:href="../../d5/d26/classcellsociety__team01_1_1rules_1_1_reproduction_rule.html#ab011923eec073a1756fa121391885c3c" target="_top" xlink:title="cellsociety_team01.rules.\lReproductionRule.apply">
<polygon fill="white" stroke="black" points="404,-117 404,-147 542,-147 542,-117 404,-117"/>
<text text-anchor="start" x="412" y="-135" font-family="Helvetica,sans-Serif" font-size="10.00">cellsociety_team01.rules.</text>
<text text-anchor="middle" x="473" y="-124" font-family="Helvetica,sans-Serif" font-size="10.00">ReproductionRule.apply</text>
</a>
</g>
</g>
<!-- Node4&#45;&gt;Node5 -->
<g id="edge4" class="edge"><title>Node4&#45;&gt;Node5</title>
<path fill="none" stroke="midnightblue" d="M362.345,-132C376.293,-132 390.526,-132 403.92,-132"/>
<polygon fill="midnightblue" stroke="midnightblue" points="362.255,-128.5 352.255,-132 362.255,-135.5 362.255,-128.5"/>
</g>
<!-- Node6 -->
<g id="node6" class="node"><title>Node6</title>
<g id="a_node6"><a xlink:href="../../da/df7/classcellsociety__team01_1_1simulations_1_1_simulation.html#af6dd9ee9d5ef64a7f1526fddb9e2ad69" target="_top" xlink:title="cellsociety_team01.simulations.\lSimulation.findState">
<polygon fill="white" stroke="black" points="388,-68 388,-98 558,-98 558,-68 388,-68"/>
<text text-anchor="start" x="396" y="-86" font-family="Helvetica,sans-Serif" font-size="10.00">cellsociety_team01.simulations.</text>
<text text-anchor="middle" x="473" y="-75" font-family="Helvetica,sans-Serif" font-size="10.00">Simulation.findState</text>
</a>
</g>
</g>
<!-- Node4&#45;&gt;Node6 -->
<g id="edge5" class="edge"><title>Node4&#45;&gt;Node6</title>
<path fill="none" stroke="midnightblue" d="M344.621,-114.523C366.444,-109.123 390.277,-103.224 411.363,-98.0062"/>
<polygon fill="midnightblue" stroke="midnightblue" points="343.618,-111.166 334.752,-116.965 345.3,-117.961 343.618,-111.166"/>
</g>
<!-- Node7 -->
<g id="node7" class="node"><title>Node7</title>
<g id="a_node7"><a xlink:href="../../db/d40/classcellsociety__team01_1_1parser_1_1_parser.html#a5ffbb8ad89f8a4a661d2204b837a070a" target="_top" xlink:title="cellsociety_team01.parser.\lParser.getState">
<polygon fill="white" stroke="black" points="594.5,-68 594.5,-98 739.5,-98 739.5,-68 594.5,-68"/>
<text text-anchor="start" x="602.5" y="-86" font-family="Helvetica,sans-Serif" font-size="10.00">cellsociety_team01.parser.</text>
<text text-anchor="middle" x="667" y="-75" font-family="Helvetica,sans-Serif" font-size="10.00">Parser.getState</text>
</a>
</g>
</g>
<!-- Node6&#45;&gt;Node7 -->
<g id="edge6" class="edge"><title>Node6&#45;&gt;Node7</title>
<path fill="none" stroke="midnightblue" d="M568.458,-83C577.207,-83 585.972,-83 594.464,-83"/>
<polygon fill="midnightblue" stroke="midnightblue" points="568.214,-79.5001 558.214,-83 568.214,-86.5001 568.214,-79.5001"/>
</g>
<!-- Node8 -->
<g id="node8" class="node"><title>Node8</title>
<g id="a_node8"><a xlink:href="../../db/d40/classcellsociety__team01_1_1parser_1_1_parser.html#a6328c0a6b8dab4bc6d860e80739fadca" target="_top" xlink:title="cellsociety_team01.parser.\lParser.placeGivenCells">
<polygon fill="white" stroke="black" points="776.5,-93 776.5,-123 921.5,-123 921.5,-93 776.5,-93"/>
<text text-anchor="start" x="784.5" y="-111" font-family="Helvetica,sans-Serif" font-size="10.00">cellsociety_team01.parser.</text>
<text text-anchor="middle" x="849" y="-100" font-family="Helvetica,sans-Serif" font-size="10.00">Parser.placeGivenCells</text>
</a>
</g>
</g>
<!-- Node7&#45;&gt;Node8 -->
<g id="edge7" class="edge"><title>Node7&#45;&gt;Node8</title>
<path fill="none" stroke="midnightblue" d="M749.634,-94.3381C758.528,-95.5734 767.532,-96.8239 776.295,-98.0409"/>
<polygon fill="midnightblue" stroke="midnightblue" points="750.044,-90.8615 739.658,-92.9525 749.081,-97.795 750.044,-90.8615"/>
</g>
<!-- Node16 -->
<g id="node16" class="node"><title>Node16</title>
<g id="a_node16"><a xlink:href="../../db/d40/classcellsociety__team01_1_1parser_1_1_parser.html#aaf8f8745b89e52aee75fa2920608bbac" target="_top" xlink:title="cellsociety_team01.parser.\lParser.fillMap">
<polygon fill="white" stroke="black" points="776.5,-44 776.5,-74 921.5,-74 921.5,-44 776.5,-44"/>
<text text-anchor="start" x="784.5" y="-62" font-family="Helvetica,sans-Serif" font-size="10.00">cellsociety_team01.parser.</text>
<text text-anchor="middle" x="849" y="-51" font-family="Helvetica,sans-Serif" font-size="10.00">Parser.fillMap</text>
</a>
</g>
</g>
<!-- Node7&#45;&gt;Node16 -->
<g id="edge16" class="edge"><title>Node7&#45;&gt;Node16</title>
<path fill="none" stroke="midnightblue" d="M749.634,-72.1154C758.528,-70.9296 767.532,-69.729 776.295,-68.5607"/>
<polygon fill="midnightblue" stroke="midnightblue" points="749.108,-68.6546 739.658,-73.4456 750.033,-75.5932 749.108,-68.6546"/>
</g>
<!-- Node9 -->
<g id="node9" class="node"><title>Node9</title>
<g id="a_node9"><a xlink:href="../../db/d40/classcellsociety__team01_1_1parser_1_1_parser.html#afa693f17f280ab1cf88baf2565c593a9" target="_top" xlink:title="cellsociety_team01.parser.\lParser.parseGrid">
<polygon fill="white" stroke="black" points="1144.5,-49 1144.5,-79 1289.5,-79 1289.5,-49 1144.5,-49"/>
<text text-anchor="start" x="1152.5" y="-67" font-family="Helvetica,sans-Serif" font-size="10.00">cellsociety_team01.parser.</text>
<text text-anchor="middle" x="1217" y="-56" font-family="Helvetica,sans-Serif" font-size="10.00">Parser.parseGrid</text>
</a>
</g>
</g>
<!-- Node8&#45;&gt;Node9 -->
<g id="edge8" class="edge"><title>Node8&#45;&gt;Node9</title>
<path fill="none" stroke="midnightblue" d="M932.044,-104.604C982.91,-101.765 1049.49,-96.7244 1108,-88 1123.48,-85.6914 1140.05,-82.4203 1155.45,-79.0334"/>
<polygon fill="midnightblue" stroke="midnightblue" points="931.559,-101.125 921.762,-105.159 931.936,-108.114 931.559,-101.125"/>
</g>
<!-- Node10 -->
<g id="node10" class="node"><title>Node10</title>
<g id="a_node10"><a xlink:href="../../db/d40/classcellsociety__team01_1_1parser_1_1_parser.html#a31a05836dde41569f62542b9ea327f95" target="_top" xlink:title="cellsociety_team01.parser.\lParser.parseXmlFile">
<polygon fill="white" stroke="black" points="1326.5,-49 1326.5,-79 1471.5,-79 1471.5,-49 1326.5,-49"/>
<text text-anchor="start" x="1334.5" y="-67" font-family="Helvetica,sans-Serif" font-size="10.00">cellsociety_team01.parser.</text>
<text text-anchor="middle" x="1399" y="-56" font-family="Helvetica,sans-Serif" font-size="10.00">Parser.parseXmlFile</text>
</a>
</g>
</g>
<!-- Node9&#45;&gt;Node10 -->
<g id="edge9" class="edge"><title>Node9&#45;&gt;Node10</title>
<path fill="none" stroke="midnightblue" d="M1299.92,-64C1308.72,-64 1317.63,-64 1326.29,-64"/>
<polygon fill="midnightblue" stroke="midnightblue" points="1299.66,-60.5001 1289.66,-64 1299.66,-67.5001 1299.66,-60.5001"/>
</g>
<!-- Node11 -->
<g id="node11" class="node"><title>Node11</title>
<g id="a_node11"><a xlink:href="../../db/d10/classcellsociety__team01_1_1modelview_1_1_g_u_i.html#afa183319cc9816a6147cba0869ef82eb" target="_top" xlink:title="cellsociety_team01.modelview.\lGUI.loadXML">
<polygon fill="white" stroke="black" points="1508,-74 1508,-104 1672,-104 1672,-74 1508,-74"/>
<text text-anchor="start" x="1516" y="-92" font-family="Helvetica,sans-Serif" font-size="10.00">cellsociety_team01.modelview.</text>
<text text-anchor="middle" x="1590" y="-81" font-family="Helvetica,sans-Serif" font-size="10.00">GUI.loadXML</text>
</a>
</g>
</g>
<!-- Node10&#45;&gt;Node11 -->
<g id="edge10" class="edge"><title>Node10&#45;&gt;Node11</title>
<path fill="none" stroke="midnightblue" d="M1481.78,-74.8175C1490.42,-75.9604 1499.2,-77.1223 1507.84,-78.2642"/>
<polygon fill="midnightblue" stroke="midnightblue" points="1482.09,-71.3287 1471.72,-73.4871 1481.18,-78.2683 1482.09,-71.3287"/>
</g>
<!-- Node14 -->
<g id="node14" class="node"><title>Node14</title>
<g id="a_node14"><a xlink:href="../../db/d10/classcellsociety__team01_1_1modelview_1_1_g_u_i.html#a5c5e37ae72fe72af97fab2cb9a12b045" target="_top" xlink:title="cellsociety_team01.modelview.\lGUI.reset">
<polygon fill="white" stroke="black" points="1508,-25 1508,-55 1672,-55 1672,-25 1508,-25"/>
<text text-anchor="start" x="1516" y="-43" font-family="Helvetica,sans-Serif" font-size="10.00">cellsociety_team01.modelview.</text>
<text text-anchor="middle" x="1590" y="-32" font-family="Helvetica,sans-Serif" font-size="10.00">GUI.reset</text>
</a>
</g>
</g>
<!-- Node10&#45;&gt;Node14 -->
<g id="edge13" class="edge"><title>Node10&#45;&gt;Node14</title>
<path fill="none" stroke="midnightblue" d="M1481.78,-53.6152C1490.42,-52.518 1499.2,-51.4026 1507.84,-50.3064"/>
<polygon fill="midnightblue" stroke="midnightblue" points="1481.2,-50.1605 1471.72,-54.8924 1482.08,-57.1047 1481.2,-50.1605"/>
</g>
<!-- Node12 -->
<g id="node12" class="node"><title>Node12</title>
<g id="a_node12"><a xlink:href="../../db/d10/classcellsociety__team01_1_1modelview_1_1_g_u_i.html#a4072ce794f518e806e7a912892f1e9da" target="_top" xlink:title="cellsociety_team01.modelview.\lGUI.makeMenuBar">
<polygon fill="white" stroke="black" points="1708,-74 1708,-104 1872,-104 1872,-74 1708,-74"/>
<text text-anchor="start" x="1716" y="-92" font-family="Helvetica,sans-Serif" font-size="10.00">cellsociety_team01.modelview.</text>
<text text-anchor="middle" x="1790" y="-81" font-family="Helvetica,sans-Serif" font-size="10.00">GUI.makeMenuBar</text>
</a>
</g>
</g>
<!-- Node11&#45;&gt;Node12 -->
<g id="edge11" class="edge"><title>Node11&#45;&gt;Node12</title>
<path fill="none" stroke="midnightblue" d="M1682.36,-89C1690.82,-89 1699.35,-89 1707.7,-89"/>
<polygon fill="midnightblue" stroke="midnightblue" points="1682.11,-85.5001 1672.11,-89 1682.11,-92.5001 1682.11,-85.5001"/>
</g>
<!-- Node13 -->
<g id="node13" class="node"><title>Node13</title>
<g id="a_node13"><a xlink:href="../../db/d10/classcellsociety__team01_1_1modelview_1_1_g_u_i.html#a07bcff60812627c8dfe97f1aadc671e5" target="_top" xlink:title="cellsociety_team01.modelview.\lGUI.GUI">
<polygon fill="white" stroke="black" points="1908,-49 1908,-79 2072,-79 2072,-49 1908,-49"/>
<text text-anchor="start" x="1916" y="-67" font-family="Helvetica,sans-Serif" font-size="10.00">cellsociety_team01.modelview.</text>
<text text-anchor="middle" x="1990" y="-56" font-family="Helvetica,sans-Serif" font-size="10.00">GUI.GUI</text>
</a>
</g>
</g>
<!-- Node12&#45;&gt;Node13 -->
<g id="edge12" class="edge"><title>Node12&#45;&gt;Node13</title>
<path fill="none" stroke="midnightblue" d="M1882.08,-77.4994C1890.63,-76.4205 1899.25,-75.3316 1907.7,-74.2651"/>
<polygon fill="midnightblue" stroke="midnightblue" points="1881.59,-74.0342 1872.11,-78.7594 1882.47,-80.9791 1881.59,-74.0342"/>
</g>
<!-- Node15 -->
<g id="node15" class="node"><title>Node15</title>
<g id="a_node15"><a xlink:href="../../db/d10/classcellsociety__team01_1_1modelview_1_1_g_u_i.html#aa924c28ce131195d3f377b18177f6cb9" target="_top" xlink:title="cellsociety_team01.modelview.\lGUI.makeButtonsAndSlider">
<polygon fill="white" stroke="black" points="1708,-25 1708,-55 1872,-55 1872,-25 1708,-25"/>
<text text-anchor="start" x="1716" y="-43" font-family="Helvetica,sans-Serif" font-size="10.00">cellsociety_team01.modelview.</text>
<text text-anchor="middle" x="1790" y="-32" font-family="Helvetica,sans-Serif" font-size="10.00">GUI.makeButtonsAndSlider</text>
</a>
</g>
</g>
<!-- Node14&#45;&gt;Node15 -->
<g id="edge14" class="edge"><title>Node14&#45;&gt;Node15</title>
<path fill="none" stroke="midnightblue" d="M1682.36,-40C1690.82,-40 1699.35,-40 1707.7,-40"/>
<polygon fill="midnightblue" stroke="midnightblue" points="1682.11,-36.5001 1672.11,-40 1682.11,-43.5001 1682.11,-36.5001"/>
</g>
<!-- Node15&#45;&gt;Node13 -->
<g id="edge15" class="edge"><title>Node15&#45;&gt;Node13</title>
<path fill="none" stroke="midnightblue" d="M1882.08,-51.0406C1890.63,-52.0763 1899.25,-53.1217 1907.7,-54.1455"/>
<polygon fill="midnightblue" stroke="midnightblue" points="1882.45,-47.5598 1872.11,-49.831 1881.61,-54.5089 1882.45,-47.5598"/>
</g>
<!-- Node17 -->
<g id="node17" class="node"><title>Node17</title>
<g id="a_node17"><a xlink:href="../../db/d40/classcellsociety__team01_1_1parser_1_1_parser.html#a0ed864ecdf8cf6ee778114ebe5c605ea" target="_top" xlink:title="cellsociety_team01.parser.\lParser.placeDistributedCells">
<polygon fill="white" stroke="black" points="958.5,-49 958.5,-79 1107.5,-79 1107.5,-49 958.5,-49"/>
<text text-anchor="start" x="966.5" y="-67" font-family="Helvetica,sans-Serif" font-size="10.00">cellsociety_team01.parser.</text>
<text text-anchor="middle" x="1033" y="-56" font-family="Helvetica,sans-Serif" font-size="10.00">Parser.placeDistributedCells</text>
</a>
</g>
</g>
<!-- Node16&#45;&gt;Node17 -->
<g id="edge17" class="edge"><title>Node16&#45;&gt;Node17</title>
<path fill="none" stroke="midnightblue" d="M931.918,-61.2505C940.709,-61.492 949.615,-61.7367 958.302,-61.9753"/>
<polygon fill="midnightblue" stroke="midnightblue" points="931.762,-57.745 921.67,-60.969 931.57,-64.7424 931.762,-57.745"/>
</g>
<!-- Node18 -->
<g id="node18" class="node"><title>Node18</title>
<g id="a_node18"><a xlink:href="../../db/d40/classcellsociety__team01_1_1parser_1_1_parser.html#aaaea4078e4a144cf51ab40a295f4f396" target="_top" xlink:title="cellsociety_team01.parser.\lParser.placeRandomCells">
<polygon fill="white" stroke="black" points="960.5,-0 960.5,-30 1105.5,-30 1105.5,-0 960.5,-0"/>
<text text-anchor="start" x="968.5" y="-18" font-family="Helvetica,sans-Serif" font-size="10.00">cellsociety_team01.parser.</text>
<text text-anchor="middle" x="1033" y="-7" font-family="Helvetica,sans-Serif" font-size="10.00">Parser.placeRandomCells</text>
</a>
</g>
</g>
<!-- Node16&#45;&gt;Node18 -->
<g id="edge19" class="edge"><title>Node16&#45;&gt;Node18</title>
<path fill="none" stroke="midnightblue" d="M921.877,-41.6231C937.737,-37.7888 954.409,-33.7582 969.846,-30.0262"/>
<polygon fill="midnightblue" stroke="midnightblue" points="921.023,-38.2288 912.125,-43.9808 922.668,-45.0328 921.023,-38.2288"/>
</g>
<!-- Node17&#45;&gt;Node9 -->
<g id="edge18" class="edge"><title>Node17&#45;&gt;Node9</title>
<path fill="none" stroke="midnightblue" d="M1117.53,-64C1126.47,-64 1135.51,-64 1144.29,-64"/>
<polygon fill="midnightblue" stroke="midnightblue" points="1117.5,-60.5001 1107.5,-64 1117.5,-67.5001 1117.5,-60.5001"/>
</g>
<!-- Node18&#45;&gt;Node9 -->
<g id="edge20" class="edge"><title>Node18&#45;&gt;Node9</title>
<path fill="none" stroke="midnightblue" d="M1099.92,-32.7485C1119.65,-38.0591 1141.08,-43.8288 1160.09,-48.9484"/>
<polygon fill="midnightblue" stroke="midnightblue" points="1100.66,-29.3216 1090.09,-30.1014 1098.84,-36.0809 1100.66,-29.3216"/>
</g>
</g>
</svg>
