<?xml version="1.0" encoding="UTF-8" standalone="no"?>
<!DOCTYPE svg PUBLIC "-//W3C//DTD SVG 1.1//EN"
 "http://www.w3.org/Graphics/SVG/1.1/DTD/svg11.dtd">
<!-- Generated by graphviz version 2.36.0 (20140111.2315)
 -->
<!-- Title: cellsociety_team01.CellState.State.getName Pages: 1 -->
<svg width="554pt" height="126pt"
 viewBox="0.00 0.00 554.00 126.00" xmlns="http://www.w3.org/2000/svg" xmlns:xlink="http://www.w3.org/1999/xlink">
<g id="graph0" class="graph" transform="scale(1 1) rotate(0) translate(4 122)">
<title>cellsociety_team01.CellState.State.getName</title>
<polygon fill="white" stroke="none" points="-4,4 -4,-122 550,-122 550,4 -4,4"/>
<!-- Node1 -->
<g id="node1" class="node"><title>Node1</title>
<polygon fill="#bfbfbf" stroke="black" points="0,-44 0,-74 158,-74 158,-44 0,-44"/>
<text text-anchor="start" x="8" y="-62" font-family="Helvetica,sans-Serif" font-size="10.00">cellsociety_team01.CellState.</text>
<text text-anchor="middle" x="79" y="-51" font-family="Helvetica,sans-Serif" font-size="10.00">State.getName</text>
</g>
<!-- Node2 -->
<g id="node2" class="node"><title>Node2</title>
<g id="a_node2"><a xlink:href="../../d5/d26/classcellsociety__team01_1_1rules_1_1_reproduction_rule.html#ab011923eec073a1756fa121391885c3c" target="_top" xlink:title="cellsociety_team01.rules.\lReproductionRule.apply">
<polygon fill="white" stroke="black" points="204,-88 204,-118 342,-118 342,-88 204,-88"/>
<text text-anchor="start" x="212" y="-106" font-family="Helvetica,sans-Serif" font-size="10.00">cellsociety_team01.rules.</text>
<text text-anchor="middle" x="273" y="-95" font-family="Helvetica,sans-Serif" font-size="10.00">ReproductionRule.apply</text>
</a>
</g>
</g>
<!-- Node1&#45;&gt;Node2 -->
<g id="edge1" class="edge"><title>Node1&#45;&gt;Node2</title>
<path fill="none" stroke="midnightblue" d="M155.353,-76.2684C172.226,-80.1352 189.993,-84.2066 206.431,-87.9738"/>
<polygon fill="midnightblue" stroke="midnightblue" points="156.068,-72.8415 145.539,-74.0192 154.504,-79.6646 156.068,-72.8415"/>
</g>
<!-- Node3 -->
<g id="node3" class="node"><title>Node3</title>
<g id="a_node3"><a xlink:href="../../d2/d65/classcellsociety__team01_1_1_cell_state_1_1_state.html#a04df90abc6c1c7e71fa003bc03395ce3" target="_top" xlink:title="cellsociety_team01.CellState.\lState.comparePopulations">
<polygon fill="white" stroke="black" points="388,-22 388,-52 546,-52 546,-22 388,-22"/>
<text text-anchor="start" x="396" y="-40" font-family="Helvetica,sans-Serif" font-size="10.00">cellsociety_team01.CellState.</text>
<text text-anchor="middle" x="467" y="-29" font-family="Helvetica,sans-Serif" font-size="10.00">State.comparePopulations</text>
</a>
</g>
</g>
<!-- Node1&#45;&gt;Node3 -->
<g id="edge2" class="edge"><title>Node1&#45;&gt;Node3</title>
<path fill="none" stroke="midnightblue" d="M168.107,-53.9784C234.257,-50.2082 324.02,-45.0921 387.673,-41.4642"/>
<polygon fill="midnightblue" stroke="midnightblue" points="167.897,-50.4845 158.113,-54.548 168.296,-57.4732 167.897,-50.4845"/>
</g>
<!-- Node4 -->
<g id="node4" class="node"><title>Node4</title>
<g id="a_node4"><a xlink:href="../../d2/d65/classcellsociety__team01_1_1_cell_state_1_1_state.html#a85eca1b5621ff1f0a4f459df8cafd511" target="_top" xlink:title="cellsociety_team01.CellState.\lState.equals">
<polygon fill="white" stroke="black" points="194,-0 194,-30 352,-30 352,-0 194,-0"/>
<text text-anchor="start" x="202" y="-18" font-family="Helvetica,sans-Serif" font-size="10.00">cellsociety_team01.CellState.</text>
<text text-anchor="middle" x="273" y="-7" font-family="Helvetica,sans-Serif" font-size="10.00">State.equals</text>
</a>
</g>
</g>
<!-- Node1&#45;&gt;Node4 -->
<g id="edge3" class="edge"><title>Node1&#45;&gt;Node4</title>
<path fill="none" stroke="midnightblue" d="M155.353,-41.7316C172.226,-37.8648 189.993,-33.7934 206.431,-30.0262"/>
<polygon fill="midnightblue" stroke="midnightblue" points="154.504,-38.3354 145.539,-43.9808 156.068,-45.1585 154.504,-38.3354"/>
</g>
<!-- Node4&#45;&gt;Node3 -->
<g id="edge4" class="edge"><title>Node4&#45;&gt;Node3</title>
<path fill="none" stroke="midnightblue" d="M362.153,-25.1008C370.769,-26.0881 379.47,-27.0851 387.975,-28.0597"/>
<polygon fill="midnightblue" stroke="midnightblue" points="362.427,-21.6095 352.094,-23.9482 361.63,-28.564 362.427,-21.6095"/>
</g>
</g>
</svg>
