<?xml version="1.0" encoding="UTF-8" standalone="no"?>
<!DOCTYPE svg PUBLIC "-//W3C//DTD SVG 1.1//EN"
 "http://www.w3.org/Graphics/SVG/1.1/DTD/svg11.dtd">
<!-- Generated by graphviz version 2.36.0 (20140111.2315)
 -->
<!-- Title: cellsociety_team01.CellState.State.getInt Pages: 1 -->
<svg width="532pt" height="313pt"
 viewBox="0.00 0.00 532.00 312.83" xmlns="http://www.w3.org/2000/svg" xmlns:xlink="http://www.w3.org/1999/xlink">
<g id="graph0" class="graph" transform="scale(1 1) rotate(0) translate(4 308.829)">
<title>cellsociety_team01.CellState.State.getInt</title>
<polygon fill="white" stroke="none" points="-4,4 -4,-308.829 528,-308.829 528,4 -4,4"/>
<!-- Node1 -->
<g id="node1" class="node"><title>Node1</title>
<polygon fill="#bfbfbf" stroke="black" points="0,-147 0,-177 158,-177 158,-147 0,-147"/>
<text text-anchor="start" x="8" y="-165" font-family="Helvetica,sans-Serif" font-size="10.00">cellsociety_team01.CellState.</text>
<text text-anchor="middle" x="79" y="-154" font-family="Helvetica,sans-Serif" font-size="10.00">State.getInt</text>
</g>
<!-- Node2 -->
<g id="node2" class="node"><title>Node2</title>
<g id="a_node2"><a xlink:href="../../d4/d0c/classcellsociety__team01_1_1rules_1_1_uphill_movement_rule.html#a7c3becfa5ede6439f068dfbb086b650c" target="_top" xlink:title="cellsociety_team01.rules.\lUphillMovementRule.apply">
<polygon fill="white" stroke="black" points="382,-144 382,-174 524,-174 524,-144 382,-144"/>
<text text-anchor="start" x="390" y="-162" font-family="Helvetica,sans-Serif" font-size="10.00">cellsociety_team01.rules.</text>
<text text-anchor="middle" x="453" y="-151" font-family="Helvetica,sans-Serif" font-size="10.00">UphillMovementRule.apply</text>
</a>
</g>
</g>
<!-- Node1&#45;&gt;Node2 -->
<g id="edge1" class="edge"><title>Node1&#45;&gt;Node2</title>
<path fill="none" stroke="midnightblue" d="M93.8826,-186.193C112.381,-215.7 148.173,-264.102 194,-284 255.966,-310.906 284.7,-312.391 346,-284 395.572,-261.041 430.411,-202.208 444.732,-174.226"/>
<polygon fill="midnightblue" stroke="midnightblue" points="96.6818,-184.06 88.4936,-177.336 90.7019,-187.699 96.6818,-184.06"/>
</g>
<!-- Node3 -->
<g id="node3" class="node"><title>Node3</title>
<g id="a_node3"><a xlink:href="../../d1/ded/classcellsociety__team01_1_1rules_1_1_status_rule.html#a56036d5cb65607a077c6ef1f0c6f49aa" target="_top" xlink:title="cellsociety_team01.rules.\lStatusRule.apply">
<polygon fill="white" stroke="black" points="201,-245 201,-275 339,-275 339,-245 201,-245"/>
<text text-anchor="start" x="209" y="-263" font-family="Helvetica,sans-Serif" font-size="10.00">cellsociety_team01.rules.</text>
<text text-anchor="middle" x="270" y="-252" font-family="Helvetica,sans-Serif" font-size="10.00">StatusRule.apply</text>
</a>
</g>
</g>
<!-- Node1&#45;&gt;Node3 -->
<g id="edge2" class="edge"><title>Node1&#45;&gt;Node3</title>
<path fill="none" stroke="midnightblue" d="M108.47,-183.058C130.86,-198.907 163.297,-220.333 194,-235 201.555,-238.609 209.767,-241.917 217.896,-244.864"/>
<polygon fill="midnightblue" stroke="midnightblue" points="110.28,-180.049 100.112,-177.071 106.203,-185.74 110.28,-180.049"/>
</g>
<!-- Node4 -->
<g id="node4" class="node"><title>Node4</title>
<g id="a_node4"><a xlink:href="../../d5/d93/classcellsociety__team01_1_1rules_1_1_threshold_status_rule.html#a9313793f9c113cc3c14ec75a93146541" target="_top" xlink:title="cellsociety_team01.rules.\lThresholdStatusRule.apply">
<polygon fill="white" stroke="black" points="198.5,-196 198.5,-226 341.5,-226 341.5,-196 198.5,-196"/>
<text text-anchor="start" x="206.5" y="-214" font-family="Helvetica,sans-Serif" font-size="10.00">cellsociety_team01.rules.</text>
<text text-anchor="middle" x="270" y="-203" font-family="Helvetica,sans-Serif" font-size="10.00">ThresholdStatusRule.apply</text>
</a>
</g>
</g>
<!-- Node1&#45;&gt;Node4 -->
<g id="edge3" class="edge"><title>Node1&#45;&gt;Node4</title>
<path fill="none" stroke="midnightblue" d="M147.692,-179.55C168.447,-184.931 191.082,-190.799 211.119,-195.994"/>
<polygon fill="midnightblue" stroke="midnightblue" points="148.549,-176.156 137.991,-177.035 146.792,-182.932 148.549,-176.156"/>
</g>
<!-- Node5 -->
<g id="node5" class="node"><title>Node5</title>
<g id="a_node5"><a xlink:href="../../d8/dd6/classcellsociety__team01_1_1rules_1_1_priority_forward_rule.html#af3653ecda655c212e7b82252d01b8ae6" target="_top" xlink:title="cellsociety_team01.rules.\lPriorityForwardRule.apply">
<polygon fill="white" stroke="black" points="201,-147 201,-177 339,-177 339,-147 201,-147"/>
<text text-anchor="start" x="209" y="-165" font-family="Helvetica,sans-Serif" font-size="10.00">cellsociety_team01.rules.</text>
<text text-anchor="middle" x="270" y="-154" font-family="Helvetica,sans-Serif" font-size="10.00">PriorityForwardRule.apply</text>
</a>
</g>
</g>
<!-- Node1&#45;&gt;Node5 -->
<g id="edge4" class="edge"><title>Node1&#45;&gt;Node5</title>
<path fill="none" stroke="midnightblue" d="M168.563,-162C179.385,-162 190.312,-162 200.771,-162"/>
<polygon fill="midnightblue" stroke="midnightblue" points="168.238,-158.5 158.238,-162 168.238,-165.5 168.238,-158.5"/>
</g>
<!-- Node6 -->
<g id="node6" class="node"><title>Node6</title>
<g id="a_node6"><a xlink:href="../../d5/d26/classcellsociety__team01_1_1rules_1_1_reproduction_rule.html#ab011923eec073a1756fa121391885c3c" target="_top" xlink:title="cellsociety_team01.rules.\lReproductionRule.apply">
<polygon fill="white" stroke="black" points="201,-98 201,-128 339,-128 339,-98 201,-98"/>
<text text-anchor="start" x="209" y="-116" font-family="Helvetica,sans-Serif" font-size="10.00">cellsociety_team01.rules.</text>
<text text-anchor="middle" x="270" y="-105" font-family="Helvetica,sans-Serif" font-size="10.00">ReproductionRule.apply</text>
</a>
</g>
</g>
<!-- Node1&#45;&gt;Node6 -->
<g id="edge5" class="edge"><title>Node1&#45;&gt;Node6</title>
<path fill="none" stroke="midnightblue" d="M147.692,-144.45C168.447,-139.069 191.082,-133.201 211.119,-128.006"/>
<polygon fill="midnightblue" stroke="midnightblue" points="146.792,-141.068 137.991,-146.965 148.549,-147.844 146.792,-141.068"/>
</g>
<!-- Node7 -->
<g id="node7" class="node"><title>Node7</title>
<g id="a_node7"><a xlink:href="../../d4/d68/classcellsociety__team01_1_1rules_1_1_consumption_rule.html#a2298782f412ffc7b683876b65d6e2d03" target="_top" xlink:title="cellsociety_team01.rules.\lConsumptionRule.apply">
<polygon fill="white" stroke="black" points="201,-49 201,-79 339,-79 339,-49 201,-49"/>
<text text-anchor="start" x="209" y="-67" font-family="Helvetica,sans-Serif" font-size="10.00">cellsociety_team01.rules.</text>
<text text-anchor="middle" x="270" y="-56" font-family="Helvetica,sans-Serif" font-size="10.00">ConsumptionRule.apply</text>
</a>
</g>
</g>
<!-- Node1&#45;&gt;Node7 -->
<g id="edge6" class="edge"><title>Node1&#45;&gt;Node7</title>
<path fill="none" stroke="midnightblue" d="M108.47,-140.942C130.86,-125.093 163.297,-103.667 194,-89 201.555,-85.3911 209.767,-82.0826 217.896,-79.1363"/>
<polygon fill="midnightblue" stroke="midnightblue" points="106.203,-138.26 100.112,-146.929 110.28,-143.951 106.203,-138.26"/>
</g>
<!-- Node8 -->
<g id="node8" class="node"><title>Node8</title>
<g id="a_node8"><a xlink:href="../../d4/d0c/classcellsociety__team01_1_1rules_1_1_uphill_movement_rule.html#a8daf14bc1c2e2367b7175e4cf2b1902a" target="_top" xlink:title="cellsociety_team01.rules.\lUphillMovementRule.pickCell">
<polygon fill="white" stroke="black" points="194,-0 194,-30 346,-30 346,-0 194,-0"/>
<text text-anchor="start" x="202" y="-18" font-family="Helvetica,sans-Serif" font-size="10.00">cellsociety_team01.rules.</text>
<text text-anchor="middle" x="270" y="-7" font-family="Helvetica,sans-Serif" font-size="10.00">UphillMovementRule.pickCell</text>
</a>
</g>
</g>
<!-- Node1&#45;&gt;Node8 -->
<g id="edge7" class="edge"><title>Node1&#45;&gt;Node8</title>
<path fill="none" stroke="midnightblue" d="M96.0369,-138.783C116.017,-111.491 152.612,-66.5584 194,-40 199.891,-36.2196 206.412,-32.9533 213.077,-30.1462"/>
<polygon fill="midnightblue" stroke="midnightblue" points="93.141,-136.816 90.1487,-146.979 98.8259,-140.9 93.141,-136.816"/>
</g>
<!-- Node8&#45;&gt;Node2 -->
<g id="edge8" class="edge"><title>Node8&#45;&gt;Node2</title>
<path fill="none" stroke="midnightblue" d="M336.209,-34.3129C339.606,-36.062 342.894,-37.9545 346,-40 389.208,-68.4588 425.852,-118.838 442.466,-143.928"/>
<polygon fill="midnightblue" stroke="midnightblue" points="337.552,-31.0772 327.01,-30.0117 334.586,-37.4182 337.552,-31.0772"/>
</g>
</g>
</svg>
