<?xml version="1.0" encoding="UTF-8" standalone="no"?>
<!DOCTYPE svg PUBLIC "-//W3C//DTD SVG 1.1//EN"
 "http://www.w3.org/Graphics/SVG/1.1/DTD/svg11.dtd">
<!-- Generated by graphviz version 2.36.0 (20140111.2315)
 -->
<!-- Title: cellsociety_team01.parser.Parser Pages: 1 -->
<svg width="1358pt" height="689pt"
 viewBox="0.00 0.00 1358.00 689.34" xmlns="http://www.w3.org/2000/svg" xmlns:xlink="http://www.w3.org/1999/xlink">
<g id="graph0" class="graph" transform="scale(1 1) rotate(0) translate(4 685.339)">
<title>cellsociety_team01.parser.Parser</title>
<polygon fill="white" stroke="none" points="-4,4 -4,-685.339 1354,-685.339 1354,4 -4,4"/>
<!-- Node1 -->
<g id="node1" class="node"><title>Node1</title>
<polygon fill="#bfbfbf" stroke="black" points="595.5,-531.339 595.5,-561.339 740.5,-561.339 740.5,-531.339 595.5,-531.339"/>
<text text-anchor="start" x="603.5" y="-549.339" font-family="Helvetica,sans-Serif" font-size="10.00">cellsociety_team01.parser.</text>
<text text-anchor="middle" x="668" y="-538.339" font-family="Helvetica,sans-Serif" font-size="10.00">Parser</text>
</g>
<!-- Node11 -->
<g id="node11" class="node"><title>Node11</title>
<g id="a_node11"><a xlink:href="../../db/d10/classcellsociety__team01_1_1modelview_1_1_g_u_i.html" target="_top" xlink:title="cellsociety_team01.modelview.GUI">
<polygon fill="white" stroke="black" points="880,-295.839 880,-314.839 1062,-314.839 1062,-295.839 880,-295.839"/>
<text text-anchor="middle" x="971" y="-302.839" font-family="Helvetica,sans-Serif" font-size="10.00">cellsociety_team01.modelview.GUI</text>
</a>
</g>
</g>
<!-- Node1&#45;&gt;Node11 -->
<g id="edge13" class="edge"><title>Node1&#45;&gt;Node11</title>
<path fill="none" stroke="#9a32cd" stroke-dasharray="5,2" d="M750.434,-534.978C798.872,-527.628 852.677,-518.189 862,-511.339 932.29,-459.695 960.852,-348.546 968.062,-315.073"/>
<polygon fill="#9a32cd" stroke="#9a32cd" points="749.886,-531.521 740.516,-536.466 750.924,-538.444 749.886,-531.521"/>
<text text-anchor="middle" x="815" y="-535.339" font-family="Helvetica,sans-Serif" font-size="10.00"> parser</text>
</g>
<!-- Node2 -->
<g id="node2" class="node"><title>Node2</title>
<polygon fill="white" stroke="#bfbfbf" points="321,-461.839 321,-502.839 473,-502.839 473,-461.839 321,-461.839"/>
<text text-anchor="start" x="329" y="-490.839" font-family="Helvetica,sans-Serif" font-size="10.00">Map&lt; cellsociety_team01.</text>
<text text-anchor="start" x="329" y="-479.839" font-family="Helvetica,sans-Serif" font-size="10.00">Pair, cellsociety_team01.Cell</text>
<text text-anchor="middle" x="397" y="-468.839" font-family="Helvetica,sans-Serif" font-size="10.00">State.Cell &gt;</text>
</g>
<!-- Node2&#45;&gt;Node1 -->
<g id="edge1" class="edge"><title>Node2&#45;&gt;Node1</title>
<path fill="none" stroke="#9a32cd" stroke-dasharray="5,2" d="M483.189,-502.265C510.307,-508.64 540.422,-515.752 568,-522.339 580.041,-525.215 592.899,-528.313 605.227,-531.296"/>
<polygon fill="#9a32cd" stroke="#9a32cd" points="483.88,-498.832 473.344,-499.952 482.279,-505.646 483.88,-498.832"/>
<text text-anchor="middle" x="534" y="-525.339" font-family="Helvetica,sans-Serif" font-size="10.00"> myCells</text>
</g>
<!-- Node3 -->
<g id="node3" class="node"><title>Node3</title>
<g id="a_node3"><a xlink:href="../../da/df7/classcellsociety__team01_1_1simulations_1_1_simulation.html" target="_top" xlink:title="cellsociety_team01.simulations.\lSimulation">
<polygon fill="white" stroke="black" points="312,-645.339 312,-675.339 482,-675.339 482,-645.339 312,-645.339"/>
<text text-anchor="start" x="320" y="-663.339" font-family="Helvetica,sans-Serif" font-size="10.00">cellsociety_team01.simulations.</text>
<text text-anchor="middle" x="397" y="-652.339" font-family="Helvetica,sans-Serif" font-size="10.00">Simulation</text>
</a>
</g>
</g>
<!-- Node3&#45;&gt;Node1 -->
<g id="edge2" class="edge"><title>Node3&#45;&gt;Node1</title>
<path fill="none" stroke="#9a32cd" stroke-dasharray="5,2" d="M492.3,-643.886C517.562,-637.656 544.397,-629.322 568,-618.339 599.793,-603.546 631.73,-577.912 650.417,-561.557"/>
<polygon fill="#9a32cd" stroke="#9a32cd" points="491.252,-640.537 482.334,-646.256 492.872,-647.347 491.252,-640.537"/>
<text text-anchor="middle" x="534" y="-645.339" font-family="Helvetica,sans-Serif" font-size="10.00"> mySim</text>
</g>
<!-- Node9 -->
<g id="node9" class="node"><title>Node9</title>
<g id="a_node9"><a xlink:href="../../d2/d8b/classcellsociety__team01_1_1modelview_1_1_grid.html" target="_top" xlink:title="cellsociety_team01.modelview.Grid">
<polygon fill="white" stroke="black" points="1166,-252.839 1166,-271.839 1350,-271.839 1350,-252.839 1166,-252.839"/>
<text text-anchor="middle" x="1258" y="-259.839" font-family="Helvetica,sans-Serif" font-size="10.00">cellsociety_team01.modelview.Grid</text>
</a>
</g>
</g>
<!-- Node3&#45;&gt;Node9 -->
<g id="edge25" class="edge"><title>Node3&#45;&gt;Node9</title>
<path fill="none" stroke="#9a32cd" stroke-dasharray="5,2" d="M492.185,-668.674C629.556,-675.991 887.474,-670.951 1062,-553.339 1174.21,-477.72 1238.67,-313.725 1253.62,-272.1"/>
<polygon fill="#9a32cd" stroke="#9a32cd" points="492.283,-665.174 482.101,-668.103 491.888,-672.163 492.283,-665.174"/>
<text text-anchor="middle" x="815" y="-660.339" font-family="Helvetica,sans-Serif" font-size="10.00"> simulation</text>
</g>
<!-- Node4 -->
<g id="node4" class="node"><title>Node4</title>
<polygon fill="white" stroke="#bfbfbf" points="49.5,-567.839 49.5,-586.839 142.5,-586.839 142.5,-567.839 49.5,-567.839"/>
<text text-anchor="middle" x="96" y="-574.839" font-family="Helvetica,sans-Serif" font-size="10.00">ResourceBundle</text>
</g>
<!-- Node4&#45;&gt;Node1 -->
<g id="edge5" class="edge"><title>Node4&#45;&gt;Node1</title>
<path fill="none" stroke="#9a32cd" stroke-dasharray="5,2" d="M152.562,-575.872C240.717,-573.316 418.013,-567.249 568,-556.339 576.873,-555.694 586.183,-554.903 595.394,-554.052"/>
<polygon fill="#9a32cd" stroke="#9a32cd" points="152.413,-572.374 142.518,-576.159 152.613,-579.371 152.413,-572.374"/>
<text text-anchor="middle" x="397" y="-573.339" font-family="Helvetica,sans-Serif" font-size="10.00"> myDefVals</text>
</g>
<!-- Node4&#45;&gt;Node3 -->
<g id="edge3" class="edge"><title>Node4&#45;&gt;Node3</title>
<path fill="none" stroke="#9a32cd" stroke-dasharray="5,2" d="M141.152,-589.595C194.559,-604.421 284.436,-629.37 341.94,-645.332"/>
<polygon fill="#9a32cd" stroke="#9a32cd" points="141.871,-586.163 131.299,-586.86 139.999,-592.908 141.871,-586.163"/>
<text text-anchor="middle" x="252" y="-634.339" font-family="Helvetica,sans-Serif" font-size="10.00"> myColorScheme</text>
</g>
<!-- Node4&#45;&gt;Node11 -->
<g id="edge14" class="edge"><title>Node4&#45;&gt;Node11</title>
<path fill="none" stroke="#9a32cd" stroke-dasharray="5,2" d="M111.73,-559.837C166.373,-496.457 365.723,-278.761 586,-204.339 702.582,-164.951 770.85,-143.669 862,-226.339 882.622,-245.043 859.51,-267.49 880,-286.339 884.114,-290.123 888.785,-293.228 893.784,-295.768"/>
<polygon fill="#9a32cd" stroke="#9a32cd" points="108.826,-557.848 104.993,-567.725 114.149,-562.394 108.826,-557.848"/>
<text text-anchor="middle" x="534" y="-242.339" font-family="Helvetica,sans-Serif" font-size="10.00"> myResources</text>
</g>
<!-- Node5 -->
<g id="node5" class="node"><title>Node5</title>
<polygon fill="white" stroke="#bfbfbf" points="0.5,-639.839 0.5,-680.839 191.5,-680.839 191.5,-639.839 0.5,-639.839"/>
<text text-anchor="start" x="8.5" y="-668.839" font-family="Helvetica,sans-Serif" font-size="10.00">Map&lt; cellsociety_team01.</text>
<text text-anchor="start" x="8.5" y="-657.839" font-family="Helvetica,sans-Serif" font-size="10.00">CellState.State, ArrayList</text>
<text text-anchor="middle" x="96" y="-646.839" font-family="Helvetica,sans-Serif" font-size="10.00">&lt; cellsociety_team01.rules.Rule &gt; &gt;</text>
</g>
<!-- Node5&#45;&gt;Node3 -->
<g id="edge4" class="edge"><title>Node5&#45;&gt;Node3</title>
<path fill="none" stroke="#9a32cd" stroke-dasharray="5,2" d="M201.647,-660.339C237.636,-660.339 277.447,-660.339 311.617,-660.339"/>
<polygon fill="#9a32cd" stroke="#9a32cd" points="201.606,-656.839 191.605,-660.339 201.605,-663.839 201.606,-656.839"/>
<text text-anchor="middle" x="252" y="-663.339" font-family="Helvetica,sans-Serif" font-size="10.00"> myData</text>
</g>
<!-- Node6 -->
<g id="node6" class="node"><title>Node6</title>
<polygon fill="white" stroke="#bfbfbf" points="369,-606.839 369,-625.839 425,-625.839 425,-606.839 369,-606.839"/>
<text text-anchor="middle" x="397" y="-613.839" font-family="Helvetica,sans-Serif" font-size="10.00">Element</text>
</g>
<!-- Node6&#45;&gt;Node1 -->
<g id="edge6" class="edge"><title>Node6&#45;&gt;Node1</title>
<path fill="none" stroke="#9a32cd" stroke-dasharray="5,2" d="M435.427,-612.765C470.255,-608.833 523.35,-601.286 568,-588.339 591.67,-581.475 617.251,-570.523 636.48,-561.524"/>
<polygon fill="#9a32cd" stroke="#9a32cd" points="434.798,-609.312 425.234,-613.871 435.554,-616.271 434.798,-609.312"/>
<text text-anchor="middle" x="534" y="-606.339" font-family="Helvetica,sans-Serif" font-size="10.00"> myRoot</text>
</g>
<!-- Node7 -->
<g id="node7" class="node"><title>Node7</title>
<polygon fill="white" stroke="#bfbfbf" points="381,-423.839 381,-442.839 413,-442.839 413,-423.839 381,-423.839"/>
<text text-anchor="middle" x="397" y="-430.839" font-family="Helvetica,sans-Serif" font-size="10.00">File</text>
</g>
<!-- Node7&#45;&gt;Node1 -->
<g id="edge7" class="edge"><title>Node7&#45;&gt;Node1</title>
<path fill="none" stroke="#9a32cd" stroke-dasharray="5,2" d="M423.318,-437.608C440.194,-440.807 462.731,-445.763 482,-452.339 542.689,-473.052 608.423,-510.406 642.845,-531.246"/>
<polygon fill="#9a32cd" stroke="#9a32cd" points="423.601,-434.102 413.137,-435.76 422.351,-440.99 423.601,-434.102"/>
<text text-anchor="middle" x="534" y="-491.339" font-family="Helvetica,sans-Serif" font-size="10.00"> myFile</text>
</g>
<!-- Node7&#45;&gt;Node11 -->
<g id="edge18" class="edge"><title>Node7&#45;&gt;Node11</title>
<path fill="none" stroke="#9a32cd" stroke-dasharray="5,2" d="M423.217,-435.967C495.23,-442.411 706.618,-453.892 862,-386.339 903.054,-368.491 942.966,-332.186 960.588,-314.901"/>
<polygon fill="#9a32cd" stroke="#9a32cd" points="423.54,-432.482 413.255,-435.026 422.882,-439.451 423.54,-432.482"/>
<text text-anchor="middle" x="668" y="-443.339" font-family="Helvetica,sans-Serif" font-size="10.00"> file</text>
</g>
<!-- Node8 -->
<g id="node8" class="node"><title>Node8</title>
<polygon fill="white" stroke="#bfbfbf" points="369,-521.839 369,-540.839 425,-540.839 425,-521.839 369,-521.839"/>
<text text-anchor="middle" x="397" y="-528.839" font-family="Helvetica,sans-Serif" font-size="10.00">Random</text>
</g>
<!-- Node8&#45;&gt;Node1 -->
<g id="edge8" class="edge"><title>Node8&#45;&gt;Node1</title>
<path fill="none" stroke="#9a32cd" stroke-dasharray="5,2" d="M435.167,-533.412C476.402,-535.711 543.915,-539.476 595.478,-542.351"/>
<polygon fill="#9a32cd" stroke="#9a32cd" points="435.204,-529.908 425.024,-532.846 434.814,-536.897 435.204,-529.908"/>
<text text-anchor="middle" x="534" y="-544.339" font-family="Helvetica,sans-Serif" font-size="10.00"> myRandom</text>
</g>
<!-- Node9&#45;&gt;Node1 -->
<g id="edge9" class="edge"><title>Node9&#45;&gt;Node1</title>
<path fill="none" stroke="#9a32cd" stroke-dasharray="5,2" d="M1241.19,-279.547C1191.6,-332.081 1032.25,-490.158 862,-545.339 823.272,-557.891 777.831,-558.754 740.773,-556.196"/>
<polygon fill="#9a32cd" stroke="#9a32cd" points="1243.92,-281.75 1248.19,-272.054 1238.81,-276.971 1243.92,-281.75"/>
<text text-anchor="middle" x="971" y="-541.339" font-family="Helvetica,sans-Serif" font-size="10.00"> myGrid</text>
</g>
<!-- Node9&#45;&gt;Node11 -->
<g id="edge22" class="edge"><title>Node9&#45;&gt;Node11</title>
<path fill="none" stroke="#9a32cd" stroke-dasharray="5,2" d="M1184.02,-273.35C1138.03,-280.288 1079.25,-289.157 1035.25,-295.796"/>
<polygon fill="#9a32cd" stroke="#9a32cd" points="1184.56,-276.808 1193.93,-271.855 1183.52,-269.887 1184.56,-276.808"/>
<text text-anchor="middle" x="1114" y="-292.339" font-family="Helvetica,sans-Serif" font-size="10.00"> myModel</text>
</g>
<!-- Node10 -->
<g id="node10" class="node"><title>Node10</title>
<polygon fill="white" stroke="#bfbfbf" points="943,-257.839 943,-276.839 999,-276.839 999,-257.839 943,-257.839"/>
<text text-anchor="middle" x="971" y="-264.839" font-family="Helvetica,sans-Serif" font-size="10.00">Timeline</text>
</g>
<!-- Node10&#45;&gt;Node9 -->
<g id="edge10" class="edge"><title>Node10&#45;&gt;Node9</title>
<path fill="none" stroke="#9a32cd" stroke-dasharray="5,2" d="M1009.1,-265.677C1029.94,-264.816 1056.41,-263.842 1080,-263.339 1107.8,-262.746 1138.07,-262.447 1165.58,-262.309"/>
<polygon fill="#9a32cd" stroke="#9a32cd" points="1008.91,-262.182 999.068,-266.101 1009.21,-269.176 1008.91,-262.182"/>
<text text-anchor="middle" x="1114" y="-266.339" font-family="Helvetica,sans-Serif" font-size="10.00"> myLoop</text>
</g>
<!-- Node11&#45;&gt;Node9 -->
<g id="edge11" class="edge"><title>Node11&#45;&gt;Node9</title>
<path fill="none" stroke="#9a32cd" stroke-dasharray="5,2" d="M1072.41,-314.512C1097.3,-314.746 1123.78,-313.24 1148,-308.339 1182.43,-301.373 1219.49,-283.188 1240.32,-271.881"/>
<polygon fill="#9a32cd" stroke="#9a32cd" points="1072.28,-311.01 1062.22,-314.321 1072.15,-318.008 1072.28,-311.01"/>
<text text-anchor="middle" x="1114" y="-318.339" font-family="Helvetica,sans-Serif" font-size="10.00"> myView</text>
</g>
<!-- Node12 -->
<g id="node12" class="node"><title>Node12</title>
<polygon fill="white" stroke="#bfbfbf" points="645.5,-137.839 645.5,-156.839 690.5,-156.839 690.5,-137.839 645.5,-137.839"/>
<text text-anchor="middle" x="668" y="-144.839" font-family="Helvetica,sans-Serif" font-size="10.00">Stage</text>
</g>
<!-- Node12&#45;&gt;Node11 -->
<g id="edge12" class="edge"><title>Node12&#45;&gt;Node11</title>
<path fill="none" stroke="#9a32cd" stroke-dasharray="5,2" d="M700.839,-144.858C749.558,-141.801 839.353,-139.323 862,-160.339 903.465,-198.819 841.345,-245.038 880,-286.339 883.492,-290.07 887.517,-293.165 891.888,-295.725"/>
<polygon fill="#9a32cd" stroke="#9a32cd" points="700.564,-141.369 690.821,-145.531 701.033,-148.353 700.564,-141.369"/>
<text text-anchor="middle" x="815" y="-163.339" font-family="Helvetica,sans-Serif" font-size="10.00"> myStage</text>
</g>
<!-- Node13 -->
<g id="node13" class="node"><title>Node13</title>
<polygon fill="white" stroke="#bfbfbf" points="640,-95.8391 640,-114.839 696,-114.839 696,-95.8391 640,-95.8391"/>
<text text-anchor="middle" x="668" y="-102.839" font-family="Helvetica,sans-Serif" font-size="10.00">TextField</text>
</g>
<!-- Node13&#45;&gt;Node11 -->
<g id="edge15" class="edge"><title>Node13&#45;&gt;Node11</title>
<path fill="none" stroke="#9a32cd" stroke-dasharray="5,2" d="M706.206,-99.906C755.836,-93.5762 840.017,-86.341 862,-106.339 891.736,-133.39 853.156,-256.416 880,-286.339 883.306,-290.024 887.131,-293.095 891.3,-295.647"/>
<polygon fill="#9a32cd" stroke="#9a32cd" points="705.629,-96.4517 696.175,-101.233 706.547,-103.391 705.629,-96.4517"/>
<text text-anchor="middle" x="815" y="-131.339" font-family="Helvetica,sans-Serif" font-size="10.00"> textField1</text>
<text text-anchor="middle" x="815" y="-120.339" font-family="Helvetica,sans-Serif" font-size="10.00">textField2</text>
<text text-anchor="middle" x="815" y="-109.339" font-family="Helvetica,sans-Serif" font-size="10.00">textField3</text>
</g>
<!-- Node14 -->
<g id="node14" class="node"><title>Node14</title>
<polygon fill="white" stroke="#bfbfbf" points="646,-57.8391 646,-76.8391 690,-76.8391 690,-57.8391 646,-57.8391"/>
<text text-anchor="middle" x="668" y="-64.8391" font-family="Helvetica,sans-Serif" font-size="10.00">Slider</text>
</g>
<!-- Node14&#45;&gt;Node11 -->
<g id="edge16" class="edge"><title>Node14&#45;&gt;Node11</title>
<path fill="none" stroke="#9a32cd" stroke-dasharray="5,2" d="M700.014,-58.161C742.716,-47.6408 819.181,-36.7605 862,-78.3391 895.285,-110.66 849.25,-251.598 880,-286.339 883.281,-290.046 887.087,-293.134 891.243,-295.698"/>
<polygon fill="#9a32cd" stroke="#9a32cd" points="698.971,-54.8159 690.178,-60.7263 700.738,-61.5893 698.971,-54.8159"/>
<text text-anchor="middle" x="815" y="-81.3391" font-family="Helvetica,sans-Serif" font-size="10.00"> slider</text>
</g>
<!-- Node15 -->
<g id="node15" class="node"><title>Node15</title>
<polygon fill="white" stroke="#bfbfbf" points="643.5,-462.839 643.5,-481.839 692.5,-481.839 692.5,-462.839 643.5,-462.839"/>
<text text-anchor="middle" x="668" y="-469.839" font-family="Helvetica,sans-Serif" font-size="10.00">Button</text>
</g>
<!-- Node15&#45;&gt;Node11 -->
<g id="edge17" class="edge"><title>Node15&#45;&gt;Node11</title>
<path fill="none" stroke="#9a32cd" stroke-dasharray="5,2" d="M703.052,-470.449C751.047,-467.275 835.68,-459.66 862,-444.339 916.671,-412.514 953.542,-341.275 965.653,-315.169"/>
<polygon fill="#9a32cd" stroke="#9a32cd" points="702.591,-466.971 692.832,-471.094 703.033,-473.957 702.591,-466.971"/>
<text text-anchor="middle" x="815" y="-500.339" font-family="Helvetica,sans-Serif" font-size="10.00"> resetButton</text>
<text text-anchor="middle" x="815" y="-489.339" font-family="Helvetica,sans-Serif" font-size="10.00">stepButton</text>
<text text-anchor="middle" x="815" y="-478.339" font-family="Helvetica,sans-Serif" font-size="10.00">pauseButton</text>
<text text-anchor="middle" x="815" y="-467.339" font-family="Helvetica,sans-Serif" font-size="10.00">playButton</text>
</g>
<!-- Node16 -->
<g id="node16" class="node"><title>Node16</title>
<polygon fill="white" stroke="#bfbfbf" points="644.5,-377.839 644.5,-396.839 691.5,-396.839 691.5,-377.839 644.5,-377.839"/>
<text text-anchor="middle" x="668" y="-384.839" font-family="Helvetica,sans-Serif" font-size="10.00">Scene</text>
</g>
<!-- Node16&#45;&gt;Node11 -->
<g id="edge19" class="edge"><title>Node16&#45;&gt;Node11</title>
<path fill="none" stroke="#9a32cd" stroke-dasharray="5,2" d="M701.807,-382.85C740.586,-377.094 806.823,-365.843 862,-349.339 893.424,-339.94 928.325,-324.817 949.72,-314.978"/>
<polygon fill="#9a32cd" stroke="#9a32cd" points="701.023,-379.427 691.63,-384.328 702.029,-386.354 701.023,-379.427"/>
<text text-anchor="middle" x="815" y="-374.339" font-family="Helvetica,sans-Serif" font-size="10.00"> myScene</text>
</g>
<!-- Node17 -->
<g id="node17" class="node"><title>Node17</title>
<polygon fill="white" stroke="#bfbfbf" points="634,-339.839 634,-358.839 702,-358.839 702,-339.839 634,-339.839"/>
<text text-anchor="middle" x="668" y="-346.839" font-family="Helvetica,sans-Serif" font-size="10.00">Dimension</text>
</g>
<!-- Node17&#45;&gt;Node11 -->
<g id="edge20" class="edge"><title>Node17&#45;&gt;Node11</title>
<path fill="none" stroke="#9a32cd" stroke-dasharray="5,2" d="M711.997,-343.054C762.426,-335.682 846.544,-323.386 904.963,-314.846"/>
<polygon fill="#9a32cd" stroke="#9a32cd" points="711.462,-339.595 702.073,-344.504 712.474,-346.521 711.462,-339.595"/>
<text text-anchor="middle" x="815" y="-337.339" font-family="Helvetica,sans-Serif" font-size="10.00"> DEFAULT_SIZE</text>
</g>
<!-- Node18 -->
<g id="node18" class="node"><title>Node18</title>
<g id="a_node18"><a xlink:href="../../d3/d6b/interfacecellsociety__team01_1_1modelview_1_1_grid_view.html" target="_top" xlink:title="cellsociety_team01.modelview.\lGridView">
<polygon fill="white" stroke="black" points="586,-290.339 586,-320.339 750,-320.339 750,-290.339 586,-290.339"/>
<text text-anchor="start" x="594" y="-308.339" font-family="Helvetica,sans-Serif" font-size="10.00">cellsociety_team01.modelview.</text>
<text text-anchor="middle" x="668" y="-297.339" font-family="Helvetica,sans-Serif" font-size="10.00">GridView</text>
</a>
</g>
</g>
<!-- Node18&#45;&gt;Node11 -->
<g id="edge21" class="edge"><title>Node18&#45;&gt;Node11</title>
<path fill="none" stroke="#9a32cd" stroke-dasharray="5,2" d="M760.075,-305.339C798.007,-305.339 841.94,-305.339 879.781,-305.339"/>
<polygon fill="#9a32cd" stroke="#9a32cd" points="760.058,-301.839 750.058,-305.339 760.058,-308.839 760.058,-301.839"/>
<text text-anchor="middle" x="815" y="-308.339" font-family="Helvetica,sans-Serif" font-size="10.00"> gridView</text>
</g>
<!-- Node19 -->
<g id="node19" class="node"><title>Node19</title>
<polygon fill="white" stroke="#bfbfbf" points="642,-251.839 642,-270.839 694,-270.839 694,-251.839 642,-251.839"/>
<text text-anchor="middle" x="668" y="-258.839" font-family="Helvetica,sans-Serif" font-size="10.00">Canvas</text>
</g>
<!-- Node19&#45;&gt;Node11 -->
<g id="edge23" class="edge"><title>Node19&#45;&gt;Node11</title>
<path fill="none" stroke="#9a32cd" stroke-dasharray="5,2" d="M704.276,-266.496C753.417,-273.679 843.352,-286.826 904.863,-295.817"/>
<polygon fill="#9a32cd" stroke="#9a32cd" points="704.546,-262.998 694.145,-265.015 703.534,-269.924 704.546,-262.998"/>
<text text-anchor="middle" x="815" y="-292.339" font-family="Helvetica,sans-Serif" font-size="10.00"> gridCanvas</text>
</g>
<!-- Node20 -->
<g id="node20" class="node"><title>Node20</title>
<polygon fill="white" stroke="#bfbfbf" points="632,-213.839 632,-232.839 704,-232.839 704,-213.839 632,-213.839"/>
<text text-anchor="middle" x="668" y="-220.839" font-family="Helvetica,sans-Serif" font-size="10.00">BorderPane</text>
</g>
<!-- Node20&#45;&gt;Node11 -->
<g id="edge24" class="edge"><title>Node20&#45;&gt;Node11</title>
<path fill="none" stroke="#9a32cd" stroke-dasharray="5,2" d="M714.232,-223.534C755.633,-225.679 817.105,-233.983 862,-262.339 873.273,-269.459 868.758,-279.17 880,-286.339 886.059,-290.203 892.769,-293.295 899.714,-295.768"/>
<polygon fill="#9a32cd" stroke="#9a32cd" points="714.298,-220.034 704.161,-223.113 714.005,-227.028 714.298,-220.034"/>
<text text-anchor="middle" x="815" y="-265.339" font-family="Helvetica,sans-Serif" font-size="10.00"> myRoot</text>
</g>
<!-- Node21 -->
<g id="node21" class="node"><title>Node21</title>
<g id="a_node21"><a xlink:href="../../da/d73/enumcellsociety__team01_1_1modelview_1_1_grid_1_1grid_shape_types.html" target="_top" xlink:title="cellsociety_team01.modelview.\lGrid.gridShapeTypes">
<polygon fill="white" stroke="black" points="889,-208.339 889,-238.339 1053,-238.339 1053,-208.339 889,-208.339"/>
<text text-anchor="start" x="897" y="-226.339" font-family="Helvetica,sans-Serif" font-size="10.00">cellsociety_team01.modelview.</text>
<text text-anchor="middle" x="971" y="-215.339" font-family="Helvetica,sans-Serif" font-size="10.00">Grid.gridShapeTypes</text>
</a>
</g>
</g>
<!-- Node21&#45;&gt;Node9 -->
<g id="edge26" class="edge"><title>Node21&#45;&gt;Node9</title>
<path fill="none" stroke="#9a32cd" stroke-dasharray="5,2" d="M1063.35,-235.84C1103.5,-241.334 1149.9,-247.683 1187.21,-252.788"/>
<polygon fill="#9a32cd" stroke="#9a32cd" points="1063.67,-232.351 1053.29,-234.463 1062.72,-239.286 1063.67,-232.351"/>
<text text-anchor="middle" x="1114" y="-249.339" font-family="Helvetica,sans-Serif" font-size="10.00"> myCellShape</text>
</g>
<!-- Node22 -->
<g id="node22" class="node"><title>Node22</title>
<polygon fill="white" stroke="#bfbfbf" points="902.5,-159.339 902.5,-189.339 1039.5,-189.339 1039.5,-159.339 902.5,-159.339"/>
<text text-anchor="start" x="910.5" y="-177.339" font-family="Helvetica,sans-Serif" font-size="10.00">ArrayList&lt; cellsociety</text>
<text text-anchor="middle" x="971" y="-166.339" font-family="Helvetica,sans-Serif" font-size="10.00">_team01.CellState.Cell &gt;</text>
</g>
<!-- Node22&#45;&gt;Node9 -->
<g id="edge27" class="edge"><title>Node22&#45;&gt;Node9</title>
<path fill="none" stroke="#9a32cd" stroke-dasharray="5,2" d="M1038.98,-192.023C1046.75,-194.126 1054.55,-196.264 1062,-198.339 1100.34,-209.023 1110.13,-211.073 1148,-223.339 1176.87,-232.691 1209.61,-244.579 1231.6,-252.758"/>
<polygon fill="#9a32cd" stroke="#9a32cd" points="1039.75,-188.606 1029.18,-189.383 1037.93,-195.365 1039.75,-188.606"/>
<text text-anchor="middle" x="1114" y="-226.339" font-family="Helvetica,sans-Serif" font-size="10.00"> cells</text>
</g>
<!-- Node23 -->
<g id="node23" class="node"><title>Node23</title>
<g id="a_node23"><a xlink:href="../../d7/de1/classcellsociety__team01_1_1modelview_1_1_grid_model.html" target="_top" xlink:title="cellsociety_team01.modelview.\lGridModel">
<polygon fill="white" stroke="black" points="889,-110.339 889,-140.339 1053,-140.339 1053,-110.339 889,-110.339"/>
<text text-anchor="start" x="897" y="-128.339" font-family="Helvetica,sans-Serif" font-size="10.00">cellsociety_team01.modelview.</text>
<text text-anchor="middle" x="971" y="-117.339" font-family="Helvetica,sans-Serif" font-size="10.00">GridModel</text>
</a>
</g>
</g>
<!-- Node23&#45;&gt;Node9 -->
<g id="edge28" class="edge"><title>Node23&#45;&gt;Node9</title>
<path fill="none" stroke="#9a32cd" stroke-dasharray="5,2" d="M1044.04,-143.342C1050.16,-145.235 1056.21,-147.24 1062,-149.339 1101.63,-163.714 1111.27,-168.66 1148,-189.339 1184.12,-209.674 1223.97,-237.991 1244,-252.664"/>
<polygon fill="#9a32cd" stroke="#9a32cd" points="1044.99,-139.973 1034.41,-140.462 1042.99,-146.68 1044.99,-139.973"/>
<text text-anchor="middle" x="1114" y="-192.339" font-family="Helvetica,sans-Serif" font-size="10.00"> myGridModel</text>
</g>
<!-- Node24 -->
<g id="node24" class="node"><title>Node24</title>
<g id="a_node24"><a xlink:href="../../d4/df6/classcellsociety__team01_1_1modelview_1_1_refine_neighbors_algorithm.html" target="_top" xlink:title="cellsociety_team01.modelview.\lRefineNeighborsAlgorithm">
<polygon fill="white" stroke="black" points="586,-8.33906 586,-38.3391 750,-38.3391 750,-8.33906 586,-8.33906"/>
<text text-anchor="start" x="594" y="-26.3391" font-family="Helvetica,sans-Serif" font-size="10.00">cellsociety_team01.modelview.</text>
<text text-anchor="middle" x="668" y="-15.3391" font-family="Helvetica,sans-Serif" font-size="10.00">RefineNeighborsAlgorithm</text>
</a>
</g>
</g>
<!-- Node24&#45;&gt;Node23 -->
<g id="edge29" class="edge"><title>Node24&#45;&gt;Node23</title>
<path fill="none" stroke="#9a32cd" stroke-dasharray="5,2" d="M727.479,-6.161C769.364,2.33608 824.728,5.29391 862,-24.3391 889.171,-45.9414 855.93,-75.3272 880,-100.339 883.711,-104.195 887.96,-107.472 892.548,-110.256"/>
<polygon fill="#9a32cd" stroke="#9a32cd" points="726.707,-2.74717 717.682,-8.29747 728.198,-9.58645 726.707,-2.74717"/>
<text text-anchor="middle" x="815" y="-38.3391" font-family="Helvetica,sans-Serif" font-size="10.00"> myRefineAlgorithm</text>
<text text-anchor="middle" x="815" y="-27.3391" font-family="Helvetica,sans-Serif" font-size="10.00">rna</text>
</g>
<!-- Node25 -->
<g id="node25" class="node"><title>Node25</title>
<g id="a_node25"><a xlink:href="../../dd/d91/enumcellsociety__team01_1_1modelview_1_1_grid_1_1grid_edge_types.html" target="_top" xlink:title="cellsociety_team01.modelview.\lGrid.gridEdgeTypes">
<polygon fill="white" stroke="black" points="889,-61.3391 889,-91.3391 1053,-91.3391 1053,-61.3391 889,-61.3391"/>
<text text-anchor="start" x="897" y="-79.3391" font-family="Helvetica,sans-Serif" font-size="10.00">cellsociety_team01.modelview.</text>
<text text-anchor="middle" x="971" y="-68.3391" font-family="Helvetica,sans-Serif" font-size="10.00">Grid.gridEdgeTypes</text>
</a>
</g>
</g>
<!-- Node25&#45;&gt;Node9 -->
<g id="edge30" class="edge"><title>Node25&#45;&gt;Node9</title>
<path fill="none" stroke="#9a32cd" stroke-dasharray="5,2" d="M1049.53,-94.4566C1082.08,-104.615 1119.02,-119.709 1148,-141.339 1193.54,-175.332 1234.76,-230.538 1250.37,-252.691"/>
<polygon fill="#9a32cd" stroke="#9a32cd" points="1050.17,-90.9934 1039.58,-91.4606 1048.15,-97.6959 1050.17,-90.9934"/>
<text text-anchor="middle" x="1114" y="-144.339" font-family="Helvetica,sans-Serif" font-size="10.00"> myEdgeType</text>
</g>
</g>
</svg>
