<?xml version="1.0" encoding="UTF-8" standalone="no"?>
<!DOCTYPE svg PUBLIC "-//W3C//DTD SVG 1.1//EN"
 "http://www.w3.org/Graphics/SVG/1.1/DTD/svg11.dtd">
<!-- Generated by graphviz version 2.36.0 (20140111.2315)
 -->
<!-- Title: cellsociety_team01.modelview.ToroidalRefineNeighborsAlgorithm.refineNeighbors Pages: 1 -->
<svg width="618pt" height="66pt"
 viewBox="0.00 0.00 618.00 66.00" xmlns="http://www.w3.org/2000/svg" xmlns:xlink="http://www.w3.org/1999/xlink">
<g id="graph0" class="graph" transform="scale(1 1) rotate(0) translate(4 62)">
<title>cellsociety_team01.modelview.ToroidalRefineNeighborsAlgorithm.refineNeighbors</title>
<polygon fill="white" stroke="none" points="-4,4 -4,-62 614,-62 614,4 -4,4"/>
<!-- Node1 -->
<g id="node1" class="node"><title>Node1</title>
<polygon fill="#bfbfbf" stroke="black" points="0,-8.5 0,-49.5 206,-49.5 206,-8.5 0,-8.5"/>
<text text-anchor="start" x="8" y="-37.5" font-family="Helvetica,sans-Serif" font-size="10.00">cellsociety_team01.modelview.</text>
<text text-anchor="start" x="8" y="-26.5" font-family="Helvetica,sans-Serif" font-size="10.00">ToroidalRefineNeighborsAlgorithm.refine</text>
<text text-anchor="middle" x="103" y="-15.5" font-family="Helvetica,sans-Serif" font-size="10.00">Neighbors</text>
</g>
<!-- Node2 -->
<g id="node2" class="node"><title>Node2</title>
<g id="a_node2"><a xlink:href="../../d4/df6/classcellsociety__team01_1_1modelview_1_1_refine_neighbors_algorithm.html#ad13484163dff119fcc623ff7b4d7d1de" target="_top" xlink:title="cellsociety_team01.modelview.\lRefineNeighborsAlgorithm.findCell\lForPair">
<polygon fill="white" stroke="black" points="242,-8.5 242,-49.5 420,-49.5 420,-8.5 242,-8.5"/>
<text text-anchor="start" x="250" y="-37.5" font-family="Helvetica,sans-Serif" font-size="10.00">cellsociety_team01.modelview.</text>
<text text-anchor="start" x="250" y="-26.5" font-family="Helvetica,sans-Serif" font-size="10.00">RefineNeighborsAlgorithm.findCell</text>
<text text-anchor="middle" x="331" y="-15.5" font-family="Helvetica,sans-Serif" font-size="10.00">ForPair</text>
</a>
</g>
</g>
<!-- Node1&#45;&gt;Node2 -->
<g id="edge1" class="edge"><title>Node1&#45;&gt;Node2</title>
<path fill="none" stroke="midnightblue" d="M206.09,-29C214.573,-29 223.138,-29 231.593,-29"/>
<polygon fill="midnightblue" stroke="midnightblue" points="231.838,-32.5001 241.837,-29 231.837,-25.5001 231.838,-32.5001"/>
</g>
<!-- Node3 -->
<g id="node3" class="node"><title>Node3</title>
<g id="a_node3"><a xlink:href="../../d8/d80/classcellsociety__team01_1_1_pair.html#a1a97e852278e185e3e50f37c826b12e8" target="_top" xlink:title="cellsociety_team01.Pair.getX">
<polygon fill="white" stroke="black" points="456.5,-38.5 456.5,-57.5 609.5,-57.5 609.5,-38.5 456.5,-38.5"/>
<text text-anchor="middle" x="533" y="-45.5" font-family="Helvetica,sans-Serif" font-size="10.00">cellsociety_team01.Pair.getX</text>
</a>
</g>
</g>
<!-- Node2&#45;&gt;Node3 -->
<g id="edge2" class="edge"><title>Node2&#45;&gt;Node3</title>
<path fill="none" stroke="midnightblue" d="M420.014,-37.3613C428.752,-38.1914 437.613,-39.0333 446.327,-39.861"/>
<polygon fill="midnightblue" stroke="midnightblue" points="446.185,-43.3632 456.471,-40.8247 446.847,-36.3946 446.185,-43.3632"/>
</g>
<!-- Node4 -->
<g id="node4" class="node"><title>Node4</title>
<g id="a_node4"><a xlink:href="../../d8/d80/classcellsociety__team01_1_1_pair.html#a8bf4fdfd4efdf9e3b37eb69706b3b952" target="_top" xlink:title="cellsociety_team01.Pair.getY">
<polygon fill="white" stroke="black" points="457,-0.5 457,-19.5 609,-19.5 609,-0.5 457,-0.5"/>
<text text-anchor="middle" x="533" y="-7.5" font-family="Helvetica,sans-Serif" font-size="10.00">cellsociety_team01.Pair.getY</text>
</a>
</g>
</g>
<!-- Node2&#45;&gt;Node4 -->
<g id="edge3" class="edge"><title>Node2&#45;&gt;Node4</title>
<path fill="none" stroke="midnightblue" d="M420.014,-20.6387C428.827,-19.8014 437.766,-18.9522 446.552,-18.1176"/>
<polygon fill="midnightblue" stroke="midnightblue" points="447.155,-21.5762 456.779,-17.146 446.492,-14.6075 447.155,-21.5762"/>
</g>
</g>
</svg>
