<?xml version="1.0" encoding="UTF-8" standalone="no"?>
<!DOCTYPE svg PUBLIC "-//W3C//DTD SVG 1.1//EN"
 "http://www.w3.org/Graphics/SVG/1.1/DTD/svg11.dtd">
<!-- Generated by graphviz version 2.36.0 (20140111.2315)
 -->
<!-- Title: cellsociety_team01.simulations.Simulation Pages: 1 -->
<svg width="490pt" height="87pt"
 viewBox="0.00 0.00 490.00 87.00" xmlns="http://www.w3.org/2000/svg" xmlns:xlink="http://www.w3.org/1999/xlink">
<g id="graph0" class="graph" transform="scale(1 1) rotate(0) translate(4 83)">
<title>cellsociety_team01.simulations.Simulation</title>
<polygon fill="white" stroke="none" points="-4,4 -4,-83 486,-83 486,4 -4,4"/>
<!-- Node1 -->
<g id="node1" class="node"><title>Node1</title>
<polygon fill="#bfbfbf" stroke="black" points="312,-29 312,-59 482,-59 482,-29 312,-29"/>
<text text-anchor="start" x="320" y="-47" font-family="Helvetica,sans-Serif" font-size="10.00">cellsociety_team01.simulations.</text>
<text text-anchor="middle" x="397" y="-36" font-family="Helvetica,sans-Serif" font-size="10.00">Simulation</text>
</g>
<!-- Node2 -->
<g id="node2" class="node"><title>Node2</title>
<polygon fill="white" stroke="#bfbfbf" points="49.5,-59.5 49.5,-78.5 142.5,-78.5 142.5,-59.5 49.5,-59.5"/>
<text text-anchor="middle" x="96" y="-66.5" font-family="Helvetica,sans-Serif" font-size="10.00">ResourceBundle</text>
</g>
<!-- Node2&#45;&gt;Node1 -->
<g id="edge1" class="edge"><title>Node2&#45;&gt;Node1</title>
<path fill="none" stroke="#9a32cd" stroke-dasharray="5,2" d="M152.825,-64.3324C197.513,-60.5959 260.903,-55.2957 311.759,-51.0436"/>
<polygon fill="#9a32cd" stroke="#9a32cd" points="152.411,-60.8547 142.737,-65.1758 152.994,-67.8304 152.411,-60.8547"/>
<text text-anchor="middle" x="252" y="-62" font-family="Helvetica,sans-Serif" font-size="10.00"> myColorScheme</text>
</g>
<!-- Node3 -->
<g id="node3" class="node"><title>Node3</title>
<polygon fill="white" stroke="#bfbfbf" points="0.5,0.5 0.5,-40.5 191.5,-40.5 191.5,0.5 0.5,0.5"/>
<text text-anchor="start" x="8.5" y="-28.5" font-family="Helvetica,sans-Serif" font-size="10.00">Map&lt; cellsociety_team01.</text>
<text text-anchor="start" x="8.5" y="-17.5" font-family="Helvetica,sans-Serif" font-size="10.00">CellState.State, ArrayList</text>
<text text-anchor="middle" x="96" y="-6.5" font-family="Helvetica,sans-Serif" font-size="10.00">&lt; cellsociety_team01.rules.Rule &gt; &gt;</text>
</g>
<!-- Node3&#45;&gt;Node1 -->
<g id="edge2" class="edge"><title>Node3&#45;&gt;Node1</title>
<path fill="none" stroke="#9a32cd" stroke-dasharray="5,2" d="M201.647,-28.3998C237.636,-31.2885 277.447,-34.484 311.617,-37.2268"/>
<polygon fill="#9a32cd" stroke="#9a32cd" points="201.853,-24.9052 191.605,-27.5938 201.293,-31.8827 201.853,-24.9052"/>
<text text-anchor="middle" x="252" y="-38" font-family="Helvetica,sans-Serif" font-size="10.00"> myData</text>
</g>
</g>
</svg>
