<?xml version="1.0" encoding="UTF-8" standalone="no"?>
<!DOCTYPE svg PUBLIC "-//W3C//DTD SVG 1.1//EN"
 "http://www.w3.org/Graphics/SVG/1.1/DTD/svg11.dtd">
<!-- Generated by graphviz version 2.36.0 (20140111.2315)
 -->
<!-- Title: cellsociety_team01.rules.ConsumptionRule.eat Pages: 1 -->
<svg width="568pt" height="229pt"
 viewBox="0.00 0.00 568.00 229.00" xmlns="http://www.w3.org/2000/svg" xmlns:xlink="http://www.w3.org/1999/xlink">
<g id="graph0" class="graph" transform="scale(1 1) rotate(0) translate(4 225)">
<title>cellsociety_team01.rules.ConsumptionRule.eat</title>
<polygon fill="white" stroke="none" points="-4,4 -4,-225 564,-225 564,4 -4,4"/>
<!-- Node1 -->
<g id="node1" class="node"><title>Node1</title>
<polygon fill="#bfbfbf" stroke="black" points="0,-125 0,-155 138,-155 138,-125 0,-125"/>
<text text-anchor="start" x="8" y="-143" font-family="Helvetica,sans-Serif" font-size="10.00">cellsociety_team01.rules.</text>
<text text-anchor="middle" x="69" y="-132" font-family="Helvetica,sans-Serif" font-size="10.00">ConsumptionRule.eat</text>
</g>
<!-- Node2 -->
<g id="node2" class="node"><title>Node2</title>
<g id="a_node2"><a xlink:href="../../d2/d25/classcellsociety__team01_1_1_cell_state_1_1_cell.html#a27e65c7283de9ee085111dfe41798a81" target="_top" xlink:title="cellsociety_team01.CellState.\lCell.getNextState">
<polygon fill="white" stroke="black" points="191,-191 191,-221 349,-221 349,-191 191,-191"/>
<text text-anchor="start" x="199" y="-209" font-family="Helvetica,sans-Serif" font-size="10.00">cellsociety_team01.CellState.</text>
<text text-anchor="middle" x="270" y="-198" font-family="Helvetica,sans-Serif" font-size="10.00">Cell.getNextState</text>
</a>
</g>
</g>
<!-- Node1&#45;&gt;Node2 -->
<g id="edge1" class="edge"><title>Node1&#45;&gt;Node2</title>
<path fill="none" stroke="midnightblue" d="M112.667,-155.064C131.438,-161.615 153.775,-169.307 174,-176 185.92,-179.944 198.719,-184.064 210.94,-187.943"/>
<polygon fill="midnightblue" stroke="midnightblue" points="209.999,-191.316 220.589,-190.993 212.109,-184.641 209.999,-191.316"/>
</g>
<!-- Node3 -->
<g id="node3" class="node"><title>Node3</title>
<g id="a_node3"><a xlink:href="../../d2/d25/classcellsociety__team01_1_1_cell_state_1_1_cell.html#ae02ddaa5eb4249785047ccdf957c712e" target="_top" xlink:title="cellsociety_team01.CellState.\lCell.setCurState">
<polygon fill="white" stroke="black" points="402,-147 402,-177 560,-177 560,-147 402,-147"/>
<text text-anchor="start" x="410" y="-165" font-family="Helvetica,sans-Serif" font-size="10.00">cellsociety_team01.CellState.</text>
<text text-anchor="middle" x="481" y="-154" font-family="Helvetica,sans-Serif" font-size="10.00">Cell.setCurState</text>
</a>
</g>
</g>
<!-- Node1&#45;&gt;Node3 -->
<g id="edge2" class="edge"><title>Node1&#45;&gt;Node3</title>
<path fill="none" stroke="midnightblue" d="M138.163,-143.658C207.68,-147.388 315.833,-153.191 391.83,-157.269"/>
<polygon fill="midnightblue" stroke="midnightblue" points="391.692,-160.766 401.865,-157.807 392.067,-153.777 391.692,-160.766"/>
</g>
<!-- Node4 -->
<g id="node4" class="node"><title>Node4</title>
<g id="a_node4"><a xlink:href="../../d2/d65/classcellsociety__team01_1_1_cell_state_1_1_state.html#a6ce41bf4246dfd7ce7481b7d549c089a" target="_top" xlink:title="cellsociety_team01.CellState.\lState.setInt">
<polygon fill="white" stroke="black" points="191,-103 191,-133 349,-133 349,-103 191,-103"/>
<text text-anchor="start" x="199" y="-121" font-family="Helvetica,sans-Serif" font-size="10.00">cellsociety_team01.CellState.</text>
<text text-anchor="middle" x="270" y="-110" font-family="Helvetica,sans-Serif" font-size="10.00">State.setInt</text>
</a>
</g>
</g>
<!-- Node1&#45;&gt;Node4 -->
<g id="edge3" class="edge"><title>Node1&#45;&gt;Node4</title>
<path fill="none" stroke="midnightblue" d="M138.206,-132.46C151.877,-130.948 166.426,-129.34 180.666,-127.766"/>
<polygon fill="midnightblue" stroke="midnightblue" points="181.408,-131.205 190.963,-126.627 180.639,-124.247 181.408,-131.205"/>
</g>
<!-- Node5 -->
<g id="node5" class="node"><title>Node5</title>
<g id="a_node5"><a xlink:href="../../d9/d10/classcellsociety__team01_1_1rules_1_1_movement_rule.html#ab8ba87bafbedec6706b098ef2adce7fe" target="_top" xlink:title="cellsociety_team01.rules.\lMovementRule.switchStatesUpdated">
<polygon fill="white" stroke="black" points="174,-54 174,-84 366,-84 366,-54 174,-54"/>
<text text-anchor="start" x="182" y="-72" font-family="Helvetica,sans-Serif" font-size="10.00">cellsociety_team01.rules.</text>
<text text-anchor="middle" x="270" y="-61" font-family="Helvetica,sans-Serif" font-size="10.00">MovementRule.switchStatesUpdated</text>
</a>
</g>
</g>
<!-- Node1&#45;&gt;Node5 -->
<g id="edge4" class="edge"><title>Node1&#45;&gt;Node5</title>
<path fill="none" stroke="midnightblue" d="M100.88,-124.789C121.299,-115.12 148.845,-102.81 174,-94 181.243,-91.4632 188.875,-89.0458 196.536,-86.7841"/>
<polygon fill="midnightblue" stroke="midnightblue" points="197.579,-90.1261 206.227,-84.0055 195.65,-83.3972 197.579,-90.1261"/>
</g>
<!-- Node5&#45;&gt;Node3 -->
<g id="edge8" class="edge"><title>Node5&#45;&gt;Node3</title>
<path fill="none" stroke="midnightblue" d="M346.49,-84.1552C353.332,-86.9097 359.952,-90.1615 366,-94 387.044,-107.357 381.317,-123.092 402,-137 404.921,-138.964 408.006,-140.782 411.196,-142.463"/>
<polygon fill="midnightblue" stroke="midnightblue" points="409.882,-145.714 420.416,-146.85 412.89,-139.393 409.882,-145.714"/>
</g>
<!-- Node6 -->
<g id="node6" class="node"><title>Node6</title>
<g id="a_node6"><a xlink:href="../../d2/d25/classcellsociety__team01_1_1_cell_state_1_1_cell.html#a555615a89d24bf27ad94d192d8df8465" target="_top" xlink:title="cellsociety_team01.CellState.\lCell.setNextState">
<polygon fill="white" stroke="black" points="402,-98 402,-128 560,-128 560,-98 402,-98"/>
<text text-anchor="start" x="410" y="-116" font-family="Helvetica,sans-Serif" font-size="10.00">cellsociety_team01.CellState.</text>
<text text-anchor="middle" x="481" y="-105" font-family="Helvetica,sans-Serif" font-size="10.00">Cell.setNextState</text>
</a>
</g>
</g>
<!-- Node5&#45;&gt;Node6 -->
<g id="edge5" class="edge"><title>Node5&#45;&gt;Node6</title>
<path fill="none" stroke="midnightblue" d="M342.341,-84.0192C360.484,-87.8388 380.115,-91.9716 398.713,-95.8869"/>
<polygon fill="midnightblue" stroke="midnightblue" points="398.119,-99.3385 408.626,-97.9738 399.561,-92.4887 398.119,-99.3385"/>
</g>
<!-- Node7 -->
<g id="node7" class="node"><title>Node7</title>
<g id="a_node7"><a xlink:href="../../d2/d25/classcellsociety__team01_1_1_cell_state_1_1_cell.html#aa6bcfad0327a829e6349b8e8ee1b995f" target="_top" xlink:title="cellsociety_team01.CellState.\lCell.getCurState">
<polygon fill="white" stroke="black" points="402,-49 402,-79 560,-79 560,-49 402,-49"/>
<text text-anchor="start" x="410" y="-67" font-family="Helvetica,sans-Serif" font-size="10.00">cellsociety_team01.CellState.</text>
<text text-anchor="middle" x="481" y="-56" font-family="Helvetica,sans-Serif" font-size="10.00">Cell.getCurState</text>
</a>
</g>
</g>
<!-- Node5&#45;&gt;Node7 -->
<g id="edge6" class="edge"><title>Node5&#45;&gt;Node7</title>
<path fill="none" stroke="midnightblue" d="M366.021,-66.7268C374.53,-66.5232 383.124,-66.3176 391.575,-66.1154"/>
<polygon fill="midnightblue" stroke="midnightblue" points="391.882,-69.6092 401.796,-65.8709 391.715,-62.6112 391.882,-69.6092"/>
</g>
<!-- Node8 -->
<g id="node8" class="node"><title>Node8</title>
<g id="a_node8"><a xlink:href="../../d2/d25/classcellsociety__team01_1_1_cell_state_1_1_cell.html#a13f1c90701e1d1ab91e47b03eada7a69" target="_top" xlink:title="cellsociety_team01.CellState.\lCell.setUpdated">
<polygon fill="white" stroke="black" points="402,-0 402,-30 560,-30 560,-0 402,-0"/>
<text text-anchor="start" x="410" y="-18" font-family="Helvetica,sans-Serif" font-size="10.00">cellsociety_team01.CellState.</text>
<text text-anchor="middle" x="481" y="-7" font-family="Helvetica,sans-Serif" font-size="10.00">Cell.setUpdated</text>
</a>
</g>
</g>
<!-- Node5&#45;&gt;Node8 -->
<g id="edge7" class="edge"><title>Node5&#45;&gt;Node8</title>
<path fill="none" stroke="midnightblue" d="M329.218,-53.958C354.815,-47.3443 385.055,-39.5311 411.709,-32.6445"/>
<polygon fill="midnightblue" stroke="midnightblue" points="412.925,-35.9453 421.732,-30.0549 411.174,-29.1678 412.925,-35.9453"/>
</g>
</g>
</svg>
