<?xml version="1.0" encoding="UTF-8" standalone="no"?>
<!DOCTYPE svg PUBLIC "-//W3C//DTD SVG 1.1//EN"
 "http://www.w3.org/Graphics/SVG/1.1/DTD/svg11.dtd">
<!-- Generated by graphviz version 2.36.0 (20140111.2315)
 -->
<!-- Title: cellsociety_team01.rules.ConsumptionRule.apply Pages: 1 -->
<svg width="762pt" height="361pt"
 viewBox="0.00 0.00 762.00 361.00" xmlns="http://www.w3.org/2000/svg" xmlns:xlink="http://www.w3.org/1999/xlink">
<g id="graph0" class="graph" transform="scale(1 1) rotate(0) translate(4 357)">
<title>cellsociety_team01.rules.ConsumptionRule.apply</title>
<polygon fill="white" stroke="none" points="-4,4 -4,-357 758,-357 758,4 -4,4"/>
<!-- Node1 -->
<g id="node1" class="node"><title>Node1</title>
<polygon fill="#bfbfbf" stroke="black" points="0,-113 0,-143 138,-143 138,-113 0,-113"/>
<text text-anchor="start" x="8" y="-131" font-family="Helvetica,sans-Serif" font-size="10.00">cellsociety_team01.rules.</text>
<text text-anchor="middle" x="69" y="-120" font-family="Helvetica,sans-Serif" font-size="10.00">ConsumptionRule.apply</text>
</g>
<!-- Node2 -->
<g id="node2" class="node"><title>Node2</title>
<g id="a_node2"><a xlink:href="../../d4/d68/classcellsociety__team01_1_1rules_1_1_consumption_rule.html#ad98d5c884aa2be83cf2bb31cd3550208" target="_top" xlink:title="cellsociety_team01.rules.\lConsumptionRule.eat">
<polygon fill="white" stroke="black" points="184,-186 184,-216 322,-216 322,-186 184,-186"/>
<text text-anchor="start" x="192" y="-204" font-family="Helvetica,sans-Serif" font-size="10.00">cellsociety_team01.rules.</text>
<text text-anchor="middle" x="253" y="-193" font-family="Helvetica,sans-Serif" font-size="10.00">ConsumptionRule.eat</text>
</a>
</g>
</g>
<!-- Node1&#45;&gt;Node2 -->
<g id="edge1" class="edge"><title>Node1&#45;&gt;Node2</title>
<path fill="none" stroke="midnightblue" d="M107.711,-143.126C135.896,-154.431 174.612,-169.96 204.844,-182.086"/>
<polygon fill="midnightblue" stroke="midnightblue" points="203.754,-185.419 214.338,-185.894 206.36,-178.923 203.754,-185.419"/>
</g>
<!-- Node6 -->
<g id="node6" class="node"><title>Node6</title>
<g id="a_node6"><a xlink:href="../../d2/d25/classcellsociety__team01_1_1_cell_state_1_1_cell.html#aa6bcfad0327a829e6349b8e8ee1b995f" target="_top" xlink:title="cellsociety_team01.CellState.\lCell.getCurState">
<polygon fill="white" stroke="black" points="596,-115 596,-145 754,-145 754,-115 596,-115"/>
<text text-anchor="start" x="604" y="-133" font-family="Helvetica,sans-Serif" font-size="10.00">cellsociety_team01.CellState.</text>
<text text-anchor="middle" x="675" y="-122" font-family="Helvetica,sans-Serif" font-size="10.00">Cell.getCurState</text>
</a>
</g>
</g>
<!-- Node1&#45;&gt;Node6 -->
<g id="edge10" class="edge"><title>Node1&#45;&gt;Node6</title>
<path fill="none" stroke="midnightblue" d="M138.173,-127.623C232.831,-127.185 409.433,-126.679 560,-128 568.323,-128.073 576.987,-128.176 585.656,-128.297"/>
<polygon fill="midnightblue" stroke="midnightblue" points="585.764,-131.799 595.814,-128.447 585.867,-124.8 585.764,-131.799"/>
</g>
<!-- Node9 -->
<g id="node9" class="node"><title>Node9</title>
<g id="a_node9"><a xlink:href="../../d2/d65/classcellsociety__team01_1_1_cell_state_1_1_state.html#a6ce41bf4246dfd7ce7481b7d549c089a" target="_top" xlink:title="cellsociety_team01.CellState.\lState.setInt">
<polygon fill="white" stroke="black" points="385,-137 385,-167 543,-167 543,-137 385,-137"/>
<text text-anchor="start" x="393" y="-155" font-family="Helvetica,sans-Serif" font-size="10.00">cellsociety_team01.CellState.</text>
<text text-anchor="middle" x="464" y="-144" font-family="Helvetica,sans-Serif" font-size="10.00">State.setInt</text>
</a>
</g>
</g>
<!-- Node1&#45;&gt;Node9 -->
<g id="edge16" class="edge"><title>Node1&#45;&gt;Node9</title>
<path fill="none" stroke="midnightblue" d="M138.007,-132.153C203.442,-136.149 302.73,-142.212 374.338,-146.586"/>
<polygon fill="midnightblue" stroke="midnightblue" points="374.5,-150.102 384.695,-147.218 374.927,-143.115 374.5,-150.102"/>
</g>
<!-- Node10 -->
<g id="node10" class="node"><title>Node10</title>
<g id="a_node10"><a xlink:href="../../d2/d65/classcellsociety__team01_1_1_cell_state_1_1_state.html#a07b2228fbfaefdee4c700c42ee6aef40" target="_top" xlink:title="cellsociety_team01.CellState.\lState.getInt">
<polygon fill="white" stroke="black" points="174,-49 174,-79 332,-79 332,-49 174,-49"/>
<text text-anchor="start" x="182" y="-67" font-family="Helvetica,sans-Serif" font-size="10.00">cellsociety_team01.CellState.</text>
<text text-anchor="middle" x="253" y="-56" font-family="Helvetica,sans-Serif" font-size="10.00">State.getInt</text>
</a>
</g>
</g>
<!-- Node1&#45;&gt;Node10 -->
<g id="edge11" class="edge"><title>Node1&#45;&gt;Node10</title>
<path fill="none" stroke="midnightblue" d="M112.671,-112.995C138.705,-103.84 172.173,-92.0711 199.782,-82.3624"/>
<polygon fill="midnightblue" stroke="midnightblue" points="201.009,-85.6411 209.281,-79.0219 198.687,-79.0375 201.009,-85.6411"/>
</g>
<!-- Node11 -->
<g id="node11" class="node"><title>Node11</title>
<g id="a_node11"><a xlink:href="../../d4/d68/classcellsociety__team01_1_1rules_1_1_consumption_rule.html#accd09b9da4e5bc487878397c2e8f45be" target="_top" xlink:title="cellsociety_team01.rules.\lConsumptionRule.kill">
<polygon fill="white" stroke="black" points="395,-323 395,-353 533,-353 533,-323 395,-323"/>
<text text-anchor="start" x="403" y="-341" font-family="Helvetica,sans-Serif" font-size="10.00">cellsociety_team01.rules.</text>
<text text-anchor="middle" x="464" y="-330" font-family="Helvetica,sans-Serif" font-size="10.00">ConsumptionRule.kill</text>
</a>
</g>
</g>
<!-- Node1&#45;&gt;Node11 -->
<g id="edge12" class="edge"><title>Node1&#45;&gt;Node11</title>
<path fill="none" stroke="midnightblue" d="M82.7216,-143.009C101.053,-163.841 136.803,-201.594 174,-225 244.835,-269.573 336.125,-301.662 396.959,-320.004"/>
<polygon fill="midnightblue" stroke="midnightblue" points="396.244,-323.442 406.826,-322.939 398.239,-316.733 396.244,-323.442"/>
</g>
<!-- Node12 -->
<g id="node12" class="node"><title>Node12</title>
<g id="a_node12"><a xlink:href="../../d9/d10/classcellsociety__team01_1_1rules_1_1_movement_rule.html#ad657ff4b10f3a68958de636b90399e0b" target="_top" xlink:title="cellsociety_team01.rules.\lMovementRule.pickCell">
<polygon fill="white" stroke="black" points="184,-0 184,-30 322,-30 322,-0 184,-0"/>
<text text-anchor="start" x="192" y="-18" font-family="Helvetica,sans-Serif" font-size="10.00">cellsociety_team01.rules.</text>
<text text-anchor="middle" x="253" y="-7" font-family="Helvetica,sans-Serif" font-size="10.00">MovementRule.pickCell</text>
</a>
</g>
</g>
<!-- Node1&#45;&gt;Node12 -->
<g id="edge15" class="edge"><title>Node1&#45;&gt;Node12</title>
<path fill="none" stroke="midnightblue" d="M83.7042,-112.931C102.345,-93.28 137.567,-59.0537 174,-39 177.231,-37.2216 180.612,-35.5567 184.078,-34.0006"/>
<polygon fill="midnightblue" stroke="midnightblue" points="185.511,-37.1952 193.409,-30.1325 182.831,-30.7287 185.511,-37.1952"/>
</g>
<!-- Node3 -->
<g id="node3" class="node"><title>Node3</title>
<g id="a_node3"><a xlink:href="../../d2/d25/classcellsociety__team01_1_1_cell_state_1_1_cell.html#ae02ddaa5eb4249785047ccdf957c712e" target="_top" xlink:title="cellsociety_team01.CellState.\lCell.setCurState">
<polygon fill="white" stroke="black" points="596,-274 596,-304 754,-304 754,-274 596,-274"/>
<text text-anchor="start" x="604" y="-292" font-family="Helvetica,sans-Serif" font-size="10.00">cellsociety_team01.CellState.</text>
<text text-anchor="middle" x="675" y="-281" font-family="Helvetica,sans-Serif" font-size="10.00">Cell.setCurState</text>
</a>
</g>
</g>
<!-- Node2&#45;&gt;Node3 -->
<g id="edge2" class="edge"><title>Node2&#45;&gt;Node3</title>
<path fill="none" stroke="midnightblue" d="M271.067,-216.063C292.159,-233.638 329.943,-261.84 368,-274 438.79,-296.619 523.46,-299.016 585.772,-296.527"/>
<polygon fill="midnightblue" stroke="midnightblue" points="586.132,-300.014 595.964,-296.068 585.817,-293.021 586.132,-300.014"/>
</g>
<!-- Node4 -->
<g id="node4" class="node"><title>Node4</title>
<g id="a_node4"><a xlink:href="../../d9/d10/classcellsociety__team01_1_1rules_1_1_movement_rule.html#ab8ba87bafbedec6706b098ef2adce7fe" target="_top" xlink:title="cellsociety_team01.rules.\lMovementRule.switchStatesUpdated">
<polygon fill="white" stroke="black" points="368,-186 368,-216 560,-216 560,-186 368,-186"/>
<text text-anchor="start" x="376" y="-204" font-family="Helvetica,sans-Serif" font-size="10.00">cellsociety_team01.rules.</text>
<text text-anchor="middle" x="464" y="-193" font-family="Helvetica,sans-Serif" font-size="10.00">MovementRule.switchStatesUpdated</text>
</a>
</g>
</g>
<!-- Node2&#45;&gt;Node4 -->
<g id="edge3" class="edge"><title>Node2&#45;&gt;Node4</title>
<path fill="none" stroke="midnightblue" d="M322.145,-201C333.592,-201 345.704,-201 357.828,-201"/>
<polygon fill="midnightblue" stroke="midnightblue" points="358,-204.5 368,-201 358,-197.5 358,-204.5"/>
</g>
<!-- Node8 -->
<g id="node8" class="node"><title>Node8</title>
<g id="a_node8"><a xlink:href="../../d2/d25/classcellsociety__team01_1_1_cell_state_1_1_cell.html#a27e65c7283de9ee085111dfe41798a81" target="_top" xlink:title="cellsociety_team01.CellState.\lCell.getNextState">
<polygon fill="white" stroke="black" points="385,-235 385,-265 543,-265 543,-235 385,-235"/>
<text text-anchor="start" x="393" y="-253" font-family="Helvetica,sans-Serif" font-size="10.00">cellsociety_team01.CellState.</text>
<text text-anchor="middle" x="464" y="-242" font-family="Helvetica,sans-Serif" font-size="10.00">Cell.getNextState</text>
</a>
</g>
</g>
<!-- Node2&#45;&gt;Node8 -->
<g id="edge8" class="edge"><title>Node2&#45;&gt;Node8</title>
<path fill="none" stroke="midnightblue" d="M318.127,-216.035C340.596,-221.302 366.007,-227.26 389.203,-232.698"/>
<polygon fill="midnightblue" stroke="midnightblue" points="388.459,-236.119 398.994,-234.994 390.057,-229.304 388.459,-236.119"/>
</g>
<!-- Node2&#45;&gt;Node9 -->
<g id="edge9" class="edge"><title>Node2&#45;&gt;Node9</title>
<path fill="none" stroke="midnightblue" d="M318.127,-185.965C340.596,-180.698 366.007,-174.74 389.203,-169.302"/>
<polygon fill="midnightblue" stroke="midnightblue" points="390.057,-172.696 398.994,-167.006 388.459,-165.881 390.057,-172.696"/>
</g>
<!-- Node4&#45;&gt;Node3 -->
<g id="edge7" class="edge"><title>Node4&#45;&gt;Node3</title>
<path fill="none" stroke="midnightblue" d="M530.848,-216.054C540.749,-218.969 550.739,-222.289 560,-226 588.964,-237.605 619.826,-255.004 642.124,-268.578"/>
<polygon fill="midnightblue" stroke="midnightblue" points="640.477,-271.675 650.825,-273.946 644.152,-265.717 640.477,-271.675"/>
</g>
<!-- Node5 -->
<g id="node5" class="node"><title>Node5</title>
<g id="a_node5"><a xlink:href="../../d2/d25/classcellsociety__team01_1_1_cell_state_1_1_cell.html#a555615a89d24bf27ad94d192d8df8465" target="_top" xlink:title="cellsociety_team01.CellState.\lCell.setNextState">
<polygon fill="white" stroke="black" points="596,-323 596,-353 754,-353 754,-323 596,-323"/>
<text text-anchor="start" x="604" y="-341" font-family="Helvetica,sans-Serif" font-size="10.00">cellsociety_team01.CellState.</text>
<text text-anchor="middle" x="675" y="-330" font-family="Helvetica,sans-Serif" font-size="10.00">Cell.setNextState</text>
</a>
</g>
</g>
<!-- Node4&#45;&gt;Node5 -->
<g id="edge4" class="edge"><title>Node4&#45;&gt;Node5</title>
<path fill="none" stroke="midnightblue" d="M545.565,-216.189C550.749,-218.944 555.633,-222.186 560,-226 591.518,-253.526 565.22,-284.651 596,-313 597.7,-314.565 599.498,-316.033 601.375,-317.409"/>
<polygon fill="midnightblue" stroke="midnightblue" points="599.726,-320.506 610.054,-322.87 603.455,-314.582 599.726,-320.506"/>
</g>
<!-- Node4&#45;&gt;Node6 -->
<g id="edge5" class="edge"><title>Node4&#45;&gt;Node6</title>
<path fill="none" stroke="midnightblue" d="M526.659,-185.987C537.828,-182.924 549.317,-179.545 560,-176 583.714,-168.13 609.579,-157.838 630.669,-148.986"/>
<polygon fill="midnightblue" stroke="midnightblue" points="632.156,-152.157 639.998,-145.033 629.425,-145.711 632.156,-152.157"/>
</g>
<!-- Node7 -->
<g id="node7" class="node"><title>Node7</title>
<g id="a_node7"><a xlink:href="../../d2/d25/classcellsociety__team01_1_1_cell_state_1_1_cell.html#a13f1c90701e1d1ab91e47b03eada7a69" target="_top" xlink:title="cellsociety_team01.CellState.\lCell.setUpdated">
<polygon fill="white" stroke="black" points="596,-186 596,-216 754,-216 754,-186 596,-186"/>
<text text-anchor="start" x="604" y="-204" font-family="Helvetica,sans-Serif" font-size="10.00">cellsociety_team01.CellState.</text>
<text text-anchor="middle" x="675" y="-193" font-family="Helvetica,sans-Serif" font-size="10.00">Cell.setUpdated</text>
</a>
</g>
</g>
<!-- Node4&#45;&gt;Node7 -->
<g id="edge6" class="edge"><title>Node4&#45;&gt;Node7</title>
<path fill="none" stroke="midnightblue" d="M560.021,-201C568.53,-201 577.124,-201 585.575,-201"/>
<polygon fill="midnightblue" stroke="midnightblue" points="585.796,-204.5 595.796,-201 585.796,-197.5 585.796,-204.5"/>
</g>
<!-- Node11&#45;&gt;Node3 -->
<g id="edge13" class="edge"><title>Node11&#45;&gt;Node3</title>
<path fill="none" stroke="midnightblue" d="M529.127,-322.965C551.596,-317.698 577.007,-311.74 600.203,-306.302"/>
<polygon fill="midnightblue" stroke="midnightblue" points="601.057,-309.696 609.994,-304.006 599.459,-302.881 601.057,-309.696"/>
</g>
<!-- Node11&#45;&gt;Node5 -->
<g id="edge14" class="edge"><title>Node11&#45;&gt;Node5</title>
<path fill="none" stroke="midnightblue" d="M533.145,-338C549.874,-338 568.024,-338 585.555,-338"/>
<polygon fill="midnightblue" stroke="midnightblue" points="585.791,-341.5 595.791,-338 585.791,-334.5 585.791,-341.5"/>
</g>
</g>
</svg>
