<?xml version="1.0" encoding="UTF-8" standalone="no"?>
<!DOCTYPE svg PUBLIC "-//W3C//DTD SVG 1.1//EN"
 "http://www.w3.org/Graphics/SVG/1.1/DTD/svg11.dtd">
<!-- Generated by graphviz version 2.36.0 (20140111.2315)
 -->
<!-- Title: cellsociety_team01.modelview.GridModel.getCardinalNeighbors Pages: 1 -->
<svg width="1544pt" height="87pt"
 viewBox="0.00 0.00 1544.00 87.00" xmlns="http://www.w3.org/2000/svg" xmlns:xlink="http://www.w3.org/1999/xlink">
<g id="graph0" class="graph" transform="scale(1 1) rotate(0) translate(4 83)">
<title>cellsociety_team01.modelview.GridModel.getCardinalNeighbors</title>
<polygon fill="white" stroke="none" points="-4,4 -4,-83 1540,-83 1540,4 -4,4"/>
<!-- Node1 -->
<g id="node1" class="node"><title>Node1</title>
<polygon fill="#bfbfbf" stroke="black" points="0.5,-24 0.5,-54 171.5,-54 171.5,-24 0.5,-24"/>
<text text-anchor="start" x="8.5" y="-42" font-family="Helvetica,sans-Serif" font-size="10.00">cellsociety_team01.modelview.</text>
<text text-anchor="middle" x="86" y="-31" font-family="Helvetica,sans-Serif" font-size="10.00">GridModel.getCardinalNeighbors</text>
</g>
<!-- Node2 -->
<g id="node2" class="node"><title>Node2</title>
<g id="a_node2"><a xlink:href="../../d7/de1/classcellsociety__team01_1_1modelview_1_1_grid_model.html#a50a93468046d735bbc41c59ee14df150" target="_top" xlink:title="cellsociety_team01.modelview.\lGridModel.setNeighbors">
<polygon fill="white" stroke="black" points="208,-24 208,-54 372,-54 372,-24 208,-24"/>
<text text-anchor="start" x="216" y="-42" font-family="Helvetica,sans-Serif" font-size="10.00">cellsociety_team01.modelview.</text>
<text text-anchor="middle" x="290" y="-31" font-family="Helvetica,sans-Serif" font-size="10.00">GridModel.setNeighbors</text>
</a>
</g>
</g>
<!-- Node1&#45;&gt;Node2 -->
<g id="edge1" class="edge"><title>Node1&#45;&gt;Node2</title>
<path fill="none" stroke="midnightblue" d="M181.959,-39C190.659,-39 199.42,-39 207.981,-39"/>
<polygon fill="midnightblue" stroke="midnightblue" points="181.788,-35.5001 171.788,-39 181.788,-42.5001 181.788,-35.5001"/>
</g>
<!-- Node3 -->
<g id="node3" class="node"><title>Node3</title>
<g id="a_node3"><a xlink:href="../../d2/d8b/classcellsociety__team01_1_1modelview_1_1_grid.html#a959c40c0688692c45eb4677c4ad9e313" target="_top" xlink:title="cellsociety_team01.modelview.\lGrid.setNeighbors">
<polygon fill="white" stroke="black" points="408,-24 408,-54 572,-54 572,-24 408,-24"/>
<text text-anchor="start" x="416" y="-42" font-family="Helvetica,sans-Serif" font-size="10.00">cellsociety_team01.modelview.</text>
<text text-anchor="middle" x="490" y="-31" font-family="Helvetica,sans-Serif" font-size="10.00">Grid.setNeighbors</text>
</a>
</g>
</g>
<!-- Node2&#45;&gt;Node3 -->
<g id="edge2" class="edge"><title>Node2&#45;&gt;Node3</title>
<path fill="none" stroke="midnightblue" d="M382.363,-39C390.817,-39 399.346,-39 407.7,-39"/>
<polygon fill="midnightblue" stroke="midnightblue" points="382.106,-35.5001 372.105,-39 382.105,-42.5001 382.106,-35.5001"/>
</g>
<!-- Node4 -->
<g id="node4" class="node"><title>Node4</title>
<g id="a_node4"><a xlink:href="../../db/d40/classcellsociety__team01_1_1parser_1_1_parser.html#afa693f17f280ab1cf88baf2565c593a9" target="_top" xlink:title="cellsociety_team01.parser.\lParser.parseGrid">
<polygon fill="white" stroke="black" points="608.5,-24 608.5,-54 753.5,-54 753.5,-24 608.5,-24"/>
<text text-anchor="start" x="616.5" y="-42" font-family="Helvetica,sans-Serif" font-size="10.00">cellsociety_team01.parser.</text>
<text text-anchor="middle" x="681" y="-31" font-family="Helvetica,sans-Serif" font-size="10.00">Parser.parseGrid</text>
</a>
</g>
</g>
<!-- Node3&#45;&gt;Node4 -->
<g id="edge3" class="edge"><title>Node3&#45;&gt;Node4</title>
<path fill="none" stroke="midnightblue" d="M582.431,-39C591.133,-39 599.869,-39 608.345,-39"/>
<polygon fill="midnightblue" stroke="midnightblue" points="582.25,-35.5001 572.25,-39 582.25,-42.5001 582.25,-35.5001"/>
</g>
<!-- Node5 -->
<g id="node5" class="node"><title>Node5</title>
<g id="a_node5"><a xlink:href="../../db/d40/classcellsociety__team01_1_1parser_1_1_parser.html#a31a05836dde41569f62542b9ea327f95" target="_top" xlink:title="cellsociety_team01.parser.\lParser.parseXmlFile">
<polygon fill="white" stroke="black" points="790.5,-24 790.5,-54 935.5,-54 935.5,-24 790.5,-24"/>
<text text-anchor="start" x="798.5" y="-42" font-family="Helvetica,sans-Serif" font-size="10.00">cellsociety_team01.parser.</text>
<text text-anchor="middle" x="863" y="-31" font-family="Helvetica,sans-Serif" font-size="10.00">Parser.parseXmlFile</text>
</a>
</g>
</g>
<!-- Node4&#45;&gt;Node5 -->
<g id="edge4" class="edge"><title>Node4&#45;&gt;Node5</title>
<path fill="none" stroke="midnightblue" d="M763.921,-39C772.722,-39 781.626,-39 790.295,-39"/>
<polygon fill="midnightblue" stroke="midnightblue" points="763.658,-35.5001 753.658,-39 763.658,-42.5001 763.658,-35.5001"/>
</g>
<!-- Node6 -->
<g id="node6" class="node"><title>Node6</title>
<g id="a_node6"><a xlink:href="../../db/d10/classcellsociety__team01_1_1modelview_1_1_g_u_i.html#afa183319cc9816a6147cba0869ef82eb" target="_top" xlink:title="cellsociety_team01.modelview.\lGUI.loadXML">
<polygon fill="white" stroke="black" points="972,-49 972,-79 1136,-79 1136,-49 972,-49"/>
<text text-anchor="start" x="980" y="-67" font-family="Helvetica,sans-Serif" font-size="10.00">cellsociety_team01.modelview.</text>
<text text-anchor="middle" x="1054" y="-56" font-family="Helvetica,sans-Serif" font-size="10.00">GUI.loadXML</text>
</a>
</g>
</g>
<!-- Node5&#45;&gt;Node6 -->
<g id="edge5" class="edge"><title>Node5&#45;&gt;Node6</title>
<path fill="none" stroke="midnightblue" d="M945.781,-49.8175C954.42,-50.9604 963.205,-52.1223 971.837,-53.2642"/>
<polygon fill="midnightblue" stroke="midnightblue" points="946.095,-46.3287 935.722,-48.4871 945.177,-53.2683 946.095,-46.3287"/>
</g>
<!-- Node9 -->
<g id="node9" class="node"><title>Node9</title>
<g id="a_node9"><a xlink:href="../../db/d10/classcellsociety__team01_1_1modelview_1_1_g_u_i.html#a5c5e37ae72fe72af97fab2cb9a12b045" target="_top" xlink:title="cellsociety_team01.modelview.\lGUI.reset">
<polygon fill="white" stroke="black" points="972,-0 972,-30 1136,-30 1136,-0 972,-0"/>
<text text-anchor="start" x="980" y="-18" font-family="Helvetica,sans-Serif" font-size="10.00">cellsociety_team01.modelview.</text>
<text text-anchor="middle" x="1054" y="-7" font-family="Helvetica,sans-Serif" font-size="10.00">GUI.reset</text>
</a>
</g>
</g>
<!-- Node5&#45;&gt;Node9 -->
<g id="edge8" class="edge"><title>Node5&#45;&gt;Node9</title>
<path fill="none" stroke="midnightblue" d="M945.781,-28.6152C954.42,-27.518 963.205,-26.4026 971.837,-25.3064"/>
<polygon fill="midnightblue" stroke="midnightblue" points="945.202,-25.1605 935.722,-29.8924 946.084,-32.1047 945.202,-25.1605"/>
</g>
<!-- Node7 -->
<g id="node7" class="node"><title>Node7</title>
<g id="a_node7"><a xlink:href="../../db/d10/classcellsociety__team01_1_1modelview_1_1_g_u_i.html#a4072ce794f518e806e7a912892f1e9da" target="_top" xlink:title="cellsociety_team01.modelview.\lGUI.makeMenuBar">
<polygon fill="white" stroke="black" points="1172,-49 1172,-79 1336,-79 1336,-49 1172,-49"/>
<text text-anchor="start" x="1180" y="-67" font-family="Helvetica,sans-Serif" font-size="10.00">cellsociety_team01.modelview.</text>
<text text-anchor="middle" x="1254" y="-56" font-family="Helvetica,sans-Serif" font-size="10.00">GUI.makeMenuBar</text>
</a>
</g>
</g>
<!-- Node6&#45;&gt;Node7 -->
<g id="edge6" class="edge"><title>Node6&#45;&gt;Node7</title>
<path fill="none" stroke="midnightblue" d="M1146.36,-64C1154.82,-64 1163.35,-64 1171.7,-64"/>
<polygon fill="midnightblue" stroke="midnightblue" points="1146.11,-60.5001 1136.11,-64 1146.11,-67.5001 1146.11,-60.5001"/>
</g>
<!-- Node8 -->
<g id="node8" class="node"><title>Node8</title>
<g id="a_node8"><a xlink:href="../../db/d10/classcellsociety__team01_1_1modelview_1_1_g_u_i.html#a07bcff60812627c8dfe97f1aadc671e5" target="_top" xlink:title="cellsociety_team01.modelview.\lGUI.GUI">
<polygon fill="white" stroke="black" points="1372,-24 1372,-54 1536,-54 1536,-24 1372,-24"/>
<text text-anchor="start" x="1380" y="-42" font-family="Helvetica,sans-Serif" font-size="10.00">cellsociety_team01.modelview.</text>
<text text-anchor="middle" x="1454" y="-31" font-family="Helvetica,sans-Serif" font-size="10.00">GUI.GUI</text>
</a>
</g>
</g>
<!-- Node7&#45;&gt;Node8 -->
<g id="edge7" class="edge"><title>Node7&#45;&gt;Node8</title>
<path fill="none" stroke="midnightblue" d="M1346.08,-52.4994C1354.63,-51.4205 1363.25,-50.3316 1371.7,-49.2651"/>
<polygon fill="midnightblue" stroke="midnightblue" points="1345.59,-49.0342 1336.11,-53.7594 1346.47,-55.9791 1345.59,-49.0342"/>
</g>
<!-- Node10 -->
<g id="node10" class="node"><title>Node10</title>
<g id="a_node10"><a xlink:href="../../db/d10/classcellsociety__team01_1_1modelview_1_1_g_u_i.html#aa924c28ce131195d3f377b18177f6cb9" target="_top" xlink:title="cellsociety_team01.modelview.\lGUI.makeButtonsAndSlider">
<polygon fill="white" stroke="black" points="1172,-0 1172,-30 1336,-30 1336,-0 1172,-0"/>
<text text-anchor="start" x="1180" y="-18" font-family="Helvetica,sans-Serif" font-size="10.00">cellsociety_team01.modelview.</text>
<text text-anchor="middle" x="1254" y="-7" font-family="Helvetica,sans-Serif" font-size="10.00">GUI.makeButtonsAndSlider</text>
</a>
</g>
</g>
<!-- Node9&#45;&gt;Node10 -->
<g id="edge9" class="edge"><title>Node9&#45;&gt;Node10</title>
<path fill="none" stroke="midnightblue" d="M1146.36,-15C1154.82,-15 1163.35,-15 1171.7,-15"/>
<polygon fill="midnightblue" stroke="midnightblue" points="1146.11,-11.5001 1136.11,-15 1146.11,-18.5001 1146.11,-11.5001"/>
</g>
<!-- Node10&#45;&gt;Node8 -->
<g id="edge10" class="edge"><title>Node10&#45;&gt;Node8</title>
<path fill="none" stroke="midnightblue" d="M1346.08,-26.0406C1354.63,-27.0763 1363.25,-28.1217 1371.7,-29.1455"/>
<polygon fill="midnightblue" stroke="midnightblue" points="1346.45,-22.5598 1336.11,-24.831 1345.61,-29.5089 1346.45,-22.5598"/>
</g>
</g>
</svg>
