<?xml version="1.0" encoding="UTF-8" standalone="no"?>
<!DOCTYPE svg PUBLIC "-//W3C//DTD SVG 1.1//EN"
 "http://www.w3.org/Graphics/SVG/1.1/DTD/svg11.dtd">
<!-- Generated by graphviz version 2.36.0 (20140111.2315)
 -->
<!-- Title: cellsociety_team01.modelview.GridModel.setNeighbors Pages: 1 -->
<svg width="646pt" height="209pt"
 viewBox="0.00 0.00 646.00 209.00" xmlns="http://www.w3.org/2000/svg" xmlns:xlink="http://www.w3.org/1999/xlink">
<g id="graph0" class="graph" transform="scale(1 1) rotate(0) translate(4 205)">
<title>cellsociety_team01.modelview.GridModel.setNeighbors</title>
<polygon fill="white" stroke="none" points="-4,4 -4,-205 642,-205 642,4 -4,4"/>
<!-- Node1 -->
<g id="node1" class="node"><title>Node1</title>
<polygon fill="#bfbfbf" stroke="black" points="0,-73 0,-103 164,-103 164,-73 0,-73"/>
<text text-anchor="start" x="8" y="-91" font-family="Helvetica,sans-Serif" font-size="10.00">cellsociety_team01.modelview.</text>
<text text-anchor="middle" x="82" y="-80" font-family="Helvetica,sans-Serif" font-size="10.00">GridModel.setNeighbors</text>
</g>
<!-- Node2 -->
<g id="node2" class="node"><title>Node2</title>
<g id="a_node2"><a xlink:href="../../d7/de1/classcellsociety__team01_1_1modelview_1_1_grid_model.html#a87b600f8e19542b7210757866313fb8d" target="_top" xlink:title="cellsociety_team01.modelview.\lGridModel.getAllPossibleNeighbors">
<polygon fill="white" stroke="black" points="200,-147 200,-177 382,-177 382,-147 200,-147"/>
<text text-anchor="start" x="208" y="-165" font-family="Helvetica,sans-Serif" font-size="10.00">cellsociety_team01.modelview.</text>
<text text-anchor="middle" x="291" y="-154" font-family="Helvetica,sans-Serif" font-size="10.00">GridModel.getAllPossibleNeighbors</text>
</a>
</g>
</g>
<!-- Node1&#45;&gt;Node2 -->
<g id="edge1" class="edge"><title>Node1&#45;&gt;Node2</title>
<path fill="none" stroke="midnightblue" d="M115.855,-103.065C139.071,-113.387 171.079,-126.972 200,-137 206.952,-139.411 214.267,-141.752 221.598,-143.973"/>
<polygon fill="midnightblue" stroke="midnightblue" points="220.99,-147.443 231.572,-146.923 222.975,-140.731 220.99,-147.443"/>
</g>
<!-- Node5 -->
<g id="node5" class="node"><title>Node5</title>
<g id="a_node5"><a xlink:href="../../d7/de1/classcellsociety__team01_1_1modelview_1_1_grid_model.html#a4494649ae57d4b652939946a28f5754a" target="_top" xlink:title="cellsociety_team01.modelview.\lGridModel.getCardinalNeighbors">
<polygon fill="white" stroke="black" points="205.5,-98 205.5,-128 376.5,-128 376.5,-98 205.5,-98"/>
<text text-anchor="start" x="213.5" y="-116" font-family="Helvetica,sans-Serif" font-size="10.00">cellsociety_team01.modelview.</text>
<text text-anchor="middle" x="291" y="-105" font-family="Helvetica,sans-Serif" font-size="10.00">GridModel.getCardinalNeighbors</text>
</a>
</g>
</g>
<!-- Node1&#45;&gt;Node5 -->
<g id="edge4" class="edge"><title>Node1&#45;&gt;Node5</title>
<path fill="none" stroke="midnightblue" d="M164.218,-97.8089C174.327,-99.0298 184.733,-100.287 195.027,-101.53"/>
<polygon fill="midnightblue" stroke="midnightblue" points="194.92,-105.042 205.267,-102.767 195.759,-98.0927 194.92,-105.042"/>
</g>
<!-- Node6 -->
<g id="node6" class="node"><title>Node6</title>
<g id="a_node6"><a xlink:href="../../da/df7/classcellsociety__team01_1_1simulations_1_1_simulation.html#a851f60d3af023c3c79686a3fb0bf3e0d" target="_top" xlink:title="cellsociety_team01.simulations.\lSimulation.getNeighborType">
<polygon fill="white" stroke="black" points="206,-49 206,-79 376,-79 376,-49 206,-49"/>
<text text-anchor="start" x="214" y="-67" font-family="Helvetica,sans-Serif" font-size="10.00">cellsociety_team01.simulations.</text>
<text text-anchor="middle" x="291" y="-56" font-family="Helvetica,sans-Serif" font-size="10.00">Simulation.getNeighborType</text>
</a>
</g>
</g>
<!-- Node1&#45;&gt;Node6 -->
<g id="edge5" class="edge"><title>Node1&#45;&gt;Node6</title>
<path fill="none" stroke="midnightblue" d="M164.218,-78.5834C174.604,-77.3793 185.304,-76.1387 195.873,-74.9133"/>
<polygon fill="midnightblue" stroke="midnightblue" points="196.421,-78.3733 205.951,-73.7448 195.614,-71.4199 196.421,-78.3733"/>
</g>
<!-- Node7 -->
<g id="node7" class="node"><title>Node7</title>
<g id="a_node7"><a xlink:href="../../d7/de1/classcellsociety__team01_1_1modelview_1_1_grid_model.html#a5eaf505d5ea180f419030aaf7b0fb645" target="_top" xlink:title="cellsociety_team01.modelview.\lGridModel.verifyNeighbors">
<polygon fill="white" stroke="black" points="209,-0 209,-30 373,-30 373,-0 209,-0"/>
<text text-anchor="start" x="217" y="-18" font-family="Helvetica,sans-Serif" font-size="10.00">cellsociety_team01.modelview.</text>
<text text-anchor="middle" x="291" y="-7" font-family="Helvetica,sans-Serif" font-size="10.00">GridModel.verifyNeighbors</text>
</a>
</g>
</g>
<!-- Node1&#45;&gt;Node7 -->
<g id="edge6" class="edge"><title>Node1&#45;&gt;Node7</title>
<path fill="none" stroke="midnightblue" d="M116.642,-72.9576C139.808,-62.9072 171.441,-49.7862 200,-40 207.04,-37.5876 214.448,-35.2367 221.866,-33.0028"/>
<polygon fill="midnightblue" stroke="midnightblue" points="222.99,-36.3207 231.594,-30.1382 221.012,-29.6058 222.99,-36.3207"/>
</g>
<!-- Node3 -->
<g id="node3" class="node"><title>Node3</title>
<g id="a_node3"><a xlink:href="../../d2/d25/classcellsociety__team01_1_1_cell_state_1_1_cell.html#a03047fd6184158748f1b354520d8811f" target="_top" xlink:title="cellsociety_team01.CellState.\lCell.getX">
<polygon fill="white" stroke="black" points="449,-171 449,-201 607,-201 607,-171 449,-171"/>
<text text-anchor="start" x="457" y="-189" font-family="Helvetica,sans-Serif" font-size="10.00">cellsociety_team01.CellState.</text>
<text text-anchor="middle" x="528" y="-178" font-family="Helvetica,sans-Serif" font-size="10.00">Cell.getX</text>
</a>
</g>
</g>
<!-- Node2&#45;&gt;Node3 -->
<g id="edge2" class="edge"><title>Node2&#45;&gt;Node3</title>
<path fill="none" stroke="midnightblue" d="M382.185,-171.21C400.751,-173.106 420.28,-175.101 438.776,-176.99"/>
<polygon fill="midnightblue" stroke="midnightblue" points="438.628,-180.493 448.932,-178.027 439.339,-173.529 438.628,-180.493"/>
</g>
<!-- Node4 -->
<g id="node4" class="node"><title>Node4</title>
<g id="a_node4"><a xlink:href="../../d2/d25/classcellsociety__team01_1_1_cell_state_1_1_cell.html#ad1f154c2a9a8d34c8e60bdd53df5a70f" target="_top" xlink:title="cellsociety_team01.CellState.\lCell.getY">
<polygon fill="white" stroke="black" points="449,-122 449,-152 607,-152 607,-122 449,-122"/>
<text text-anchor="start" x="457" y="-140" font-family="Helvetica,sans-Serif" font-size="10.00">cellsociety_team01.CellState.</text>
<text text-anchor="middle" x="528" y="-129" font-family="Helvetica,sans-Serif" font-size="10.00">Cell.getY</text>
</a>
</g>
</g>
<!-- Node2&#45;&gt;Node4 -->
<g id="edge3" class="edge"><title>Node2&#45;&gt;Node4</title>
<path fill="none" stroke="midnightblue" d="M382.185,-152.406C400.751,-150.431 420.28,-148.353 438.776,-146.386"/>
<polygon fill="midnightblue" stroke="midnightblue" points="439.358,-149.843 448.932,-145.305 438.618,-142.883 439.358,-149.843"/>
</g>
<!-- Node8 -->
<g id="node8" class="node"><title>Node8</title>
<g id="a_node8"><a xlink:href="../../d4/df6/classcellsociety__team01_1_1modelview_1_1_refine_neighbors_algorithm.html#a002765eca147ba01744b600a47713858" target="_top" xlink:title="cellsociety_team01.modelview.\lRefineNeighborsAlgorithm.refineNeighbors">
<polygon fill="white" stroke="black" points="418.5,-0 418.5,-30 637.5,-30 637.5,-0 418.5,-0"/>
<text text-anchor="start" x="426.5" y="-18" font-family="Helvetica,sans-Serif" font-size="10.00">cellsociety_team01.modelview.</text>
<text text-anchor="middle" x="528" y="-7" font-family="Helvetica,sans-Serif" font-size="10.00">RefineNeighborsAlgorithm.refineNeighbors</text>
</a>
</g>
</g>
<!-- Node7&#45;&gt;Node8 -->
<g id="edge7" class="edge"><title>Node7&#45;&gt;Node8</title>
<path fill="none" stroke="midnightblue" d="M373.203,-15C384.604,-15 396.511,-15 408.432,-15"/>
<polygon fill="midnightblue" stroke="midnightblue" points="408.439,-18.5001 418.438,-15 408.438,-11.5001 408.439,-18.5001"/>
</g>
</g>
</svg>
