<?xml version="1.0" encoding="UTF-8" standalone="no"?>
<!DOCTYPE svg PUBLIC "-//W3C//DTD SVG 1.1//EN"
 "http://www.w3.org/Graphics/SVG/1.1/DTD/svg11.dtd">
<!-- Generated by graphviz version 2.36.0 (20140111.2315)
 -->
<!-- Title: cellsociety_team01.exceptions.ElementValueException.ElementValueException Pages: 1 -->
<svg width="410pt" height="48pt"
 viewBox="0.00 0.00 410.00 48.00" xmlns="http://www.w3.org/2000/svg" xmlns:xlink="http://www.w3.org/1999/xlink">
<g id="graph0" class="graph" transform="scale(1 1) rotate(0) translate(4 44)">
<title>cellsociety_team01.exceptions.ElementValueException.ElementValueException</title>
<polygon fill="white" stroke="none" points="-4,4 -4,-44 406,-44 406,4 -4,4"/>
<!-- Node1 -->
<g id="node1" class="node"><title>Node1</title>
<polygon fill="#bfbfbf" stroke="black" points="0,0.5 0,-40.5 198,-40.5 198,0.5 0,0.5"/>
<text text-anchor="start" x="8" y="-28.5" font-family="Helvetica,sans-Serif" font-size="10.00">cellsociety_team01.exceptions.</text>
<text text-anchor="start" x="8" y="-17.5" font-family="Helvetica,sans-Serif" font-size="10.00">ElementValueException.ElementValue</text>
<text text-anchor="middle" x="99" y="-6.5" font-family="Helvetica,sans-Serif" font-size="10.00">Exception</text>
</g>
<!-- Node2 -->
<g id="node2" class="node"><title>Node2</title>
<g id="a_node2"><a xlink:href="../../d7/db9/classcellsociety__team01_1_1exceptions_1_1_element_value_exception.html#a54f17e37b4dff82c68e16d3eec530519" target="_top" xlink:title="cellsociety_team01.exceptions.\lElementValueException.setTag">
<polygon fill="white" stroke="black" points="234.5,-5 234.5,-35 401.5,-35 401.5,-5 234.5,-5"/>
<text text-anchor="start" x="242.5" y="-23" font-family="Helvetica,sans-Serif" font-size="10.00">cellsociety_team01.exceptions.</text>
<text text-anchor="middle" x="318" y="-12" font-family="Helvetica,sans-Serif" font-size="10.00">ElementValueException.setTag</text>
</a>
</g>
</g>
<!-- Node1&#45;&gt;Node2 -->
<g id="edge1" class="edge"><title>Node1&#45;&gt;Node2</title>
<path fill="none" stroke="midnightblue" d="M198.025,-20C206.743,-20 215.553,-20 224.226,-20"/>
<polygon fill="midnightblue" stroke="midnightblue" points="224.331,-23.5001 234.33,-20 224.33,-16.5001 224.331,-23.5001"/>
</g>
</g>
</svg>
