<?xml version="1.0" encoding="UTF-8" standalone="no"?>
<!DOCTYPE svg PUBLIC "-//W3C//DTD SVG 1.1//EN"
 "http://www.w3.org/Graphics/SVG/1.1/DTD/svg11.dtd">
<!-- Generated by graphviz version 2.36.0 (20140111.2315)
 -->
<!-- Title: cellsociety_team01.exceptions.ElementValueException.setTag Pages: 1 -->
<svg width="410pt" height="48pt"
 viewBox="0.00 0.00 410.00 48.00" xmlns="http://www.w3.org/2000/svg" xmlns:xlink="http://www.w3.org/1999/xlink">
<g id="graph0" class="graph" transform="scale(1 1) rotate(0) translate(4 44)">
<title>cellsociety_team01.exceptions.ElementValueException.setTag</title>
<polygon fill="white" stroke="none" points="-4,4 -4,-44 406,-44 406,4 -4,4"/>
<!-- Node1 -->
<g id="node1" class="node"><title>Node1</title>
<polygon fill="#bfbfbf" stroke="black" points="0.5,-5 0.5,-35 167.5,-35 167.5,-5 0.5,-5"/>
<text text-anchor="start" x="8.5" y="-23" font-family="Helvetica,sans-Serif" font-size="10.00">cellsociety_team01.exceptions.</text>
<text text-anchor="middle" x="84" y="-12" font-family="Helvetica,sans-Serif" font-size="10.00">ElementValueException.setTag</text>
</g>
<!-- Node2 -->
<g id="node2" class="node"><title>Node2</title>
<g id="a_node2"><a xlink:href="../../d7/db9/classcellsociety__team01_1_1exceptions_1_1_element_value_exception.html#a0c9e158a4bb3f25b42945432cc5dd773" target="_top" xlink:title="cellsociety_team01.exceptions.\lElementValueException.ElementValue\lException">
<polygon fill="white" stroke="black" points="204,0.5 204,-40.5 402,-40.5 402,0.5 204,0.5"/>
<text text-anchor="start" x="212" y="-28.5" font-family="Helvetica,sans-Serif" font-size="10.00">cellsociety_team01.exceptions.</text>
<text text-anchor="start" x="212" y="-17.5" font-family="Helvetica,sans-Serif" font-size="10.00">ElementValueException.ElementValue</text>
<text text-anchor="middle" x="303" y="-6.5" font-family="Helvetica,sans-Serif" font-size="10.00">Exception</text>
</a>
</g>
</g>
<!-- Node1&#45;&gt;Node2 -->
<g id="edge1" class="edge"><title>Node1&#45;&gt;Node2</title>
<path fill="none" stroke="midnightblue" d="M177.752,-20C186.417,-20 195.218,-20 203.929,-20"/>
<polygon fill="midnightblue" stroke="midnightblue" points="177.657,-16.5001 167.657,-20 177.657,-23.5001 177.657,-16.5001"/>
</g>
</g>
</svg>
