<?xml version="1.0" encoding="UTF-8" standalone="no"?>
<!DOCTYPE svg PUBLIC "-//W3C//DTD SVG 1.1//EN"
 "http://www.w3.org/Graphics/SVG/1.1/DTD/svg11.dtd">
<!-- Generated by graphviz version 2.36.0 (20140111.2315)
 -->
<!-- Title: cellsociety_team01.exceptions.ElementValueException.handleException Pages: 1 -->
<svg width="1370pt" height="160pt"
 viewBox="0.00 0.00 1370.00 160.00" xmlns="http://www.w3.org/2000/svg" xmlns:xlink="http://www.w3.org/1999/xlink">
<g id="graph0" class="graph" transform="scale(1 1) rotate(0) translate(4 156)">
<title>cellsociety_team01.exceptions.ElementValueException.handleException</title>
<polygon fill="white" stroke="none" points="-4,4 -4,-156 1366,-156 1366,4 -4,4"/>
<!-- Node1 -->
<g id="node1" class="node"><title>Node1</title>
<polygon fill="#bfbfbf" stroke="black" points="0.5,-49 0.5,-79 211.5,-79 211.5,-49 0.5,-49"/>
<text text-anchor="start" x="8.5" y="-67" font-family="Helvetica,sans-Serif" font-size="10.00">cellsociety_team01.exceptions.</text>
<text text-anchor="middle" x="106" y="-56" font-family="Helvetica,sans-Serif" font-size="10.00">ElementValueException.handleException</text>
</g>
<!-- Node2 -->
<g id="node2" class="node"><title>Node2</title>
<g id="a_node2"><a xlink:href="../../db/d40/classcellsociety__team01_1_1parser_1_1_parser.html#afa9ffc367d1b97d4ebec0de216a89d0a" target="_top" xlink:title="cellsociety_team01.parser.\lParser.getChildValues">
<polygon fill="white" stroke="black" points="250.5,-98 250.5,-128 395.5,-128 395.5,-98 250.5,-98"/>
<text text-anchor="start" x="258.5" y="-116" font-family="Helvetica,sans-Serif" font-size="10.00">cellsociety_team01.parser.</text>
<text text-anchor="middle" x="323" y="-105" font-family="Helvetica,sans-Serif" font-size="10.00">Parser.getChildValues</text>
</a>
</g>
</g>
<!-- Node1&#45;&gt;Node2 -->
<g id="edge1" class="edge"><title>Node1&#45;&gt;Node2</title>
<path fill="none" stroke="midnightblue" d="M182.724,-81.2581C206.681,-86.718 232.951,-92.705 256.157,-97.9938"/>
<polygon fill="midnightblue" stroke="midnightblue" points="183.496,-77.8443 172.968,-79.0346 181.94,-84.6693 183.496,-77.8443"/>
</g>
<!-- Node11 -->
<g id="node11" class="node"><title>Node11</title>
<g id="a_node11"><a xlink:href="../../db/d40/classcellsociety__team01_1_1parser_1_1_parser.html#a0ed864ecdf8cf6ee778114ebe5c605ea" target="_top" xlink:title="cellsociety_team01.parser.\lParser.placeDistributedCells">
<polygon fill="white" stroke="black" points="248.5,-49 248.5,-79 397.5,-79 397.5,-49 248.5,-49"/>
<text text-anchor="start" x="256.5" y="-67" font-family="Helvetica,sans-Serif" font-size="10.00">cellsociety_team01.parser.</text>
<text text-anchor="middle" x="323" y="-56" font-family="Helvetica,sans-Serif" font-size="10.00">Parser.placeDistributedCells</text>
</a>
</g>
</g>
<!-- Node1&#45;&gt;Node11 -->
<g id="edge12" class="edge"><title>Node1&#45;&gt;Node11</title>
<path fill="none" stroke="midnightblue" d="M221.826,-64C230.81,-64 239.727,-64 248.322,-64"/>
<polygon fill="midnightblue" stroke="midnightblue" points="221.666,-60.5001 211.666,-64 221.666,-67.5001 221.666,-60.5001"/>
</g>
<!-- Node13 -->
<g id="node13" class="node"><title>Node13</title>
<g id="a_node13"><a xlink:href="../../db/d40/classcellsociety__team01_1_1parser_1_1_parser.html#a6328c0a6b8dab4bc6d860e80739fadca" target="_top" xlink:title="cellsociety_team01.parser.\lParser.placeGivenCells">
<polygon fill="white" stroke="black" points="250.5,-0 250.5,-30 395.5,-30 395.5,-0 250.5,-0"/>
<text text-anchor="start" x="258.5" y="-18" font-family="Helvetica,sans-Serif" font-size="10.00">cellsociety_team01.parser.</text>
<text text-anchor="middle" x="323" y="-7" font-family="Helvetica,sans-Serif" font-size="10.00">Parser.placeGivenCells</text>
</a>
</g>
</g>
<!-- Node1&#45;&gt;Node13 -->
<g id="edge15" class="edge"><title>Node1&#45;&gt;Node13</title>
<path fill="none" stroke="midnightblue" d="M182.724,-46.7419C206.681,-41.282 232.951,-35.295 256.157,-30.0062"/>
<polygon fill="midnightblue" stroke="midnightblue" points="181.94,-43.3307 172.968,-48.9654 183.496,-50.1557 181.94,-43.3307"/>
</g>
<!-- Node3 -->
<g id="node3" class="node"><title>Node3</title>
<g id="a_node3"><a xlink:href="../../db/d40/classcellsociety__team01_1_1parser_1_1_parser.html#ae652e938cb743e128a14b1181392eeda" target="_top" xlink:title="cellsociety_team01.parser.\lParser.parseInfo">
<polygon fill="white" stroke="black" points="434.5,-122 434.5,-152 579.5,-152 579.5,-122 434.5,-122"/>
<text text-anchor="start" x="442.5" y="-140" font-family="Helvetica,sans-Serif" font-size="10.00">cellsociety_team01.parser.</text>
<text text-anchor="middle" x="507" y="-129" font-family="Helvetica,sans-Serif" font-size="10.00">Parser.parseInfo</text>
</a>
</g>
</g>
<!-- Node2&#45;&gt;Node3 -->
<g id="edge2" class="edge"><title>Node2&#45;&gt;Node3</title>
<path fill="none" stroke="midnightblue" d="M405.605,-123.761C415.205,-125.027 424.947,-126.312 434.395,-127.558"/>
<polygon fill="midnightblue" stroke="midnightblue" points="406.042,-120.288 395.67,-122.451 405.127,-127.228 406.042,-120.288"/>
</g>
<!-- Node10 -->
<g id="node10" class="node"><title>Node10</title>
<g id="a_node10"><a xlink:href="../../db/d40/classcellsociety__team01_1_1parser_1_1_parser.html#af56783c2ed199d7cd1925b54e6497642" target="_top" xlink:title="cellsociety_team01.parser.\lParser.parseConfig">
<polygon fill="white" stroke="black" points="434.5,-73 434.5,-103 579.5,-103 579.5,-73 434.5,-73"/>
<text text-anchor="start" x="442.5" y="-91" font-family="Helvetica,sans-Serif" font-size="10.00">cellsociety_team01.parser.</text>
<text text-anchor="middle" x="507" y="-80" font-family="Helvetica,sans-Serif" font-size="10.00">Parser.parseConfig</text>
</a>
</g>
</g>
<!-- Node2&#45;&gt;Node10 -->
<g id="edge10" class="edge"><title>Node2&#45;&gt;Node10</title>
<path fill="none" stroke="midnightblue" d="M405.605,-101.79C415.205,-100.472 424.947,-99.1337 434.395,-97.8358"/>
<polygon fill="midnightblue" stroke="midnightblue" points="405.101,-98.3269 395.67,-103.155 406.053,-105.262 405.101,-98.3269"/>
</g>
<!-- Node4 -->
<g id="node4" class="node"><title>Node4</title>
<g id="a_node4"><a xlink:href="../../db/d40/classcellsociety__team01_1_1parser_1_1_parser.html#a31a05836dde41569f62542b9ea327f95" target="_top" xlink:title="cellsociety_team01.parser.\lParser.parseXmlFile">
<polygon fill="white" stroke="black" points="616.5,-73 616.5,-103 761.5,-103 761.5,-73 616.5,-73"/>
<text text-anchor="start" x="624.5" y="-91" font-family="Helvetica,sans-Serif" font-size="10.00">cellsociety_team01.parser.</text>
<text text-anchor="middle" x="689" y="-80" font-family="Helvetica,sans-Serif" font-size="10.00">Parser.parseXmlFile</text>
</a>
</g>
</g>
<!-- Node3&#45;&gt;Node4 -->
<g id="edge3" class="edge"><title>Node3&#45;&gt;Node4</title>
<path fill="none" stroke="midnightblue" d="M573.198,-119.252C592.707,-113.941 613.902,-108.171 632.708,-103.052"/>
<polygon fill="midnightblue" stroke="midnightblue" points="572.204,-115.895 563.475,-121.899 574.043,-122.649 572.204,-115.895"/>
</g>
<!-- Node5 -->
<g id="node5" class="node"><title>Node5</title>
<g id="a_node5"><a xlink:href="../../db/d10/classcellsociety__team01_1_1modelview_1_1_g_u_i.html#afa183319cc9816a6147cba0869ef82eb" target="_top" xlink:title="cellsociety_team01.modelview.\lGUI.loadXML">
<polygon fill="white" stroke="black" points="798,-98 798,-128 962,-128 962,-98 798,-98"/>
<text text-anchor="start" x="806" y="-116" font-family="Helvetica,sans-Serif" font-size="10.00">cellsociety_team01.modelview.</text>
<text text-anchor="middle" x="880" y="-105" font-family="Helvetica,sans-Serif" font-size="10.00">GUI.loadXML</text>
</a>
</g>
</g>
<!-- Node4&#45;&gt;Node5 -->
<g id="edge4" class="edge"><title>Node4&#45;&gt;Node5</title>
<path fill="none" stroke="midnightblue" d="M771.781,-98.8175C780.42,-99.9604 789.205,-101.122 797.837,-102.264"/>
<polygon fill="midnightblue" stroke="midnightblue" points="772.095,-95.3287 761.722,-97.4871 771.177,-102.268 772.095,-95.3287"/>
</g>
<!-- Node8 -->
<g id="node8" class="node"><title>Node8</title>
<g id="a_node8"><a xlink:href="../../db/d10/classcellsociety__team01_1_1modelview_1_1_g_u_i.html#a5c5e37ae72fe72af97fab2cb9a12b045" target="_top" xlink:title="cellsociety_team01.modelview.\lGUI.reset">
<polygon fill="white" stroke="black" points="798,-49 798,-79 962,-79 962,-49 798,-49"/>
<text text-anchor="start" x="806" y="-67" font-family="Helvetica,sans-Serif" font-size="10.00">cellsociety_team01.modelview.</text>
<text text-anchor="middle" x="880" y="-56" font-family="Helvetica,sans-Serif" font-size="10.00">GUI.reset</text>
</a>
</g>
</g>
<!-- Node4&#45;&gt;Node8 -->
<g id="edge7" class="edge"><title>Node4&#45;&gt;Node8</title>
<path fill="none" stroke="midnightblue" d="M771.781,-77.6152C780.42,-76.518 789.205,-75.4026 797.837,-74.3064"/>
<polygon fill="midnightblue" stroke="midnightblue" points="771.202,-74.1605 761.722,-78.8924 772.084,-81.1047 771.202,-74.1605"/>
</g>
<!-- Node6 -->
<g id="node6" class="node"><title>Node6</title>
<g id="a_node6"><a xlink:href="../../db/d10/classcellsociety__team01_1_1modelview_1_1_g_u_i.html#a4072ce794f518e806e7a912892f1e9da" target="_top" xlink:title="cellsociety_team01.modelview.\lGUI.makeMenuBar">
<polygon fill="white" stroke="black" points="998,-98 998,-128 1162,-128 1162,-98 998,-98"/>
<text text-anchor="start" x="1006" y="-116" font-family="Helvetica,sans-Serif" font-size="10.00">cellsociety_team01.modelview.</text>
<text text-anchor="middle" x="1080" y="-105" font-family="Helvetica,sans-Serif" font-size="10.00">GUI.makeMenuBar</text>
</a>
</g>
</g>
<!-- Node5&#45;&gt;Node6 -->
<g id="edge5" class="edge"><title>Node5&#45;&gt;Node6</title>
<path fill="none" stroke="midnightblue" d="M972.363,-113C980.817,-113 989.346,-113 997.7,-113"/>
<polygon fill="midnightblue" stroke="midnightblue" points="972.106,-109.5 962.105,-113 972.105,-116.5 972.106,-109.5"/>
</g>
<!-- Node7 -->
<g id="node7" class="node"><title>Node7</title>
<g id="a_node7"><a xlink:href="../../db/d10/classcellsociety__team01_1_1modelview_1_1_g_u_i.html#a07bcff60812627c8dfe97f1aadc671e5" target="_top" xlink:title="cellsociety_team01.modelview.\lGUI.GUI">
<polygon fill="white" stroke="black" points="1198,-73 1198,-103 1362,-103 1362,-73 1198,-73"/>
<text text-anchor="start" x="1206" y="-91" font-family="Helvetica,sans-Serif" font-size="10.00">cellsociety_team01.modelview.</text>
<text text-anchor="middle" x="1280" y="-80" font-family="Helvetica,sans-Serif" font-size="10.00">GUI.GUI</text>
</a>
</g>
</g>
<!-- Node6&#45;&gt;Node7 -->
<g id="edge6" class="edge"><title>Node6&#45;&gt;Node7</title>
<path fill="none" stroke="midnightblue" d="M1172.08,-101.499C1180.63,-100.42 1189.25,-99.3316 1197.7,-98.2651"/>
<polygon fill="midnightblue" stroke="midnightblue" points="1171.59,-98.0342 1162.11,-102.759 1172.47,-104.979 1171.59,-98.0342"/>
</g>
<!-- Node9 -->
<g id="node9" class="node"><title>Node9</title>
<g id="a_node9"><a xlink:href="../../db/d10/classcellsociety__team01_1_1modelview_1_1_g_u_i.html#aa924c28ce131195d3f377b18177f6cb9" target="_top" xlink:title="cellsociety_team01.modelview.\lGUI.makeButtonsAndSlider">
<polygon fill="white" stroke="black" points="998,-49 998,-79 1162,-79 1162,-49 998,-49"/>
<text text-anchor="start" x="1006" y="-67" font-family="Helvetica,sans-Serif" font-size="10.00">cellsociety_team01.modelview.</text>
<text text-anchor="middle" x="1080" y="-56" font-family="Helvetica,sans-Serif" font-size="10.00">GUI.makeButtonsAndSlider</text>
</a>
</g>
</g>
<!-- Node8&#45;&gt;Node9 -->
<g id="edge8" class="edge"><title>Node8&#45;&gt;Node9</title>
<path fill="none" stroke="midnightblue" d="M972.363,-64C980.817,-64 989.346,-64 997.7,-64"/>
<polygon fill="midnightblue" stroke="midnightblue" points="972.106,-60.5001 962.105,-64 972.105,-67.5001 972.106,-60.5001"/>
</g>
<!-- Node9&#45;&gt;Node7 -->
<g id="edge9" class="edge"><title>Node9&#45;&gt;Node7</title>
<path fill="none" stroke="midnightblue" d="M1172.08,-75.0406C1180.63,-76.0763 1189.25,-77.1217 1197.7,-78.1455"/>
<polygon fill="midnightblue" stroke="midnightblue" points="1172.45,-71.5598 1162.11,-73.831 1171.61,-78.5089 1172.45,-71.5598"/>
</g>
<!-- Node10&#45;&gt;Node4 -->
<g id="edge11" class="edge"><title>Node10&#45;&gt;Node4</title>
<path fill="none" stroke="midnightblue" d="M589.921,-88C598.722,-88 607.626,-88 616.295,-88"/>
<polygon fill="midnightblue" stroke="midnightblue" points="589.658,-84.5001 579.658,-88 589.658,-91.5001 589.658,-84.5001"/>
</g>
<!-- Node12 -->
<g id="node12" class="node"><title>Node12</title>
<g id="a_node12"><a xlink:href="../../db/d40/classcellsociety__team01_1_1parser_1_1_parser.html#afa693f17f280ab1cf88baf2565c593a9" target="_top" xlink:title="cellsociety_team01.parser.\lParser.parseGrid">
<polygon fill="white" stroke="black" points="434.5,-24 434.5,-54 579.5,-54 579.5,-24 434.5,-24"/>
<text text-anchor="start" x="442.5" y="-42" font-family="Helvetica,sans-Serif" font-size="10.00">cellsociety_team01.parser.</text>
<text text-anchor="middle" x="507" y="-31" font-family="Helvetica,sans-Serif" font-size="10.00">Parser.parseGrid</text>
</a>
</g>
</g>
<!-- Node11&#45;&gt;Node12 -->
<g id="edge13" class="edge"><title>Node11&#45;&gt;Node12</title>
<path fill="none" stroke="midnightblue" d="M407.534,-52.5255C416.473,-51.2977 425.508,-50.0566 434.292,-48.85"/>
<polygon fill="midnightblue" stroke="midnightblue" points="406.932,-49.0752 397.502,-53.9036 407.885,-56.0101 406.932,-49.0752"/>
</g>
<!-- Node12&#45;&gt;Node4 -->
<g id="edge14" class="edge"><title>Node12&#45;&gt;Node4</title>
<path fill="none" stroke="midnightblue" d="M573.198,-56.7485C592.707,-62.0591 613.902,-67.8288 632.708,-72.9484"/>
<polygon fill="midnightblue" stroke="midnightblue" points="574.043,-53.351 563.475,-54.1014 572.204,-60.1053 574.043,-53.351"/>
</g>
<!-- Node13&#45;&gt;Node12 -->
<g id="edge16" class="edge"><title>Node13&#45;&gt;Node12</title>
<path fill="none" stroke="midnightblue" d="M405.605,-25.7611C415.205,-27.0271 424.947,-28.3117 434.395,-29.5576"/>
<polygon fill="midnightblue" stroke="midnightblue" points="406.042,-22.2885 395.67,-24.451 405.127,-29.2284 406.042,-22.2885"/>
</g>
</g>
</svg>
