<?xml version="1.0" encoding="UTF-8" standalone="no"?>
<!DOCTYPE svg PUBLIC "-//W3C//DTD SVG 1.1//EN"
 "http://www.w3.org/Graphics/SVG/1.1/DTD/svg11.dtd">
<!-- Generated by graphviz version 2.36.0 (20140111.2315)
 -->
<!-- Title: cellsociety_team01.rules.ThresholdMovementRule.apply Pages: 1 -->
<svg width="592pt" height="268pt"
 viewBox="0.00 0.00 592.00 268.00" xmlns="http://www.w3.org/2000/svg" xmlns:xlink="http://www.w3.org/1999/xlink">
<g id="graph0" class="graph" transform="scale(1 1) rotate(0) translate(4 264)">
<title>cellsociety_team01.rules.ThresholdMovementRule.apply</title>
<polygon fill="white" stroke="none" points="-4,4 -4,-264 588,-264 588,4 -4,4"/>
<!-- Node1 -->
<g id="node1" class="node"><title>Node1</title>
<polygon fill="#bfbfbf" stroke="black" points="0,-115 0,-145 162,-145 162,-115 0,-115"/>
<text text-anchor="start" x="8" y="-133" font-family="Helvetica,sans-Serif" font-size="10.00">cellsociety_team01.rules.</text>
<text text-anchor="middle" x="81" y="-122" font-family="Helvetica,sans-Serif" font-size="10.00">ThresholdMovementRule.apply</text>
</g>
<!-- Node2 -->
<g id="node2" class="node"><title>Node2</title>
<g id="a_node2"><a xlink:href="../../d2/d25/classcellsociety__team01_1_1_cell_state_1_1_cell.html#aa6bcfad0327a829e6349b8e8ee1b995f" target="_top" xlink:title="cellsociety_team01.CellState.\lCell.getCurState">
<polygon fill="white" stroke="black" points="426,-230 426,-260 584,-260 584,-230 426,-230"/>
<text text-anchor="start" x="434" y="-248" font-family="Helvetica,sans-Serif" font-size="10.00">cellsociety_team01.CellState.</text>
<text text-anchor="middle" x="505" y="-237" font-family="Helvetica,sans-Serif" font-size="10.00">Cell.getCurState</text>
</a>
</g>
</g>
<!-- Node1&#45;&gt;Node2 -->
<g id="edge1" class="edge"><title>Node1&#45;&gt;Node2</title>
<path fill="none" stroke="midnightblue" d="M101.704,-145.278C123.84,-161.603 161.469,-186.893 198,-200 268.618,-225.337 353.304,-236.421 415.665,-241.264"/>
<polygon fill="midnightblue" stroke="midnightblue" points="415.636,-244.771 425.866,-242.016 416.151,-237.79 415.636,-244.771"/>
</g>
<!-- Node3 -->
<g id="node3" class="node"><title>Node3</title>
<g id="a_node3"><a xlink:href="../../d2/d25/classcellsociety__team01_1_1_cell_state_1_1_cell.html#ae0b32ba9532fbce3c09d4200e70eedc4" target="_top" xlink:title="cellsociety_team01.CellState.\lCell.isUpdated">
<polygon fill="white" stroke="black" points="215,-49 215,-79 373,-79 373,-49 215,-49"/>
<text text-anchor="start" x="223" y="-67" font-family="Helvetica,sans-Serif" font-size="10.00">cellsociety_team01.CellState.</text>
<text text-anchor="middle" x="294" y="-56" font-family="Helvetica,sans-Serif" font-size="10.00">Cell.isUpdated</text>
</a>
</g>
</g>
<!-- Node1&#45;&gt;Node3 -->
<g id="edge2" class="edge"><title>Node1&#45;&gt;Node3</title>
<path fill="none" stroke="midnightblue" d="M130.143,-114.941C161.227,-105.218 201.856,-92.5096 234.756,-82.2186"/>
<polygon fill="midnightblue" stroke="midnightblue" points="236.2,-85.4342 244.699,-79.1084 234.11,-78.7534 236.2,-85.4342"/>
</g>
<!-- Node4 -->
<g id="node4" class="node"><title>Node4</title>
<g id="a_node4"><a xlink:href="../../d9/d10/classcellsociety__team01_1_1rules_1_1_movement_rule.html#ad657ff4b10f3a68958de636b90399e0b" target="_top" xlink:title="cellsociety_team01.rules.\lMovementRule.pickCell">
<polygon fill="white" stroke="black" points="225,-0 225,-30 363,-30 363,-0 225,-0"/>
<text text-anchor="start" x="233" y="-18" font-family="Helvetica,sans-Serif" font-size="10.00">cellsociety_team01.rules.</text>
<text text-anchor="middle" x="294" y="-7" font-family="Helvetica,sans-Serif" font-size="10.00">MovementRule.pickCell</text>
</a>
</g>
</g>
<!-- Node1&#45;&gt;Node4 -->
<g id="edge3" class="edge"><title>Node1&#45;&gt;Node4</title>
<path fill="none" stroke="midnightblue" d="M97.0567,-114.71C117.897,-94.4188 157.56,-58.8514 198,-39 203.38,-36.3588 209.08,-33.99 214.907,-31.8686"/>
<polygon fill="midnightblue" stroke="midnightblue" points="216.449,-35.0425 224.804,-28.5278 214.209,-28.4102 216.449,-35.0425"/>
</g>
<!-- Node5 -->
<g id="node5" class="node"><title>Node5</title>
<g id="a_node5"><a xlink:href="../../d2/d25/classcellsociety__team01_1_1_cell_state_1_1_cell.html#a555615a89d24bf27ad94d192d8df8465" target="_top" xlink:title="cellsociety_team01.CellState.\lCell.setNextState">
<polygon fill="white" stroke="black" points="426,-181 426,-211 584,-211 584,-181 426,-181"/>
<text text-anchor="start" x="434" y="-199" font-family="Helvetica,sans-Serif" font-size="10.00">cellsociety_team01.CellState.</text>
<text text-anchor="middle" x="505" y="-188" font-family="Helvetica,sans-Serif" font-size="10.00">Cell.setNextState</text>
</a>
</g>
</g>
<!-- Node1&#45;&gt;Node5 -->
<g id="edge4" class="edge"><title>Node1&#45;&gt;Node5</title>
<path fill="none" stroke="midnightblue" d="M112.667,-145.223C135.579,-155.83 167.987,-169.244 198,-176 270.078,-192.224 353.932,-196.735 415.613,-197.465"/>
<polygon fill="midnightblue" stroke="midnightblue" points="415.673,-200.966 425.703,-197.553 415.734,-193.966 415.673,-200.966"/>
</g>
<!-- Node6 -->
<g id="node6" class="node"><title>Node6</title>
<g id="a_node6"><a xlink:href="../../d2/d25/classcellsociety__team01_1_1_cell_state_1_1_cell.html#a13f1c90701e1d1ab91e47b03eada7a69" target="_top" xlink:title="cellsociety_team01.CellState.\lCell.setUpdated">
<polygon fill="white" stroke="black" points="426,-83 426,-113 584,-113 584,-83 426,-83"/>
<text text-anchor="start" x="434" y="-101" font-family="Helvetica,sans-Serif" font-size="10.00">cellsociety_team01.CellState.</text>
<text text-anchor="middle" x="505" y="-90" font-family="Helvetica,sans-Serif" font-size="10.00">Cell.setUpdated</text>
</a>
</g>
</g>
<!-- Node1&#45;&gt;Node6 -->
<g id="edge5" class="edge"><title>Node1&#45;&gt;Node6</title>
<path fill="none" stroke="midnightblue" d="M162.368,-123.906C234.656,-118.424 340.668,-110.385 415.387,-104.72"/>
<polygon fill="midnightblue" stroke="midnightblue" points="416.008,-108.182 425.715,-103.936 415.479,-101.203 416.008,-108.182"/>
</g>
<!-- Node7 -->
<g id="node7" class="node"><title>Node7</title>
<g id="a_node7"><a xlink:href="../../d9/d10/classcellsociety__team01_1_1rules_1_1_movement_rule.html#ab8ba87bafbedec6706b098ef2adce7fe" target="_top" xlink:title="cellsociety_team01.rules.\lMovementRule.switchStatesUpdated">
<polygon fill="white" stroke="black" points="198,-137 198,-167 390,-167 390,-137 198,-137"/>
<text text-anchor="start" x="206" y="-155" font-family="Helvetica,sans-Serif" font-size="10.00">cellsociety_team01.rules.</text>
<text text-anchor="middle" x="294" y="-144" font-family="Helvetica,sans-Serif" font-size="10.00">MovementRule.switchStatesUpdated</text>
</a>
</g>
</g>
<!-- Node1&#45;&gt;Node7 -->
<g id="edge6" class="edge"><title>Node1&#45;&gt;Node7</title>
<path fill="none" stroke="midnightblue" d="M162.071,-138.349C170.45,-139.222 179.057,-140.12 187.663,-141.017"/>
<polygon fill="midnightblue" stroke="midnightblue" points="187.441,-144.513 197.751,-142.069 188.167,-137.551 187.441,-144.513"/>
</g>
<!-- Node7&#45;&gt;Node2 -->
<g id="edge7" class="edge"><title>Node7&#45;&gt;Node2</title>
<path fill="none" stroke="midnightblue" d="M320.97,-167.146C346.962,-181.902 388.386,-204.341 426,-220 431.467,-222.276 437.219,-224.473 443.018,-226.556"/>
<polygon fill="midnightblue" stroke="midnightblue" points="442.187,-229.973 452.782,-229.949 444.485,-223.36 442.187,-229.973"/>
</g>
<!-- Node7&#45;&gt;Node5 -->
<g id="edge9" class="edge"><title>Node7&#45;&gt;Node5</title>
<path fill="none" stroke="midnightblue" d="M366.341,-167.019C384.484,-170.839 404.115,-174.972 422.713,-178.887"/>
<polygon fill="midnightblue" stroke="midnightblue" points="422.119,-182.339 432.626,-180.974 423.561,-175.489 422.119,-182.339"/>
</g>
<!-- Node7&#45;&gt;Node6 -->
<g id="edge10" class="edge"><title>Node7&#45;&gt;Node6</title>
<path fill="none" stroke="midnightblue" d="M353.218,-136.958C378.815,-130.344 409.055,-122.531 435.709,-115.644"/>
<polygon fill="midnightblue" stroke="midnightblue" points="436.925,-118.945 445.732,-113.055 435.174,-112.168 436.925,-118.945"/>
</g>
<!-- Node8 -->
<g id="node8" class="node"><title>Node8</title>
<g id="a_node8"><a xlink:href="../../d2/d25/classcellsociety__team01_1_1_cell_state_1_1_cell.html#ae02ddaa5eb4249785047ccdf957c712e" target="_top" xlink:title="cellsociety_team01.CellState.\lCell.setCurState">
<polygon fill="white" stroke="black" points="426,-132 426,-162 584,-162 584,-132 426,-132"/>
<text text-anchor="start" x="434" y="-150" font-family="Helvetica,sans-Serif" font-size="10.00">cellsociety_team01.CellState.</text>
<text text-anchor="middle" x="505" y="-139" font-family="Helvetica,sans-Serif" font-size="10.00">Cell.setCurState</text>
</a>
</g>
</g>
<!-- Node7&#45;&gt;Node8 -->
<g id="edge8" class="edge"><title>Node7&#45;&gt;Node8</title>
<path fill="none" stroke="midnightblue" d="M390.021,-149.727C398.53,-149.523 407.124,-149.318 415.575,-149.115"/>
<polygon fill="midnightblue" stroke="midnightblue" points="415.882,-152.609 425.796,-148.871 415.715,-145.611 415.882,-152.609"/>
</g>
</g>
</svg>
