<?xml version="1.0" encoding="UTF-8" standalone="no"?>
<!DOCTYPE svg PUBLIC "-//W3C//DTD SVG 1.1//EN"
 "http://www.w3.org/Graphics/SVG/1.1/DTD/svg11.dtd">
<!-- Generated by graphviz version 2.36.0 (20140111.2315)
 -->
<!-- Title: cellsociety_team01.rules.ReproductionRule.apply Pages: 1 -->
<!--zoomable 479 -->
<svg id="main" version="1.1" xmlns="http://www.w3.org/2000/svg" xmlns:xlink="http://www.w3.org/1999/xlink" xml:space="preserve" onload="init(evt)">
<style type="text/css"><![CDATA[
.edge:hover path { stroke: red; }
.edge:hover polygon { stroke: red; fill: red; }
]]></style>
<script type="text/javascript"><![CDATA[
var edges = document.getElementsByTagName('g');
if (edges && edges.length) {
  for (var i=0;i<edges.length;i++) {
    if (edges[i].id.substr(0,4)=='edge') {
      edges[i].setAttribute('class','edge');
    }
  }
}
]]></script>
        <defs>
                <circle id="rim" cx="0" cy="0" r="7"/>
                <circle id="rim2" cx="0" cy="0" r="3.5"/>
                <g id="zoomPlus">
                        <use xlink:href="#rim" fill="#404040">
                                <set attributeName="fill" to="#808080" begin="zoomplus.mouseover" end="zoomplus.mouseout"/>
                        </use>
                        <path d="M-4,0h8M0,-4v8" fill="none" stroke="white" stroke-width="1.5" pointer-events="none"/>
                </g>
                <g id="zoomMin">
                        <use xlink:href="#rim" fill="#404040">
                                <set attributeName="fill" to="#808080" begin="zoomminus.mouseover" end="zoomminus.mouseout"/>
                        </use>
                        <path d="M-4,0h8" fill="none" stroke="white" stroke-width="1.5" pointer-events="none"/>
                </g>
                <g id="dirArrow">
                        <path fill="none" stroke="white" stroke-width="1.5" d="M0,-3.0v7 M-2.5,-0.5L0,-3.0L2.5,-0.5"/>
                </g>
               <g id="resetDef">
                       <use xlink:href="#rim2" fill="#404040">
                               <set attributeName="fill" to="#808080" begin="reset.mouseover" end="reset.mouseout"/>
                       </use>
               </g>
        </defs>

<script type="text/javascript">
var viewWidth = 534;
var viewHeight = 479;
var sectionId = 'dynsection-2';
</script>
<script xlink:href="../../svgpan.js"/>
<svg id="graph" class="graph">
<g id="viewport">
<title>cellsociety_team01.rules.ReproductionRule.apply</title>
<polygon fill="white" stroke="none" points="-4,4 -4,-475 530,-475 530,4 -4,4"/>
<!-- Node1 -->
<g id="node1" class="node"><title>Node1</title>
<polygon fill="#bfbfbf" stroke="black" points="0,-220 0,-250 138,-250 138,-220 0,-220"/>
<text text-anchor="start" x="8" y="-238" font-family="Helvetica,sans-Serif" font-size="10.00">cellsociety_team01.rules.</text>
<text text-anchor="middle" x="69" y="-227" font-family="Helvetica,sans-Serif" font-size="10.00">ReproductionRule.apply</text>
</g>
<!-- Node2 -->
<g id="node2" class="node"><title>Node2</title>
<g id="a_node2"><a xlink:href="../../d2/d25/classcellsociety__team01_1_1_cell_state_1_1_cell.html#aa6bcfad0327a829e6349b8e8ee1b995f" target="_top" xlink:title="cellsociety_team01.CellState.\lCell.getCurState">
<polygon fill="white" stroke="black" points="174,-441 174,-471 332,-471 332,-441 174,-441"/>
<text text-anchor="start" x="182" y="-459" font-family="Helvetica,sans-Serif" font-size="10.00">cellsociety_team01.CellState.</text>
<text text-anchor="middle" x="253" y="-448" font-family="Helvetica,sans-Serif" font-size="10.00">Cell.getCurState</text>
</a>
</g>
</g>
<!-- Node1&#45;&gt;Node2 -->
<g id="edge1" class="edge"><title>Node1&#45;&gt;Node2</title>
<path fill="none" stroke="midnightblue" d="M73.7412,-250.003C83.6197,-286.519 113.87,-380.706 174,-431 176.004,-432.676 178.123,-434.241 180.329,-435.701"/>
<polygon fill="midnightblue" stroke="midnightblue" points="178.803,-438.862 189.213,-440.831 182.303,-432.8 178.803,-438.862"/>
</g>
<!-- Node3 -->
<g id="node3" class="node"><title>Node3</title>
<g id="a_node3"><a xlink:href="../../d2/d65/classcellsociety__team01_1_1_cell_state_1_1_state.html#a07b2228fbfaefdee4c700c42ee6aef40" target="_top" xlink:title="cellsociety_team01.CellState.\lState.getInt">
<polygon fill="white" stroke="black" points="174,-392 174,-422 332,-422 332,-392 174,-392"/>
<text text-anchor="start" x="182" y="-410" font-family="Helvetica,sans-Serif" font-size="10.00">cellsociety_team01.CellState.</text>
<text text-anchor="middle" x="253" y="-399" font-family="Helvetica,sans-Serif" font-size="10.00">State.getInt</text>
</a>
</g>
</g>
<!-- Node1&#45;&gt;Node3 -->
<g id="edge2" class="edge"><title>Node1&#45;&gt;Node3</title>
<path fill="none" stroke="midnightblue" d="M76.7388,-250.38C90.5832,-280.212 125.088,-346.141 174,-382 176.638,-383.934 179.431,-385.722 182.331,-387.375"/>
<polygon fill="midnightblue" stroke="midnightblue" points="180.8,-390.523 191.3,-391.939 183.975,-384.284 180.8,-390.523"/>
</g>
<!-- Node4 -->
<g id="node4" class="node"><title>Node4</title>
<g id="a_node4"><a xlink:href="../../d2/d65/classcellsociety__team01_1_1_cell_state_1_1_state.html#a01c04377bfa250985593df489a9d807a" target="_top" xlink:title="cellsociety_team01.CellState.\lState.getName">
<polygon fill="white" stroke="black" points="174,-343 174,-373 332,-373 332,-343 174,-343"/>
<text text-anchor="start" x="182" y="-361" font-family="Helvetica,sans-Serif" font-size="10.00">cellsociety_team01.CellState.</text>
<text text-anchor="middle" x="253" y="-350" font-family="Helvetica,sans-Serif" font-size="10.00">State.getName</text>
</a>
</g>
</g>
<!-- Node1&#45;&gt;Node4 -->
<g id="edge3" class="edge"><title>Node1&#45;&gt;Node4</title>
<path fill="none" stroke="midnightblue" d="M82.1853,-250.141C100.144,-271.515 135.751,-310.438 174,-333 177.651,-335.154 181.51,-337.145 185.479,-338.982"/>
<polygon fill="midnightblue" stroke="midnightblue" points="184.319,-342.293 194.891,-342.994 187.064,-335.853 184.319,-342.293"/>
</g>
<!-- Node5 -->
<g id="node5" class="node"><title>Node5</title>
<g id="a_node5"><a xlink:href="../../d2/d25/classcellsociety__team01_1_1_cell_state_1_1_cell.html#a27e65c7283de9ee085111dfe41798a81" target="_top" xlink:title="cellsociety_team01.CellState.\lCell.getNextState">
<polygon fill="white" stroke="black" points="174,-294 174,-324 332,-324 332,-294 174,-294"/>
<text text-anchor="start" x="182" y="-312" font-family="Helvetica,sans-Serif" font-size="10.00">cellsociety_team01.CellState.</text>
<text text-anchor="middle" x="253" y="-301" font-family="Helvetica,sans-Serif" font-size="10.00">Cell.getNextState</text>
</a>
</g>
</g>
<!-- Node1&#45;&gt;Node5 -->
<g id="edge4" class="edge"><title>Node1&#45;&gt;Node5</title>
<path fill="none" stroke="midnightblue" d="M99.5841,-250.201C120.154,-260.455 148.373,-273.905 174,-284 179.817,-286.291 185.937,-288.533 192.085,-290.675"/>
<polygon fill="midnightblue" stroke="midnightblue" points="191.132,-294.048 201.727,-293.951 193.384,-287.42 191.132,-294.048"/>
</g>
<!-- Node6 -->
<g id="node6" class="node"><title>Node6</title>
<g id="a_node6"><a xlink:href="../../d2/d25/classcellsociety__team01_1_1_cell_state_1_1_cell.html#ae0b32ba9532fbce3c09d4200e70eedc4" target="_top" xlink:title="cellsociety_team01.CellState.\lCell.isUpdated">
<polygon fill="white" stroke="black" points="174,-245 174,-275 332,-275 332,-245 174,-245"/>
<text text-anchor="start" x="182" y="-263" font-family="Helvetica,sans-Serif" font-size="10.00">cellsociety_team01.CellState.</text>
<text text-anchor="middle" x="253" y="-252" font-family="Helvetica,sans-Serif" font-size="10.00">Cell.isUpdated</text>
</a>
</g>
</g>
<!-- Node1&#45;&gt;Node6 -->
<g id="edge5" class="edge"><title>Node1&#45;&gt;Node6</title>
<path fill="none" stroke="midnightblue" d="M138.029,-244.345C146.447,-245.501 155.146,-246.696 163.81,-247.886"/>
<polygon fill="midnightblue" stroke="midnightblue" points="163.564,-251.385 173.947,-249.278 164.517,-244.45 163.564,-251.385"/>
</g>
<!-- Node7 -->
<g id="node7" class="node"><title>Node7</title>
<g id="a_node7"><a xlink:href="../../d2/d65/classcellsociety__team01_1_1_cell_state_1_1_state.html#a1d275a76d7d39ec3662c4d6da0e4daed" target="_top" xlink:title="cellsociety_team01.CellState.\lState.newInstanceOf">
<polygon fill="white" stroke="black" points="174,-196 174,-226 332,-226 332,-196 174,-196"/>
<text text-anchor="start" x="182" y="-214" font-family="Helvetica,sans-Serif" font-size="10.00">cellsociety_team01.CellState.</text>
<text text-anchor="middle" x="253" y="-203" font-family="Helvetica,sans-Serif" font-size="10.00">State.newInstanceOf</text>
</a>
</g>
</g>
<!-- Node1&#45;&gt;Node7 -->
<g id="edge6" class="edge"><title>Node1&#45;&gt;Node7</title>
<path fill="none" stroke="midnightblue" d="M138.029,-226.029C146.447,-224.919 155.146,-223.772 163.81,-222.629"/>
<polygon fill="midnightblue" stroke="midnightblue" points="164.491,-226.07 173.947,-221.293 163.575,-219.13 164.491,-226.07"/>
</g>
<!-- Node9 -->
<g id="node9" class="node"><title>Node9</title>
<g id="a_node9"><a xlink:href="../../d9/d10/classcellsociety__team01_1_1rules_1_1_movement_rule.html#ad657ff4b10f3a68958de636b90399e0b" target="_top" xlink:title="cellsociety_team01.rules.\lMovementRule.pickCell">
<polygon fill="white" stroke="black" points="184,-147 184,-177 322,-177 322,-147 184,-147"/>
<text text-anchor="start" x="192" y="-165" font-family="Helvetica,sans-Serif" font-size="10.00">cellsociety_team01.rules.</text>
<text text-anchor="middle" x="253" y="-154" font-family="Helvetica,sans-Serif" font-size="10.00">MovementRule.pickCell</text>
</a>
</g>
</g>
<!-- Node1&#45;&gt;Node9 -->
<g id="edge8" class="edge"><title>Node1&#45;&gt;Node9</title>
<path fill="none" stroke="midnightblue" d="M100.068,-219.935C120.613,-209.936 148.613,-196.884 174,-187 179.826,-184.732 185.952,-182.505 192.103,-180.372"/>
<polygon fill="midnightblue" stroke="midnightblue" points="193.4,-183.629 201.749,-177.107 191.155,-176.998 193.4,-183.629"/>
</g>
<!-- Node10 -->
<g id="node10" class="node"><title>Node10</title>
<g id="a_node10"><a xlink:href="../../d2/d65/classcellsociety__team01_1_1_cell_state_1_1_state.html#a6ce41bf4246dfd7ce7481b7d549c089a" target="_top" xlink:title="cellsociety_team01.CellState.\lState.setInt">
<polygon fill="white" stroke="black" points="174,-98 174,-128 332,-128 332,-98 174,-98"/>
<text text-anchor="start" x="182" y="-116" font-family="Helvetica,sans-Serif" font-size="10.00">cellsociety_team01.CellState.</text>
<text text-anchor="middle" x="253" y="-105" font-family="Helvetica,sans-Serif" font-size="10.00">State.setInt</text>
</a>
</g>
</g>
<!-- Node1&#45;&gt;Node10 -->
<g id="edge9" class="edge"><title>Node1&#45;&gt;Node10</title>
<path fill="none" stroke="midnightblue" d="M82.5228,-219.664C100.619,-198.443 136.09,-160.232 174,-138 177.657,-135.855 181.52,-133.871 185.492,-132.039"/>
<polygon fill="midnightblue" stroke="midnightblue" points="187.075,-135.17 194.909,-128.037 184.337,-128.727 187.075,-135.17"/>
</g>
<!-- Node11 -->
<g id="node11" class="node"><title>Node11</title>
<g id="a_node11"><a xlink:href="../../d2/d25/classcellsociety__team01_1_1_cell_state_1_1_cell.html#a555615a89d24bf27ad94d192d8df8465" target="_top" xlink:title="cellsociety_team01.CellState.\lCell.setNextState">
<polygon fill="white" stroke="black" points="174,-49 174,-79 332,-79 332,-49 174,-49"/>
<text text-anchor="start" x="182" y="-67" font-family="Helvetica,sans-Serif" font-size="10.00">cellsociety_team01.CellState.</text>
<text text-anchor="middle" x="253" y="-56" font-family="Helvetica,sans-Serif" font-size="10.00">Cell.setNextState</text>
</a>
</g>
</g>
<!-- Node1&#45;&gt;Node11 -->
<g id="edge10" class="edge"><title>Node1&#45;&gt;Node11</title>
<path fill="none" stroke="midnightblue" d="M76.7677,-219.725C90.6627,-190.097 125.252,-124.618 174,-89 176.641,-87.0705 179.437,-85.2858 182.339,-83.6357"/>
<polygon fill="midnightblue" stroke="midnightblue" points="183.981,-86.7269 191.313,-79.078 180.812,-80.4857 183.981,-86.7269"/>
</g>
<!-- Node12 -->
<g id="node12" class="node"><title>Node12</title>
<g id="a_node12"><a xlink:href="../../d2/d25/classcellsociety__team01_1_1_cell_state_1_1_cell.html#a13f1c90701e1d1ab91e47b03eada7a69" target="_top" xlink:title="cellsociety_team01.CellState.\lCell.setUpdated">
<polygon fill="white" stroke="black" points="174,-0 174,-30 332,-30 332,-0 174,-0"/>
<text text-anchor="start" x="182" y="-18" font-family="Helvetica,sans-Serif" font-size="10.00">cellsociety_team01.CellState.</text>
<text text-anchor="middle" x="253" y="-7" font-family="Helvetica,sans-Serif" font-size="10.00">Cell.setUpdated</text>
</a>
</g>
</g>
<!-- Node1&#45;&gt;Node12 -->
<g id="edge11" class="edge"><title>Node1&#45;&gt;Node12</title>
<path fill="none" stroke="midnightblue" d="M73.8382,-219.804C83.8454,-183.281 114.204,-89.9079 174,-40 176.006,-38.3257 178.126,-36.7629 180.333,-35.3043"/>
<polygon fill="midnightblue" stroke="midnightblue" points="182.307,-38.2063 189.222,-30.1792 178.811,-32.1421 182.307,-38.2063"/>
</g>
<!-- Node8 -->
<g id="node8" class="node"><title>Node8</title>
<g id="a_node8"><a xlink:href="../../d2/d65/classcellsociety__team01_1_1_cell_state_1_1_state.html#ab47312e71cd79169d18859cdc427b594" target="_top" xlink:title="cellsociety_team01.CellState.\lState.State">
<polygon fill="white" stroke="black" points="368,-196 368,-226 526,-226 526,-196 368,-196"/>
<text text-anchor="start" x="376" y="-214" font-family="Helvetica,sans-Serif" font-size="10.00">cellsociety_team01.CellState.</text>
<text text-anchor="middle" x="447" y="-203" font-family="Helvetica,sans-Serif" font-size="10.00">State.State</text>
</a>
</g>
</g>
<!-- Node7&#45;&gt;Node8 -->
<g id="edge7" class="edge"><title>Node7&#45;&gt;Node8</title>
<path fill="none" stroke="midnightblue" d="M332.094,-211C340.601,-211 349.302,-211 357.918,-211"/>
<polygon fill="midnightblue" stroke="midnightblue" points="357.975,-214.5 367.975,-211 357.975,-207.5 357.975,-214.5"/>
</g>
</g>
</svg>
        <g id="navigator" transform="translate(0 0)" fill="#404254">
                <rect fill="#f2f5e9" fill-opacity="0.5" stroke="#606060" stroke-width=".5" x="0" y="0" width="60" height="60"/>
                <use id="zoomplus" xlink:href="#zoomPlus" x="17" y="9" onmousedown="handleZoom(evt,'in')"/>
                <use id="zoomminus" xlink:href="#zoomMin" x="42" y="9" onmousedown="handleZoom(evt,'out')"/>
                <use id="reset" xlink:href="#resetDef" x="30" y="36" onmousedown="handleReset()"/>
                <g id="arrowUp" xlink:href="#dirArrow" transform="translate(30 24)" onmousedown="handlePan(0,-1)">
                  <use xlink:href="#rim" fill="#404040">
                        <set attributeName="fill" to="#808080" begin="arrowUp.mouseover" end="arrowUp.mouseout"/>
                  </use>
                  <path fill="none" stroke="white" stroke-width="1.5" d="M0,-3.0v7 M-2.5,-0.5L0,-3.0L2.5,-0.5"/>
                </g>
                <g id="arrowRight" xlink:href="#dirArrow" transform="rotate(90) translate(36 -43)" onmousedown="handlePan(1,0)">
                  <use xlink:href="#rim" fill="#404040">
                        <set attributeName="fill" to="#808080" begin="arrowRight.mouseover" end="arrowRight.mouseout"/>
                  </use>
                  <path fill="none" stroke="white" stroke-width="1.5" d="M0,-3.0v7 M-2.5,-0.5L0,-3.0L2.5,-0.5"/>
                </g>
                <g id="arrowDown" xlink:href="#dirArrow" transform="rotate(180) translate(-30 -48)" onmousedown="handlePan(0,1)">
                  <use xlink:href="#rim" fill="#404040">
                        <set attributeName="fill" to="#808080" begin="arrowDown.mouseover" end="arrowDown.mouseout"/>
                  </use>
                  <path fill="none" stroke="white" stroke-width="1.5" d="M0,-3.0v7 M-2.5,-0.5L0,-3.0L2.5,-0.5"/>
                </g>
                <g id="arrowLeft" xlink:href="#dirArrow" transform="rotate(270) translate(-36 17)" onmousedown="handlePan(-1,0)">
                  <use xlink:href="#rim" fill="#404040">
                        <set attributeName="fill" to="#808080" begin="arrowLeft.mouseover" end="arrowLeft.mouseout"/>
                  </use>
                  <path fill="none" stroke="white" stroke-width="1.5" d="M0,-3.0v7 M-2.5,-0.5L0,-3.0L2.5,-0.5"/>
                </g>
        </g>
        <svg viewBox="0 0 15 15" width="100%" height="30px" preserveAspectRatio="xMaxYMin meet">
         <g id="arrow_out" transform="scale(0.3 0.3)">
          <a xlink:href="classcellsociety__team01_1_1rules_1_1_reproduction_rule_ab011923eec073a1756fa121391885c3c_cgraph_org.svg" target="_base">
           <rect id="button" ry="5" rx="5" y="6" x="6" height="38" width="38"
                fill="#f2f5e9" fill-opacity="0.5" stroke="#606060" stroke-width="1.0"/>
           <path id="arrow"
             d="M 11.500037,31.436501 C 11.940474,20.09759 22.043105,11.32322 32.158766,21.979434 L 37.068811,17.246167 C 37.068811,17.246167 37.088388,32 37.088388,32 L 22.160133,31.978069 C 22.160133,31.978069 26.997745,27.140456 26.997745,27.140456 C 18.528582,18.264221 13.291696,25.230495 11.500037,31.436501 z"
             style="fill:#404040;"/>
          </a>
         </g>
        </svg>
</svg>
