<?xml version="1.0" encoding="UTF-8" standalone="no"?>
<!DOCTYPE svg PUBLIC "-//W3C//DTD SVG 1.1//EN"
 "http://www.w3.org/Graphics/SVG/1.1/DTD/svg11.dtd">
<!-- Generated by graphviz version 2.36.0 (20140111.2315)
 -->
<!-- Title: cellsociety_team01.CellState.ColorChangeIntState.newInstanceOf Pages: 1 -->
<svg width="454pt" height="87pt"
 viewBox="0.00 0.00 454.00 87.00" xmlns="http://www.w3.org/2000/svg" xmlns:xlink="http://www.w3.org/1999/xlink">
<g id="graph0" class="graph" transform="scale(1 1) rotate(0) translate(4 83)">
<title>cellsociety_team01.CellState.ColorChangeIntState.newInstanceOf</title>
<polygon fill="white" stroke="none" points="-4,4 -4,-83 450,-83 450,4 -4,4"/>
<!-- Node1 -->
<g id="node1" class="node"><title>Node1</title>
<polygon fill="#bfbfbf" stroke="black" points="0.5,-24 0.5,-54 189.5,-54 189.5,-24 0.5,-24"/>
<text text-anchor="start" x="8.5" y="-42" font-family="Helvetica,sans-Serif" font-size="10.00">cellsociety_team01.CellState.</text>
<text text-anchor="middle" x="95" y="-31" font-family="Helvetica,sans-Serif" font-size="10.00">ColorChangeIntState.newInstanceOf</text>
</g>
<!-- Node2 -->
<g id="node2" class="node"><title>Node2</title>
<g id="a_node2"><a xlink:href="../../db/d14/classcellsociety__team01_1_1_cell_state_1_1_color_change_int_state.html#a7d2f122080c8547705f5723d8bb432ff" target="_top" xlink:title="cellsociety_team01.CellState.\lColorChangeIntState.ColorChangeIntState">
<polygon fill="white" stroke="black" points="226.5,-49 226.5,-79 445.5,-79 445.5,-49 226.5,-49"/>
<text text-anchor="start" x="234.5" y="-67" font-family="Helvetica,sans-Serif" font-size="10.00">cellsociety_team01.CellState.</text>
<text text-anchor="middle" x="336" y="-56" font-family="Helvetica,sans-Serif" font-size="10.00">ColorChangeIntState.ColorChangeIntState</text>
</a>
</g>
</g>
<!-- Node1&#45;&gt;Node2 -->
<g id="edge1" class="edge"><title>Node1&#45;&gt;Node2</title>
<path fill="none" stroke="midnightblue" d="M189.773,-48.8089C198.515,-49.7233 207.449,-50.6579 216.377,-51.5917"/>
<polygon fill="midnightblue" stroke="midnightblue" points="216.133,-55.0853 226.443,-52.6447 216.862,-48.1233 216.133,-55.0853"/>
</g>
<!-- Node3 -->
<g id="node3" class="node"><title>Node3</title>
<g id="a_node3"><a xlink:href="../../d7/d26/classcellsociety__team01_1_1_cell_state_1_1_int_state.html#a5d79b3c9ed6990b2fadff6b7464ff95e" target="_top" xlink:title="cellsociety_team01.CellState.\lIntState.setInt">
<polygon fill="white" stroke="black" points="257,-0 257,-30 415,-30 415,-0 257,-0"/>
<text text-anchor="start" x="265" y="-18" font-family="Helvetica,sans-Serif" font-size="10.00">cellsociety_team01.CellState.</text>
<text text-anchor="middle" x="336" y="-7" font-family="Helvetica,sans-Serif" font-size="10.00">IntState.setInt</text>
</a>
</g>
</g>
<!-- Node1&#45;&gt;Node3 -->
<g id="edge2" class="edge"><title>Node1&#45;&gt;Node3</title>
<path fill="none" stroke="midnightblue" d="M189.773,-29.5834C208.531,-27.6998 228.177,-25.727 246.741,-23.8628"/>
<polygon fill="midnightblue" stroke="midnightblue" points="247.331,-27.3213 256.931,-22.8396 246.631,-20.3563 247.331,-27.3213"/>
</g>
</g>
</svg>
