<?xml version="1.0" encoding="UTF-8" standalone="no"?>
<!DOCTYPE svg PUBLIC "-//W3C//DTD SVG 1.1//EN"
 "http://www.w3.org/Graphics/SVG/1.1/DTD/svg11.dtd">
<!-- Generated by graphviz version 2.36.0 (20140111.2315)
 -->
<!-- Title: cellsociety_team01.CellState.ColorChangeIntState.ColorChangeIntState Pages: 1 -->
<svg width="454pt" height="38pt"
 viewBox="0.00 0.00 454.00 38.00" xmlns="http://www.w3.org/2000/svg" xmlns:xlink="http://www.w3.org/1999/xlink">
<g id="graph0" class="graph" transform="scale(1 1) rotate(0) translate(4 34)">
<title>cellsociety_team01.CellState.ColorChangeIntState.ColorChangeIntState</title>
<polygon fill="white" stroke="none" points="-4,4 -4,-34 450,-34 450,4 -4,4"/>
<!-- Node1 -->
<g id="node1" class="node"><title>Node1</title>
<polygon fill="#bfbfbf" stroke="black" points="0.5,-0 0.5,-30 219.5,-30 219.5,-0 0.5,-0"/>
<text text-anchor="start" x="8.5" y="-18" font-family="Helvetica,sans-Serif" font-size="10.00">cellsociety_team01.CellState.</text>
<text text-anchor="middle" x="110" y="-7" font-family="Helvetica,sans-Serif" font-size="10.00">ColorChangeIntState.ColorChangeIntState</text>
</g>
<!-- Node2 -->
<g id="node2" class="node"><title>Node2</title>
<g id="a_node2"><a xlink:href="../../db/d14/classcellsociety__team01_1_1_cell_state_1_1_color_change_int_state.html#a6e58a383f77b3666ad9e6000cff486de" target="_top" xlink:title="cellsociety_team01.CellState.\lColorChangeIntState.newInstanceOf">
<polygon fill="white" stroke="black" points="256.5,-0 256.5,-30 445.5,-30 445.5,-0 256.5,-0"/>
<text text-anchor="start" x="264.5" y="-18" font-family="Helvetica,sans-Serif" font-size="10.00">cellsociety_team01.CellState.</text>
<text text-anchor="middle" x="351" y="-7" font-family="Helvetica,sans-Serif" font-size="10.00">ColorChangeIntState.newInstanceOf</text>
</a>
</g>
</g>
<!-- Node1&#45;&gt;Node2 -->
<g id="edge1" class="edge"><title>Node1&#45;&gt;Node2</title>
<path fill="none" stroke="midnightblue" d="M229.698,-15C238.6,-15 247.508,-15 256.225,-15"/>
<polygon fill="midnightblue" stroke="midnightblue" points="229.66,-11.5001 219.66,-15 229.66,-18.5001 229.66,-11.5001"/>
</g>
</g>
</svg>
