<?xml version="1.0" encoding="UTF-8" standalone="no"?>
<!DOCTYPE svg PUBLIC "-//W3C//DTD SVG 1.1//EN"
 "http://www.w3.org/Graphics/SVG/1.1/DTD/svg11.dtd">
<!-- Generated by graphviz version 2.36.0 (20140111.2315)
 -->
<!-- Title: cellsociety_team01.modelview.SquareGridModel.getCardinalNeighbors Pages: 1 -->
<svg width="408pt" height="87pt"
 viewBox="0.00 0.00 408.00 87.00" xmlns="http://www.w3.org/2000/svg" xmlns:xlink="http://www.w3.org/1999/xlink">
<g id="graph0" class="graph" transform="scale(1 1) rotate(0) translate(4 83)">
<title>cellsociety_team01.modelview.SquareGridModel.getCardinalNeighbors</title>
<polygon fill="white" stroke="none" points="-4,4 -4,-83 404,-83 404,4 -4,4"/>
<!-- Node1 -->
<g id="node1" class="node"><title>Node1</title>
<polygon fill="#bfbfbf" stroke="black" points="0,-24 0,-54 206,-54 206,-24 0,-24"/>
<text text-anchor="start" x="8" y="-42" font-family="Helvetica,sans-Serif" font-size="10.00">cellsociety_team01.modelview.</text>
<text text-anchor="middle" x="103" y="-31" font-family="Helvetica,sans-Serif" font-size="10.00">SquareGridModel.getCardinalNeighbors</text>
</g>
<!-- Node2 -->
<g id="node2" class="node"><title>Node2</title>
<g id="a_node2"><a xlink:href="../../d2/d25/classcellsociety__team01_1_1_cell_state_1_1_cell.html#a03047fd6184158748f1b354520d8811f" target="_top" xlink:title="cellsociety_team01.CellState.\lCell.getX">
<polygon fill="white" stroke="black" points="242,-49 242,-79 400,-79 400,-49 242,-49"/>
<text text-anchor="start" x="250" y="-67" font-family="Helvetica,sans-Serif" font-size="10.00">cellsociety_team01.CellState.</text>
<text text-anchor="middle" x="321" y="-56" font-family="Helvetica,sans-Serif" font-size="10.00">Cell.getX</text>
</a>
</g>
</g>
<!-- Node1&#45;&gt;Node2 -->
<g id="edge1" class="edge"><title>Node1&#45;&gt;Node2</title>
<path fill="none" stroke="midnightblue" d="M206.307,-50.8411C214.834,-51.8281 223.409,-52.8205 231.818,-53.7938"/>
<polygon fill="midnightblue" stroke="midnightblue" points="231.642,-57.2967 241.978,-54.9697 232.447,-50.3431 231.642,-57.2967"/>
</g>
<!-- Node3 -->
<g id="node3" class="node"><title>Node3</title>
<g id="a_node3"><a xlink:href="../../d2/d25/classcellsociety__team01_1_1_cell_state_1_1_cell.html#ad1f154c2a9a8d34c8e60bdd53df5a70f" target="_top" xlink:title="cellsociety_team01.CellState.\lCell.getY">
<polygon fill="white" stroke="black" points="242,-0 242,-30 400,-30 400,-0 242,-0"/>
<text text-anchor="start" x="250" y="-18" font-family="Helvetica,sans-Serif" font-size="10.00">cellsociety_team01.CellState.</text>
<text text-anchor="middle" x="321" y="-7" font-family="Helvetica,sans-Serif" font-size="10.00">Cell.getY</text>
</a>
</g>
</g>
<!-- Node1&#45;&gt;Node3 -->
<g id="edge2" class="edge"><title>Node1&#45;&gt;Node3</title>
<path fill="none" stroke="midnightblue" d="M206.307,-27.6326C214.834,-26.6851 223.409,-25.7323 231.818,-24.798"/>
<polygon fill="midnightblue" stroke="midnightblue" points="232.426,-28.2521 241.978,-23.6691 231.653,-21.2949 232.426,-28.2521"/>
</g>
</g>
</svg>
