<?xml version="1.0" encoding="UTF-8" standalone="no"?>
<!DOCTYPE svg PUBLIC "-//W3C//DTD SVG 1.1//EN"
 "http://www.w3.org/Graphics/SVG/1.1/DTD/svg11.dtd">
<!-- Generated by graphviz version 2.36.0 (20140111.2315)
 -->
<!-- Title: cellsociety_team01.modelview.TriangularGridModel.getCardinalNeighbors Pages: 1 -->
<svg width="420pt" height="87pt"
 viewBox="0.00 0.00 420.00 87.00" xmlns="http://www.w3.org/2000/svg" xmlns:xlink="http://www.w3.org/1999/xlink">
<g id="graph0" class="graph" transform="scale(1 1) rotate(0) translate(4 83)">
<title>cellsociety_team01.modelview.TriangularGridModel.getCardinalNeighbors</title>
<polygon fill="white" stroke="none" points="-4,4 -4,-83 416,-83 416,4 -4,4"/>
<!-- Node1 -->
<g id="node1" class="node"><title>Node1</title>
<polygon fill="#bfbfbf" stroke="black" points="0.5,-24 0.5,-54 217.5,-54 217.5,-24 0.5,-24"/>
<text text-anchor="start" x="8.5" y="-42" font-family="Helvetica,sans-Serif" font-size="10.00">cellsociety_team01.modelview.</text>
<text text-anchor="middle" x="109" y="-31" font-family="Helvetica,sans-Serif" font-size="10.00">TriangularGridModel.getCardinalNeighbors</text>
</g>
<!-- Node2 -->
<g id="node2" class="node"><title>Node2</title>
<g id="a_node2"><a xlink:href="../../d2/d25/classcellsociety__team01_1_1_cell_state_1_1_cell.html#a03047fd6184158748f1b354520d8811f" target="_top" xlink:title="cellsociety_team01.CellState.\lCell.getX">
<polygon fill="white" stroke="black" points="254,-49 254,-79 412,-79 412,-49 254,-49"/>
<text text-anchor="start" x="262" y="-67" font-family="Helvetica,sans-Serif" font-size="10.00">cellsociety_team01.CellState.</text>
<text text-anchor="middle" x="333" y="-56" font-family="Helvetica,sans-Serif" font-size="10.00">Cell.getX</text>
</a>
</g>
</g>
<!-- Node1&#45;&gt;Node2 -->
<g id="edge1" class="edge"><title>Node1&#45;&gt;Node2</title>
<path fill="none" stroke="midnightblue" d="M217.748,-51.1338C226.483,-52.1174 235.244,-53.104 243.815,-54.0693"/>
<polygon fill="midnightblue" stroke="midnightblue" points="243.449,-57.55 253.777,-55.1912 244.232,-50.594 243.449,-57.55"/>
</g>
<!-- Node3 -->
<g id="node3" class="node"><title>Node3</title>
<g id="a_node3"><a xlink:href="../../d2/d25/classcellsociety__team01_1_1_cell_state_1_1_cell.html#ad1f154c2a9a8d34c8e60bdd53df5a70f" target="_top" xlink:title="cellsociety_team01.CellState.\lCell.getY">
<polygon fill="white" stroke="black" points="254,-0 254,-30 412,-30 412,-0 254,-0"/>
<text text-anchor="start" x="262" y="-18" font-family="Helvetica,sans-Serif" font-size="10.00">cellsociety_team01.CellState.</text>
<text text-anchor="middle" x="333" y="-7" font-family="Helvetica,sans-Serif" font-size="10.00">Cell.getY</text>
</a>
</g>
</g>
<!-- Node1&#45;&gt;Node3 -->
<g id="edge2" class="edge"><title>Node1&#45;&gt;Node3</title>
<path fill="none" stroke="midnightblue" d="M217.748,-27.3515C226.483,-26.4073 235.244,-25.4601 243.815,-24.5335"/>
<polygon fill="midnightblue" stroke="midnightblue" points="244.212,-28.0111 253.777,-23.4565 243.459,-21.0517 244.212,-28.0111"/>
</g>
</g>
</svg>
