<?xml version="1.0" encoding="UTF-8" standalone="no"?>
<!DOCTYPE svg PUBLIC "-//W3C//DTD SVG 1.1//EN"
 "http://www.w3.org/Graphics/SVG/1.1/DTD/svg11.dtd">
<!-- Generated by graphviz version 2.36.0 (20140111.2315)
 -->
<!-- Title: cellsociety_team01.exceptions.SimulationTypeException.handleException Pages: 1 -->
<svg width="1372pt" height="87pt"
 viewBox="0.00 0.00 1372.00 87.00" xmlns="http://www.w3.org/2000/svg" xmlns:xlink="http://www.w3.org/1999/xlink">
<g id="graph0" class="graph" transform="scale(1 1) rotate(0) translate(4 83)">
<title>cellsociety_team01.exceptions.SimulationTypeException.handleException</title>
<polygon fill="white" stroke="none" points="-4,4 -4,-83 1368,-83 1368,4 -4,4"/>
<!-- Node1 -->
<g id="node1" class="node"><title>Node1</title>
<polygon fill="#bfbfbf" stroke="black" points="0.5,-24 0.5,-54 217.5,-54 217.5,-24 0.5,-24"/>
<text text-anchor="start" x="8.5" y="-42" font-family="Helvetica,sans-Serif" font-size="10.00">cellsociety_team01.exceptions.</text>
<text text-anchor="middle" x="109" y="-31" font-family="Helvetica,sans-Serif" font-size="10.00">SimulationTypeException.handleException</text>
</g>
<!-- Node2 -->
<g id="node2" class="node"><title>Node2</title>
<g id="a_node2"><a xlink:href="../../db/d40/classcellsociety__team01_1_1parser_1_1_parser.html#ae1ad97c9cc871329bc9e3df0d9d8d0c6" target="_top" xlink:title="cellsociety_team01.parser.\lParser.makeSim">
<polygon fill="white" stroke="black" points="254.5,-24 254.5,-54 399.5,-54 399.5,-24 254.5,-24"/>
<text text-anchor="start" x="262.5" y="-42" font-family="Helvetica,sans-Serif" font-size="10.00">cellsociety_team01.parser.</text>
<text text-anchor="middle" x="327" y="-31" font-family="Helvetica,sans-Serif" font-size="10.00">Parser.makeSim</text>
</a>
</g>
</g>
<!-- Node1&#45;&gt;Node2 -->
<g id="edge1" class="edge"><title>Node1&#45;&gt;Node2</title>
<path fill="none" stroke="midnightblue" d="M227.9,-39C236.926,-39 245.859,-39 254.444,-39"/>
<polygon fill="midnightblue" stroke="midnightblue" points="227.684,-35.5001 217.684,-39 227.684,-42.5001 227.684,-35.5001"/>
</g>
<!-- Node3 -->
<g id="node3" class="node"><title>Node3</title>
<g id="a_node3"><a xlink:href="../../db/d40/classcellsociety__team01_1_1parser_1_1_parser.html#ae652e938cb743e128a14b1181392eeda" target="_top" xlink:title="cellsociety_team01.parser.\lParser.parseInfo">
<polygon fill="white" stroke="black" points="436.5,-24 436.5,-54 581.5,-54 581.5,-24 436.5,-24"/>
<text text-anchor="start" x="444.5" y="-42" font-family="Helvetica,sans-Serif" font-size="10.00">cellsociety_team01.parser.</text>
<text text-anchor="middle" x="509" y="-31" font-family="Helvetica,sans-Serif" font-size="10.00">Parser.parseInfo</text>
</a>
</g>
</g>
<!-- Node2&#45;&gt;Node3 -->
<g id="edge2" class="edge"><title>Node2&#45;&gt;Node3</title>
<path fill="none" stroke="midnightblue" d="M409.921,-39C418.722,-39 427.626,-39 436.295,-39"/>
<polygon fill="midnightblue" stroke="midnightblue" points="409.658,-35.5001 399.658,-39 409.658,-42.5001 409.658,-35.5001"/>
</g>
<!-- Node4 -->
<g id="node4" class="node"><title>Node4</title>
<g id="a_node4"><a xlink:href="../../db/d40/classcellsociety__team01_1_1parser_1_1_parser.html#a31a05836dde41569f62542b9ea327f95" target="_top" xlink:title="cellsociety_team01.parser.\lParser.parseXmlFile">
<polygon fill="white" stroke="black" points="618.5,-24 618.5,-54 763.5,-54 763.5,-24 618.5,-24"/>
<text text-anchor="start" x="626.5" y="-42" font-family="Helvetica,sans-Serif" font-size="10.00">cellsociety_team01.parser.</text>
<text text-anchor="middle" x="691" y="-31" font-family="Helvetica,sans-Serif" font-size="10.00">Parser.parseXmlFile</text>
</a>
</g>
</g>
<!-- Node3&#45;&gt;Node4 -->
<g id="edge3" class="edge"><title>Node3&#45;&gt;Node4</title>
<path fill="none" stroke="midnightblue" d="M591.921,-39C600.722,-39 609.626,-39 618.295,-39"/>
<polygon fill="midnightblue" stroke="midnightblue" points="591.658,-35.5001 581.658,-39 591.658,-42.5001 591.658,-35.5001"/>
</g>
<!-- Node5 -->
<g id="node5" class="node"><title>Node5</title>
<g id="a_node5"><a xlink:href="../../db/d10/classcellsociety__team01_1_1modelview_1_1_g_u_i.html#afa183319cc9816a6147cba0869ef82eb" target="_top" xlink:title="cellsociety_team01.modelview.\lGUI.loadXML">
<polygon fill="white" stroke="black" points="800,-49 800,-79 964,-79 964,-49 800,-49"/>
<text text-anchor="start" x="808" y="-67" font-family="Helvetica,sans-Serif" font-size="10.00">cellsociety_team01.modelview.</text>
<text text-anchor="middle" x="882" y="-56" font-family="Helvetica,sans-Serif" font-size="10.00">GUI.loadXML</text>
</a>
</g>
</g>
<!-- Node4&#45;&gt;Node5 -->
<g id="edge4" class="edge"><title>Node4&#45;&gt;Node5</title>
<path fill="none" stroke="midnightblue" d="M773.781,-49.8175C782.42,-50.9604 791.205,-52.1223 799.837,-53.2642"/>
<polygon fill="midnightblue" stroke="midnightblue" points="774.095,-46.3287 763.722,-48.4871 773.177,-53.2683 774.095,-46.3287"/>
</g>
<!-- Node8 -->
<g id="node8" class="node"><title>Node8</title>
<g id="a_node8"><a xlink:href="../../db/d10/classcellsociety__team01_1_1modelview_1_1_g_u_i.html#a5c5e37ae72fe72af97fab2cb9a12b045" target="_top" xlink:title="cellsociety_team01.modelview.\lGUI.reset">
<polygon fill="white" stroke="black" points="800,-0 800,-30 964,-30 964,-0 800,-0"/>
<text text-anchor="start" x="808" y="-18" font-family="Helvetica,sans-Serif" font-size="10.00">cellsociety_team01.modelview.</text>
<text text-anchor="middle" x="882" y="-7" font-family="Helvetica,sans-Serif" font-size="10.00">GUI.reset</text>
</a>
</g>
</g>
<!-- Node4&#45;&gt;Node8 -->
<g id="edge7" class="edge"><title>Node4&#45;&gt;Node8</title>
<path fill="none" stroke="midnightblue" d="M773.781,-28.6152C782.42,-27.518 791.205,-26.4026 799.837,-25.3064"/>
<polygon fill="midnightblue" stroke="midnightblue" points="773.202,-25.1605 763.722,-29.8924 774.084,-32.1047 773.202,-25.1605"/>
</g>
<!-- Node6 -->
<g id="node6" class="node"><title>Node6</title>
<g id="a_node6"><a xlink:href="../../db/d10/classcellsociety__team01_1_1modelview_1_1_g_u_i.html#a4072ce794f518e806e7a912892f1e9da" target="_top" xlink:title="cellsociety_team01.modelview.\lGUI.makeMenuBar">
<polygon fill="white" stroke="black" points="1000,-49 1000,-79 1164,-79 1164,-49 1000,-49"/>
<text text-anchor="start" x="1008" y="-67" font-family="Helvetica,sans-Serif" font-size="10.00">cellsociety_team01.modelview.</text>
<text text-anchor="middle" x="1082" y="-56" font-family="Helvetica,sans-Serif" font-size="10.00">GUI.makeMenuBar</text>
</a>
</g>
</g>
<!-- Node5&#45;&gt;Node6 -->
<g id="edge5" class="edge"><title>Node5&#45;&gt;Node6</title>
<path fill="none" stroke="midnightblue" d="M974.363,-64C982.817,-64 991.346,-64 999.7,-64"/>
<polygon fill="midnightblue" stroke="midnightblue" points="974.106,-60.5001 964.105,-64 974.105,-67.5001 974.106,-60.5001"/>
</g>
<!-- Node7 -->
<g id="node7" class="node"><title>Node7</title>
<g id="a_node7"><a xlink:href="../../db/d10/classcellsociety__team01_1_1modelview_1_1_g_u_i.html#a07bcff60812627c8dfe97f1aadc671e5" target="_top" xlink:title="cellsociety_team01.modelview.\lGUI.GUI">
<polygon fill="white" stroke="black" points="1200,-24 1200,-54 1364,-54 1364,-24 1200,-24"/>
<text text-anchor="start" x="1208" y="-42" font-family="Helvetica,sans-Serif" font-size="10.00">cellsociety_team01.modelview.</text>
<text text-anchor="middle" x="1282" y="-31" font-family="Helvetica,sans-Serif" font-size="10.00">GUI.GUI</text>
</a>
</g>
</g>
<!-- Node6&#45;&gt;Node7 -->
<g id="edge6" class="edge"><title>Node6&#45;&gt;Node7</title>
<path fill="none" stroke="midnightblue" d="M1174.08,-52.4994C1182.63,-51.4205 1191.25,-50.3316 1199.7,-49.2651"/>
<polygon fill="midnightblue" stroke="midnightblue" points="1173.59,-49.0342 1164.11,-53.7594 1174.47,-55.9791 1173.59,-49.0342"/>
</g>
<!-- Node9 -->
<g id="node9" class="node"><title>Node9</title>
<g id="a_node9"><a xlink:href="../../db/d10/classcellsociety__team01_1_1modelview_1_1_g_u_i.html#aa924c28ce131195d3f377b18177f6cb9" target="_top" xlink:title="cellsociety_team01.modelview.\lGUI.makeButtonsAndSlider">
<polygon fill="white" stroke="black" points="1000,-0 1000,-30 1164,-30 1164,-0 1000,-0"/>
<text text-anchor="start" x="1008" y="-18" font-family="Helvetica,sans-Serif" font-size="10.00">cellsociety_team01.modelview.</text>
<text text-anchor="middle" x="1082" y="-7" font-family="Helvetica,sans-Serif" font-size="10.00">GUI.makeButtonsAndSlider</text>
</a>
</g>
</g>
<!-- Node8&#45;&gt;Node9 -->
<g id="edge8" class="edge"><title>Node8&#45;&gt;Node9</title>
<path fill="none" stroke="midnightblue" d="M974.363,-15C982.817,-15 991.346,-15 999.7,-15"/>
<polygon fill="midnightblue" stroke="midnightblue" points="974.106,-11.5001 964.105,-15 974.105,-18.5001 974.106,-11.5001"/>
</g>
<!-- Node9&#45;&gt;Node7 -->
<g id="edge9" class="edge"><title>Node9&#45;&gt;Node7</title>
<path fill="none" stroke="midnightblue" d="M1174.08,-26.0406C1182.63,-27.0763 1191.25,-28.1217 1199.7,-29.1455"/>
<polygon fill="midnightblue" stroke="midnightblue" points="1174.45,-22.5598 1164.11,-24.831 1173.61,-29.5089 1174.45,-22.5598"/>
</g>
</g>
</svg>
