<?xml version="1.0" encoding="UTF-8" standalone="no"?>
<!DOCTYPE svg PUBLIC "-//W3C//DTD SVG 1.1//EN"
 "http://www.w3.org/Graphics/SVG/1.1/DTD/svg11.dtd">
<!-- Generated by graphviz version 2.36.0 (20140111.2315)
 -->
<!-- Title: cellsociety_team01.modelview.GUI Pages: 1 -->
<svg width="1040pt" height="659pt"
 viewBox="0.00 0.00 1040.00 659.00" xmlns="http://www.w3.org/2000/svg" xmlns:xlink="http://www.w3.org/1999/xlink">
<g id="graph0" class="graph" transform="scale(1 1) rotate(0) translate(4 655)">
<title>cellsociety_team01.modelview.GUI</title>
<polygon fill="white" stroke="none" points="-4,4 -4,-655 1036,-655 1036,4 -4,4"/>
<!-- Node1 -->
<g id="node1" class="node"><title>Node1</title>
<polygon fill="#bfbfbf" stroke="black" points="322,-195.5 322,-214.5 504,-214.5 504,-195.5 322,-195.5"/>
<text text-anchor="middle" x="413" y="-202.5" font-family="Helvetica,sans-Serif" font-size="10.00">cellsociety_team01.modelview.GUI</text>
</g>
<!-- Node11 -->
<g id="node11" class="node"><title>Node11</title>
<g id="a_node11"><a xlink:href="../../d2/d8b/classcellsociety__team01_1_1modelview_1_1_grid.html" target="_top" xlink:title="cellsociety_team01.modelview.Grid">
<polygon fill="white" stroke="black" points="608,-356.5 608,-375.5 792,-375.5 792,-356.5 608,-356.5"/>
<text text-anchor="middle" x="700" y="-363.5" font-family="Helvetica,sans-Serif" font-size="10.00">cellsociety_team01.modelview.Grid</text>
</a>
</g>
</g>
<!-- Node1&#45;&gt;Node11 -->
<g id="edge13" class="edge"><title>Node1&#45;&gt;Node11</title>
<path fill="none" stroke="#9a32cd" stroke-dasharray="5,2" d="M514.252,-198.145C547.137,-198.14 578.273,-201.314 590,-212 634.741,-252.771 566.795,-302.659 608,-347 611.406,-350.665 615.321,-353.721 619.573,-356.262"/>
<polygon fill="#9a32cd" stroke="#9a32cd" points="513.976,-194.648 504.01,-198.244 514.043,-201.647 513.976,-194.648"/>
<text text-anchor="middle" x="556" y="-215" font-family="Helvetica,sans-Serif" font-size="10.00"> myView</text>
</g>
<!-- Node2 -->
<g id="node2" class="node"><title>Node2</title>
<polygon fill="white" stroke="#bfbfbf" points="73.5,-353.5 73.5,-372.5 118.5,-372.5 118.5,-353.5 73.5,-353.5"/>
<text text-anchor="middle" x="96" y="-360.5" font-family="Helvetica,sans-Serif" font-size="10.00">Stage</text>
</g>
<!-- Node2&#45;&gt;Node1 -->
<g id="edge1" class="edge"><title>Node2&#45;&gt;Node1</title>
<path fill="none" stroke="#9a32cd" stroke-dasharray="5,2" d="M128.471,-370.212C173.738,-378.544 256.944,-385.906 304,-341 342.062,-304.678 285.843,-262.218 322,-224 325.512,-220.288 329.552,-217.207 333.934,-214.657"/>
<polygon fill="#9a32cd" stroke="#9a32cd" points="129.106,-366.77 118.618,-368.271 127.753,-373.638 129.106,-366.77"/>
<text text-anchor="middle" x="257" y="-379" font-family="Helvetica,sans-Serif" font-size="10.00"> myStage</text>
</g>
<!-- Node3 -->
<g id="node3" class="node"><title>Node3</title>
<g id="a_node3"><a xlink:href="../../db/d40/classcellsociety__team01_1_1parser_1_1_parser.html" target="_top" xlink:title="cellsociety_team01.parser.\lParser">
<polygon fill="white" stroke="black" points="886.5,-443 886.5,-473 1031.5,-473 1031.5,-443 886.5,-443"/>
<text text-anchor="start" x="894.5" y="-461" font-family="Helvetica,sans-Serif" font-size="10.00">cellsociety_team01.parser.</text>
<text text-anchor="middle" x="959" y="-450" font-family="Helvetica,sans-Serif" font-size="10.00">Parser</text>
</a>
</g>
</g>
<!-- Node3&#45;&gt;Node1 -->
<g id="edge2" class="edge"><title>Node3&#45;&gt;Node1</title>
<path fill="none" stroke="#9a32cd" stroke-dasharray="5,2" d="M940.896,-434.637C923.811,-412.129 896.112,-377.788 868,-352 763.434,-256.079 727.972,-228.146 590,-195 546.107,-184.455 494.366,-189.381 458.393,-195.451"/>
<polygon fill="#9a32cd" stroke="#9a32cd" points="938.314,-437.028 947.114,-442.928 943.914,-432.828 938.314,-437.028"/>
<text text-anchor="middle" x="700" y="-288" font-family="Helvetica,sans-Serif" font-size="10.00"> parser</text>
</g>
<!-- Node4 -->
<g id="node4" class="node"><title>Node4</title>
<polygon fill="white" stroke="#bfbfbf" points="624,-609.5 624,-650.5 776,-650.5 776,-609.5 624,-609.5"/>
<text text-anchor="start" x="632" y="-638.5" font-family="Helvetica,sans-Serif" font-size="10.00">Map&lt; cellsociety_team01.</text>
<text text-anchor="start" x="632" y="-627.5" font-family="Helvetica,sans-Serif" font-size="10.00">Pair, cellsociety_team01.Cell</text>
<text text-anchor="middle" x="700" y="-616.5" font-family="Helvetica,sans-Serif" font-size="10.00">State.Cell &gt;</text>
</g>
<!-- Node4&#45;&gt;Node3 -->
<g id="edge3" class="edge"><title>Node4&#45;&gt;Node3</title>
<path fill="none" stroke="#9a32cd" stroke-dasharray="5,2" d="M786.299,-624.449C814.193,-619.423 844.115,-610.314 868,-594 913.123,-563.179 941.362,-501.531 952.529,-473.056"/>
<polygon fill="#9a32cd" stroke="#9a32cd" points="785.428,-621.045 776.129,-626.121 786.564,-627.952 785.428,-621.045"/>
<text text-anchor="middle" x="839" y="-621" font-family="Helvetica,sans-Serif" font-size="10.00"> myCells</text>
</g>
<!-- Node5 -->
<g id="node5" class="node"><title>Node5</title>
<g id="a_node5"><a xlink:href="../../da/df7/classcellsociety__team01_1_1simulations_1_1_simulation.html" target="_top" xlink:title="cellsociety_team01.simulations.\lSimulation">
<polygon fill="white" stroke="black" points="328,-558 328,-588 498,-588 498,-558 328,-558"/>
<text text-anchor="start" x="336" y="-576" font-family="Helvetica,sans-Serif" font-size="10.00">cellsociety_team01.simulations.</text>
<text text-anchor="middle" x="413" y="-565" font-family="Helvetica,sans-Serif" font-size="10.00">Simulation</text>
</a>
</g>
</g>
<!-- Node5&#45;&gt;Node3 -->
<g id="edge4" class="edge"><title>Node5&#45;&gt;Node3</title>
<path fill="none" stroke="#9a32cd" stroke-dasharray="5,2" d="M508.339,-581.829C603.21,-586.9 751.692,-584.265 868,-534 899.914,-520.208 929.13,-491.219 945.158,-473.299"/>
<polygon fill="#9a32cd" stroke="#9a32cd" points="508.371,-578.325 498.187,-581.245 507.969,-585.313 508.371,-578.325"/>
<text text-anchor="middle" x="700" y="-586" font-family="Helvetica,sans-Serif" font-size="10.00"> mySim</text>
</g>
<!-- Node5&#45;&gt;Node11 -->
<g id="edge14" class="edge"><title>Node5&#45;&gt;Node11</title>
<path fill="none" stroke="#9a32cd" stroke-dasharray="5,2" d="M508.235,-557.516C542.421,-550.558 576.067,-541.724 590,-532 649.655,-490.366 685.02,-404.593 695.61,-375.725"/>
<polygon fill="#9a32cd" stroke="#9a32cd" points="507.243,-554.144 498.114,-559.521 508.603,-561.011 507.243,-554.144"/>
<text text-anchor="middle" x="556" y="-557" font-family="Helvetica,sans-Serif" font-size="10.00"> simulation</text>
</g>
<!-- Node6 -->
<g id="node6" class="node"><title>Node6</title>
<polygon fill="white" stroke="#bfbfbf" points="49.5,-527.5 49.5,-546.5 142.5,-546.5 142.5,-527.5 49.5,-527.5"/>
<text text-anchor="middle" x="96" y="-534.5" font-family="Helvetica,sans-Serif" font-size="10.00">ResourceBundle</text>
</g>
<!-- Node6&#45;&gt;Node1 -->
<g id="edge20" class="edge"><title>Node6&#45;&gt;Node1</title>
<path fill="none" stroke="#9a32cd" stroke-dasharray="5,2" d="M152.705,-525.147C207.373,-512.302 285.206,-490.35 304,-466 336.948,-423.31 286.503,-264.596 322,-224 325.259,-220.273 329.048,-217.17 333.191,-214.595"/>
<polygon fill="#9a32cd" stroke="#9a32cd" points="151.742,-521.777 142.787,-527.438 153.318,-528.598 151.742,-521.777"/>
<text text-anchor="middle" x="257" y="-512" font-family="Helvetica,sans-Serif" font-size="10.00"> myResources</text>
</g>
<!-- Node6&#45;&gt;Node3 -->
<g id="edge7" class="edge"><title>Node6&#45;&gt;Node3</title>
<path fill="none" stroke="#9a32cd" stroke-dasharray="5,2" d="M152.874,-533.538C194.544,-530.879 252.853,-526.996 304,-523 554.885,-503.397 618.37,-504.82 868,-473 873.971,-472.239 880.153,-471.373 886.35,-470.451"/>
<polygon fill="#9a32cd" stroke="#9a32cd" points="152.411,-530.06 142.653,-534.187 152.854,-537.046 152.411,-530.06"/>
<text text-anchor="middle" x="556" y="-510" font-family="Helvetica,sans-Serif" font-size="10.00"> myDefVals</text>
</g>
<!-- Node6&#45;&gt;Node5 -->
<g id="edge5" class="edge"><title>Node6&#45;&gt;Node5</title>
<path fill="none" stroke="#9a32cd" stroke-dasharray="5,2" d="M152.81,-543.378C201.371,-548.928 272.461,-557.053 327.912,-563.39"/>
<polygon fill="#9a32cd" stroke="#9a32cd" points="153.136,-539.893 142.804,-542.235 152.342,-546.848 153.136,-539.893"/>
<text text-anchor="middle" x="257" y="-563" font-family="Helvetica,sans-Serif" font-size="10.00"> myColorScheme</text>
</g>
<!-- Node7 -->
<g id="node7" class="node"><title>Node7</title>
<polygon fill="white" stroke="#bfbfbf" points="0.5,-583.5 0.5,-624.5 191.5,-624.5 191.5,-583.5 0.5,-583.5"/>
<text text-anchor="start" x="8.5" y="-612.5" font-family="Helvetica,sans-Serif" font-size="10.00">Map&lt; cellsociety_team01.</text>
<text text-anchor="start" x="8.5" y="-601.5" font-family="Helvetica,sans-Serif" font-size="10.00">CellState.State, ArrayList</text>
<text text-anchor="middle" x="96" y="-590.5" font-family="Helvetica,sans-Serif" font-size="10.00">&lt; cellsociety_team01.rules.Rule &gt; &gt;</text>
</g>
<!-- Node7&#45;&gt;Node5 -->
<g id="edge6" class="edge"><title>Node7&#45;&gt;Node5</title>
<path fill="none" stroke="#9a32cd" stroke-dasharray="5,2" d="M201.554,-593.711C242.637,-589.667 289.158,-585.089 327.995,-581.267"/>
<polygon fill="#9a32cd" stroke="#9a32cd" points="201.119,-590.236 191.51,-594.699 201.805,-597.203 201.119,-590.236"/>
<text text-anchor="middle" x="257" y="-595" font-family="Helvetica,sans-Serif" font-size="10.00"> myData</text>
</g>
<!-- Node8 -->
<g id="node8" class="node"><title>Node8</title>
<polygon fill="white" stroke="#bfbfbf" points="672,-318.5 672,-337.5 728,-337.5 728,-318.5 672,-318.5"/>
<text text-anchor="middle" x="700" y="-325.5" font-family="Helvetica,sans-Serif" font-size="10.00">Element</text>
</g>
<!-- Node8&#45;&gt;Node3 -->
<g id="edge8" class="edge"><title>Node8&#45;&gt;Node3</title>
<path fill="none" stroke="#9a32cd" stroke-dasharray="5,2" d="M738.345,-332.95C755.117,-335.89 774.93,-340.375 792,-347 852.115,-370.331 912.506,-418.355 941.037,-442.874"/>
<polygon fill="#9a32cd" stroke="#9a32cd" points="738.781,-329.475 728.347,-331.314 737.65,-336.383 738.781,-329.475"/>
<text text-anchor="middle" x="839" y="-389" font-family="Helvetica,sans-Serif" font-size="10.00"> myRoot</text>
</g>
<!-- Node9 -->
<g id="node9" class="node"><title>Node9</title>
<polygon fill="white" stroke="#bfbfbf" points="80,-455.5 80,-474.5 112,-474.5 112,-455.5 80,-455.5"/>
<text text-anchor="middle" x="96" y="-462.5" font-family="Helvetica,sans-Serif" font-size="10.00">File</text>
</g>
<!-- Node9&#45;&gt;Node1 -->
<g id="edge24" class="edge"><title>Node9&#45;&gt;Node1</title>
<path fill="none" stroke="#9a32cd" stroke-dasharray="5,2" d="M122.24,-462.46C174.72,-456.935 291.77,-443.254 304,-430 335.162,-396.228 291.529,-258.397 322,-224 325.283,-220.294 329.09,-217.208 333.247,-214.644"/>
<polygon fill="#9a32cd" stroke="#9a32cd" points="121.668,-459 112.082,-463.512 122.389,-465.963 121.668,-459"/>
<text text-anchor="middle" x="257" y="-454" font-family="Helvetica,sans-Serif" font-size="10.00"> file</text>
</g>
<!-- Node9&#45;&gt;Node3 -->
<g id="edge9" class="edge"><title>Node9&#45;&gt;Node3</title>
<path fill="none" stroke="#9a32cd" stroke-dasharray="5,2" d="M122.223,-464.913C161.206,-464.772 238.443,-464.459 304,-464 515.759,-462.517 766.079,-460.01 886.388,-458.759"/>
<polygon fill="#9a32cd" stroke="#9a32cd" points="122.052,-461.414 112.064,-464.95 122.077,-468.414 122.052,-461.414"/>
<text text-anchor="middle" x="556" y="-465" font-family="Helvetica,sans-Serif" font-size="10.00"> myFile</text>
</g>
<!-- Node10 -->
<g id="node10" class="node"><title>Node10</title>
<polygon fill="white" stroke="#bfbfbf" points="672,-122.5 672,-141.5 728,-141.5 728,-122.5 672,-122.5"/>
<text text-anchor="middle" x="700" y="-129.5" font-family="Helvetica,sans-Serif" font-size="10.00">Random</text>
</g>
<!-- Node10&#45;&gt;Node3 -->
<g id="edge10" class="edge"><title>Node10&#45;&gt;Node3</title>
<path fill="none" stroke="#9a32cd" stroke-dasharray="5,2" d="M738.202,-125.933C775.431,-122.081 832.181,-122.555 868,-153 913.957,-192.062 947.028,-386.633 955.731,-442.798"/>
<polygon fill="#9a32cd" stroke="#9a32cd" points="737.771,-122.459 728.252,-127.113 738.595,-129.411 737.771,-122.459"/>
<text text-anchor="middle" x="839" y="-156" font-family="Helvetica,sans-Serif" font-size="10.00"> myRandom</text>
</g>
<!-- Node11&#45;&gt;Node1 -->
<g id="edge28" class="edge"><title>Node11&#45;&gt;Node1</title>
<path fill="none" stroke="#9a32cd" stroke-dasharray="5,2" d="M611.907,-350.583C610.548,-349.46 609.244,-348.267 608,-347 577.897,-316.332 618.389,-284.261 590,-252 575.114,-235.083 522.267,-222.437 478.332,-214.548"/>
<polygon fill="#9a32cd" stroke="#9a32cd" points="609.993,-353.515 620.22,-356.282 613.951,-347.741 609.993,-353.515"/>
<text text-anchor="middle" x="556" y="-255" font-family="Helvetica,sans-Serif" font-size="10.00"> myModel</text>
</g>
<!-- Node11&#45;&gt;Node3 -->
<g id="edge11" class="edge"><title>Node11&#45;&gt;Node3</title>
<path fill="none" stroke="#9a32cd" stroke-dasharray="5,2" d="M737.498,-379.066C784.495,-395.889 866.01,-425.07 915.673,-442.848"/>
<polygon fill="#9a32cd" stroke="#9a32cd" points="738.612,-375.747 728.018,-375.672 736.253,-382.337 738.612,-375.747"/>
<text text-anchor="middle" x="839" y="-429" font-family="Helvetica,sans-Serif" font-size="10.00"> myGrid</text>
</g>
<!-- Node12 -->
<g id="node12" class="node"><title>Node12</title>
<polygon fill="white" stroke="#bfbfbf" points="385,-332.5 385,-351.5 441,-351.5 441,-332.5 385,-332.5"/>
<text text-anchor="middle" x="413" y="-339.5" font-family="Helvetica,sans-Serif" font-size="10.00">Timeline</text>
</g>
<!-- Node12&#45;&gt;Node11 -->
<g id="edge12" class="edge"><title>Node12&#45;&gt;Node11</title>
<path fill="none" stroke="#9a32cd" stroke-dasharray="5,2" d="M451.062,-345.121C490.632,-348.453 554.823,-353.859 607.976,-358.335"/>
<polygon fill="#9a32cd" stroke="#9a32cd" points="451.328,-341.631 441.069,-344.279 450.74,-348.606 451.328,-341.631"/>
<text text-anchor="middle" x="556" y="-360" font-family="Helvetica,sans-Serif" font-size="10.00"> myLoop</text>
</g>
<!-- Node13 -->
<g id="node13" class="node"><title>Node13</title>
<g id="a_node13"><a xlink:href="../../da/d73/enumcellsociety__team01_1_1modelview_1_1_grid_1_1grid_shape_types.html" target="_top" xlink:title="cellsociety_team01.modelview.\lGrid.gridShapeTypes">
<polygon fill="white" stroke="black" points="331,-234 331,-264 495,-264 495,-234 331,-234"/>
<text text-anchor="start" x="339" y="-252" font-family="Helvetica,sans-Serif" font-size="10.00">cellsociety_team01.modelview.</text>
<text text-anchor="middle" x="413" y="-241" font-family="Helvetica,sans-Serif" font-size="10.00">Grid.gridShapeTypes</text>
</a>
</g>
</g>
<!-- Node13&#45;&gt;Node11 -->
<g id="edge15" class="edge"><title>Node13&#45;&gt;Node11</title>
<path fill="none" stroke="#9a32cd" stroke-dasharray="5,2" d="M504.848,-260.281C535.07,-268.027 566.88,-281.067 590,-303 605.329,-317.542 591.761,-333.483 608,-347 612.59,-350.82 617.754,-353.933 623.23,-356.463"/>
<polygon fill="#9a32cd" stroke="#9a32cd" points="505.644,-256.873 495.104,-257.947 504.014,-263.68 505.644,-256.873"/>
<text text-anchor="middle" x="556" y="-306" font-family="Helvetica,sans-Serif" font-size="10.00"> myCellShape</text>
</g>
<!-- Node14 -->
<g id="node14" class="node"><title>Node14</title>
<polygon fill="white" stroke="#bfbfbf" points="344.5,-283 344.5,-313 481.5,-313 481.5,-283 344.5,-283"/>
<text text-anchor="start" x="352.5" y="-301" font-family="Helvetica,sans-Serif" font-size="10.00">ArrayList&lt; cellsociety</text>
<text text-anchor="middle" x="413" y="-290" font-family="Helvetica,sans-Serif" font-size="10.00">_team01.CellState.Cell &gt;</text>
</g>
<!-- Node14&#45;&gt;Node11 -->
<g id="edge16" class="edge"><title>Node14&#45;&gt;Node11</title>
<path fill="none" stroke="#9a32cd" stroke-dasharray="5,2" d="M491.705,-310.197C522.855,-316.372 558.711,-325.13 590,-337 598.557,-340.246 599.424,-343.806 608,-347 618.134,-350.773 629.196,-353.873 640.007,-356.393"/>
<polygon fill="#9a32cd" stroke="#9a32cd" points="492.25,-306.738 481.769,-308.282 490.926,-313.612 492.25,-306.738"/>
<text text-anchor="middle" x="556" y="-340" font-family="Helvetica,sans-Serif" font-size="10.00"> cells</text>
</g>
<!-- Node15 -->
<g id="node15" class="node"><title>Node15</title>
<g id="a_node15"><a xlink:href="../../d7/de1/classcellsociety__team01_1_1modelview_1_1_grid_model.html" target="_top" xlink:title="cellsociety_team01.modelview.\lGridModel">
<polygon fill="white" stroke="black" points="331,-420 331,-450 495,-450 495,-420 331,-420"/>
<text text-anchor="start" x="339" y="-438" font-family="Helvetica,sans-Serif" font-size="10.00">cellsociety_team01.modelview.</text>
<text text-anchor="middle" x="413" y="-427" font-family="Helvetica,sans-Serif" font-size="10.00">GridModel</text>
</a>
</g>
</g>
<!-- Node15&#45;&gt;Node11 -->
<g id="edge17" class="edge"><title>Node15&#45;&gt;Node11</title>
<path fill="none" stroke="#9a32cd" stroke-dasharray="5,2" d="M489.996,-417.691C521.042,-410.517 557.278,-402.013 590,-394 614.291,-388.052 641.541,-381.052 662.718,-375.539"/>
<polygon fill="#9a32cd" stroke="#9a32cd" points="489.067,-414.313 480.109,-419.971 490.64,-421.134 489.067,-414.313"/>
<text text-anchor="middle" x="556" y="-414" font-family="Helvetica,sans-Serif" font-size="10.00"> myGridModel</text>
</g>
<!-- Node16 -->
<g id="node16" class="node"><title>Node16</title>
<g id="a_node16"><a xlink:href="../../d4/df6/classcellsociety__team01_1_1modelview_1_1_refine_neighbors_algorithm.html" target="_top" xlink:title="cellsociety_team01.modelview.\lRefineNeighborsAlgorithm">
<polygon fill="white" stroke="black" points="14,-392 14,-422 178,-422 178,-392 14,-392"/>
<text text-anchor="start" x="22" y="-410" font-family="Helvetica,sans-Serif" font-size="10.00">cellsociety_team01.modelview.</text>
<text text-anchor="middle" x="96" y="-399" font-family="Helvetica,sans-Serif" font-size="10.00">RefineNeighborsAlgorithm</text>
</a>
</g>
</g>
<!-- Node16&#45;&gt;Node15 -->
<g id="edge18" class="edge"><title>Node16&#45;&gt;Node15</title>
<path fill="none" stroke="#9a32cd" stroke-dasharray="5,2" d="M188.428,-402.734C224.554,-402.275 266.354,-403.273 304,-408 323.368,-410.432 344.264,-415.147 362.468,-419.966"/>
<polygon fill="#9a32cd" stroke="#9a32cd" points="188.337,-399.235 178.397,-402.9 188.453,-406.234 188.337,-399.235"/>
<text text-anchor="middle" x="257" y="-422" font-family="Helvetica,sans-Serif" font-size="10.00"> myRefineAlgorithm</text>
<text text-anchor="middle" x="257" y="-411" font-family="Helvetica,sans-Serif" font-size="10.00">rna</text>
</g>
<!-- Node17 -->
<g id="node17" class="node"><title>Node17</title>
<g id="a_node17"><a xlink:href="../../dd/d91/enumcellsociety__team01_1_1modelview_1_1_grid_1_1grid_edge_types.html" target="_top" xlink:title="cellsociety_team01.modelview.\lGrid.gridEdgeTypes">
<polygon fill="white" stroke="black" points="331,-371 331,-401 495,-401 495,-371 331,-371"/>
<text text-anchor="start" x="339" y="-389" font-family="Helvetica,sans-Serif" font-size="10.00">cellsociety_team01.modelview.</text>
<text text-anchor="middle" x="413" y="-378" font-family="Helvetica,sans-Serif" font-size="10.00">Grid.gridEdgeTypes</text>
</a>
</g>
</g>
<!-- Node17&#45;&gt;Node11 -->
<g id="edge19" class="edge"><title>Node17&#45;&gt;Node11</title>
<path fill="none" stroke="#9a32cd" stroke-dasharray="5,2" d="M505.32,-379.592C538.105,-377.291 575.059,-374.698 607.831,-372.398"/>
<polygon fill="#9a32cd" stroke="#9a32cd" points="505.019,-376.104 495.288,-380.296 505.509,-383.087 505.019,-376.104"/>
<text text-anchor="middle" x="556" y="-382" font-family="Helvetica,sans-Serif" font-size="10.00"> myEdgeType</text>
</g>
<!-- Node18 -->
<g id="node18" class="node"><title>Node18</title>
<polygon fill="white" stroke="#bfbfbf" points="68,-299.5 68,-318.5 124,-318.5 124,-299.5 68,-299.5"/>
<text text-anchor="middle" x="96" y="-306.5" font-family="Helvetica,sans-Serif" font-size="10.00">TextField</text>
</g>
<!-- Node18&#45;&gt;Node1 -->
<g id="edge21" class="edge"><title>Node18&#45;&gt;Node1</title>
<path fill="none" stroke="#9a32cd" stroke-dasharray="5,2" d="M134.639,-309.243C187.249,-308.802 279.129,-304.938 304,-284 325.298,-266.069 301.51,-242.849 322,-224 326.114,-220.216 330.785,-217.111 335.784,-214.571"/>
<polygon fill="#9a32cd" stroke="#9a32cd" points="134.343,-305.744 124.359,-309.29 134.375,-312.744 134.343,-305.744"/>
<text text-anchor="middle" x="257" y="-332" font-family="Helvetica,sans-Serif" font-size="10.00"> textField1</text>
<text text-anchor="middle" x="257" y="-321" font-family="Helvetica,sans-Serif" font-size="10.00">textField2</text>
<text text-anchor="middle" x="257" y="-310" font-family="Helvetica,sans-Serif" font-size="10.00">textField3</text>
</g>
<!-- Node19 -->
<g id="node19" class="node"><title>Node19</title>
<polygon fill="white" stroke="#bfbfbf" points="74,-261.5 74,-280.5 118,-280.5 118,-261.5 74,-261.5"/>
<text text-anchor="middle" x="96" y="-268.5" font-family="Helvetica,sans-Serif" font-size="10.00">Slider</text>
</g>
<!-- Node19&#45;&gt;Node1 -->
<g id="edge22" class="edge"><title>Node19&#45;&gt;Node1</title>
<path fill="none" stroke="#9a32cd" stroke-dasharray="5,2" d="M128.301,-271.202C178.711,-270.999 275.154,-268.274 304,-251 316.373,-243.591 310.06,-232.089 322,-224 327.685,-220.149 334,-217.055 340.572,-214.573"/>
<polygon fill="#9a32cd" stroke="#9a32cd" points="128.28,-267.702 118.283,-271.211 128.286,-274.702 128.28,-267.702"/>
<text text-anchor="middle" x="257" y="-272" font-family="Helvetica,sans-Serif" font-size="10.00"> slider</text>
</g>
<!-- Node20 -->
<g id="node20" class="node"><title>Node20</title>
<polygon fill="white" stroke="#bfbfbf" points="71.5,-202.5 71.5,-221.5 120.5,-221.5 120.5,-202.5 71.5,-202.5"/>
<text text-anchor="middle" x="96" y="-209.5" font-family="Helvetica,sans-Serif" font-size="10.00">Button</text>
</g>
<!-- Node20&#45;&gt;Node1 -->
<g id="edge23" class="edge"><title>Node20&#45;&gt;Node1</title>
<path fill="none" stroke="#9a32cd" stroke-dasharray="5,2" d="M130.843,-210.199C153.287,-209.079 183.394,-207.72 210,-207 246.636,-206.008 287.021,-205.493 321.99,-205.23"/>
<polygon fill="#9a32cd" stroke="#9a32cd" points="130.61,-206.706 120.8,-210.709 130.965,-213.697 130.61,-206.706"/>
<text text-anchor="middle" x="257" y="-243" font-family="Helvetica,sans-Serif" font-size="10.00"> resetButton</text>
<text text-anchor="middle" x="257" y="-232" font-family="Helvetica,sans-Serif" font-size="10.00">stepButton</text>
<text text-anchor="middle" x="257" y="-221" font-family="Helvetica,sans-Serif" font-size="10.00">pauseButton</text>
<text text-anchor="middle" x="257" y="-210" font-family="Helvetica,sans-Serif" font-size="10.00">playButton</text>
</g>
<!-- Node21 -->
<g id="node21" class="node"><title>Node21</title>
<polygon fill="white" stroke="#bfbfbf" points="72.5,-164.5 72.5,-183.5 119.5,-183.5 119.5,-164.5 72.5,-164.5"/>
<text text-anchor="middle" x="96" y="-171.5" font-family="Helvetica,sans-Serif" font-size="10.00">Scene</text>
</g>
<!-- Node21&#45;&gt;Node1 -->
<g id="edge25" class="edge"><title>Node21&#45;&gt;Node1</title>
<path fill="none" stroke="#9a32cd" stroke-dasharray="5,2" d="M129.884,-176.222C170.753,-179.093 242.61,-184.504 304,-191 316.409,-192.313 329.598,-193.88 342.341,-195.482"/>
<polygon fill="#9a32cd" stroke="#9a32cd" points="129.918,-172.716 119.699,-175.514 129.432,-179.699 129.918,-172.716"/>
<text text-anchor="middle" x="257" y="-194" font-family="Helvetica,sans-Serif" font-size="10.00"> myScene</text>
</g>
<!-- Node22 -->
<g id="node22" class="node"><title>Node22</title>
<polygon fill="white" stroke="#bfbfbf" points="62,-126.5 62,-145.5 130,-145.5 130,-126.5 62,-126.5"/>
<text text-anchor="middle" x="96" y="-133.5" font-family="Helvetica,sans-Serif" font-size="10.00">Dimension</text>
</g>
<!-- Node22&#45;&gt;Node1 -->
<g id="edge26" class="edge"><title>Node22&#45;&gt;Node1</title>
<path fill="none" stroke="#9a32cd" stroke-dasharray="5,2" d="M140.542,-140.465C182.738,-145.322 248.342,-154.278 304,-168 333.443,-175.259 366.269,-187.057 387.918,-195.376"/>
<polygon fill="#9a32cd" stroke="#9a32cd" points="140.668,-136.957 130.339,-139.318 139.886,-143.913 140.668,-136.957"/>
<text text-anchor="middle" x="257" y="-171" font-family="Helvetica,sans-Serif" font-size="10.00"> DEFAULT_SIZE</text>
</g>
<!-- Node23 -->
<g id="node23" class="node"><title>Node23</title>
<g id="a_node23"><a xlink:href="../../d3/d6b/interfacecellsociety__team01_1_1modelview_1_1_grid_view.html" target="_top" xlink:title="cellsociety_team01.modelview.\lGridView">
<polygon fill="white" stroke="black" points="14,-77 14,-107 178,-107 178,-77 14,-77"/>
<text text-anchor="start" x="22" y="-95" font-family="Helvetica,sans-Serif" font-size="10.00">cellsociety_team01.modelview.</text>
<text text-anchor="middle" x="96" y="-84" font-family="Helvetica,sans-Serif" font-size="10.00">GridView</text>
</a>
</g>
</g>
<!-- Node23&#45;&gt;Node1 -->
<g id="edge27" class="edge"><title>Node23&#45;&gt;Node1</title>
<path fill="none" stroke="#9a32cd" stroke-dasharray="5,2" d="M188.361,-104.138C225.177,-110.882 267.488,-121.035 304,-136 341.882,-151.526 381.101,-180.379 400.166,-195.381"/>
<polygon fill="#9a32cd" stroke="#9a32cd" points="188.589,-100.624 178.131,-102.325 187.367,-107.516 188.589,-100.624"/>
<text text-anchor="middle" x="257" y="-139" font-family="Helvetica,sans-Serif" font-size="10.00"> gridView</text>
</g>
<!-- Node24 -->
<g id="node24" class="node"><title>Node24</title>
<polygon fill="white" stroke="#bfbfbf" points="70,-38.5 70,-57.5 122,-57.5 122,-38.5 70,-38.5"/>
<text text-anchor="middle" x="96" y="-45.5" font-family="Helvetica,sans-Serif" font-size="10.00">Canvas</text>
</g>
<!-- Node24&#45;&gt;Node1 -->
<g id="edge29" class="edge"><title>Node24&#45;&gt;Node1</title>
<path fill="none" stroke="#9a32cd" stroke-dasharray="5,2" d="M132.288,-49.7574C175.399,-53.2557 249.335,-63.7171 304,-95 350.457,-121.586 390.243,-173.77 405.426,-195.328"/>
<polygon fill="#9a32cd" stroke="#9a32cd" points="132.509,-46.2643 122.281,-49.0263 131.999,-53.2457 132.509,-46.2643"/>
<text text-anchor="middle" x="257" y="-98" font-family="Helvetica,sans-Serif" font-size="10.00"> gridCanvas</text>
</g>
<!-- Node25 -->
<g id="node25" class="node"><title>Node25</title>
<polygon fill="white" stroke="#bfbfbf" points="60,-0.5 60,-19.5 132,-19.5 132,-0.5 60,-0.5"/>
<text text-anchor="middle" x="96" y="-7.5" font-family="Helvetica,sans-Serif" font-size="10.00">BorderPane</text>
</g>
<!-- Node25&#45;&gt;Node1 -->
<g id="edge30" class="edge"><title>Node25&#45;&gt;Node1</title>
<path fill="none" stroke="#9a32cd" stroke-dasharray="5,2" d="M142.445,-8.33223C187.01,-8.82068 255.186,-15.4328 304,-47 362.592,-84.89 397.731,-166.937 408.467,-195.199"/>
<polygon fill="#9a32cd" stroke="#9a32cd" points="142.207,-4.83211 132.204,-8.32312 142.201,-11.8321 142.207,-4.83211"/>
<text text-anchor="middle" x="257" y="-50" font-family="Helvetica,sans-Serif" font-size="10.00"> myRoot</text>
</g>
</g>
</svg>
