<?xml version="1.0" encoding="UTF-8" standalone="no"?>
<!DOCTYPE svg PUBLIC "-//W3C//DTD SVG 1.1//EN"
 "http://www.w3.org/Graphics/SVG/1.1/DTD/svg11.dtd">
<!-- Generated by graphviz version 2.36.0 (20140111.2315)
 -->
<!-- Title: cellsociety_team01.rules.averageUpdateRule.apply Pages: 1 -->
<svg width="380pt" height="234pt"
 viewBox="0.00 0.00 380.00 234.00" xmlns="http://www.w3.org/2000/svg" xmlns:xlink="http://www.w3.org/1999/xlink">
<g id="graph0" class="graph" transform="scale(1 1) rotate(0) translate(4 230)">
<title>cellsociety_team01.rules.averageUpdateRule.apply</title>
<polygon fill="white" stroke="none" points="-4,4 -4,-230 376,-230 376,4 -4,4"/>
<!-- Node1 -->
<g id="node1" class="node"><title>Node1</title>
<polygon fill="#bfbfbf" stroke="black" points="0.5,-98 0.5,-128 177.5,-128 177.5,-98 0.5,-98"/>
<text text-anchor="start" x="8.5" y="-116" font-family="Helvetica,sans-Serif" font-size="10.00">cellsociety_team01.rules.average</text>
<text text-anchor="middle" x="89" y="-105" font-family="Helvetica,sans-Serif" font-size="10.00">UpdateRule.apply</text>
</g>
<!-- Node2 -->
<g id="node2" class="node"><title>Node2</title>
<g id="a_node2"><a xlink:href="../../d2/d25/classcellsociety__team01_1_1_cell_state_1_1_cell.html#aa6bcfad0327a829e6349b8e8ee1b995f" target="_top" xlink:title="cellsociety_team01.CellState.\lCell.getCurState">
<polygon fill="white" stroke="black" points="214,-196 214,-226 372,-226 372,-196 214,-196"/>
<text text-anchor="start" x="222" y="-214" font-family="Helvetica,sans-Serif" font-size="10.00">cellsociety_team01.CellState.</text>
<text text-anchor="middle" x="293" y="-203" font-family="Helvetica,sans-Serif" font-size="10.00">Cell.getCurState</text>
</a>
</g>
</g>
<!-- Node1&#45;&gt;Node2 -->
<g id="edge1" class="edge"><title>Node1&#45;&gt;Node2</title>
<path fill="none" stroke="midnightblue" d="M112.047,-128.019C136.236,-144.003 176.61,-169.252 214,-186 219.029,-188.253 224.323,-190.396 229.685,-192.412"/>
<polygon fill="midnightblue" stroke="midnightblue" points="228.777,-195.804 239.372,-195.898 231.148,-189.218 228.777,-195.804"/>
</g>
<!-- Node3 -->
<g id="node3" class="node"><title>Node3</title>
<g id="a_node3"><a xlink:href="../../d2/d25/classcellsociety__team01_1_1_cell_state_1_1_cell.html#a27e65c7283de9ee085111dfe41798a81" target="_top" xlink:title="cellsociety_team01.CellState.\lCell.getNextState">
<polygon fill="white" stroke="black" points="214,-147 214,-177 372,-177 372,-147 214,-147"/>
<text text-anchor="start" x="222" y="-165" font-family="Helvetica,sans-Serif" font-size="10.00">cellsociety_team01.CellState.</text>
<text text-anchor="middle" x="293" y="-154" font-family="Helvetica,sans-Serif" font-size="10.00">Cell.getNextState</text>
</a>
</g>
</g>
<!-- Node1&#45;&gt;Node3 -->
<g id="edge2" class="edge"><title>Node1&#45;&gt;Node3</title>
<path fill="none" stroke="midnightblue" d="M151.979,-128.035C173.599,-133.279 198.037,-139.207 220.375,-144.626"/>
<polygon fill="midnightblue" stroke="midnightblue" points="219.594,-148.038 230.138,-146.994 221.245,-141.235 219.594,-148.038"/>
</g>
<!-- Node4 -->
<g id="node4" class="node"><title>Node4</title>
<g id="a_node4"><a xlink:href="../../d2/d25/classcellsociety__team01_1_1_cell_state_1_1_cell.html#ae0b32ba9532fbce3c09d4200e70eedc4" target="_top" xlink:title="cellsociety_team01.CellState.\lCell.isUpdated">
<polygon fill="white" stroke="black" points="214,-98 214,-128 372,-128 372,-98 214,-98"/>
<text text-anchor="start" x="222" y="-116" font-family="Helvetica,sans-Serif" font-size="10.00">cellsociety_team01.CellState.</text>
<text text-anchor="middle" x="293" y="-105" font-family="Helvetica,sans-Serif" font-size="10.00">Cell.isUpdated</text>
</a>
</g>
</g>
<!-- Node1&#45;&gt;Node4 -->
<g id="edge3" class="edge"><title>Node1&#45;&gt;Node4</title>
<path fill="none" stroke="midnightblue" d="M177.719,-113C186.366,-113 195.146,-113 203.799,-113"/>
<polygon fill="midnightblue" stroke="midnightblue" points="203.882,-116.5 213.882,-113 203.882,-109.5 203.882,-116.5"/>
</g>
<!-- Node5 -->
<g id="node5" class="node"><title>Node5</title>
<g id="a_node5"><a xlink:href="../../d2/d65/classcellsociety__team01_1_1_cell_state_1_1_state.html#a6ce41bf4246dfd7ce7481b7d549c089a" target="_top" xlink:title="cellsociety_team01.CellState.\lState.setInt">
<polygon fill="white" stroke="black" points="214,-49 214,-79 372,-79 372,-49 214,-49"/>
<text text-anchor="start" x="222" y="-67" font-family="Helvetica,sans-Serif" font-size="10.00">cellsociety_team01.CellState.</text>
<text text-anchor="middle" x="293" y="-56" font-family="Helvetica,sans-Serif" font-size="10.00">State.setInt</text>
</a>
</g>
</g>
<!-- Node1&#45;&gt;Node5 -->
<g id="edge4" class="edge"><title>Node1&#45;&gt;Node5</title>
<path fill="none" stroke="midnightblue" d="M151.979,-97.9654C173.599,-92.7211 198.037,-86.7931 220.375,-81.3745"/>
<polygon fill="midnightblue" stroke="midnightblue" points="221.245,-84.765 230.138,-79.0062 219.594,-77.9623 221.245,-84.765"/>
</g>
<!-- Node6 -->
<g id="node6" class="node"><title>Node6</title>
<g id="a_node6"><a xlink:href="../../d2/d25/classcellsociety__team01_1_1_cell_state_1_1_cell.html#a555615a89d24bf27ad94d192d8df8465" target="_top" xlink:title="cellsociety_team01.CellState.\lCell.setNextState">
<polygon fill="white" stroke="black" points="214,-0 214,-30 372,-30 372,-0 214,-0"/>
<text text-anchor="start" x="222" y="-18" font-family="Helvetica,sans-Serif" font-size="10.00">cellsociety_team01.CellState.</text>
<text text-anchor="middle" x="293" y="-7" font-family="Helvetica,sans-Serif" font-size="10.00">Cell.setNextState</text>
</a>
</g>
</g>
<!-- Node1&#45;&gt;Node6 -->
<g id="edge5" class="edge"><title>Node1&#45;&gt;Node6</title>
<path fill="none" stroke="midnightblue" d="M112.047,-97.9813C136.236,-81.9966 176.61,-56.7476 214,-40 219.029,-37.7475 224.323,-35.604 229.685,-33.5883"/>
<polygon fill="midnightblue" stroke="midnightblue" points="231.148,-36.7818 239.372,-30.1019 228.777,-30.1955 231.148,-36.7818"/>
</g>
</g>
</svg>
