<?xml version="1.0" encoding="UTF-8" standalone="no"?>
<!DOCTYPE svg PUBLIC "-//W3C//DTD SVG 1.1//EN"
 "http://www.w3.org/Graphics/SVG/1.1/DTD/svg11.dtd">
<!-- Generated by graphviz version 2.36.0 (20140111.2315)
 -->
<!-- Title: cellsociety_team01.simulations.SlimeMolds.update Pages: 1 -->
<svg width="372pt" height="87pt"
 viewBox="0.00 0.00 372.00 87.00" xmlns="http://www.w3.org/2000/svg" xmlns:xlink="http://www.w3.org/1999/xlink">
<g id="graph0" class="graph" transform="scale(1 1) rotate(0) translate(4 83)">
<title>cellsociety_team01.simulations.SlimeMolds.update</title>
<polygon fill="white" stroke="none" points="-4,4 -4,-83 368,-83 368,4 -4,4"/>
<!-- Node1 -->
<g id="node1" class="node"><title>Node1</title>
<polygon fill="#bfbfbf" stroke="black" points="0,-24 0,-54 170,-54 170,-24 0,-24"/>
<text text-anchor="start" x="8" y="-42" font-family="Helvetica,sans-Serif" font-size="10.00">cellsociety_team01.simulations.</text>
<text text-anchor="middle" x="85" y="-31" font-family="Helvetica,sans-Serif" font-size="10.00">SlimeMolds.update</text>
</g>
<!-- Node2 -->
<g id="node2" class="node"><title>Node2</title>
<g id="a_node2"><a xlink:href="../../d2/d25/classcellsociety__team01_1_1_cell_state_1_1_cell.html#aa6bcfad0327a829e6349b8e8ee1b995f" target="_top" xlink:title="cellsociety_team01.CellState.\lCell.getCurState">
<polygon fill="white" stroke="black" points="206,-49 206,-79 364,-79 364,-49 206,-49"/>
<text text-anchor="start" x="214" y="-67" font-family="Helvetica,sans-Serif" font-size="10.00">cellsociety_team01.CellState.</text>
<text text-anchor="middle" x="285" y="-56" font-family="Helvetica,sans-Serif" font-size="10.00">Cell.getCurState</text>
</a>
</g>
</g>
<!-- Node1&#45;&gt;Node2 -->
<g id="edge1" class="edge"><title>Node1&#45;&gt;Node2</title>
<path fill="none" stroke="midnightblue" d="M170.257,-49.6385C178.73,-50.7083 187.35,-51.7968 195.862,-52.8715"/>
<polygon fill="midnightblue" stroke="midnightblue" points="195.43,-56.3446 205.79,-54.1249 196.307,-49.3997 195.43,-56.3446"/>
</g>
<!-- Node3 -->
<g id="node3" class="node"><title>Node3</title>
<g id="a_node3"><a xlink:href="../../d2/d65/classcellsociety__team01_1_1_cell_state_1_1_state.html#a63a38cfb01adae4aefc85ea603cd95c8" target="_top" xlink:title="cellsociety_team01.CellState.\lState.updateColor">
<polygon fill="white" stroke="black" points="206,-0 206,-30 364,-30 364,-0 206,-0"/>
<text text-anchor="start" x="214" y="-18" font-family="Helvetica,sans-Serif" font-size="10.00">cellsociety_team01.CellState.</text>
<text text-anchor="middle" x="285" y="-7" font-family="Helvetica,sans-Serif" font-size="10.00">State.updateColor</text>
</a>
</g>
</g>
<!-- Node1&#45;&gt;Node3 -->
<g id="edge2" class="edge"><title>Node1&#45;&gt;Node3</title>
<path fill="none" stroke="midnightblue" d="M170.257,-28.787C178.638,-27.7712 187.163,-26.7378 195.585,-25.717"/>
<polygon fill="midnightblue" stroke="midnightblue" points="196.283,-29.158 205.79,-24.4801 195.441,-22.2089 196.283,-29.158"/>
</g>
</g>
</svg>
