<?xml version="1.0" encoding="UTF-8" standalone="no"?>
<!DOCTYPE svg PUBLIC "-//W3C//DTD SVG 1.1//EN"
 "http://www.w3.org/Graphics/SVG/1.1/DTD/svg11.dtd">
<!-- Generated by graphviz version 2.36.0 (20140111.2315)
 -->
<!-- Title: cellsociety_team01.simulations.Simulation.findState Pages: 1 -->
<svg width="1692pt" height="131pt"
 viewBox="0.00 0.00 1692.00 131.00" xmlns="http://www.w3.org/2000/svg" xmlns:xlink="http://www.w3.org/1999/xlink">
<g id="graph0" class="graph" transform="scale(1 1) rotate(0) translate(4 127)">
<title>cellsociety_team01.simulations.Simulation.findState</title>
<polygon fill="white" stroke="none" points="-4,4 -4,-127 1688,-127 1688,4 -4,4"/>
<!-- Node1 -->
<g id="node1" class="node"><title>Node1</title>
<polygon fill="#bfbfbf" stroke="black" points="0,-24 0,-54 170,-54 170,-24 0,-24"/>
<text text-anchor="start" x="8" y="-42" font-family="Helvetica,sans-Serif" font-size="10.00">cellsociety_team01.simulations.</text>
<text text-anchor="middle" x="85" y="-31" font-family="Helvetica,sans-Serif" font-size="10.00">Simulation.findState</text>
</g>
<!-- Node2 -->
<g id="node2" class="node"><title>Node2</title>
<g id="a_node2"><a xlink:href="../../db/d40/classcellsociety__team01_1_1parser_1_1_parser.html#a5ffbb8ad89f8a4a661d2204b837a070a" target="_top" xlink:title="cellsociety_team01.parser.\lParser.getState">
<polygon fill="white" stroke="black" points="206.5,-24 206.5,-54 351.5,-54 351.5,-24 206.5,-24"/>
<text text-anchor="start" x="214.5" y="-42" font-family="Helvetica,sans-Serif" font-size="10.00">cellsociety_team01.parser.</text>
<text text-anchor="middle" x="279" y="-31" font-family="Helvetica,sans-Serif" font-size="10.00">Parser.getState</text>
</a>
</g>
</g>
<!-- Node1&#45;&gt;Node2 -->
<g id="edge1" class="edge"><title>Node1&#45;&gt;Node2</title>
<path fill="none" stroke="midnightblue" d="M180.458,-39C189.207,-39 197.972,-39 206.464,-39"/>
<polygon fill="midnightblue" stroke="midnightblue" points="180.214,-35.5001 170.214,-39 180.214,-42.5001 180.214,-35.5001"/>
</g>
<!-- Node3 -->
<g id="node3" class="node"><title>Node3</title>
<g id="a_node3"><a xlink:href="../../db/d40/classcellsociety__team01_1_1parser_1_1_parser.html#aaf8f8745b89e52aee75fa2920608bbac" target="_top" xlink:title="cellsociety_team01.parser.\lParser.fillMap">
<polygon fill="white" stroke="black" points="388.5,-49 388.5,-79 533.5,-79 533.5,-49 388.5,-49"/>
<text text-anchor="start" x="396.5" y="-67" font-family="Helvetica,sans-Serif" font-size="10.00">cellsociety_team01.parser.</text>
<text text-anchor="middle" x="461" y="-56" font-family="Helvetica,sans-Serif" font-size="10.00">Parser.fillMap</text>
</a>
</g>
</g>
<!-- Node2&#45;&gt;Node3 -->
<g id="edge2" class="edge"><title>Node2&#45;&gt;Node3</title>
<path fill="none" stroke="midnightblue" d="M361.634,-50.3381C370.528,-51.5734 379.532,-52.8239 388.295,-54.0409"/>
<polygon fill="midnightblue" stroke="midnightblue" points="362.044,-46.8615 351.658,-48.9525 361.081,-53.795 362.044,-46.8615"/>
</g>
<!-- Node13 -->
<g id="node13" class="node"><title>Node13</title>
<g id="a_node13"><a xlink:href="../../db/d40/classcellsociety__team01_1_1parser_1_1_parser.html#a6328c0a6b8dab4bc6d860e80739fadca" target="_top" xlink:title="cellsociety_team01.parser.\lParser.placeGivenCells">
<polygon fill="white" stroke="black" points="388.5,-0 388.5,-30 533.5,-30 533.5,-0 388.5,-0"/>
<text text-anchor="start" x="396.5" y="-18" font-family="Helvetica,sans-Serif" font-size="10.00">cellsociety_team01.parser.</text>
<text text-anchor="middle" x="461" y="-7" font-family="Helvetica,sans-Serif" font-size="10.00">Parser.placeGivenCells</text>
</a>
</g>
</g>
<!-- Node2&#45;&gt;Node13 -->
<g id="edge14" class="edge"><title>Node2&#45;&gt;Node13</title>
<path fill="none" stroke="midnightblue" d="M361.634,-28.1154C370.528,-26.9296 379.532,-25.729 388.295,-24.5607"/>
<polygon fill="midnightblue" stroke="midnightblue" points="361.108,-24.6546 351.658,-29.4456 362.033,-31.5932 361.108,-24.6546"/>
</g>
<!-- Node4 -->
<g id="node4" class="node"><title>Node4</title>
<g id="a_node4"><a xlink:href="../../db/d40/classcellsociety__team01_1_1parser_1_1_parser.html#a0ed864ecdf8cf6ee778114ebe5c605ea" target="_top" xlink:title="cellsociety_team01.parser.\lParser.placeDistributedCells">
<polygon fill="white" stroke="black" points="570.5,-93 570.5,-123 719.5,-123 719.5,-93 570.5,-93"/>
<text text-anchor="start" x="578.5" y="-111" font-family="Helvetica,sans-Serif" font-size="10.00">cellsociety_team01.parser.</text>
<text text-anchor="middle" x="645" y="-100" font-family="Helvetica,sans-Serif" font-size="10.00">Parser.placeDistributedCells</text>
</a>
</g>
</g>
<!-- Node3&#45;&gt;Node4 -->
<g id="edge3" class="edge"><title>Node3&#45;&gt;Node4</title>
<path fill="none" stroke="midnightblue" d="M533.877,-81.3769C549.737,-85.2112 566.409,-89.2418 581.846,-92.9738"/>
<polygon fill="midnightblue" stroke="midnightblue" points="534.668,-77.9672 524.125,-79.0192 533.023,-84.7712 534.668,-77.9672"/>
</g>
<!-- Node12 -->
<g id="node12" class="node"><title>Node12</title>
<g id="a_node12"><a xlink:href="../../db/d40/classcellsociety__team01_1_1parser_1_1_parser.html#aaaea4078e4a144cf51ab40a295f4f396" target="_top" xlink:title="cellsociety_team01.parser.\lParser.placeRandomCells">
<polygon fill="white" stroke="black" points="572.5,-44 572.5,-74 717.5,-74 717.5,-44 572.5,-44"/>
<text text-anchor="start" x="580.5" y="-62" font-family="Helvetica,sans-Serif" font-size="10.00">cellsociety_team01.parser.</text>
<text text-anchor="middle" x="645" y="-51" font-family="Helvetica,sans-Serif" font-size="10.00">Parser.placeRandomCells</text>
</a>
</g>
</g>
<!-- Node3&#45;&gt;Node12 -->
<g id="edge12" class="edge"><title>Node3&#45;&gt;Node12</title>
<path fill="none" stroke="midnightblue" d="M543.908,-61.7498C553.411,-61.4887 563.046,-61.224 572.395,-60.9672"/>
<polygon fill="midnightblue" stroke="midnightblue" points="543.57,-58.2576 533.67,-62.031 543.762,-65.255 543.57,-58.2576"/>
</g>
<!-- Node5 -->
<g id="node5" class="node"><title>Node5</title>
<g id="a_node5"><a xlink:href="../../db/d40/classcellsociety__team01_1_1parser_1_1_parser.html#afa693f17f280ab1cf88baf2565c593a9" target="_top" xlink:title="cellsociety_team01.parser.\lParser.parseGrid">
<polygon fill="white" stroke="black" points="756.5,-44 756.5,-74 901.5,-74 901.5,-44 756.5,-44"/>
<text text-anchor="start" x="764.5" y="-62" font-family="Helvetica,sans-Serif" font-size="10.00">cellsociety_team01.parser.</text>
<text text-anchor="middle" x="829" y="-51" font-family="Helvetica,sans-Serif" font-size="10.00">Parser.parseGrid</text>
</a>
</g>
</g>
<!-- Node4&#45;&gt;Node5 -->
<g id="edge4" class="edge"><title>Node4&#45;&gt;Node5</title>
<path fill="none" stroke="midnightblue" d="M711.923,-90.2515C731.648,-84.9409 753.078,-79.1712 772.094,-74.0516"/>
<polygon fill="midnightblue" stroke="midnightblue" points="710.837,-86.9191 702.091,-92.8986 712.657,-93.6784 710.837,-86.9191"/>
</g>
<!-- Node6 -->
<g id="node6" class="node"><title>Node6</title>
<g id="a_node6"><a xlink:href="../../db/d40/classcellsociety__team01_1_1parser_1_1_parser.html#a31a05836dde41569f62542b9ea327f95" target="_top" xlink:title="cellsociety_team01.parser.\lParser.parseXmlFile">
<polygon fill="white" stroke="black" points="938.5,-44 938.5,-74 1083.5,-74 1083.5,-44 938.5,-44"/>
<text text-anchor="start" x="946.5" y="-62" font-family="Helvetica,sans-Serif" font-size="10.00">cellsociety_team01.parser.</text>
<text text-anchor="middle" x="1011" y="-51" font-family="Helvetica,sans-Serif" font-size="10.00">Parser.parseXmlFile</text>
</a>
</g>
</g>
<!-- Node5&#45;&gt;Node6 -->
<g id="edge5" class="edge"><title>Node5&#45;&gt;Node6</title>
<path fill="none" stroke="midnightblue" d="M911.921,-59C920.722,-59 929.626,-59 938.295,-59"/>
<polygon fill="midnightblue" stroke="midnightblue" points="911.658,-55.5001 901.658,-59 911.658,-62.5001 911.658,-55.5001"/>
</g>
<!-- Node7 -->
<g id="node7" class="node"><title>Node7</title>
<g id="a_node7"><a xlink:href="../../db/d10/classcellsociety__team01_1_1modelview_1_1_g_u_i.html#afa183319cc9816a6147cba0869ef82eb" target="_top" xlink:title="cellsociety_team01.modelview.\lGUI.loadXML">
<polygon fill="white" stroke="black" points="1120,-69 1120,-99 1284,-99 1284,-69 1120,-69"/>
<text text-anchor="start" x="1128" y="-87" font-family="Helvetica,sans-Serif" font-size="10.00">cellsociety_team01.modelview.</text>
<text text-anchor="middle" x="1202" y="-76" font-family="Helvetica,sans-Serif" font-size="10.00">GUI.loadXML</text>
</a>
</g>
</g>
<!-- Node6&#45;&gt;Node7 -->
<g id="edge6" class="edge"><title>Node6&#45;&gt;Node7</title>
<path fill="none" stroke="midnightblue" d="M1093.78,-69.8175C1102.42,-70.9604 1111.2,-72.1223 1119.84,-73.2642"/>
<polygon fill="midnightblue" stroke="midnightblue" points="1094.09,-66.3287 1083.72,-68.4871 1093.18,-73.2683 1094.09,-66.3287"/>
</g>
<!-- Node10 -->
<g id="node10" class="node"><title>Node10</title>
<g id="a_node10"><a xlink:href="../../db/d10/classcellsociety__team01_1_1modelview_1_1_g_u_i.html#a5c5e37ae72fe72af97fab2cb9a12b045" target="_top" xlink:title="cellsociety_team01.modelview.\lGUI.reset">
<polygon fill="white" stroke="black" points="1120,-20 1120,-50 1284,-50 1284,-20 1120,-20"/>
<text text-anchor="start" x="1128" y="-38" font-family="Helvetica,sans-Serif" font-size="10.00">cellsociety_team01.modelview.</text>
<text text-anchor="middle" x="1202" y="-27" font-family="Helvetica,sans-Serif" font-size="10.00">GUI.reset</text>
</a>
</g>
</g>
<!-- Node6&#45;&gt;Node10 -->
<g id="edge9" class="edge"><title>Node6&#45;&gt;Node10</title>
<path fill="none" stroke="midnightblue" d="M1093.78,-48.6152C1102.42,-47.518 1111.2,-46.4026 1119.84,-45.3064"/>
<polygon fill="midnightblue" stroke="midnightblue" points="1093.2,-45.1605 1083.72,-49.8924 1094.08,-52.1047 1093.2,-45.1605"/>
</g>
<!-- Node8 -->
<g id="node8" class="node"><title>Node8</title>
<g id="a_node8"><a xlink:href="../../db/d10/classcellsociety__team01_1_1modelview_1_1_g_u_i.html#a4072ce794f518e806e7a912892f1e9da" target="_top" xlink:title="cellsociety_team01.modelview.\lGUI.makeMenuBar">
<polygon fill="white" stroke="black" points="1320,-69 1320,-99 1484,-99 1484,-69 1320,-69"/>
<text text-anchor="start" x="1328" y="-87" font-family="Helvetica,sans-Serif" font-size="10.00">cellsociety_team01.modelview.</text>
<text text-anchor="middle" x="1402" y="-76" font-family="Helvetica,sans-Serif" font-size="10.00">GUI.makeMenuBar</text>
</a>
</g>
</g>
<!-- Node7&#45;&gt;Node8 -->
<g id="edge7" class="edge"><title>Node7&#45;&gt;Node8</title>
<path fill="none" stroke="midnightblue" d="M1294.36,-84C1302.82,-84 1311.35,-84 1319.7,-84"/>
<polygon fill="midnightblue" stroke="midnightblue" points="1294.11,-80.5001 1284.11,-84 1294.11,-87.5001 1294.11,-80.5001"/>
</g>
<!-- Node9 -->
<g id="node9" class="node"><title>Node9</title>
<g id="a_node9"><a xlink:href="../../db/d10/classcellsociety__team01_1_1modelview_1_1_g_u_i.html#a07bcff60812627c8dfe97f1aadc671e5" target="_top" xlink:title="cellsociety_team01.modelview.\lGUI.GUI">
<polygon fill="white" stroke="black" points="1520,-44 1520,-74 1684,-74 1684,-44 1520,-44"/>
<text text-anchor="start" x="1528" y="-62" font-family="Helvetica,sans-Serif" font-size="10.00">cellsociety_team01.modelview.</text>
<text text-anchor="middle" x="1602" y="-51" font-family="Helvetica,sans-Serif" font-size="10.00">GUI.GUI</text>
</a>
</g>
</g>
<!-- Node8&#45;&gt;Node9 -->
<g id="edge8" class="edge"><title>Node8&#45;&gt;Node9</title>
<path fill="none" stroke="midnightblue" d="M1494.08,-72.4994C1502.63,-71.4205 1511.25,-70.3316 1519.7,-69.2651"/>
<polygon fill="midnightblue" stroke="midnightblue" points="1493.59,-69.0342 1484.11,-73.7594 1494.47,-75.9791 1493.59,-69.0342"/>
</g>
<!-- Node11 -->
<g id="node11" class="node"><title>Node11</title>
<g id="a_node11"><a xlink:href="../../db/d10/classcellsociety__team01_1_1modelview_1_1_g_u_i.html#aa924c28ce131195d3f377b18177f6cb9" target="_top" xlink:title="cellsociety_team01.modelview.\lGUI.makeButtonsAndSlider">
<polygon fill="white" stroke="black" points="1320,-20 1320,-50 1484,-50 1484,-20 1320,-20"/>
<text text-anchor="start" x="1328" y="-38" font-family="Helvetica,sans-Serif" font-size="10.00">cellsociety_team01.modelview.</text>
<text text-anchor="middle" x="1402" y="-27" font-family="Helvetica,sans-Serif" font-size="10.00">GUI.makeButtonsAndSlider</text>
</a>
</g>
</g>
<!-- Node10&#45;&gt;Node11 -->
<g id="edge10" class="edge"><title>Node10&#45;&gt;Node11</title>
<path fill="none" stroke="midnightblue" d="M1294.36,-35C1302.82,-35 1311.35,-35 1319.7,-35"/>
<polygon fill="midnightblue" stroke="midnightblue" points="1294.11,-31.5001 1284.11,-35 1294.11,-38.5001 1294.11,-31.5001"/>
</g>
<!-- Node11&#45;&gt;Node9 -->
<g id="edge11" class="edge"><title>Node11&#45;&gt;Node9</title>
<path fill="none" stroke="midnightblue" d="M1494.08,-46.0406C1502.63,-47.0763 1511.25,-48.1217 1519.7,-49.1455"/>
<polygon fill="midnightblue" stroke="midnightblue" points="1494.45,-42.5598 1484.11,-44.831 1493.61,-49.5089 1494.45,-42.5598"/>
</g>
<!-- Node12&#45;&gt;Node5 -->
<g id="edge13" class="edge"><title>Node12&#45;&gt;Node5</title>
<path fill="none" stroke="midnightblue" d="M727.908,-59C737.411,-59 747.046,-59 756.395,-59"/>
<polygon fill="midnightblue" stroke="midnightblue" points="727.67,-55.5001 717.67,-59 727.67,-62.5001 727.67,-55.5001"/>
</g>
<!-- Node13&#45;&gt;Node5 -->
<g id="edge15" class="edge"><title>Node13&#45;&gt;Node5</title>
<path fill="none" stroke="midnightblue" d="M543.8,-17.8038C594.711,-20.3443 661.424,-25.1176 720,-34 736.555,-36.5103 754.331,-40.2018 770.586,-43.9816"/>
<polygon fill="midnightblue" stroke="midnightblue" points="543.667,-14.2934 533.511,-17.3099 543.331,-21.2854 543.667,-14.2934"/>
</g>
</g>
</svg>
