<?xml version="1.0" encoding="UTF-8" standalone="no"?>
<!DOCTYPE svg PUBLIC "-//W3C//DTD SVG 1.1//EN"
 "http://www.w3.org/Graphics/SVG/1.1/DTD/svg11.dtd">
<!-- Generated by graphviz version 2.36.0 (20140111.2315)
 -->
<!-- Title: cellsociety_team01.simulations.Simulation.cycleNextState Pages: 1 -->
<!--zoomable 38 -->
<svg id="main" version="1.1" xmlns="http://www.w3.org/2000/svg" xmlns:xlink="http://www.w3.org/1999/xlink" xml:space="preserve" onload="init(evt)">
<style type="text/css"><![CDATA[
.edge:hover path { stroke: red; }
.edge:hover polygon { stroke: red; fill: red; }
]]></style>
<script type="text/javascript"><![CDATA[
var edges = document.getElementsByTagName('g');
if (edges && edges.length) {
  for (var i=0;i<edges.length;i++) {
    if (edges[i].id.substr(0,4)=='edge') {
      edges[i].setAttribute('class','edge');
    }
  }
}
]]></script>
        <defs>
                <circle id="rim" cx="0" cy="0" r="7"/>
                <circle id="rim2" cx="0" cy="0" r="3.5"/>
                <g id="zoomPlus">
                        <use xlink:href="#rim" fill="#404040">
                                <set attributeName="fill" to="#808080" begin="zoomplus.mouseover" end="zoomplus.mouseout"/>
                        </use>
                        <path d="M-4,0h8M0,-4v8" fill="none" stroke="white" stroke-width="1.5" pointer-events="none"/>
                </g>
                <g id="zoomMin">
                        <use xlink:href="#rim" fill="#404040">
                                <set attributeName="fill" to="#808080" begin="zoomminus.mouseover" end="zoomminus.mouseout"/>
                        </use>
                        <path d="M-4,0h8" fill="none" stroke="white" stroke-width="1.5" pointer-events="none"/>
                </g>
                <g id="dirArrow">
                        <path fill="none" stroke="white" stroke-width="1.5" d="M0,-3.0v7 M-2.5,-0.5L0,-3.0L2.5,-0.5"/>
                </g>
               <g id="resetDef">
                       <use xlink:href="#rim2" fill="#404040">
                               <set attributeName="fill" to="#808080" begin="reset.mouseover" end="reset.mouseout"/>
                       </use>
               </g>
        </defs>

<script type="text/javascript">
var viewWidth = 1378;
var viewHeight = 38;
var sectionId = 'dynsection-2';
</script>
<script xlink:href="../../svgpan.js"/>
<svg id="graph" class="graph">
<g id="viewport">
<title>cellsociety_team01.simulations.Simulation.cycleNextState</title>
<polygon fill="white" stroke="none" points="-4,4 -4,-34 1374,-34 1374,4 -4,4"/>
<!-- Node1 -->
<g id="node1" class="node"><title>Node1</title>
<polygon fill="#bfbfbf" stroke="black" points="0,-0 0,-30 170,-30 170,-0 0,-0"/>
<text text-anchor="start" x="8" y="-18" font-family="Helvetica,sans-Serif" font-size="10.00">cellsociety_team01.simulations.</text>
<text text-anchor="middle" x="85" y="-7" font-family="Helvetica,sans-Serif" font-size="10.00">Simulation.cycleNextState</text>
</g>
<!-- Node2 -->
<g id="node2" class="node"><title>Node2</title>
<g id="a_node2"><a xlink:href="../../d2/d8b/classcellsociety__team01_1_1modelview_1_1_grid.html#ab24d28beea073446f08df1aa6f3223ef" target="_top" xlink:title="cellsociety_team01.modelview.\lGrid.cycleCellState">
<polygon fill="white" stroke="black" points="206,-0 206,-30 370,-30 370,-0 206,-0"/>
<text text-anchor="start" x="214" y="-18" font-family="Helvetica,sans-Serif" font-size="10.00">cellsociety_team01.modelview.</text>
<text text-anchor="middle" x="288" y="-7" font-family="Helvetica,sans-Serif" font-size="10.00">Grid.cycleCellState</text>
</a>
</g>
</g>
<!-- Node1&#45;&gt;Node2 -->
<g id="edge1" class="edge"><title>Node1&#45;&gt;Node2</title>
<path fill="none" stroke="midnightblue" d="M180.121,-15C188.714,-15 197.369,-15 205.834,-15"/>
<polygon fill="midnightblue" stroke="midnightblue" points="180.078,-11.5001 170.077,-15 180.077,-18.5001 180.078,-11.5001"/>
</g>
<!-- Node3 -->
<g id="node3" class="node"><title>Node3</title>
<g id="a_node3"><a xlink:href="../../db/d10/classcellsociety__team01_1_1modelview_1_1_g_u_i.html#a6c2a76c08a6f6e837ba5709ef57499b3" target="_top" xlink:title="cellsociety_team01.modelview.\lGUI.cellClicked">
<polygon fill="white" stroke="black" points="406,-0 406,-30 570,-30 570,-0 406,-0"/>
<text text-anchor="start" x="414" y="-18" font-family="Helvetica,sans-Serif" font-size="10.00">cellsociety_team01.modelview.</text>
<text text-anchor="middle" x="488" y="-7" font-family="Helvetica,sans-Serif" font-size="10.00">GUI.cellClicked</text>
</a>
</g>
</g>
<!-- Node2&#45;&gt;Node3 -->
<g id="edge2" class="edge"><title>Node2&#45;&gt;Node3</title>
<path fill="none" stroke="midnightblue" d="M380.363,-15C388.817,-15 397.346,-15 405.7,-15"/>
<polygon fill="midnightblue" stroke="midnightblue" points="380.106,-11.5001 370.105,-15 380.105,-18.5001 380.106,-11.5001"/>
</g>
<!-- Node4 -->
<g id="node4" class="node"><title>Node4</title>
<g id="a_node4"><a xlink:href="../../db/d10/classcellsociety__team01_1_1modelview_1_1_g_u_i.html#af0760be4f824fab5c2a8b9b91d5823b2" target="_top" xlink:title="cellsociety_team01.modelview.\lGUI.makeGrid">
<polygon fill="white" stroke="black" points="606,-0 606,-30 770,-30 770,-0 606,-0"/>
<text text-anchor="start" x="614" y="-18" font-family="Helvetica,sans-Serif" font-size="10.00">cellsociety_team01.modelview.</text>
<text text-anchor="middle" x="688" y="-7" font-family="Helvetica,sans-Serif" font-size="10.00">GUI.makeGrid</text>
</a>
</g>
</g>
<!-- Node3&#45;&gt;Node4 -->
<g id="edge3" class="edge"><title>Node3&#45;&gt;Node4</title>
<path fill="none" stroke="midnightblue" d="M580.363,-15C588.817,-15 597.346,-15 605.7,-15"/>
<polygon fill="midnightblue" stroke="midnightblue" points="580.106,-11.5001 570.105,-15 580.105,-18.5001 580.106,-11.5001"/>
</g>
<!-- Node5 -->
<g id="node5" class="node"><title>Node5</title>
<g id="a_node5"><a xlink:href="../../db/d10/classcellsociety__team01_1_1modelview_1_1_g_u_i.html#afa183319cc9816a6147cba0869ef82eb" target="_top" xlink:title="cellsociety_team01.modelview.\lGUI.loadXML">
<polygon fill="white" stroke="black" points="806,-0 806,-30 970,-30 970,-0 806,-0"/>
<text text-anchor="start" x="814" y="-18" font-family="Helvetica,sans-Serif" font-size="10.00">cellsociety_team01.modelview.</text>
<text text-anchor="middle" x="888" y="-7" font-family="Helvetica,sans-Serif" font-size="10.00">GUI.loadXML</text>
</a>
</g>
</g>
<!-- Node4&#45;&gt;Node5 -->
<g id="edge4" class="edge"><title>Node4&#45;&gt;Node5</title>
<path fill="none" stroke="midnightblue" d="M780.363,-15C788.817,-15 797.346,-15 805.7,-15"/>
<polygon fill="midnightblue" stroke="midnightblue" points="780.106,-11.5001 770.105,-15 780.105,-18.5001 780.106,-11.5001"/>
</g>
<!-- Node6 -->
<g id="node6" class="node"><title>Node6</title>
<g id="a_node6"><a xlink:href="../../db/d10/classcellsociety__team01_1_1modelview_1_1_g_u_i.html#a4072ce794f518e806e7a912892f1e9da" target="_top" xlink:title="cellsociety_team01.modelview.\lGUI.makeMenuBar">
<polygon fill="white" stroke="black" points="1006,-0 1006,-30 1170,-30 1170,-0 1006,-0"/>
<text text-anchor="start" x="1014" y="-18" font-family="Helvetica,sans-Serif" font-size="10.00">cellsociety_team01.modelview.</text>
<text text-anchor="middle" x="1088" y="-7" font-family="Helvetica,sans-Serif" font-size="10.00">GUI.makeMenuBar</text>
</a>
</g>
</g>
<!-- Node5&#45;&gt;Node6 -->
<g id="edge5" class="edge"><title>Node5&#45;&gt;Node6</title>
<path fill="none" stroke="midnightblue" d="M980.363,-15C988.817,-15 997.346,-15 1005.7,-15"/>
<polygon fill="midnightblue" stroke="midnightblue" points="980.106,-11.5001 970.105,-15 980.105,-18.5001 980.106,-11.5001"/>
</g>
<!-- Node7 -->
<g id="node7" class="node"><title>Node7</title>
<g id="a_node7"><a xlink:href="../../db/d10/classcellsociety__team01_1_1modelview_1_1_g_u_i.html#a07bcff60812627c8dfe97f1aadc671e5" target="_top" xlink:title="cellsociety_team01.modelview.\lGUI.GUI">
<polygon fill="white" stroke="black" points="1206,-0 1206,-30 1370,-30 1370,-0 1206,-0"/>
<text text-anchor="start" x="1214" y="-18" font-family="Helvetica,sans-Serif" font-size="10.00">cellsociety_team01.modelview.</text>
<text text-anchor="middle" x="1288" y="-7" font-family="Helvetica,sans-Serif" font-size="10.00">GUI.GUI</text>
</a>
</g>
</g>
<!-- Node6&#45;&gt;Node7 -->
<g id="edge6" class="edge"><title>Node6&#45;&gt;Node7</title>
<path fill="none" stroke="midnightblue" d="M1180.36,-15C1188.82,-15 1197.35,-15 1205.7,-15"/>
<polygon fill="midnightblue" stroke="midnightblue" points="1180.11,-11.5001 1170.11,-15 1180.11,-18.5001 1180.11,-11.5001"/>
</g>
</g>
</svg>
        <g id="navigator" transform="translate(0 0)" fill="#404254">
                <rect fill="#f2f5e9" fill-opacity="0.5" stroke="#606060" stroke-width=".5" x="0" y="0" width="60" height="60"/>
                <use id="zoomplus" xlink:href="#zoomPlus" x="17" y="9" onmousedown="handleZoom(evt,'in')"/>
                <use id="zoomminus" xlink:href="#zoomMin" x="42" y="9" onmousedown="handleZoom(evt,'out')"/>
                <use id="reset" xlink:href="#resetDef" x="30" y="36" onmousedown="handleReset()"/>
                <g id="arrowUp" xlink:href="#dirArrow" transform="translate(30 24)" onmousedown="handlePan(0,-1)">
                  <use xlink:href="#rim" fill="#404040">
                        <set attributeName="fill" to="#808080" begin="arrowUp.mouseover" end="arrowUp.mouseout"/>
                  </use>
                  <path fill="none" stroke="white" stroke-width="1.5" d="M0,-3.0v7 M-2.5,-0.5L0,-3.0L2.5,-0.5"/>
                </g>
                <g id="arrowRight" xlink:href="#dirArrow" transform="rotate(90) translate(36 -43)" onmousedown="handlePan(1,0)">
                  <use xlink:href="#rim" fill="#404040">
                        <set attributeName="fill" to="#808080" begin="arrowRight.mouseover" end="arrowRight.mouseout"/>
                  </use>
                  <path fill="none" stroke="white" stroke-width="1.5" d="M0,-3.0v7 M-2.5,-0.5L0,-3.0L2.5,-0.5"/>
                </g>
                <g id="arrowDown" xlink:href="#dirArrow" transform="rotate(180) translate(-30 -48)" onmousedown="handlePan(0,1)">
                  <use xlink:href="#rim" fill="#404040">
                        <set attributeName="fill" to="#808080" begin="arrowDown.mouseover" end="arrowDown.mouseout"/>
                  </use>
                  <path fill="none" stroke="white" stroke-width="1.5" d="M0,-3.0v7 M-2.5,-0.5L0,-3.0L2.5,-0.5"/>
                </g>
                <g id="arrowLeft" xlink:href="#dirArrow" transform="rotate(270) translate(-36 17)" onmousedown="handlePan(-1,0)">
                  <use xlink:href="#rim" fill="#404040">
                        <set attributeName="fill" to="#808080" begin="arrowLeft.mouseover" end="arrowLeft.mouseout"/>
                  </use>
                  <path fill="none" stroke="white" stroke-width="1.5" d="M0,-3.0v7 M-2.5,-0.5L0,-3.0L2.5,-0.5"/>
                </g>
        </g>
        <svg viewBox="0 0 15 15" width="100%" height="30px" preserveAspectRatio="xMaxYMin meet">
         <g id="arrow_out" transform="scale(0.3 0.3)">
          <a xlink:href="classcellsociety__team01_1_1simulations_1_1_simulation_a2e00706ce2fb9ba272c2b114a89683eb_icgraph_org.svg" target="_base">
           <rect id="button" ry="5" rx="5" y="6" x="6" height="38" width="38"
                fill="#f2f5e9" fill-opacity="0.5" stroke="#606060" stroke-width="1.0"/>
           <path id="arrow"
             d="M 11.500037,31.436501 C 11.940474,20.09759 22.043105,11.32322 32.158766,21.979434 L 37.068811,17.246167 C 37.068811,17.246167 37.088388,32 37.088388,32 L 22.160133,31.978069 C 22.160133,31.978069 26.997745,27.140456 26.997745,27.140456 C 18.528582,18.264221 13.291696,25.230495 11.500037,31.436501 z"
             style="fill:#404040;"/>
          </a>
         </g>
        </svg>
</svg>
