<?xml version="1.0" encoding="UTF-8" standalone="no"?>
<!DOCTYPE svg PUBLIC "-//W3C//DTD SVG 1.1//EN"
 "http://www.w3.org/Graphics/SVG/1.1/DTD/svg11.dtd">
<!-- Generated by graphviz version 2.36.0 (20140111.2315)
 -->
<!-- Title: cellsociety_team01.simulations.Simulation.getNeighborType Pages: 1 -->
<svg width="1542pt" height="87pt"
 viewBox="0.00 0.00 1542.00 87.00" xmlns="http://www.w3.org/2000/svg" xmlns:xlink="http://www.w3.org/1999/xlink">
<g id="graph0" class="graph" transform="scale(1 1) rotate(0) translate(4 83)">
<title>cellsociety_team01.simulations.Simulation.getNeighborType</title>
<polygon fill="white" stroke="none" points="-4,4 -4,-83 1538,-83 1538,4 -4,4"/>
<!-- Node1 -->
<g id="node1" class="node"><title>Node1</title>
<polygon fill="#bfbfbf" stroke="black" points="0,-24 0,-54 170,-54 170,-24 0,-24"/>
<text text-anchor="start" x="8" y="-42" font-family="Helvetica,sans-Serif" font-size="10.00">cellsociety_team01.simulations.</text>
<text text-anchor="middle" x="85" y="-31" font-family="Helvetica,sans-Serif" font-size="10.00">Simulation.getNeighborType</text>
</g>
<!-- Node2 -->
<g id="node2" class="node"><title>Node2</title>
<g id="a_node2"><a xlink:href="../../d7/de1/classcellsociety__team01_1_1modelview_1_1_grid_model.html#a50a93468046d735bbc41c59ee14df150" target="_top" xlink:title="cellsociety_team01.modelview.\lGridModel.setNeighbors">
<polygon fill="white" stroke="black" points="206,-24 206,-54 370,-54 370,-24 206,-24"/>
<text text-anchor="start" x="214" y="-42" font-family="Helvetica,sans-Serif" font-size="10.00">cellsociety_team01.modelview.</text>
<text text-anchor="middle" x="288" y="-31" font-family="Helvetica,sans-Serif" font-size="10.00">GridModel.setNeighbors</text>
</a>
</g>
</g>
<!-- Node1&#45;&gt;Node2 -->
<g id="edge1" class="edge"><title>Node1&#45;&gt;Node2</title>
<path fill="none" stroke="midnightblue" d="M180.121,-39C188.714,-39 197.369,-39 205.834,-39"/>
<polygon fill="midnightblue" stroke="midnightblue" points="180.078,-35.5001 170.077,-39 180.077,-42.5001 180.078,-35.5001"/>
</g>
<!-- Node3 -->
<g id="node3" class="node"><title>Node3</title>
<g id="a_node3"><a xlink:href="../../d2/d8b/classcellsociety__team01_1_1modelview_1_1_grid.html#a959c40c0688692c45eb4677c4ad9e313" target="_top" xlink:title="cellsociety_team01.modelview.\lGrid.setNeighbors">
<polygon fill="white" stroke="black" points="406,-24 406,-54 570,-54 570,-24 406,-24"/>
<text text-anchor="start" x="414" y="-42" font-family="Helvetica,sans-Serif" font-size="10.00">cellsociety_team01.modelview.</text>
<text text-anchor="middle" x="488" y="-31" font-family="Helvetica,sans-Serif" font-size="10.00">Grid.setNeighbors</text>
</a>
</g>
</g>
<!-- Node2&#45;&gt;Node3 -->
<g id="edge2" class="edge"><title>Node2&#45;&gt;Node3</title>
<path fill="none" stroke="midnightblue" d="M380.363,-39C388.817,-39 397.346,-39 405.7,-39"/>
<polygon fill="midnightblue" stroke="midnightblue" points="380.106,-35.5001 370.105,-39 380.105,-42.5001 380.106,-35.5001"/>
</g>
<!-- Node4 -->
<g id="node4" class="node"><title>Node4</title>
<g id="a_node4"><a xlink:href="../../db/d40/classcellsociety__team01_1_1parser_1_1_parser.html#afa693f17f280ab1cf88baf2565c593a9" target="_top" xlink:title="cellsociety_team01.parser.\lParser.parseGrid">
<polygon fill="white" stroke="black" points="606.5,-24 606.5,-54 751.5,-54 751.5,-24 606.5,-24"/>
<text text-anchor="start" x="614.5" y="-42" font-family="Helvetica,sans-Serif" font-size="10.00">cellsociety_team01.parser.</text>
<text text-anchor="middle" x="679" y="-31" font-family="Helvetica,sans-Serif" font-size="10.00">Parser.parseGrid</text>
</a>
</g>
</g>
<!-- Node3&#45;&gt;Node4 -->
<g id="edge3" class="edge"><title>Node3&#45;&gt;Node4</title>
<path fill="none" stroke="midnightblue" d="M580.431,-39C589.133,-39 597.869,-39 606.345,-39"/>
<polygon fill="midnightblue" stroke="midnightblue" points="580.25,-35.5001 570.25,-39 580.25,-42.5001 580.25,-35.5001"/>
</g>
<!-- Node5 -->
<g id="node5" class="node"><title>Node5</title>
<g id="a_node5"><a xlink:href="../../db/d40/classcellsociety__team01_1_1parser_1_1_parser.html#a31a05836dde41569f62542b9ea327f95" target="_top" xlink:title="cellsociety_team01.parser.\lParser.parseXmlFile">
<polygon fill="white" stroke="black" points="788.5,-24 788.5,-54 933.5,-54 933.5,-24 788.5,-24"/>
<text text-anchor="start" x="796.5" y="-42" font-family="Helvetica,sans-Serif" font-size="10.00">cellsociety_team01.parser.</text>
<text text-anchor="middle" x="861" y="-31" font-family="Helvetica,sans-Serif" font-size="10.00">Parser.parseXmlFile</text>
</a>
</g>
</g>
<!-- Node4&#45;&gt;Node5 -->
<g id="edge4" class="edge"><title>Node4&#45;&gt;Node5</title>
<path fill="none" stroke="midnightblue" d="M761.921,-39C770.722,-39 779.626,-39 788.295,-39"/>
<polygon fill="midnightblue" stroke="midnightblue" points="761.658,-35.5001 751.658,-39 761.658,-42.5001 761.658,-35.5001"/>
</g>
<!-- Node6 -->
<g id="node6" class="node"><title>Node6</title>
<g id="a_node6"><a xlink:href="../../db/d10/classcellsociety__team01_1_1modelview_1_1_g_u_i.html#afa183319cc9816a6147cba0869ef82eb" target="_top" xlink:title="cellsociety_team01.modelview.\lGUI.loadXML">
<polygon fill="white" stroke="black" points="970,-49 970,-79 1134,-79 1134,-49 970,-49"/>
<text text-anchor="start" x="978" y="-67" font-family="Helvetica,sans-Serif" font-size="10.00">cellsociety_team01.modelview.</text>
<text text-anchor="middle" x="1052" y="-56" font-family="Helvetica,sans-Serif" font-size="10.00">GUI.loadXML</text>
</a>
</g>
</g>
<!-- Node5&#45;&gt;Node6 -->
<g id="edge5" class="edge"><title>Node5&#45;&gt;Node6</title>
<path fill="none" stroke="midnightblue" d="M943.781,-49.8175C952.42,-50.9604 961.205,-52.1223 969.837,-53.2642"/>
<polygon fill="midnightblue" stroke="midnightblue" points="944.095,-46.3287 933.722,-48.4871 943.177,-53.2683 944.095,-46.3287"/>
</g>
<!-- Node9 -->
<g id="node9" class="node"><title>Node9</title>
<g id="a_node9"><a xlink:href="../../db/d10/classcellsociety__team01_1_1modelview_1_1_g_u_i.html#a5c5e37ae72fe72af97fab2cb9a12b045" target="_top" xlink:title="cellsociety_team01.modelview.\lGUI.reset">
<polygon fill="white" stroke="black" points="970,-0 970,-30 1134,-30 1134,-0 970,-0"/>
<text text-anchor="start" x="978" y="-18" font-family="Helvetica,sans-Serif" font-size="10.00">cellsociety_team01.modelview.</text>
<text text-anchor="middle" x="1052" y="-7" font-family="Helvetica,sans-Serif" font-size="10.00">GUI.reset</text>
</a>
</g>
</g>
<!-- Node5&#45;&gt;Node9 -->
<g id="edge8" class="edge"><title>Node5&#45;&gt;Node9</title>
<path fill="none" stroke="midnightblue" d="M943.781,-28.6152C952.42,-27.518 961.205,-26.4026 969.837,-25.3064"/>
<polygon fill="midnightblue" stroke="midnightblue" points="943.202,-25.1605 933.722,-29.8924 944.084,-32.1047 943.202,-25.1605"/>
</g>
<!-- Node7 -->
<g id="node7" class="node"><title>Node7</title>
<g id="a_node7"><a xlink:href="../../db/d10/classcellsociety__team01_1_1modelview_1_1_g_u_i.html#a4072ce794f518e806e7a912892f1e9da" target="_top" xlink:title="cellsociety_team01.modelview.\lGUI.makeMenuBar">
<polygon fill="white" stroke="black" points="1170,-49 1170,-79 1334,-79 1334,-49 1170,-49"/>
<text text-anchor="start" x="1178" y="-67" font-family="Helvetica,sans-Serif" font-size="10.00">cellsociety_team01.modelview.</text>
<text text-anchor="middle" x="1252" y="-56" font-family="Helvetica,sans-Serif" font-size="10.00">GUI.makeMenuBar</text>
</a>
</g>
</g>
<!-- Node6&#45;&gt;Node7 -->
<g id="edge6" class="edge"><title>Node6&#45;&gt;Node7</title>
<path fill="none" stroke="midnightblue" d="M1144.36,-64C1152.82,-64 1161.35,-64 1169.7,-64"/>
<polygon fill="midnightblue" stroke="midnightblue" points="1144.11,-60.5001 1134.11,-64 1144.11,-67.5001 1144.11,-60.5001"/>
</g>
<!-- Node8 -->
<g id="node8" class="node"><title>Node8</title>
<g id="a_node8"><a xlink:href="../../db/d10/classcellsociety__team01_1_1modelview_1_1_g_u_i.html#a07bcff60812627c8dfe97f1aadc671e5" target="_top" xlink:title="cellsociety_team01.modelview.\lGUI.GUI">
<polygon fill="white" stroke="black" points="1370,-24 1370,-54 1534,-54 1534,-24 1370,-24"/>
<text text-anchor="start" x="1378" y="-42" font-family="Helvetica,sans-Serif" font-size="10.00">cellsociety_team01.modelview.</text>
<text text-anchor="middle" x="1452" y="-31" font-family="Helvetica,sans-Serif" font-size="10.00">GUI.GUI</text>
</a>
</g>
</g>
<!-- Node7&#45;&gt;Node8 -->
<g id="edge7" class="edge"><title>Node7&#45;&gt;Node8</title>
<path fill="none" stroke="midnightblue" d="M1344.08,-52.4994C1352.63,-51.4205 1361.25,-50.3316 1369.7,-49.2651"/>
<polygon fill="midnightblue" stroke="midnightblue" points="1343.59,-49.0342 1334.11,-53.7594 1344.47,-55.9791 1343.59,-49.0342"/>
</g>
<!-- Node10 -->
<g id="node10" class="node"><title>Node10</title>
<g id="a_node10"><a xlink:href="../../db/d10/classcellsociety__team01_1_1modelview_1_1_g_u_i.html#aa924c28ce131195d3f377b18177f6cb9" target="_top" xlink:title="cellsociety_team01.modelview.\lGUI.makeButtonsAndSlider">
<polygon fill="white" stroke="black" points="1170,-0 1170,-30 1334,-30 1334,-0 1170,-0"/>
<text text-anchor="start" x="1178" y="-18" font-family="Helvetica,sans-Serif" font-size="10.00">cellsociety_team01.modelview.</text>
<text text-anchor="middle" x="1252" y="-7" font-family="Helvetica,sans-Serif" font-size="10.00">GUI.makeButtonsAndSlider</text>
</a>
</g>
</g>
<!-- Node9&#45;&gt;Node10 -->
<g id="edge9" class="edge"><title>Node9&#45;&gt;Node10</title>
<path fill="none" stroke="midnightblue" d="M1144.36,-15C1152.82,-15 1161.35,-15 1169.7,-15"/>
<polygon fill="midnightblue" stroke="midnightblue" points="1144.11,-11.5001 1134.11,-15 1144.11,-18.5001 1144.11,-11.5001"/>
</g>
<!-- Node10&#45;&gt;Node8 -->
<g id="edge10" class="edge"><title>Node10&#45;&gt;Node8</title>
<path fill="none" stroke="midnightblue" d="M1344.08,-26.0406C1352.63,-27.0763 1361.25,-28.1217 1369.7,-29.1455"/>
<polygon fill="midnightblue" stroke="midnightblue" points="1344.45,-22.5598 1334.11,-24.831 1343.61,-29.5089 1344.45,-22.5598"/>
</g>
</g>
</svg>
