<?xml version="1.0" encoding="UTF-8" standalone="no"?>
<!DOCTYPE svg PUBLIC "-//W3C//DTD SVG 1.1//EN"
 "http://www.w3.org/Graphics/SVG/1.1/DTD/svg11.dtd">
<!-- Generated by graphviz version 2.36.0 (20140111.2315)
 -->
<!-- Title: cellsociety_team01.simulations.Simulation.setConfigs Pages: 1 -->
<svg width="1142pt" height="87pt"
 viewBox="0.00 0.00 1142.00 87.00" xmlns="http://www.w3.org/2000/svg" xmlns:xlink="http://www.w3.org/1999/xlink">
<g id="graph0" class="graph" transform="scale(1 1) rotate(0) translate(4 83)">
<title>cellsociety_team01.simulations.Simulation.setConfigs</title>
<polygon fill="white" stroke="none" points="-4,4 -4,-83 1138,-83 1138,4 -4,4"/>
<!-- Node1 -->
<g id="node1" class="node"><title>Node1</title>
<polygon fill="#bfbfbf" stroke="black" points="0,-24 0,-54 170,-54 170,-24 0,-24"/>
<text text-anchor="start" x="8" y="-42" font-family="Helvetica,sans-Serif" font-size="10.00">cellsociety_team01.simulations.</text>
<text text-anchor="middle" x="85" y="-31" font-family="Helvetica,sans-Serif" font-size="10.00">Simulation.setConfigs</text>
</g>
<!-- Node2 -->
<g id="node2" class="node"><title>Node2</title>
<g id="a_node2"><a xlink:href="../../db/d40/classcellsociety__team01_1_1parser_1_1_parser.html#af56783c2ed199d7cd1925b54e6497642" target="_top" xlink:title="cellsociety_team01.parser.\lParser.parseConfig">
<polygon fill="white" stroke="black" points="206.5,-24 206.5,-54 351.5,-54 351.5,-24 206.5,-24"/>
<text text-anchor="start" x="214.5" y="-42" font-family="Helvetica,sans-Serif" font-size="10.00">cellsociety_team01.parser.</text>
<text text-anchor="middle" x="279" y="-31" font-family="Helvetica,sans-Serif" font-size="10.00">Parser.parseConfig</text>
</a>
</g>
</g>
<!-- Node1&#45;&gt;Node2 -->
<g id="edge1" class="edge"><title>Node1&#45;&gt;Node2</title>
<path fill="none" stroke="midnightblue" d="M180.458,-39C189.207,-39 197.972,-39 206.464,-39"/>
<polygon fill="midnightblue" stroke="midnightblue" points="180.214,-35.5001 170.214,-39 180.214,-42.5001 180.214,-35.5001"/>
</g>
<!-- Node3 -->
<g id="node3" class="node"><title>Node3</title>
<g id="a_node3"><a xlink:href="../../db/d40/classcellsociety__team01_1_1parser_1_1_parser.html#a31a05836dde41569f62542b9ea327f95" target="_top" xlink:title="cellsociety_team01.parser.\lParser.parseXmlFile">
<polygon fill="white" stroke="black" points="388.5,-24 388.5,-54 533.5,-54 533.5,-24 388.5,-24"/>
<text text-anchor="start" x="396.5" y="-42" font-family="Helvetica,sans-Serif" font-size="10.00">cellsociety_team01.parser.</text>
<text text-anchor="middle" x="461" y="-31" font-family="Helvetica,sans-Serif" font-size="10.00">Parser.parseXmlFile</text>
</a>
</g>
</g>
<!-- Node2&#45;&gt;Node3 -->
<g id="edge2" class="edge"><title>Node2&#45;&gt;Node3</title>
<path fill="none" stroke="midnightblue" d="M361.921,-39C370.722,-39 379.626,-39 388.295,-39"/>
<polygon fill="midnightblue" stroke="midnightblue" points="361.658,-35.5001 351.658,-39 361.658,-42.5001 361.658,-35.5001"/>
</g>
<!-- Node4 -->
<g id="node4" class="node"><title>Node4</title>
<g id="a_node4"><a xlink:href="../../db/d10/classcellsociety__team01_1_1modelview_1_1_g_u_i.html#afa183319cc9816a6147cba0869ef82eb" target="_top" xlink:title="cellsociety_team01.modelview.\lGUI.loadXML">
<polygon fill="white" stroke="black" points="570,-49 570,-79 734,-79 734,-49 570,-49"/>
<text text-anchor="start" x="578" y="-67" font-family="Helvetica,sans-Serif" font-size="10.00">cellsociety_team01.modelview.</text>
<text text-anchor="middle" x="652" y="-56" font-family="Helvetica,sans-Serif" font-size="10.00">GUI.loadXML</text>
</a>
</g>
</g>
<!-- Node3&#45;&gt;Node4 -->
<g id="edge3" class="edge"><title>Node3&#45;&gt;Node4</title>
<path fill="none" stroke="midnightblue" d="M543.781,-49.8175C552.42,-50.9604 561.205,-52.1223 569.837,-53.2642"/>
<polygon fill="midnightblue" stroke="midnightblue" points="544.095,-46.3287 533.722,-48.4871 543.177,-53.2683 544.095,-46.3287"/>
</g>
<!-- Node7 -->
<g id="node7" class="node"><title>Node7</title>
<g id="a_node7"><a xlink:href="../../db/d10/classcellsociety__team01_1_1modelview_1_1_g_u_i.html#a5c5e37ae72fe72af97fab2cb9a12b045" target="_top" xlink:title="cellsociety_team01.modelview.\lGUI.reset">
<polygon fill="white" stroke="black" points="570,-0 570,-30 734,-30 734,-0 570,-0"/>
<text text-anchor="start" x="578" y="-18" font-family="Helvetica,sans-Serif" font-size="10.00">cellsociety_team01.modelview.</text>
<text text-anchor="middle" x="652" y="-7" font-family="Helvetica,sans-Serif" font-size="10.00">GUI.reset</text>
</a>
</g>
</g>
<!-- Node3&#45;&gt;Node7 -->
<g id="edge6" class="edge"><title>Node3&#45;&gt;Node7</title>
<path fill="none" stroke="midnightblue" d="M543.781,-28.6152C552.42,-27.518 561.205,-26.4026 569.837,-25.3064"/>
<polygon fill="midnightblue" stroke="midnightblue" points="543.202,-25.1605 533.722,-29.8924 544.084,-32.1047 543.202,-25.1605"/>
</g>
<!-- Node5 -->
<g id="node5" class="node"><title>Node5</title>
<g id="a_node5"><a xlink:href="../../db/d10/classcellsociety__team01_1_1modelview_1_1_g_u_i.html#a4072ce794f518e806e7a912892f1e9da" target="_top" xlink:title="cellsociety_team01.modelview.\lGUI.makeMenuBar">
<polygon fill="white" stroke="black" points="770,-49 770,-79 934,-79 934,-49 770,-49"/>
<text text-anchor="start" x="778" y="-67" font-family="Helvetica,sans-Serif" font-size="10.00">cellsociety_team01.modelview.</text>
<text text-anchor="middle" x="852" y="-56" font-family="Helvetica,sans-Serif" font-size="10.00">GUI.makeMenuBar</text>
</a>
</g>
</g>
<!-- Node4&#45;&gt;Node5 -->
<g id="edge4" class="edge"><title>Node4&#45;&gt;Node5</title>
<path fill="none" stroke="midnightblue" d="M744.363,-64C752.817,-64 761.346,-64 769.7,-64"/>
<polygon fill="midnightblue" stroke="midnightblue" points="744.106,-60.5001 734.105,-64 744.105,-67.5001 744.106,-60.5001"/>
</g>
<!-- Node6 -->
<g id="node6" class="node"><title>Node6</title>
<g id="a_node6"><a xlink:href="../../db/d10/classcellsociety__team01_1_1modelview_1_1_g_u_i.html#a07bcff60812627c8dfe97f1aadc671e5" target="_top" xlink:title="cellsociety_team01.modelview.\lGUI.GUI">
<polygon fill="white" stroke="black" points="970,-24 970,-54 1134,-54 1134,-24 970,-24"/>
<text text-anchor="start" x="978" y="-42" font-family="Helvetica,sans-Serif" font-size="10.00">cellsociety_team01.modelview.</text>
<text text-anchor="middle" x="1052" y="-31" font-family="Helvetica,sans-Serif" font-size="10.00">GUI.GUI</text>
</a>
</g>
</g>
<!-- Node5&#45;&gt;Node6 -->
<g id="edge5" class="edge"><title>Node5&#45;&gt;Node6</title>
<path fill="none" stroke="midnightblue" d="M944.085,-52.4994C952.63,-51.4205 961.254,-50.3316 969.7,-49.2651"/>
<polygon fill="midnightblue" stroke="midnightblue" points="943.588,-49.0342 934.105,-53.7594 944.465,-55.9791 943.588,-49.0342"/>
</g>
<!-- Node8 -->
<g id="node8" class="node"><title>Node8</title>
<g id="a_node8"><a xlink:href="../../db/d10/classcellsociety__team01_1_1modelview_1_1_g_u_i.html#aa924c28ce131195d3f377b18177f6cb9" target="_top" xlink:title="cellsociety_team01.modelview.\lGUI.makeButtonsAndSlider">
<polygon fill="white" stroke="black" points="770,-0 770,-30 934,-30 934,-0 770,-0"/>
<text text-anchor="start" x="778" y="-18" font-family="Helvetica,sans-Serif" font-size="10.00">cellsociety_team01.modelview.</text>
<text text-anchor="middle" x="852" y="-7" font-family="Helvetica,sans-Serif" font-size="10.00">GUI.makeButtonsAndSlider</text>
</a>
</g>
</g>
<!-- Node7&#45;&gt;Node8 -->
<g id="edge7" class="edge"><title>Node7&#45;&gt;Node8</title>
<path fill="none" stroke="midnightblue" d="M744.363,-15C752.817,-15 761.346,-15 769.7,-15"/>
<polygon fill="midnightblue" stroke="midnightblue" points="744.106,-11.5001 734.105,-15 744.105,-18.5001 744.106,-11.5001"/>
</g>
<!-- Node8&#45;&gt;Node6 -->
<g id="edge8" class="edge"><title>Node8&#45;&gt;Node6</title>
<path fill="none" stroke="midnightblue" d="M944.085,-26.0406C952.63,-27.0763 961.254,-28.1217 969.7,-29.1455"/>
<polygon fill="midnightblue" stroke="midnightblue" points="944.454,-22.5598 934.105,-24.831 943.612,-29.5089 944.454,-22.5598"/>
</g>
</g>
</svg>
