<?xml version="1.0" encoding="UTF-8" standalone="no"?>
<!DOCTYPE svg PUBLIC "-//W3C//DTD SVG 1.1//EN"
 "http://www.w3.org/Graphics/SVG/1.1/DTD/svg11.dtd">
<!-- Generated by graphviz version 2.36.0 (20140111.2315)
 -->
<!-- Title: cellsociety_team01.modelview.RefineNeighborsAlgorithm.findCellForPair Pages: 1 -->
<svg width="428pt" height="169pt"
 viewBox="0.00 0.00 428.00 169.00" xmlns="http://www.w3.org/2000/svg" xmlns:xlink="http://www.w3.org/1999/xlink">
<g id="graph0" class="graph" transform="scale(1 1) rotate(0) translate(4 165)">
<title>cellsociety_team01.modelview.RefineNeighborsAlgorithm.findCellForPair</title>
<polygon fill="white" stroke="none" points="-4,4 -4,-165 424,-165 424,4 -4,4"/>
<!-- Node1 -->
<g id="node1" class="node"><title>Node1</title>
<polygon fill="#bfbfbf" stroke="black" points="0,-59.5 0,-100.5 178,-100.5 178,-59.5 0,-59.5"/>
<text text-anchor="start" x="8" y="-88.5" font-family="Helvetica,sans-Serif" font-size="10.00">cellsociety_team01.modelview.</text>
<text text-anchor="start" x="8" y="-77.5" font-family="Helvetica,sans-Serif" font-size="10.00">RefineNeighborsAlgorithm.findCell</text>
<text text-anchor="middle" x="89" y="-66.5" font-family="Helvetica,sans-Serif" font-size="10.00">ForPair</text>
</g>
<!-- Node2 -->
<g id="node2" class="node"><title>Node2</title>
<g id="a_node2"><a xlink:href="../../d5/de8/classcellsociety__team01_1_1modelview_1_1_finite_refine_neighbors_algorithm.html#a15ebe108e8e06d9b21904b3578630f69" target="_top" xlink:title="cellsociety_team01.modelview.\lFiniteRefineNeighborsAlgorithm.refine\lNeighbors">
<polygon fill="white" stroke="black" points="219.5,-119.5 219.5,-160.5 414.5,-160.5 414.5,-119.5 219.5,-119.5"/>
<text text-anchor="start" x="227.5" y="-148.5" font-family="Helvetica,sans-Serif" font-size="10.00">cellsociety_team01.modelview.</text>
<text text-anchor="start" x="227.5" y="-137.5" font-family="Helvetica,sans-Serif" font-size="10.00">FiniteRefineNeighborsAlgorithm.refine</text>
<text text-anchor="middle" x="317" y="-126.5" font-family="Helvetica,sans-Serif" font-size="10.00">Neighbors</text>
</a>
</g>
</g>
<!-- Node1&#45;&gt;Node2 -->
<g id="edge1" class="edge"><title>Node1&#45;&gt;Node2</title>
<path fill="none" stroke="midnightblue" d="M177.281,-103.172C197.501,-108.54 218.881,-114.216 238.641,-119.462"/>
<polygon fill="midnightblue" stroke="midnightblue" points="178.023,-99.7479 167.46,-100.565 176.227,-106.514 178.023,-99.7479"/>
</g>
<!-- Node3 -->
<g id="node3" class="node"><title>Node3</title>
<g id="a_node3"><a xlink:href="../../db/da5/classcellsociety__team01_1_1modelview_1_1_toroidal_refine_neighbors_algorithm.html#ace611e2d26e644366ffb356e27028159" target="_top" xlink:title="cellsociety_team01.modelview.\lToroidalRefineNeighborsAlgorithm.refine\lNeighbors">
<polygon fill="white" stroke="black" points="214,-59.5 214,-100.5 420,-100.5 420,-59.5 214,-59.5"/>
<text text-anchor="start" x="222" y="-88.5" font-family="Helvetica,sans-Serif" font-size="10.00">cellsociety_team01.modelview.</text>
<text text-anchor="start" x="222" y="-77.5" font-family="Helvetica,sans-Serif" font-size="10.00">ToroidalRefineNeighborsAlgorithm.refine</text>
<text text-anchor="middle" x="317" y="-66.5" font-family="Helvetica,sans-Serif" font-size="10.00">Neighbors</text>
</a>
</g>
</g>
<!-- Node1&#45;&gt;Node3 -->
<g id="edge2" class="edge"><title>Node1&#45;&gt;Node3</title>
<path fill="none" stroke="midnightblue" d="M188.037,-80C196.623,-80 205.326,-80 213.943,-80"/>
<polygon fill="midnightblue" stroke="midnightblue" points="188.025,-76.5001 178.025,-80 188.025,-83.5001 188.025,-76.5001"/>
</g>
<!-- Node4 -->
<g id="node4" class="node"><title>Node4</title>
<g id="a_node4"><a xlink:href="../../d7/d7c/classcellsociety__team01_1_1modelview_1_1_infinite_refine_neighbors_algorithm.html#a79a4426580d25e90985b242d2f1d917e" target="_top" xlink:title="cellsociety_team01.modelview.\lInfiniteRefineNeighborsAlgorithm.refine\lNeighbors">
<polygon fill="white" stroke="black" points="216,0.5 216,-40.5 418,-40.5 418,0.5 216,0.5"/>
<text text-anchor="start" x="224" y="-28.5" font-family="Helvetica,sans-Serif" font-size="10.00">cellsociety_team01.modelview.</text>
<text text-anchor="start" x="224" y="-17.5" font-family="Helvetica,sans-Serif" font-size="10.00">InfiniteRefineNeighborsAlgorithm.refine</text>
<text text-anchor="middle" x="317" y="-6.5" font-family="Helvetica,sans-Serif" font-size="10.00">Neighbors</text>
</a>
</g>
</g>
<!-- Node1&#45;&gt;Node4 -->
<g id="edge3" class="edge"><title>Node1&#45;&gt;Node4</title>
<path fill="none" stroke="midnightblue" d="M177.281,-56.8281C197.501,-51.46 218.881,-45.7838 238.641,-40.5378"/>
<polygon fill="midnightblue" stroke="midnightblue" points="176.227,-53.4865 167.46,-59.4353 178.023,-60.2521 176.227,-53.4865"/>
</g>
</g>
</svg>
