<?xml version="1.0" encoding="UTF-8" standalone="no"?>
<!DOCTYPE svg PUBLIC "-//W3C//DTD SVG 1.1//EN"
 "http://www.w3.org/Graphics/SVG/1.1/DTD/svg11.dtd">
<!-- Generated by graphviz version 2.36.0 (20140111.2315)
 -->
<!-- Title: cellsociety_team01.modelview.RefineNeighborsAlgorithm.refineNeighbors Pages: 1 -->
<svg width="1792pt" height="87pt"
 viewBox="0.00 0.00 1792.00 87.00" xmlns="http://www.w3.org/2000/svg" xmlns:xlink="http://www.w3.org/1999/xlink">
<g id="graph0" class="graph" transform="scale(1 1) rotate(0) translate(4 83)">
<title>cellsociety_team01.modelview.RefineNeighborsAlgorithm.refineNeighbors</title>
<polygon fill="white" stroke="none" points="-4,4 -4,-83 1788,-83 1788,4 -4,4"/>
<!-- Node1 -->
<g id="node1" class="node"><title>Node1</title>
<polygon fill="#bfbfbf" stroke="black" points="0.5,-24 0.5,-54 219.5,-54 219.5,-24 0.5,-24"/>
<text text-anchor="start" x="8.5" y="-42" font-family="Helvetica,sans-Serif" font-size="10.00">cellsociety_team01.modelview.</text>
<text text-anchor="middle" x="110" y="-31" font-family="Helvetica,sans-Serif" font-size="10.00">RefineNeighborsAlgorithm.refineNeighbors</text>
</g>
<!-- Node2 -->
<g id="node2" class="node"><title>Node2</title>
<g id="a_node2"><a xlink:href="../../d7/de1/classcellsociety__team01_1_1modelview_1_1_grid_model.html#a5eaf505d5ea180f419030aaf7b0fb645" target="_top" xlink:title="cellsociety_team01.modelview.\lGridModel.verifyNeighbors">
<polygon fill="white" stroke="black" points="256,-24 256,-54 420,-54 420,-24 256,-24"/>
<text text-anchor="start" x="264" y="-42" font-family="Helvetica,sans-Serif" font-size="10.00">cellsociety_team01.modelview.</text>
<text text-anchor="middle" x="338" y="-31" font-family="Helvetica,sans-Serif" font-size="10.00">GridModel.verifyNeighbors</text>
</a>
</g>
</g>
<!-- Node1&#45;&gt;Node2 -->
<g id="edge1" class="edge"><title>Node1&#45;&gt;Node2</title>
<path fill="none" stroke="midnightblue" d="M229.719,-39C238.588,-39 247.41,-39 255.965,-39"/>
<polygon fill="midnightblue" stroke="midnightblue" points="229.697,-35.5001 219.697,-39 229.697,-42.5001 229.697,-35.5001"/>
</g>
<!-- Node3 -->
<g id="node3" class="node"><title>Node3</title>
<g id="a_node3"><a xlink:href="../../d7/de1/classcellsociety__team01_1_1modelview_1_1_grid_model.html#a50a93468046d735bbc41c59ee14df150" target="_top" xlink:title="cellsociety_team01.modelview.\lGridModel.setNeighbors">
<polygon fill="white" stroke="black" points="456,-24 456,-54 620,-54 620,-24 456,-24"/>
<text text-anchor="start" x="464" y="-42" font-family="Helvetica,sans-Serif" font-size="10.00">cellsociety_team01.modelview.</text>
<text text-anchor="middle" x="538" y="-31" font-family="Helvetica,sans-Serif" font-size="10.00">GridModel.setNeighbors</text>
</a>
</g>
</g>
<!-- Node2&#45;&gt;Node3 -->
<g id="edge2" class="edge"><title>Node2&#45;&gt;Node3</title>
<path fill="none" stroke="midnightblue" d="M430.363,-39C438.817,-39 447.346,-39 455.7,-39"/>
<polygon fill="midnightblue" stroke="midnightblue" points="430.106,-35.5001 420.105,-39 430.105,-42.5001 430.106,-35.5001"/>
</g>
<!-- Node4 -->
<g id="node4" class="node"><title>Node4</title>
<g id="a_node4"><a xlink:href="../../d2/d8b/classcellsociety__team01_1_1modelview_1_1_grid.html#a959c40c0688692c45eb4677c4ad9e313" target="_top" xlink:title="cellsociety_team01.modelview.\lGrid.setNeighbors">
<polygon fill="white" stroke="black" points="656,-24 656,-54 820,-54 820,-24 656,-24"/>
<text text-anchor="start" x="664" y="-42" font-family="Helvetica,sans-Serif" font-size="10.00">cellsociety_team01.modelview.</text>
<text text-anchor="middle" x="738" y="-31" font-family="Helvetica,sans-Serif" font-size="10.00">Grid.setNeighbors</text>
</a>
</g>
</g>
<!-- Node3&#45;&gt;Node4 -->
<g id="edge3" class="edge"><title>Node3&#45;&gt;Node4</title>
<path fill="none" stroke="midnightblue" d="M630.363,-39C638.817,-39 647.346,-39 655.7,-39"/>
<polygon fill="midnightblue" stroke="midnightblue" points="630.106,-35.5001 620.105,-39 630.105,-42.5001 630.106,-35.5001"/>
</g>
<!-- Node5 -->
<g id="node5" class="node"><title>Node5</title>
<g id="a_node5"><a xlink:href="../../db/d40/classcellsociety__team01_1_1parser_1_1_parser.html#afa693f17f280ab1cf88baf2565c593a9" target="_top" xlink:title="cellsociety_team01.parser.\lParser.parseGrid">
<polygon fill="white" stroke="black" points="856.5,-24 856.5,-54 1001.5,-54 1001.5,-24 856.5,-24"/>
<text text-anchor="start" x="864.5" y="-42" font-family="Helvetica,sans-Serif" font-size="10.00">cellsociety_team01.parser.</text>
<text text-anchor="middle" x="929" y="-31" font-family="Helvetica,sans-Serif" font-size="10.00">Parser.parseGrid</text>
</a>
</g>
</g>
<!-- Node4&#45;&gt;Node5 -->
<g id="edge4" class="edge"><title>Node4&#45;&gt;Node5</title>
<path fill="none" stroke="midnightblue" d="M830.431,-39C839.133,-39 847.869,-39 856.345,-39"/>
<polygon fill="midnightblue" stroke="midnightblue" points="830.25,-35.5001 820.25,-39 830.25,-42.5001 830.25,-35.5001"/>
</g>
<!-- Node6 -->
<g id="node6" class="node"><title>Node6</title>
<g id="a_node6"><a xlink:href="../../db/d40/classcellsociety__team01_1_1parser_1_1_parser.html#a31a05836dde41569f62542b9ea327f95" target="_top" xlink:title="cellsociety_team01.parser.\lParser.parseXmlFile">
<polygon fill="white" stroke="black" points="1038.5,-24 1038.5,-54 1183.5,-54 1183.5,-24 1038.5,-24"/>
<text text-anchor="start" x="1046.5" y="-42" font-family="Helvetica,sans-Serif" font-size="10.00">cellsociety_team01.parser.</text>
<text text-anchor="middle" x="1111" y="-31" font-family="Helvetica,sans-Serif" font-size="10.00">Parser.parseXmlFile</text>
</a>
</g>
</g>
<!-- Node5&#45;&gt;Node6 -->
<g id="edge5" class="edge"><title>Node5&#45;&gt;Node6</title>
<path fill="none" stroke="midnightblue" d="M1011.92,-39C1020.72,-39 1029.63,-39 1038.29,-39"/>
<polygon fill="midnightblue" stroke="midnightblue" points="1011.66,-35.5001 1001.66,-39 1011.66,-42.5001 1011.66,-35.5001"/>
</g>
<!-- Node7 -->
<g id="node7" class="node"><title>Node7</title>
<g id="a_node7"><a xlink:href="../../db/d10/classcellsociety__team01_1_1modelview_1_1_g_u_i.html#afa183319cc9816a6147cba0869ef82eb" target="_top" xlink:title="cellsociety_team01.modelview.\lGUI.loadXML">
<polygon fill="white" stroke="black" points="1220,-49 1220,-79 1384,-79 1384,-49 1220,-49"/>
<text text-anchor="start" x="1228" y="-67" font-family="Helvetica,sans-Serif" font-size="10.00">cellsociety_team01.modelview.</text>
<text text-anchor="middle" x="1302" y="-56" font-family="Helvetica,sans-Serif" font-size="10.00">GUI.loadXML</text>
</a>
</g>
</g>
<!-- Node6&#45;&gt;Node7 -->
<g id="edge6" class="edge"><title>Node6&#45;&gt;Node7</title>
<path fill="none" stroke="midnightblue" d="M1193.78,-49.8175C1202.42,-50.9604 1211.2,-52.1223 1219.84,-53.2642"/>
<polygon fill="midnightblue" stroke="midnightblue" points="1194.09,-46.3287 1183.72,-48.4871 1193.18,-53.2683 1194.09,-46.3287"/>
</g>
<!-- Node10 -->
<g id="node10" class="node"><title>Node10</title>
<g id="a_node10"><a xlink:href="../../db/d10/classcellsociety__team01_1_1modelview_1_1_g_u_i.html#a5c5e37ae72fe72af97fab2cb9a12b045" target="_top" xlink:title="cellsociety_team01.modelview.\lGUI.reset">
<polygon fill="white" stroke="black" points="1220,-0 1220,-30 1384,-30 1384,-0 1220,-0"/>
<text text-anchor="start" x="1228" y="-18" font-family="Helvetica,sans-Serif" font-size="10.00">cellsociety_team01.modelview.</text>
<text text-anchor="middle" x="1302" y="-7" font-family="Helvetica,sans-Serif" font-size="10.00">GUI.reset</text>
</a>
</g>
</g>
<!-- Node6&#45;&gt;Node10 -->
<g id="edge9" class="edge"><title>Node6&#45;&gt;Node10</title>
<path fill="none" stroke="midnightblue" d="M1193.78,-28.6152C1202.42,-27.518 1211.2,-26.4026 1219.84,-25.3064"/>
<polygon fill="midnightblue" stroke="midnightblue" points="1193.2,-25.1605 1183.72,-29.8924 1194.08,-32.1047 1193.2,-25.1605"/>
</g>
<!-- Node8 -->
<g id="node8" class="node"><title>Node8</title>
<g id="a_node8"><a xlink:href="../../db/d10/classcellsociety__team01_1_1modelview_1_1_g_u_i.html#a4072ce794f518e806e7a912892f1e9da" target="_top" xlink:title="cellsociety_team01.modelview.\lGUI.makeMenuBar">
<polygon fill="white" stroke="black" points="1420,-49 1420,-79 1584,-79 1584,-49 1420,-49"/>
<text text-anchor="start" x="1428" y="-67" font-family="Helvetica,sans-Serif" font-size="10.00">cellsociety_team01.modelview.</text>
<text text-anchor="middle" x="1502" y="-56" font-family="Helvetica,sans-Serif" font-size="10.00">GUI.makeMenuBar</text>
</a>
</g>
</g>
<!-- Node7&#45;&gt;Node8 -->
<g id="edge7" class="edge"><title>Node7&#45;&gt;Node8</title>
<path fill="none" stroke="midnightblue" d="M1394.36,-64C1402.82,-64 1411.35,-64 1419.7,-64"/>
<polygon fill="midnightblue" stroke="midnightblue" points="1394.11,-60.5001 1384.11,-64 1394.11,-67.5001 1394.11,-60.5001"/>
</g>
<!-- Node9 -->
<g id="node9" class="node"><title>Node9</title>
<g id="a_node9"><a xlink:href="../../db/d10/classcellsociety__team01_1_1modelview_1_1_g_u_i.html#a07bcff60812627c8dfe97f1aadc671e5" target="_top" xlink:title="cellsociety_team01.modelview.\lGUI.GUI">
<polygon fill="white" stroke="black" points="1620,-24 1620,-54 1784,-54 1784,-24 1620,-24"/>
<text text-anchor="start" x="1628" y="-42" font-family="Helvetica,sans-Serif" font-size="10.00">cellsociety_team01.modelview.</text>
<text text-anchor="middle" x="1702" y="-31" font-family="Helvetica,sans-Serif" font-size="10.00">GUI.GUI</text>
</a>
</g>
</g>
<!-- Node8&#45;&gt;Node9 -->
<g id="edge8" class="edge"><title>Node8&#45;&gt;Node9</title>
<path fill="none" stroke="midnightblue" d="M1594.08,-52.4994C1602.63,-51.4205 1611.25,-50.3316 1619.7,-49.2651"/>
<polygon fill="midnightblue" stroke="midnightblue" points="1593.59,-49.0342 1584.11,-53.7594 1594.47,-55.9791 1593.59,-49.0342"/>
</g>
<!-- Node11 -->
<g id="node11" class="node"><title>Node11</title>
<g id="a_node11"><a xlink:href="../../db/d10/classcellsociety__team01_1_1modelview_1_1_g_u_i.html#aa924c28ce131195d3f377b18177f6cb9" target="_top" xlink:title="cellsociety_team01.modelview.\lGUI.makeButtonsAndSlider">
<polygon fill="white" stroke="black" points="1420,-0 1420,-30 1584,-30 1584,-0 1420,-0"/>
<text text-anchor="start" x="1428" y="-18" font-family="Helvetica,sans-Serif" font-size="10.00">cellsociety_team01.modelview.</text>
<text text-anchor="middle" x="1502" y="-7" font-family="Helvetica,sans-Serif" font-size="10.00">GUI.makeButtonsAndSlider</text>
</a>
</g>
</g>
<!-- Node10&#45;&gt;Node11 -->
<g id="edge10" class="edge"><title>Node10&#45;&gt;Node11</title>
<path fill="none" stroke="midnightblue" d="M1394.36,-15C1402.82,-15 1411.35,-15 1419.7,-15"/>
<polygon fill="midnightblue" stroke="midnightblue" points="1394.11,-11.5001 1384.11,-15 1394.11,-18.5001 1394.11,-11.5001"/>
</g>
<!-- Node11&#45;&gt;Node9 -->
<g id="edge11" class="edge"><title>Node11&#45;&gt;Node9</title>
<path fill="none" stroke="midnightblue" d="M1594.08,-26.0406C1602.63,-27.0763 1611.25,-28.1217 1619.7,-29.1455"/>
<polygon fill="midnightblue" stroke="midnightblue" points="1594.45,-22.5598 1584.11,-24.831 1593.61,-29.5089 1594.45,-22.5598"/>
</g>
</g>
</svg>
