<?xml version="1.0" encoding="UTF-8" standalone="no"?>
<!DOCTYPE svg PUBLIC "-//W3C//DTD SVG 1.1//EN"
 "http://www.w3.org/Graphics/SVG/1.1/DTD/svg11.dtd">
<!-- Generated by graphviz version 2.36.0 (20140111.2315)
 -->
<!-- Title: cellsociety_team01.modelview.RefineNeighborsAlgorithm.findCellForPair Pages: 1 -->
<svg width="376pt" height="66pt"
 viewBox="0.00 0.00 376.00 66.00" xmlns="http://www.w3.org/2000/svg" xmlns:xlink="http://www.w3.org/1999/xlink">
<g id="graph0" class="graph" transform="scale(1 1) rotate(0) translate(4 62)">
<title>cellsociety_team01.modelview.RefineNeighborsAlgorithm.findCellForPair</title>
<polygon fill="white" stroke="none" points="-4,4 -4,-62 372,-62 372,4 -4,4"/>
<!-- Node1 -->
<g id="node1" class="node"><title>Node1</title>
<polygon fill="#bfbfbf" stroke="black" points="0,-8.5 0,-49.5 178,-49.5 178,-8.5 0,-8.5"/>
<text text-anchor="start" x="8" y="-37.5" font-family="Helvetica,sans-Serif" font-size="10.00">cellsociety_team01.modelview.</text>
<text text-anchor="start" x="8" y="-26.5" font-family="Helvetica,sans-Serif" font-size="10.00">RefineNeighborsAlgorithm.findCell</text>
<text text-anchor="middle" x="89" y="-15.5" font-family="Helvetica,sans-Serif" font-size="10.00">ForPair</text>
</g>
<!-- Node2 -->
<g id="node2" class="node"><title>Node2</title>
<g id="a_node2"><a xlink:href="../../d8/d80/classcellsociety__team01_1_1_pair.html#a1a97e852278e185e3e50f37c826b12e8" target="_top" xlink:title="cellsociety_team01.Pair.getX">
<polygon fill="white" stroke="black" points="214.5,-38.5 214.5,-57.5 367.5,-57.5 367.5,-38.5 214.5,-38.5"/>
<text text-anchor="middle" x="291" y="-45.5" font-family="Helvetica,sans-Serif" font-size="10.00">cellsociety_team01.Pair.getX</text>
</a>
</g>
</g>
<!-- Node1&#45;&gt;Node2 -->
<g id="edge1" class="edge"><title>Node1&#45;&gt;Node2</title>
<path fill="none" stroke="midnightblue" d="M178.014,-37.3613C186.752,-38.1914 195.613,-39.0333 204.327,-39.861"/>
<polygon fill="midnightblue" stroke="midnightblue" points="204.185,-43.3632 214.471,-40.8247 204.847,-36.3946 204.185,-43.3632"/>
</g>
<!-- Node3 -->
<g id="node3" class="node"><title>Node3</title>
<g id="a_node3"><a xlink:href="../../d8/d80/classcellsociety__team01_1_1_pair.html#a8bf4fdfd4efdf9e3b37eb69706b3b952" target="_top" xlink:title="cellsociety_team01.Pair.getY">
<polygon fill="white" stroke="black" points="215,-0.5 215,-19.5 367,-19.5 367,-0.5 215,-0.5"/>
<text text-anchor="middle" x="291" y="-7.5" font-family="Helvetica,sans-Serif" font-size="10.00">cellsociety_team01.Pair.getY</text>
</a>
</g>
</g>
<!-- Node1&#45;&gt;Node3 -->
<g id="edge2" class="edge"><title>Node1&#45;&gt;Node3</title>
<path fill="none" stroke="midnightblue" d="M178.014,-20.6387C186.827,-19.8014 195.766,-18.9522 204.552,-18.1176"/>
<polygon fill="midnightblue" stroke="midnightblue" points="205.155,-21.5762 214.779,-17.146 204.492,-14.6075 205.155,-21.5762"/>
</g>
</g>
</svg>
