<?xml version="1.0" encoding="UTF-8" standalone="no"?>
<!DOCTYPE svg PUBLIC "-//W3C//DTD SVG 1.1//EN"
 "http://www.w3.org/Graphics/SVG/1.1/DTD/svg11.dtd">
<!-- Generated by graphviz version 2.36.0 (20140111.2315)
 -->
<!-- Title: cellsociety_team01.rules.ChangingRule Pages: 1 -->
<svg width="341pt" height="198pt"
 viewBox="0.00 0.00 341.00 198.00" xmlns="http://www.w3.org/2000/svg" xmlns:xlink="http://www.w3.org/1999/xlink">
<g id="graph0" class="graph" transform="scale(1 1) rotate(0) translate(4 194)">
<title>cellsociety_team01.rules.ChangingRule</title>
<polygon fill="white" stroke="none" points="-4,4 -4,-194 337,-194 337,4 -4,4"/>
<!-- Node1 -->
<g id="node1" class="node"><title>Node1</title>
<polygon fill="#bfbfbf" stroke="black" points="61,-1 61,-31 199,-31 199,-1 61,-1"/>
<text text-anchor="start" x="69" y="-19" font-family="Helvetica,sans-Serif" font-size="10.00">cellsociety_team01.rules.</text>
<text text-anchor="middle" x="130" y="-8" font-family="Helvetica,sans-Serif" font-size="10.00">ChangingRule</text>
</g>
<!-- Node2 -->
<g id="node2" class="node"><title>Node2</title>
<g id="a_node2"><a xlink:href="../../d4/d46/classcellsociety__team01_1_1rules_1_1_rule.html" target="_top" xlink:title="cellsociety_team01.rules.Rule">
<polygon fill="white" stroke="black" points="-1,-96.5 -1,-115.5 157,-115.5 157,-96.5 -1,-96.5"/>
<text text-anchor="middle" x="78" y="-103.5" font-family="Helvetica,sans-Serif" font-size="10.00">cellsociety_team01.rules.Rule</text>
</a>
</g>
</g>
<!-- Node2&#45;&gt;Node1 -->
<g id="edge1" class="edge"><title>Node2&#45;&gt;Node1</title>
<path fill="none" stroke="midnightblue" d="M88.2992,-87.5706C98.0557,-71.0595 112.528,-46.5682 121.604,-31.209"/>
<polygon fill="midnightblue" stroke="midnightblue" points="85.2502,-85.8507 83.1761,-96.2405 91.2767,-89.4118 85.2502,-85.8507"/>
</g>
<!-- Node3 -->
<g id="node3" class="node"><title>Node3</title>
<g id="a_node3"><a xlink:href="../../d2/d65/classcellsociety__team01_1_1_cell_state_1_1_state.html" target="_top" xlink:title="cellsociety_team01.CellState.\lState">
<polygon fill="white" stroke="black" points="175,-91 175,-121 333,-121 333,-91 175,-91"/>
<text text-anchor="start" x="183" y="-109" font-family="Helvetica,sans-Serif" font-size="10.00">cellsociety_team01.CellState.</text>
<text text-anchor="middle" x="254" y="-98" font-family="Helvetica,sans-Serif" font-size="10.00">State</text>
</a>
</g>
</g>
<!-- Node3&#45;&gt;Node1 -->
<g id="edge2" class="edge"><title>Node3&#45;&gt;Node1</title>
<path fill="none" stroke="#9a32cd" stroke-dasharray="5,2" d="M225.686,-84.9065C202.531,-68.4734 170.373,-45.6518 149.873,-31.1036"/>
<polygon fill="#9a32cd" stroke="#9a32cd" points="223.897,-87.928 234.077,-90.8613 227.948,-82.2195 223.897,-87.928"/>
<text text-anchor="middle" x="227.5" y="-64" font-family="Helvetica,sans-Serif" font-size="10.00"> myStart</text>
<text text-anchor="middle" x="227.5" y="-53" font-family="Helvetica,sans-Serif" font-size="10.00">myEnd</text>
</g>
<!-- Node4 -->
<g id="node4" class="node"><title>Node4</title>
<polygon fill="white" stroke="#bfbfbf" points="233.5,-170.5 233.5,-189.5 274.5,-189.5 274.5,-170.5 233.5,-170.5"/>
<text text-anchor="middle" x="254" y="-177.5" font-family="Helvetica,sans-Serif" font-size="10.00">Color</text>
</g>
<!-- Node4&#45;&gt;Node3 -->
<g id="edge3" class="edge"><title>Node4&#45;&gt;Node3</title>
<path fill="none" stroke="#9a32cd" stroke-dasharray="5,2" d="M254,-160.085C254,-147.915 254,-132.354 254,-121.232"/>
<polygon fill="#9a32cd" stroke="#9a32cd" points="250.5,-160.458 254,-170.458 257.5,-160.458 250.5,-160.458"/>
<text text-anchor="middle" x="275.5" y="-143.5" font-family="Helvetica,sans-Serif" font-size="10.00"> myColor</text>
</g>
</g>
</svg>
