<?xml version="1.0" encoding="UTF-8" standalone="no"?>
<!DOCTYPE svg PUBLIC "-//W3C//DTD SVG 1.1//EN"
 "http://www.w3.org/Graphics/SVG/1.1/DTD/svg11.dtd">
<!-- Generated by graphviz version 2.36.0 (20140111.2315)
 -->
<!-- Title: cellsociety_team01.CellState.Cell.setCurState Pages: 1 -->
<svg width="766pt" height="272pt"
 viewBox="0.00 0.00 766.00 272.00" xmlns="http://www.w3.org/2000/svg" xmlns:xlink="http://www.w3.org/1999/xlink">
<g id="graph0" class="graph" transform="scale(1 1) rotate(0) translate(4 268)">
<title>cellsociety_team01.CellState.Cell.setCurState</title>
<polygon fill="white" stroke="none" points="-4,4 -4,-268 762,-268 762,4 -4,4"/>
<!-- Node1 -->
<g id="node1" class="node"><title>Node1</title>
<polygon fill="#bfbfbf" stroke="black" points="0,-114 0,-144 158,-144 158,-114 0,-114"/>
<text text-anchor="start" x="8" y="-132" font-family="Helvetica,sans-Serif" font-size="10.00">cellsociety_team01.CellState.</text>
<text text-anchor="middle" x="79" y="-121" font-family="Helvetica,sans-Serif" font-size="10.00">Cell.setCurState</text>
</g>
<!-- Node2 -->
<g id="node2" class="node"><title>Node2</title>
<g id="a_node2"><a xlink:href="../../d4/d0c/classcellsociety__team01_1_1rules_1_1_uphill_movement_rule.html#a7c3becfa5ede6439f068dfbb086b650c" target="_top" xlink:title="cellsociety_team01.rules.\lUphillMovementRule.apply">
<polygon fill="white" stroke="black" points="219,-234 219,-264 361,-264 361,-234 219,-234"/>
<text text-anchor="start" x="227" y="-252" font-family="Helvetica,sans-Serif" font-size="10.00">cellsociety_team01.rules.</text>
<text text-anchor="middle" x="290" y="-241" font-family="Helvetica,sans-Serif" font-size="10.00">UphillMovementRule.apply</text>
</a>
</g>
</g>
<!-- Node1&#45;&gt;Node2 -->
<g id="edge1" class="edge"><title>Node1&#45;&gt;Node2</title>
<path fill="none" stroke="midnightblue" d="M100.925,-151.404C122.332,-173.036 157.539,-205.202 194,-224 201.807,-228.025 210.317,-231.442 218.932,-234.333"/>
<polygon fill="midnightblue" stroke="midnightblue" points="103.43,-148.96 93.9486,-144.231 98.4115,-153.84 103.43,-148.96"/>
</g>
<!-- Node3 -->
<g id="node3" class="node"><title>Node3</title>
<g id="a_node3"><a xlink:href="../../d8/dd6/classcellsociety__team01_1_1rules_1_1_priority_forward_rule.html#af3653ecda655c212e7b82252d01b8ae6" target="_top" xlink:title="cellsociety_team01.rules.\lPriorityForwardRule.apply">
<polygon fill="white" stroke="black" points="221,-185 221,-215 359,-215 359,-185 221,-185"/>
<text text-anchor="start" x="229" y="-203" font-family="Helvetica,sans-Serif" font-size="10.00">cellsociety_team01.rules.</text>
<text text-anchor="middle" x="290" y="-192" font-family="Helvetica,sans-Serif" font-size="10.00">PriorityForwardRule.apply</text>
</a>
</g>
</g>
<!-- Node1&#45;&gt;Node3 -->
<g id="edge2" class="edge"><title>Node1&#45;&gt;Node3</title>
<path fill="none" stroke="midnightblue" d="M123.331,-147.986C144.421,-156.838 170.286,-167.13 194,-175 204.683,-178.545 216.172,-181.924 227.341,-184.987"/>
<polygon fill="midnightblue" stroke="midnightblue" points="124.575,-144.711 114.002,-144.033 121.844,-151.157 124.575,-144.711"/>
</g>
<!-- Node4 -->
<g id="node4" class="node"><title>Node4</title>
<g id="a_node4"><a xlink:href="../../d9/d10/classcellsociety__team01_1_1rules_1_1_movement_rule.html#a5f0521febc4a9092ad136a10e8307cea" target="_top" xlink:title="cellsociety_team01.rules.\lMovementRule.apply">
<polygon fill="white" stroke="black" points="221,-136 221,-166 359,-166 359,-136 221,-136"/>
<text text-anchor="start" x="229" y="-154" font-family="Helvetica,sans-Serif" font-size="10.00">cellsociety_team01.rules.</text>
<text text-anchor="middle" x="290" y="-143" font-family="Helvetica,sans-Serif" font-size="10.00">MovementRule.apply</text>
</a>
</g>
</g>
<!-- Node1&#45;&gt;Node4 -->
<g id="edge3" class="edge"><title>Node1&#45;&gt;Node4</title>
<path fill="none" stroke="midnightblue" d="M168.382,-138.303C185.958,-140.153 204.157,-142.069 220.926,-143.834"/>
<polygon fill="midnightblue" stroke="midnightblue" points="168.433,-134.789 158.121,-137.223 167.7,-141.751 168.433,-134.789"/>
</g>
<!-- Node5 -->
<g id="node5" class="node"><title>Node5</title>
<g id="a_node5"><a xlink:href="../../d4/d68/classcellsociety__team01_1_1rules_1_1_consumption_rule.html#ad98d5c884aa2be83cf2bb31cd3550208" target="_top" xlink:title="cellsociety_team01.rules.\lConsumptionRule.eat">
<polygon fill="white" stroke="black" points="434,-49 434,-79 572,-79 572,-49 434,-49"/>
<text text-anchor="start" x="442" y="-67" font-family="Helvetica,sans-Serif" font-size="10.00">cellsociety_team01.rules.</text>
<text text-anchor="middle" x="503" y="-56" font-family="Helvetica,sans-Serif" font-size="10.00">ConsumptionRule.eat</text>
</a>
</g>
</g>
<!-- Node1&#45;&gt;Node5 -->
<g id="edge4" class="edge"><title>Node1&#45;&gt;Node5</title>
<path fill="none" stroke="midnightblue" d="M168.328,-115.395C247.369,-103.22 361.595,-85.6263 433.795,-74.5054"/>
<polygon fill="midnightblue" stroke="midnightblue" points="167.737,-111.945 158.386,-116.926 168.802,-118.863 167.737,-111.945"/>
</g>
<!-- Node7 -->
<g id="node7" class="node"><title>Node7</title>
<g id="a_node7"><a xlink:href="../../d4/d68/classcellsociety__team01_1_1rules_1_1_consumption_rule.html#accd09b9da4e5bc487878397c2e8f45be" target="_top" xlink:title="cellsociety_team01.rules.\lConsumptionRule.kill">
<polygon fill="white" stroke="black" points="434,-98 434,-128 572,-128 572,-98 434,-98"/>
<text text-anchor="start" x="442" y="-116" font-family="Helvetica,sans-Serif" font-size="10.00">cellsociety_team01.rules.</text>
<text text-anchor="middle" x="503" y="-105" font-family="Helvetica,sans-Serif" font-size="10.00">ConsumptionRule.kill</text>
</a>
</g>
</g>
<!-- Node1&#45;&gt;Node7 -->
<g id="edge6" class="edge"><title>Node1&#45;&gt;Node7</title>
<path fill="none" stroke="midnightblue" d="M168.812,-125.633C247.834,-122.637 361.742,-118.318 433.795,-115.586"/>
<polygon fill="midnightblue" stroke="midnightblue" points="168.246,-122.152 158.386,-126.028 168.511,-129.147 168.246,-122.152"/>
</g>
<!-- Node8 -->
<g id="node8" class="node"><title>Node8</title>
<g id="a_node8"><a xlink:href="../../d9/d10/classcellsociety__team01_1_1rules_1_1_movement_rule.html#ab8ba87bafbedec6706b098ef2adce7fe" target="_top" xlink:title="cellsociety_team01.rules.\lMovementRule.switchStatesUpdated">
<polygon fill="white" stroke="black" points="194,-10 194,-40 386,-40 386,-10 194,-10"/>
<text text-anchor="start" x="202" y="-28" font-family="Helvetica,sans-Serif" font-size="10.00">cellsociety_team01.rules.</text>
<text text-anchor="middle" x="290" y="-17" font-family="Helvetica,sans-Serif" font-size="10.00">MovementRule.switchStatesUpdated</text>
</a>
</g>
</g>
<!-- Node1&#45;&gt;Node8 -->
<g id="edge8" class="edge"><title>Node1&#45;&gt;Node8</title>
<path fill="none" stroke="midnightblue" d="M107.953,-107.783C130.296,-91.5998 162.915,-69.6652 194,-55 206.123,-49.2806 219.612,-44.2747 232.53,-40.0745"/>
<polygon fill="midnightblue" stroke="midnightblue" points="105.618,-105.155 99.6259,-113.893 109.759,-110.799 105.618,-105.155"/>
</g>
<!-- Node6 -->
<g id="node6" class="node"><title>Node6</title>
<g id="a_node6"><a xlink:href="../../d4/d68/classcellsociety__team01_1_1rules_1_1_consumption_rule.html#a2298782f412ffc7b683876b65d6e2d03" target="_top" xlink:title="cellsociety_team01.rules.\lConsumptionRule.apply">
<polygon fill="white" stroke="black" points="620,-73 620,-103 758,-103 758,-73 620,-73"/>
<text text-anchor="start" x="628" y="-91" font-family="Helvetica,sans-Serif" font-size="10.00">cellsociety_team01.rules.</text>
<text text-anchor="middle" x="689" y="-80" font-family="Helvetica,sans-Serif" font-size="10.00">ConsumptionRule.apply</text>
</a>
</g>
</g>
<!-- Node5&#45;&gt;Node6 -->
<g id="edge5" class="edge"><title>Node5&#45;&gt;Node6</title>
<path fill="none" stroke="midnightblue" d="M582.202,-74.2003C594.724,-75.8335 607.594,-77.5123 619.857,-79.1118"/>
<polygon fill="midnightblue" stroke="midnightblue" points="582.622,-70.7255 572.253,-72.9026 581.717,-77.6667 582.622,-70.7255"/>
</g>
<!-- Node7&#45;&gt;Node6 -->
<g id="edge7" class="edge"><title>Node7&#45;&gt;Node6</title>
<path fill="none" stroke="midnightblue" d="M582.202,-102.375C594.724,-100.673 607.594,-98.9247 619.857,-97.2586"/>
<polygon fill="midnightblue" stroke="midnightblue" points="581.691,-98.9119 572.253,-103.726 582.634,-105.848 581.691,-98.9119"/>
</g>
<!-- Node8&#45;&gt;Node5 -->
<g id="edge9" class="edge"><title>Node8&#45;&gt;Node5</title>
<path fill="none" stroke="midnightblue" d="M382.364,-41.8871C399.621,-45.0769 417.393,-48.3618 433.786,-51.3918"/>
<polygon fill="midnightblue" stroke="midnightblue" points="382.746,-38.3986 372.276,-40.0226 381.474,-45.282 382.746,-38.3986"/>
</g>
<!-- Node9 -->
<g id="node9" class="node"><title>Node9</title>
<g id="a_node9"><a xlink:href="../../df/d97/classcellsociety__team01_1_1rules_1_1_threshold_movement_rule.html#a80b6469bcd4546835352adbf0b901a22" target="_top" xlink:title="cellsociety_team01.rules.\lThresholdMovementRule.apply">
<polygon fill="white" stroke="black" points="422,-0 422,-30 584,-30 584,-0 422,-0"/>
<text text-anchor="start" x="430" y="-18" font-family="Helvetica,sans-Serif" font-size="10.00">cellsociety_team01.rules.</text>
<text text-anchor="middle" x="503" y="-7" font-family="Helvetica,sans-Serif" font-size="10.00">ThresholdMovementRule.apply</text>
</a>
</g>
</g>
<!-- Node8&#45;&gt;Node9 -->
<g id="edge10" class="edge"><title>Node8&#45;&gt;Node9</title>
<path fill="none" stroke="midnightblue" d="M396.096,-20.0192C404.703,-19.6112 413.314,-19.2031 421.7,-18.8057"/>
<polygon fill="midnightblue" stroke="midnightblue" points="395.83,-16.5277 386.007,-20.4973 396.161,-23.5199 395.83,-16.5277"/>
</g>
</g>
</svg>
