<?xml version="1.0" encoding="UTF-8" standalone="no"?>
<!DOCTYPE svg PUBLIC "-//W3C//DTD SVG 1.1//EN"
 "http://www.w3.org/Graphics/SVG/1.1/DTD/svg11.dtd">
<!-- Generated by graphviz version 2.36.0 (20140111.2315)
 -->
<!-- Title: cellsociety_team01.CellState.Cell.isUpdated Pages: 1 -->
<svg width="380pt" height="577pt"
 viewBox="0.00 0.00 380.00 577.00" xmlns="http://www.w3.org/2000/svg" xmlns:xlink="http://www.w3.org/1999/xlink">
<g id="graph0" class="graph" transform="scale(1 1) rotate(0) translate(4 573)">
<title>cellsociety_team01.CellState.Cell.isUpdated</title>
<polygon fill="white" stroke="none" points="-4,4 -4,-573 376,-573 376,4 -4,4"/>
<!-- Node1 -->
<g id="node1" class="node"><title>Node1</title>
<polygon fill="#bfbfbf" stroke="black" points="0,-269 0,-299 158,-299 158,-269 0,-269"/>
<text text-anchor="start" x="8" y="-287" font-family="Helvetica,sans-Serif" font-size="10.00">cellsociety_team01.CellState.</text>
<text text-anchor="middle" x="79" y="-276" font-family="Helvetica,sans-Serif" font-size="10.00">Cell.isUpdated</text>
</g>
<!-- Node2 -->
<g id="node2" class="node"><title>Node2</title>
<g id="a_node2"><a xlink:href="../../d9/d54/classcellsociety__team01_1_1rules_1_1average_update_rule.html#a761454bd6432d0a0eccabd6c3eecf7b9" target="_top" xlink:title="cellsociety_team01.rules.average\lUpdateRule.apply">
<polygon fill="white" stroke="black" points="194.5,-539 194.5,-569 371.5,-569 371.5,-539 194.5,-539"/>
<text text-anchor="start" x="202.5" y="-557" font-family="Helvetica,sans-Serif" font-size="10.00">cellsociety_team01.rules.average</text>
<text text-anchor="middle" x="283" y="-546" font-family="Helvetica,sans-Serif" font-size="10.00">UpdateRule.apply</text>
</a>
</g>
</g>
<!-- Node1&#45;&gt;Node2 -->
<g id="edge1" class="edge"><title>Node1&#45;&gt;Node2</title>
<path fill="none" stroke="midnightblue" d="M84.4481,-308.856C94.6266,-358.357 124.324,-469.59 194,-529 198.472,-532.813 203.489,-536.046 208.801,-538.787"/>
<polygon fill="midnightblue" stroke="midnightblue" points="87.8746,-308.141 82.5148,-299.002 81.0056,-309.488 87.8746,-308.141"/>
</g>
<!-- Node3 -->
<g id="node3" class="node"><title>Node3</title>
<g id="a_node3"><a xlink:href="../../df/d97/classcellsociety__team01_1_1rules_1_1_threshold_movement_rule.html#a80b6469bcd4546835352adbf0b901a22" target="_top" xlink:title="cellsociety_team01.rules.\lThresholdMovementRule.apply">
<polygon fill="white" stroke="black" points="202,-490 202,-520 364,-520 364,-490 202,-490"/>
<text text-anchor="start" x="210" y="-508" font-family="Helvetica,sans-Serif" font-size="10.00">cellsociety_team01.rules.</text>
<text text-anchor="middle" x="283" y="-497" font-family="Helvetica,sans-Serif" font-size="10.00">ThresholdMovementRule.apply</text>
</a>
</g>
</g>
<!-- Node1&#45;&gt;Node3 -->
<g id="edge2" class="edge"><title>Node1&#45;&gt;Node3</title>
<path fill="none" stroke="midnightblue" d="M87.5751,-308.797C101.614,-350.536 135.678,-434.699 194,-480 199.017,-483.897 204.615,-487.187 210.489,-489.963"/>
<polygon fill="midnightblue" stroke="midnightblue" points="90.858,-307.574 84.4348,-299.148 84.2017,-309.741 90.858,-307.574"/>
</g>
<!-- Node4 -->
<g id="node4" class="node"><title>Node4</title>
<g id="a_node4"><a xlink:href="../../d4/d0c/classcellsociety__team01_1_1rules_1_1_uphill_movement_rule.html#a7c3becfa5ede6439f068dfbb086b650c" target="_top" xlink:title="cellsociety_team01.rules.\lUphillMovementRule.apply">
<polygon fill="white" stroke="black" points="212,-441 212,-471 354,-471 354,-441 212,-441"/>
<text text-anchor="start" x="220" y="-459" font-family="Helvetica,sans-Serif" font-size="10.00">cellsociety_team01.rules.</text>
<text text-anchor="middle" x="283" y="-448" font-family="Helvetica,sans-Serif" font-size="10.00">UphillMovementRule.apply</text>
</a>
</g>
</g>
<!-- Node1&#45;&gt;Node4 -->
<g id="edge3" class="edge"><title>Node1&#45;&gt;Node4</title>
<path fill="none" stroke="midnightblue" d="M92.1889,-307.95C110.068,-340.667 146.499,-398.921 194,-431 199.66,-434.822 205.901,-438.066 212.368,-440.817"/>
<polygon fill="midnightblue" stroke="midnightblue" points="95.2395,-306.233 87.4437,-299.058 89.0637,-309.528 95.2395,-306.233"/>
</g>
<!-- Node5 -->
<g id="node5" class="node"><title>Node5</title>
<g id="a_node5"><a xlink:href="../../df/d10/classcellsociety__team01_1_1rules_1_1_random_rule.html#af2f2a6f781032ff1aaf9c7f44f2bcb71" target="_top" xlink:title="cellsociety_team01.rules.\lRandomRule.apply">
<polygon fill="white" stroke="black" points="214,-392 214,-422 352,-422 352,-392 214,-392"/>
<text text-anchor="start" x="222" y="-410" font-family="Helvetica,sans-Serif" font-size="10.00">cellsociety_team01.rules.</text>
<text text-anchor="middle" x="283" y="-399" font-family="Helvetica,sans-Serif" font-size="10.00">RandomRule.apply</text>
</a>
</g>
</g>
<!-- Node1&#45;&gt;Node5 -->
<g id="edge4" class="edge"><title>Node1&#45;&gt;Node5</title>
<path fill="none" stroke="midnightblue" d="M100.506,-306.613C121.832,-328.834 157.194,-362.206 194,-382 201.134,-385.837 208.918,-389.137 216.81,-391.962"/>
<polygon fill="midnightblue" stroke="midnightblue" points="102.977,-304.132 93.5692,-299.259 97.885,-308.935 102.977,-304.132"/>
</g>
<!-- Node6 -->
<g id="node6" class="node"><title>Node6</title>
<g id="a_node6"><a xlink:href="../../d5/d26/classcellsociety__team01_1_1rules_1_1_reproduction_rule.html#ab011923eec073a1756fa121391885c3c" target="_top" xlink:title="cellsociety_team01.rules.\lReproductionRule.apply">
<polygon fill="white" stroke="black" points="214,-343 214,-373 352,-373 352,-343 214,-343"/>
<text text-anchor="start" x="222" y="-361" font-family="Helvetica,sans-Serif" font-size="10.00">cellsociety_team01.rules.</text>
<text text-anchor="middle" x="283" y="-350" font-family="Helvetica,sans-Serif" font-size="10.00">ReproductionRule.apply</text>
</a>
</g>
</g>
<!-- Node1&#45;&gt;Node6 -->
<g id="edge5" class="edge"><title>Node1&#45;&gt;Node6</title>
<path fill="none" stroke="midnightblue" d="M121.136,-303.208C142.59,-312.834 169.421,-324.268 194,-333 203.877,-336.509 214.511,-339.871 224.854,-342.927"/>
<polygon fill="midnightblue" stroke="midnightblue" points="122.543,-300.003 111.989,-299.068 119.656,-306.38 122.543,-300.003"/>
</g>
<!-- Node7 -->
<g id="node7" class="node"><title>Node7</title>
<g id="a_node7"><a xlink:href="../../d9/d10/classcellsociety__team01_1_1rules_1_1_movement_rule.html#a5f0521febc4a9092ad136a10e8307cea" target="_top" xlink:title="cellsociety_team01.rules.\lMovementRule.apply">
<polygon fill="white" stroke="black" points="214,-294 214,-324 352,-324 352,-294 214,-294"/>
<text text-anchor="start" x="222" y="-312" font-family="Helvetica,sans-Serif" font-size="10.00">cellsociety_team01.rules.</text>
<text text-anchor="middle" x="283" y="-301" font-family="Helvetica,sans-Serif" font-size="10.00">MovementRule.apply</text>
</a>
</g>
</g>
<!-- Node1&#45;&gt;Node7 -->
<g id="edge6" class="edge"><title>Node1&#45;&gt;Node7</title>
<path fill="none" stroke="midnightblue" d="M168.122,-294.906C183.487,-296.808 199.256,-298.759 213.975,-300.581"/>
<polygon fill="midnightblue" stroke="midnightblue" points="168.453,-291.42 158.098,-293.666 167.593,-298.367 168.453,-291.42"/>
</g>
<!-- Node8 -->
<g id="node8" class="node"><title>Node8</title>
<g id="a_node8"><a xlink:href="../../dc/d72/classcellsociety__team01_1_1simulations_1_1_game_of_life.html#a773e2cf32269345e0761154b1b7ae350" target="_top" xlink:title="cellsociety_team01.simulations.\lGameOfLife.update">
<polygon fill="white" stroke="black" points="198,-245 198,-275 368,-275 368,-245 198,-245"/>
<text text-anchor="start" x="206" y="-263" font-family="Helvetica,sans-Serif" font-size="10.00">cellsociety_team01.simulations.</text>
<text text-anchor="middle" x="283" y="-252" font-family="Helvetica,sans-Serif" font-size="10.00">GameOfLife.update</text>
</a>
</g>
</g>
<!-- Node1&#45;&gt;Node8 -->
<g id="edge7" class="edge"><title>Node1&#45;&gt;Node8</title>
<path fill="none" stroke="midnightblue" d="M168.236,-273.517C178.035,-272.352 187.997,-271.169 197.745,-270.01"/>
<polygon fill="midnightblue" stroke="midnightblue" points="167.616,-270.066 158.098,-274.721 168.442,-277.017 167.616,-270.066"/>
</g>
<!-- Node9 -->
<g id="node9" class="node"><title>Node9</title>
<g id="a_node9"><a xlink:href="../../d8/d2f/classcellsociety__team01_1_1simulations_1_1_segregation.html#a826bda4fbbffc63b6d5635fbd130e1a4" target="_top" xlink:title="cellsociety_team01.simulations.\lSegregation.update">
<polygon fill="white" stroke="black" points="198,-196 198,-226 368,-226 368,-196 198,-196"/>
<text text-anchor="start" x="206" y="-214" font-family="Helvetica,sans-Serif" font-size="10.00">cellsociety_team01.simulations.</text>
<text text-anchor="middle" x="283" y="-203" font-family="Helvetica,sans-Serif" font-size="10.00">Segregation.update</text>
</a>
</g>
</g>
<!-- Node1&#45;&gt;Node9 -->
<g id="edge8" class="edge"><title>Node1&#45;&gt;Node9</title>
<path fill="none" stroke="midnightblue" d="M122.39,-264.701C143.646,-255.397 169.928,-244.452 194,-236 203.89,-232.527 214.53,-229.184 224.876,-226.133"/>
<polygon fill="midnightblue" stroke="midnightblue" points="120.738,-261.604 113.004,-268.845 123.566,-268.008 120.738,-261.604"/>
</g>
<!-- Node10 -->
<g id="node10" class="node"><title>Node10</title>
<g id="a_node10"><a xlink:href="../../d3/d2a/classcellsociety__team01_1_1simulations_1_1_spreading_of_fire.html#a0305b54dd127f6ad48e258deead2af8f" target="_top" xlink:title="cellsociety_team01.simulations.\lSpreadingOfFire.update">
<polygon fill="white" stroke="black" points="198,-147 198,-177 368,-177 368,-147 198,-147"/>
<text text-anchor="start" x="206" y="-165" font-family="Helvetica,sans-Serif" font-size="10.00">cellsociety_team01.simulations.</text>
<text text-anchor="middle" x="283" y="-154" font-family="Helvetica,sans-Serif" font-size="10.00">SpreadingOfFire.update</text>
</a>
</g>
</g>
<!-- Node1&#45;&gt;Node10 -->
<g id="edge9" class="edge"><title>Node1&#45;&gt;Node10</title>
<path fill="none" stroke="midnightblue" d="M100.552,-261.628C121.914,-239.641 157.304,-206.616 194,-187 201.143,-183.181 208.933,-179.892 216.828,-177.073"/>
<polygon fill="midnightblue" stroke="midnightblue" points="97.9784,-259.255 93.6023,-268.904 103.04,-264.09 97.9784,-259.255"/>
</g>
<!-- Node11 -->
<g id="node11" class="node"><title>Node11</title>
<g id="a_node11"><a xlink:href="../../d7/d89/classcellsociety__team01_1_1simulations_1_1_sugarscape.html#afcb37216cf85c2b1ed557b0c6517d4b6" target="_top" xlink:title="cellsociety_team01.simulations.\lSugarscape.update">
<polygon fill="white" stroke="black" points="198,-98 198,-128 368,-128 368,-98 198,-98"/>
<text text-anchor="start" x="206" y="-116" font-family="Helvetica,sans-Serif" font-size="10.00">cellsociety_team01.simulations.</text>
<text text-anchor="middle" x="283" y="-105" font-family="Helvetica,sans-Serif" font-size="10.00">Sugarscape.update</text>
</a>
</g>
</g>
<!-- Node1&#45;&gt;Node11 -->
<g id="edge10" class="edge"><title>Node1&#45;&gt;Node11</title>
<path fill="none" stroke="midnightblue" d="M92.5081,-259.712C110.534,-227.128 146.89,-169.702 194,-138 199.798,-134.099 206.202,-130.8 212.833,-128.011"/>
<polygon fill="midnightblue" stroke="midnightblue" points="89.3876,-258.125 87.7132,-268.586 95.5461,-261.452 89.3876,-258.125"/>
</g>
<!-- Node12 -->
<g id="node12" class="node"><title>Node12</title>
<g id="a_node12"><a xlink:href="../../d6/dcf/classcellsociety__team01_1_1simulations_1_1_predator_prey.html#adeed145de5b9e9f09f559e56cb30f5ef" target="_top" xlink:title="cellsociety_team01.simulations.\lPredatorPrey.update">
<polygon fill="white" stroke="black" points="198,-49 198,-79 368,-79 368,-49 198,-49"/>
<text text-anchor="start" x="206" y="-67" font-family="Helvetica,sans-Serif" font-size="10.00">cellsociety_team01.simulations.</text>
<text text-anchor="middle" x="283" y="-56" font-family="Helvetica,sans-Serif" font-size="10.00">PredatorPrey.update</text>
</a>
</g>
</g>
<!-- Node1&#45;&gt;Node12 -->
<g id="edge11" class="edge"><title>Node1&#45;&gt;Node12</title>
<path fill="none" stroke="midnightblue" d="M87.612,-259.329C101.706,-217.8 135.85,-134.064 194,-89 199.022,-85.1085 204.622,-81.8228 210.499,-79.0485"/>
<polygon fill="midnightblue" stroke="midnightblue" points="84.2543,-258.335 84.4583,-268.928 90.9047,-260.52 84.2543,-258.335"/>
</g>
<!-- Node13 -->
<g id="node13" class="node"><title>Node13</title>
<g id="a_node13"><a xlink:href="../../d2/dd4/classcellsociety__team01_1_1simulations_1_1_ant_foraging.html#a4751c84297330c818a0e9d59c6a78cd5" target="_top" xlink:title="cellsociety_team01.simulations.\lAntForaging.update">
<polygon fill="white" stroke="black" points="198,-0 198,-30 368,-30 368,-0 198,-0"/>
<text text-anchor="start" x="206" y="-18" font-family="Helvetica,sans-Serif" font-size="10.00">cellsociety_team01.simulations.</text>
<text text-anchor="middle" x="283" y="-7" font-family="Helvetica,sans-Serif" font-size="10.00">AntForaging.update</text>
</a>
</g>
</g>
<!-- Node1&#45;&gt;Node13 -->
<g id="edge12" class="edge"><title>Node1&#45;&gt;Node13</title>
<path fill="none" stroke="midnightblue" d="M84.5535,-258.889C94.858,-209.413 124.677,-99.0156 194,-40 198.475,-36.1907 203.494,-32.9603 208.807,-30.221"/>
<polygon fill="midnightblue" stroke="midnightblue" points="81.1099,-258.262 82.5925,-268.752 87.9755,-259.627 81.1099,-258.262"/>
</g>
</g>
</svg>
