<?xml version="1.0" encoding="UTF-8" standalone="no"?>
<!DOCTYPE svg PUBLIC "-//W3C//DTD SVG 1.1//EN"
 "http://www.w3.org/Graphics/SVG/1.1/DTD/svg11.dtd">
<!-- Generated by graphviz version 2.36.0 (20140111.2315)
 -->
<!-- Title: cellsociety_team01.CellState.Cell.setNextState Pages: 1 -->
<!--zoomable 802 -->
<svg id="main" version="1.1" xmlns="http://www.w3.org/2000/svg" xmlns:xlink="http://www.w3.org/1999/xlink" xml:space="preserve" onload="init(evt)">
<style type="text/css"><![CDATA[
.edge:hover path { stroke: red; }
.edge:hover polygon { stroke: red; fill: red; }
]]></style>
<script type="text/javascript"><![CDATA[
var edges = document.getElementsByTagName('g');
if (edges && edges.length) {
  for (var i=0;i<edges.length;i++) {
    if (edges[i].id.substr(0,4)=='edge') {
      edges[i].setAttribute('class','edge');
    }
  }
}
]]></script>
        <defs>
                <circle id="rim" cx="0" cy="0" r="7"/>
                <circle id="rim2" cx="0" cy="0" r="3.5"/>
                <g id="zoomPlus">
                        <use xlink:href="#rim" fill="#404040">
                                <set attributeName="fill" to="#808080" begin="zoomplus.mouseover" end="zoomplus.mouseout"/>
                        </use>
                        <path d="M-4,0h8M0,-4v8" fill="none" stroke="white" stroke-width="1.5" pointer-events="none"/>
                </g>
                <g id="zoomMin">
                        <use xlink:href="#rim" fill="#404040">
                                <set attributeName="fill" to="#808080" begin="zoomminus.mouseover" end="zoomminus.mouseout"/>
                        </use>
                        <path d="M-4,0h8" fill="none" stroke="white" stroke-width="1.5" pointer-events="none"/>
                </g>
                <g id="dirArrow">
                        <path fill="none" stroke="white" stroke-width="1.5" d="M0,-3.0v7 M-2.5,-0.5L0,-3.0L2.5,-0.5"/>
                </g>
               <g id="resetDef">
                       <use xlink:href="#rim2" fill="#404040">
                               <set attributeName="fill" to="#808080" begin="reset.mouseover" end="reset.mouseout"/>
                       </use>
               </g>
        </defs>

<script type="text/javascript">
var viewWidth = 766;
var viewHeight = 802;
var sectionId = 'dynsection-7';
</script>
<script xlink:href="../../svgpan.js"/>
<svg id="graph" class="graph">
<g id="viewport">
<title>cellsociety_team01.CellState.Cell.setNextState</title>
<polygon fill="white" stroke="none" points="-4,4 -4,-798 762,-798 762,4 -4,4"/>
<!-- Node1 -->
<g id="node1" class="node"><title>Node1</title>
<polygon fill="#bfbfbf" stroke="black" points="0,-382 0,-412 158,-412 158,-382 0,-382"/>
<text text-anchor="start" x="8" y="-400" font-family="Helvetica,sans-Serif" font-size="10.00">cellsociety_team01.CellState.</text>
<text text-anchor="middle" x="79" y="-389" font-family="Helvetica,sans-Serif" font-size="10.00">Cell.setNextState</text>
</g>
<!-- Node2 -->
<g id="node2" class="node"><title>Node2</title>
<g id="a_node2"><a xlink:href="../../d9/d54/classcellsociety__team01_1_1rules_1_1average_update_rule.html#a761454bd6432d0a0eccabd6c3eecf7b9" target="_top" xlink:title="cellsociety_team01.rules.average\lUpdateRule.apply">
<polygon fill="white" stroke="black" points="201.5,-764 201.5,-794 378.5,-794 378.5,-764 201.5,-764"/>
<text text-anchor="start" x="209.5" y="-782" font-family="Helvetica,sans-Serif" font-size="10.00">cellsociety_team01.rules.average</text>
<text text-anchor="middle" x="290" y="-771" font-family="Helvetica,sans-Serif" font-size="10.00">UpdateRule.apply</text>
</a>
</g>
</g>
<!-- Node1&#45;&gt;Node2 -->
<g id="edge1" class="edge"><title>Node1&#45;&gt;Node2</title>
<path fill="none" stroke="midnightblue" d="M80.6376,-422.174C83.6396,-486.095 100.484,-656.167 194,-749 200.137,-755.093 207.501,-759.95 215.379,-763.821"/>
<polygon fill="midnightblue" stroke="midnightblue" points="84.135,-422.036 80.2434,-412.182 77.1404,-422.312 84.135,-422.036"/>
</g>
<!-- Node3 -->
<g id="node3" class="node"><title>Node3</title>
<g id="a_node3"><a xlink:href="../../df/d97/classcellsociety__team01_1_1rules_1_1_threshold_movement_rule.html#a80b6469bcd4546835352adbf0b901a22" target="_top" xlink:title="cellsociety_team01.rules.\lThresholdMovementRule.apply">
<polygon fill="white" stroke="black" points="422,-553 422,-583 584,-583 584,-553 422,-553"/>
<text text-anchor="start" x="430" y="-571" font-family="Helvetica,sans-Serif" font-size="10.00">cellsociety_team01.rules.</text>
<text text-anchor="middle" x="503" y="-560" font-family="Helvetica,sans-Serif" font-size="10.00">ThresholdMovementRule.apply</text>
</a>
</g>
</g>
<!-- Node1&#45;&gt;Node3 -->
<g id="edge2" class="edge"><title>Node1&#45;&gt;Node3</title>
<path fill="none" stroke="midnightblue" d="M80.0834,-422.29C81.8284,-484.717 96.0467,-646.058 194,-715 263.782,-764.114 309.213,-752.222 386,-715 443.63,-687.064 481.257,-615.073 495.539,-583.374"/>
<polygon fill="midnightblue" stroke="midnightblue" points="83.5802,-422.087 79.8885,-412.156 76.5815,-422.222 83.5802,-422.087"/>
</g>
<!-- Node4 -->
<g id="node4" class="node"><title>Node4</title>
<g id="a_node4"><a xlink:href="../../d4/d0c/classcellsociety__team01_1_1rules_1_1_uphill_movement_rule.html#a7c3becfa5ede6439f068dfbb086b650c" target="_top" xlink:title="cellsociety_team01.rules.\lUphillMovementRule.apply">
<polygon fill="white" stroke="black" points="219,-676 219,-706 361,-706 361,-676 219,-676"/>
<text text-anchor="start" x="227" y="-694" font-family="Helvetica,sans-Serif" font-size="10.00">cellsociety_team01.rules.</text>
<text text-anchor="middle" x="290" y="-683" font-family="Helvetica,sans-Serif" font-size="10.00">UphillMovementRule.apply</text>
</a>
</g>
</g>
<!-- Node1&#45;&gt;Node4 -->
<g id="edge3" class="edge"><title>Node1&#45;&gt;Node4</title>
<path fill="none" stroke="midnightblue" d="M83.2283,-422.15C91.4373,-475.461 118.127,-600.304 194,-666 201.22,-672.252 209.827,-676.965 218.869,-680.513"/>
<polygon fill="midnightblue" stroke="midnightblue" points="86.6834,-421.587 81.7848,-412.193 79.7558,-422.592 86.6834,-421.587"/>
</g>
<!-- Node5 -->
<g id="node5" class="node"><title>Node5</title>
<g id="a_node5"><a xlink:href="../../d1/ded/classcellsociety__team01_1_1rules_1_1_status_rule.html#a56036d5cb65607a077c6ef1f0c6f49aa" target="_top" xlink:title="cellsociety_team01.rules.\lStatusRule.apply">
<polygon fill="white" stroke="black" points="221,-627 221,-657 359,-657 359,-627 221,-627"/>
<text text-anchor="start" x="229" y="-645" font-family="Helvetica,sans-Serif" font-size="10.00">cellsociety_team01.rules.</text>
<text text-anchor="middle" x="290" y="-634" font-family="Helvetica,sans-Serif" font-size="10.00">StatusRule.apply</text>
</a>
</g>
</g>
<!-- Node1&#45;&gt;Node5 -->
<g id="edge4" class="edge"><title>Node1&#45;&gt;Node5</title>
<path fill="none" stroke="midnightblue" d="M85.8013,-422C97.7751,-467.874 129.661,-565.5 194,-617 201.856,-623.288 211.136,-628.005 220.768,-631.542"/>
<polygon fill="midnightblue" stroke="midnightblue" points="89.1881,-421.116 83.3598,-412.269 82.3985,-422.82 89.1881,-421.116"/>
</g>
<!-- Node6 -->
<g id="node6" class="node"><title>Node6</title>
<g id="a_node6"><a xlink:href="../../d8/dd6/classcellsociety__team01_1_1rules_1_1_priority_forward_rule.html#af3653ecda655c212e7b82252d01b8ae6" target="_top" xlink:title="cellsociety_team01.rules.\lPriorityForwardRule.apply">
<polygon fill="white" stroke="black" points="221,-578 221,-608 359,-608 359,-578 221,-578"/>
<text text-anchor="start" x="229" y="-596" font-family="Helvetica,sans-Serif" font-size="10.00">cellsociety_team01.rules.</text>
<text text-anchor="middle" x="290" y="-585" font-family="Helvetica,sans-Serif" font-size="10.00">PriorityForwardRule.apply</text>
</a>
</g>
</g>
<!-- Node1&#45;&gt;Node6 -->
<g id="edge5" class="edge"><title>Node1&#45;&gt;Node6</title>
<path fill="none" stroke="midnightblue" d="M89.6087,-421.644C105.512,-459.126 140.915,-530.097 194,-568 202.05,-573.748 211.329,-578.175 220.867,-581.584"/>
<polygon fill="midnightblue" stroke="midnightblue" points="92.6872,-419.928 85.6416,-412.015 86.215,-422.595 92.6872,-419.928"/>
</g>
<!-- Node7 -->
<g id="node7" class="node"><title>Node7</title>
<g id="a_node7"><a xlink:href="../../d1/de7/classcellsociety__team01_1_1rules_1_1_threshold_rule.html#aa1df3d1abe0abdfa7e409f542d58b4a0" target="_top" xlink:title="cellsociety_team01.rules.\lThresholdRule.apply">
<polygon fill="white" stroke="black" points="221,-529 221,-559 359,-559 359,-529 221,-529"/>
<text text-anchor="start" x="229" y="-547" font-family="Helvetica,sans-Serif" font-size="10.00">cellsociety_team01.rules.</text>
<text text-anchor="middle" x="290" y="-536" font-family="Helvetica,sans-Serif" font-size="10.00">ThresholdRule.apply</text>
</a>
</g>
</g>
<!-- Node1&#45;&gt;Node7 -->
<g id="edge6" class="edge"><title>Node1&#45;&gt;Node7</title>
<path fill="none" stroke="midnightblue" d="M95.7522,-420.676C115.455,-448.418 151.778,-493.788 194,-519 202.2,-523.896 211.358,-527.847 220.663,-531.031"/>
<polygon fill="midnightblue" stroke="midnightblue" points="98.5357,-418.549 89.953,-412.337 92.7887,-422.545 98.5357,-418.549"/>
</g>
<!-- Node8 -->
<g id="node8" class="node"><title>Node8</title>
<g id="a_node8"><a xlink:href="../../df/d10/classcellsociety__team01_1_1rules_1_1_random_rule.html#af2f2a6f781032ff1aaf9c7f44f2bcb71" target="_top" xlink:title="cellsociety_team01.rules.\lRandomRule.apply">
<polygon fill="white" stroke="black" points="221,-480 221,-510 359,-510 359,-480 221,-480"/>
<text text-anchor="start" x="229" y="-498" font-family="Helvetica,sans-Serif" font-size="10.00">cellsociety_team01.rules.</text>
<text text-anchor="middle" x="290" y="-487" font-family="Helvetica,sans-Serif" font-size="10.00">RandomRule.apply</text>
</a>
</g>
</g>
<!-- Node1&#45;&gt;Node8 -->
<g id="edge7" class="edge"><title>Node1&#45;&gt;Node8</title>
<path fill="none" stroke="midnightblue" d="M107.806,-418.328C130.068,-434.51 162.651,-456.246 194,-470 202.59,-473.769 211.873,-477.072 221.157,-479.936"/>
<polygon fill="midnightblue" stroke="midnightblue" points="109.637,-415.33 99.5124,-412.209 105.481,-420.962 109.637,-415.33"/>
</g>
<!-- Node9 -->
<g id="node9" class="node"><title>Node9</title>
<g id="a_node9"><a xlink:href="../../d9/d10/classcellsociety__team01_1_1rules_1_1_movement_rule.html#a5f0521febc4a9092ad136a10e8307cea" target="_top" xlink:title="cellsociety_team01.rules.\lMovementRule.apply">
<polygon fill="white" stroke="black" points="221,-431 221,-461 359,-461 359,-431 221,-431"/>
<text text-anchor="start" x="229" y="-449" font-family="Helvetica,sans-Serif" font-size="10.00">cellsociety_team01.rules.</text>
<text text-anchor="middle" x="290" y="-438" font-family="Helvetica,sans-Serif" font-size="10.00">MovementRule.apply</text>
</a>
</g>
</g>
<!-- Node1&#45;&gt;Node9 -->
<g id="edge8" class="edge"><title>Node1&#45;&gt;Node9</title>
<path fill="none" stroke="midnightblue" d="M153.922,-414.331C177.126,-419.771 202.536,-425.729 224.994,-430.994"/>
<polygon fill="midnightblue" stroke="midnightblue" points="154.662,-410.91 144.127,-412.035 153.064,-417.725 154.662,-410.91"/>
</g>
<!-- Node10 -->
<g id="node10" class="node"><title>Node10</title>
<g id="a_node10"><a xlink:href="../../d5/d26/classcellsociety__team01_1_1rules_1_1_reproduction_rule.html#ab011923eec073a1756fa121391885c3c" target="_top" xlink:title="cellsociety_team01.rules.\lReproductionRule.apply">
<polygon fill="white" stroke="black" points="221,-382 221,-412 359,-412 359,-382 221,-382"/>
<text text-anchor="start" x="229" y="-400" font-family="Helvetica,sans-Serif" font-size="10.00">cellsociety_team01.rules.</text>
<text text-anchor="middle" x="290" y="-389" font-family="Helvetica,sans-Serif" font-size="10.00">ReproductionRule.apply</text>
</a>
</g>
</g>
<!-- Node1&#45;&gt;Node10 -->
<g id="edge9" class="edge"><title>Node1&#45;&gt;Node10</title>
<path fill="none" stroke="midnightblue" d="M168.382,-397C185.958,-397 204.157,-397 220.926,-397"/>
<polygon fill="midnightblue" stroke="midnightblue" points="168.121,-393.5 158.121,-397 168.121,-400.5 168.121,-393.5"/>
</g>
<!-- Node11 -->
<g id="node11" class="node"><title>Node11</title>
<g id="a_node11"><a xlink:href="../../d4/d68/classcellsociety__team01_1_1rules_1_1_consumption_rule.html#accd09b9da4e5bc487878397c2e8f45be" target="_top" xlink:title="cellsociety_team01.rules.\lConsumptionRule.kill">
<polygon fill="white" stroke="black" points="434,-286 434,-316 572,-316 572,-286 434,-286"/>
<text text-anchor="start" x="442" y="-304" font-family="Helvetica,sans-Serif" font-size="10.00">cellsociety_team01.rules.</text>
<text text-anchor="middle" x="503" y="-293" font-family="Helvetica,sans-Serif" font-size="10.00">ConsumptionRule.kill</text>
</a>
</g>
</g>
<!-- Node1&#45;&gt;Node11 -->
<g id="edge10" class="edge"><title>Node1&#45;&gt;Node11</title>
<path fill="none" stroke="midnightblue" d="M105.313,-375.507C127.233,-358.258 160.592,-335.147 194,-324 273.221,-297.567 370.052,-294.784 433.742,-296.658"/>
<polygon fill="midnightblue" stroke="midnightblue" points="103.095,-372.799 97.4959,-381.793 107.482,-378.254 103.095,-372.799"/>
</g>
<!-- Node13 -->
<g id="node13" class="node"><title>Node13</title>
<g id="a_node13"><a xlink:href="../../d9/d10/classcellsociety__team01_1_1rules_1_1_movement_rule.html#ab8ba87bafbedec6706b098ef2adce7fe" target="_top" xlink:title="cellsociety_team01.rules.\lMovementRule.switchStatesUpdated">
<polygon fill="white" stroke="black" points="194,-333 194,-363 386,-363 386,-333 194,-333"/>
<text text-anchor="start" x="202" y="-351" font-family="Helvetica,sans-Serif" font-size="10.00">cellsociety_team01.rules.</text>
<text text-anchor="middle" x="290" y="-340" font-family="Helvetica,sans-Serif" font-size="10.00">MovementRule.switchStatesUpdated</text>
</a>
</g>
</g>
<!-- Node1&#45;&gt;Node13 -->
<g id="edge12" class="edge"><title>Node1&#45;&gt;Node13</title>
<path fill="none" stroke="midnightblue" d="M153.922,-379.669C177.126,-374.229 202.536,-368.271 224.994,-363.006"/>
<polygon fill="midnightblue" stroke="midnightblue" points="153.064,-376.275 144.127,-381.965 154.662,-383.09 153.064,-376.275"/>
</g>
<!-- Node15 -->
<g id="node15" class="node"><title>Node15</title>
<g id="a_node15"><a xlink:href="../../dc/d72/classcellsociety__team01_1_1simulations_1_1_game_of_life.html#a773e2cf32269345e0761154b1b7ae350" target="_top" xlink:title="cellsociety_team01.simulations.\lGameOfLife.update">
<polygon fill="white" stroke="black" points="205,-245 205,-275 375,-275 375,-245 205,-245"/>
<text text-anchor="start" x="213" y="-263" font-family="Helvetica,sans-Serif" font-size="10.00">cellsociety_team01.simulations.</text>
<text text-anchor="middle" x="290" y="-252" font-family="Helvetica,sans-Serif" font-size="10.00">GameOfLife.update</text>
</a>
</g>
</g>
<!-- Node1&#45;&gt;Node15 -->
<g id="edge16" class="edge"><title>Node1&#45;&gt;Node15</title>
<path fill="none" stroke="midnightblue" d="M98.8191,-374.059C119.737,-349.945 155.657,-312.456 194,-290 204.223,-284.013 215.778,-279.081 227.218,-275.07"/>
<polygon fill="midnightblue" stroke="midnightblue" points="95.888,-372.102 92.0665,-381.984 101.216,-376.642 95.888,-372.102"/>
</g>
<!-- Node16 -->
<g id="node16" class="node"><title>Node16</title>
<g id="a_node16"><a xlink:href="../../d8/d2f/classcellsociety__team01_1_1simulations_1_1_segregation.html#a826bda4fbbffc63b6d5635fbd130e1a4" target="_top" xlink:title="cellsociety_team01.simulations.\lSegregation.update">
<polygon fill="white" stroke="black" points="205,-196 205,-226 375,-226 375,-196 205,-196"/>
<text text-anchor="start" x="213" y="-214" font-family="Helvetica,sans-Serif" font-size="10.00">cellsociety_team01.simulations.</text>
<text text-anchor="middle" x="290" y="-203" font-family="Helvetica,sans-Serif" font-size="10.00">Segregation.update</text>
</a>
</g>
</g>
<!-- Node1&#45;&gt;Node16 -->
<g id="edge17" class="edge"><title>Node1&#45;&gt;Node16</title>
<path fill="none" stroke="midnightblue" d="M90.5054,-372.723C107.164,-337.16 143.052,-271.306 194,-236 199.607,-232.114 205.781,-228.833 212.209,-226.061"/>
<polygon fill="midnightblue" stroke="midnightblue" points="87.2853,-371.349 86.3204,-381.9 93.6542,-374.254 87.2853,-371.349"/>
</g>
<!-- Node17 -->
<g id="node17" class="node"><title>Node17</title>
<g id="a_node17"><a xlink:href="../../d3/d2a/classcellsociety__team01_1_1simulations_1_1_spreading_of_fire.html#a0305b54dd127f6ad48e258deead2af8f" target="_top" xlink:title="cellsociety_team01.simulations.\lSpreadingOfFire.update">
<polygon fill="white" stroke="black" points="205,-147 205,-177 375,-177 375,-147 205,-147"/>
<text text-anchor="start" x="213" y="-165" font-family="Helvetica,sans-Serif" font-size="10.00">cellsociety_team01.simulations.</text>
<text text-anchor="middle" x="290" y="-154" font-family="Helvetica,sans-Serif" font-size="10.00">SpreadingOfFire.update</text>
</a>
</g>
</g>
<!-- Node1&#45;&gt;Node17 -->
<g id="edge18" class="edge"><title>Node1&#45;&gt;Node17</title>
<path fill="none" stroke="midnightblue" d="M86.4108,-372.199C99.1469,-328.008 131.914,-235.724 194,-187 198.964,-183.104 204.478,-179.812 210.278,-177.031"/>
<polygon fill="midnightblue" stroke="midnightblue" points="83.0335,-371.281 83.7292,-381.853 89.7781,-373.154 83.0335,-371.281"/>
</g>
<!-- Node18 -->
<g id="node18" class="node"><title>Node18</title>
<g id="a_node18"><a xlink:href="../../d7/d89/classcellsociety__team01_1_1simulations_1_1_sugarscape.html#afcb37216cf85c2b1ed557b0c6517d4b6" target="_top" xlink:title="cellsociety_team01.simulations.\lSugarscape.update">
<polygon fill="white" stroke="black" points="205,-98 205,-128 375,-128 375,-98 205,-98"/>
<text text-anchor="start" x="213" y="-116" font-family="Helvetica,sans-Serif" font-size="10.00">cellsociety_team01.simulations.</text>
<text text-anchor="middle" x="290" y="-105" font-family="Helvetica,sans-Serif" font-size="10.00">Sugarscape.update</text>
</a>
</g>
</g>
<!-- Node1&#45;&gt;Node18 -->
<g id="edge19" class="edge"><title>Node1&#45;&gt;Node18</title>
<path fill="none" stroke="midnightblue" d="M83.7117,-371.706C92.7015,-319.762 120.577,-200.694 194,-138 198.539,-134.124 203.613,-130.84 208.991,-128.06"/>
<polygon fill="midnightblue" stroke="midnightblue" points="80.2328,-371.293 82.0704,-381.727 87.1408,-372.425 80.2328,-371.293"/>
</g>
<!-- Node19 -->
<g id="node19" class="node"><title>Node19</title>
<g id="a_node19"><a xlink:href="../../d6/dcf/classcellsociety__team01_1_1simulations_1_1_predator_prey.html#adeed145de5b9e9f09f559e56cb30f5ef" target="_top" xlink:title="cellsociety_team01.simulations.\lPredatorPrey.update">
<polygon fill="white" stroke="black" points="205,-49 205,-79 375,-79 375,-49 205,-49"/>
<text text-anchor="start" x="213" y="-67" font-family="Helvetica,sans-Serif" font-size="10.00">cellsociety_team01.simulations.</text>
<text text-anchor="middle" x="290" y="-56" font-family="Helvetica,sans-Serif" font-size="10.00">PredatorPrey.update</text>
</a>
</g>
</g>
<!-- Node1&#45;&gt;Node19 -->
<g id="edge20" class="edge"><title>Node1&#45;&gt;Node19</title>
<path fill="none" stroke="midnightblue" d="M81.73,-371.573C87.1402,-312.707 108.905,-166.203 194,-89 198.294,-85.1038 203.124,-81.8015 208.271,-79.0041"/>
<polygon fill="midnightblue" stroke="midnightblue" points="78.2186,-371.565 80.8752,-381.821 85.1944,-372.146 78.2186,-371.565"/>
</g>
<!-- Node20 -->
<g id="node20" class="node"><title>Node20</title>
<g id="a_node20"><a xlink:href="../../d2/dd4/classcellsociety__team01_1_1simulations_1_1_ant_foraging.html#a4751c84297330c818a0e9d59c6a78cd5" target="_top" xlink:title="cellsociety_team01.simulations.\lAntForaging.update">
<polygon fill="white" stroke="black" points="205,-0 205,-30 375,-30 375,-0 205,-0"/>
<text text-anchor="start" x="213" y="-18" font-family="Helvetica,sans-Serif" font-size="10.00">cellsociety_team01.simulations.</text>
<text text-anchor="middle" x="290" y="-7" font-family="Helvetica,sans-Serif" font-size="10.00">AntForaging.update</text>
</a>
</g>
</g>
<!-- Node1&#45;&gt;Node20 -->
<g id="edge21" class="edge"><title>Node1&#45;&gt;Node20</title>
<path fill="none" stroke="midnightblue" d="M80.159,-371.527C82.011,-306.109 96.3284,-130.904 194,-39 197.593,-35.6194 201.591,-32.6967 205.856,-30.1715"/>
<polygon fill="midnightblue" stroke="midnightblue" points="76.6554,-371.671 79.949,-381.741 83.6539,-371.815 76.6554,-371.671"/>
</g>
<!-- Node12 -->
<g id="node12" class="node"><title>Node12</title>
<g id="a_node12"><a xlink:href="../../d4/d68/classcellsociety__team01_1_1rules_1_1_consumption_rule.html#a2298782f412ffc7b683876b65d6e2d03" target="_top" xlink:title="cellsociety_team01.rules.\lConsumptionRule.apply">
<polygon fill="white" stroke="black" points="620,-310 620,-340 758,-340 758,-310 620,-310"/>
<text text-anchor="start" x="628" y="-328" font-family="Helvetica,sans-Serif" font-size="10.00">cellsociety_team01.rules.</text>
<text text-anchor="middle" x="689" y="-317" font-family="Helvetica,sans-Serif" font-size="10.00">ConsumptionRule.apply</text>
</a>
</g>
</g>
<!-- Node11&#45;&gt;Node12 -->
<g id="edge11" class="edge"><title>Node11&#45;&gt;Node12</title>
<path fill="none" stroke="midnightblue" d="M582.202,-311.2C594.724,-312.834 607.594,-314.512 619.857,-316.112"/>
<polygon fill="midnightblue" stroke="midnightblue" points="582.622,-307.725 572.253,-309.903 581.717,-314.667 582.622,-307.725"/>
</g>
<!-- Node13&#45;&gt;Node3 -->
<g id="edge15" class="edge"><title>Node13&#45;&gt;Node3</title>
<path fill="none" stroke="midnightblue" d="M378.119,-367.749C380.855,-369.364 383.493,-371.111 386,-373 450.021,-421.24 485.559,-516.007 497.443,-552.847"/>
<polygon fill="midnightblue" stroke="midnightblue" points="379.566,-364.556 369.082,-363.027 376.323,-370.76 379.566,-364.556"/>
</g>
<!-- Node14 -->
<g id="node14" class="node"><title>Node14</title>
<g id="a_node14"><a xlink:href="../../d4/d68/classcellsociety__team01_1_1rules_1_1_consumption_rule.html#ad98d5c884aa2be83cf2bb31cd3550208" target="_top" xlink:title="cellsociety_team01.rules.\lConsumptionRule.eat">
<polygon fill="white" stroke="black" points="434,-335 434,-365 572,-365 572,-335 434,-335"/>
<text text-anchor="start" x="442" y="-353" font-family="Helvetica,sans-Serif" font-size="10.00">cellsociety_team01.rules.</text>
<text text-anchor="middle" x="503" y="-342" font-family="Helvetica,sans-Serif" font-size="10.00">ConsumptionRule.eat</text>
</a>
</g>
</g>
<!-- Node13&#45;&gt;Node14 -->
<g id="edge13" class="edge"><title>Node13&#45;&gt;Node14</title>
<path fill="none" stroke="midnightblue" d="M396.212,-348.997C408.956,-349.118 421.705,-349.239 433.716,-349.353"/>
<polygon fill="midnightblue" stroke="midnightblue" points="396.039,-345.496 386.007,-348.901 395.973,-352.495 396.039,-345.496"/>
</g>
<!-- Node14&#45;&gt;Node12 -->
<g id="edge14" class="edge"><title>Node14&#45;&gt;Node12</title>
<path fill="none" stroke="midnightblue" d="M582.202,-339.375C594.724,-337.673 607.594,-335.925 619.857,-334.259"/>
<polygon fill="midnightblue" stroke="midnightblue" points="581.691,-335.912 572.253,-340.726 582.634,-342.848 581.691,-335.912"/>
</g>
</g>
</svg>
        <g id="navigator" transform="translate(0 0)" fill="#404254">
                <rect fill="#f2f5e9" fill-opacity="0.5" stroke="#606060" stroke-width=".5" x="0" y="0" width="60" height="60"/>
                <use id="zoomplus" xlink:href="#zoomPlus" x="17" y="9" onmousedown="handleZoom(evt,'in')"/>
                <use id="zoomminus" xlink:href="#zoomMin" x="42" y="9" onmousedown="handleZoom(evt,'out')"/>
                <use id="reset" xlink:href="#resetDef" x="30" y="36" onmousedown="handleReset()"/>
                <g id="arrowUp" xlink:href="#dirArrow" transform="translate(30 24)" onmousedown="handlePan(0,-1)">
                  <use xlink:href="#rim" fill="#404040">
                        <set attributeName="fill" to="#808080" begin="arrowUp.mouseover" end="arrowUp.mouseout"/>
                  </use>
                  <path fill="none" stroke="white" stroke-width="1.5" d="M0,-3.0v7 M-2.5,-0.5L0,-3.0L2.5,-0.5"/>
                </g>
                <g id="arrowRight" xlink:href="#dirArrow" transform="rotate(90) translate(36 -43)" onmousedown="handlePan(1,0)">
                  <use xlink:href="#rim" fill="#404040">
                        <set attributeName="fill" to="#808080" begin="arrowRight.mouseover" end="arrowRight.mouseout"/>
                  </use>
                  <path fill="none" stroke="white" stroke-width="1.5" d="M0,-3.0v7 M-2.5,-0.5L0,-3.0L2.5,-0.5"/>
                </g>
                <g id="arrowDown" xlink:href="#dirArrow" transform="rotate(180) translate(-30 -48)" onmousedown="handlePan(0,1)">
                  <use xlink:href="#rim" fill="#404040">
                        <set attributeName="fill" to="#808080" begin="arrowDown.mouseover" end="arrowDown.mouseout"/>
                  </use>
                  <path fill="none" stroke="white" stroke-width="1.5" d="M0,-3.0v7 M-2.5,-0.5L0,-3.0L2.5,-0.5"/>
                </g>
                <g id="arrowLeft" xlink:href="#dirArrow" transform="rotate(270) translate(-36 17)" onmousedown="handlePan(-1,0)">
                  <use xlink:href="#rim" fill="#404040">
                        <set attributeName="fill" to="#808080" begin="arrowLeft.mouseover" end="arrowLeft.mouseout"/>
                  </use>
                  <path fill="none" stroke="white" stroke-width="1.5" d="M0,-3.0v7 M-2.5,-0.5L0,-3.0L2.5,-0.5"/>
                </g>
        </g>
        <svg viewBox="0 0 15 15" width="100%" height="30px" preserveAspectRatio="xMaxYMin meet">
         <g id="arrow_out" transform="scale(0.3 0.3)">
          <a xlink:href="classcellsociety__team01_1_1_cell_state_1_1_cell_a555615a89d24bf27ad94d192d8df8465_icgraph_org.svg" target="_base">
           <rect id="button" ry="5" rx="5" y="6" x="6" height="38" width="38"
                fill="#f2f5e9" fill-opacity="0.5" stroke="#606060" stroke-width="1.0"/>
           <path id="arrow"
             d="M 11.500037,31.436501 C 11.940474,20.09759 22.043105,11.32322 32.158766,21.979434 L 37.068811,17.246167 C 37.068811,17.246167 37.088388,32 37.088388,32 L 22.160133,31.978069 C 22.160133,31.978069 26.997745,27.140456 26.997745,27.140456 C 18.528582,18.264221 13.291696,25.230495 11.500037,31.436501 z"
             style="fill:#404040;"/>
          </a>
         </g>
        </svg>
</svg>
