<?xml version="1.0" encoding="UTF-8" standalone="no"?>
<!DOCTYPE svg PUBLIC "-//W3C//DTD SVG 1.1//EN"
 "http://www.w3.org/Graphics/SVG/1.1/DTD/svg11.dtd">
<!-- Generated by graphviz version 2.36.0 (20140111.2315)
 -->
<!-- Title: cellsociety_team01.CellState.Cell.getCurState Pages: 1 -->
<svg width="766pt" height="792pt"
 viewBox="0.00 0.00 766.00 792.00" xmlns="http://www.w3.org/2000/svg" xmlns:xlink="http://www.w3.org/1999/xlink">
<g id="graph0" class="graph" transform="scale(1 1) rotate(0) translate(4 788)">
<title>cellsociety_team01.CellState.Cell.getCurState</title>
<polygon fill="white" stroke="none" points="-4,4 -4,-788 762,-788 762,4 -4,4"/>
<!-- Node1 -->
<g id="node1" class="node"><title>Node1</title>
<polygon fill="#bfbfbf" stroke="black" points="0,-382 0,-412 158,-412 158,-382 0,-382"/>
<text text-anchor="start" x="8" y="-400" font-family="Helvetica,sans-Serif" font-size="10.00">cellsociety_team01.CellState.</text>
<text text-anchor="middle" x="79" y="-389" font-family="Helvetica,sans-Serif" font-size="10.00">Cell.getCurState</text>
</g>
<!-- Node2 -->
<g id="node2" class="node"><title>Node2</title>
<g id="a_node2"><a xlink:href="../../d9/d54/classcellsociety__team01_1_1rules_1_1average_update_rule.html#a761454bd6432d0a0eccabd6c3eecf7b9" target="_top" xlink:title="cellsociety_team01.rules.average\lUpdateRule.apply">
<polygon fill="white" stroke="black" points="201.5,-754 201.5,-784 378.5,-784 378.5,-754 201.5,-754"/>
<text text-anchor="start" x="209.5" y="-772" font-family="Helvetica,sans-Serif" font-size="10.00">cellsociety_team01.rules.average</text>
<text text-anchor="middle" x="290" y="-761" font-family="Helvetica,sans-Serif" font-size="10.00">UpdateRule.apply</text>
</a>
</g>
</g>
<!-- Node1&#45;&gt;Node2 -->
<g id="edge1" class="edge"><title>Node1&#45;&gt;Node2</title>
<path fill="none" stroke="midnightblue" d="M80.5141,-422.49C83.236,-486.459 99.4958,-655.011 194,-744 198.097,-747.858 202.717,-751.137 207.656,-753.922"/>
<polygon fill="midnightblue" stroke="midnightblue" points="83.9997,-422.012 80.1562,-412.138 77.0039,-422.253 83.9997,-422.012"/>
</g>
<!-- Node3 -->
<g id="node3" class="node"><title>Node3</title>
<g id="a_node3"><a xlink:href="../../df/d97/classcellsociety__team01_1_1rules_1_1_threshold_movement_rule.html#a80b6469bcd4546835352adbf0b901a22" target="_top" xlink:title="cellsociety_team01.rules.\lThresholdMovementRule.apply">
<polygon fill="white" stroke="black" points="422,-431 422,-461 584,-461 584,-431 422,-431"/>
<text text-anchor="start" x="430" y="-449" font-family="Helvetica,sans-Serif" font-size="10.00">cellsociety_team01.rules.</text>
<text text-anchor="middle" x="503" y="-438" font-family="Helvetica,sans-Serif" font-size="10.00">ThresholdMovementRule.apply</text>
</a>
</g>
</g>
<!-- Node1&#45;&gt;Node3 -->
<g id="edge2" class="edge"><title>Node1&#45;&gt;Node3</title>
<path fill="none" stroke="midnightblue" d="M154.235,-414.043C167.429,-416.667 181.081,-419.123 194,-421 270.982,-432.182 359.569,-438.717 421.918,-442.282"/>
<polygon fill="midnightblue" stroke="midnightblue" points="154.753,-410.577 144.255,-412.011 153.356,-417.436 154.753,-410.577"/>
</g>
<!-- Node4 -->
<g id="node4" class="node"><title>Node4</title>
<g id="a_node4"><a xlink:href="../../d4/d0c/classcellsociety__team01_1_1rules_1_1_uphill_movement_rule.html#a7c3becfa5ede6439f068dfbb086b650c" target="_top" xlink:title="cellsociety_team01.rules.\lUphillMovementRule.apply">
<polygon fill="white" stroke="black" points="432,-683 432,-713 574,-713 574,-683 432,-683"/>
<text text-anchor="start" x="440" y="-701" font-family="Helvetica,sans-Serif" font-size="10.00">cellsociety_team01.rules.</text>
<text text-anchor="middle" x="503" y="-690" font-family="Helvetica,sans-Serif" font-size="10.00">UphillMovementRule.apply</text>
</a>
</g>
</g>
<!-- Node1&#45;&gt;Node4 -->
<g id="edge3" class="edge"><title>Node1&#45;&gt;Node4</title>
<path fill="none" stroke="midnightblue" d="M83.0048,-422.281C90.7467,-475.212 116.532,-597.615 194,-656 230.364,-683.406 352.618,-692.931 431.728,-696.24"/>
<polygon fill="midnightblue" stroke="midnightblue" points="86.434,-421.523 81.6145,-412.088 79.4982,-422.47 86.434,-421.523"/>
</g>
<!-- Node5 -->
<g id="node5" class="node"><title>Node5</title>
<g id="a_node5"><a xlink:href="../../d5/d93/classcellsociety__team01_1_1rules_1_1_threshold_status_rule.html#a9313793f9c113cc3c14ec75a93146541" target="_top" xlink:title="cellsociety_team01.rules.\lThresholdStatusRule.apply">
<polygon fill="white" stroke="black" points="218.5,-617 218.5,-647 361.5,-647 361.5,-617 218.5,-617"/>
<text text-anchor="start" x="226.5" y="-635" font-family="Helvetica,sans-Serif" font-size="10.00">cellsociety_team01.rules.</text>
<text text-anchor="middle" x="290" y="-624" font-family="Helvetica,sans-Serif" font-size="10.00">ThresholdStatusRule.apply</text>
</a>
</g>
</g>
<!-- Node1&#45;&gt;Node5 -->
<g id="edge4" class="edge"><title>Node1&#45;&gt;Node5</title>
<path fill="none" stroke="midnightblue" d="M86.4108,-421.801C99.1469,-465.992 131.914,-558.276 194,-607 201.245,-612.686 209.66,-617.085 218.43,-620.488"/>
<polygon fill="midnightblue" stroke="midnightblue" points="89.7781,-420.846 83.7292,-412.147 83.0335,-422.719 89.7781,-420.846"/>
</g>
<!-- Node6 -->
<g id="node6" class="node"><title>Node6</title>
<g id="a_node6"><a xlink:href="../../d8/dd6/classcellsociety__team01_1_1rules_1_1_priority_forward_rule.html#af3653ecda655c212e7b82252d01b8ae6" target="_top" xlink:title="cellsociety_team01.rules.\lPriorityForwardRule.apply">
<polygon fill="white" stroke="black" points="221,-568 221,-598 359,-598 359,-568 221,-568"/>
<text text-anchor="start" x="229" y="-586" font-family="Helvetica,sans-Serif" font-size="10.00">cellsociety_team01.rules.</text>
<text text-anchor="middle" x="290" y="-575" font-family="Helvetica,sans-Serif" font-size="10.00">PriorityForwardRule.apply</text>
</a>
</g>
</g>
<!-- Node1&#45;&gt;Node6 -->
<g id="edge5" class="edge"><title>Node1&#45;&gt;Node6</title>
<path fill="none" stroke="midnightblue" d="M90.5054,-421.277C107.164,-456.84 143.052,-522.694 194,-558 201.99,-563.537 211.132,-567.848 220.516,-571.204"/>
<polygon fill="midnightblue" stroke="midnightblue" points="93.6542,-419.746 86.3204,-412.1 87.2853,-422.651 93.6542,-419.746"/>
</g>
<!-- Node7 -->
<g id="node7" class="node"><title>Node7</title>
<g id="a_node7"><a xlink:href="../../d5/d26/classcellsociety__team01_1_1rules_1_1_reproduction_rule.html#ab011923eec073a1756fa121391885c3c" target="_top" xlink:title="cellsociety_team01.rules.\lReproductionRule.apply">
<polygon fill="white" stroke="black" points="221,-519 221,-549 359,-549 359,-519 221,-519"/>
<text text-anchor="start" x="229" y="-537" font-family="Helvetica,sans-Serif" font-size="10.00">cellsociety_team01.rules.</text>
<text text-anchor="middle" x="290" y="-526" font-family="Helvetica,sans-Serif" font-size="10.00">ReproductionRule.apply</text>
</a>
</g>
</g>
<!-- Node1&#45;&gt;Node7 -->
<g id="edge6" class="edge"><title>Node1&#45;&gt;Node7</title>
<path fill="none" stroke="midnightblue" d="M97.4392,-420.258C117.822,-445.8 153.91,-486.209 194,-509 202.303,-513.72 211.519,-517.571 220.852,-520.708"/>
<polygon fill="midnightblue" stroke="midnightblue" points="100.064,-417.932 91.1456,-412.213 94.5503,-422.245 100.064,-417.932"/>
</g>
<!-- Node8 -->
<g id="node8" class="node"><title>Node8</title>
<g id="a_node8"><a xlink:href="../../d9/d10/classcellsociety__team01_1_1rules_1_1_movement_rule.html#a5f0521febc4a9092ad136a10e8307cea" target="_top" xlink:title="cellsociety_team01.rules.\lMovementRule.apply">
<polygon fill="white" stroke="black" points="221,-470 221,-500 359,-500 359,-470 221,-470"/>
<text text-anchor="start" x="229" y="-488" font-family="Helvetica,sans-Serif" font-size="10.00">cellsociety_team01.rules.</text>
<text text-anchor="middle" x="290" y="-477" font-family="Helvetica,sans-Serif" font-size="10.00">MovementRule.apply</text>
</a>
</g>
</g>
<!-- Node1&#45;&gt;Node8 -->
<g id="edge7" class="edge"><title>Node1&#45;&gt;Node8</title>
<path fill="none" stroke="midnightblue" d="M115.612,-417.035C137.743,-429.001 167.024,-443.966 194,-455 207.287,-460.435 221.945,-465.499 235.687,-469.862"/>
<polygon fill="midnightblue" stroke="midnightblue" points="117.047,-413.831 106.592,-412.111 113.692,-419.975 117.047,-413.831"/>
</g>
<!-- Node9 -->
<g id="node9" class="node"><title>Node9</title>
<g id="a_node9"><a xlink:href="../../d4/d68/classcellsociety__team01_1_1rules_1_1_consumption_rule.html#a2298782f412ffc7b683876b65d6e2d03" target="_top" xlink:title="cellsociety_team01.rules.\lConsumptionRule.apply">
<polygon fill="white" stroke="black" points="620,-360 620,-390 758,-390 758,-360 620,-360"/>
<text text-anchor="start" x="628" y="-378" font-family="Helvetica,sans-Serif" font-size="10.00">cellsociety_team01.rules.</text>
<text text-anchor="middle" x="689" y="-367" font-family="Helvetica,sans-Serif" font-size="10.00">ConsumptionRule.apply</text>
</a>
</g>
</g>
<!-- Node1&#45;&gt;Node9 -->
<g id="edge8" class="edge"><title>Node1&#45;&gt;Node9</title>
<path fill="none" stroke="midnightblue" d="M149.876,-379.904C164.375,-377.031 179.617,-374.498 194,-373 345.414,-357.235 524.348,-364.293 619.848,-370.104"/>
<polygon fill="midnightblue" stroke="midnightblue" points="149.067,-376.497 139.977,-381.94 150.477,-383.354 149.067,-376.497"/>
</g>
<!-- Node10 -->
<g id="node10" class="node"><title>Node10</title>
<g id="a_node10"><a xlink:href="../../d4/d0c/classcellsociety__team01_1_1rules_1_1_uphill_movement_rule.html#a8daf14bc1c2e2367b7175e4cf2b1902a" target="_top" xlink:title="cellsociety_team01.rules.\lUphillMovementRule.pickCell">
<polygon fill="white" stroke="black" points="214,-705 214,-735 366,-735 366,-705 214,-705"/>
<text text-anchor="start" x="222" y="-723" font-family="Helvetica,sans-Serif" font-size="10.00">cellsociety_team01.rules.</text>
<text text-anchor="middle" x="290" y="-712" font-family="Helvetica,sans-Serif" font-size="10.00">UphillMovementRule.pickCell</text>
</a>
</g>
</g>
<!-- Node1&#45;&gt;Node10 -->
<g id="edge9" class="edge"><title>Node1&#45;&gt;Node10</title>
<path fill="none" stroke="midnightblue" d="M82.5753,-422.478C89.6437,-478.941 114.459,-615.481 194,-690 200.563,-696.149 208.38,-701.038 216.67,-704.925"/>
<polygon fill="midnightblue" stroke="midnightblue" points="86.0226,-421.822 81.3873,-412.295 79.0698,-422.633 86.0226,-421.822"/>
</g>
<!-- Node11 -->
<g id="node11" class="node"><title>Node11</title>
<g id="a_node11"><a xlink:href="../../d9/d10/classcellsociety__team01_1_1rules_1_1_movement_rule.html#ab8ba87bafbedec6706b098ef2adce7fe" target="_top" xlink:title="cellsociety_team01.rules.\lMovementRule.switchStatesUpdated">
<polygon fill="white" stroke="black" points="194,-382 194,-412 386,-412 386,-382 194,-382"/>
<text text-anchor="start" x="202" y="-400" font-family="Helvetica,sans-Serif" font-size="10.00">cellsociety_team01.rules.</text>
<text text-anchor="middle" x="290" y="-389" font-family="Helvetica,sans-Serif" font-size="10.00">MovementRule.switchStatesUpdated</text>
</a>
</g>
</g>
<!-- Node1&#45;&gt;Node11 -->
<g id="edge11" class="edge"><title>Node1&#45;&gt;Node11</title>
<path fill="none" stroke="midnightblue" d="M168.277,-397C176.673,-397 185.213,-397 193.672,-397"/>
<polygon fill="midnightblue" stroke="midnightblue" points="168.121,-393.5 158.121,-397 168.121,-400.5 168.121,-393.5"/>
</g>
<!-- Node13 -->
<g id="node13" class="node"><title>Node13</title>
<g id="a_node13"><a xlink:href="../../dc/d72/classcellsociety__team01_1_1simulations_1_1_game_of_life.html#a773e2cf32269345e0761154b1b7ae350" target="_top" xlink:title="cellsociety_team01.simulations.\lGameOfLife.update">
<polygon fill="white" stroke="black" points="205,-294 205,-324 375,-324 375,-294 205,-294"/>
<text text-anchor="start" x="213" y="-312" font-family="Helvetica,sans-Serif" font-size="10.00">cellsociety_team01.simulations.</text>
<text text-anchor="middle" x="290" y="-301" font-family="Helvetica,sans-Serif" font-size="10.00">GameOfLife.update</text>
</a>
</g>
</g>
<!-- Node1&#45;&gt;Node13 -->
<g id="edge15" class="edge"><title>Node1&#45;&gt;Node13</title>
<path fill="none" stroke="midnightblue" d="M115.612,-376.965C137.743,-364.999 167.024,-350.034 194,-339 207.287,-333.565 221.945,-328.501 235.687,-324.138"/>
<polygon fill="midnightblue" stroke="midnightblue" points="113.692,-374.025 106.592,-381.889 117.047,-380.169 113.692,-374.025"/>
</g>
<!-- Node14 -->
<g id="node14" class="node"><title>Node14</title>
<g id="a_node14"><a xlink:href="../../df/df3/classcellsociety__team01_1_1simulations_1_1_slime_molds.html#a0a8b87c816e05186ca040523491a30f9" target="_top" xlink:title="cellsociety_team01.simulations.\lSlimeMolds.update">
<polygon fill="white" stroke="black" points="205,-245 205,-275 375,-275 375,-245 205,-245"/>
<text text-anchor="start" x="213" y="-263" font-family="Helvetica,sans-Serif" font-size="10.00">cellsociety_team01.simulations.</text>
<text text-anchor="middle" x="290" y="-252" font-family="Helvetica,sans-Serif" font-size="10.00">SlimeMolds.update</text>
</a>
</g>
</g>
<!-- Node1&#45;&gt;Node14 -->
<g id="edge16" class="edge"><title>Node1&#45;&gt;Node14</title>
<path fill="none" stroke="midnightblue" d="M97.4392,-373.742C117.822,-348.2 153.91,-307.791 194,-285 200.82,-281.123 208.256,-277.832 215.868,-275.041"/>
<polygon fill="midnightblue" stroke="midnightblue" points="94.5503,-371.755 91.1456,-381.787 100.064,-376.068 94.5503,-371.755"/>
</g>
<!-- Node15 -->
<g id="node15" class="node"><title>Node15</title>
<g id="a_node15"><a xlink:href="../../d8/d2f/classcellsociety__team01_1_1simulations_1_1_segregation.html#a826bda4fbbffc63b6d5635fbd130e1a4" target="_top" xlink:title="cellsociety_team01.simulations.\lSegregation.update">
<polygon fill="white" stroke="black" points="205,-196 205,-226 375,-226 375,-196 205,-196"/>
<text text-anchor="start" x="213" y="-214" font-family="Helvetica,sans-Serif" font-size="10.00">cellsociety_team01.simulations.</text>
<text text-anchor="middle" x="290" y="-203" font-family="Helvetica,sans-Serif" font-size="10.00">Segregation.update</text>
</a>
</g>
</g>
<!-- Node1&#45;&gt;Node15 -->
<g id="edge17" class="edge"><title>Node1&#45;&gt;Node15</title>
<path fill="none" stroke="midnightblue" d="M90.4194,-372.508C106.968,-336.641 142.718,-270.274 194,-235 199.046,-231.529 204.551,-228.56 210.287,-226.02"/>
<polygon fill="midnightblue" stroke="midnightblue" points="87.1666,-371.208 86.2641,-381.764 93.5526,-374.074 87.1666,-371.208"/>
</g>
<!-- Node16 -->
<g id="node16" class="node"><title>Node16</title>
<g id="a_node16"><a xlink:href="../../d3/d2a/classcellsociety__team01_1_1simulations_1_1_spreading_of_fire.html#a0305b54dd127f6ad48e258deead2af8f" target="_top" xlink:title="cellsociety_team01.simulations.\lSpreadingOfFire.update">
<polygon fill="white" stroke="black" points="205,-147 205,-177 375,-177 375,-147 205,-147"/>
<text text-anchor="start" x="213" y="-165" font-family="Helvetica,sans-Serif" font-size="10.00">cellsociety_team01.simulations.</text>
<text text-anchor="middle" x="290" y="-154" font-family="Helvetica,sans-Serif" font-size="10.00">SpreadingOfFire.update</text>
</a>
</g>
</g>
<!-- Node1&#45;&gt;Node16 -->
<g id="edge18" class="edge"><title>Node1&#45;&gt;Node16</title>
<path fill="none" stroke="midnightblue" d="M86.3276,-372.022C98.9308,-327.526 131.493,-234.657 194,-186 198.43,-182.552 203.296,-179.594 208.413,-177.057"/>
<polygon fill="midnightblue" stroke="midnightblue" points="82.931,-371.174 83.6761,-381.743 89.6843,-373.016 82.931,-371.174"/>
</g>
<!-- Node17 -->
<g id="node17" class="node"><title>Node17</title>
<g id="a_node17"><a xlink:href="../../d7/d89/classcellsociety__team01_1_1simulations_1_1_sugarscape.html#afcb37216cf85c2b1ed557b0c6517d4b6" target="_top" xlink:title="cellsociety_team01.simulations.\lSugarscape.update">
<polygon fill="white" stroke="black" points="205,-98 205,-128 375,-128 375,-98 205,-98"/>
<text text-anchor="start" x="213" y="-116" font-family="Helvetica,sans-Serif" font-size="10.00">cellsociety_team01.simulations.</text>
<text text-anchor="middle" x="290" y="-105" font-family="Helvetica,sans-Serif" font-size="10.00">Sugarscape.update</text>
</a>
</g>
</g>
<!-- Node1&#45;&gt;Node17 -->
<g id="edge19" class="edge"><title>Node1&#45;&gt;Node17</title>
<path fill="none" stroke="midnightblue" d="M83.5676,-371.923C92.337,-319.87 119.899,-199.734 194,-137 198.025,-133.593 202.468,-130.658 207.169,-128.133"/>
<polygon fill="midnightblue" stroke="midnightblue" points="80.0868,-371.526 81.9716,-381.952 86.9998,-372.626 80.0868,-371.526"/>
</g>
<!-- Node18 -->
<g id="node18" class="node"><title>Node18</title>
<g id="a_node18"><a xlink:href="../../d2/dd4/classcellsociety__team01_1_1simulations_1_1_ant_foraging.html#a4751c84297330c818a0e9d59c6a78cd5" target="_top" xlink:title="cellsociety_team01.simulations.\lAntForaging.update">
<polygon fill="white" stroke="black" points="205,-49 205,-79 375,-79 375,-49 205,-49"/>
<text text-anchor="start" x="213" y="-67" font-family="Helvetica,sans-Serif" font-size="10.00">cellsociety_team01.simulations.</text>
<text text-anchor="middle" x="290" y="-56" font-family="Helvetica,sans-Serif" font-size="10.00">AntForaging.update</text>
</a>
</g>
</g>
<!-- Node1&#45;&gt;Node18 -->
<g id="edge20" class="edge"><title>Node1&#45;&gt;Node18</title>
<path fill="none" stroke="midnightblue" d="M81.6507,-371.435C86.8918,-312.26 108.322,-165.047 194,-88 197.795,-84.5876 202.005,-81.6454 206.48,-79.11"/>
<polygon fill="midnightblue" stroke="midnightblue" points="78.1352,-371.49 80.8262,-381.737 85.1129,-372.049 78.1352,-371.49"/>
</g>
<!-- Node19 -->
<g id="node19" class="node"><title>Node19</title>
<g id="a_node19"><a xlink:href="../../d6/dcf/classcellsociety__team01_1_1simulations_1_1_predator_prey.html#adeed145de5b9e9f09f559e56cb30f5ef" target="_top" xlink:title="cellsociety_team01.simulations.\lPredatorPrey.update">
<polygon fill="white" stroke="black" points="205,-0 205,-30 375,-30 375,-0 205,-0"/>
<text text-anchor="start" x="213" y="-18" font-family="Helvetica,sans-Serif" font-size="10.00">cellsociety_team01.simulations.</text>
<text text-anchor="middle" x="290" y="-7" font-family="Helvetica,sans-Serif" font-size="10.00">PredatorPrey.update</text>
</a>
</g>
</g>
<!-- Node1&#45;&gt;Node19 -->
<g id="edge21" class="edge"><title>Node1&#45;&gt;Node19</title>
<path fill="none" stroke="midnightblue" d="M80.159,-371.527C82.011,-306.109 96.3284,-130.904 194,-39 197.593,-35.6194 201.591,-32.6967 205.856,-30.1715"/>
<polygon fill="midnightblue" stroke="midnightblue" points="76.6554,-371.671 79.949,-381.741 83.6539,-371.815 76.6554,-371.671"/>
</g>
<!-- Node10&#45;&gt;Node4 -->
<g id="edge10" class="edge"><title>Node10&#45;&gt;Node4</title>
<path fill="none" stroke="midnightblue" d="M376.385,-711.097C394.753,-709.182 413.965,-707.179 431.683,-705.332"/>
<polygon fill="midnightblue" stroke="midnightblue" points="375.865,-707.632 366.282,-712.151 376.591,-714.595 375.865,-707.632"/>
</g>
<!-- Node11&#45;&gt;Node3 -->
<g id="edge14" class="edge"><title>Node11&#45;&gt;Node3</title>
<path fill="none" stroke="midnightblue" d="M365.629,-414.331C389.055,-419.771 414.709,-425.729 437.382,-430.994"/>
<polygon fill="midnightblue" stroke="midnightblue" points="366.273,-410.887 355.741,-412.035 364.69,-417.706 366.273,-410.887"/>
</g>
<!-- Node12 -->
<g id="node12" class="node"><title>Node12</title>
<g id="a_node12"><a xlink:href="../../d4/d68/classcellsociety__team01_1_1rules_1_1_consumption_rule.html#ad98d5c884aa2be83cf2bb31cd3550208" target="_top" xlink:title="cellsociety_team01.rules.\lConsumptionRule.eat">
<polygon fill="white" stroke="black" points="434,-382 434,-412 572,-412 572,-382 434,-382"/>
<text text-anchor="start" x="442" y="-400" font-family="Helvetica,sans-Serif" font-size="10.00">cellsociety_team01.rules.</text>
<text text-anchor="middle" x="503" y="-389" font-family="Helvetica,sans-Serif" font-size="10.00">ConsumptionRule.eat</text>
</a>
</g>
</g>
<!-- Node11&#45;&gt;Node12 -->
<g id="edge12" class="edge"><title>Node11&#45;&gt;Node12</title>
<path fill="none" stroke="midnightblue" d="M396.212,-397C408.956,-397 421.705,-397 433.716,-397"/>
<polygon fill="midnightblue" stroke="midnightblue" points="396.007,-393.5 386.007,-397 396.007,-400.5 396.007,-393.5"/>
</g>
<!-- Node12&#45;&gt;Node9 -->
<g id="edge13" class="edge"><title>Node12&#45;&gt;Node9</title>
<path fill="none" stroke="midnightblue" d="M582.202,-387.65C594.724,-386.153 607.594,-384.614 619.857,-383.148"/>
<polygon fill="midnightblue" stroke="midnightblue" points="581.767,-384.177 572.253,-388.839 582.598,-391.127 581.767,-384.177"/>
</g>
</g>
</svg>
