<?xml version="1.0" encoding="UTF-8" standalone="no"?>
<!DOCTYPE svg PUBLIC "-//W3C//DTD SVG 1.1//EN"
 "http://www.w3.org/Graphics/SVG/1.1/DTD/svg11.dtd">
<!-- Generated by graphviz version 2.36.0 (20140111.2315)
 -->
<!-- Title: cellsociety_team01.CellState.Cell.getX Pages: 1 -->
<svg width="1784pt" height="162pt"
 viewBox="0.00 0.00 1784.00 162.00" xmlns="http://www.w3.org/2000/svg" xmlns:xlink="http://www.w3.org/1999/xlink">
<g id="graph0" class="graph" transform="scale(1 1) rotate(0) translate(4 158)">
<title>cellsociety_team01.CellState.Cell.getX</title>
<polygon fill="white" stroke="none" points="-4,4 -4,-158 1780,-158 1780,4 -4,4"/>
<!-- Node1 -->
<g id="node1" class="node"><title>Node1</title>
<polygon fill="#bfbfbf" stroke="black" points="0,-50 0,-80 158,-80 158,-50 0,-50"/>
<text text-anchor="start" x="8" y="-68" font-family="Helvetica,sans-Serif" font-size="10.00">cellsociety_team01.CellState.</text>
<text text-anchor="middle" x="79" y="-57" font-family="Helvetica,sans-Serif" font-size="10.00">Cell.getX</text>
</g>
<!-- Node2 -->
<g id="node2" class="node"><title>Node2</title>
<g id="a_node2"><a xlink:href="../../d7/de1/classcellsociety__team01_1_1modelview_1_1_grid_model.html#a87b600f8e19542b7210757866313fb8d" target="_top" xlink:title="cellsociety_team01.modelview.\lGridModel.getAllPossibleNeighbors">
<polygon fill="white" stroke="black" points="212,-99 212,-129 394,-129 394,-99 212,-99"/>
<text text-anchor="start" x="220" y="-117" font-family="Helvetica,sans-Serif" font-size="10.00">cellsociety_team01.modelview.</text>
<text text-anchor="middle" x="303" y="-106" font-family="Helvetica,sans-Serif" font-size="10.00">GridModel.getAllPossibleNeighbors</text>
</a>
</g>
</g>
<!-- Node1&#45;&gt;Node2 -->
<g id="edge1" class="edge"><title>Node1&#45;&gt;Node2</title>
<path fill="none" stroke="midnightblue" d="M158.19,-82.2581C182.926,-87.718 210.051,-93.705 234.013,-98.9938"/>
<polygon fill="midnightblue" stroke="midnightblue" points="158.635,-78.7723 148.116,-80.0346 157.127,-85.6078 158.635,-78.7723"/>
</g>
<!-- Node12 -->
<g id="node12" class="node"><title>Node12</title>
<g id="a_node12"><a xlink:href="../../df/d51/classcellsociety__team01_1_1modelview_1_1_triangular_grid_model.html#ae6d8e6d4fcd22a97ba3ac4ad384e3acb" target="_top" xlink:title="cellsociety_team01.modelview.\lTriangularGridModel.getCardinalNeighbors">
<polygon fill="white" stroke="black" points="194.5,-50 194.5,-80 411.5,-80 411.5,-50 194.5,-50"/>
<text text-anchor="start" x="202.5" y="-68" font-family="Helvetica,sans-Serif" font-size="10.00">cellsociety_team01.modelview.</text>
<text text-anchor="middle" x="303" y="-57" font-family="Helvetica,sans-Serif" font-size="10.00">TriangularGridModel.getCardinalNeighbors</text>
</a>
</g>
</g>
<!-- Node1&#45;&gt;Node12 -->
<g id="edge12" class="edge"><title>Node1&#45;&gt;Node12</title>
<path fill="none" stroke="midnightblue" d="M168.284,-65C176.901,-65 185.709,-65 194.488,-65"/>
<polygon fill="midnightblue" stroke="midnightblue" points="168.269,-61.5001 158.269,-65 168.269,-68.5001 168.269,-61.5001"/>
</g>
<!-- Node13 -->
<g id="node13" class="node"><title>Node13</title>
<g id="a_node13"><a xlink:href="../../d0/dcc/classcellsociety__team01_1_1modelview_1_1_square_grid_model.html#af00d017ff5635b2e28a97f25fecfff33" target="_top" xlink:title="cellsociety_team01.modelview.\lSquareGridModel.getCardinalNeighbors">
<polygon fill="white" stroke="black" points="200,-1 200,-31 406,-31 406,-1 200,-1"/>
<text text-anchor="start" x="208" y="-19" font-family="Helvetica,sans-Serif" font-size="10.00">cellsociety_team01.modelview.</text>
<text text-anchor="middle" x="303" y="-8" font-family="Helvetica,sans-Serif" font-size="10.00">SquareGridModel.getCardinalNeighbors</text>
</a>
</g>
</g>
<!-- Node1&#45;&gt;Node13 -->
<g id="edge13" class="edge"><title>Node1&#45;&gt;Node13</title>
<path fill="none" stroke="midnightblue" d="M158.19,-47.7419C182.926,-42.282 210.051,-36.295 234.013,-31.0062"/>
<polygon fill="midnightblue" stroke="midnightblue" points="157.127,-44.3922 148.116,-49.9654 158.635,-51.2277 157.127,-44.3922"/>
</g>
<!-- Node3 -->
<g id="node3" class="node"><title>Node3</title>
<g id="a_node3"><a xlink:href="../../d7/de1/classcellsociety__team01_1_1modelview_1_1_grid_model.html#a50a93468046d735bbc41c59ee14df150" target="_top" xlink:title="cellsociety_team01.modelview.\lGridModel.setNeighbors">
<polygon fill="white" stroke="black" points="448,-99 448,-129 612,-129 612,-99 448,-99"/>
<text text-anchor="start" x="456" y="-117" font-family="Helvetica,sans-Serif" font-size="10.00">cellsociety_team01.modelview.</text>
<text text-anchor="middle" x="530" y="-106" font-family="Helvetica,sans-Serif" font-size="10.00">GridModel.setNeighbors</text>
</a>
</g>
</g>
<!-- Node2&#45;&gt;Node3 -->
<g id="edge2" class="edge"><title>Node2&#45;&gt;Node3</title>
<path fill="none" stroke="midnightblue" d="M404.26,-114C418.845,-114 433.708,-114 447.852,-114"/>
<polygon fill="midnightblue" stroke="midnightblue" points="404.22,-110.5 394.22,-114 404.22,-117.5 404.22,-110.5"/>
</g>
<!-- Node4 -->
<g id="node4" class="node"><title>Node4</title>
<g id="a_node4"><a xlink:href="../../d2/d8b/classcellsociety__team01_1_1modelview_1_1_grid.html#a959c40c0688692c45eb4677c4ad9e313" target="_top" xlink:title="cellsociety_team01.modelview.\lGrid.setNeighbors">
<polygon fill="white" stroke="black" points="648,-99 648,-129 812,-129 812,-99 648,-99"/>
<text text-anchor="start" x="656" y="-117" font-family="Helvetica,sans-Serif" font-size="10.00">cellsociety_team01.modelview.</text>
<text text-anchor="middle" x="730" y="-106" font-family="Helvetica,sans-Serif" font-size="10.00">Grid.setNeighbors</text>
</a>
</g>
</g>
<!-- Node3&#45;&gt;Node4 -->
<g id="edge3" class="edge"><title>Node3&#45;&gt;Node4</title>
<path fill="none" stroke="midnightblue" d="M622.363,-114C630.817,-114 639.346,-114 647.7,-114"/>
<polygon fill="midnightblue" stroke="midnightblue" points="622.106,-110.5 612.105,-114 622.105,-117.5 622.106,-110.5"/>
</g>
<!-- Node5 -->
<g id="node5" class="node"><title>Node5</title>
<g id="a_node5"><a xlink:href="../../db/d40/classcellsociety__team01_1_1parser_1_1_parser.html#afa693f17f280ab1cf88baf2565c593a9" target="_top" xlink:title="cellsociety_team01.parser.\lParser.parseGrid">
<polygon fill="white" stroke="black" points="848.5,-99 848.5,-129 993.5,-129 993.5,-99 848.5,-99"/>
<text text-anchor="start" x="856.5" y="-117" font-family="Helvetica,sans-Serif" font-size="10.00">cellsociety_team01.parser.</text>
<text text-anchor="middle" x="921" y="-106" font-family="Helvetica,sans-Serif" font-size="10.00">Parser.parseGrid</text>
</a>
</g>
</g>
<!-- Node4&#45;&gt;Node5 -->
<g id="edge4" class="edge"><title>Node4&#45;&gt;Node5</title>
<path fill="none" stroke="midnightblue" d="M822.431,-114C831.133,-114 839.869,-114 848.345,-114"/>
<polygon fill="midnightblue" stroke="midnightblue" points="822.25,-110.5 812.25,-114 822.25,-117.5 822.25,-110.5"/>
</g>
<!-- Node6 -->
<g id="node6" class="node"><title>Node6</title>
<g id="a_node6"><a xlink:href="../../db/d40/classcellsociety__team01_1_1parser_1_1_parser.html#a31a05836dde41569f62542b9ea327f95" target="_top" xlink:title="cellsociety_team01.parser.\lParser.parseXmlFile">
<polygon fill="white" stroke="black" points="1030.5,-99 1030.5,-129 1175.5,-129 1175.5,-99 1030.5,-99"/>
<text text-anchor="start" x="1038.5" y="-117" font-family="Helvetica,sans-Serif" font-size="10.00">cellsociety_team01.parser.</text>
<text text-anchor="middle" x="1103" y="-106" font-family="Helvetica,sans-Serif" font-size="10.00">Parser.parseXmlFile</text>
</a>
</g>
</g>
<!-- Node5&#45;&gt;Node6 -->
<g id="edge5" class="edge"><title>Node5&#45;&gt;Node6</title>
<path fill="none" stroke="midnightblue" d="M1003.92,-114C1012.72,-114 1021.63,-114 1030.29,-114"/>
<polygon fill="midnightblue" stroke="midnightblue" points="1003.66,-110.5 993.658,-114 1003.66,-117.5 1003.66,-110.5"/>
</g>
<!-- Node7 -->
<g id="node7" class="node"><title>Node7</title>
<g id="a_node7"><a xlink:href="../../db/d10/classcellsociety__team01_1_1modelview_1_1_g_u_i.html#afa183319cc9816a6147cba0869ef82eb" target="_top" xlink:title="cellsociety_team01.modelview.\lGUI.loadXML">
<polygon fill="white" stroke="black" points="1212,-124 1212,-154 1376,-154 1376,-124 1212,-124"/>
<text text-anchor="start" x="1220" y="-142" font-family="Helvetica,sans-Serif" font-size="10.00">cellsociety_team01.modelview.</text>
<text text-anchor="middle" x="1294" y="-131" font-family="Helvetica,sans-Serif" font-size="10.00">GUI.loadXML</text>
</a>
</g>
</g>
<!-- Node6&#45;&gt;Node7 -->
<g id="edge6" class="edge"><title>Node6&#45;&gt;Node7</title>
<path fill="none" stroke="midnightblue" d="M1185.78,-124.818C1194.42,-125.96 1203.2,-127.122 1211.84,-128.264"/>
<polygon fill="midnightblue" stroke="midnightblue" points="1186.09,-121.329 1175.72,-123.487 1185.18,-128.268 1186.09,-121.329"/>
</g>
<!-- Node10 -->
<g id="node10" class="node"><title>Node10</title>
<g id="a_node10"><a xlink:href="../../db/d10/classcellsociety__team01_1_1modelview_1_1_g_u_i.html#a5c5e37ae72fe72af97fab2cb9a12b045" target="_top" xlink:title="cellsociety_team01.modelview.\lGUI.reset">
<polygon fill="white" stroke="black" points="1212,-75 1212,-105 1376,-105 1376,-75 1212,-75"/>
<text text-anchor="start" x="1220" y="-93" font-family="Helvetica,sans-Serif" font-size="10.00">cellsociety_team01.modelview.</text>
<text text-anchor="middle" x="1294" y="-82" font-family="Helvetica,sans-Serif" font-size="10.00">GUI.reset</text>
</a>
</g>
</g>
<!-- Node6&#45;&gt;Node10 -->
<g id="edge9" class="edge"><title>Node6&#45;&gt;Node10</title>
<path fill="none" stroke="midnightblue" d="M1185.78,-103.615C1194.42,-102.518 1203.2,-101.403 1211.84,-100.306"/>
<polygon fill="midnightblue" stroke="midnightblue" points="1185.2,-100.16 1175.72,-104.892 1186.08,-107.105 1185.2,-100.16"/>
</g>
<!-- Node8 -->
<g id="node8" class="node"><title>Node8</title>
<g id="a_node8"><a xlink:href="../../db/d10/classcellsociety__team01_1_1modelview_1_1_g_u_i.html#a4072ce794f518e806e7a912892f1e9da" target="_top" xlink:title="cellsociety_team01.modelview.\lGUI.makeMenuBar">
<polygon fill="white" stroke="black" points="1412,-124 1412,-154 1576,-154 1576,-124 1412,-124"/>
<text text-anchor="start" x="1420" y="-142" font-family="Helvetica,sans-Serif" font-size="10.00">cellsociety_team01.modelview.</text>
<text text-anchor="middle" x="1494" y="-131" font-family="Helvetica,sans-Serif" font-size="10.00">GUI.makeMenuBar</text>
</a>
</g>
</g>
<!-- Node7&#45;&gt;Node8 -->
<g id="edge7" class="edge"><title>Node7&#45;&gt;Node8</title>
<path fill="none" stroke="midnightblue" d="M1386.36,-139C1394.82,-139 1403.35,-139 1411.7,-139"/>
<polygon fill="midnightblue" stroke="midnightblue" points="1386.11,-135.5 1376.11,-139 1386.11,-142.5 1386.11,-135.5"/>
</g>
<!-- Node9 -->
<g id="node9" class="node"><title>Node9</title>
<g id="a_node9"><a xlink:href="../../db/d10/classcellsociety__team01_1_1modelview_1_1_g_u_i.html#a07bcff60812627c8dfe97f1aadc671e5" target="_top" xlink:title="cellsociety_team01.modelview.\lGUI.GUI">
<polygon fill="white" stroke="black" points="1612,-99 1612,-129 1776,-129 1776,-99 1612,-99"/>
<text text-anchor="start" x="1620" y="-117" font-family="Helvetica,sans-Serif" font-size="10.00">cellsociety_team01.modelview.</text>
<text text-anchor="middle" x="1694" y="-106" font-family="Helvetica,sans-Serif" font-size="10.00">GUI.GUI</text>
</a>
</g>
</g>
<!-- Node8&#45;&gt;Node9 -->
<g id="edge8" class="edge"><title>Node8&#45;&gt;Node9</title>
<path fill="none" stroke="midnightblue" d="M1586.08,-127.499C1594.63,-126.42 1603.25,-125.332 1611.7,-124.265"/>
<polygon fill="midnightblue" stroke="midnightblue" points="1585.59,-124.034 1576.11,-128.759 1586.47,-130.979 1585.59,-124.034"/>
</g>
<!-- Node11 -->
<g id="node11" class="node"><title>Node11</title>
<g id="a_node11"><a xlink:href="../../db/d10/classcellsociety__team01_1_1modelview_1_1_g_u_i.html#aa924c28ce131195d3f377b18177f6cb9" target="_top" xlink:title="cellsociety_team01.modelview.\lGUI.makeButtonsAndSlider">
<polygon fill="white" stroke="black" points="1412,-75 1412,-105 1576,-105 1576,-75 1412,-75"/>
<text text-anchor="start" x="1420" y="-93" font-family="Helvetica,sans-Serif" font-size="10.00">cellsociety_team01.modelview.</text>
<text text-anchor="middle" x="1494" y="-82" font-family="Helvetica,sans-Serif" font-size="10.00">GUI.makeButtonsAndSlider</text>
</a>
</g>
</g>
<!-- Node10&#45;&gt;Node11 -->
<g id="edge10" class="edge"><title>Node10&#45;&gt;Node11</title>
<path fill="none" stroke="midnightblue" d="M1386.36,-90C1394.82,-90 1403.35,-90 1411.7,-90"/>
<polygon fill="midnightblue" stroke="midnightblue" points="1386.11,-86.5001 1376.11,-90 1386.11,-93.5001 1386.11,-86.5001"/>
</g>
<!-- Node11&#45;&gt;Node9 -->
<g id="edge11" class="edge"><title>Node11&#45;&gt;Node9</title>
<path fill="none" stroke="midnightblue" d="M1586.08,-101.041C1594.63,-102.076 1603.25,-103.122 1611.7,-104.145"/>
<polygon fill="midnightblue" stroke="midnightblue" points="1586.45,-97.5598 1576.11,-99.831 1585.61,-104.509 1586.45,-97.5598"/>
</g>
</g>
</svg>
