<?xml version="1.0" encoding="UTF-8" standalone="no"?>
<!DOCTYPE svg PUBLIC "-//W3C//DTD SVG 1.1//EN"
 "http://www.w3.org/Graphics/SVG/1.1/DTD/svg11.dtd">
<!-- Generated by graphviz version 2.36.0 (20140111.2315)
 -->
<!-- Title: cellsociety_team01.CellState.Cell.setUpdated Pages: 1 -->
<svg width="766pt" height="419pt"
 viewBox="0.00 0.00 766.00 419.24" xmlns="http://www.w3.org/2000/svg" xmlns:xlink="http://www.w3.org/1999/xlink">
<g id="graph0" class="graph" transform="scale(1 1) rotate(0) translate(4 415.239)">
<title>cellsociety_team01.CellState.Cell.setUpdated</title>
<polygon fill="white" stroke="none" points="-4,4 -4,-415.239 762,-415.239 762,4 -4,4"/>
<!-- Node1 -->
<g id="node1" class="node"><title>Node1</title>
<polygon fill="#bfbfbf" stroke="black" points="0,-196 0,-226 158,-226 158,-196 0,-196"/>
<text text-anchor="start" x="8" y="-214" font-family="Helvetica,sans-Serif" font-size="10.00">cellsociety_team01.CellState.</text>
<text text-anchor="middle" x="79" y="-203" font-family="Helvetica,sans-Serif" font-size="10.00">Cell.setUpdated</text>
</g>
<!-- Node2 -->
<g id="node2" class="node"><title>Node2</title>
<g id="a_node2"><a xlink:href="../../df/d97/classcellsociety__team01_1_1rules_1_1_threshold_movement_rule.html#a80b6469bcd4546835352adbf0b901a22" target="_top" xlink:title="cellsociety_team01.rules.\lThresholdMovementRule.apply">
<polygon fill="white" stroke="black" points="422,-218 422,-248 584,-248 584,-218 422,-218"/>
<text text-anchor="start" x="430" y="-236" font-family="Helvetica,sans-Serif" font-size="10.00">cellsociety_team01.rules.</text>
<text text-anchor="middle" x="503" y="-225" font-family="Helvetica,sans-Serif" font-size="10.00">ThresholdMovementRule.apply</text>
</a>
</g>
</g>
<!-- Node1&#45;&gt;Node2 -->
<g id="edge1" class="edge"><title>Node1&#45;&gt;Node2</title>
<path fill="none" stroke="midnightblue" d="M87.9145,-235.702C102.028,-275.071 135.667,-350.781 194,-382 269.236,-422.265 309.335,-419.474 386,-382 444.317,-353.495 481.817,-279.951 495.815,-248.09"/>
<polygon fill="midnightblue" stroke="midnightblue" points="91.164,-234.389 84.595,-226.076 84.5464,-236.671 91.164,-234.389"/>
</g>
<!-- Node3 -->
<g id="node3" class="node"><title>Node3</title>
<g id="a_node3"><a xlink:href="../../d4/d0c/classcellsociety__team01_1_1rules_1_1_uphill_movement_rule.html#a7c3becfa5ede6439f068dfbb086b650c" target="_top" xlink:title="cellsociety_team01.rules.\lUphillMovementRule.apply">
<polygon fill="white" stroke="black" points="219,-343 219,-373 361,-373 361,-343 219,-343"/>
<text text-anchor="start" x="227" y="-361" font-family="Helvetica,sans-Serif" font-size="10.00">cellsociety_team01.rules.</text>
<text text-anchor="middle" x="290" y="-350" font-family="Helvetica,sans-Serif" font-size="10.00">UphillMovementRule.apply</text>
</a>
</g>
</g>
<!-- Node1&#45;&gt;Node3 -->
<g id="edge2" class="edge"><title>Node1&#45;&gt;Node3</title>
<path fill="none" stroke="midnightblue" d="M95.7522,-234.676C115.455,-262.418 151.778,-307.788 194,-333 201.614,-337.547 210.055,-341.278 218.672,-344.337"/>
<polygon fill="midnightblue" stroke="midnightblue" points="98.5357,-232.549 89.953,-226.337 92.7887,-236.545 98.5357,-232.549"/>
</g>
<!-- Node4 -->
<g id="node4" class="node"><title>Node4</title>
<g id="a_node4"><a xlink:href="../../df/d10/classcellsociety__team01_1_1rules_1_1_random_rule.html#af2f2a6f781032ff1aaf9c7f44f2bcb71" target="_top" xlink:title="cellsociety_team01.rules.\lRandomRule.apply">
<polygon fill="white" stroke="black" points="221,-294 221,-324 359,-324 359,-294 221,-294"/>
<text text-anchor="start" x="229" y="-312" font-family="Helvetica,sans-Serif" font-size="10.00">cellsociety_team01.rules.</text>
<text text-anchor="middle" x="290" y="-301" font-family="Helvetica,sans-Serif" font-size="10.00">RandomRule.apply</text>
</a>
</g>
</g>
<!-- Node1&#45;&gt;Node4 -->
<g id="edge3" class="edge"><title>Node1&#45;&gt;Node4</title>
<path fill="none" stroke="midnightblue" d="M107.806,-232.328C130.068,-248.51 162.651,-270.246 194,-284 202.59,-287.769 211.873,-291.072 221.157,-293.936"/>
<polygon fill="midnightblue" stroke="midnightblue" points="109.637,-229.33 99.5124,-226.209 105.481,-234.962 109.637,-229.33"/>
</g>
<!-- Node5 -->
<g id="node5" class="node"><title>Node5</title>
<g id="a_node5"><a xlink:href="../../d1/de7/classcellsociety__team01_1_1rules_1_1_threshold_rule.html#aa1df3d1abe0abdfa7e409f542d58b4a0" target="_top" xlink:title="cellsociety_team01.rules.\lThresholdRule.apply">
<polygon fill="white" stroke="black" points="221,-245 221,-275 359,-275 359,-245 221,-245"/>
<text text-anchor="start" x="229" y="-263" font-family="Helvetica,sans-Serif" font-size="10.00">cellsociety_team01.rules.</text>
<text text-anchor="middle" x="290" y="-252" font-family="Helvetica,sans-Serif" font-size="10.00">ThresholdRule.apply</text>
</a>
</g>
</g>
<!-- Node1&#45;&gt;Node5 -->
<g id="edge4" class="edge"><title>Node1&#45;&gt;Node5</title>
<path fill="none" stroke="midnightblue" d="M153.922,-228.331C177.126,-233.771 202.536,-239.729 224.994,-244.994"/>
<polygon fill="midnightblue" stroke="midnightblue" points="154.662,-224.91 144.127,-226.035 153.064,-231.725 154.662,-224.91"/>
</g>
<!-- Node6 -->
<g id="node6" class="node"><title>Node6</title>
<g id="a_node6"><a xlink:href="../../d8/dd6/classcellsociety__team01_1_1rules_1_1_priority_forward_rule.html#af3653ecda655c212e7b82252d01b8ae6" target="_top" xlink:title="cellsociety_team01.rules.\lPriorityForwardRule.apply">
<polygon fill="white" stroke="black" points="221,-196 221,-226 359,-226 359,-196 221,-196"/>
<text text-anchor="start" x="229" y="-214" font-family="Helvetica,sans-Serif" font-size="10.00">cellsociety_team01.rules.</text>
<text text-anchor="middle" x="290" y="-203" font-family="Helvetica,sans-Serif" font-size="10.00">PriorityForwardRule.apply</text>
</a>
</g>
</g>
<!-- Node1&#45;&gt;Node6 -->
<g id="edge5" class="edge"><title>Node1&#45;&gt;Node6</title>
<path fill="none" stroke="midnightblue" d="M168.382,-211C185.958,-211 204.157,-211 220.926,-211"/>
<polygon fill="midnightblue" stroke="midnightblue" points="168.121,-207.5 158.121,-211 168.121,-214.5 168.121,-207.5"/>
</g>
<!-- Node7 -->
<g id="node7" class="node"><title>Node7</title>
<g id="a_node7"><a xlink:href="../../d5/d26/classcellsociety__team01_1_1rules_1_1_reproduction_rule.html#ab011923eec073a1756fa121391885c3c" target="_top" xlink:title="cellsociety_team01.rules.\lReproductionRule.apply">
<polygon fill="white" stroke="black" points="221,-147 221,-177 359,-177 359,-147 221,-147"/>
<text text-anchor="start" x="229" y="-165" font-family="Helvetica,sans-Serif" font-size="10.00">cellsociety_team01.rules.</text>
<text text-anchor="middle" x="290" y="-154" font-family="Helvetica,sans-Serif" font-size="10.00">ReproductionRule.apply</text>
</a>
</g>
</g>
<!-- Node1&#45;&gt;Node7 -->
<g id="edge6" class="edge"><title>Node1&#45;&gt;Node7</title>
<path fill="none" stroke="midnightblue" d="M153.922,-193.669C177.126,-188.229 202.536,-182.271 224.994,-177.006"/>
<polygon fill="midnightblue" stroke="midnightblue" points="153.064,-190.275 144.127,-195.965 154.662,-197.09 153.064,-190.275"/>
</g>
<!-- Node8 -->
<g id="node8" class="node"><title>Node8</title>
<g id="a_node8"><a xlink:href="../../d9/d10/classcellsociety__team01_1_1rules_1_1_movement_rule.html#a5f0521febc4a9092ad136a10e8307cea" target="_top" xlink:title="cellsociety_team01.rules.\lMovementRule.apply">
<polygon fill="white" stroke="black" points="221,-98 221,-128 359,-128 359,-98 221,-98"/>
<text text-anchor="start" x="229" y="-116" font-family="Helvetica,sans-Serif" font-size="10.00">cellsociety_team01.rules.</text>
<text text-anchor="middle" x="290" y="-105" font-family="Helvetica,sans-Serif" font-size="10.00">MovementRule.apply</text>
</a>
</g>
</g>
<!-- Node1&#45;&gt;Node8 -->
<g id="edge7" class="edge"><title>Node1&#45;&gt;Node8</title>
<path fill="none" stroke="midnightblue" d="M107.806,-189.672C130.068,-173.49 162.651,-151.754 194,-138 202.59,-134.231 211.873,-130.928 221.157,-128.064"/>
<polygon fill="midnightblue" stroke="midnightblue" points="105.481,-187.038 99.5124,-195.791 109.637,-192.67 105.481,-187.038"/>
</g>
<!-- Node9 -->
<g id="node9" class="node"><title>Node9</title>
<g id="a_node9"><a xlink:href="../../da/df7/classcellsociety__team01_1_1simulations_1_1_simulation.html#aee6796ea09093caa13f5604b10a159c2" target="_top" xlink:title="cellsociety_team01.simulations.\lSimulation.setUpdated">
<polygon fill="white" stroke="black" points="205,-49 205,-79 375,-79 375,-49 205,-49"/>
<text text-anchor="start" x="213" y="-67" font-family="Helvetica,sans-Serif" font-size="10.00">cellsociety_team01.simulations.</text>
<text text-anchor="middle" x="290" y="-56" font-family="Helvetica,sans-Serif" font-size="10.00">Simulation.setUpdated</text>
</a>
</g>
</g>
<!-- Node1&#45;&gt;Node9 -->
<g id="edge8" class="edge"><title>Node1&#45;&gt;Node9</title>
<path fill="none" stroke="midnightblue" d="M95.7522,-187.324C115.455,-159.582 151.778,-114.212 194,-89 200.443,-85.1528 207.477,-81.8896 214.71,-79.1232"/>
<polygon fill="midnightblue" stroke="midnightblue" points="92.7887,-185.455 89.953,-195.663 98.5357,-189.451 92.7887,-185.455"/>
</g>
<!-- Node10 -->
<g id="node10" class="node"><title>Node10</title>
<g id="a_node10"><a xlink:href="../../d9/d10/classcellsociety__team01_1_1rules_1_1_movement_rule.html#ab8ba87bafbedec6706b098ef2adce7fe" target="_top" xlink:title="cellsociety_team01.rules.\lMovementRule.switchStatesUpdated">
<polygon fill="white" stroke="black" points="194,-0 194,-30 386,-30 386,-0 194,-0"/>
<text text-anchor="start" x="202" y="-18" font-family="Helvetica,sans-Serif" font-size="10.00">cellsociety_team01.rules.</text>
<text text-anchor="middle" x="290" y="-7" font-family="Helvetica,sans-Serif" font-size="10.00">MovementRule.switchStatesUpdated</text>
</a>
</g>
</g>
<!-- Node1&#45;&gt;Node10 -->
<g id="edge9" class="edge"><title>Node1&#45;&gt;Node10</title>
<path fill="none" stroke="midnightblue" d="M89.5225,-186.148C105.311,-148.362 140.564,-76.8645 194,-39 198.858,-35.5577 204.163,-32.608 209.703,-30.0807"/>
<polygon fill="midnightblue" stroke="midnightblue" points="86.1004,-185.274 85.5864,-195.856 92.5875,-187.904 86.1004,-185.274"/>
</g>
<!-- Node10&#45;&gt;Node2 -->
<g id="edge12" class="edge"><title>Node10&#45;&gt;Node2</title>
<path fill="none" stroke="midnightblue" d="M380.139,-35.0319C382.157,-36.2763 384.115,-37.5974 386,-39 450.069,-86.67 485.579,-181.141 497.449,-217.884"/>
<polygon fill="midnightblue" stroke="midnightblue" points="381.409,-31.7396 370.949,-30.0533 378.074,-37.8944 381.409,-31.7396"/>
</g>
<!-- Node11 -->
<g id="node11" class="node"><title>Node11</title>
<g id="a_node11"><a xlink:href="../../d4/d68/classcellsociety__team01_1_1rules_1_1_consumption_rule.html#ad98d5c884aa2be83cf2bb31cd3550208" target="_top" xlink:title="cellsociety_team01.rules.\lConsumptionRule.eat">
<polygon fill="white" stroke="black" points="434,-0 434,-30 572,-30 572,-0 434,-0"/>
<text text-anchor="start" x="442" y="-18" font-family="Helvetica,sans-Serif" font-size="10.00">cellsociety_team01.rules.</text>
<text text-anchor="middle" x="503" y="-7" font-family="Helvetica,sans-Serif" font-size="10.00">ConsumptionRule.eat</text>
</a>
</g>
</g>
<!-- Node10&#45;&gt;Node11 -->
<g id="edge10" class="edge"><title>Node10&#45;&gt;Node11</title>
<path fill="none" stroke="midnightblue" d="M396.212,-15C408.956,-15 421.705,-15 433.716,-15"/>
<polygon fill="midnightblue" stroke="midnightblue" points="396.007,-11.5001 386.007,-15 396.007,-18.5001 396.007,-11.5001"/>
</g>
<!-- Node12 -->
<g id="node12" class="node"><title>Node12</title>
<g id="a_node12"><a xlink:href="../../d4/d68/classcellsociety__team01_1_1rules_1_1_consumption_rule.html#a2298782f412ffc7b683876b65d6e2d03" target="_top" xlink:title="cellsociety_team01.rules.\lConsumptionRule.apply">
<polygon fill="white" stroke="black" points="620,-0 620,-30 758,-30 758,-0 620,-0"/>
<text text-anchor="start" x="628" y="-18" font-family="Helvetica,sans-Serif" font-size="10.00">cellsociety_team01.rules.</text>
<text text-anchor="middle" x="689" y="-7" font-family="Helvetica,sans-Serif" font-size="10.00">ConsumptionRule.apply</text>
</a>
</g>
</g>
<!-- Node11&#45;&gt;Node12 -->
<g id="edge11" class="edge"><title>Node11&#45;&gt;Node12</title>
<path fill="none" stroke="midnightblue" d="M582.574,-15C594.978,-15 607.715,-15 619.857,-15"/>
<polygon fill="midnightblue" stroke="midnightblue" points="582.253,-11.5001 572.253,-15 582.253,-18.5001 582.253,-11.5001"/>
</g>
</g>
</svg>
