<?xml version="1.0" encoding="UTF-8" standalone="no"?>
<!DOCTYPE svg PUBLIC "-//W3C//DTD SVG 1.1//EN"
 "http://www.w3.org/Graphics/SVG/1.1/DTD/svg11.dtd">
<!-- Generated by graphviz version 2.36.0 (20140111.2315)
 -->
<!-- Title: cellsociety_team01.CellState.Cell.getNextState Pages: 1 -->
<svg width="554pt" height="332pt"
 viewBox="0.00 0.00 554.00 332.00" xmlns="http://www.w3.org/2000/svg" xmlns:xlink="http://www.w3.org/1999/xlink">
<g id="graph0" class="graph" transform="scale(1 1) rotate(0) translate(4 328)">
<title>cellsociety_team01.CellState.Cell.getNextState</title>
<polygon fill="white" stroke="none" points="-4,4 -4,-328 550,-328 550,4 -4,4"/>
<!-- Node1 -->
<g id="node1" class="node"><title>Node1</title>
<polygon fill="#bfbfbf" stroke="black" points="0,-147 0,-177 158,-177 158,-147 0,-147"/>
<text text-anchor="start" x="8" y="-165" font-family="Helvetica,sans-Serif" font-size="10.00">cellsociety_team01.CellState.</text>
<text text-anchor="middle" x="79" y="-154" font-family="Helvetica,sans-Serif" font-size="10.00">Cell.getNextState</text>
</g>
<!-- Node2 -->
<g id="node2" class="node"><title>Node2</title>
<g id="a_node2"><a xlink:href="../../d9/d54/classcellsociety__team01_1_1rules_1_1average_update_rule.html#a761454bd6432d0a0eccabd6c3eecf7b9" target="_top" xlink:title="cellsociety_team01.rules.average\lUpdateRule.apply">
<polygon fill="white" stroke="black" points="194.5,-294 194.5,-324 371.5,-324 371.5,-294 194.5,-294"/>
<text text-anchor="start" x="202.5" y="-312" font-family="Helvetica,sans-Serif" font-size="10.00">cellsociety_team01.rules.average</text>
<text text-anchor="middle" x="283" y="-301" font-family="Helvetica,sans-Serif" font-size="10.00">UpdateRule.apply</text>
</a>
</g>
</g>
<!-- Node1&#45;&gt;Node2 -->
<g id="edge1" class="edge"><title>Node1&#45;&gt;Node2</title>
<path fill="none" stroke="midnightblue" d="M95.8367,-185.536C115.622,-213.141 152.026,-258.378 194,-284 200.371,-287.889 207.37,-291.193 214.55,-293.995"/>
<polygon fill="midnightblue" stroke="midnightblue" points="98.6223,-183.413 90.0111,-177.241 92.8937,-187.436 98.6223,-183.413"/>
</g>
<!-- Node3 -->
<g id="node3" class="node"><title>Node3</title>
<g id="a_node3"><a xlink:href="../../d4/d0c/classcellsociety__team01_1_1rules_1_1_uphill_movement_rule.html#a7c3becfa5ede6439f068dfbb086b650c" target="_top" xlink:title="cellsociety_team01.rules.\lUphillMovementRule.apply">
<polygon fill="white" stroke="black" points="212,-245 212,-275 354,-275 354,-245 212,-245"/>
<text text-anchor="start" x="220" y="-263" font-family="Helvetica,sans-Serif" font-size="10.00">cellsociety_team01.rules.</text>
<text text-anchor="middle" x="283" y="-252" font-family="Helvetica,sans-Serif" font-size="10.00">UphillMovementRule.apply</text>
</a>
</g>
</g>
<!-- Node1&#45;&gt;Node3 -->
<g id="edge2" class="edge"><title>Node1&#45;&gt;Node3</title>
<path fill="none" stroke="midnightblue" d="M107.881,-183.158C130.185,-199.247 162.786,-220.942 194,-235 202.254,-238.718 211.196,-242.019 220.109,-244.906"/>
<polygon fill="midnightblue" stroke="midnightblue" points="109.708,-180.158 99.5705,-177.078 105.575,-185.807 109.708,-180.158"/>
</g>
<!-- Node4 -->
<g id="node4" class="node"><title>Node4</title>
<g id="a_node4"><a xlink:href="../../d1/ded/classcellsociety__team01_1_1rules_1_1_status_rule.html#a56036d5cb65607a077c6ef1f0c6f49aa" target="_top" xlink:title="cellsociety_team01.rules.\lStatusRule.apply">
<polygon fill="white" stroke="black" points="214,-196 214,-226 352,-226 352,-196 214,-196"/>
<text text-anchor="start" x="222" y="-214" font-family="Helvetica,sans-Serif" font-size="10.00">cellsociety_team01.rules.</text>
<text text-anchor="middle" x="283" y="-203" font-family="Helvetica,sans-Serif" font-size="10.00">StatusRule.apply</text>
</a>
</g>
</g>
<!-- Node1&#45;&gt;Node4 -->
<g id="edge3" class="edge"><title>Node1&#45;&gt;Node4</title>
<path fill="none" stroke="midnightblue" d="M151.746,-179.404C174.092,-184.824 198.529,-190.752 220.138,-195.994"/>
<polygon fill="midnightblue" stroke="midnightblue" points="152.523,-175.991 141.979,-177.035 150.872,-182.793 152.523,-175.991"/>
</g>
<!-- Node5 -->
<g id="node5" class="node"><title>Node5</title>
<g id="a_node5"><a xlink:href="../../d8/dd6/classcellsociety__team01_1_1rules_1_1_priority_forward_rule.html#af3653ecda655c212e7b82252d01b8ae6" target="_top" xlink:title="cellsociety_team01.rules.\lPriorityForwardRule.apply">
<polygon fill="white" stroke="black" points="214,-147 214,-177 352,-177 352,-147 214,-147"/>
<text text-anchor="start" x="222" y="-165" font-family="Helvetica,sans-Serif" font-size="10.00">cellsociety_team01.rules.</text>
<text text-anchor="middle" x="283" y="-154" font-family="Helvetica,sans-Serif" font-size="10.00">PriorityForwardRule.apply</text>
</a>
</g>
</g>
<!-- Node1&#45;&gt;Node5 -->
<g id="edge4" class="edge"><title>Node1&#45;&gt;Node5</title>
<path fill="none" stroke="midnightblue" d="M168.122,-162C183.487,-162 199.256,-162 213.975,-162"/>
<polygon fill="midnightblue" stroke="midnightblue" points="168.099,-158.5 158.098,-162 168.098,-165.5 168.099,-158.5"/>
</g>
<!-- Node6 -->
<g id="node6" class="node"><title>Node6</title>
<g id="a_node6"><a xlink:href="../../d5/d26/classcellsociety__team01_1_1rules_1_1_reproduction_rule.html#ab011923eec073a1756fa121391885c3c" target="_top" xlink:title="cellsociety_team01.rules.\lReproductionRule.apply">
<polygon fill="white" stroke="black" points="214,-98 214,-128 352,-128 352,-98 214,-98"/>
<text text-anchor="start" x="222" y="-116" font-family="Helvetica,sans-Serif" font-size="10.00">cellsociety_team01.rules.</text>
<text text-anchor="middle" x="283" y="-105" font-family="Helvetica,sans-Serif" font-size="10.00">ReproductionRule.apply</text>
</a>
</g>
</g>
<!-- Node1&#45;&gt;Node6 -->
<g id="edge5" class="edge"><title>Node1&#45;&gt;Node6</title>
<path fill="none" stroke="midnightblue" d="M151.746,-144.596C174.092,-139.176 198.529,-133.248 220.138,-128.006"/>
<polygon fill="midnightblue" stroke="midnightblue" points="150.872,-141.207 141.979,-146.965 152.523,-148.009 150.872,-141.207"/>
</g>
<!-- Node7 -->
<g id="node7" class="node"><title>Node7</title>
<g id="a_node7"><a xlink:href="../../d4/d68/classcellsociety__team01_1_1rules_1_1_consumption_rule.html#ad98d5c884aa2be83cf2bb31cd3550208" target="_top" xlink:title="cellsociety_team01.rules.\lConsumptionRule.eat">
<polygon fill="white" stroke="black" points="214,-49 214,-79 352,-79 352,-49 214,-49"/>
<text text-anchor="start" x="222" y="-67" font-family="Helvetica,sans-Serif" font-size="10.00">cellsociety_team01.rules.</text>
<text text-anchor="middle" x="283" y="-56" font-family="Helvetica,sans-Serif" font-size="10.00">ConsumptionRule.eat</text>
</a>
</g>
</g>
<!-- Node1&#45;&gt;Node7 -->
<g id="edge6" class="edge"><title>Node1&#45;&gt;Node7</title>
<path fill="none" stroke="midnightblue" d="M107.881,-140.842C130.185,-124.753 162.786,-103.058 194,-89 202.254,-85.2823 211.196,-81.9808 220.109,-79.0943"/>
<polygon fill="midnightblue" stroke="midnightblue" points="105.575,-138.193 99.5705,-146.922 109.708,-143.842 105.575,-138.193"/>
</g>
<!-- Node9 -->
<g id="node9" class="node"><title>Node9</title>
<g id="a_node9"><a xlink:href="../../d7/d89/classcellsociety__team01_1_1simulations_1_1_sugarscape.html#afcb37216cf85c2b1ed557b0c6517d4b6" target="_top" xlink:title="cellsociety_team01.simulations.\lSugarscape.update">
<polygon fill="white" stroke="black" points="198,-0 198,-30 368,-30 368,-0 198,-0"/>
<text text-anchor="start" x="206" y="-18" font-family="Helvetica,sans-Serif" font-size="10.00">cellsociety_team01.simulations.</text>
<text text-anchor="middle" x="283" y="-7" font-family="Helvetica,sans-Serif" font-size="10.00">Sugarscape.update</text>
</a>
</g>
</g>
<!-- Node1&#45;&gt;Node9 -->
<g id="edge8" class="edge"><title>Node1&#45;&gt;Node9</title>
<path fill="none" stroke="midnightblue" d="M95.8367,-138.464C115.622,-110.859 152.026,-65.6215 194,-40 200.371,-36.1108 207.37,-32.807 214.55,-30.0047"/>
<polygon fill="midnightblue" stroke="midnightblue" points="92.8937,-136.564 90.0111,-146.759 98.6223,-140.587 92.8937,-136.564"/>
</g>
<!-- Node8 -->
<g id="node8" class="node"><title>Node8</title>
<g id="a_node8"><a xlink:href="../../d4/d68/classcellsociety__team01_1_1rules_1_1_consumption_rule.html#a2298782f412ffc7b683876b65d6e2d03" target="_top" xlink:title="cellsociety_team01.rules.\lConsumptionRule.apply">
<polygon fill="white" stroke="black" points="408,-49 408,-79 546,-79 546,-49 408,-49"/>
<text text-anchor="start" x="416" y="-67" font-family="Helvetica,sans-Serif" font-size="10.00">cellsociety_team01.rules.</text>
<text text-anchor="middle" x="477" y="-56" font-family="Helvetica,sans-Serif" font-size="10.00">ConsumptionRule.apply</text>
</a>
</g>
</g>
<!-- Node7&#45;&gt;Node8 -->
<g id="edge7" class="edge"><title>Node7&#45;&gt;Node8</title>
<path fill="none" stroke="midnightblue" d="M362.551,-64C377.621,-64 393.284,-64 407.987,-64"/>
<polygon fill="midnightblue" stroke="midnightblue" points="362.233,-60.5001 352.233,-64 362.233,-67.5001 362.233,-60.5001"/>
</g>
</g>
</svg>
