<?xml version="1.0" encoding="UTF-8" standalone="no"?>
<!DOCTYPE svg PUBLIC "-//W3C//DTD SVG 1.1//EN"
 "http://www.w3.org/Graphics/SVG/1.1/DTD/svg11.dtd">
<!-- Generated by graphviz version 2.36.0 (20140111.2315)
 -->
<!-- Title: cellsociety_team01.CellState.Cell Pages: 1 -->
<svg width="321pt" height="186pt"
 viewBox="0.00 0.00 321.00 186.00" xmlns="http://www.w3.org/2000/svg" xmlns:xlink="http://www.w3.org/1999/xlink">
<g id="graph0" class="graph" transform="scale(1 1) rotate(0) translate(4 182)">
<title>cellsociety_team01.CellState.Cell</title>
<polygon fill="white" stroke="none" points="-4,4 -4,-182 317,-182 317,4 -4,4"/>
<!-- Node1 -->
<g id="node1" class="node"><title>Node1</title>
<polygon fill="#bfbfbf" stroke="black" points="112,-0.5 112,-19.5 288,-19.5 288,-0.5 112,-0.5"/>
<text text-anchor="middle" x="200" y="-7.5" font-family="Helvetica,sans-Serif" font-size="10.00">cellsociety_team01.CellState.Cell</text>
</g>
<!-- Node2 -->
<g id="node2" class="node"><title>Node2</title>
<g id="a_node2"><a xlink:href="../../d2/d65/classcellsociety__team01_1_1_cell_state_1_1_state.html" target="_top" xlink:title="cellsociety_team01.CellState.\lState">
<polygon fill="white" stroke="black" points="0,-79 0,-109 158,-109 158,-79 0,-79"/>
<text text-anchor="start" x="8" y="-97" font-family="Helvetica,sans-Serif" font-size="10.00">cellsociety_team01.CellState.</text>
<text text-anchor="middle" x="79" y="-86" font-family="Helvetica,sans-Serif" font-size="10.00">State</text>
</a>
</g>
</g>
<!-- Node2&#45;&gt;Node1 -->
<g id="edge1" class="edge"><title>Node2&#45;&gt;Node1</title>
<path fill="none" stroke="#9a32cd" stroke-dasharray="5,2" d="M101.456,-71.9876C113.76,-61.0823 129.604,-47.9893 145,-38 155.976,-30.8787 169.101,-24.3675 179.777,-19.5242"/>
<polygon fill="#9a32cd" stroke="#9a32cd" points="99.0036,-69.4865 93.9224,-78.7834 103.692,-74.6844 99.0036,-69.4865"/>
<text text-anchor="middle" x="178.5" y="-52" font-family="Helvetica,sans-Serif" font-size="10.00"> myNextState</text>
<text text-anchor="middle" x="178.5" y="-41" font-family="Helvetica,sans-Serif" font-size="10.00">myCurState</text>
</g>
<!-- Node3 -->
<g id="node3" class="node"><title>Node3</title>
<polygon fill="white" stroke="#bfbfbf" points="58.5,-158.5 58.5,-177.5 99.5,-177.5 99.5,-158.5 58.5,-158.5"/>
<text text-anchor="middle" x="79" y="-165.5" font-family="Helvetica,sans-Serif" font-size="10.00">Color</text>
</g>
<!-- Node3&#45;&gt;Node2 -->
<g id="edge2" class="edge"><title>Node3&#45;&gt;Node2</title>
<path fill="none" stroke="#9a32cd" stroke-dasharray="5,2" d="M79,-148.085C79,-135.915 79,-120.354 79,-109.232"/>
<polygon fill="#9a32cd" stroke="#9a32cd" points="75.5001,-148.458 79,-158.458 82.5001,-148.458 75.5001,-148.458"/>
<text text-anchor="middle" x="100.5" y="-131.5" font-family="Helvetica,sans-Serif" font-size="10.00"> myColor</text>
</g>
<!-- Node4 -->
<g id="node4" class="node"><title>Node4</title>
<polygon fill="white" stroke="#bfbfbf" points="176.5,-79 176.5,-109 313.5,-109 313.5,-79 176.5,-79"/>
<text text-anchor="start" x="184.5" y="-97" font-family="Helvetica,sans-Serif" font-size="10.00">ArrayList&lt; cellsociety</text>
<text text-anchor="middle" x="245" y="-86" font-family="Helvetica,sans-Serif" font-size="10.00">_team01.CellState.Cell &gt;</text>
</g>
<!-- Node4&#45;&gt;Node1 -->
<g id="edge3" class="edge"><title>Node4&#45;&gt;Node1</title>
<path fill="none" stroke="#9a32cd" stroke-dasharray="5,2" d="M232.127,-69.5417C222.956,-52.8316 211.157,-31.3307 204.715,-19.5915"/>
<polygon fill="#9a32cd" stroke="#9a32cd" points="229.282,-71.6339 237.162,-78.7167 235.419,-68.2661 229.282,-71.6339"/>
<text text-anchor="middle" x="260.5" y="-46.5" font-family="Helvetica,sans-Serif" font-size="10.00"> myNeighbors</text>
</g>
</g>
</svg>
