<?xml version="1.0" encoding="UTF-8" standalone="no"?>
<!DOCTYPE svg PUBLIC "-//W3C//DTD SVG 1.1//EN"
 "http://www.w3.org/Graphics/SVG/1.1/DTD/svg11.dtd">
<!-- Generated by graphviz version 2.36.0 (20140111.2315)
 -->
<!-- Title: cellsociety_team01.parser.Parser.addCell Pages: 1 -->
<svg width="344pt" height="66pt"
 viewBox="0.00 0.00 344.00 66.00" xmlns="http://www.w3.org/2000/svg" xmlns:xlink="http://www.w3.org/1999/xlink">
<g id="graph0" class="graph" transform="scale(1 1) rotate(0) translate(4 62)">
<title>cellsociety_team01.parser.Parser.addCell</title>
<polygon fill="white" stroke="none" points="-4,4 -4,-62 340,-62 340,4 -4,4"/>
<!-- Node1 -->
<g id="node1" class="node"><title>Node1</title>
<polygon fill="#bfbfbf" stroke="black" points="0.5,-14 0.5,-44 145.5,-44 145.5,-14 0.5,-14"/>
<text text-anchor="start" x="8.5" y="-32" font-family="Helvetica,sans-Serif" font-size="10.00">cellsociety_team01.parser.</text>
<text text-anchor="middle" x="73" y="-21" font-family="Helvetica,sans-Serif" font-size="10.00">Parser.addCell</text>
</g>
<!-- Node2 -->
<g id="node2" class="node"><title>Node2</title>
<g id="a_node2"><a xlink:href="../../d8/d80/classcellsociety__team01_1_1_pair.html#a1a97e852278e185e3e50f37c826b12e8" target="_top" xlink:title="cellsociety_team01.Pair.getX">
<polygon fill="white" stroke="black" points="182.5,-38.5 182.5,-57.5 335.5,-57.5 335.5,-38.5 182.5,-38.5"/>
<text text-anchor="middle" x="259" y="-45.5" font-family="Helvetica,sans-Serif" font-size="10.00">cellsociety_team01.Pair.getX</text>
</a>
</g>
</g>
<!-- Node1&#45;&gt;Node2 -->
<g id="edge1" class="edge"><title>Node1&#45;&gt;Node2</title>
<path fill="none" stroke="midnightblue" d="M145.666,-36.4003C154.391,-37.3012 163.372,-38.2286 172.274,-39.1479"/>
<polygon fill="midnightblue" stroke="midnightblue" points="171.968,-42.6348 182.274,-40.1805 172.687,-35.6718 171.968,-42.6348"/>
</g>
<!-- Node3 -->
<g id="node3" class="node"><title>Node3</title>
<g id="a_node3"><a xlink:href="../../d8/d80/classcellsociety__team01_1_1_pair.html#a8bf4fdfd4efdf9e3b37eb69706b3b952" target="_top" xlink:title="cellsociety_team01.Pair.getY">
<polygon fill="white" stroke="black" points="183,-0.5 183,-19.5 335,-19.5 335,-0.5 183,-0.5"/>
<text text-anchor="middle" x="259" y="-7.5" font-family="Helvetica,sans-Serif" font-size="10.00">cellsociety_team01.Pair.getY</text>
</a>
</g>
</g>
<!-- Node1&#45;&gt;Node3 -->
<g id="edge2" class="edge"><title>Node1&#45;&gt;Node3</title>
<path fill="none" stroke="midnightblue" d="M145.666,-21.5997C154.537,-20.6837 163.674,-19.7402 172.723,-18.8058"/>
<polygon fill="midnightblue" stroke="midnightblue" points="173.297,-22.2652 182.884,-17.7565 172.578,-15.3022 173.297,-22.2652"/>
</g>
</g>
</svg>
