<?xml version="1.0" encoding="UTF-8" standalone="no"?>
<!DOCTYPE svg PUBLIC "-//W3C//DTD SVG 1.1//EN"
 "http://www.w3.org/Graphics/SVG/1.1/DTD/svg11.dtd">
<!-- Generated by graphviz version 2.36.0 (20140111.2315)
 -->
<!-- Title: cellsociety_team01.parser.Parser.placeDistributedCells Pages: 1 -->
<svg width="1236pt" height="198pt"
 viewBox="0.00 0.00 1236.00 198.31" xmlns="http://www.w3.org/2000/svg" xmlns:xlink="http://www.w3.org/1999/xlink">
<g id="graph0" class="graph" transform="scale(1 1) rotate(0) translate(4 194.308)">
<title>cellsociety_team01.parser.Parser.placeDistributedCells</title>
<polygon fill="white" stroke="none" points="-4,4 -4,-194.308 1232,-194.308 1232,4 -4,4"/>
<!-- Node1 -->
<g id="node1" class="node"><title>Node1</title>
<polygon fill="#bfbfbf" stroke="black" points="0.5,-49 0.5,-79 149.5,-79 149.5,-49 0.5,-49"/>
<text text-anchor="start" x="8.5" y="-67" font-family="Helvetica,sans-Serif" font-size="10.00">cellsociety_team01.parser.</text>
<text text-anchor="middle" x="75" y="-56" font-family="Helvetica,sans-Serif" font-size="10.00">Parser.placeDistributedCells</text>
</g>
<!-- Node2 -->
<g id="node2" class="node"><title>Node2</title>
<g id="a_node2"><a xlink:href="../../db/d40/classcellsociety__team01_1_1parser_1_1_parser.html#aaf8f8745b89e52aee75fa2920608bbac" target="_top" xlink:title="cellsociety_team01.parser.\lParser.fillMap">
<polygon fill="white" stroke="black" points="219.5,-98 219.5,-128 364.5,-128 364.5,-98 219.5,-98"/>
<text text-anchor="start" x="227.5" y="-116" font-family="Helvetica,sans-Serif" font-size="10.00">cellsociety_team01.parser.</text>
<text text-anchor="middle" x="292" y="-105" font-family="Helvetica,sans-Serif" font-size="10.00">Parser.fillMap</text>
</a>
</g>
</g>
<!-- Node1&#45;&gt;Node2 -->
<g id="edge1" class="edge"><title>Node1&#45;&gt;Node2</title>
<path fill="none" stroke="midnightblue" d="M141.968,-79.0346C165.185,-84.3259 191.456,-90.3133 215.404,-95.7712"/>
<polygon fill="midnightblue" stroke="midnightblue" points="214.629,-99.1841 225.157,-97.9938 216.184,-92.3591 214.629,-99.1841"/>
</g>
<!-- Node11 -->
<g id="node11" class="node"><title>Node11</title>
<g id="a_node11"><a xlink:href="../../db/d40/classcellsociety__team01_1_1parser_1_1_parser.html#a73fd995ca8e1f9fdd1f07f60f1a3c45d" target="_top" xlink:title="cellsociety_team01.parser.\lParser.getTextValue">
<polygon fill="white" stroke="black" points="219.5,-49 219.5,-79 364.5,-79 364.5,-49 219.5,-49"/>
<text text-anchor="start" x="227.5" y="-67" font-family="Helvetica,sans-Serif" font-size="10.00">cellsociety_team01.parser.</text>
<text text-anchor="middle" x="292" y="-56" font-family="Helvetica,sans-Serif" font-size="10.00">Parser.getTextValue</text>
</a>
</g>
</g>
<!-- Node1&#45;&gt;Node11 -->
<g id="edge12" class="edge"><title>Node1&#45;&gt;Node11</title>
<path fill="none" stroke="midnightblue" d="M149.69,-64C168.84,-64 189.584,-64 209.128,-64"/>
<polygon fill="midnightblue" stroke="midnightblue" points="209.224,-67.5001 219.224,-64 209.224,-60.5001 209.224,-67.5001"/>
</g>
<!-- Node12 -->
<g id="node12" class="node"><title>Node12</title>
<g id="a_node12"><a xlink:href="../../d7/db9/classcellsociety__team01_1_1exceptions_1_1_element_value_exception.html#a43c39c1bb5e3254025a34f927500de7a" target="_top" xlink:title="cellsociety_team01.exceptions.\lElementValueException.handleException">
<polygon fill="white" stroke="black" points="186.5,-0 186.5,-30 397.5,-30 397.5,-0 186.5,-0"/>
<text text-anchor="start" x="194.5" y="-18" font-family="Helvetica,sans-Serif" font-size="10.00">cellsociety_team01.exceptions.</text>
<text text-anchor="middle" x="292" y="-7" font-family="Helvetica,sans-Serif" font-size="10.00">ElementValueException.handleException</text>
</a>
</g>
</g>
<!-- Node1&#45;&gt;Node12 -->
<g id="edge13" class="edge"><title>Node1&#45;&gt;Node12</title>
<path fill="none" stroke="midnightblue" d="M141.968,-48.9654C165.185,-43.6741 191.456,-37.6867 215.404,-32.2288"/>
<polygon fill="midnightblue" stroke="midnightblue" points="216.184,-35.6409 225.157,-30.0062 214.629,-28.8159 216.184,-35.6409"/>
</g>
<!-- Node3 -->
<g id="node3" class="node"><title>Node3</title>
<g id="a_node3"><a xlink:href="../../db/d40/classcellsociety__team01_1_1parser_1_1_parser.html#a13ce7871e46a22a59e23540c9b83ef01" target="_top" xlink:title="cellsociety_team01.parser.\lParser.addCell">
<polygon fill="white" stroke="black" points="445.5,-139 445.5,-169 590.5,-169 590.5,-139 445.5,-139"/>
<text text-anchor="start" x="453.5" y="-157" font-family="Helvetica,sans-Serif" font-size="10.00">cellsociety_team01.parser.</text>
<text text-anchor="middle" x="518" y="-146" font-family="Helvetica,sans-Serif" font-size="10.00">Parser.addCell</text>
</a>
</g>
</g>
<!-- Node2&#45;&gt;Node3 -->
<g id="edge2" class="edge"><title>Node2&#45;&gt;Node3</title>
<path fill="none" stroke="midnightblue" d="M364.799,-126.142C387.205,-130.243 412.086,-134.797 435.128,-139.015"/>
<polygon fill="midnightblue" stroke="midnightblue" points="434.756,-142.505 445.223,-140.862 436.017,-135.619 434.756,-142.505"/>
</g>
<!-- Node4 -->
<g id="node4" class="node"><title>Node4</title>
<g id="a_node4"><a xlink:href="../../d8/d80/classcellsociety__team01_1_1_pair.html#a1a97e852278e185e3e50f37c826b12e8" target="_top" xlink:title="cellsociety_team01.Pair.getX">
<polygon fill="white" stroke="black" points="646.5,-166.5 646.5,-185.5 799.5,-185.5 799.5,-166.5 646.5,-166.5"/>
<text text-anchor="middle" x="723" y="-173.5" font-family="Helvetica,sans-Serif" font-size="10.00">cellsociety_team01.Pair.getX</text>
</a>
</g>
</g>
<!-- Node2&#45;&gt;Node4 -->
<g id="edge10" class="edge"><title>Node2&#45;&gt;Node4</title>
<path fill="none" stroke="midnightblue" d="M317.315,-128.188C344.541,-144.221 390.557,-168.469 434,-178 501.037,-192.708 578.98,-191.069 636.864,-186.384"/>
<polygon fill="midnightblue" stroke="midnightblue" points="637.402,-189.851 647.066,-185.511 636.804,-182.877 637.402,-189.851"/>
</g>
<!-- Node5 -->
<g id="node5" class="node"><title>Node5</title>
<g id="a_node5"><a xlink:href="../../d8/d80/classcellsociety__team01_1_1_pair.html#a8bf4fdfd4efdf9e3b37eb69706b3b952" target="_top" xlink:title="cellsociety_team01.Pair.getY">
<polygon fill="white" stroke="black" points="647,-114.5 647,-133.5 799,-133.5 799,-114.5 647,-114.5"/>
<text text-anchor="middle" x="723" y="-121.5" font-family="Helvetica,sans-Serif" font-size="10.00">cellsociety_team01.Pair.getY</text>
</a>
</g>
</g>
<!-- Node2&#45;&gt;Node5 -->
<g id="edge11" class="edge"><title>Node2&#45;&gt;Node5</title>
<path fill="none" stroke="midnightblue" d="M364.805,-114.841C439.718,-116.762 557.13,-119.773 636.714,-121.813"/>
<polygon fill="midnightblue" stroke="midnightblue" points="636.625,-125.312 646.711,-122.07 636.804,-118.314 636.625,-125.312"/>
</g>
<!-- Node6 -->
<g id="node6" class="node"><title>Node6</title>
<g id="a_node6"><a xlink:href="../../db/d40/classcellsociety__team01_1_1parser_1_1_parser.html#a5ffbb8ad89f8a4a661d2204b837a070a" target="_top" xlink:title="cellsociety_team01.parser.\lParser.getState">
<polygon fill="white" stroke="black" points="445.5,-51 445.5,-81 590.5,-81 590.5,-51 445.5,-51"/>
<text text-anchor="start" x="453.5" y="-69" font-family="Helvetica,sans-Serif" font-size="10.00">cellsociety_team01.parser.</text>
<text text-anchor="middle" x="518" y="-58" font-family="Helvetica,sans-Serif" font-size="10.00">Parser.getState</text>
</a>
</g>
</g>
<!-- Node2&#45;&gt;Node6 -->
<g id="edge5" class="edge"><title>Node2&#45;&gt;Node6</title>
<path fill="none" stroke="midnightblue" d="M364.491,-97.9997C387.121,-93.2513 412.302,-87.9678 435.576,-83.0846"/>
<polygon fill="midnightblue" stroke="midnightblue" points="436.352,-86.498 445.42,-81.019 434.914,-79.6472 436.352,-86.498"/>
</g>
<!-- Node3&#45;&gt;Node4 -->
<g id="edge3" class="edge"><title>Node3&#45;&gt;Node4</title>
<path fill="none" stroke="midnightblue" d="M590.57,-161.756C605.224,-163.344 620.792,-165.032 635.895,-166.668"/>
<polygon fill="midnightblue" stroke="midnightblue" points="635.94,-170.194 646.259,-167.792 636.695,-163.234 635.94,-170.194"/>
</g>
<!-- Node3&#45;&gt;Node5 -->
<g id="edge4" class="edge"><title>Node3&#45;&gt;Node5</title>
<path fill="none" stroke="midnightblue" d="M590.57,-143.423C609.051,-140.692 628.986,-137.746 647.608,-134.994"/>
<polygon fill="midnightblue" stroke="midnightblue" points="648.124,-138.456 657.505,-133.531 647.101,-131.531 648.124,-138.456"/>
</g>
<!-- Node7 -->
<g id="node7" class="node"><title>Node7</title>
<g id="a_node7"><a xlink:href="../../da/df7/classcellsociety__team01_1_1simulations_1_1_simulation.html#af6dd9ee9d5ef64a7f1526fddb9e2ad69" target="_top" xlink:title="cellsociety_team01.simulations.\lSimulation.findState">
<polygon fill="white" stroke="black" points="638,-51 638,-81 808,-81 808,-51 638,-51"/>
<text text-anchor="start" x="646" y="-69" font-family="Helvetica,sans-Serif" font-size="10.00">cellsociety_team01.simulations.</text>
<text text-anchor="middle" x="723" y="-58" font-family="Helvetica,sans-Serif" font-size="10.00">Simulation.findState</text>
</a>
</g>
</g>
<!-- Node6&#45;&gt;Node7 -->
<g id="edge6" class="edge"><title>Node6&#45;&gt;Node7</title>
<path fill="none" stroke="midnightblue" d="M590.57,-66C602.64,-66 615.33,-66 627.868,-66"/>
<polygon fill="midnightblue" stroke="midnightblue" points="627.877,-69.5001 637.877,-66 627.877,-62.5001 627.877,-69.5001"/>
</g>
<!-- Node8 -->
<g id="node8" class="node"><title>Node8</title>
<g id="a_node8"><a xlink:href="../../d2/d65/classcellsociety__team01_1_1_cell_state_1_1_state.html#a1d275a76d7d39ec3662c4d6da0e4daed" target="_top" xlink:title="cellsociety_team01.CellState.\lState.newInstanceOf">
<polygon fill="white" stroke="black" points="860,-76 860,-106 1018,-106 1018,-76 860,-76"/>
<text text-anchor="start" x="868" y="-94" font-family="Helvetica,sans-Serif" font-size="10.00">cellsociety_team01.CellState.</text>
<text text-anchor="middle" x="939" y="-83" font-family="Helvetica,sans-Serif" font-size="10.00">State.newInstanceOf</text>
</a>
</g>
</g>
<!-- Node7&#45;&gt;Node8 -->
<g id="edge7" class="edge"><title>Node7&#45;&gt;Node8</title>
<path fill="none" stroke="midnightblue" d="M808.271,-75.8448C821.786,-77.4236 835.808,-79.0617 849.42,-80.6519"/>
<polygon fill="midnightblue" stroke="midnightblue" points="849.395,-84.1727 859.734,-81.8568 850.208,-77.22 849.395,-84.1727"/>
</g>
<!-- Node10 -->
<g id="node10" class="node"><title>Node10</title>
<g id="a_node10"><a xlink:href="../../d2/deb/classcellsociety__team01_1_1exceptions_1_1_bad_state_exception.html#a71e67bc47464bf366a521d779fba0dba" target="_top" xlink:title="cellsociety_team01.exceptions.\lBadStateException.handleException">
<polygon fill="white" stroke="black" points="844,-27 844,-57 1034,-57 1034,-27 844,-27"/>
<text text-anchor="start" x="852" y="-45" font-family="Helvetica,sans-Serif" font-size="10.00">cellsociety_team01.exceptions.</text>
<text text-anchor="middle" x="939" y="-34" font-family="Helvetica,sans-Serif" font-size="10.00">BadStateException.handleException</text>
</a>
</g>
</g>
<!-- Node7&#45;&gt;Node10 -->
<g id="edge9" class="edge"><title>Node7&#45;&gt;Node10</title>
<path fill="none" stroke="midnightblue" d="M808.271,-56.549C816.678,-55.6062 825.281,-54.6414 833.859,-53.6793"/>
<polygon fill="midnightblue" stroke="midnightblue" points="834.358,-57.1455 843.905,-52.5527 833.578,-50.1891 834.358,-57.1455"/>
</g>
<!-- Node9 -->
<g id="node9" class="node"><title>Node9</title>
<g id="a_node9"><a xlink:href="../../d2/d65/classcellsociety__team01_1_1_cell_state_1_1_state.html#ab47312e71cd79169d18859cdc427b594" target="_top" xlink:title="cellsociety_team01.CellState.\lState.State">
<polygon fill="white" stroke="black" points="1070,-76 1070,-106 1228,-106 1228,-76 1070,-76"/>
<text text-anchor="start" x="1078" y="-94" font-family="Helvetica,sans-Serif" font-size="10.00">cellsociety_team01.CellState.</text>
<text text-anchor="middle" x="1149" y="-83" font-family="Helvetica,sans-Serif" font-size="10.00">State.State</text>
</a>
</g>
</g>
<!-- Node8&#45;&gt;Node9 -->
<g id="edge8" class="edge"><title>Node8&#45;&gt;Node9</title>
<path fill="none" stroke="midnightblue" d="M1018.04,-91C1031.68,-91 1045.95,-91 1059.84,-91"/>
<polygon fill="midnightblue" stroke="midnightblue" points="1059.87,-94.5001 1069.87,-91 1059.87,-87.5001 1059.87,-94.5001"/>
</g>
<!-- Node13 -->
<g id="node13" class="node"><title>Node13</title>
<g id="a_node13"><a xlink:href="../../d7/db9/classcellsociety__team01_1_1exceptions_1_1_element_value_exception.html#a2c28f38c3ff86841b1390ad7a911f28d" target="_top" xlink:title="cellsociety_team01.exceptions.\lElementValueException.getTag">
<polygon fill="white" stroke="black" points="434.5,-0 434.5,-30 601.5,-30 601.5,-0 434.5,-0"/>
<text text-anchor="start" x="442.5" y="-18" font-family="Helvetica,sans-Serif" font-size="10.00">cellsociety_team01.exceptions.</text>
<text text-anchor="middle" x="518" y="-7" font-family="Helvetica,sans-Serif" font-size="10.00">ElementValueException.getTag</text>
</a>
</g>
</g>
<!-- Node12&#45;&gt;Node13 -->
<g id="edge14" class="edge"><title>Node12&#45;&gt;Node13</title>
<path fill="none" stroke="midnightblue" d="M397.786,-15C406.624,-15 415.523,-15 424.261,-15"/>
<polygon fill="midnightblue" stroke="midnightblue" points="424.431,-18.5001 434.431,-15 424.431,-11.5001 424.431,-18.5001"/>
</g>
</g>
</svg>
