<?xml version="1.0" encoding="UTF-8" standalone="no"?>
<!DOCTYPE svg PUBLIC "-//W3C//DTD SVG 1.1//EN"
 "http://www.w3.org/Graphics/SVG/1.1/DTD/svg11.dtd">
<!-- Generated by graphviz version 2.36.0 (20140111.2315)
 -->
<!-- Title: cellsociety_team01.parser.Parser.getChildValues Pages: 1 -->
<svg width="1118pt" height="87pt"
 viewBox="0.00 0.00 1118.00 87.00" xmlns="http://www.w3.org/2000/svg" xmlns:xlink="http://www.w3.org/1999/xlink">
<g id="graph0" class="graph" transform="scale(1 1) rotate(0) translate(4 83)">
<title>cellsociety_team01.parser.Parser.getChildValues</title>
<polygon fill="white" stroke="none" points="-4,4 -4,-83 1114,-83 1114,4 -4,4"/>
<!-- Node1 -->
<g id="node1" class="node"><title>Node1</title>
<polygon fill="#bfbfbf" stroke="black" points="0.5,-24 0.5,-54 145.5,-54 145.5,-24 0.5,-24"/>
<text text-anchor="start" x="8.5" y="-42" font-family="Helvetica,sans-Serif" font-size="10.00">cellsociety_team01.parser.</text>
<text text-anchor="middle" x="73" y="-31" font-family="Helvetica,sans-Serif" font-size="10.00">Parser.getChildValues</text>
</g>
<!-- Node2 -->
<g id="node2" class="node"><title>Node2</title>
<g id="a_node2"><a xlink:href="../../db/d40/classcellsociety__team01_1_1parser_1_1_parser.html#af56783c2ed199d7cd1925b54e6497642" target="_top" xlink:title="cellsociety_team01.parser.\lParser.parseConfig">
<polygon fill="white" stroke="black" points="182.5,-49 182.5,-79 327.5,-79 327.5,-49 182.5,-49"/>
<text text-anchor="start" x="190.5" y="-67" font-family="Helvetica,sans-Serif" font-size="10.00">cellsociety_team01.parser.</text>
<text text-anchor="middle" x="255" y="-56" font-family="Helvetica,sans-Serif" font-size="10.00">Parser.parseConfig</text>
</a>
</g>
</g>
<!-- Node1&#45;&gt;Node2 -->
<g id="edge1" class="edge"><title>Node1&#45;&gt;Node2</title>
<path fill="none" stroke="midnightblue" d="M155.634,-50.3381C164.528,-51.5734 173.532,-52.8239 182.295,-54.0409"/>
<polygon fill="midnightblue" stroke="midnightblue" points="156.044,-46.8615 145.658,-48.9525 155.081,-53.795 156.044,-46.8615"/>
</g>
<!-- Node9 -->
<g id="node9" class="node"><title>Node9</title>
<g id="a_node9"><a xlink:href="../../db/d40/classcellsociety__team01_1_1parser_1_1_parser.html#ae652e938cb743e128a14b1181392eeda" target="_top" xlink:title="cellsociety_team01.parser.\lParser.parseInfo">
<polygon fill="white" stroke="black" points="182.5,-0 182.5,-30 327.5,-30 327.5,-0 182.5,-0"/>
<text text-anchor="start" x="190.5" y="-18" font-family="Helvetica,sans-Serif" font-size="10.00">cellsociety_team01.parser.</text>
<text text-anchor="middle" x="255" y="-7" font-family="Helvetica,sans-Serif" font-size="10.00">Parser.parseInfo</text>
</a>
</g>
</g>
<!-- Node1&#45;&gt;Node9 -->
<g id="edge9" class="edge"><title>Node1&#45;&gt;Node9</title>
<path fill="none" stroke="midnightblue" d="M155.634,-28.1154C164.528,-26.9296 173.532,-25.729 182.295,-24.5607"/>
<polygon fill="midnightblue" stroke="midnightblue" points="155.108,-24.6546 145.658,-29.4456 156.033,-31.5932 155.108,-24.6546"/>
</g>
<!-- Node3 -->
<g id="node3" class="node"><title>Node3</title>
<g id="a_node3"><a xlink:href="../../db/d40/classcellsociety__team01_1_1parser_1_1_parser.html#a31a05836dde41569f62542b9ea327f95" target="_top" xlink:title="cellsociety_team01.parser.\lParser.parseXmlFile">
<polygon fill="white" stroke="black" points="364.5,-24 364.5,-54 509.5,-54 509.5,-24 364.5,-24"/>
<text text-anchor="start" x="372.5" y="-42" font-family="Helvetica,sans-Serif" font-size="10.00">cellsociety_team01.parser.</text>
<text text-anchor="middle" x="437" y="-31" font-family="Helvetica,sans-Serif" font-size="10.00">Parser.parseXmlFile</text>
</a>
</g>
</g>
<!-- Node2&#45;&gt;Node3 -->
<g id="edge2" class="edge"><title>Node2&#45;&gt;Node3</title>
<path fill="none" stroke="midnightblue" d="M337.634,-52.6619C346.528,-51.4266 355.532,-50.1761 364.295,-48.9591"/>
<polygon fill="midnightblue" stroke="midnightblue" points="337.081,-49.205 327.658,-54.0475 338.044,-56.1385 337.081,-49.205"/>
</g>
<!-- Node4 -->
<g id="node4" class="node"><title>Node4</title>
<g id="a_node4"><a xlink:href="../../db/d10/classcellsociety__team01_1_1modelview_1_1_g_u_i.html#afa183319cc9816a6147cba0869ef82eb" target="_top" xlink:title="cellsociety_team01.modelview.\lGUI.loadXML">
<polygon fill="white" stroke="black" points="546,-49 546,-79 710,-79 710,-49 546,-49"/>
<text text-anchor="start" x="554" y="-67" font-family="Helvetica,sans-Serif" font-size="10.00">cellsociety_team01.modelview.</text>
<text text-anchor="middle" x="628" y="-56" font-family="Helvetica,sans-Serif" font-size="10.00">GUI.loadXML</text>
</a>
</g>
</g>
<!-- Node3&#45;&gt;Node4 -->
<g id="edge3" class="edge"><title>Node3&#45;&gt;Node4</title>
<path fill="none" stroke="midnightblue" d="M519.781,-49.8175C528.42,-50.9604 537.205,-52.1223 545.837,-53.2642"/>
<polygon fill="midnightblue" stroke="midnightblue" points="520.095,-46.3287 509.722,-48.4871 519.177,-53.2683 520.095,-46.3287"/>
</g>
<!-- Node7 -->
<g id="node7" class="node"><title>Node7</title>
<g id="a_node7"><a xlink:href="../../db/d10/classcellsociety__team01_1_1modelview_1_1_g_u_i.html#a5c5e37ae72fe72af97fab2cb9a12b045" target="_top" xlink:title="cellsociety_team01.modelview.\lGUI.reset">
<polygon fill="white" stroke="black" points="546,-0 546,-30 710,-30 710,-0 546,-0"/>
<text text-anchor="start" x="554" y="-18" font-family="Helvetica,sans-Serif" font-size="10.00">cellsociety_team01.modelview.</text>
<text text-anchor="middle" x="628" y="-7" font-family="Helvetica,sans-Serif" font-size="10.00">GUI.reset</text>
</a>
</g>
</g>
<!-- Node3&#45;&gt;Node7 -->
<g id="edge6" class="edge"><title>Node3&#45;&gt;Node7</title>
<path fill="none" stroke="midnightblue" d="M519.781,-28.6152C528.42,-27.518 537.205,-26.4026 545.837,-25.3064"/>
<polygon fill="midnightblue" stroke="midnightblue" points="519.202,-25.1605 509.722,-29.8924 520.084,-32.1047 519.202,-25.1605"/>
</g>
<!-- Node5 -->
<g id="node5" class="node"><title>Node5</title>
<g id="a_node5"><a xlink:href="../../db/d10/classcellsociety__team01_1_1modelview_1_1_g_u_i.html#a4072ce794f518e806e7a912892f1e9da" target="_top" xlink:title="cellsociety_team01.modelview.\lGUI.makeMenuBar">
<polygon fill="white" stroke="black" points="746,-49 746,-79 910,-79 910,-49 746,-49"/>
<text text-anchor="start" x="754" y="-67" font-family="Helvetica,sans-Serif" font-size="10.00">cellsociety_team01.modelview.</text>
<text text-anchor="middle" x="828" y="-56" font-family="Helvetica,sans-Serif" font-size="10.00">GUI.makeMenuBar</text>
</a>
</g>
</g>
<!-- Node4&#45;&gt;Node5 -->
<g id="edge4" class="edge"><title>Node4&#45;&gt;Node5</title>
<path fill="none" stroke="midnightblue" d="M720.363,-64C728.817,-64 737.346,-64 745.7,-64"/>
<polygon fill="midnightblue" stroke="midnightblue" points="720.106,-60.5001 710.105,-64 720.105,-67.5001 720.106,-60.5001"/>
</g>
<!-- Node6 -->
<g id="node6" class="node"><title>Node6</title>
<g id="a_node6"><a xlink:href="../../db/d10/classcellsociety__team01_1_1modelview_1_1_g_u_i.html#a07bcff60812627c8dfe97f1aadc671e5" target="_top" xlink:title="cellsociety_team01.modelview.\lGUI.GUI">
<polygon fill="white" stroke="black" points="946,-24 946,-54 1110,-54 1110,-24 946,-24"/>
<text text-anchor="start" x="954" y="-42" font-family="Helvetica,sans-Serif" font-size="10.00">cellsociety_team01.modelview.</text>
<text text-anchor="middle" x="1028" y="-31" font-family="Helvetica,sans-Serif" font-size="10.00">GUI.GUI</text>
</a>
</g>
</g>
<!-- Node5&#45;&gt;Node6 -->
<g id="edge5" class="edge"><title>Node5&#45;&gt;Node6</title>
<path fill="none" stroke="midnightblue" d="M920.085,-52.4994C928.63,-51.4205 937.254,-50.3316 945.7,-49.2651"/>
<polygon fill="midnightblue" stroke="midnightblue" points="919.588,-49.0342 910.105,-53.7594 920.465,-55.9791 919.588,-49.0342"/>
</g>
<!-- Node8 -->
<g id="node8" class="node"><title>Node8</title>
<g id="a_node8"><a xlink:href="../../db/d10/classcellsociety__team01_1_1modelview_1_1_g_u_i.html#aa924c28ce131195d3f377b18177f6cb9" target="_top" xlink:title="cellsociety_team01.modelview.\lGUI.makeButtonsAndSlider">
<polygon fill="white" stroke="black" points="746,-0 746,-30 910,-30 910,-0 746,-0"/>
<text text-anchor="start" x="754" y="-18" font-family="Helvetica,sans-Serif" font-size="10.00">cellsociety_team01.modelview.</text>
<text text-anchor="middle" x="828" y="-7" font-family="Helvetica,sans-Serif" font-size="10.00">GUI.makeButtonsAndSlider</text>
</a>
</g>
</g>
<!-- Node7&#45;&gt;Node8 -->
<g id="edge7" class="edge"><title>Node7&#45;&gt;Node8</title>
<path fill="none" stroke="midnightblue" d="M720.363,-15C728.817,-15 737.346,-15 745.7,-15"/>
<polygon fill="midnightblue" stroke="midnightblue" points="720.106,-11.5001 710.105,-15 720.105,-18.5001 720.106,-11.5001"/>
</g>
<!-- Node8&#45;&gt;Node6 -->
<g id="edge8" class="edge"><title>Node8&#45;&gt;Node6</title>
<path fill="none" stroke="midnightblue" d="M920.085,-26.0406C928.63,-27.0763 937.254,-28.1217 945.7,-29.1455"/>
<polygon fill="midnightblue" stroke="midnightblue" points="920.454,-22.5598 910.105,-24.831 919.612,-29.5089 920.454,-22.5598"/>
</g>
<!-- Node9&#45;&gt;Node3 -->
<g id="edge10" class="edge"><title>Node9&#45;&gt;Node3</title>
<path fill="none" stroke="midnightblue" d="M337.634,-25.8846C346.528,-27.0704 355.532,-28.271 364.295,-29.4393"/>
<polygon fill="midnightblue" stroke="midnightblue" points="338.033,-22.4068 327.658,-24.5544 337.108,-29.3454 338.033,-22.4068"/>
</g>
</g>
</svg>
