<?xml version="1.0" encoding="UTF-8" standalone="no"?>
<!DOCTYPE svg PUBLIC "-//W3C//DTD SVG 1.1//EN"
 "http://www.w3.org/Graphics/SVG/1.1/DTD/svg11.dtd">
<!-- Generated by graphviz version 2.36.0 (20140111.2315)
 -->
<!-- Title: cellsociety_team01.parser.Parser.getState Pages: 1 -->
<svg width="780pt" height="87pt"
 viewBox="0.00 0.00 780.00 87.00" xmlns="http://www.w3.org/2000/svg" xmlns:xlink="http://www.w3.org/1999/xlink">
<g id="graph0" class="graph" transform="scale(1 1) rotate(0) translate(4 83)">
<title>cellsociety_team01.parser.Parser.getState</title>
<polygon fill="white" stroke="none" points="-4,4 -4,-83 776,-83 776,4 -4,4"/>
<!-- Node1 -->
<g id="node1" class="node"><title>Node1</title>
<polygon fill="#bfbfbf" stroke="black" points="0.5,-24 0.5,-54 145.5,-54 145.5,-24 0.5,-24"/>
<text text-anchor="start" x="8.5" y="-42" font-family="Helvetica,sans-Serif" font-size="10.00">cellsociety_team01.parser.</text>
<text text-anchor="middle" x="73" y="-31" font-family="Helvetica,sans-Serif" font-size="10.00">Parser.getState</text>
</g>
<!-- Node2 -->
<g id="node2" class="node"><title>Node2</title>
<g id="a_node2"><a xlink:href="../../da/df7/classcellsociety__team01_1_1simulations_1_1_simulation.html#af6dd9ee9d5ef64a7f1526fddb9e2ad69" target="_top" xlink:title="cellsociety_team01.simulations.\lSimulation.findState">
<polygon fill="white" stroke="black" points="182,-24 182,-54 352,-54 352,-24 182,-24"/>
<text text-anchor="start" x="190" y="-42" font-family="Helvetica,sans-Serif" font-size="10.00">cellsociety_team01.simulations.</text>
<text text-anchor="middle" x="267" y="-31" font-family="Helvetica,sans-Serif" font-size="10.00">Simulation.findState</text>
</a>
</g>
</g>
<!-- Node1&#45;&gt;Node2 -->
<g id="edge1" class="edge"><title>Node1&#45;&gt;Node2</title>
<path fill="none" stroke="midnightblue" d="M145.767,-39C154.188,-39 162.875,-39 171.546,-39"/>
<polygon fill="midnightblue" stroke="midnightblue" points="171.7,-42.5001 181.7,-39 171.7,-35.5001 171.7,-42.5001"/>
</g>
<!-- Node3 -->
<g id="node3" class="node"><title>Node3</title>
<g id="a_node3"><a xlink:href="../../d2/d65/classcellsociety__team01_1_1_cell_state_1_1_state.html#a1d275a76d7d39ec3662c4d6da0e4daed" target="_top" xlink:title="cellsociety_team01.CellState.\lState.newInstanceOf">
<polygon fill="white" stroke="black" points="404,-49 404,-79 562,-79 562,-49 404,-49"/>
<text text-anchor="start" x="412" y="-67" font-family="Helvetica,sans-Serif" font-size="10.00">cellsociety_team01.CellState.</text>
<text text-anchor="middle" x="483" y="-56" font-family="Helvetica,sans-Serif" font-size="10.00">State.newInstanceOf</text>
</a>
</g>
</g>
<!-- Node2&#45;&gt;Node3 -->
<g id="edge2" class="edge"><title>Node2&#45;&gt;Node3</title>
<path fill="none" stroke="midnightblue" d="M352.271,-48.8448C365.786,-50.4236 379.808,-52.0617 393.42,-53.6519"/>
<polygon fill="midnightblue" stroke="midnightblue" points="393.395,-57.1727 403.734,-54.8568 394.208,-50.22 393.395,-57.1727"/>
</g>
<!-- Node5 -->
<g id="node5" class="node"><title>Node5</title>
<g id="a_node5"><a xlink:href="../../d2/deb/classcellsociety__team01_1_1exceptions_1_1_bad_state_exception.html#a71e67bc47464bf366a521d779fba0dba" target="_top" xlink:title="cellsociety_team01.exceptions.\lBadStateException.handleException">
<polygon fill="white" stroke="black" points="388,-0 388,-30 578,-30 578,-0 388,-0"/>
<text text-anchor="start" x="396" y="-18" font-family="Helvetica,sans-Serif" font-size="10.00">cellsociety_team01.exceptions.</text>
<text text-anchor="middle" x="483" y="-7" font-family="Helvetica,sans-Serif" font-size="10.00">BadStateException.handleException</text>
</a>
</g>
</g>
<!-- Node2&#45;&gt;Node5 -->
<g id="edge4" class="edge"><title>Node2&#45;&gt;Node5</title>
<path fill="none" stroke="midnightblue" d="M352.271,-29.549C360.678,-28.6062 369.281,-27.6414 377.859,-26.6793"/>
<polygon fill="midnightblue" stroke="midnightblue" points="378.358,-30.1455 387.905,-25.5527 377.578,-23.1891 378.358,-30.1455"/>
</g>
<!-- Node4 -->
<g id="node4" class="node"><title>Node4</title>
<g id="a_node4"><a xlink:href="../../d2/d65/classcellsociety__team01_1_1_cell_state_1_1_state.html#ab47312e71cd79169d18859cdc427b594" target="_top" xlink:title="cellsociety_team01.CellState.\lState.State">
<polygon fill="white" stroke="black" points="614,-49 614,-79 772,-79 772,-49 614,-49"/>
<text text-anchor="start" x="622" y="-67" font-family="Helvetica,sans-Serif" font-size="10.00">cellsociety_team01.CellState.</text>
<text text-anchor="middle" x="693" y="-56" font-family="Helvetica,sans-Serif" font-size="10.00">State.State</text>
</a>
</g>
</g>
<!-- Node3&#45;&gt;Node4 -->
<g id="edge3" class="edge"><title>Node3&#45;&gt;Node4</title>
<path fill="none" stroke="midnightblue" d="M562.043,-64C575.679,-64 589.951,-64 603.837,-64"/>
<polygon fill="midnightblue" stroke="midnightblue" points="603.865,-67.5001 613.865,-64 603.865,-60.5001 603.865,-67.5001"/>
</g>
</g>
</svg>
