<?xml version="1.0" encoding="UTF-8" standalone="no"?>
<!DOCTYPE svg PUBLIC "-//W3C//DTD SVG 1.1//EN"
 "http://www.w3.org/Graphics/SVG/1.1/DTD/svg11.dtd">
<!-- Generated by graphviz version 2.36.0 (20140111.2315)
 -->
<!-- Title: cellsociety_team01.parser.Parser.getChildValues Pages: 1 -->
<svg width="606pt" height="87pt"
 viewBox="0.00 0.00 606.00 87.00" xmlns="http://www.w3.org/2000/svg" xmlns:xlink="http://www.w3.org/1999/xlink">
<g id="graph0" class="graph" transform="scale(1 1) rotate(0) translate(4 83)">
<title>cellsociety_team01.parser.Parser.getChildValues</title>
<polygon fill="white" stroke="none" points="-4,4 -4,-83 602,-83 602,4 -4,4"/>
<!-- Node1 -->
<g id="node1" class="node"><title>Node1</title>
<polygon fill="#bfbfbf" stroke="black" points="0.5,-24 0.5,-54 145.5,-54 145.5,-24 0.5,-24"/>
<text text-anchor="start" x="8.5" y="-42" font-family="Helvetica,sans-Serif" font-size="10.00">cellsociety_team01.parser.</text>
<text text-anchor="middle" x="73" y="-31" font-family="Helvetica,sans-Serif" font-size="10.00">Parser.getChildValues</text>
</g>
<!-- Node2 -->
<g id="node2" class="node"><title>Node2</title>
<g id="a_node2"><a xlink:href="../../db/d40/classcellsociety__team01_1_1parser_1_1_parser.html#a73fd995ca8e1f9fdd1f07f60f1a3c45d" target="_top" xlink:title="cellsociety_team01.parser.\lParser.getTextValue">
<polygon fill="white" stroke="black" points="215.5,-49 215.5,-79 360.5,-79 360.5,-49 215.5,-49"/>
<text text-anchor="start" x="223.5" y="-67" font-family="Helvetica,sans-Serif" font-size="10.00">cellsociety_team01.parser.</text>
<text text-anchor="middle" x="288" y="-56" font-family="Helvetica,sans-Serif" font-size="10.00">Parser.getTextValue</text>
</a>
</g>
</g>
<!-- Node1&#45;&gt;Node2 -->
<g id="edge1" class="edge"><title>Node1&#45;&gt;Node2</title>
<path fill="none" stroke="midnightblue" d="M145.518,-47.3942C164.661,-49.641 185.5,-52.0868 205.153,-54.3936"/>
<polygon fill="midnightblue" stroke="midnightblue" points="204.968,-57.8958 215.308,-55.5854 205.784,-50.9435 204.968,-57.8958"/>
</g>
<!-- Node3 -->
<g id="node3" class="node"><title>Node3</title>
<g id="a_node3"><a xlink:href="../../d7/db9/classcellsociety__team01_1_1exceptions_1_1_element_value_exception.html#a43c39c1bb5e3254025a34f927500de7a" target="_top" xlink:title="cellsociety_team01.exceptions.\lElementValueException.handleException">
<polygon fill="white" stroke="black" points="182.5,-0 182.5,-30 393.5,-30 393.5,-0 182.5,-0"/>
<text text-anchor="start" x="190.5" y="-18" font-family="Helvetica,sans-Serif" font-size="10.00">cellsociety_team01.exceptions.</text>
<text text-anchor="middle" x="288" y="-7" font-family="Helvetica,sans-Serif" font-size="10.00">ElementValueException.handleException</text>
</a>
</g>
</g>
<!-- Node1&#45;&gt;Node3 -->
<g id="edge2" class="edge"><title>Node1&#45;&gt;Node3</title>
<path fill="none" stroke="midnightblue" d="M145.518,-30.9416C154.124,-29.972 163.072,-28.9637 172.101,-27.9463"/>
<polygon fill="midnightblue" stroke="midnightblue" points="172.771,-31.3931 182.316,-26.7954 171.987,-24.4372 172.771,-31.3931"/>
</g>
<!-- Node4 -->
<g id="node4" class="node"><title>Node4</title>
<g id="a_node4"><a xlink:href="../../d7/db9/classcellsociety__team01_1_1exceptions_1_1_element_value_exception.html#a2c28f38c3ff86841b1390ad7a911f28d" target="_top" xlink:title="cellsociety_team01.exceptions.\lElementValueException.getTag">
<polygon fill="white" stroke="black" points="430.5,-0 430.5,-30 597.5,-30 597.5,-0 430.5,-0"/>
<text text-anchor="start" x="438.5" y="-18" font-family="Helvetica,sans-Serif" font-size="10.00">cellsociety_team01.exceptions.</text>
<text text-anchor="middle" x="514" y="-7" font-family="Helvetica,sans-Serif" font-size="10.00">ElementValueException.getTag</text>
</a>
</g>
</g>
<!-- Node3&#45;&gt;Node4 -->
<g id="edge3" class="edge"><title>Node3&#45;&gt;Node4</title>
<path fill="none" stroke="midnightblue" d="M393.786,-15C402.624,-15 411.523,-15 420.261,-15"/>
<polygon fill="midnightblue" stroke="midnightblue" points="420.431,-18.5001 430.431,-15 420.431,-11.5001 420.431,-18.5001"/>
</g>
</g>
</svg>
