<?xml version="1.0" encoding="UTF-8" standalone="no"?>
<!DOCTYPE svg PUBLIC "-//W3C//DTD SVG 1.1//EN"
 "http://www.w3.org/Graphics/SVG/1.1/DTD/svg11.dtd">
<!-- Generated by graphviz version 2.36.0 (20140111.2315)
 -->
<!-- Title: cellsociety_team01.parser.Parser.makeSim Pages: 1 -->
<svg width="408pt" height="38pt"
 viewBox="0.00 0.00 408.00 38.00" xmlns="http://www.w3.org/2000/svg" xmlns:xlink="http://www.w3.org/1999/xlink">
<g id="graph0" class="graph" transform="scale(1 1) rotate(0) translate(4 34)">
<title>cellsociety_team01.parser.Parser.makeSim</title>
<polygon fill="white" stroke="none" points="-4,4 -4,-34 404,-34 404,4 -4,4"/>
<!-- Node1 -->
<g id="node1" class="node"><title>Node1</title>
<polygon fill="#bfbfbf" stroke="black" points="0.5,-0 0.5,-30 145.5,-30 145.5,-0 0.5,-0"/>
<text text-anchor="start" x="8.5" y="-18" font-family="Helvetica,sans-Serif" font-size="10.00">cellsociety_team01.parser.</text>
<text text-anchor="middle" x="73" y="-7" font-family="Helvetica,sans-Serif" font-size="10.00">Parser.makeSim</text>
</g>
<!-- Node2 -->
<g id="node2" class="node"><title>Node2</title>
<g id="a_node2"><a xlink:href="../../da/d94/classcellsociety__team01_1_1exceptions_1_1_simulation_type_exception.html#ad7daf8d63cd6f9a8ac6226521ee3d14c" target="_top" xlink:title="cellsociety_team01.exceptions.\lSimulationTypeException.handleException">
<polygon fill="white" stroke="black" points="182.5,-0 182.5,-30 399.5,-30 399.5,-0 182.5,-0"/>
<text text-anchor="start" x="190.5" y="-18" font-family="Helvetica,sans-Serif" font-size="10.00">cellsociety_team01.exceptions.</text>
<text text-anchor="middle" x="291" y="-7" font-family="Helvetica,sans-Serif" font-size="10.00">SimulationTypeException.handleException</text>
</a>
</g>
</g>
<!-- Node1&#45;&gt;Node2 -->
<g id="edge1" class="edge"><title>Node1&#45;&gt;Node2</title>
<path fill="none" stroke="midnightblue" d="M145.625,-15C154.19,-15 163.102,-15 172.105,-15"/>
<polygon fill="midnightblue" stroke="midnightblue" points="172.297,-18.5001 182.297,-15 172.297,-11.5001 172.297,-18.5001"/>
</g>
</g>
</svg>
