<?xml version="1.0" encoding="UTF-8" standalone="no"?>
<!DOCTYPE svg PUBLIC "-//W3C//DTD SVG 1.1//EN"
 "http://www.w3.org/Graphics/SVG/1.1/DTD/svg11.dtd">
<!-- Generated by graphviz version 2.36.0 (20140111.2315)
 -->
<!-- Title: cellsociety_team01.parser.Parser.parseInfo Pages: 1 -->
<svg width="812pt" height="283pt"
 viewBox="0.00 0.00 812.00 283.00" xmlns="http://www.w3.org/2000/svg" xmlns:xlink="http://www.w3.org/1999/xlink">
<g id="graph0" class="graph" transform="scale(1 1) rotate(0) translate(4 279)">
<title>cellsociety_team01.parser.Parser.parseInfo</title>
<polygon fill="white" stroke="none" points="-4,4 -4,-279 808,-279 808,4 -4,4"/>
<!-- Node1 -->
<g id="node1" class="node"><title>Node1</title>
<polygon fill="#bfbfbf" stroke="black" points="0.5,-98 0.5,-128 145.5,-128 145.5,-98 0.5,-98"/>
<text text-anchor="start" x="8.5" y="-116" font-family="Helvetica,sans-Serif" font-size="10.00">cellsociety_team01.parser.</text>
<text text-anchor="middle" x="73" y="-105" font-family="Helvetica,sans-Serif" font-size="10.00">Parser.parseInfo</text>
</g>
<!-- Node2 -->
<g id="node2" class="node"><title>Node2</title>
<g id="a_node2"><a xlink:href="../../db/d40/classcellsociety__team01_1_1parser_1_1_parser.html#afa9ffc367d1b97d4ebec0de216a89d0a" target="_top" xlink:title="cellsociety_team01.parser.\lParser.getChildValues">
<polygon fill="white" stroke="black" points="191.5,-196 191.5,-226 336.5,-226 336.5,-196 191.5,-196"/>
<text text-anchor="start" x="199.5" y="-214" font-family="Helvetica,sans-Serif" font-size="10.00">cellsociety_team01.parser.</text>
<text text-anchor="middle" x="264" y="-203" font-family="Helvetica,sans-Serif" font-size="10.00">Parser.getChildValues</text>
</a>
</g>
</g>
<!-- Node1&#45;&gt;Node2 -->
<g id="edge1" class="edge"><title>Node1&#45;&gt;Node2</title>
<path fill="none" stroke="midnightblue" d="M92.8511,-128.293C113.62,-144.512 148.529,-169.96 182,-186 186.691,-188.248 191.63,-190.352 196.66,-192.308"/>
<polygon fill="midnightblue" stroke="midnightblue" points="195.81,-195.724 206.404,-195.888 198.225,-189.154 195.81,-195.724"/>
</g>
<!-- Node6 -->
<g id="node6" class="node"><title>Node6</title>
<g id="a_node6"><a xlink:href="../../db/d40/classcellsociety__team01_1_1parser_1_1_parser.html#ae1ad97c9cc871329bc9e3df0d9d8d0c6" target="_top" xlink:title="cellsociety_team01.parser.\lParser.makeSim">
<polygon fill="white" stroke="black" points="191.5,-147 191.5,-177 336.5,-177 336.5,-147 191.5,-147"/>
<text text-anchor="start" x="199.5" y="-165" font-family="Helvetica,sans-Serif" font-size="10.00">cellsociety_team01.parser.</text>
<text text-anchor="middle" x="264" y="-154" font-family="Helvetica,sans-Serif" font-size="10.00">Parser.makeSim</text>
</a>
</g>
</g>
<!-- Node1&#45;&gt;Node6 -->
<g id="edge5" class="edge"><title>Node1&#45;&gt;Node6</title>
<path fill="none" stroke="midnightblue" d="M131.991,-128.035C152.037,-133.232 174.674,-139.101 195.421,-144.48"/>
<polygon fill="midnightblue" stroke="midnightblue" points="194.561,-147.872 205.119,-146.994 196.317,-141.096 194.561,-147.872"/>
</g>
<!-- Node8 -->
<g id="node8" class="node"><title>Node8</title>
<g id="a_node8"><a xlink:href="../../d2/d8b/classcellsociety__team01_1_1modelview_1_1_grid.html#a2ac3e65b13f2eab38d4c7f5072d7f1a8" target="_top" xlink:title="cellsociety_team01.modelview.\lGrid.setAuthor">
<polygon fill="white" stroke="black" points="182,-98 182,-128 346,-128 346,-98 182,-98"/>
<text text-anchor="start" x="190" y="-116" font-family="Helvetica,sans-Serif" font-size="10.00">cellsociety_team01.modelview.</text>
<text text-anchor="middle" x="264" y="-105" font-family="Helvetica,sans-Serif" font-size="10.00">Grid.setAuthor</text>
</a>
</g>
</g>
<!-- Node1&#45;&gt;Node8 -->
<g id="edge7" class="edge"><title>Node1&#45;&gt;Node8</title>
<path fill="none" stroke="midnightblue" d="M145.722,-113C154.204,-113 162.945,-113 171.651,-113"/>
<polygon fill="midnightblue" stroke="midnightblue" points="171.838,-116.5 181.837,-113 171.837,-109.5 171.838,-116.5"/>
</g>
<!-- Node9 -->
<g id="node9" class="node"><title>Node9</title>
<g id="a_node9"><a xlink:href="../../d2/d8b/classcellsociety__team01_1_1modelview_1_1_grid.html#a690741320e1b13d9a5e03a8a4d2ae67c" target="_top" xlink:title="cellsociety_team01.modelview.\lGrid.setSimulation">
<polygon fill="white" stroke="black" points="182,-49 182,-79 346,-79 346,-49 182,-49"/>
<text text-anchor="start" x="190" y="-67" font-family="Helvetica,sans-Serif" font-size="10.00">cellsociety_team01.modelview.</text>
<text text-anchor="middle" x="264" y="-56" font-family="Helvetica,sans-Serif" font-size="10.00">Grid.setSimulation</text>
</a>
</g>
</g>
<!-- Node1&#45;&gt;Node9 -->
<g id="edge8" class="edge"><title>Node1&#45;&gt;Node9</title>
<path fill="none" stroke="midnightblue" d="M131.991,-97.9654C152.037,-92.7682 174.674,-86.8994 195.421,-81.5204"/>
<polygon fill="midnightblue" stroke="midnightblue" points="196.317,-84.9039 205.119,-79.0062 194.561,-78.1279 196.317,-84.9039"/>
</g>
<!-- Node10 -->
<g id="node10" class="node"><title>Node10</title>
<g id="a_node10"><a xlink:href="../../d2/d8b/classcellsociety__team01_1_1modelview_1_1_grid.html#ab049109d919d1d5bddc18d27215f89eb" target="_top" xlink:title="cellsociety_team01.modelview.\lGrid.setTitle">
<polygon fill="white" stroke="black" points="182,-0 182,-30 346,-30 346,-0 182,-0"/>
<text text-anchor="start" x="190" y="-18" font-family="Helvetica,sans-Serif" font-size="10.00">cellsociety_team01.modelview.</text>
<text text-anchor="middle" x="264" y="-7" font-family="Helvetica,sans-Serif" font-size="10.00">Grid.setTitle</text>
</a>
</g>
</g>
<!-- Node1&#45;&gt;Node10 -->
<g id="edge9" class="edge"><title>Node1&#45;&gt;Node10</title>
<path fill="none" stroke="midnightblue" d="M92.4024,-97.7078C113.062,-81.2033 148.139,-55.1227 182,-39 186.058,-37.068 190.304,-35.2547 194.636,-33.5593"/>
<polygon fill="midnightblue" stroke="midnightblue" points="196.04,-36.7724 204.217,-30.0359 193.624,-30.2026 196.04,-36.7724"/>
</g>
<!-- Node3 -->
<g id="node3" class="node"><title>Node3</title>
<g id="a_node3"><a xlink:href="../../db/d40/classcellsociety__team01_1_1parser_1_1_parser.html#a73fd995ca8e1f9fdd1f07f60f1a3c45d" target="_top" xlink:title="cellsociety_team01.parser.\lParser.getTextValue">
<polygon fill="white" stroke="black" points="418.5,-245 418.5,-275 563.5,-275 563.5,-245 418.5,-245"/>
<text text-anchor="start" x="426.5" y="-263" font-family="Helvetica,sans-Serif" font-size="10.00">cellsociety_team01.parser.</text>
<text text-anchor="middle" x="491" y="-252" font-family="Helvetica,sans-Serif" font-size="10.00">Parser.getTextValue</text>
</a>
</g>
</g>
<!-- Node2&#45;&gt;Node3 -->
<g id="edge2" class="edge"><title>Node2&#45;&gt;Node3</title>
<path fill="none" stroke="midnightblue" d="M334.037,-226.035C358.441,-231.349 386.071,-237.367 411.222,-242.844"/>
<polygon fill="midnightblue" stroke="midnightblue" points="410.578,-246.286 421.094,-244.994 412.068,-239.446 410.578,-246.286"/>
</g>
<!-- Node4 -->
<g id="node4" class="node"><title>Node4</title>
<g id="a_node4"><a xlink:href="../../d7/db9/classcellsociety__team01_1_1exceptions_1_1_element_value_exception.html#a43c39c1bb5e3254025a34f927500de7a" target="_top" xlink:title="cellsociety_team01.exceptions.\lElementValueException.handleException">
<polygon fill="white" stroke="black" points="385.5,-196 385.5,-226 596.5,-226 596.5,-196 385.5,-196"/>
<text text-anchor="start" x="393.5" y="-214" font-family="Helvetica,sans-Serif" font-size="10.00">cellsociety_team01.exceptions.</text>
<text text-anchor="middle" x="491" y="-203" font-family="Helvetica,sans-Serif" font-size="10.00">ElementValueException.handleException</text>
</a>
</g>
</g>
<!-- Node2&#45;&gt;Node4 -->
<g id="edge3" class="edge"><title>Node2&#45;&gt;Node4</title>
<path fill="none" stroke="midnightblue" d="M336.501,-211C348.908,-211 362.086,-211 375.305,-211"/>
<polygon fill="midnightblue" stroke="midnightblue" points="375.409,-214.5 385.409,-211 375.409,-207.5 375.409,-214.5"/>
</g>
<!-- Node5 -->
<g id="node5" class="node"><title>Node5</title>
<g id="a_node5"><a xlink:href="../../d7/db9/classcellsociety__team01_1_1exceptions_1_1_element_value_exception.html#a2c28f38c3ff86841b1390ad7a911f28d" target="_top" xlink:title="cellsociety_team01.exceptions.\lElementValueException.getTag">
<polygon fill="white" stroke="black" points="636.5,-196 636.5,-226 803.5,-226 803.5,-196 636.5,-196"/>
<text text-anchor="start" x="644.5" y="-214" font-family="Helvetica,sans-Serif" font-size="10.00">cellsociety_team01.exceptions.</text>
<text text-anchor="middle" x="720" y="-203" font-family="Helvetica,sans-Serif" font-size="10.00">ElementValueException.getTag</text>
</a>
</g>
</g>
<!-- Node4&#45;&gt;Node5 -->
<g id="edge4" class="edge"><title>Node4&#45;&gt;Node5</title>
<path fill="none" stroke="midnightblue" d="M596.53,-211C606.462,-211 616.486,-211 626.295,-211"/>
<polygon fill="midnightblue" stroke="midnightblue" points="626.426,-214.5 636.426,-211 626.426,-207.5 626.426,-214.5"/>
</g>
<!-- Node7 -->
<g id="node7" class="node"><title>Node7</title>
<g id="a_node7"><a xlink:href="../../da/d94/classcellsociety__team01_1_1exceptions_1_1_simulation_type_exception.html#ad7daf8d63cd6f9a8ac6226521ee3d14c" target="_top" xlink:title="cellsociety_team01.exceptions.\lSimulationTypeException.handleException">
<polygon fill="white" stroke="black" points="382.5,-147 382.5,-177 599.5,-177 599.5,-147 382.5,-147"/>
<text text-anchor="start" x="390.5" y="-165" font-family="Helvetica,sans-Serif" font-size="10.00">cellsociety_team01.exceptions.</text>
<text text-anchor="middle" x="491" y="-154" font-family="Helvetica,sans-Serif" font-size="10.00">SimulationTypeException.handleException</text>
</a>
</g>
</g>
<!-- Node6&#45;&gt;Node7 -->
<g id="edge6" class="edge"><title>Node6&#45;&gt;Node7</title>
<path fill="none" stroke="midnightblue" d="M336.501,-162C347.86,-162 359.866,-162 371.958,-162"/>
<polygon fill="midnightblue" stroke="midnightblue" points="372.123,-165.5 382.123,-162 372.123,-158.5 372.123,-165.5"/>
</g>
<!-- Node11 -->
<g id="node11" class="node"><title>Node11</title>
<g id="a_node11"><a xlink:href="../../db/d10/classcellsociety__team01_1_1modelview_1_1_g_u_i.html#ab7e5472f74325995d2d3832611498c4e" target="_top" xlink:title="cellsociety_team01.modelview.\lGUI.getStage">
<polygon fill="white" stroke="black" points="409,-0 409,-30 573,-30 573,-0 409,-0"/>
<text text-anchor="start" x="417" y="-18" font-family="Helvetica,sans-Serif" font-size="10.00">cellsociety_team01.modelview.</text>
<text text-anchor="middle" x="491" y="-7" font-family="Helvetica,sans-Serif" font-size="10.00">GUI.getStage</text>
</a>
</g>
</g>
<!-- Node10&#45;&gt;Node11 -->
<g id="edge10" class="edge"><title>Node10&#45;&gt;Node11</title>
<path fill="none" stroke="midnightblue" d="M346.23,-15C363.277,-15 381.363,-15 398.748,-15"/>
<polygon fill="midnightblue" stroke="midnightblue" points="398.889,-18.5001 408.889,-15 398.889,-11.5001 398.889,-18.5001"/>
</g>
</g>
</svg>
