<?xml version="1.0" encoding="UTF-8" standalone="no"?>
<!DOCTYPE svg PUBLIC "-//W3C//DTD SVG 1.1//EN"
 "http://www.w3.org/Graphics/SVG/1.1/DTD/svg11.dtd">
<!-- Generated by graphviz version 2.36.0 (20140111.2315)
 -->
<!-- Title: cellsociety_team01.parser.Parser.getTextValue Pages: 1 -->
<svg width="1304pt" height="160pt"
 viewBox="0.00 0.00 1304.00 160.00" xmlns="http://www.w3.org/2000/svg" xmlns:xlink="http://www.w3.org/1999/xlink">
<g id="graph0" class="graph" transform="scale(1 1) rotate(0) translate(4 156)">
<title>cellsociety_team01.parser.Parser.getTextValue</title>
<polygon fill="white" stroke="none" points="-4,4 -4,-156 1300,-156 1300,4 -4,4"/>
<!-- Node1 -->
<g id="node1" class="node"><title>Node1</title>
<polygon fill="#bfbfbf" stroke="black" points="0.5,-49 0.5,-79 145.5,-79 145.5,-49 0.5,-49"/>
<text text-anchor="start" x="8.5" y="-67" font-family="Helvetica,sans-Serif" font-size="10.00">cellsociety_team01.parser.</text>
<text text-anchor="middle" x="73" y="-56" font-family="Helvetica,sans-Serif" font-size="10.00">Parser.getTextValue</text>
</g>
<!-- Node2 -->
<g id="node2" class="node"><title>Node2</title>
<g id="a_node2"><a xlink:href="../../db/d40/classcellsociety__team01_1_1parser_1_1_parser.html#afa9ffc367d1b97d4ebec0de216a89d0a" target="_top" xlink:title="cellsociety_team01.parser.\lParser.getChildValues">
<polygon fill="white" stroke="black" points="184.5,-98 184.5,-128 329.5,-128 329.5,-98 184.5,-98"/>
<text text-anchor="start" x="192.5" y="-116" font-family="Helvetica,sans-Serif" font-size="10.00">cellsociety_team01.parser.</text>
<text text-anchor="middle" x="257" y="-105" font-family="Helvetica,sans-Serif" font-size="10.00">Parser.getChildValues</text>
</a>
</g>
</g>
<!-- Node1&#45;&gt;Node2 -->
<g id="edge1" class="edge"><title>Node1&#45;&gt;Node2</title>
<path fill="none" stroke="midnightblue" d="M139.923,-81.7485C159.648,-87.0591 181.078,-92.8288 200.094,-97.9484"/>
<polygon fill="midnightblue" stroke="midnightblue" points="140.657,-78.3216 130.091,-79.1014 138.837,-85.0809 140.657,-78.3216"/>
</g>
<!-- Node11 -->
<g id="node11" class="node"><title>Node11</title>
<g id="a_node11"><a xlink:href="../../db/d40/classcellsociety__team01_1_1parser_1_1_parser.html#a0ed864ecdf8cf6ee778114ebe5c605ea" target="_top" xlink:title="cellsociety_team01.parser.\lParser.placeDistributedCells">
<polygon fill="white" stroke="black" points="182.5,-49 182.5,-79 331.5,-79 331.5,-49 182.5,-49"/>
<text text-anchor="start" x="190.5" y="-67" font-family="Helvetica,sans-Serif" font-size="10.00">cellsociety_team01.parser.</text>
<text text-anchor="middle" x="257" y="-56" font-family="Helvetica,sans-Serif" font-size="10.00">Parser.placeDistributedCells</text>
</a>
</g>
</g>
<!-- Node1&#45;&gt;Node11 -->
<g id="edge12" class="edge"><title>Node1&#45;&gt;Node11</title>
<path fill="none" stroke="midnightblue" d="M155.918,-64C164.709,-64 173.615,-64 182.302,-64"/>
<polygon fill="midnightblue" stroke="midnightblue" points="155.67,-60.5001 145.67,-64 155.67,-67.5001 155.67,-60.5001"/>
</g>
<!-- Node13 -->
<g id="node13" class="node"><title>Node13</title>
<g id="a_node13"><a xlink:href="../../db/d40/classcellsociety__team01_1_1parser_1_1_parser.html#a6328c0a6b8dab4bc6d860e80739fadca" target="_top" xlink:title="cellsociety_team01.parser.\lParser.placeGivenCells">
<polygon fill="white" stroke="black" points="184.5,-0 184.5,-30 329.5,-30 329.5,-0 184.5,-0"/>
<text text-anchor="start" x="192.5" y="-18" font-family="Helvetica,sans-Serif" font-size="10.00">cellsociety_team01.parser.</text>
<text text-anchor="middle" x="257" y="-7" font-family="Helvetica,sans-Serif" font-size="10.00">Parser.placeGivenCells</text>
</a>
</g>
</g>
<!-- Node1&#45;&gt;Node13 -->
<g id="edge15" class="edge"><title>Node1&#45;&gt;Node13</title>
<path fill="none" stroke="midnightblue" d="M139.923,-46.2515C159.648,-40.9409 181.078,-35.1712 200.094,-30.0516"/>
<polygon fill="midnightblue" stroke="midnightblue" points="138.837,-42.9191 130.091,-48.8986 140.657,-49.6784 138.837,-42.9191"/>
</g>
<!-- Node3 -->
<g id="node3" class="node"><title>Node3</title>
<g id="a_node3"><a xlink:href="../../db/d40/classcellsociety__team01_1_1parser_1_1_parser.html#af56783c2ed199d7cd1925b54e6497642" target="_top" xlink:title="cellsociety_team01.parser.\lParser.parseConfig">
<polygon fill="white" stroke="black" points="368.5,-122 368.5,-152 513.5,-152 513.5,-122 368.5,-122"/>
<text text-anchor="start" x="376.5" y="-140" font-family="Helvetica,sans-Serif" font-size="10.00">cellsociety_team01.parser.</text>
<text text-anchor="middle" x="441" y="-129" font-family="Helvetica,sans-Serif" font-size="10.00">Parser.parseConfig</text>
</a>
</g>
</g>
<!-- Node2&#45;&gt;Node3 -->
<g id="edge2" class="edge"><title>Node2&#45;&gt;Node3</title>
<path fill="none" stroke="midnightblue" d="M339.605,-123.761C349.205,-125.027 358.947,-126.312 368.395,-127.558"/>
<polygon fill="midnightblue" stroke="midnightblue" points="340.042,-120.288 329.67,-122.451 339.127,-127.228 340.042,-120.288"/>
</g>
<!-- Node10 -->
<g id="node10" class="node"><title>Node10</title>
<g id="a_node10"><a xlink:href="../../db/d40/classcellsociety__team01_1_1parser_1_1_parser.html#ae652e938cb743e128a14b1181392eeda" target="_top" xlink:title="cellsociety_team01.parser.\lParser.parseInfo">
<polygon fill="white" stroke="black" points="368.5,-73 368.5,-103 513.5,-103 513.5,-73 368.5,-73"/>
<text text-anchor="start" x="376.5" y="-91" font-family="Helvetica,sans-Serif" font-size="10.00">cellsociety_team01.parser.</text>
<text text-anchor="middle" x="441" y="-80" font-family="Helvetica,sans-Serif" font-size="10.00">Parser.parseInfo</text>
</a>
</g>
</g>
<!-- Node2&#45;&gt;Node10 -->
<g id="edge10" class="edge"><title>Node2&#45;&gt;Node10</title>
<path fill="none" stroke="midnightblue" d="M339.605,-101.79C349.205,-100.472 358.947,-99.1337 368.395,-97.8358"/>
<polygon fill="midnightblue" stroke="midnightblue" points="339.101,-98.3269 329.67,-103.155 340.053,-105.262 339.101,-98.3269"/>
</g>
<!-- Node4 -->
<g id="node4" class="node"><title>Node4</title>
<g id="a_node4"><a xlink:href="../../db/d40/classcellsociety__team01_1_1parser_1_1_parser.html#a31a05836dde41569f62542b9ea327f95" target="_top" xlink:title="cellsociety_team01.parser.\lParser.parseXmlFile">
<polygon fill="white" stroke="black" points="550.5,-73 550.5,-103 695.5,-103 695.5,-73 550.5,-73"/>
<text text-anchor="start" x="558.5" y="-91" font-family="Helvetica,sans-Serif" font-size="10.00">cellsociety_team01.parser.</text>
<text text-anchor="middle" x="623" y="-80" font-family="Helvetica,sans-Serif" font-size="10.00">Parser.parseXmlFile</text>
</a>
</g>
</g>
<!-- Node3&#45;&gt;Node4 -->
<g id="edge3" class="edge"><title>Node3&#45;&gt;Node4</title>
<path fill="none" stroke="midnightblue" d="M507.198,-119.252C526.707,-113.941 547.902,-108.171 566.708,-103.052"/>
<polygon fill="midnightblue" stroke="midnightblue" points="506.204,-115.895 497.475,-121.899 508.043,-122.649 506.204,-115.895"/>
</g>
<!-- Node5 -->
<g id="node5" class="node"><title>Node5</title>
<g id="a_node5"><a xlink:href="../../db/d10/classcellsociety__team01_1_1modelview_1_1_g_u_i.html#afa183319cc9816a6147cba0869ef82eb" target="_top" xlink:title="cellsociety_team01.modelview.\lGUI.loadXML">
<polygon fill="white" stroke="black" points="732,-98 732,-128 896,-128 896,-98 732,-98"/>
<text text-anchor="start" x="740" y="-116" font-family="Helvetica,sans-Serif" font-size="10.00">cellsociety_team01.modelview.</text>
<text text-anchor="middle" x="814" y="-105" font-family="Helvetica,sans-Serif" font-size="10.00">GUI.loadXML</text>
</a>
</g>
</g>
<!-- Node4&#45;&gt;Node5 -->
<g id="edge4" class="edge"><title>Node4&#45;&gt;Node5</title>
<path fill="none" stroke="midnightblue" d="M705.781,-98.8175C714.42,-99.9604 723.205,-101.122 731.837,-102.264"/>
<polygon fill="midnightblue" stroke="midnightblue" points="706.095,-95.3287 695.722,-97.4871 705.177,-102.268 706.095,-95.3287"/>
</g>
<!-- Node8 -->
<g id="node8" class="node"><title>Node8</title>
<g id="a_node8"><a xlink:href="../../db/d10/classcellsociety__team01_1_1modelview_1_1_g_u_i.html#a5c5e37ae72fe72af97fab2cb9a12b045" target="_top" xlink:title="cellsociety_team01.modelview.\lGUI.reset">
<polygon fill="white" stroke="black" points="732,-49 732,-79 896,-79 896,-49 732,-49"/>
<text text-anchor="start" x="740" y="-67" font-family="Helvetica,sans-Serif" font-size="10.00">cellsociety_team01.modelview.</text>
<text text-anchor="middle" x="814" y="-56" font-family="Helvetica,sans-Serif" font-size="10.00">GUI.reset</text>
</a>
</g>
</g>
<!-- Node4&#45;&gt;Node8 -->
<g id="edge7" class="edge"><title>Node4&#45;&gt;Node8</title>
<path fill="none" stroke="midnightblue" d="M705.781,-77.6152C714.42,-76.518 723.205,-75.4026 731.837,-74.3064"/>
<polygon fill="midnightblue" stroke="midnightblue" points="705.202,-74.1605 695.722,-78.8924 706.084,-81.1047 705.202,-74.1605"/>
</g>
<!-- Node6 -->
<g id="node6" class="node"><title>Node6</title>
<g id="a_node6"><a xlink:href="../../db/d10/classcellsociety__team01_1_1modelview_1_1_g_u_i.html#a4072ce794f518e806e7a912892f1e9da" target="_top" xlink:title="cellsociety_team01.modelview.\lGUI.makeMenuBar">
<polygon fill="white" stroke="black" points="932,-98 932,-128 1096,-128 1096,-98 932,-98"/>
<text text-anchor="start" x="940" y="-116" font-family="Helvetica,sans-Serif" font-size="10.00">cellsociety_team01.modelview.</text>
<text text-anchor="middle" x="1014" y="-105" font-family="Helvetica,sans-Serif" font-size="10.00">GUI.makeMenuBar</text>
</a>
</g>
</g>
<!-- Node5&#45;&gt;Node6 -->
<g id="edge5" class="edge"><title>Node5&#45;&gt;Node6</title>
<path fill="none" stroke="midnightblue" d="M906.363,-113C914.817,-113 923.346,-113 931.7,-113"/>
<polygon fill="midnightblue" stroke="midnightblue" points="906.106,-109.5 896.105,-113 906.105,-116.5 906.106,-109.5"/>
</g>
<!-- Node7 -->
<g id="node7" class="node"><title>Node7</title>
<g id="a_node7"><a xlink:href="../../db/d10/classcellsociety__team01_1_1modelview_1_1_g_u_i.html#a07bcff60812627c8dfe97f1aadc671e5" target="_top" xlink:title="cellsociety_team01.modelview.\lGUI.GUI">
<polygon fill="white" stroke="black" points="1132,-73 1132,-103 1296,-103 1296,-73 1132,-73"/>
<text text-anchor="start" x="1140" y="-91" font-family="Helvetica,sans-Serif" font-size="10.00">cellsociety_team01.modelview.</text>
<text text-anchor="middle" x="1214" y="-80" font-family="Helvetica,sans-Serif" font-size="10.00">GUI.GUI</text>
</a>
</g>
</g>
<!-- Node6&#45;&gt;Node7 -->
<g id="edge6" class="edge"><title>Node6&#45;&gt;Node7</title>
<path fill="none" stroke="midnightblue" d="M1106.08,-101.499C1114.63,-100.42 1123.25,-99.3316 1131.7,-98.2651"/>
<polygon fill="midnightblue" stroke="midnightblue" points="1105.59,-98.0342 1096.11,-102.759 1106.47,-104.979 1105.59,-98.0342"/>
</g>
<!-- Node9 -->
<g id="node9" class="node"><title>Node9</title>
<g id="a_node9"><a xlink:href="../../db/d10/classcellsociety__team01_1_1modelview_1_1_g_u_i.html#aa924c28ce131195d3f377b18177f6cb9" target="_top" xlink:title="cellsociety_team01.modelview.\lGUI.makeButtonsAndSlider">
<polygon fill="white" stroke="black" points="932,-49 932,-79 1096,-79 1096,-49 932,-49"/>
<text text-anchor="start" x="940" y="-67" font-family="Helvetica,sans-Serif" font-size="10.00">cellsociety_team01.modelview.</text>
<text text-anchor="middle" x="1014" y="-56" font-family="Helvetica,sans-Serif" font-size="10.00">GUI.makeButtonsAndSlider</text>
</a>
</g>
</g>
<!-- Node8&#45;&gt;Node9 -->
<g id="edge8" class="edge"><title>Node8&#45;&gt;Node9</title>
<path fill="none" stroke="midnightblue" d="M906.363,-64C914.817,-64 923.346,-64 931.7,-64"/>
<polygon fill="midnightblue" stroke="midnightblue" points="906.106,-60.5001 896.105,-64 906.105,-67.5001 906.106,-60.5001"/>
</g>
<!-- Node9&#45;&gt;Node7 -->
<g id="edge9" class="edge"><title>Node9&#45;&gt;Node7</title>
<path fill="none" stroke="midnightblue" d="M1106.08,-75.0406C1114.63,-76.0763 1123.25,-77.1217 1131.7,-78.1455"/>
<polygon fill="midnightblue" stroke="midnightblue" points="1106.45,-71.5598 1096.11,-73.831 1105.61,-78.5089 1106.45,-71.5598"/>
</g>
<!-- Node10&#45;&gt;Node4 -->
<g id="edge11" class="edge"><title>Node10&#45;&gt;Node4</title>
<path fill="none" stroke="midnightblue" d="M523.921,-88C532.722,-88 541.626,-88 550.295,-88"/>
<polygon fill="midnightblue" stroke="midnightblue" points="523.658,-84.5001 513.658,-88 523.658,-91.5001 523.658,-84.5001"/>
</g>
<!-- Node12 -->
<g id="node12" class="node"><title>Node12</title>
<g id="a_node12"><a xlink:href="../../db/d40/classcellsociety__team01_1_1parser_1_1_parser.html#afa693f17f280ab1cf88baf2565c593a9" target="_top" xlink:title="cellsociety_team01.parser.\lParser.parseGrid">
<polygon fill="white" stroke="black" points="368.5,-24 368.5,-54 513.5,-54 513.5,-24 368.5,-24"/>
<text text-anchor="start" x="376.5" y="-42" font-family="Helvetica,sans-Serif" font-size="10.00">cellsociety_team01.parser.</text>
<text text-anchor="middle" x="441" y="-31" font-family="Helvetica,sans-Serif" font-size="10.00">Parser.parseGrid</text>
</a>
</g>
</g>
<!-- Node11&#45;&gt;Node12 -->
<g id="edge13" class="edge"><title>Node11&#45;&gt;Node12</title>
<path fill="none" stroke="midnightblue" d="M341.534,-52.5255C350.473,-51.2977 359.508,-50.0566 368.292,-48.85"/>
<polygon fill="midnightblue" stroke="midnightblue" points="340.932,-49.0752 331.502,-53.9036 341.885,-56.0101 340.932,-49.0752"/>
</g>
<!-- Node12&#45;&gt;Node4 -->
<g id="edge14" class="edge"><title>Node12&#45;&gt;Node4</title>
<path fill="none" stroke="midnightblue" d="M507.198,-56.7485C526.707,-62.0591 547.902,-67.8288 566.708,-72.9484"/>
<polygon fill="midnightblue" stroke="midnightblue" points="508.043,-53.351 497.475,-54.1014 506.204,-60.1053 508.043,-53.351"/>
</g>
<!-- Node13&#45;&gt;Node12 -->
<g id="edge16" class="edge"><title>Node13&#45;&gt;Node12</title>
<path fill="none" stroke="midnightblue" d="M339.605,-25.7611C349.205,-27.0271 358.947,-28.3117 368.395,-29.5576"/>
<polygon fill="midnightblue" stroke="midnightblue" points="340.042,-22.2885 329.67,-24.451 339.127,-29.2284 340.042,-22.2885"/>
</g>
</g>
</svg>
