<?xml version="1.0" encoding="UTF-8" standalone="no"?>
<!DOCTYPE svg PUBLIC "-//W3C//DTD SVG 1.1//EN"
 "http://www.w3.org/Graphics/SVG/1.1/DTD/svg11.dtd">
<!-- Generated by graphviz version 2.36.0 (20140111.2315)
 -->
<!-- Title: cellsociety_team01.parser.Parser.getState Pages: 1 -->
<svg width="1486pt" height="131pt"
 viewBox="0.00 0.00 1486.00 131.00" xmlns="http://www.w3.org/2000/svg" xmlns:xlink="http://www.w3.org/1999/xlink">
<g id="graph0" class="graph" transform="scale(1 1) rotate(0) translate(4 127)">
<title>cellsociety_team01.parser.Parser.getState</title>
<polygon fill="white" stroke="none" points="-4,4 -4,-127 1482,-127 1482,4 -4,4"/>
<!-- Node1 -->
<g id="node1" class="node"><title>Node1</title>
<polygon fill="#bfbfbf" stroke="black" points="0.5,-24 0.5,-54 145.5,-54 145.5,-24 0.5,-24"/>
<text text-anchor="start" x="8.5" y="-42" font-family="Helvetica,sans-Serif" font-size="10.00">cellsociety_team01.parser.</text>
<text text-anchor="middle" x="73" y="-31" font-family="Helvetica,sans-Serif" font-size="10.00">Parser.getState</text>
</g>
<!-- Node2 -->
<g id="node2" class="node"><title>Node2</title>
<g id="a_node2"><a xlink:href="../../db/d40/classcellsociety__team01_1_1parser_1_1_parser.html#aaf8f8745b89e52aee75fa2920608bbac" target="_top" xlink:title="cellsociety_team01.parser.\lParser.fillMap">
<polygon fill="white" stroke="black" points="182.5,-49 182.5,-79 327.5,-79 327.5,-49 182.5,-49"/>
<text text-anchor="start" x="190.5" y="-67" font-family="Helvetica,sans-Serif" font-size="10.00">cellsociety_team01.parser.</text>
<text text-anchor="middle" x="255" y="-56" font-family="Helvetica,sans-Serif" font-size="10.00">Parser.fillMap</text>
</a>
</g>
</g>
<!-- Node1&#45;&gt;Node2 -->
<g id="edge1" class="edge"><title>Node1&#45;&gt;Node2</title>
<path fill="none" stroke="midnightblue" d="M155.634,-50.3381C164.528,-51.5734 173.532,-52.8239 182.295,-54.0409"/>
<polygon fill="midnightblue" stroke="midnightblue" points="156.044,-46.8615 145.658,-48.9525 155.081,-53.795 156.044,-46.8615"/>
</g>
<!-- Node12 -->
<g id="node12" class="node"><title>Node12</title>
<g id="a_node12"><a xlink:href="../../db/d40/classcellsociety__team01_1_1parser_1_1_parser.html#a6328c0a6b8dab4bc6d860e80739fadca" target="_top" xlink:title="cellsociety_team01.parser.\lParser.placeGivenCells">
<polygon fill="white" stroke="black" points="182.5,-0 182.5,-30 327.5,-30 327.5,-0 182.5,-0"/>
<text text-anchor="start" x="190.5" y="-18" font-family="Helvetica,sans-Serif" font-size="10.00">cellsociety_team01.parser.</text>
<text text-anchor="middle" x="255" y="-7" font-family="Helvetica,sans-Serif" font-size="10.00">Parser.placeGivenCells</text>
</a>
</g>
</g>
<!-- Node1&#45;&gt;Node12 -->
<g id="edge13" class="edge"><title>Node1&#45;&gt;Node12</title>
<path fill="none" stroke="midnightblue" d="M155.634,-28.1154C164.528,-26.9296 173.532,-25.729 182.295,-24.5607"/>
<polygon fill="midnightblue" stroke="midnightblue" points="155.108,-24.6546 145.658,-29.4456 156.033,-31.5932 155.108,-24.6546"/>
</g>
<!-- Node3 -->
<g id="node3" class="node"><title>Node3</title>
<g id="a_node3"><a xlink:href="../../db/d40/classcellsociety__team01_1_1parser_1_1_parser.html#a0ed864ecdf8cf6ee778114ebe5c605ea" target="_top" xlink:title="cellsociety_team01.parser.\lParser.placeDistributedCells">
<polygon fill="white" stroke="black" points="364.5,-93 364.5,-123 513.5,-123 513.5,-93 364.5,-93"/>
<text text-anchor="start" x="372.5" y="-111" font-family="Helvetica,sans-Serif" font-size="10.00">cellsociety_team01.parser.</text>
<text text-anchor="middle" x="439" y="-100" font-family="Helvetica,sans-Serif" font-size="10.00">Parser.placeDistributedCells</text>
</a>
</g>
</g>
<!-- Node2&#45;&gt;Node3 -->
<g id="edge2" class="edge"><title>Node2&#45;&gt;Node3</title>
<path fill="none" stroke="midnightblue" d="M327.877,-81.3769C343.737,-85.2112 360.409,-89.2418 375.846,-92.9738"/>
<polygon fill="midnightblue" stroke="midnightblue" points="328.668,-77.9672 318.125,-79.0192 327.023,-84.7712 328.668,-77.9672"/>
</g>
<!-- Node11 -->
<g id="node11" class="node"><title>Node11</title>
<g id="a_node11"><a xlink:href="../../db/d40/classcellsociety__team01_1_1parser_1_1_parser.html#aaaea4078e4a144cf51ab40a295f4f396" target="_top" xlink:title="cellsociety_team01.parser.\lParser.placeRandomCells">
<polygon fill="white" stroke="black" points="366.5,-44 366.5,-74 511.5,-74 511.5,-44 366.5,-44"/>
<text text-anchor="start" x="374.5" y="-62" font-family="Helvetica,sans-Serif" font-size="10.00">cellsociety_team01.parser.</text>
<text text-anchor="middle" x="439" y="-51" font-family="Helvetica,sans-Serif" font-size="10.00">Parser.placeRandomCells</text>
</a>
</g>
</g>
<!-- Node2&#45;&gt;Node11 -->
<g id="edge11" class="edge"><title>Node2&#45;&gt;Node11</title>
<path fill="none" stroke="midnightblue" d="M337.908,-61.7498C347.411,-61.4887 357.046,-61.224 366.395,-60.9672"/>
<polygon fill="midnightblue" stroke="midnightblue" points="337.57,-58.2576 327.67,-62.031 337.762,-65.255 337.57,-58.2576"/>
</g>
<!-- Node4 -->
<g id="node4" class="node"><title>Node4</title>
<g id="a_node4"><a xlink:href="../../db/d40/classcellsociety__team01_1_1parser_1_1_parser.html#afa693f17f280ab1cf88baf2565c593a9" target="_top" xlink:title="cellsociety_team01.parser.\lParser.parseGrid">
<polygon fill="white" stroke="black" points="550.5,-44 550.5,-74 695.5,-74 695.5,-44 550.5,-44"/>
<text text-anchor="start" x="558.5" y="-62" font-family="Helvetica,sans-Serif" font-size="10.00">cellsociety_team01.parser.</text>
<text text-anchor="middle" x="623" y="-51" font-family="Helvetica,sans-Serif" font-size="10.00">Parser.parseGrid</text>
</a>
</g>
</g>
<!-- Node3&#45;&gt;Node4 -->
<g id="edge3" class="edge"><title>Node3&#45;&gt;Node4</title>
<path fill="none" stroke="midnightblue" d="M505.923,-90.2515C525.648,-84.9409 547.078,-79.1712 566.094,-74.0516"/>
<polygon fill="midnightblue" stroke="midnightblue" points="504.837,-86.9191 496.091,-92.8986 506.657,-93.6784 504.837,-86.9191"/>
</g>
<!-- Node5 -->
<g id="node5" class="node"><title>Node5</title>
<g id="a_node5"><a xlink:href="../../db/d40/classcellsociety__team01_1_1parser_1_1_parser.html#a31a05836dde41569f62542b9ea327f95" target="_top" xlink:title="cellsociety_team01.parser.\lParser.parseXmlFile">
<polygon fill="white" stroke="black" points="732.5,-44 732.5,-74 877.5,-74 877.5,-44 732.5,-44"/>
<text text-anchor="start" x="740.5" y="-62" font-family="Helvetica,sans-Serif" font-size="10.00">cellsociety_team01.parser.</text>
<text text-anchor="middle" x="805" y="-51" font-family="Helvetica,sans-Serif" font-size="10.00">Parser.parseXmlFile</text>
</a>
</g>
</g>
<!-- Node4&#45;&gt;Node5 -->
<g id="edge4" class="edge"><title>Node4&#45;&gt;Node5</title>
<path fill="none" stroke="midnightblue" d="M705.921,-59C714.722,-59 723.626,-59 732.295,-59"/>
<polygon fill="midnightblue" stroke="midnightblue" points="705.658,-55.5001 695.658,-59 705.658,-62.5001 705.658,-55.5001"/>
</g>
<!-- Node6 -->
<g id="node6" class="node"><title>Node6</title>
<g id="a_node6"><a xlink:href="../../db/d10/classcellsociety__team01_1_1modelview_1_1_g_u_i.html#afa183319cc9816a6147cba0869ef82eb" target="_top" xlink:title="cellsociety_team01.modelview.\lGUI.loadXML">
<polygon fill="white" stroke="black" points="914,-69 914,-99 1078,-99 1078,-69 914,-69"/>
<text text-anchor="start" x="922" y="-87" font-family="Helvetica,sans-Serif" font-size="10.00">cellsociety_team01.modelview.</text>
<text text-anchor="middle" x="996" y="-76" font-family="Helvetica,sans-Serif" font-size="10.00">GUI.loadXML</text>
</a>
</g>
</g>
<!-- Node5&#45;&gt;Node6 -->
<g id="edge5" class="edge"><title>Node5&#45;&gt;Node6</title>
<path fill="none" stroke="midnightblue" d="M887.781,-69.8175C896.42,-70.9604 905.205,-72.1223 913.837,-73.2642"/>
<polygon fill="midnightblue" stroke="midnightblue" points="888.095,-66.3287 877.722,-68.4871 887.177,-73.2683 888.095,-66.3287"/>
</g>
<!-- Node9 -->
<g id="node9" class="node"><title>Node9</title>
<g id="a_node9"><a xlink:href="../../db/d10/classcellsociety__team01_1_1modelview_1_1_g_u_i.html#a5c5e37ae72fe72af97fab2cb9a12b045" target="_top" xlink:title="cellsociety_team01.modelview.\lGUI.reset">
<polygon fill="white" stroke="black" points="914,-20 914,-50 1078,-50 1078,-20 914,-20"/>
<text text-anchor="start" x="922" y="-38" font-family="Helvetica,sans-Serif" font-size="10.00">cellsociety_team01.modelview.</text>
<text text-anchor="middle" x="996" y="-27" font-family="Helvetica,sans-Serif" font-size="10.00">GUI.reset</text>
</a>
</g>
</g>
<!-- Node5&#45;&gt;Node9 -->
<g id="edge8" class="edge"><title>Node5&#45;&gt;Node9</title>
<path fill="none" stroke="midnightblue" d="M887.781,-48.6152C896.42,-47.518 905.205,-46.4026 913.837,-45.3064"/>
<polygon fill="midnightblue" stroke="midnightblue" points="887.202,-45.1605 877.722,-49.8924 888.084,-52.1047 887.202,-45.1605"/>
</g>
<!-- Node7 -->
<g id="node7" class="node"><title>Node7</title>
<g id="a_node7"><a xlink:href="../../db/d10/classcellsociety__team01_1_1modelview_1_1_g_u_i.html#a4072ce794f518e806e7a912892f1e9da" target="_top" xlink:title="cellsociety_team01.modelview.\lGUI.makeMenuBar">
<polygon fill="white" stroke="black" points="1114,-69 1114,-99 1278,-99 1278,-69 1114,-69"/>
<text text-anchor="start" x="1122" y="-87" font-family="Helvetica,sans-Serif" font-size="10.00">cellsociety_team01.modelview.</text>
<text text-anchor="middle" x="1196" y="-76" font-family="Helvetica,sans-Serif" font-size="10.00">GUI.makeMenuBar</text>
</a>
</g>
</g>
<!-- Node6&#45;&gt;Node7 -->
<g id="edge6" class="edge"><title>Node6&#45;&gt;Node7</title>
<path fill="none" stroke="midnightblue" d="M1088.36,-84C1096.82,-84 1105.35,-84 1113.7,-84"/>
<polygon fill="midnightblue" stroke="midnightblue" points="1088.11,-80.5001 1078.11,-84 1088.11,-87.5001 1088.11,-80.5001"/>
</g>
<!-- Node8 -->
<g id="node8" class="node"><title>Node8</title>
<g id="a_node8"><a xlink:href="../../db/d10/classcellsociety__team01_1_1modelview_1_1_g_u_i.html#a07bcff60812627c8dfe97f1aadc671e5" target="_top" xlink:title="cellsociety_team01.modelview.\lGUI.GUI">
<polygon fill="white" stroke="black" points="1314,-44 1314,-74 1478,-74 1478,-44 1314,-44"/>
<text text-anchor="start" x="1322" y="-62" font-family="Helvetica,sans-Serif" font-size="10.00">cellsociety_team01.modelview.</text>
<text text-anchor="middle" x="1396" y="-51" font-family="Helvetica,sans-Serif" font-size="10.00">GUI.GUI</text>
</a>
</g>
</g>
<!-- Node7&#45;&gt;Node8 -->
<g id="edge7" class="edge"><title>Node7&#45;&gt;Node8</title>
<path fill="none" stroke="midnightblue" d="M1288.08,-72.4994C1296.63,-71.4205 1305.25,-70.3316 1313.7,-69.2651"/>
<polygon fill="midnightblue" stroke="midnightblue" points="1287.59,-69.0342 1278.11,-73.7594 1288.47,-75.9791 1287.59,-69.0342"/>
</g>
<!-- Node10 -->
<g id="node10" class="node"><title>Node10</title>
<g id="a_node10"><a xlink:href="../../db/d10/classcellsociety__team01_1_1modelview_1_1_g_u_i.html#aa924c28ce131195d3f377b18177f6cb9" target="_top" xlink:title="cellsociety_team01.modelview.\lGUI.makeButtonsAndSlider">
<polygon fill="white" stroke="black" points="1114,-20 1114,-50 1278,-50 1278,-20 1114,-20"/>
<text text-anchor="start" x="1122" y="-38" font-family="Helvetica,sans-Serif" font-size="10.00">cellsociety_team01.modelview.</text>
<text text-anchor="middle" x="1196" y="-27" font-family="Helvetica,sans-Serif" font-size="10.00">GUI.makeButtonsAndSlider</text>
</a>
</g>
</g>
<!-- Node9&#45;&gt;Node10 -->
<g id="edge9" class="edge"><title>Node9&#45;&gt;Node10</title>
<path fill="none" stroke="midnightblue" d="M1088.36,-35C1096.82,-35 1105.35,-35 1113.7,-35"/>
<polygon fill="midnightblue" stroke="midnightblue" points="1088.11,-31.5001 1078.11,-35 1088.11,-38.5001 1088.11,-31.5001"/>
</g>
<!-- Node10&#45;&gt;Node8 -->
<g id="edge10" class="edge"><title>Node10&#45;&gt;Node8</title>
<path fill="none" stroke="midnightblue" d="M1288.08,-46.0406C1296.63,-47.0763 1305.25,-48.1217 1313.7,-49.1455"/>
<polygon fill="midnightblue" stroke="midnightblue" points="1288.45,-42.5598 1278.11,-44.831 1287.61,-49.5089 1288.45,-42.5598"/>
</g>
<!-- Node11&#45;&gt;Node4 -->
<g id="edge12" class="edge"><title>Node11&#45;&gt;Node4</title>
<path fill="none" stroke="midnightblue" d="M521.908,-59C531.411,-59 541.046,-59 550.395,-59"/>
<polygon fill="midnightblue" stroke="midnightblue" points="521.67,-55.5001 511.67,-59 521.67,-62.5001 521.67,-55.5001"/>
</g>
<!-- Node12&#45;&gt;Node4 -->
<g id="edge14" class="edge"><title>Node12&#45;&gt;Node4</title>
<path fill="none" stroke="midnightblue" d="M337.8,-17.8038C388.711,-20.3443 455.424,-25.1176 514,-34 530.555,-36.5103 548.331,-40.2018 564.586,-43.9816"/>
<polygon fill="midnightblue" stroke="midnightblue" points="337.667,-14.2934 327.511,-17.3099 337.331,-21.2854 337.667,-14.2934"/>
</g>
</g>
</svg>
