<?xml version="1.0" encoding="UTF-8" standalone="no"?>
<!DOCTYPE svg PUBLIC "-//W3C//DTD SVG 1.1//EN"
 "http://www.w3.org/Graphics/SVG/1.1/DTD/svg11.dtd">
<!-- Generated by graphviz version 2.36.0 (20140111.2315)
 -->
<!-- Title: cellsociety_team01.parser.Parser.parseXmlFile Pages: 1 -->
<svg width="754pt" height="87pt"
 viewBox="0.00 0.00 754.00 87.00" xmlns="http://www.w3.org/2000/svg" xmlns:xlink="http://www.w3.org/1999/xlink">
<g id="graph0" class="graph" transform="scale(1 1) rotate(0) translate(4 83)">
<title>cellsociety_team01.parser.Parser.parseXmlFile</title>
<polygon fill="white" stroke="none" points="-4,4 -4,-83 750,-83 750,4 -4,4"/>
<!-- Node1 -->
<g id="node1" class="node"><title>Node1</title>
<polygon fill="#bfbfbf" stroke="black" points="0.5,-24 0.5,-54 145.5,-54 145.5,-24 0.5,-24"/>
<text text-anchor="start" x="8.5" y="-42" font-family="Helvetica,sans-Serif" font-size="10.00">cellsociety_team01.parser.</text>
<text text-anchor="middle" x="73" y="-31" font-family="Helvetica,sans-Serif" font-size="10.00">Parser.parseXmlFile</text>
</g>
<!-- Node2 -->
<g id="node2" class="node"><title>Node2</title>
<g id="a_node2"><a xlink:href="../../db/d10/classcellsociety__team01_1_1modelview_1_1_g_u_i.html#afa183319cc9816a6147cba0869ef82eb" target="_top" xlink:title="cellsociety_team01.modelview.\lGUI.loadXML">
<polygon fill="white" stroke="black" points="182,-49 182,-79 346,-79 346,-49 182,-49"/>
<text text-anchor="start" x="190" y="-67" font-family="Helvetica,sans-Serif" font-size="10.00">cellsociety_team01.modelview.</text>
<text text-anchor="middle" x="264" y="-56" font-family="Helvetica,sans-Serif" font-size="10.00">GUI.loadXML</text>
</a>
</g>
</g>
<!-- Node1&#45;&gt;Node2 -->
<g id="edge1" class="edge"><title>Node1&#45;&gt;Node2</title>
<path fill="none" stroke="midnightblue" d="M155.781,-49.8175C164.42,-50.9604 173.205,-52.1223 181.837,-53.2642"/>
<polygon fill="midnightblue" stroke="midnightblue" points="156.095,-46.3287 145.722,-48.4871 155.177,-53.2683 156.095,-46.3287"/>
</g>
<!-- Node5 -->
<g id="node5" class="node"><title>Node5</title>
<g id="a_node5"><a xlink:href="../../db/d10/classcellsociety__team01_1_1modelview_1_1_g_u_i.html#a5c5e37ae72fe72af97fab2cb9a12b045" target="_top" xlink:title="cellsociety_team01.modelview.\lGUI.reset">
<polygon fill="white" stroke="black" points="182,-0 182,-30 346,-30 346,-0 182,-0"/>
<text text-anchor="start" x="190" y="-18" font-family="Helvetica,sans-Serif" font-size="10.00">cellsociety_team01.modelview.</text>
<text text-anchor="middle" x="264" y="-7" font-family="Helvetica,sans-Serif" font-size="10.00">GUI.reset</text>
</a>
</g>
</g>
<!-- Node1&#45;&gt;Node5 -->
<g id="edge4" class="edge"><title>Node1&#45;&gt;Node5</title>
<path fill="none" stroke="midnightblue" d="M155.781,-28.6152C164.42,-27.518 173.205,-26.4026 181.837,-25.3064"/>
<polygon fill="midnightblue" stroke="midnightblue" points="155.202,-25.1605 145.722,-29.8924 156.084,-32.1047 155.202,-25.1605"/>
</g>
<!-- Node3 -->
<g id="node3" class="node"><title>Node3</title>
<g id="a_node3"><a xlink:href="../../db/d10/classcellsociety__team01_1_1modelview_1_1_g_u_i.html#a4072ce794f518e806e7a912892f1e9da" target="_top" xlink:title="cellsociety_team01.modelview.\lGUI.makeMenuBar">
<polygon fill="white" stroke="black" points="382,-49 382,-79 546,-79 546,-49 382,-49"/>
<text text-anchor="start" x="390" y="-67" font-family="Helvetica,sans-Serif" font-size="10.00">cellsociety_team01.modelview.</text>
<text text-anchor="middle" x="464" y="-56" font-family="Helvetica,sans-Serif" font-size="10.00">GUI.makeMenuBar</text>
</a>
</g>
</g>
<!-- Node2&#45;&gt;Node3 -->
<g id="edge2" class="edge"><title>Node2&#45;&gt;Node3</title>
<path fill="none" stroke="midnightblue" d="M356.363,-64C364.817,-64 373.346,-64 381.7,-64"/>
<polygon fill="midnightblue" stroke="midnightblue" points="356.106,-60.5001 346.105,-64 356.105,-67.5001 356.106,-60.5001"/>
</g>
<!-- Node4 -->
<g id="node4" class="node"><title>Node4</title>
<g id="a_node4"><a xlink:href="../../db/d10/classcellsociety__team01_1_1modelview_1_1_g_u_i.html#a07bcff60812627c8dfe97f1aadc671e5" target="_top" xlink:title="cellsociety_team01.modelview.\lGUI.GUI">
<polygon fill="white" stroke="black" points="582,-24 582,-54 746,-54 746,-24 582,-24"/>
<text text-anchor="start" x="590" y="-42" font-family="Helvetica,sans-Serif" font-size="10.00">cellsociety_team01.modelview.</text>
<text text-anchor="middle" x="664" y="-31" font-family="Helvetica,sans-Serif" font-size="10.00">GUI.GUI</text>
</a>
</g>
</g>
<!-- Node3&#45;&gt;Node4 -->
<g id="edge3" class="edge"><title>Node3&#45;&gt;Node4</title>
<path fill="none" stroke="midnightblue" d="M556.085,-52.4994C564.63,-51.4205 573.254,-50.3316 581.7,-49.2651"/>
<polygon fill="midnightblue" stroke="midnightblue" points="555.588,-49.0342 546.105,-53.7594 556.465,-55.9791 555.588,-49.0342"/>
</g>
<!-- Node6 -->
<g id="node6" class="node"><title>Node6</title>
<g id="a_node6"><a xlink:href="../../db/d10/classcellsociety__team01_1_1modelview_1_1_g_u_i.html#aa924c28ce131195d3f377b18177f6cb9" target="_top" xlink:title="cellsociety_team01.modelview.\lGUI.makeButtonsAndSlider">
<polygon fill="white" stroke="black" points="382,-0 382,-30 546,-30 546,-0 382,-0"/>
<text text-anchor="start" x="390" y="-18" font-family="Helvetica,sans-Serif" font-size="10.00">cellsociety_team01.modelview.</text>
<text text-anchor="middle" x="464" y="-7" font-family="Helvetica,sans-Serif" font-size="10.00">GUI.makeButtonsAndSlider</text>
</a>
</g>
</g>
<!-- Node5&#45;&gt;Node6 -->
<g id="edge5" class="edge"><title>Node5&#45;&gt;Node6</title>
<path fill="none" stroke="midnightblue" d="M356.363,-15C364.817,-15 373.346,-15 381.7,-15"/>
<polygon fill="midnightblue" stroke="midnightblue" points="356.106,-11.5001 346.105,-15 356.105,-18.5001 356.106,-11.5001"/>
</g>
<!-- Node6&#45;&gt;Node4 -->
<g id="edge6" class="edge"><title>Node6&#45;&gt;Node4</title>
<path fill="none" stroke="midnightblue" d="M556.085,-26.0406C564.63,-27.0763 573.254,-28.1217 581.7,-29.1455"/>
<polygon fill="midnightblue" stroke="midnightblue" points="556.454,-22.5598 546.105,-24.831 555.612,-29.5089 556.454,-22.5598"/>
</g>
</g>
</svg>
