<?xml version="1.0" encoding="UTF-8" standalone="no"?>
<!DOCTYPE svg PUBLIC "-//W3C//DTD SVG 1.1//EN"
 "http://www.w3.org/Graphics/SVG/1.1/DTD/svg11.dtd">
<!-- Generated by graphviz version 2.36.0 (20140111.2315)
 -->
<!-- Title: cellsociety_team01.parser.Parser.parseConfig Pages: 1 -->
<svg width="814pt" height="234pt"
 viewBox="0.00 0.00 814.00 234.00" xmlns="http://www.w3.org/2000/svg" xmlns:xlink="http://www.w3.org/1999/xlink">
<g id="graph0" class="graph" transform="scale(1 1) rotate(0) translate(4 230)">
<title>cellsociety_team01.parser.Parser.parseConfig</title>
<polygon fill="white" stroke="none" points="-4,4 -4,-230 810,-230 810,4 -4,4"/>
<!-- Node1 -->
<g id="node1" class="node"><title>Node1</title>
<polygon fill="#bfbfbf" stroke="black" points="0.5,-98 0.5,-128 145.5,-128 145.5,-98 0.5,-98"/>
<text text-anchor="start" x="8.5" y="-116" font-family="Helvetica,sans-Serif" font-size="10.00">cellsociety_team01.parser.</text>
<text text-anchor="middle" x="73" y="-105" font-family="Helvetica,sans-Serif" font-size="10.00">Parser.parseConfig</text>
</g>
<!-- Node2 -->
<g id="node2" class="node"><title>Node2</title>
<g id="a_node2"><a xlink:href="../../db/d40/classcellsociety__team01_1_1parser_1_1_parser.html#afa9ffc367d1b97d4ebec0de216a89d0a" target="_top" xlink:title="cellsociety_team01.parser.\lParser.getChildValues">
<polygon fill="white" stroke="black" points="194.5,-147 194.5,-177 339.5,-177 339.5,-147 194.5,-147"/>
<text text-anchor="start" x="202.5" y="-165" font-family="Helvetica,sans-Serif" font-size="10.00">cellsociety_team01.parser.</text>
<text text-anchor="middle" x="267" y="-154" font-family="Helvetica,sans-Serif" font-size="10.00">Parser.getChildValues</text>
</a>
</g>
</g>
<!-- Node1&#45;&gt;Node2 -->
<g id="edge1" class="edge"><title>Node1&#45;&gt;Node2</title>
<path fill="none" stroke="midnightblue" d="M132.911,-128.035C153.276,-133.232 176.272,-139.101 197.349,-144.48"/>
<polygon fill="midnightblue" stroke="midnightblue" points="196.645,-147.912 207.2,-146.994 198.376,-141.13 196.645,-147.912"/>
</g>
<!-- Node6 -->
<g id="node6" class="node"><title>Node6</title>
<g id="a_node6"><a xlink:href="../../d2/d8b/classcellsociety__team01_1_1modelview_1_1_grid.html#af2b5f0171f5f76b563c42d7a72d9d1ef" target="_top" xlink:title="cellsociety_team01.modelview.\lGrid.setConfigs">
<polygon fill="white" stroke="black" points="185,-98 185,-128 349,-128 349,-98 185,-98"/>
<text text-anchor="start" x="193" y="-116" font-family="Helvetica,sans-Serif" font-size="10.00">cellsociety_team01.modelview.</text>
<text text-anchor="middle" x="267" y="-105" font-family="Helvetica,sans-Serif" font-size="10.00">Grid.setConfigs</text>
</a>
</g>
</g>
<!-- Node1&#45;&gt;Node6 -->
<g id="edge5" class="edge"><title>Node1&#45;&gt;Node6</title>
<path fill="none" stroke="midnightblue" d="M145.767,-113C155.253,-113 165.077,-113 174.835,-113"/>
<polygon fill="midnightblue" stroke="midnightblue" points="174.962,-116.5 184.962,-113 174.962,-109.5 174.962,-116.5"/>
</g>
<!-- Node8 -->
<g id="node8" class="node"><title>Node8</title>
<g id="a_node8"><a xlink:href="../../da/df7/classcellsociety__team01_1_1simulations_1_1_simulation.html#acf2f5ed1c8aee7352a13dd6def1cd2c2" target="_top" xlink:title="cellsociety_team01.simulations.\lSimulation.setConfigs">
<polygon fill="white" stroke="black" points="182,-49 182,-79 352,-79 352,-49 182,-49"/>
<text text-anchor="start" x="190" y="-67" font-family="Helvetica,sans-Serif" font-size="10.00">cellsociety_team01.simulations.</text>
<text text-anchor="middle" x="267" y="-56" font-family="Helvetica,sans-Serif" font-size="10.00">Simulation.setConfigs</text>
</a>
</g>
</g>
<!-- Node1&#45;&gt;Node8 -->
<g id="edge7" class="edge"><title>Node1&#45;&gt;Node8</title>
<path fill="none" stroke="midnightblue" d="M132.911,-97.9654C153.276,-92.7682 176.272,-86.8994 197.349,-81.5204"/>
<polygon fill="midnightblue" stroke="midnightblue" points="198.376,-84.8704 207.2,-79.0062 196.645,-78.0878 198.376,-84.8704"/>
</g>
<!-- Node3 -->
<g id="node3" class="node"><title>Node3</title>
<g id="a_node3"><a xlink:href="../../db/d40/classcellsociety__team01_1_1parser_1_1_parser.html#a73fd995ca8e1f9fdd1f07f60f1a3c45d" target="_top" xlink:title="cellsociety_team01.parser.\lParser.getTextValue">
<polygon fill="white" stroke="black" points="422.5,-196 422.5,-226 567.5,-226 567.5,-196 422.5,-196"/>
<text text-anchor="start" x="430.5" y="-214" font-family="Helvetica,sans-Serif" font-size="10.00">cellsociety_team01.parser.</text>
<text text-anchor="middle" x="495" y="-203" font-family="Helvetica,sans-Serif" font-size="10.00">Parser.getTextValue</text>
</a>
</g>
</g>
<!-- Node2&#45;&gt;Node3 -->
<g id="edge2" class="edge"><title>Node2&#45;&gt;Node3</title>
<path fill="none" stroke="midnightblue" d="M337.343,-177.035C361.857,-182.349 389.609,-188.367 414.872,-193.844"/>
<polygon fill="midnightblue" stroke="midnightblue" points="414.273,-197.295 424.788,-195.994 415.757,-190.454 414.273,-197.295"/>
</g>
<!-- Node4 -->
<g id="node4" class="node"><title>Node4</title>
<g id="a_node4"><a xlink:href="../../d7/db9/classcellsociety__team01_1_1exceptions_1_1_element_value_exception.html#a43c39c1bb5e3254025a34f927500de7a" target="_top" xlink:title="cellsociety_team01.exceptions.\lElementValueException.handleException">
<polygon fill="white" stroke="black" points="389.5,-147 389.5,-177 600.5,-177 600.5,-147 389.5,-147"/>
<text text-anchor="start" x="397.5" y="-165" font-family="Helvetica,sans-Serif" font-size="10.00">cellsociety_team01.exceptions.</text>
<text text-anchor="middle" x="495" y="-154" font-family="Helvetica,sans-Serif" font-size="10.00">ElementValueException.handleException</text>
</a>
</g>
</g>
<!-- Node2&#45;&gt;Node4 -->
<g id="edge3" class="edge"><title>Node2&#45;&gt;Node4</title>
<path fill="none" stroke="midnightblue" d="M339.508,-162C352.08,-162 365.448,-162 378.856,-162"/>
<polygon fill="midnightblue" stroke="midnightblue" points="379.105,-165.5 389.105,-162 379.105,-158.5 379.105,-165.5"/>
</g>
<!-- Node5 -->
<g id="node5" class="node"><title>Node5</title>
<g id="a_node5"><a xlink:href="../../d7/db9/classcellsociety__team01_1_1exceptions_1_1_element_value_exception.html#a2c28f38c3ff86841b1390ad7a911f28d" target="_top" xlink:title="cellsociety_team01.exceptions.\lElementValueException.getTag">
<polygon fill="white" stroke="black" points="638.5,-147 638.5,-177 805.5,-177 805.5,-147 638.5,-147"/>
<text text-anchor="start" x="646.5" y="-165" font-family="Helvetica,sans-Serif" font-size="10.00">cellsociety_team01.exceptions.</text>
<text text-anchor="middle" x="722" y="-154" font-family="Helvetica,sans-Serif" font-size="10.00">ElementValueException.getTag</text>
</a>
</g>
</g>
<!-- Node4&#45;&gt;Node5 -->
<g id="edge4" class="edge"><title>Node4&#45;&gt;Node5</title>
<path fill="none" stroke="midnightblue" d="M600.596,-162C609.768,-162 619.01,-162 628.077,-162"/>
<polygon fill="midnightblue" stroke="midnightblue" points="628.227,-165.5 638.227,-162 628.227,-158.5 628.227,-165.5"/>
</g>
<!-- Node7 -->
<g id="node7" class="node"><title>Node7</title>
<g id="a_node7"><a xlink:href="../../df/da9/classcellsociety__team01_1_1exceptions_1_1_bad_grid_config_exception.html#a650d66c93e5d9eee98d5fc1f35ff18a3" target="_top" xlink:title="cellsociety_team01.exceptions.\lBadGridConfigException.handleException">
<polygon fill="white" stroke="black" points="388.5,-98 388.5,-128 601.5,-128 601.5,-98 388.5,-98"/>
<text text-anchor="start" x="396.5" y="-116" font-family="Helvetica,sans-Serif" font-size="10.00">cellsociety_team01.exceptions.</text>
<text text-anchor="middle" x="495" y="-105" font-family="Helvetica,sans-Serif" font-size="10.00">BadGridConfigException.handleException</text>
</a>
</g>
</g>
<!-- Node6&#45;&gt;Node7 -->
<g id="edge6" class="edge"><title>Node6&#45;&gt;Node7</title>
<path fill="none" stroke="midnightblue" d="M349.272,-113C358.664,-113 368.374,-113 378.113,-113"/>
<polygon fill="midnightblue" stroke="midnightblue" points="378.261,-116.5 388.261,-113 378.261,-109.5 378.261,-116.5"/>
</g>
<!-- Node9 -->
<g id="node9" class="node"><title>Node9</title>
<g id="a_node9"><a xlink:href="../../da/df7/classcellsociety__team01_1_1simulations_1_1_simulation.html#a7b19e29e35d46a3c6d7414aad3a01a61" target="_top" xlink:title="cellsociety_team01.simulations.\lSimulation.parseConfigs">
<polygon fill="white" stroke="black" points="410,-49 410,-79 580,-79 580,-49 410,-49"/>
<text text-anchor="start" x="418" y="-67" font-family="Helvetica,sans-Serif" font-size="10.00">cellsociety_team01.simulations.</text>
<text text-anchor="middle" x="495" y="-56" font-family="Helvetica,sans-Serif" font-size="10.00">Simulation.parseConfigs</text>
</a>
</g>
</g>
<!-- Node8&#45;&gt;Node9 -->
<g id="edge8" class="edge"><title>Node8&#45;&gt;Node9</title>
<path fill="none" stroke="midnightblue" d="M352.154,-64C367.596,-64 383.809,-64 399.529,-64"/>
<polygon fill="midnightblue" stroke="midnightblue" points="399.776,-67.5001 409.776,-64 399.776,-60.5001 399.776,-67.5001"/>
</g>
<!-- Node10 -->
<g id="node10" class="node"><title>Node10</title>
<g id="a_node10"><a xlink:href="../../da/df7/classcellsociety__team01_1_1simulations_1_1_simulation.html#a6bc3495c22186064e68ad658f3472c99" target="_top" xlink:title="cellsociety_team01.simulations.\lSimulation.initialize">
<polygon fill="white" stroke="black" points="410,-0 410,-30 580,-30 580,-0 410,-0"/>
<text text-anchor="start" x="418" y="-18" font-family="Helvetica,sans-Serif" font-size="10.00">cellsociety_team01.simulations.</text>
<text text-anchor="middle" x="495" y="-7" font-family="Helvetica,sans-Serif" font-size="10.00">Simulation.initialize</text>
</a>
</g>
</g>
<!-- Node8&#45;&gt;Node10 -->
<g id="edge9" class="edge"><title>Node8&#45;&gt;Node10</title>
<path fill="none" stroke="midnightblue" d="M337.343,-48.9654C361.857,-43.6506 389.609,-37.6335 414.872,-32.156"/>
<polygon fill="midnightblue" stroke="midnightblue" points="415.757,-35.5457 424.788,-30.0062 414.273,-28.7046 415.757,-35.5457"/>
</g>
</g>
</svg>
