<?xml version="1.0" encoding="UTF-8" standalone="no"?>
<!DOCTYPE svg PUBLIC "-//W3C//DTD SVG 1.1//EN"
 "http://www.w3.org/Graphics/SVG/1.1/DTD/svg11.dtd">
<!-- Generated by graphviz version 2.36.0 (20140111.2315)
 -->
<!-- Title: cellsociety_team01.parser.Parser.placeRandomCells Pages: 1 -->
<svg width="1144pt" height="170pt"
 viewBox="0.00 0.00 1144.00 169.57" xmlns="http://www.w3.org/2000/svg" xmlns:xlink="http://www.w3.org/1999/xlink">
<g id="graph0" class="graph" transform="scale(1 1) rotate(0) translate(4 165.574)">
<title>cellsociety_team01.parser.Parser.placeRandomCells</title>
<polygon fill="white" stroke="none" points="-4,4 -4,-165.574 1140,-165.574 1140,4 -4,4"/>
<!-- Node1 -->
<g id="node1" class="node"><title>Node1</title>
<polygon fill="#bfbfbf" stroke="black" points="0.5,-90 0.5,-120 145.5,-120 145.5,-90 0.5,-90"/>
<text text-anchor="start" x="8.5" y="-108" font-family="Helvetica,sans-Serif" font-size="10.00">cellsociety_team01.parser.</text>
<text text-anchor="middle" x="73" y="-97" font-family="Helvetica,sans-Serif" font-size="10.00">Parser.placeRandomCells</text>
</g>
<!-- Node2 -->
<g id="node2" class="node"><title>Node2</title>
<g id="a_node2"><a xlink:href="../../db/d40/classcellsociety__team01_1_1parser_1_1_parser.html#aaf8f8745b89e52aee75fa2920608bbac" target="_top" xlink:title="cellsociety_team01.parser.\lParser.fillMap">
<polygon fill="white" stroke="black" points="182.5,-90 182.5,-120 327.5,-120 327.5,-90 182.5,-90"/>
<text text-anchor="start" x="190.5" y="-108" font-family="Helvetica,sans-Serif" font-size="10.00">cellsociety_team01.parser.</text>
<text text-anchor="middle" x="255" y="-97" font-family="Helvetica,sans-Serif" font-size="10.00">Parser.fillMap</text>
</a>
</g>
</g>
<!-- Node1&#45;&gt;Node2 -->
<g id="edge1" class="edge"><title>Node1&#45;&gt;Node2</title>
<path fill="none" stroke="midnightblue" d="M145.658,-105C154.325,-105 163.23,-105 172.031,-105"/>
<polygon fill="midnightblue" stroke="midnightblue" points="172.295,-108.5 182.295,-105 172.294,-101.5 172.295,-108.5"/>
</g>
<!-- Node3 -->
<g id="node3" class="node"><title>Node3</title>
<g id="a_node3"><a xlink:href="../../db/d40/classcellsociety__team01_1_1parser_1_1_parser.html#a13ce7871e46a22a59e23540c9b83ef01" target="_top" xlink:title="cellsociety_team01.parser.\lParser.addCell">
<polygon fill="white" stroke="black" points="364.5,-112 364.5,-142 509.5,-142 509.5,-112 364.5,-112"/>
<text text-anchor="start" x="372.5" y="-130" font-family="Helvetica,sans-Serif" font-size="10.00">cellsociety_team01.parser.</text>
<text text-anchor="middle" x="437" y="-119" font-family="Helvetica,sans-Serif" font-size="10.00">Parser.addCell</text>
</a>
</g>
</g>
<!-- Node2&#45;&gt;Node3 -->
<g id="edge2" class="edge"><title>Node2&#45;&gt;Node3</title>
<path fill="none" stroke="midnightblue" d="M327.658,-113.758C336.419,-114.829 345.423,-115.93 354.318,-117.017"/>
<polygon fill="midnightblue" stroke="midnightblue" points="353.944,-120.497 364.295,-118.236 354.793,-113.549 353.944,-120.497"/>
</g>
<!-- Node4 -->
<g id="node4" class="node"><title>Node4</title>
<g id="a_node4"><a xlink:href="../../d8/d80/classcellsociety__team01_1_1_pair.html#a1a97e852278e185e3e50f37c826b12e8" target="_top" xlink:title="cellsociety_team01.Pair.getX">
<polygon fill="white" stroke="black" points="554.5,-139.5 554.5,-158.5 707.5,-158.5 707.5,-139.5 554.5,-139.5"/>
<text text-anchor="middle" x="631" y="-146.5" font-family="Helvetica,sans-Serif" font-size="10.00">cellsociety_team01.Pair.getX</text>
</a>
</g>
</g>
<!-- Node2&#45;&gt;Node4 -->
<g id="edge10" class="edge"><title>Node2&#45;&gt;Node4</title>
<path fill="none" stroke="midnightblue" d="M282.975,-120.112C304.243,-131.118 335.046,-145.091 364,-151 423.283,-163.099 491.557,-162.29 544.091,-158.617"/>
<polygon fill="midnightblue" stroke="midnightblue" points="544.67,-162.083 554.381,-157.847 544.148,-155.103 544.67,-162.083"/>
</g>
<!-- Node5 -->
<g id="node5" class="node"><title>Node5</title>
<g id="a_node5"><a xlink:href="../../d8/d80/classcellsociety__team01_1_1_pair.html#a8bf4fdfd4efdf9e3b37eb69706b3b952" target="_top" xlink:title="cellsociety_team01.Pair.getY">
<polygon fill="white" stroke="black" points="555,-87.5 555,-106.5 707,-106.5 707,-87.5 555,-87.5"/>
<text text-anchor="middle" x="631" y="-94.5" font-family="Helvetica,sans-Serif" font-size="10.00">cellsociety_team01.Pair.getY</text>
</a>
</g>
</g>
<!-- Node2&#45;&gt;Node5 -->
<g id="edge11" class="edge"><title>Node2&#45;&gt;Node5</title>
<path fill="none" stroke="midnightblue" d="M327.668,-103.467C389.478,-102.145 478.867,-100.233 544.418,-98.8306"/>
<polygon fill="midnightblue" stroke="midnightblue" points="544.803,-102.323 554.726,-98.6101 544.653,-95.3249 544.803,-102.323"/>
</g>
<!-- Node6 -->
<g id="node6" class="node"><title>Node6</title>
<g id="a_node6"><a xlink:href="../../db/d40/classcellsociety__team01_1_1parser_1_1_parser.html#a5ffbb8ad89f8a4a661d2204b837a070a" target="_top" xlink:title="cellsociety_team01.parser.\lParser.getState">
<polygon fill="white" stroke="black" points="364.5,-24 364.5,-54 509.5,-54 509.5,-24 364.5,-24"/>
<text text-anchor="start" x="372.5" y="-42" font-family="Helvetica,sans-Serif" font-size="10.00">cellsociety_team01.parser.</text>
<text text-anchor="middle" x="437" y="-31" font-family="Helvetica,sans-Serif" font-size="10.00">Parser.getState</text>
</a>
</g>
</g>
<!-- Node2&#45;&gt;Node6 -->
<g id="edge5" class="edge"><title>Node2&#45;&gt;Node6</title>
<path fill="none" stroke="midnightblue" d="M297.296,-89.8583C323.478,-80.258 357.531,-67.7721 385.343,-57.5744"/>
<polygon fill="midnightblue" stroke="midnightblue" points="386.713,-60.8 394.897,-54.0713 384.303,-54.2278 386.713,-60.8"/>
</g>
<!-- Node3&#45;&gt;Node4 -->
<g id="edge3" class="edge"><title>Node3&#45;&gt;Node4</title>
<path fill="none" stroke="midnightblue" d="M509.767,-135.223C521.053,-136.516 532.817,-137.864 544.379,-139.189"/>
<polygon fill="midnightblue" stroke="midnightblue" points="544.136,-142.684 554.469,-140.345 544.933,-135.73 544.136,-142.684"/>
</g>
<!-- Node3&#45;&gt;Node5 -->
<g id="edge4" class="edge"><title>Node3&#45;&gt;Node5</title>
<path fill="none" stroke="midnightblue" d="M509.767,-115.786C525.756,-113.288 542.705,-110.64 558.677,-108.144"/>
<polygon fill="midnightblue" stroke="midnightblue" points="559.672,-111.531 569.011,-106.529 558.591,-104.615 559.672,-111.531"/>
</g>
<!-- Node7 -->
<g id="node7" class="node"><title>Node7</title>
<g id="a_node7"><a xlink:href="../../da/df7/classcellsociety__team01_1_1simulations_1_1_simulation.html#af6dd9ee9d5ef64a7f1526fddb9e2ad69" target="_top" xlink:title="cellsociety_team01.simulations.\lSimulation.findState">
<polygon fill="white" stroke="black" points="546,-24 546,-54 716,-54 716,-24 546,-24"/>
<text text-anchor="start" x="554" y="-42" font-family="Helvetica,sans-Serif" font-size="10.00">cellsociety_team01.simulations.</text>
<text text-anchor="middle" x="631" y="-31" font-family="Helvetica,sans-Serif" font-size="10.00">Simulation.findState</text>
</a>
</g>
</g>
<!-- Node6&#45;&gt;Node7 -->
<g id="edge6" class="edge"><title>Node6&#45;&gt;Node7</title>
<path fill="none" stroke="midnightblue" d="M509.767,-39C518.188,-39 526.875,-39 535.546,-39"/>
<polygon fill="midnightblue" stroke="midnightblue" points="535.7,-42.5001 545.7,-39 535.7,-35.5001 535.7,-42.5001"/>
</g>
<!-- Node8 -->
<g id="node8" class="node"><title>Node8</title>
<g id="a_node8"><a xlink:href="../../d2/d65/classcellsociety__team01_1_1_cell_state_1_1_state.html#a1d275a76d7d39ec3662c4d6da0e4daed" target="_top" xlink:title="cellsociety_team01.CellState.\lState.newInstanceOf">
<polygon fill="white" stroke="black" points="768,-49 768,-79 926,-79 926,-49 768,-49"/>
<text text-anchor="start" x="776" y="-67" font-family="Helvetica,sans-Serif" font-size="10.00">cellsociety_team01.CellState.</text>
<text text-anchor="middle" x="847" y="-56" font-family="Helvetica,sans-Serif" font-size="10.00">State.newInstanceOf</text>
</a>
</g>
</g>
<!-- Node7&#45;&gt;Node8 -->
<g id="edge7" class="edge"><title>Node7&#45;&gt;Node8</title>
<path fill="none" stroke="midnightblue" d="M716.271,-48.8448C729.786,-50.4236 743.808,-52.0617 757.42,-53.6519"/>
<polygon fill="midnightblue" stroke="midnightblue" points="757.395,-57.1727 767.734,-54.8568 758.208,-50.22 757.395,-57.1727"/>
</g>
<!-- Node10 -->
<g id="node10" class="node"><title>Node10</title>
<g id="a_node10"><a xlink:href="../../d2/deb/classcellsociety__team01_1_1exceptions_1_1_bad_state_exception.html#a71e67bc47464bf366a521d779fba0dba" target="_top" xlink:title="cellsociety_team01.exceptions.\lBadStateException.handleException">
<polygon fill="white" stroke="black" points="752,-0 752,-30 942,-30 942,-0 752,-0"/>
<text text-anchor="start" x="760" y="-18" font-family="Helvetica,sans-Serif" font-size="10.00">cellsociety_team01.exceptions.</text>
<text text-anchor="middle" x="847" y="-7" font-family="Helvetica,sans-Serif" font-size="10.00">BadStateException.handleException</text>
</a>
</g>
</g>
<!-- Node7&#45;&gt;Node10 -->
<g id="edge9" class="edge"><title>Node7&#45;&gt;Node10</title>
<path fill="none" stroke="midnightblue" d="M716.271,-29.549C724.678,-28.6062 733.281,-27.6414 741.859,-26.6793"/>
<polygon fill="midnightblue" stroke="midnightblue" points="742.358,-30.1455 751.905,-25.5527 741.578,-23.1891 742.358,-30.1455"/>
</g>
<!-- Node9 -->
<g id="node9" class="node"><title>Node9</title>
<g id="a_node9"><a xlink:href="../../d2/d65/classcellsociety__team01_1_1_cell_state_1_1_state.html#ab47312e71cd79169d18859cdc427b594" target="_top" xlink:title="cellsociety_team01.CellState.\lState.State">
<polygon fill="white" stroke="black" points="978,-49 978,-79 1136,-79 1136,-49 978,-49"/>
<text text-anchor="start" x="986" y="-67" font-family="Helvetica,sans-Serif" font-size="10.00">cellsociety_team01.CellState.</text>
<text text-anchor="middle" x="1057" y="-56" font-family="Helvetica,sans-Serif" font-size="10.00">State.State</text>
</a>
</g>
</g>
<!-- Node8&#45;&gt;Node9 -->
<g id="edge8" class="edge"><title>Node8&#45;&gt;Node9</title>
<path fill="none" stroke="midnightblue" d="M926.043,-64C939.679,-64 953.951,-64 967.837,-64"/>
<polygon fill="midnightblue" stroke="midnightblue" points="967.865,-67.5001 977.865,-64 967.865,-60.5001 967.865,-67.5001"/>
</g>
</g>
</svg>
