<?xml version="1.0" encoding="UTF-8" standalone="no"?>
<!DOCTYPE svg PUBLIC "-//W3C//DTD SVG 1.1//EN"
 "http://www.w3.org/Graphics/SVG/1.1/DTD/svg11.dtd">
<!-- Generated by graphviz version 2.36.0 (20140111.2315)
 -->
<!-- Title: cellsociety_team01.parser.Parser.fillMap Pages: 1 -->
<svg width="962pt" height="170pt"
 viewBox="0.00 0.00 962.00 169.57" xmlns="http://www.w3.org/2000/svg" xmlns:xlink="http://www.w3.org/1999/xlink">
<g id="graph0" class="graph" transform="scale(1 1) rotate(0) translate(4 165.574)">
<title>cellsociety_team01.parser.Parser.fillMap</title>
<polygon fill="white" stroke="none" points="-4,4 -4,-165.574 958,-165.574 958,4 -4,4"/>
<!-- Node1 -->
<g id="node1" class="node"><title>Node1</title>
<polygon fill="#bfbfbf" stroke="black" points="0.5,-90 0.5,-120 145.5,-120 145.5,-90 0.5,-90"/>
<text text-anchor="start" x="8.5" y="-108" font-family="Helvetica,sans-Serif" font-size="10.00">cellsociety_team01.parser.</text>
<text text-anchor="middle" x="73" y="-97" font-family="Helvetica,sans-Serif" font-size="10.00">Parser.fillMap</text>
</g>
<!-- Node2 -->
<g id="node2" class="node"><title>Node2</title>
<g id="a_node2"><a xlink:href="../../db/d40/classcellsociety__team01_1_1parser_1_1_parser.html#a13ce7871e46a22a59e23540c9b83ef01" target="_top" xlink:title="cellsociety_team01.parser.\lParser.addCell">
<polygon fill="white" stroke="black" points="182.5,-112 182.5,-142 327.5,-142 327.5,-112 182.5,-112"/>
<text text-anchor="start" x="190.5" y="-130" font-family="Helvetica,sans-Serif" font-size="10.00">cellsociety_team01.parser.</text>
<text text-anchor="middle" x="255" y="-119" font-family="Helvetica,sans-Serif" font-size="10.00">Parser.addCell</text>
</a>
</g>
</g>
<!-- Node1&#45;&gt;Node2 -->
<g id="edge1" class="edge"><title>Node1&#45;&gt;Node2</title>
<path fill="none" stroke="midnightblue" d="M145.658,-113.758C154.419,-114.829 163.423,-115.93 172.318,-117.017"/>
<polygon fill="midnightblue" stroke="midnightblue" points="171.944,-120.497 182.295,-118.236 172.793,-113.549 171.944,-120.497"/>
</g>
<!-- Node3 -->
<g id="node3" class="node"><title>Node3</title>
<g id="a_node3"><a xlink:href="../../d8/d80/classcellsociety__team01_1_1_pair.html#a1a97e852278e185e3e50f37c826b12e8" target="_top" xlink:title="cellsociety_team01.Pair.getX">
<polygon fill="white" stroke="black" points="372.5,-139.5 372.5,-158.5 525.5,-158.5 525.5,-139.5 372.5,-139.5"/>
<text text-anchor="middle" x="449" y="-146.5" font-family="Helvetica,sans-Serif" font-size="10.00">cellsociety_team01.Pair.getX</text>
</a>
</g>
</g>
<!-- Node1&#45;&gt;Node3 -->
<g id="edge9" class="edge"><title>Node1&#45;&gt;Node3</title>
<path fill="none" stroke="midnightblue" d="M100.975,-120.112C122.243,-131.118 153.046,-145.091 182,-151 241.283,-163.099 309.557,-162.29 362.091,-158.617"/>
<polygon fill="midnightblue" stroke="midnightblue" points="362.67,-162.083 372.381,-157.847 362.148,-155.103 362.67,-162.083"/>
</g>
<!-- Node4 -->
<g id="node4" class="node"><title>Node4</title>
<g id="a_node4"><a xlink:href="../../d8/d80/classcellsociety__team01_1_1_pair.html#a8bf4fdfd4efdf9e3b37eb69706b3b952" target="_top" xlink:title="cellsociety_team01.Pair.getY">
<polygon fill="white" stroke="black" points="373,-87.5 373,-106.5 525,-106.5 525,-87.5 373,-87.5"/>
<text text-anchor="middle" x="449" y="-94.5" font-family="Helvetica,sans-Serif" font-size="10.00">cellsociety_team01.Pair.getY</text>
</a>
</g>
</g>
<!-- Node1&#45;&gt;Node4 -->
<g id="edge10" class="edge"><title>Node1&#45;&gt;Node4</title>
<path fill="none" stroke="midnightblue" d="M145.668,-103.467C207.478,-102.145 296.867,-100.233 362.418,-98.8306"/>
<polygon fill="midnightblue" stroke="midnightblue" points="362.803,-102.323 372.726,-98.6101 362.653,-95.3249 362.803,-102.323"/>
</g>
<!-- Node5 -->
<g id="node5" class="node"><title>Node5</title>
<g id="a_node5"><a xlink:href="../../db/d40/classcellsociety__team01_1_1parser_1_1_parser.html#a5ffbb8ad89f8a4a661d2204b837a070a" target="_top" xlink:title="cellsociety_team01.parser.\lParser.getState">
<polygon fill="white" stroke="black" points="182.5,-24 182.5,-54 327.5,-54 327.5,-24 182.5,-24"/>
<text text-anchor="start" x="190.5" y="-42" font-family="Helvetica,sans-Serif" font-size="10.00">cellsociety_team01.parser.</text>
<text text-anchor="middle" x="255" y="-31" font-family="Helvetica,sans-Serif" font-size="10.00">Parser.getState</text>
</a>
</g>
</g>
<!-- Node1&#45;&gt;Node5 -->
<g id="edge4" class="edge"><title>Node1&#45;&gt;Node5</title>
<path fill="none" stroke="midnightblue" d="M115.296,-89.8583C141.478,-80.258 175.531,-67.7721 203.343,-57.5744"/>
<polygon fill="midnightblue" stroke="midnightblue" points="204.713,-60.8 212.897,-54.0713 202.303,-54.2278 204.713,-60.8"/>
</g>
<!-- Node2&#45;&gt;Node3 -->
<g id="edge2" class="edge"><title>Node2&#45;&gt;Node3</title>
<path fill="none" stroke="midnightblue" d="M327.767,-135.223C339.053,-136.516 350.817,-137.864 362.379,-139.189"/>
<polygon fill="midnightblue" stroke="midnightblue" points="362.136,-142.684 372.469,-140.345 362.933,-135.73 362.136,-142.684"/>
</g>
<!-- Node2&#45;&gt;Node4 -->
<g id="edge3" class="edge"><title>Node2&#45;&gt;Node4</title>
<path fill="none" stroke="midnightblue" d="M327.767,-115.786C343.756,-113.288 360.705,-110.64 376.677,-108.144"/>
<polygon fill="midnightblue" stroke="midnightblue" points="377.672,-111.531 387.011,-106.529 376.591,-104.615 377.672,-111.531"/>
</g>
<!-- Node6 -->
<g id="node6" class="node"><title>Node6</title>
<g id="a_node6"><a xlink:href="../../da/df7/classcellsociety__team01_1_1simulations_1_1_simulation.html#af6dd9ee9d5ef64a7f1526fddb9e2ad69" target="_top" xlink:title="cellsociety_team01.simulations.\lSimulation.findState">
<polygon fill="white" stroke="black" points="364,-24 364,-54 534,-54 534,-24 364,-24"/>
<text text-anchor="start" x="372" y="-42" font-family="Helvetica,sans-Serif" font-size="10.00">cellsociety_team01.simulations.</text>
<text text-anchor="middle" x="449" y="-31" font-family="Helvetica,sans-Serif" font-size="10.00">Simulation.findState</text>
</a>
</g>
</g>
<!-- Node5&#45;&gt;Node6 -->
<g id="edge5" class="edge"><title>Node5&#45;&gt;Node6</title>
<path fill="none" stroke="midnightblue" d="M327.767,-39C336.188,-39 344.875,-39 353.546,-39"/>
<polygon fill="midnightblue" stroke="midnightblue" points="353.7,-42.5001 363.7,-39 353.7,-35.5001 353.7,-42.5001"/>
</g>
<!-- Node7 -->
<g id="node7" class="node"><title>Node7</title>
<g id="a_node7"><a xlink:href="../../d2/d65/classcellsociety__team01_1_1_cell_state_1_1_state.html#a1d275a76d7d39ec3662c4d6da0e4daed" target="_top" xlink:title="cellsociety_team01.CellState.\lState.newInstanceOf">
<polygon fill="white" stroke="black" points="586,-49 586,-79 744,-79 744,-49 586,-49"/>
<text text-anchor="start" x="594" y="-67" font-family="Helvetica,sans-Serif" font-size="10.00">cellsociety_team01.CellState.</text>
<text text-anchor="middle" x="665" y="-56" font-family="Helvetica,sans-Serif" font-size="10.00">State.newInstanceOf</text>
</a>
</g>
</g>
<!-- Node6&#45;&gt;Node7 -->
<g id="edge6" class="edge"><title>Node6&#45;&gt;Node7</title>
<path fill="none" stroke="midnightblue" d="M534.271,-48.8448C547.786,-50.4236 561.808,-52.0617 575.42,-53.6519"/>
<polygon fill="midnightblue" stroke="midnightblue" points="575.395,-57.1727 585.734,-54.8568 576.208,-50.22 575.395,-57.1727"/>
</g>
<!-- Node9 -->
<g id="node9" class="node"><title>Node9</title>
<g id="a_node9"><a xlink:href="../../d2/deb/classcellsociety__team01_1_1exceptions_1_1_bad_state_exception.html#a71e67bc47464bf366a521d779fba0dba" target="_top" xlink:title="cellsociety_team01.exceptions.\lBadStateException.handleException">
<polygon fill="white" stroke="black" points="570,-0 570,-30 760,-30 760,-0 570,-0"/>
<text text-anchor="start" x="578" y="-18" font-family="Helvetica,sans-Serif" font-size="10.00">cellsociety_team01.exceptions.</text>
<text text-anchor="middle" x="665" y="-7" font-family="Helvetica,sans-Serif" font-size="10.00">BadStateException.handleException</text>
</a>
</g>
</g>
<!-- Node6&#45;&gt;Node9 -->
<g id="edge8" class="edge"><title>Node6&#45;&gt;Node9</title>
<path fill="none" stroke="midnightblue" d="M534.271,-29.549C542.678,-28.6062 551.281,-27.6414 559.859,-26.6793"/>
<polygon fill="midnightblue" stroke="midnightblue" points="560.358,-30.1455 569.905,-25.5527 559.578,-23.1891 560.358,-30.1455"/>
</g>
<!-- Node8 -->
<g id="node8" class="node"><title>Node8</title>
<g id="a_node8"><a xlink:href="../../d2/d65/classcellsociety__team01_1_1_cell_state_1_1_state.html#ab47312e71cd79169d18859cdc427b594" target="_top" xlink:title="cellsociety_team01.CellState.\lState.State">
<polygon fill="white" stroke="black" points="796,-49 796,-79 954,-79 954,-49 796,-49"/>
<text text-anchor="start" x="804" y="-67" font-family="Helvetica,sans-Serif" font-size="10.00">cellsociety_team01.CellState.</text>
<text text-anchor="middle" x="875" y="-56" font-family="Helvetica,sans-Serif" font-size="10.00">State.State</text>
</a>
</g>
</g>
<!-- Node7&#45;&gt;Node8 -->
<g id="edge7" class="edge"><title>Node7&#45;&gt;Node8</title>
<path fill="none" stroke="midnightblue" d="M744.043,-64C757.679,-64 771.951,-64 785.837,-64"/>
<polygon fill="midnightblue" stroke="midnightblue" points="785.865,-67.5001 795.865,-64 785.865,-60.5001 785.865,-67.5001"/>
</g>
</g>
</svg>
