<?xml version="1.0" encoding="UTF-8" standalone="no"?>
<!DOCTYPE svg PUBLIC "-//W3C//DTD SVG 1.1//EN"
 "http://www.w3.org/Graphics/SVG/1.1/DTD/svg11.dtd">
<!-- Generated by graphviz version 2.36.0 (20140111.2315)
 -->
<!-- Title: cellsociety_team01.parser.Parser.parseGrid Pages: 1 -->
<!--zoomable 590 -->
<svg id="main" version="1.1" xmlns="http://www.w3.org/2000/svg" xmlns:xlink="http://www.w3.org/1999/xlink" xml:space="preserve" onload="init(evt)">
<style type="text/css"><![CDATA[
.edge:hover path { stroke: red; }
.edge:hover polygon { stroke: red; fill: red; }
]]></style>
<script type="text/javascript"><![CDATA[
var edges = document.getElementsByTagName('g');
if (edges && edges.length) {
  for (var i=0;i<edges.length;i++) {
    if (edges[i].id.substr(0,4)=='edge') {
      edges[i].setAttribute('class','edge');
    }
  }
}
]]></script>
        <defs>
                <circle id="rim" cx="0" cy="0" r="7"/>
                <circle id="rim2" cx="0" cy="0" r="3.5"/>
                <g id="zoomPlus">
                        <use xlink:href="#rim" fill="#404040">
                                <set attributeName="fill" to="#808080" begin="zoomplus.mouseover" end="zoomplus.mouseout"/>
                        </use>
                        <path d="M-4,0h8M0,-4v8" fill="none" stroke="white" stroke-width="1.5" pointer-events="none"/>
                </g>
                <g id="zoomMin">
                        <use xlink:href="#rim" fill="#404040">
                                <set attributeName="fill" to="#808080" begin="zoomminus.mouseover" end="zoomminus.mouseout"/>
                        </use>
                        <path d="M-4,0h8" fill="none" stroke="white" stroke-width="1.5" pointer-events="none"/>
                </g>
                <g id="dirArrow">
                        <path fill="none" stroke="white" stroke-width="1.5" d="M0,-3.0v7 M-2.5,-0.5L0,-3.0L2.5,-0.5"/>
                </g>
               <g id="resetDef">
                       <use xlink:href="#rim2" fill="#404040">
                               <set attributeName="fill" to="#808080" begin="reset.mouseover" end="reset.mouseout"/>
                       </use>
               </g>
        </defs>

<script type="text/javascript">
var viewWidth = 1512;
var viewHeight = 590;
var sectionId = 'dynsection-15';
</script>
<script xlink:href="../../svgpan.js"/>
<svg id="graph" class="graph">
<g id="viewport">
<title>cellsociety_team01.parser.Parser.parseGrid</title>
<polygon fill="white" stroke="none" points="-4,4 -4,-586 1508,-586 1508,4 -4,4"/>
<!-- Node1 -->
<g id="node1" class="node"><title>Node1</title>
<polygon fill="#bfbfbf" stroke="black" points="0.5,-303 0.5,-333 145.5,-333 145.5,-303 0.5,-303"/>
<text text-anchor="start" x="8.5" y="-321" font-family="Helvetica,sans-Serif" font-size="10.00">cellsociety_team01.parser.</text>
<text text-anchor="middle" x="73" y="-310" font-family="Helvetica,sans-Serif" font-size="10.00">Parser.parseGrid</text>
</g>
<!-- Node2 -->
<g id="node2" class="node"><title>Node2</title>
<g id="a_node2"><a xlink:href="../../da/df7/classcellsociety__team01_1_1simulations_1_1_simulation.html#a73153098c54bbb1815b8130654e346fe" target="_top" xlink:title="cellsociety_team01.simulations.\lSimulation.getNumPossibleStates">
<polygon fill="white" stroke="black" points="182,-487 182,-517 362,-517 362,-487 182,-487"/>
<text text-anchor="start" x="190" y="-505" font-family="Helvetica,sans-Serif" font-size="10.00">cellsociety_team01.simulations.</text>
<text text-anchor="middle" x="272" y="-494" font-family="Helvetica,sans-Serif" font-size="10.00">Simulation.getNumPossibleStates</text>
</a>
</g>
</g>
<!-- Node1&#45;&gt;Node2 -->
<g id="edge1" class="edge"><title>Node1&#45;&gt;Node2</title>
<path fill="none" stroke="midnightblue" d="M80.5703,-333.096C94.6664,-363.759 130.745,-433.666 182,-472 187.439,-476.068 193.465,-479.607 199.742,-482.68"/>
<polygon fill="midnightblue" stroke="midnightblue" points="198.522,-485.969 209.08,-486.858 201.381,-479.579 198.522,-485.969"/>
</g>
<!-- Node3 -->
<g id="node3" class="node"><title>Node3</title>
<g id="a_node3"><a xlink:href="../../dc/df0/classcellsociety__team01_1_1exceptions_1_1_cell_location_exception.html#a6d301a5b4d341e73983230b582cec363" target="_top" xlink:title="cellsociety_team01.exceptions.\lCellLocationException.handleException">
<polygon fill="white" stroke="black" points="402.5,-552 402.5,-582 605.5,-582 605.5,-552 402.5,-552"/>
<text text-anchor="start" x="410.5" y="-570" font-family="Helvetica,sans-Serif" font-size="10.00">cellsociety_team01.exceptions.</text>
<text text-anchor="middle" x="504" y="-559" font-family="Helvetica,sans-Serif" font-size="10.00">CellLocationException.handleException</text>
</a>
</g>
</g>
<!-- Node1&#45;&gt;Node3 -->
<g id="edge2" class="edge"><title>Node1&#45;&gt;Node3</title>
<path fill="none" stroke="midnightblue" d="M83.1793,-333.28C99.5784,-359.172 136.491,-411.438 182,-438 252.778,-479.311 296.196,-429.155 362,-478 388.205,-497.452 371.942,-522.351 398,-542 400.5,-543.885 403.122,-545.631 405.837,-547.247"/>
<polygon fill="midnightblue" stroke="midnightblue" points="404.323,-550.406 414.8,-551.981 407.592,-544.216 404.323,-550.406"/>
</g>
<!-- Node4 -->
<g id="node4" class="node"><title>Node4</title>
<g id="a_node4"><a xlink:href="../../db/d40/classcellsociety__team01_1_1parser_1_1_parser.html#a0ed864ecdf8cf6ee778114ebe5c605ea" target="_top" xlink:title="cellsociety_team01.parser.\lParser.placeDistributedCells">
<polygon fill="white" stroke="black" points="197.5,-328 197.5,-358 346.5,-358 346.5,-328 197.5,-328"/>
<text text-anchor="start" x="205.5" y="-346" font-family="Helvetica,sans-Serif" font-size="10.00">cellsociety_team01.parser.</text>
<text text-anchor="middle" x="272" y="-335" font-family="Helvetica,sans-Serif" font-size="10.00">Parser.placeDistributedCells</text>
</a>
</g>
</g>
<!-- Node1&#45;&gt;Node4 -->
<g id="edge3" class="edge"><title>Node1&#45;&gt;Node4</title>
<path fill="none" stroke="midnightblue" d="M145.679,-327.096C159.223,-328.815 173.5,-330.627 187.375,-332.388"/>
<polygon fill="midnightblue" stroke="midnightblue" points="187.028,-335.872 197.39,-333.659 187.91,-328.927 187.028,-335.872"/>
</g>
<!-- Node17 -->
<g id="node17" class="node"><title>Node17</title>
<g id="a_node17"><a xlink:href="../../db/d40/classcellsociety__team01_1_1parser_1_1_parser.html#a6328c0a6b8dab4bc6d860e80739fadca" target="_top" xlink:title="cellsociety_team01.parser.\lParser.placeGivenCells">
<polygon fill="white" stroke="black" points="199.5,-399 199.5,-429 344.5,-429 344.5,-399 199.5,-399"/>
<text text-anchor="start" x="207.5" y="-417" font-family="Helvetica,sans-Serif" font-size="10.00">cellsociety_team01.parser.</text>
<text text-anchor="middle" x="272" y="-406" font-family="Helvetica,sans-Serif" font-size="10.00">Parser.placeGivenCells</text>
</a>
</g>
</g>
<!-- Node1&#45;&gt;Node17 -->
<g id="edge18" class="edge"><title>Node1&#45;&gt;Node17</title>
<path fill="none" stroke="midnightblue" d="M105.215,-333.211C139.221,-349.783 193.722,-376.342 230.88,-394.449"/>
<polygon fill="midnightblue" stroke="midnightblue" points="229.408,-397.625 239.931,-398.86 232.475,-391.333 229.408,-397.625"/>
</g>
<!-- Node19 -->
<g id="node19" class="node"><title>Node19</title>
<g id="a_node19"><a xlink:href="../../db/d40/classcellsociety__team01_1_1parser_1_1_parser.html#aaaea4078e4a144cf51ab40a295f4f396" target="_top" xlink:title="cellsociety_team01.parser.\lParser.placeRandomCells">
<polygon fill="white" stroke="black" points="199.5,-279 199.5,-309 344.5,-309 344.5,-279 199.5,-279"/>
<text text-anchor="start" x="207.5" y="-297" font-family="Helvetica,sans-Serif" font-size="10.00">cellsociety_team01.parser.</text>
<text text-anchor="middle" x="272" y="-286" font-family="Helvetica,sans-Serif" font-size="10.00">Parser.placeRandomCells</text>
</a>
</g>
</g>
<!-- Node1&#45;&gt;Node19 -->
<g id="edge25" class="edge"><title>Node1&#45;&gt;Node19</title>
<path fill="none" stroke="midnightblue" d="M145.679,-309.268C159.891,-307.536 174.91,-305.706 189.424,-303.938"/>
<polygon fill="midnightblue" stroke="midnightblue" points="189.871,-307.41 199.375,-302.726 189.025,-300.461 189.871,-307.41"/>
</g>
<!-- Node20 -->
<g id="node20" class="node"><title>Node20</title>
<g id="a_node20"><a xlink:href="../../d2/d8b/classcellsociety__team01_1_1modelview_1_1_grid.html#a5ef5ff3a343f1c3ab0d043de6c0bc450" target="_top" xlink:title="cellsociety_team01.modelview.\lGrid.setBounds">
<polygon fill="white" stroke="black" points="655,-235 655,-265 819,-265 819,-235 655,-235"/>
<text text-anchor="start" x="663" y="-253" font-family="Helvetica,sans-Serif" font-size="10.00">cellsociety_team01.modelview.</text>
<text text-anchor="middle" x="737" y="-242" font-family="Helvetica,sans-Serif" font-size="10.00">Grid.setBounds</text>
</a>
</g>
</g>
<!-- Node1&#45;&gt;Node20 -->
<g id="edge27" class="edge"><title>Node1&#45;&gt;Node20</title>
<path fill="none" stroke="midnightblue" d="M100.082,-302.999C121.364,-291.611 152.613,-276.793 182,-270 341.586,-233.113 533.829,-236.431 644.779,-242.801"/>
<polygon fill="midnightblue" stroke="midnightblue" points="644.739,-246.305 654.929,-243.405 645.155,-239.317 644.739,-246.305"/>
</g>
<!-- Node21 -->
<g id="node21" class="node"><title>Node21</title>
<g id="a_node21"><a xlink:href="../../d2/d8b/classcellsociety__team01_1_1modelview_1_1_grid.html#a959c40c0688692c45eb4677c4ad9e313" target="_top" xlink:title="cellsociety_team01.modelview.\lGrid.setNeighbors">
<polygon fill="white" stroke="black" points="190,-191 190,-221 354,-221 354,-191 190,-191"/>
<text text-anchor="start" x="198" y="-209" font-family="Helvetica,sans-Serif" font-size="10.00">cellsociety_team01.modelview.</text>
<text text-anchor="middle" x="272" y="-198" font-family="Helvetica,sans-Serif" font-size="10.00">Grid.setNeighbors</text>
</a>
</g>
</g>
<!-- Node1&#45;&gt;Node21 -->
<g id="edge30" class="edge"><title>Node1&#45;&gt;Node21</title>
<path fill="none" stroke="midnightblue" d="M90.4029,-302.8C110.614,-284.75 146.636,-254.738 182,-236 190.041,-231.739 198.807,-227.91 207.598,-224.527"/>
<polygon fill="midnightblue" stroke="midnightblue" points="208.935,-227.765 217.115,-221.032 206.522,-221.194 208.935,-227.765"/>
</g>
<!-- Node30 -->
<g id="node30" class="node"><title>Node30</title>
<g id="a_node30"><a xlink:href="../../d2/d8b/classcellsociety__team01_1_1modelview_1_1_grid.html#a39ab2f0f079521cd92b8a63d34fcd174" target="_top" xlink:title="cellsociety_team01.modelview.\lGrid.updateGrid">
<polygon fill="white" stroke="black" points="190,-142 190,-172 354,-172 354,-142 190,-142"/>
<text text-anchor="start" x="198" y="-160" font-family="Helvetica,sans-Serif" font-size="10.00">cellsociety_team01.modelview.</text>
<text text-anchor="middle" x="272" y="-149" font-family="Helvetica,sans-Serif" font-size="10.00">Grid.updateGrid</text>
</a>
</g>
</g>
<!-- Node1&#45;&gt;Node30 -->
<g id="edge39" class="edge"><title>Node1&#45;&gt;Node30</title>
<path fill="none" stroke="midnightblue" d="M81.8363,-302.759C97.1467,-274.525 133.793,-214.05 182,-182 184.963,-180.03 188.081,-178.213 191.304,-176.539"/>
<polygon fill="midnightblue" stroke="midnightblue" points="193.045,-179.588 200.625,-172.186 190.083,-173.246 193.045,-179.588"/>
</g>
<!-- Node5 -->
<g id="node5" class="node"><title>Node5</title>
<g id="a_node5"><a xlink:href="../../db/d40/classcellsociety__team01_1_1parser_1_1_parser.html#a73fd995ca8e1f9fdd1f07f60f1a3c45d" target="_top" xlink:title="cellsociety_team01.parser.\lParser.getTextValue">
<polygon fill="white" stroke="black" points="431.5,-328 431.5,-358 576.5,-358 576.5,-328 431.5,-328"/>
<text text-anchor="start" x="439.5" y="-346" font-family="Helvetica,sans-Serif" font-size="10.00">cellsociety_team01.parser.</text>
<text text-anchor="middle" x="504" y="-335" font-family="Helvetica,sans-Serif" font-size="10.00">Parser.getTextValue</text>
</a>
</g>
</g>
<!-- Node4&#45;&gt;Node5 -->
<g id="edge4" class="edge"><title>Node4&#45;&gt;Node5</title>
<path fill="none" stroke="midnightblue" d="M346.722,-343C370.406,-343 396.783,-343 421.022,-343"/>
<polygon fill="midnightblue" stroke="midnightblue" points="421.265,-346.5 431.265,-343 421.265,-339.5 421.265,-346.5"/>
</g>
<!-- Node6 -->
<g id="node6" class="node"><title>Node6</title>
<g id="a_node6"><a xlink:href="../../d7/db9/classcellsociety__team01_1_1exceptions_1_1_element_value_exception.html#a43c39c1bb5e3254025a34f927500de7a" target="_top" xlink:title="cellsociety_team01.exceptions.\lElementValueException.handleException">
<polygon fill="white" stroke="black" points="398.5,-377 398.5,-407 609.5,-407 609.5,-377 398.5,-377"/>
<text text-anchor="start" x="406.5" y="-395" font-family="Helvetica,sans-Serif" font-size="10.00">cellsociety_team01.exceptions.</text>
<text text-anchor="middle" x="504" y="-384" font-family="Helvetica,sans-Serif" font-size="10.00">ElementValueException.handleException</text>
</a>
</g>
</g>
<!-- Node4&#45;&gt;Node6 -->
<g id="edge5" class="edge"><title>Node4&#45;&gt;Node6</title>
<path fill="none" stroke="midnightblue" d="M343.571,-358.035C368.518,-363.349 396.761,-369.367 422.472,-374.844"/>
<polygon fill="midnightblue" stroke="midnightblue" points="422.053,-378.333 432.563,-376.994 423.512,-371.487 422.053,-378.333"/>
</g>
<!-- Node8 -->
<g id="node8" class="node"><title>Node8</title>
<g id="a_node8"><a xlink:href="../../db/d40/classcellsociety__team01_1_1parser_1_1_parser.html#aaf8f8745b89e52aee75fa2920608bbac" target="_top" xlink:title="cellsociety_team01.parser.\lParser.fillMap">
<polygon fill="white" stroke="black" points="431.5,-279 431.5,-309 576.5,-309 576.5,-279 431.5,-279"/>
<text text-anchor="start" x="439.5" y="-297" font-family="Helvetica,sans-Serif" font-size="10.00">cellsociety_team01.parser.</text>
<text text-anchor="middle" x="504" y="-286" font-family="Helvetica,sans-Serif" font-size="10.00">Parser.fillMap</text>
</a>
</g>
</g>
<!-- Node4&#45;&gt;Node8 -->
<g id="edge7" class="edge"><title>Node4&#45;&gt;Node8</title>
<path fill="none" stroke="midnightblue" d="M343.571,-327.965C368.518,-322.651 396.761,-316.633 422.472,-311.156"/>
<polygon fill="midnightblue" stroke="midnightblue" points="423.512,-314.513 432.563,-309.006 422.053,-307.667 423.512,-314.513"/>
</g>
<!-- Node7 -->
<g id="node7" class="node"><title>Node7</title>
<g id="a_node7"><a xlink:href="../../d7/db9/classcellsociety__team01_1_1exceptions_1_1_element_value_exception.html#a2c28f38c3ff86841b1390ad7a911f28d" target="_top" xlink:title="cellsociety_team01.exceptions.\lElementValueException.getTag">
<polygon fill="white" stroke="black" points="653.5,-421 653.5,-451 820.5,-451 820.5,-421 653.5,-421"/>
<text text-anchor="start" x="661.5" y="-439" font-family="Helvetica,sans-Serif" font-size="10.00">cellsociety_team01.exceptions.</text>
<text text-anchor="middle" x="737" y="-428" font-family="Helvetica,sans-Serif" font-size="10.00">ElementValueException.getTag</text>
</a>
</g>
</g>
<!-- Node6&#45;&gt;Node7 -->
<g id="edge6" class="edge"><title>Node6&#45;&gt;Node7</title>
<path fill="none" stroke="midnightblue" d="M583.851,-407.019C604.181,-410.892 626.201,-415.086 647.008,-419.049"/>
<polygon fill="midnightblue" stroke="midnightblue" points="646.634,-422.541 657.112,-420.974 647.944,-415.664 646.634,-422.541"/>
</g>
<!-- Node9 -->
<g id="node9" class="node"><title>Node9</title>
<g id="a_node9"><a xlink:href="../../db/d40/classcellsociety__team01_1_1parser_1_1_parser.html#a13ce7871e46a22a59e23540c9b83ef01" target="_top" xlink:title="cellsociety_team01.parser.\lParser.addCell">
<polygon fill="white" stroke="black" points="664.5,-284 664.5,-314 809.5,-314 809.5,-284 664.5,-284"/>
<text text-anchor="start" x="672.5" y="-302" font-family="Helvetica,sans-Serif" font-size="10.00">cellsociety_team01.parser.</text>
<text text-anchor="middle" x="737" y="-291" font-family="Helvetica,sans-Serif" font-size="10.00">Parser.addCell</text>
</a>
</g>
</g>
<!-- Node8&#45;&gt;Node9 -->
<g id="edge8" class="edge"><title>Node8&#45;&gt;Node9</title>
<path fill="none" stroke="midnightblue" d="M576.508,-295.548C601.081,-296.08 628.777,-296.679 654.11,-297.227"/>
<polygon fill="midnightblue" stroke="midnightblue" points="654.359,-300.734 664.432,-297.451 654.51,-293.735 654.359,-300.734"/>
</g>
<!-- Node10 -->
<g id="node10" class="node"><title>Node10</title>
<g id="a_node10"><a xlink:href="../../d8/d80/classcellsociety__team01_1_1_pair.html#a1a97e852278e185e3e50f37c826b12e8" target="_top" xlink:title="cellsociety_team01.Pair.getX">
<polygon fill="white" stroke="black" points="897.5,-240.5 897.5,-259.5 1050.5,-259.5 1050.5,-240.5 897.5,-240.5"/>
<text text-anchor="middle" x="974" y="-247.5" font-family="Helvetica,sans-Serif" font-size="10.00">cellsociety_team01.Pair.getX</text>
</a>
</g>
</g>
<!-- Node8&#45;&gt;Node10 -->
<g id="edge16" class="edge"><title>Node8&#45;&gt;Node10</title>
<path fill="none" stroke="midnightblue" d="M528.233,-278.725C555.233,-261.968 601.755,-236.112 646,-226 744.238,-203.549 862.981,-223.625 926.892,-238.148"/>
<polygon fill="midnightblue" stroke="midnightblue" points="926.133,-241.565 936.666,-240.424 927.721,-234.747 926.133,-241.565"/>
</g>
<!-- Node11 -->
<g id="node11" class="node"><title>Node11</title>
<g id="a_node11"><a xlink:href="../../d8/d80/classcellsociety__team01_1_1_pair.html#a8bf4fdfd4efdf9e3b37eb69706b3b952" target="_top" xlink:title="cellsociety_team01.Pair.getY">
<polygon fill="white" stroke="black" points="898,-289.5 898,-308.5 1050,-308.5 1050,-289.5 898,-289.5"/>
<text text-anchor="middle" x="974" y="-296.5" font-family="Helvetica,sans-Serif" font-size="10.00">cellsociety_team01.Pair.getY</text>
</a>
</g>
</g>
<!-- Node8&#45;&gt;Node11 -->
<g id="edge17" class="edge"><title>Node8&#45;&gt;Node11</title>
<path fill="none" stroke="midnightblue" d="M564.619,-309.054C589.586,-314.627 619.024,-320.255 646,-323 726.473,-331.19 747.383,-329.627 828,-323 857.653,-320.563 890.375,-315.366 917.219,-310.43"/>
<polygon fill="midnightblue" stroke="midnightblue" points="918.018,-313.842 927.201,-308.558 916.727,-306.962 918.018,-313.842"/>
</g>
<!-- Node12 -->
<g id="node12" class="node"><title>Node12</title>
<g id="a_node12"><a xlink:href="../../db/d40/classcellsociety__team01_1_1parser_1_1_parser.html#a5ffbb8ad89f8a4a661d2204b837a070a" target="_top" xlink:title="cellsociety_team01.parser.\lParser.getState">
<polygon fill="white" stroke="black" points="664.5,-372 664.5,-402 809.5,-402 809.5,-372 664.5,-372"/>
<text text-anchor="start" x="672.5" y="-390" font-family="Helvetica,sans-Serif" font-size="10.00">cellsociety_team01.parser.</text>
<text text-anchor="middle" x="737" y="-379" font-family="Helvetica,sans-Serif" font-size="10.00">Parser.getState</text>
</a>
</g>
</g>
<!-- Node8&#45;&gt;Node12 -->
<g id="edge11" class="edge"><title>Node8&#45;&gt;Node12</title>
<path fill="none" stroke="midnightblue" d="M576.615,-305.147C588.221,-308.594 599.773,-313.103 610,-319 630.154,-330.622 626.377,-344.503 646,-357 652.642,-361.23 659.943,-364.927 667.424,-368.141"/>
<polygon fill="midnightblue" stroke="midnightblue" points="666.376,-371.492 676.961,-371.959 668.978,-364.993 666.376,-371.492"/>
</g>
<!-- Node9&#45;&gt;Node10 -->
<g id="edge9" class="edge"><title>Node9&#45;&gt;Node10</title>
<path fill="none" stroke="midnightblue" d="M809.785,-284.032C844.253,-276.845 884.94,-268.361 917.068,-261.662"/>
<polygon fill="midnightblue" stroke="midnightblue" points="918.105,-265.022 927.18,-259.554 916.676,-258.169 918.105,-265.022"/>
</g>
<!-- Node9&#45;&gt;Node11 -->
<g id="edge10" class="edge"><title>Node9&#45;&gt;Node11</title>
<path fill="none" stroke="midnightblue" d="M809.785,-299C834.451,-299 862.302,-299 887.921,-299"/>
<polygon fill="midnightblue" stroke="midnightblue" points="887.993,-302.5 897.993,-299 887.993,-295.5 887.993,-302.5"/>
</g>
<!-- Node13 -->
<g id="node13" class="node"><title>Node13</title>
<g id="a_node13"><a xlink:href="../../da/df7/classcellsociety__team01_1_1simulations_1_1_simulation.html#af6dd9ee9d5ef64a7f1526fddb9e2ad69" target="_top" xlink:title="cellsociety_team01.simulations.\lSimulation.findState">
<polygon fill="white" stroke="black" points="889,-372 889,-402 1059,-402 1059,-372 889,-372"/>
<text text-anchor="start" x="897" y="-390" font-family="Helvetica,sans-Serif" font-size="10.00">cellsociety_team01.simulations.</text>
<text text-anchor="middle" x="974" y="-379" font-family="Helvetica,sans-Serif" font-size="10.00">Simulation.findState</text>
</a>
</g>
</g>
<!-- Node12&#45;&gt;Node13 -->
<g id="edge12" class="edge"><title>Node12&#45;&gt;Node13</title>
<path fill="none" stroke="midnightblue" d="M809.785,-387C831.537,-387 855.765,-387 878.757,-387"/>
<polygon fill="midnightblue" stroke="midnightblue" points="878.87,-390.5 888.87,-387 878.87,-383.5 878.87,-390.5"/>
</g>
<!-- Node14 -->
<g id="node14" class="node"><title>Node14</title>
<g id="a_node14"><a xlink:href="../../d2/d65/classcellsociety__team01_1_1_cell_state_1_1_state.html#a1d275a76d7d39ec3662c4d6da0e4daed" target="_top" xlink:title="cellsociety_team01.CellState.\lState.newInstanceOf">
<polygon fill="white" stroke="black" points="1136,-397 1136,-427 1294,-427 1294,-397 1136,-397"/>
<text text-anchor="start" x="1144" y="-415" font-family="Helvetica,sans-Serif" font-size="10.00">cellsociety_team01.CellState.</text>
<text text-anchor="middle" x="1215" y="-404" font-family="Helvetica,sans-Serif" font-size="10.00">State.newInstanceOf</text>
</a>
</g>
</g>
<!-- Node13&#45;&gt;Node14 -->
<g id="edge13" class="edge"><title>Node13&#45;&gt;Node14</title>
<path fill="none" stroke="midnightblue" d="M1059.26,-395.814C1080.73,-398.059 1103.86,-400.479 1125.52,-402.745"/>
<polygon fill="midnightblue" stroke="midnightblue" points="1125.38,-406.25 1135.69,-403.809 1126.11,-399.288 1125.38,-406.25"/>
</g>
<!-- Node16 -->
<g id="node16" class="node"><title>Node16</title>
<g id="a_node16"><a xlink:href="../../d2/deb/classcellsociety__team01_1_1exceptions_1_1_bad_state_exception.html#a71e67bc47464bf366a521d779fba0dba" target="_top" xlink:title="cellsociety_team01.exceptions.\lBadStateException.handleException">
<polygon fill="white" stroke="black" points="1120,-348 1120,-378 1310,-378 1310,-348 1120,-348"/>
<text text-anchor="start" x="1128" y="-366" font-family="Helvetica,sans-Serif" font-size="10.00">cellsociety_team01.exceptions.</text>
<text text-anchor="middle" x="1215" y="-355" font-family="Helvetica,sans-Serif" font-size="10.00">BadStateException.handleException</text>
</a>
</g>
</g>
<!-- Node13&#45;&gt;Node16 -->
<g id="edge15" class="edge"><title>Node13&#45;&gt;Node16</title>
<path fill="none" stroke="midnightblue" d="M1059.26,-378.538C1075.51,-376.907 1092.72,-375.179 1109.52,-373.492"/>
<polygon fill="midnightblue" stroke="midnightblue" points="1110.31,-376.93 1119.91,-372.448 1109.61,-369.965 1110.31,-376.93"/>
</g>
<!-- Node15 -->
<g id="node15" class="node"><title>Node15</title>
<g id="a_node15"><a xlink:href="../../d2/d65/classcellsociety__team01_1_1_cell_state_1_1_state.html#ab47312e71cd79169d18859cdc427b594" target="_top" xlink:title="cellsociety_team01.CellState.\lState.State">
<polygon fill="white" stroke="black" points="1346,-397 1346,-427 1504,-427 1504,-397 1346,-397"/>
<text text-anchor="start" x="1354" y="-415" font-family="Helvetica,sans-Serif" font-size="10.00">cellsociety_team01.CellState.</text>
<text text-anchor="middle" x="1425" y="-404" font-family="Helvetica,sans-Serif" font-size="10.00">State.State</text>
</a>
</g>
</g>
<!-- Node14&#45;&gt;Node15 -->
<g id="edge14" class="edge"><title>Node14&#45;&gt;Node15</title>
<path fill="none" stroke="midnightblue" d="M1294.04,-412C1307.68,-412 1321.95,-412 1335.84,-412"/>
<polygon fill="midnightblue" stroke="midnightblue" points="1335.87,-415.5 1345.87,-412 1335.87,-408.5 1335.87,-415.5"/>
</g>
<!-- Node17&#45;&gt;Node3 -->
<g id="edge22" class="edge"><title>Node17&#45;&gt;Node3</title>
<path fill="none" stroke="midnightblue" d="M340.006,-429.087C348.083,-432.973 355.691,-437.858 362,-444 395.249,-476.366 363.307,-511.186 398,-542 399.764,-543.567 401.609,-545.041 403.523,-546.426"/>
<polygon fill="midnightblue" stroke="midnightblue" points="401.982,-549.592 412.311,-551.951 405.708,-543.665 401.982,-549.592"/>
</g>
<!-- Node17&#45;&gt;Node5 -->
<g id="edge19" class="edge"><title>Node17&#45;&gt;Node5</title>
<path fill="none" stroke="midnightblue" d="M310.348,-398.931C334.987,-389.321 368.114,-377.022 398,-368 406.629,-365.395 415.722,-362.886 424.801,-360.53"/>
<polygon fill="midnightblue" stroke="midnightblue" points="425.793,-363.889 434.624,-358.035 424.07,-357.105 425.793,-363.889"/>
</g>
<!-- Node17&#45;&gt;Node6 -->
<g id="edge20" class="edge"><title>Node17&#45;&gt;Node6</title>
<path fill="none" stroke="midnightblue" d="M344.513,-407.16C358.334,-405.838 373.139,-404.422 387.944,-403.005"/>
<polygon fill="midnightblue" stroke="midnightblue" points="388.561,-406.462 398.182,-402.026 387.895,-399.494 388.561,-406.462"/>
</g>
<!-- Node17&#45;&gt;Node9 -->
<g id="edge23" class="edge"><title>Node17&#45;&gt;Node9</title>
<path fill="none" stroke="midnightblue" d="M326.287,-429.008C395.971,-445.496 519.776,-463.785 610,-416 635.164,-402.672 626.082,-383.35 646,-363 662.217,-346.431 683.194,-331.236 700.816,-319.813"/>
<polygon fill="midnightblue" stroke="midnightblue" points="703.108,-322.504 709.682,-314.196 699.362,-316.591 703.108,-322.504"/>
</g>
<!-- Node17&#45;&gt;Node12 -->
<g id="edge24" class="edge"><title>Node17&#45;&gt;Node12</title>
<path fill="none" stroke="midnightblue" d="M314.315,-429.064C338.371,-437.031 369.489,-445.976 398,-450 491.298,-463.167 523.445,-487.23 610,-450 631.371,-440.808 626.066,-423.995 646,-412 649.595,-409.837 653.383,-407.855 657.288,-406.041"/>
<polygon fill="midnightblue" stroke="midnightblue" points="658.735,-409.229 666.577,-402.104 656.004,-402.784 658.735,-409.229"/>
</g>
<!-- Node18 -->
<g id="node18" class="node"><title>Node18</title>
<g id="a_node18"><a xlink:href="../../db/d40/classcellsociety__team01_1_1parser_1_1_parser.html#ad2a65264b8f9ce1f9f05c553ed3ff75d" target="_top" xlink:title="cellsociety_team01.parser.\lParser.checkLocation">
<polygon fill="white" stroke="black" points="431.5,-503 431.5,-533 576.5,-533 576.5,-503 431.5,-503"/>
<text text-anchor="start" x="439.5" y="-521" font-family="Helvetica,sans-Serif" font-size="10.00">cellsociety_team01.parser.</text>
<text text-anchor="middle" x="504" y="-510" font-family="Helvetica,sans-Serif" font-size="10.00">Parser.checkLocation</text>
</a>
</g>
</g>
<!-- Node17&#45;&gt;Node18 -->
<g id="edge21" class="edge"><title>Node17&#45;&gt;Node18</title>
<path fill="none" stroke="midnightblue" d="M333.144,-429.112C343.255,-433.07 353.283,-437.971 362,-444 382.781,-458.373 376.888,-474.118 398,-488 405.308,-492.806 413.393,-496.854 421.736,-500.261"/>
<polygon fill="midnightblue" stroke="midnightblue" points="420.647,-503.591 431.239,-503.842 423.115,-497.04 420.647,-503.591"/>
</g>
<!-- Node19&#45;&gt;Node8 -->
<g id="edge26" class="edge"><title>Node19&#45;&gt;Node8</title>
<path fill="none" stroke="midnightblue" d="M344.513,-294C368.736,-294 395.978,-294 420.955,-294"/>
<polygon fill="midnightblue" stroke="midnightblue" points="421.136,-297.5 431.136,-294 421.136,-290.5 421.136,-297.5"/>
</g>
<!-- Node20&#45;&gt;Node10 -->
<g id="edge28" class="edge"><title>Node20&#45;&gt;Node10</title>
<path fill="none" stroke="midnightblue" d="M819.203,-250C841.177,-250 865.029,-250 887.244,-250"/>
<polygon fill="midnightblue" stroke="midnightblue" points="887.324,-253.5 897.324,-250 887.324,-246.5 887.324,-253.5"/>
</g>
<!-- Node20&#45;&gt;Node11 -->
<g id="edge29" class="edge"><title>Node20&#45;&gt;Node11</title>
<path fill="none" stroke="midnightblue" d="M810.105,-265.035C844.559,-272.219 885.166,-280.686 917.218,-287.369"/>
<polygon fill="midnightblue" stroke="midnightblue" points="916.801,-290.857 927.305,-289.472 918.23,-284.004 916.801,-290.857"/>
</g>
<!-- Node22 -->
<g id="node22" class="node"><title>Node22</title>
<g id="a_node22"><a xlink:href="../../d7/de1/classcellsociety__team01_1_1modelview_1_1_grid_model.html#a50a93468046d735bbc41c59ee14df150" target="_top" xlink:title="cellsociety_team01.modelview.\lGridModel.setNeighbors">
<polygon fill="white" stroke="black" points="422,-98 422,-128 586,-128 586,-98 422,-98"/>
<text text-anchor="start" x="430" y="-116" font-family="Helvetica,sans-Serif" font-size="10.00">cellsociety_team01.modelview.</text>
<text text-anchor="middle" x="504" y="-105" font-family="Helvetica,sans-Serif" font-size="10.00">GridModel.setNeighbors</text>
</a>
</g>
</g>
<!-- Node21&#45;&gt;Node22 -->
<g id="edge31" class="edge"><title>Node21&#45;&gt;Node22</title>
<path fill="none" stroke="midnightblue" d="M332.357,-190.896C342.35,-187.908 352.543,-184.577 362,-181 398.541,-167.179 438.503,-147.439 466.523,-132.785"/>
<polygon fill="midnightblue" stroke="midnightblue" points="468.333,-135.787 475.545,-128.026 465.067,-129.595 468.333,-135.787"/>
</g>
<!-- Node23 -->
<g id="node23" class="node"><title>Node23</title>
<g id="a_node23"><a xlink:href="../../d7/de1/classcellsociety__team01_1_1modelview_1_1_grid_model.html#a87b600f8e19542b7210757866313fb8d" target="_top" xlink:title="cellsociety_team01.modelview.\lGridModel.getAllPossibleNeighbors">
<polygon fill="white" stroke="black" points="646,-49 646,-79 828,-79 828,-49 646,-49"/>
<text text-anchor="start" x="654" y="-67" font-family="Helvetica,sans-Serif" font-size="10.00">cellsociety_team01.modelview.</text>
<text text-anchor="middle" x="737" y="-56" font-family="Helvetica,sans-Serif" font-size="10.00">GridModel.getAllPossibleNeighbors</text>
</a>
</g>
</g>
<!-- Node22&#45;&gt;Node23 -->
<g id="edge32" class="edge"><title>Node22&#45;&gt;Node23</title>
<path fill="none" stroke="midnightblue" d="M575.877,-97.9654C601.044,-92.627 629.55,-86.5802 655.464,-81.0834"/>
<polygon fill="midnightblue" stroke="midnightblue" points="656.201,-84.5051 665.257,-79.0062 654.748,-77.6575 656.201,-84.5051"/>
</g>
<!-- Node26 -->
<g id="node26" class="node"><title>Node26</title>
<g id="a_node26"><a xlink:href="../../d7/de1/classcellsociety__team01_1_1modelview_1_1_grid_model.html#a4494649ae57d4b652939946a28f5754a" target="_top" xlink:title="cellsociety_team01.modelview.\lGridModel.getCardinalNeighbors">
<polygon fill="white" stroke="black" points="651.5,-0 651.5,-30 822.5,-30 822.5,-0 651.5,-0"/>
<text text-anchor="start" x="659.5" y="-18" font-family="Helvetica,sans-Serif" font-size="10.00">cellsociety_team01.modelview.</text>
<text text-anchor="middle" x="737" y="-7" font-family="Helvetica,sans-Serif" font-size="10.00">GridModel.getCardinalNeighbors</text>
</a>
</g>
</g>
<!-- Node22&#45;&gt;Node26 -->
<g id="edge35" class="edge"><title>Node22&#45;&gt;Node26</title>
<path fill="none" stroke="midnightblue" d="M529.674,-97.8805C557.214,-81.5273 603.504,-55.5783 646,-39 651.405,-36.8916 657.062,-34.9028 662.795,-33.0414"/>
<polygon fill="midnightblue" stroke="midnightblue" points="663.973,-36.3407 672.483,-30.0307 661.895,-29.656 663.973,-36.3407"/>
</g>
<!-- Node27 -->
<g id="node27" class="node"><title>Node27</title>
<g id="a_node27"><a xlink:href="../../da/df7/classcellsociety__team01_1_1simulations_1_1_simulation.html#a851f60d3af023c3c79686a3fb0bf3e0d" target="_top" xlink:title="cellsociety_team01.simulations.\lSimulation.getNeighborType">
<polygon fill="white" stroke="black" points="652,-147 652,-177 822,-177 822,-147 652,-147"/>
<text text-anchor="start" x="660" y="-165" font-family="Helvetica,sans-Serif" font-size="10.00">cellsociety_team01.simulations.</text>
<text text-anchor="middle" x="737" y="-154" font-family="Helvetica,sans-Serif" font-size="10.00">Simulation.getNeighborType</text>
</a>
</g>
</g>
<!-- Node22&#45;&gt;Node27 -->
<g id="edge36" class="edge"><title>Node22&#45;&gt;Node27</title>
<path fill="none" stroke="midnightblue" d="M575.877,-128.035C601.044,-133.373 629.55,-139.42 655.464,-144.917"/>
<polygon fill="midnightblue" stroke="midnightblue" points="654.748,-148.343 665.257,-146.994 656.201,-141.495 654.748,-148.343"/>
</g>
<!-- Node28 -->
<g id="node28" class="node"><title>Node28</title>
<g id="a_node28"><a xlink:href="../../d7/de1/classcellsociety__team01_1_1modelview_1_1_grid_model.html#a5eaf505d5ea180f419030aaf7b0fb645" target="_top" xlink:title="cellsociety_team01.modelview.\lGridModel.verifyNeighbors">
<polygon fill="white" stroke="black" points="655,-98 655,-128 819,-128 819,-98 655,-98"/>
<text text-anchor="start" x="663" y="-116" font-family="Helvetica,sans-Serif" font-size="10.00">cellsociety_team01.modelview.</text>
<text text-anchor="middle" x="737" y="-105" font-family="Helvetica,sans-Serif" font-size="10.00">GridModel.verifyNeighbors</text>
</a>
</g>
</g>
<!-- Node22&#45;&gt;Node28 -->
<g id="edge37" class="edge"><title>Node22&#45;&gt;Node28</title>
<path fill="none" stroke="midnightblue" d="M586.117,-113C605.047,-113 625.334,-113 644.673,-113"/>
<polygon fill="midnightblue" stroke="midnightblue" points="644.688,-116.5 654.688,-113 644.688,-109.5 644.688,-116.5"/>
</g>
<!-- Node24 -->
<g id="node24" class="node"><title>Node24</title>
<g id="a_node24"><a xlink:href="../../d2/d25/classcellsociety__team01_1_1_cell_state_1_1_cell.html#a03047fd6184158748f1b354520d8811f" target="_top" xlink:title="cellsociety_team01.CellState.\lCell.getX">
<polygon fill="white" stroke="black" points="895,-49 895,-79 1053,-79 1053,-49 895,-49"/>
<text text-anchor="start" x="903" y="-67" font-family="Helvetica,sans-Serif" font-size="10.00">cellsociety_team01.CellState.</text>
<text text-anchor="middle" x="974" y="-56" font-family="Helvetica,sans-Serif" font-size="10.00">Cell.getX</text>
</a>
</g>
</g>
<!-- Node23&#45;&gt;Node24 -->
<g id="edge33" class="edge"><title>Node23&#45;&gt;Node24</title>
<path fill="none" stroke="midnightblue" d="M828.185,-64C846.751,-64 866.28,-64 884.776,-64"/>
<polygon fill="midnightblue" stroke="midnightblue" points="884.932,-67.5001 894.932,-64 884.932,-60.5001 884.932,-67.5001"/>
</g>
<!-- Node25 -->
<g id="node25" class="node"><title>Node25</title>
<g id="a_node25"><a xlink:href="../../d2/d25/classcellsociety__team01_1_1_cell_state_1_1_cell.html#ad1f154c2a9a8d34c8e60bdd53df5a70f" target="_top" xlink:title="cellsociety_team01.CellState.\lCell.getY">
<polygon fill="white" stroke="black" points="895,-0 895,-30 1053,-30 1053,-0 895,-0"/>
<text text-anchor="start" x="903" y="-18" font-family="Helvetica,sans-Serif" font-size="10.00">cellsociety_team01.CellState.</text>
<text text-anchor="middle" x="974" y="-7" font-family="Helvetica,sans-Serif" font-size="10.00">Cell.getY</text>
</a>
</g>
</g>
<!-- Node23&#45;&gt;Node25 -->
<g id="edge34" class="edge"><title>Node23&#45;&gt;Node25</title>
<path fill="none" stroke="midnightblue" d="M810.105,-48.9654C835.707,-43.627 864.707,-37.5802 891.07,-32.0834"/>
<polygon fill="midnightblue" stroke="midnightblue" points="891.957,-35.4738 901.032,-30.0062 890.528,-28.6212 891.957,-35.4738"/>
</g>
<!-- Node29 -->
<g id="node29" class="node"><title>Node29</title>
<g id="a_node29"><a xlink:href="../../d4/df6/classcellsociety__team01_1_1modelview_1_1_refine_neighbors_algorithm.html#a002765eca147ba01744b600a47713858" target="_top" xlink:title="cellsociety_team01.modelview.\lRefineNeighborsAlgorithm.refineNeighbors">
<polygon fill="white" stroke="black" points="864.5,-98 864.5,-128 1083.5,-128 1083.5,-98 864.5,-98"/>
<text text-anchor="start" x="872.5" y="-116" font-family="Helvetica,sans-Serif" font-size="10.00">cellsociety_team01.modelview.</text>
<text text-anchor="middle" x="974" y="-105" font-family="Helvetica,sans-Serif" font-size="10.00">RefineNeighborsAlgorithm.refineNeighbors</text>
</a>
</g>
</g>
<!-- Node28&#45;&gt;Node29 -->
<g id="edge38" class="edge"><title>Node28&#45;&gt;Node29</title>
<path fill="none" stroke="midnightblue" d="M819.203,-113C830.604,-113 842.511,-113 854.432,-113"/>
<polygon fill="midnightblue" stroke="midnightblue" points="854.439,-116.5 864.438,-113 854.438,-109.5 854.439,-116.5"/>
</g>
</g>
</svg>
        <g id="navigator" transform="translate(0 0)" fill="#404254">
                <rect fill="#f2f5e9" fill-opacity="0.5" stroke="#606060" stroke-width=".5" x="0" y="0" width="60" height="60"/>
                <use id="zoomplus" xlink:href="#zoomPlus" x="17" y="9" onmousedown="handleZoom(evt,'in')"/>
                <use id="zoomminus" xlink:href="#zoomMin" x="42" y="9" onmousedown="handleZoom(evt,'out')"/>
                <use id="reset" xlink:href="#resetDef" x="30" y="36" onmousedown="handleReset()"/>
                <g id="arrowUp" xlink:href="#dirArrow" transform="translate(30 24)" onmousedown="handlePan(0,-1)">
                  <use xlink:href="#rim" fill="#404040">
                        <set attributeName="fill" to="#808080" begin="arrowUp.mouseover" end="arrowUp.mouseout"/>
                  </use>
                  <path fill="none" stroke="white" stroke-width="1.5" d="M0,-3.0v7 M-2.5,-0.5L0,-3.0L2.5,-0.5"/>
                </g>
                <g id="arrowRight" xlink:href="#dirArrow" transform="rotate(90) translate(36 -43)" onmousedown="handlePan(1,0)">
                  <use xlink:href="#rim" fill="#404040">
                        <set attributeName="fill" to="#808080" begin="arrowRight.mouseover" end="arrowRight.mouseout"/>
                  </use>
                  <path fill="none" stroke="white" stroke-width="1.5" d="M0,-3.0v7 M-2.5,-0.5L0,-3.0L2.5,-0.5"/>
                </g>
                <g id="arrowDown" xlink:href="#dirArrow" transform="rotate(180) translate(-30 -48)" onmousedown="handlePan(0,1)">
                  <use xlink:href="#rim" fill="#404040">
                        <set attributeName="fill" to="#808080" begin="arrowDown.mouseover" end="arrowDown.mouseout"/>
                  </use>
                  <path fill="none" stroke="white" stroke-width="1.5" d="M0,-3.0v7 M-2.5,-0.5L0,-3.0L2.5,-0.5"/>
                </g>
                <g id="arrowLeft" xlink:href="#dirArrow" transform="rotate(270) translate(-36 17)" onmousedown="handlePan(-1,0)">
                  <use xlink:href="#rim" fill="#404040">
                        <set attributeName="fill" to="#808080" begin="arrowLeft.mouseover" end="arrowLeft.mouseout"/>
                  </use>
                  <path fill="none" stroke="white" stroke-width="1.5" d="M0,-3.0v7 M-2.5,-0.5L0,-3.0L2.5,-0.5"/>
                </g>
        </g>
        <svg viewBox="0 0 15 15" width="100%" height="30px" preserveAspectRatio="xMaxYMin meet">
         <g id="arrow_out" transform="scale(0.3 0.3)">
          <a xlink:href="classcellsociety__team01_1_1parser_1_1_parser_afa693f17f280ab1cf88baf2565c593a9_cgraph_org.svg" target="_base">
           <rect id="button" ry="5" rx="5" y="6" x="6" height="38" width="38"
                fill="#f2f5e9" fill-opacity="0.5" stroke="#606060" stroke-width="1.0"/>
           <path id="arrow"
             d="M 11.500037,31.436501 C 11.940474,20.09759 22.043105,11.32322 32.158766,21.979434 L 37.068811,17.246167 C 37.068811,17.246167 37.088388,32 37.088388,32 L 22.160133,31.978069 C 22.160133,31.978069 26.997745,27.140456 26.997745,27.140456 C 18.528582,18.264221 13.291696,25.230495 11.500037,31.436501 z"
             style="fill:#404040;"/>
          </a>
         </g>
        </svg>
</svg>
