<?xml version="1.0" encoding="UTF-8" standalone="no"?>
<!DOCTYPE svg PUBLIC "-//W3C//DTD SVG 1.1//EN"
 "http://www.w3.org/Graphics/SVG/1.1/DTD/svg11.dtd">
<!-- Generated by graphviz version 2.36.0 (20140111.2315)
 -->
<!-- Title: cellsociety_team01.parser.Parser.checkLocation Pages: 1 -->
<svg width="1300pt" height="87pt"
 viewBox="0.00 0.00 1300.00 87.00" xmlns="http://www.w3.org/2000/svg" xmlns:xlink="http://www.w3.org/1999/xlink">
<g id="graph0" class="graph" transform="scale(1 1) rotate(0) translate(4 83)">
<title>cellsociety_team01.parser.Parser.checkLocation</title>
<polygon fill="white" stroke="none" points="-4,4 -4,-83 1296,-83 1296,4 -4,4"/>
<!-- Node1 -->
<g id="node1" class="node"><title>Node1</title>
<polygon fill="#bfbfbf" stroke="black" points="0.5,-24 0.5,-54 145.5,-54 145.5,-24 0.5,-24"/>
<text text-anchor="start" x="8.5" y="-42" font-family="Helvetica,sans-Serif" font-size="10.00">cellsociety_team01.parser.</text>
<text text-anchor="middle" x="73" y="-31" font-family="Helvetica,sans-Serif" font-size="10.00">Parser.checkLocation</text>
</g>
<!-- Node2 -->
<g id="node2" class="node"><title>Node2</title>
<g id="a_node2"><a xlink:href="../../db/d40/classcellsociety__team01_1_1parser_1_1_parser.html#a6328c0a6b8dab4bc6d860e80739fadca" target="_top" xlink:title="cellsociety_team01.parser.\lParser.placeGivenCells">
<polygon fill="white" stroke="black" points="182.5,-24 182.5,-54 327.5,-54 327.5,-24 182.5,-24"/>
<text text-anchor="start" x="190.5" y="-42" font-family="Helvetica,sans-Serif" font-size="10.00">cellsociety_team01.parser.</text>
<text text-anchor="middle" x="255" y="-31" font-family="Helvetica,sans-Serif" font-size="10.00">Parser.placeGivenCells</text>
</a>
</g>
</g>
<!-- Node1&#45;&gt;Node2 -->
<g id="edge1" class="edge"><title>Node1&#45;&gt;Node2</title>
<path fill="none" stroke="midnightblue" d="M155.921,-39C164.722,-39 173.626,-39 182.295,-39"/>
<polygon fill="midnightblue" stroke="midnightblue" points="155.658,-35.5001 145.658,-39 155.658,-42.5001 155.658,-35.5001"/>
</g>
<!-- Node3 -->
<g id="node3" class="node"><title>Node3</title>
<g id="a_node3"><a xlink:href="../../db/d40/classcellsociety__team01_1_1parser_1_1_parser.html#afa693f17f280ab1cf88baf2565c593a9" target="_top" xlink:title="cellsociety_team01.parser.\lParser.parseGrid">
<polygon fill="white" stroke="black" points="364.5,-24 364.5,-54 509.5,-54 509.5,-24 364.5,-24"/>
<text text-anchor="start" x="372.5" y="-42" font-family="Helvetica,sans-Serif" font-size="10.00">cellsociety_team01.parser.</text>
<text text-anchor="middle" x="437" y="-31" font-family="Helvetica,sans-Serif" font-size="10.00">Parser.parseGrid</text>
</a>
</g>
</g>
<!-- Node2&#45;&gt;Node3 -->
<g id="edge2" class="edge"><title>Node2&#45;&gt;Node3</title>
<path fill="none" stroke="midnightblue" d="M337.921,-39C346.722,-39 355.626,-39 364.295,-39"/>
<polygon fill="midnightblue" stroke="midnightblue" points="337.658,-35.5001 327.658,-39 337.658,-42.5001 337.658,-35.5001"/>
</g>
<!-- Node4 -->
<g id="node4" class="node"><title>Node4</title>
<g id="a_node4"><a xlink:href="../../db/d40/classcellsociety__team01_1_1parser_1_1_parser.html#a31a05836dde41569f62542b9ea327f95" target="_top" xlink:title="cellsociety_team01.parser.\lParser.parseXmlFile">
<polygon fill="white" stroke="black" points="546.5,-24 546.5,-54 691.5,-54 691.5,-24 546.5,-24"/>
<text text-anchor="start" x="554.5" y="-42" font-family="Helvetica,sans-Serif" font-size="10.00">cellsociety_team01.parser.</text>
<text text-anchor="middle" x="619" y="-31" font-family="Helvetica,sans-Serif" font-size="10.00">Parser.parseXmlFile</text>
</a>
</g>
</g>
<!-- Node3&#45;&gt;Node4 -->
<g id="edge3" class="edge"><title>Node3&#45;&gt;Node4</title>
<path fill="none" stroke="midnightblue" d="M519.921,-39C528.722,-39 537.626,-39 546.295,-39"/>
<polygon fill="midnightblue" stroke="midnightblue" points="519.658,-35.5001 509.658,-39 519.658,-42.5001 519.658,-35.5001"/>
</g>
<!-- Node5 -->
<g id="node5" class="node"><title>Node5</title>
<g id="a_node5"><a xlink:href="../../db/d10/classcellsociety__team01_1_1modelview_1_1_g_u_i.html#afa183319cc9816a6147cba0869ef82eb" target="_top" xlink:title="cellsociety_team01.modelview.\lGUI.loadXML">
<polygon fill="white" stroke="black" points="728,-49 728,-79 892,-79 892,-49 728,-49"/>
<text text-anchor="start" x="736" y="-67" font-family="Helvetica,sans-Serif" font-size="10.00">cellsociety_team01.modelview.</text>
<text text-anchor="middle" x="810" y="-56" font-family="Helvetica,sans-Serif" font-size="10.00">GUI.loadXML</text>
</a>
</g>
</g>
<!-- Node4&#45;&gt;Node5 -->
<g id="edge4" class="edge"><title>Node4&#45;&gt;Node5</title>
<path fill="none" stroke="midnightblue" d="M701.781,-49.8175C710.42,-50.9604 719.205,-52.1223 727.837,-53.2642"/>
<polygon fill="midnightblue" stroke="midnightblue" points="702.095,-46.3287 691.722,-48.4871 701.177,-53.2683 702.095,-46.3287"/>
</g>
<!-- Node8 -->
<g id="node8" class="node"><title>Node8</title>
<g id="a_node8"><a xlink:href="../../db/d10/classcellsociety__team01_1_1modelview_1_1_g_u_i.html#a5c5e37ae72fe72af97fab2cb9a12b045" target="_top" xlink:title="cellsociety_team01.modelview.\lGUI.reset">
<polygon fill="white" stroke="black" points="728,-0 728,-30 892,-30 892,-0 728,-0"/>
<text text-anchor="start" x="736" y="-18" font-family="Helvetica,sans-Serif" font-size="10.00">cellsociety_team01.modelview.</text>
<text text-anchor="middle" x="810" y="-7" font-family="Helvetica,sans-Serif" font-size="10.00">GUI.reset</text>
</a>
</g>
</g>
<!-- Node4&#45;&gt;Node8 -->
<g id="edge7" class="edge"><title>Node4&#45;&gt;Node8</title>
<path fill="none" stroke="midnightblue" d="M701.781,-28.6152C710.42,-27.518 719.205,-26.4026 727.837,-25.3064"/>
<polygon fill="midnightblue" stroke="midnightblue" points="701.202,-25.1605 691.722,-29.8924 702.084,-32.1047 701.202,-25.1605"/>
</g>
<!-- Node6 -->
<g id="node6" class="node"><title>Node6</title>
<g id="a_node6"><a xlink:href="../../db/d10/classcellsociety__team01_1_1modelview_1_1_g_u_i.html#a4072ce794f518e806e7a912892f1e9da" target="_top" xlink:title="cellsociety_team01.modelview.\lGUI.makeMenuBar">
<polygon fill="white" stroke="black" points="928,-49 928,-79 1092,-79 1092,-49 928,-49"/>
<text text-anchor="start" x="936" y="-67" font-family="Helvetica,sans-Serif" font-size="10.00">cellsociety_team01.modelview.</text>
<text text-anchor="middle" x="1010" y="-56" font-family="Helvetica,sans-Serif" font-size="10.00">GUI.makeMenuBar</text>
</a>
</g>
</g>
<!-- Node5&#45;&gt;Node6 -->
<g id="edge5" class="edge"><title>Node5&#45;&gt;Node6</title>
<path fill="none" stroke="midnightblue" d="M902.363,-64C910.817,-64 919.346,-64 927.7,-64"/>
<polygon fill="midnightblue" stroke="midnightblue" points="902.106,-60.5001 892.105,-64 902.105,-67.5001 902.106,-60.5001"/>
</g>
<!-- Node7 -->
<g id="node7" class="node"><title>Node7</title>
<g id="a_node7"><a xlink:href="../../db/d10/classcellsociety__team01_1_1modelview_1_1_g_u_i.html#a07bcff60812627c8dfe97f1aadc671e5" target="_top" xlink:title="cellsociety_team01.modelview.\lGUI.GUI">
<polygon fill="white" stroke="black" points="1128,-24 1128,-54 1292,-54 1292,-24 1128,-24"/>
<text text-anchor="start" x="1136" y="-42" font-family="Helvetica,sans-Serif" font-size="10.00">cellsociety_team01.modelview.</text>
<text text-anchor="middle" x="1210" y="-31" font-family="Helvetica,sans-Serif" font-size="10.00">GUI.GUI</text>
</a>
</g>
</g>
<!-- Node6&#45;&gt;Node7 -->
<g id="edge6" class="edge"><title>Node6&#45;&gt;Node7</title>
<path fill="none" stroke="midnightblue" d="M1102.08,-52.4994C1110.63,-51.4205 1119.25,-50.3316 1127.7,-49.2651"/>
<polygon fill="midnightblue" stroke="midnightblue" points="1101.59,-49.0342 1092.11,-53.7594 1102.47,-55.9791 1101.59,-49.0342"/>
</g>
<!-- Node9 -->
<g id="node9" class="node"><title>Node9</title>
<g id="a_node9"><a xlink:href="../../db/d10/classcellsociety__team01_1_1modelview_1_1_g_u_i.html#aa924c28ce131195d3f377b18177f6cb9" target="_top" xlink:title="cellsociety_team01.modelview.\lGUI.makeButtonsAndSlider">
<polygon fill="white" stroke="black" points="928,-0 928,-30 1092,-30 1092,-0 928,-0"/>
<text text-anchor="start" x="936" y="-18" font-family="Helvetica,sans-Serif" font-size="10.00">cellsociety_team01.modelview.</text>
<text text-anchor="middle" x="1010" y="-7" font-family="Helvetica,sans-Serif" font-size="10.00">GUI.makeButtonsAndSlider</text>
</a>
</g>
</g>
<!-- Node8&#45;&gt;Node9 -->
<g id="edge8" class="edge"><title>Node8&#45;&gt;Node9</title>
<path fill="none" stroke="midnightblue" d="M902.363,-15C910.817,-15 919.346,-15 927.7,-15"/>
<polygon fill="midnightblue" stroke="midnightblue" points="902.106,-11.5001 892.105,-15 902.105,-18.5001 902.106,-11.5001"/>
</g>
<!-- Node9&#45;&gt;Node7 -->
<g id="edge9" class="edge"><title>Node9&#45;&gt;Node7</title>
<path fill="none" stroke="midnightblue" d="M1102.08,-26.0406C1110.63,-27.0763 1119.25,-28.1217 1127.7,-29.1455"/>
<polygon fill="midnightblue" stroke="midnightblue" points="1102.45,-22.5598 1092.11,-24.831 1101.61,-29.5089 1102.45,-22.5598"/>
</g>
</g>
</svg>
