<?xml version="1.0" encoding="UTF-8" standalone="no"?>
<!DOCTYPE svg PUBLIC "-//W3C//DTD SVG 1.1//EN"
 "http://www.w3.org/Graphics/SVG/1.1/DTD/svg11.dtd">
<!-- Generated by graphviz version 2.36.0 (20140111.2315)
 -->
<!-- Title: cellsociety_team01.rules.ThresholdRule Pages: 1 -->
<svg width="342pt" height="268pt"
 viewBox="0.00 0.00 342.00 268.00" xmlns="http://www.w3.org/2000/svg" xmlns:xlink="http://www.w3.org/1999/xlink">
<g id="graph0" class="graph" transform="scale(1 1) rotate(0) translate(4 264)">
<title>cellsociety_team01.rules.ThresholdRule</title>
<polygon fill="white" stroke="none" points="-4,4 -4,-264 338,-264 338,4 -4,4"/>
<!-- Node1 -->
<g id="node1" class="node"><title>Node1</title>
<polygon fill="#bfbfbf" stroke="black" points="153,-1 153,-31 291,-31 291,-1 153,-1"/>
<text text-anchor="start" x="161" y="-19" font-family="Helvetica,sans-Serif" font-size="10.00">cellsociety_team01.rules.</text>
<text text-anchor="middle" x="222" y="-8" font-family="Helvetica,sans-Serif" font-size="10.00">ThresholdRule</text>
</g>
<!-- Node2 -->
<g id="node2" class="node"><title>Node2</title>
<g id="a_node2"><a xlink:href="../../d3/d9d/classcellsociety__team01_1_1rules_1_1_changing_rule.html" target="_top" xlink:title="cellsociety_team01.rules.\lChangingRule">
<polygon fill="white" stroke="black" points="81,-71 81,-101 219,-101 219,-71 81,-71"/>
<text text-anchor="start" x="89" y="-89" font-family="Helvetica,sans-Serif" font-size="10.00">cellsociety_team01.rules.</text>
<text text-anchor="middle" x="150" y="-78" font-family="Helvetica,sans-Serif" font-size="10.00">ChangingRule</text>
</a>
</g>
</g>
<!-- Node2&#45;&gt;Node1 -->
<g id="edge1" class="edge"><title>Node2&#45;&gt;Node1</title>
<path fill="none" stroke="midnightblue" d="M172.341,-63.8998C183.648,-53.2214 197.065,-40.5498 207.101,-31.0716"/>
<polygon fill="midnightblue" stroke="midnightblue" points="169.785,-61.4995 164.918,-70.9104 174.592,-66.5886 169.785,-61.4995"/>
</g>
<!-- Node3 -->
<g id="node3" class="node"><title>Node3</title>
<g id="a_node3"><a xlink:href="../../d4/d46/classcellsociety__team01_1_1rules_1_1_rule.html" target="_top" xlink:title="cellsociety_team01.rules.Rule">
<polygon fill="white" stroke="black" points="0,-166.5 0,-185.5 158,-185.5 158,-166.5 0,-166.5"/>
<text text-anchor="middle" x="79" y="-173.5" font-family="Helvetica,sans-Serif" font-size="10.00">cellsociety_team01.rules.Rule</text>
</a>
</g>
</g>
<!-- Node3&#45;&gt;Node2 -->
<g id="edge2" class="edge"><title>Node3&#45;&gt;Node2</title>
<path fill="none" stroke="midnightblue" d="M92.6906,-158.031C106.014,-141.518 126.028,-116.712 138.536,-101.209"/>
<polygon fill="midnightblue" stroke="midnightblue" points="89.6226,-156.26 86.0673,-166.241 95.0706,-160.655 89.6226,-156.26"/>
</g>
<!-- Node4 -->
<g id="node4" class="node"><title>Node4</title>
<g id="a_node4"><a xlink:href="../../d2/d65/classcellsociety__team01_1_1_cell_state_1_1_state.html" target="_top" xlink:title="cellsociety_team01.CellState.\lState">
<polygon fill="white" stroke="black" points="176,-161 176,-191 334,-191 334,-161 176,-161"/>
<text text-anchor="start" x="184" y="-179" font-family="Helvetica,sans-Serif" font-size="10.00">cellsociety_team01.CellState.</text>
<text text-anchor="middle" x="255" y="-168" font-family="Helvetica,sans-Serif" font-size="10.00">State</text>
</a>
</g>
</g>
<!-- Node4&#45;&gt;Node1 -->
<g id="edge5" class="edge"><title>Node4&#45;&gt;Node1</title>
<path fill="none" stroke="#9a32cd" stroke-dasharray="5,2" d="M250.019,-151.15C243.058,-117.822 230.639,-58.3603 224.969,-31.2171"/>
<polygon fill="#9a32cd" stroke="#9a32cd" points="246.601,-151.905 252.071,-160.979 253.453,-150.474 246.601,-151.905"/>
<text text-anchor="middle" x="263.5" y="-83.5" font-family="Helvetica,sans-Serif" font-size="10.00"> myCause</text>
</g>
<!-- Node4&#45;&gt;Node2 -->
<g id="edge3" class="edge"><title>Node4&#45;&gt;Node2</title>
<path fill="none" stroke="#9a32cd" stroke-dasharray="5,2" d="M217.451,-155.632C210.711,-151.504 203.947,-146.898 198,-142 183.327,-129.913 169.369,-113.108 160.326,-101.263"/>
<polygon fill="#9a32cd" stroke="#9a32cd" points="216.148,-158.924 226.548,-160.947 219.68,-152.88 216.148,-158.924"/>
<text text-anchor="middle" x="219.5" y="-134" font-family="Helvetica,sans-Serif" font-size="10.00"> myStart</text>
<text text-anchor="middle" x="219.5" y="-123" font-family="Helvetica,sans-Serif" font-size="10.00">myEnd</text>
</g>
<!-- Node5 -->
<g id="node5" class="node"><title>Node5</title>
<polygon fill="white" stroke="#bfbfbf" points="234.5,-240.5 234.5,-259.5 275.5,-259.5 275.5,-240.5 234.5,-240.5"/>
<text text-anchor="middle" x="255" y="-247.5" font-family="Helvetica,sans-Serif" font-size="10.00">Color</text>
</g>
<!-- Node5&#45;&gt;Node4 -->
<g id="edge4" class="edge"><title>Node5&#45;&gt;Node4</title>
<path fill="none" stroke="#9a32cd" stroke-dasharray="5,2" d="M255,-230.085C255,-217.915 255,-202.354 255,-191.232"/>
<polygon fill="#9a32cd" stroke="#9a32cd" points="251.5,-230.458 255,-240.458 258.5,-230.458 251.5,-230.458"/>
<text text-anchor="middle" x="276.5" y="-213.5" font-family="Helvetica,sans-Serif" font-size="10.00"> myColor</text>
</g>
</g>
</svg>
