<?xml version="1.0" encoding="UTF-8" standalone="no"?>
<!DOCTYPE svg PUBLIC "-//W3C//DTD SVG 1.1//EN"
 "http://www.w3.org/Graphics/SVG/1.1/DTD/svg11.dtd">
<!-- Generated by graphviz version 2.36.0 (20140111.2315)
 -->
<!-- Title: cellsociety_team01.rules.MovementRule Pages: 1 -->
<!--zoomable 283 -->
<svg id="main" version="1.1" xmlns="http://www.w3.org/2000/svg" xmlns:xlink="http://www.w3.org/1999/xlink" xml:space="preserve" onload="init(evt)">
<style type="text/css"><![CDATA[
.edge:hover path { stroke: red; }
.edge:hover polygon { stroke: red; fill: red; }
]]></style>
<script type="text/javascript"><![CDATA[
var edges = document.getElementsByTagName('g');
if (edges && edges.length) {
  for (var i=0;i<edges.length;i++) {
    if (edges[i].id.substr(0,4)=='edge') {
      edges[i].setAttribute('class','edge');
    }
  }
}
]]></script>
        <defs>
                <circle id="rim" cx="0" cy="0" r="7"/>
                <circle id="rim2" cx="0" cy="0" r="3.5"/>
                <g id="zoomPlus">
                        <use xlink:href="#rim" fill="#404040">
                                <set attributeName="fill" to="#808080" begin="zoomplus.mouseover" end="zoomplus.mouseout"/>
                        </use>
                        <path d="M-4,0h8M0,-4v8" fill="none" stroke="white" stroke-width="1.5" pointer-events="none"/>
                </g>
                <g id="zoomMin">
                        <use xlink:href="#rim" fill="#404040">
                                <set attributeName="fill" to="#808080" begin="zoomminus.mouseover" end="zoomminus.mouseout"/>
                        </use>
                        <path d="M-4,0h8" fill="none" stroke="white" stroke-width="1.5" pointer-events="none"/>
                </g>
                <g id="dirArrow">
                        <path fill="none" stroke="white" stroke-width="1.5" d="M0,-3.0v7 M-2.5,-0.5L0,-3.0L2.5,-0.5"/>
                </g>
               <g id="resetDef">
                       <use xlink:href="#rim2" fill="#404040">
                               <set attributeName="fill" to="#808080" begin="reset.mouseover" end="reset.mouseout"/>
                       </use>
               </g>
        </defs>

<script type="text/javascript">
var viewWidth = 514;
var viewHeight = 283;
var sectionId = 'dynsection-0';
</script>
<script xlink:href="../../svgpan.js"/>
<svg id="graph" class="graph">
<g id="viewport">
<title>cellsociety_team01.rules.MovementRule</title>
<polygon fill="white" stroke="none" points="-4,4 -4,-279 510,-279 510,4 -4,4"/>
<!-- Node1 -->
<g id="node1" class="node"><title>Node1</title>
<polygon fill="#bfbfbf" stroke="black" points="194,-122 194,-152 332,-152 332,-122 194,-122"/>
<text text-anchor="start" x="202" y="-140" font-family="Helvetica,sans-Serif" font-size="10.00">cellsociety_team01.rules.</text>
<text text-anchor="middle" x="263" y="-129" font-family="Helvetica,sans-Serif" font-size="10.00">MovementRule</text>
</g>
<!-- Node3 -->
<g id="node3" class="node"><title>Node3</title>
<g id="a_node3"><a xlink:href="../../d4/d68/classcellsociety__team01_1_1rules_1_1_consumption_rule.html" target="_top" xlink:title="cellsociety_team01.rules.\lConsumptionRule">
<polygon fill="white" stroke="black" points="368,-245 368,-275 506,-275 506,-245 368,-245"/>
<text text-anchor="start" x="376" y="-263" font-family="Helvetica,sans-Serif" font-size="10.00">cellsociety_team01.rules.</text>
<text text-anchor="middle" x="437" y="-252" font-family="Helvetica,sans-Serif" font-size="10.00">ConsumptionRule</text>
</a>
</g>
</g>
<!-- Node1&#45;&gt;Node3 -->
<g id="edge2" class="edge"><title>Node1&#45;&gt;Node3</title>
<path fill="none" stroke="midnightblue" d="M283.459,-160.091C302.928,-181.949 334.7,-214.399 368,-235 373.99,-238.706 380.614,-241.986 387.306,-244.851"/>
<polygon fill="midnightblue" stroke="midnightblue" points="285.842,-157.499 276.622,-152.279 280.574,-162.109 285.842,-157.499"/>
</g>
<!-- Node4 -->
<g id="node4" class="node"><title>Node4</title>
<g id="a_node4"><a xlink:href="../../d1/dd1/classcellsociety__team01_1_1rules_1_1_movement_threshold_rule.html" target="_top" xlink:title="cellsociety_team01.rules.\lMovementThresholdRule">
<polygon fill="white" stroke="black" points="368,-196 368,-226 506,-226 506,-196 368,-196"/>
<text text-anchor="start" x="376" y="-214" font-family="Helvetica,sans-Serif" font-size="10.00">cellsociety_team01.rules.</text>
<text text-anchor="middle" x="437" y="-203" font-family="Helvetica,sans-Serif" font-size="10.00">MovementThresholdRule</text>
</a>
</g>
</g>
<!-- Node1&#45;&gt;Node4 -->
<g id="edge3" class="edge"><title>Node1&#45;&gt;Node4</title>
<path fill="none" stroke="midnightblue" d="M303.272,-156.503C322.587,-165.838 346.322,-176.929 368,-186 376.122,-189.399 384.887,-192.808 393.335,-195.968"/>
<polygon fill="midnightblue" stroke="midnightblue" points="304.697,-153.304 294.173,-152.078 301.635,-159.599 304.697,-153.304"/>
</g>
<!-- Node5 -->
<g id="node5" class="node"><title>Node5</title>
<g id="a_node5"><a xlink:href="../../d8/dd6/classcellsociety__team01_1_1rules_1_1_priority_forward_rule.html" target="_top" xlink:title="cellsociety_team01.rules.\lPriorityForwardRule">
<polygon fill="white" stroke="black" points="368,-147 368,-177 506,-177 506,-147 368,-147"/>
<text text-anchor="start" x="376" y="-165" font-family="Helvetica,sans-Serif" font-size="10.00">cellsociety_team01.rules.</text>
<text text-anchor="middle" x="437" y="-154" font-family="Helvetica,sans-Serif" font-size="10.00">PriorityForwardRule</text>
</a>
</g>
</g>
<!-- Node1&#45;&gt;Node5 -->
<g id="edge4" class="edge"><title>Node1&#45;&gt;Node5</title>
<path fill="none" stroke="midnightblue" d="M342.637,-148.43C351.025,-149.649 359.508,-150.882 367.762,-152.082"/>
<polygon fill="midnightblue" stroke="midnightblue" points="342.873,-144.927 332.473,-146.952 341.866,-151.855 342.873,-144.927"/>
</g>
<!-- Node6 -->
<g id="node6" class="node"><title>Node6</title>
<g id="a_node6"><a xlink:href="../../d5/d26/classcellsociety__team01_1_1rules_1_1_reproduction_rule.html" target="_top" xlink:title="cellsociety_team01.rules.\lReproductionRule">
<polygon fill="white" stroke="black" points="368,-98 368,-128 506,-128 506,-98 368,-98"/>
<text text-anchor="start" x="376" y="-116" font-family="Helvetica,sans-Serif" font-size="10.00">cellsociety_team01.rules.</text>
<text text-anchor="middle" x="437" y="-105" font-family="Helvetica,sans-Serif" font-size="10.00">ReproductionRule</text>
</a>
</g>
</g>
<!-- Node1&#45;&gt;Node6 -->
<g id="edge5" class="edge"><title>Node1&#45;&gt;Node6</title>
<path fill="none" stroke="midnightblue" d="M342.637,-126.027C351.025,-124.857 359.508,-123.673 367.762,-122.522"/>
<polygon fill="midnightblue" stroke="midnightblue" points="341.894,-122.597 332.473,-127.446 342.861,-129.53 341.894,-122.597"/>
</g>
<!-- Node7 -->
<g id="node7" class="node"><title>Node7</title>
<g id="a_node7"><a xlink:href="../../df/d97/classcellsociety__team01_1_1rules_1_1_threshold_movement_rule.html" target="_top" xlink:title="cellsociety_team01.rules.\lThresholdMovementRule">
<polygon fill="white" stroke="black" points="368,-49 368,-79 506,-79 506,-49 368,-49"/>
<text text-anchor="start" x="376" y="-67" font-family="Helvetica,sans-Serif" font-size="10.00">cellsociety_team01.rules.</text>
<text text-anchor="middle" x="437" y="-56" font-family="Helvetica,sans-Serif" font-size="10.00">ThresholdMovementRule</text>
</a>
</g>
</g>
<!-- Node1&#45;&gt;Node7 -->
<g id="edge6" class="edge"><title>Node1&#45;&gt;Node7</title>
<path fill="none" stroke="midnightblue" d="M303.22,-117.374C322.524,-108.01 346.264,-96.9296 368,-88 375.411,-84.9553 383.367,-81.9329 391.132,-79.1121"/>
<polygon fill="midnightblue" stroke="midnightblue" points="301.577,-114.281 294.129,-121.815 304.65,-120.57 301.577,-114.281"/>
</g>
<!-- Node8 -->
<g id="node8" class="node"><title>Node8</title>
<g id="a_node8"><a xlink:href="../../d4/d0c/classcellsociety__team01_1_1rules_1_1_uphill_movement_rule.html" target="_top" xlink:title="cellsociety_team01.rules.\lUphillMovementRule">
<polygon fill="white" stroke="black" points="368,-0 368,-30 506,-30 506,-0 368,-0"/>
<text text-anchor="start" x="376" y="-18" font-family="Helvetica,sans-Serif" font-size="10.00">cellsociety_team01.rules.</text>
<text text-anchor="middle" x="437" y="-7" font-family="Helvetica,sans-Serif" font-size="10.00">UphillMovementRule</text>
</a>
</g>
</g>
<!-- Node1&#45;&gt;Node8 -->
<g id="edge7" class="edge"><title>Node1&#45;&gt;Node8</title>
<path fill="none" stroke="midnightblue" d="M283.144,-114.103C302.546,-92.1715 334.419,-59.4732 368,-39 373.452,-35.6764 379.43,-32.7245 385.509,-30.1281"/>
<polygon fill="midnightblue" stroke="midnightblue" points="280.5,-111.81 276.58,-121.653 285.783,-116.402 280.5,-111.81"/>
</g>
<!-- Node2 -->
<g id="node2" class="node"><title>Node2</title>
<g id="a_node2"><a xlink:href="../../d4/d46/classcellsociety__team01_1_1rules_1_1_rule.html" target="_top" xlink:title="cellsociety_team01.rules.Rule">
<polygon fill="white" stroke="black" points="0,-127.5 0,-146.5 158,-146.5 158,-127.5 0,-127.5"/>
<text text-anchor="middle" x="79" y="-134.5" font-family="Helvetica,sans-Serif" font-size="10.00">cellsociety_team01.rules.Rule</text>
</a>
</g>
</g>
<!-- Node2&#45;&gt;Node1 -->
<g id="edge1" class="edge"><title>Node2&#45;&gt;Node1</title>
<path fill="none" stroke="midnightblue" d="M168.291,-137C176.88,-137 185.502,-137 193.85,-137"/>
<polygon fill="midnightblue" stroke="midnightblue" points="168.241,-133.5 158.241,-137 168.241,-140.5 168.241,-133.5"/>
</g>
</g>
</svg>
        <g id="navigator" transform="translate(0 0)" fill="#404254">
                <rect fill="#f2f5e9" fill-opacity="0.5" stroke="#606060" stroke-width=".5" x="0" y="0" width="60" height="60"/>
                <use id="zoomplus" xlink:href="#zoomPlus" x="17" y="9" onmousedown="handleZoom(evt,'in')"/>
                <use id="zoomminus" xlink:href="#zoomMin" x="42" y="9" onmousedown="handleZoom(evt,'out')"/>
                <use id="reset" xlink:href="#resetDef" x="30" y="36" onmousedown="handleReset()"/>
                <g id="arrowUp" xlink:href="#dirArrow" transform="translate(30 24)" onmousedown="handlePan(0,-1)">
                  <use xlink:href="#rim" fill="#404040">
                        <set attributeName="fill" to="#808080" begin="arrowUp.mouseover" end="arrowUp.mouseout"/>
                  </use>
                  <path fill="none" stroke="white" stroke-width="1.5" d="M0,-3.0v7 M-2.5,-0.5L0,-3.0L2.5,-0.5"/>
                </g>
                <g id="arrowRight" xlink:href="#dirArrow" transform="rotate(90) translate(36 -43)" onmousedown="handlePan(1,0)">
                  <use xlink:href="#rim" fill="#404040">
                        <set attributeName="fill" to="#808080" begin="arrowRight.mouseover" end="arrowRight.mouseout"/>
                  </use>
                  <path fill="none" stroke="white" stroke-width="1.5" d="M0,-3.0v7 M-2.5,-0.5L0,-3.0L2.5,-0.5"/>
                </g>
                <g id="arrowDown" xlink:href="#dirArrow" transform="rotate(180) translate(-30 -48)" onmousedown="handlePan(0,1)">
                  <use xlink:href="#rim" fill="#404040">
                        <set attributeName="fill" to="#808080" begin="arrowDown.mouseover" end="arrowDown.mouseout"/>
                  </use>
                  <path fill="none" stroke="white" stroke-width="1.5" d="M0,-3.0v7 M-2.5,-0.5L0,-3.0L2.5,-0.5"/>
                </g>
                <g id="arrowLeft" xlink:href="#dirArrow" transform="rotate(270) translate(-36 17)" onmousedown="handlePan(-1,0)">
                  <use xlink:href="#rim" fill="#404040">
                        <set attributeName="fill" to="#808080" begin="arrowLeft.mouseover" end="arrowLeft.mouseout"/>
                  </use>
                  <path fill="none" stroke="white" stroke-width="1.5" d="M0,-3.0v7 M-2.5,-0.5L0,-3.0L2.5,-0.5"/>
                </g>
        </g>
        <svg viewBox="0 0 15 15" width="100%" height="30px" preserveAspectRatio="xMaxYMin meet">
         <g id="arrow_out" transform="scale(0.3 0.3)">
          <a xlink:href="classcellsociety__team01_1_1rules_1_1_movement_rule__inherit__graph_org.svg" target="_base">
           <rect id="button" ry="5" rx="5" y="6" x="6" height="38" width="38"
                fill="#f2f5e9" fill-opacity="0.5" stroke="#606060" stroke-width="1.0"/>
           <path id="arrow"
             d="M 11.500037,31.436501 C 11.940474,20.09759 22.043105,11.32322 32.158766,21.979434 L 37.068811,17.246167 C 37.068811,17.246167 37.088388,32 37.088388,32 L 22.160133,31.978069 C 22.160133,31.978069 26.997745,27.140456 26.997745,27.140456 C 18.528582,18.264221 13.291696,25.230495 11.500037,31.436501 z"
             style="fill:#404040;"/>
          </a>
         </g>
        </svg>
</svg>
