<?xml version="1.0" encoding="UTF-8" standalone="no"?>
<!DOCTYPE svg PUBLIC "-//W3C//DTD SVG 1.1//EN"
 "http://www.w3.org/Graphics/SVG/1.1/DTD/svg11.dtd">
<!-- Generated by graphviz version 2.36.0 (20140111.2315)
 -->
<!-- Title: cellsociety_team01.CellState.IntState.initialize Pages: 1 -->
<svg width="572pt" height="98pt"
 viewBox="0.00 0.00 572.00 98.00" xmlns="http://www.w3.org/2000/svg" xmlns:xlink="http://www.w3.org/1999/xlink">
<g id="graph0" class="graph" transform="scale(1 1) rotate(0) translate(4 94)">
<title>cellsociety_team01.CellState.IntState.initialize</title>
<polygon fill="white" stroke="none" points="-4,4 -4,-94 568,-94 568,4 -4,4"/>
<!-- Node1 -->
<g id="node1" class="node"><title>Node1</title>
<polygon fill="#bfbfbf" stroke="black" points="0,-27 0,-57 158,-57 158,-27 0,-27"/>
<text text-anchor="start" x="8" y="-45" font-family="Helvetica,sans-Serif" font-size="10.00">cellsociety_team01.CellState.</text>
<text text-anchor="middle" x="79" y="-34" font-family="Helvetica,sans-Serif" font-size="10.00">IntState.initialize</text>
</g>
<!-- Node2 -->
<g id="node2" class="node"><title>Node2</title>
<g id="a_node2"><a xlink:href="../../d1/d2b/classcellsociety__team01_1_1_cell_state_1_1_directional_automaton.html#a36ffc5de3d11fd2cda86c8034b0b490d" target="_top" xlink:title="cellsociety_team01.CellState.\lDirectionalAutomaton.Directional\lAutomaton">
<polygon fill="white" stroke="black" points="194,-48.5 194,-89.5 370,-89.5 370,-48.5 194,-48.5"/>
<text text-anchor="start" x="202" y="-77.5" font-family="Helvetica,sans-Serif" font-size="10.00">cellsociety_team01.CellState.</text>
<text text-anchor="start" x="202" y="-66.5" font-family="Helvetica,sans-Serif" font-size="10.00">DirectionalAutomaton.Directional</text>
<text text-anchor="middle" x="282" y="-55.5" font-family="Helvetica,sans-Serif" font-size="10.00">Automaton</text>
</a>
</g>
</g>
<!-- Node1&#45;&gt;Node2 -->
<g id="edge1" class="edge"><title>Node1&#45;&gt;Node2</title>
<path fill="none" stroke="midnightblue" d="M168.231,-53.8519C176.761,-54.9978 185.411,-56.1597 193.93,-57.304"/>
<polygon fill="midnightblue" stroke="midnightblue" points="168.664,-50.3788 158.287,-52.5162 167.732,-57.3165 168.664,-50.3788"/>
</g>
<!-- Node3 -->
<g id="node3" class="node"><title>Node3</title>
<g id="a_node3"><a xlink:href="../../d7/d26/classcellsociety__team01_1_1_cell_state_1_1_int_state.html#a8b9fb0ab8513076ddf7207ea64d72993" target="_top" xlink:title="cellsociety_team01.CellState.\lIntState.IntState">
<polygon fill="white" stroke="black" points="203,-0 203,-30 361,-30 361,-0 203,-0"/>
<text text-anchor="start" x="211" y="-18" font-family="Helvetica,sans-Serif" font-size="10.00">cellsociety_team01.CellState.</text>
<text text-anchor="middle" x="282" y="-7" font-family="Helvetica,sans-Serif" font-size="10.00">IntState.IntState</text>
</a>
</g>
</g>
<!-- Node1&#45;&gt;Node3 -->
<g id="edge2" class="edge"><title>Node1&#45;&gt;Node3</title>
<path fill="none" stroke="midnightblue" d="M168.339,-30.1336C179.857,-28.5863 191.592,-27.01 202.926,-25.4875"/>
<polygon fill="midnightblue" stroke="midnightblue" points="167.732,-26.6835 158.287,-31.4838 168.664,-33.6212 167.732,-26.6835"/>
</g>
<!-- Node4 -->
<g id="node4" class="node"><title>Node4</title>
<g id="a_node4"><a xlink:href="../../d7/d26/classcellsociety__team01_1_1_cell_state_1_1_int_state.html#afe8df143001cc2100f56df9b6a9190b0" target="_top" xlink:title="cellsociety_team01.CellState.\lIntState.newInstanceOf">
<polygon fill="white" stroke="black" points="406,-0 406,-30 564,-30 564,-0 406,-0"/>
<text text-anchor="start" x="414" y="-18" font-family="Helvetica,sans-Serif" font-size="10.00">cellsociety_team01.CellState.</text>
<text text-anchor="middle" x="485" y="-7" font-family="Helvetica,sans-Serif" font-size="10.00">IntState.newInstanceOf</text>
</a>
</g>
</g>
<!-- Node3&#45;&gt;Node4 -->
<g id="edge3" class="edge"><title>Node3&#45;&gt;Node4</title>
<path fill="none" stroke="midnightblue" d="M371.339,-15C382.857,-15 394.592,-15 405.926,-15"/>
<polygon fill="midnightblue" stroke="midnightblue" points="371.287,-11.5001 361.287,-15 371.287,-18.5001 371.287,-11.5001"/>
</g>
</g>
</svg>
