<?xml version="1.0" encoding="UTF-8" standalone="no"?>
<!DOCTYPE svg PUBLIC "-//W3C//DTD SVG 1.1//EN"
 "http://www.w3.org/Graphics/SVG/1.1/DTD/svg11.dtd">
<!-- Generated by graphviz version 2.36.0 (20140111.2315)
 -->
<!-- Title: cellsociety_team01.Main.start Pages: 1 -->
<svg width="368pt" height="185pt"
 viewBox="0.00 0.00 368.00 185.00" xmlns="http://www.w3.org/2000/svg" xmlns:xlink="http://www.w3.org/1999/xlink">
<g id="graph0" class="graph" transform="scale(1 1) rotate(0) translate(4 181)">
<title>cellsociety_team01.Main.start</title>
<polygon fill="white" stroke="none" points="-4,4 -4,-181 364,-181 364,4 -4,4"/>
<!-- Node1 -->
<g id="node1" class="node"><title>Node1</title>
<polygon fill="#bfbfbf" stroke="black" points="0,-78.5 0,-97.5 160,-97.5 160,-78.5 0,-78.5"/>
<text text-anchor="middle" x="80" y="-85.5" font-family="Helvetica,sans-Serif" font-size="10.00">cellsociety_team01.Main.start</text>
</g>
<!-- Node2 -->
<g id="node2" class="node"><title>Node2</title>
<g id="a_node2"><a xlink:href="../../db/d10/classcellsociety__team01_1_1modelview_1_1_g_u_i.html#aae02553a8f57da1267aac03eeb2e3239" target="_top" xlink:title="cellsociety_team01.modelview.\lGUI.getScene">
<polygon fill="white" stroke="black" points="196,-147 196,-177 360,-177 360,-147 196,-147"/>
<text text-anchor="start" x="204" y="-165" font-family="Helvetica,sans-Serif" font-size="10.00">cellsociety_team01.modelview.</text>
<text text-anchor="middle" x="278" y="-154" font-family="Helvetica,sans-Serif" font-size="10.00">GUI.getScene</text>
</a>
</g>
</g>
<!-- Node1&#45;&gt;Node2 -->
<g id="edge1" class="edge"><title>Node1&#45;&gt;Node2</title>
<path fill="none" stroke="midnightblue" d="M101.517,-97.5046C124.322,-107.889 162.376,-124.685 196,-137 202.314,-139.312 208.954,-141.596 215.603,-143.787"/>
<polygon fill="midnightblue" stroke="midnightblue" points="214.721,-147.18 225.313,-146.923 216.873,-140.519 214.721,-147.18"/>
</g>
<!-- Node3 -->
<g id="node3" class="node"><title>Node3</title>
<g id="a_node3"><a xlink:href="../../d2/d8b/classcellsociety__team01_1_1modelview_1_1_grid.html#aa04f7f62dc2fcd9574475c634a0c9fa8" target="_top" xlink:title="cellsociety_team01.modelview.\lGrid.setAnimationLoop">
<polygon fill="white" stroke="black" points="196,-98 196,-128 360,-128 360,-98 196,-98"/>
<text text-anchor="start" x="204" y="-116" font-family="Helvetica,sans-Serif" font-size="10.00">cellsociety_team01.modelview.</text>
<text text-anchor="middle" x="278" y="-105" font-family="Helvetica,sans-Serif" font-size="10.00">Grid.setAnimationLoop</text>
</a>
</g>
</g>
<!-- Node1&#45;&gt;Node3 -->
<g id="edge2" class="edge"><title>Node1&#45;&gt;Node3</title>
<path fill="none" stroke="midnightblue" d="M155.658,-97.5227C165.476,-98.775 175.625,-100.07 185.68,-101.352"/>
<polygon fill="midnightblue" stroke="midnightblue" points="185.326,-104.835 195.688,-102.629 186.212,-97.8914 185.326,-104.835"/>
</g>
<!-- Node4 -->
<g id="node4" class="node"><title>Node4</title>
<g id="a_node4"><a xlink:href="../../d2/d8b/classcellsociety__team01_1_1modelview_1_1_grid.html#a4b1af79b025398439c092eafb7c38891" target="_top" xlink:title="cellsociety_team01.modelview.\lGrid.setView">
<polygon fill="white" stroke="black" points="196,-49 196,-79 360,-79 360,-49 196,-49"/>
<text text-anchor="start" x="204" y="-67" font-family="Helvetica,sans-Serif" font-size="10.00">cellsociety_team01.modelview.</text>
<text text-anchor="middle" x="278" y="-56" font-family="Helvetica,sans-Serif" font-size="10.00">Grid.setView</text>
</a>
</g>
</g>
<!-- Node1&#45;&gt;Node4 -->
<g id="edge3" class="edge"><title>Node1&#45;&gt;Node4</title>
<path fill="none" stroke="midnightblue" d="M158.746,-78.4801C167.598,-77.3961 176.682,-76.2839 185.689,-75.1809"/>
<polygon fill="midnightblue" stroke="midnightblue" points="186.31,-78.6312 195.81,-73.9416 185.459,-71.683 186.31,-78.6312"/>
</g>
<!-- Node5 -->
<g id="node5" class="node"><title>Node5</title>
<g id="a_node5"><a xlink:href="../../d2/d8b/classcellsociety__team01_1_1modelview_1_1_grid.html#a6b0a7f18403280fcc5544f69805e3dbf" target="_top" xlink:title="cellsociety_team01.modelview.\lGrid.start">
<polygon fill="white" stroke="black" points="196,-0 196,-30 360,-30 360,-0 196,-0"/>
<text text-anchor="start" x="204" y="-18" font-family="Helvetica,sans-Serif" font-size="10.00">cellsociety_team01.modelview.</text>
<text text-anchor="middle" x="278" y="-7" font-family="Helvetica,sans-Serif" font-size="10.00">Grid.start</text>
</a>
</g>
</g>
<!-- Node1&#45;&gt;Node5 -->
<g id="edge4" class="edge"><title>Node1&#45;&gt;Node5</title>
<path fill="none" stroke="midnightblue" d="M102.376,-78.3516C125.286,-68.1825 162.842,-52.0055 196,-40 202.322,-37.7109 208.968,-35.4426 215.62,-33.2606"/>
<polygon fill="midnightblue" stroke="midnightblue" points="216.887,-36.5295 225.333,-30.1331 214.742,-29.8663 216.887,-36.5295"/>
</g>
</g>
</svg>
