<?xml version="1.0" encoding="UTF-8" standalone="no"?>
<!DOCTYPE svg PUBLIC "-//W3C//DTD SVG 1.1//EN"
 "http://www.w3.org/Graphics/SVG/1.1/DTD/svg11.dtd">
<!-- Generated by graphviz version 2.36.0 (20140111.2315)
 -->
<!-- Title: cellsociety_team01.CellState.ColorChangeIntState Pages: 1 -->
<svg width="262pt" height="268pt"
 viewBox="0.00 0.00 261.70 268.00" xmlns="http://www.w3.org/2000/svg" xmlns:xlink="http://www.w3.org/1999/xlink">
<g id="graph0" class="graph" transform="scale(1 1) rotate(0) translate(4 264)">
<title>cellsociety_team01.CellState.ColorChangeIntState</title>
<polygon fill="white" stroke="none" points="-4,4 -4,-264 257.696,-264 257.696,4 -4,4"/>
<!-- Node1 -->
<g id="node1" class="node"><title>Node1</title>
<polygon fill="#bfbfbf" stroke="black" points="21.6957,-1 21.6957,-31 179.696,-31 179.696,-1 21.6957,-1"/>
<text text-anchor="start" x="29.6957" y="-19" font-family="Helvetica,sans-Serif" font-size="10.00">cellsociety_team01.CellState.</text>
<text text-anchor="middle" x="100.696" y="-8" font-family="Helvetica,sans-Serif" font-size="10.00">ColorChangeIntState</text>
</g>
<!-- Node2 -->
<g id="node2" class="node"><title>Node2</title>
<g id="a_node2"><a xlink:href="../../d7/d26/classcellsociety__team01_1_1_cell_state_1_1_int_state.html" target="_top" xlink:title="cellsociety_team01.CellState.\lIntState">
<polygon fill="white" stroke="black" points="21.6957,-81 21.6957,-111 179.696,-111 179.696,-81 21.6957,-81"/>
<text text-anchor="start" x="29.6957" y="-99" font-family="Helvetica,sans-Serif" font-size="10.00">cellsociety_team01.CellState.</text>
<text text-anchor="middle" x="100.696" y="-88" font-family="Helvetica,sans-Serif" font-size="10.00">IntState</text>
</a>
</g>
</g>
<!-- Node2&#45;&gt;Node1 -->
<g id="edge1" class="edge"><title>Node2&#45;&gt;Node1</title>
<path fill="none" stroke="midnightblue" d="M100.696,-70.5644C100.696,-57.6243 100.696,-42.1862 100.696,-31.2157"/>
<polygon fill="midnightblue" stroke="midnightblue" points="97.1958,-70.6936 100.696,-80.6936 104.196,-70.6936 97.1958,-70.6936"/>
</g>
<!-- Node3 -->
<g id="node3" class="node"><title>Node3</title>
<g id="a_node3"><a xlink:href="../../d2/d65/classcellsociety__team01_1_1_cell_state_1_1_state.html" target="_top" xlink:title="cellsociety_team01.CellState.\lState">
<polygon fill="white" stroke="black" points="21.6957,-161 21.6957,-191 179.696,-191 179.696,-161 21.6957,-161"/>
<text text-anchor="start" x="29.6957" y="-179" font-family="Helvetica,sans-Serif" font-size="10.00">cellsociety_team01.CellState.</text>
<text text-anchor="middle" x="100.696" y="-168" font-family="Helvetica,sans-Serif" font-size="10.00">State</text>
</a>
</g>
</g>
<!-- Node3&#45;&gt;Node2 -->
<g id="edge2" class="edge"><title>Node3&#45;&gt;Node2</title>
<path fill="none" stroke="midnightblue" d="M100.696,-150.564C100.696,-137.624 100.696,-122.186 100.696,-111.216"/>
<polygon fill="midnightblue" stroke="midnightblue" points="97.1958,-150.694 100.696,-160.694 104.196,-150.694 97.1958,-150.694"/>
</g>
<!-- Node4 -->
<g id="node4" class="node"><title>Node4</title>
<polygon fill="white" stroke="#bfbfbf" points="8.19572,-240.5 8.19572,-259.5 49.1957,-259.5 49.1957,-240.5 8.19572,-240.5"/>
<text text-anchor="middle" x="28.6957" y="-247.5" font-family="Helvetica,sans-Serif" font-size="10.00">Color</text>
</g>
<!-- Node4&#45;&gt;Node1 -->
<g id="edge5" class="edge"><title>Node4&#45;&gt;Node1</title>
<path fill="none" stroke="#9a32cd" stroke-dasharray="5,2" d="M20.8639,-230.805C8.2156,-198.46 -12.8423,-129.691 12.6957,-80 24.2046,-57.6066 47.7759,-41.3951 67.6286,-31.0294"/>
<polygon fill="#9a32cd" stroke="#9a32cd" points="17.7225,-232.369 24.7515,-240.297 24.2003,-229.716 17.7225,-232.369"/>
<text text-anchor="middle" x="43.6957" y="-133.5" font-family="Helvetica,sans-Serif" font-size="10.00"> myBaselineColor</text>
</g>
<!-- Node4&#45;&gt;Node3 -->
<g id="edge3" class="edge"><title>Node4&#45;&gt;Node3</title>
<path fill="none" stroke="#9a32cd" stroke-dasharray="5,2" d="M44.3175,-233.378C56.8551,-220.841 74.3099,-203.386 86.4641,-191.232"/>
<polygon fill="#9a32cd" stroke="#9a32cd" points="41.834,-230.912 37.2378,-240.458 46.7838,-235.862 41.834,-230.912"/>
<text text-anchor="middle" x="89.1957" y="-213.5" font-family="Helvetica,sans-Serif" font-size="10.00"> myColor</text>
</g>
<!-- Node5 -->
<g id="node5" class="node"><title>Node5</title>
<polygon fill="white" stroke="#bfbfbf" points="197.696,-86.5 197.696,-105.5 253.696,-105.5 253.696,-86.5 197.696,-86.5"/>
<text text-anchor="middle" x="225.696" y="-93.5" font-family="Helvetica,sans-Serif" font-size="10.00">Random</text>
</g>
<!-- Node5&#45;&gt;Node1 -->
<g id="edge4" class="edge"><title>Node5&#45;&gt;Node1</title>
<path fill="none" stroke="#9a32cd" stroke-dasharray="5,2" d="M203.272,-81.0076C180.733,-66.9431 146.167,-45.3744 123.495,-31.227"/>
<polygon fill="#9a32cd" stroke="#9a32cd" points="201.504,-84.03 211.841,-86.3546 205.21,-78.0913 201.504,-84.03"/>
<text text-anchor="middle" x="199.696" y="-53.5" font-family="Helvetica,sans-Serif" font-size="10.00"> myRandom</text>
</g>
</g>
</svg>
