<?xml version="1.0" encoding="UTF-8" standalone="no"?>
<!DOCTYPE svg PUBLIC "-//W3C//DTD SVG 1.1//EN"
 "http://www.w3.org/Graphics/SVG/1.1/DTD/svg11.dtd">
<!-- Generated by graphviz version 2.36.0 (20140111.2315)
 -->
<!-- Title: cellsociety_team01.exceptions.BadStateException.handleException Pages: 1 -->
<svg width="1918pt" height="131pt"
 viewBox="0.00 0.00 1918.00 131.00" xmlns="http://www.w3.org/2000/svg" xmlns:xlink="http://www.w3.org/1999/xlink">
<g id="graph0" class="graph" transform="scale(1 1) rotate(0) translate(4 127)">
<title>cellsociety_team01.exceptions.BadStateException.handleException</title>
<polygon fill="white" stroke="none" points="-4,4 -4,-127 1914,-127 1914,4 -4,4"/>
<!-- Node1 -->
<g id="node1" class="node"><title>Node1</title>
<polygon fill="#bfbfbf" stroke="black" points="0,-68 0,-98 190,-98 190,-68 0,-68"/>
<text text-anchor="start" x="8" y="-86" font-family="Helvetica,sans-Serif" font-size="10.00">cellsociety_team01.exceptions.</text>
<text text-anchor="middle" x="95" y="-75" font-family="Helvetica,sans-Serif" font-size="10.00">BadStateException.handleException</text>
</g>
<!-- Node2 -->
<g id="node2" class="node"><title>Node2</title>
<g id="a_node2"><a xlink:href="../../da/df7/classcellsociety__team01_1_1simulations_1_1_simulation.html#af6dd9ee9d5ef64a7f1526fddb9e2ad69" target="_top" xlink:title="cellsociety_team01.simulations.\lSimulation.findState">
<polygon fill="white" stroke="black" points="226,-68 226,-98 396,-98 396,-68 226,-68"/>
<text text-anchor="start" x="234" y="-86" font-family="Helvetica,sans-Serif" font-size="10.00">cellsociety_team01.simulations.</text>
<text text-anchor="middle" x="311" y="-75" font-family="Helvetica,sans-Serif" font-size="10.00">Simulation.findState</text>
</a>
</g>
</g>
<!-- Node1&#45;&gt;Node2 -->
<g id="edge1" class="edge"><title>Node1&#45;&gt;Node2</title>
<path fill="none" stroke="midnightblue" d="M200.242,-83C208.838,-83 217.457,-83 225.879,-83"/>
<polygon fill="midnightblue" stroke="midnightblue" points="200.175,-79.5001 190.175,-83 200.175,-86.5001 200.175,-79.5001"/>
</g>
<!-- Node3 -->
<g id="node3" class="node"><title>Node3</title>
<g id="a_node3"><a xlink:href="../../db/d40/classcellsociety__team01_1_1parser_1_1_parser.html#a5ffbb8ad89f8a4a661d2204b837a070a" target="_top" xlink:title="cellsociety_team01.parser.\lParser.getState">
<polygon fill="white" stroke="black" points="432.5,-68 432.5,-98 577.5,-98 577.5,-68 432.5,-68"/>
<text text-anchor="start" x="440.5" y="-86" font-family="Helvetica,sans-Serif" font-size="10.00">cellsociety_team01.parser.</text>
<text text-anchor="middle" x="505" y="-75" font-family="Helvetica,sans-Serif" font-size="10.00">Parser.getState</text>
</a>
</g>
</g>
<!-- Node2&#45;&gt;Node3 -->
<g id="edge2" class="edge"><title>Node2&#45;&gt;Node3</title>
<path fill="none" stroke="midnightblue" d="M406.458,-83C415.207,-83 423.972,-83 432.464,-83"/>
<polygon fill="midnightblue" stroke="midnightblue" points="406.214,-79.5001 396.214,-83 406.214,-86.5001 406.214,-79.5001"/>
</g>
<!-- Node4 -->
<g id="node4" class="node"><title>Node4</title>
<g id="a_node4"><a xlink:href="../../db/d40/classcellsociety__team01_1_1parser_1_1_parser.html#a6328c0a6b8dab4bc6d860e80739fadca" target="_top" xlink:title="cellsociety_team01.parser.\lParser.placeGivenCells">
<polygon fill="white" stroke="black" points="614.5,-93 614.5,-123 759.5,-123 759.5,-93 614.5,-93"/>
<text text-anchor="start" x="622.5" y="-111" font-family="Helvetica,sans-Serif" font-size="10.00">cellsociety_team01.parser.</text>
<text text-anchor="middle" x="687" y="-100" font-family="Helvetica,sans-Serif" font-size="10.00">Parser.placeGivenCells</text>
</a>
</g>
</g>
<!-- Node3&#45;&gt;Node4 -->
<g id="edge3" class="edge"><title>Node3&#45;&gt;Node4</title>
<path fill="none" stroke="midnightblue" d="M587.634,-94.3381C596.528,-95.5734 605.532,-96.8239 614.295,-98.0409"/>
<polygon fill="midnightblue" stroke="midnightblue" points="588.044,-90.8615 577.658,-92.9525 587.081,-97.795 588.044,-90.8615"/>
</g>
<!-- Node12 -->
<g id="node12" class="node"><title>Node12</title>
<g id="a_node12"><a xlink:href="../../db/d40/classcellsociety__team01_1_1parser_1_1_parser.html#aaf8f8745b89e52aee75fa2920608bbac" target="_top" xlink:title="cellsociety_team01.parser.\lParser.fillMap">
<polygon fill="white" stroke="black" points="614.5,-44 614.5,-74 759.5,-74 759.5,-44 614.5,-44"/>
<text text-anchor="start" x="622.5" y="-62" font-family="Helvetica,sans-Serif" font-size="10.00">cellsociety_team01.parser.</text>
<text text-anchor="middle" x="687" y="-51" font-family="Helvetica,sans-Serif" font-size="10.00">Parser.fillMap</text>
</a>
</g>
</g>
<!-- Node3&#45;&gt;Node12 -->
<g id="edge12" class="edge"><title>Node3&#45;&gt;Node12</title>
<path fill="none" stroke="midnightblue" d="M587.634,-72.1154C596.528,-70.9296 605.532,-69.729 614.295,-68.5607"/>
<polygon fill="midnightblue" stroke="midnightblue" points="587.108,-68.6546 577.658,-73.4456 588.033,-75.5932 587.108,-68.6546"/>
</g>
<!-- Node5 -->
<g id="node5" class="node"><title>Node5</title>
<g id="a_node5"><a xlink:href="../../db/d40/classcellsociety__team01_1_1parser_1_1_parser.html#afa693f17f280ab1cf88baf2565c593a9" target="_top" xlink:title="cellsociety_team01.parser.\lParser.parseGrid">
<polygon fill="white" stroke="black" points="982.5,-49 982.5,-79 1127.5,-79 1127.5,-49 982.5,-49"/>
<text text-anchor="start" x="990.5" y="-67" font-family="Helvetica,sans-Serif" font-size="10.00">cellsociety_team01.parser.</text>
<text text-anchor="middle" x="1055" y="-56" font-family="Helvetica,sans-Serif" font-size="10.00">Parser.parseGrid</text>
</a>
</g>
</g>
<!-- Node4&#45;&gt;Node5 -->
<g id="edge4" class="edge"><title>Node4&#45;&gt;Node5</title>
<path fill="none" stroke="midnightblue" d="M770.044,-104.604C820.91,-101.765 887.489,-96.7244 946,-88 961.483,-85.6914 978.054,-82.4203 993.45,-79.0334"/>
<polygon fill="midnightblue" stroke="midnightblue" points="769.559,-101.125 759.762,-105.159 769.936,-108.114 769.559,-101.125"/>
</g>
<!-- Node6 -->
<g id="node6" class="node"><title>Node6</title>
<g id="a_node6"><a xlink:href="../../db/d40/classcellsociety__team01_1_1parser_1_1_parser.html#a31a05836dde41569f62542b9ea327f95" target="_top" xlink:title="cellsociety_team01.parser.\lParser.parseXmlFile">
<polygon fill="white" stroke="black" points="1164.5,-49 1164.5,-79 1309.5,-79 1309.5,-49 1164.5,-49"/>
<text text-anchor="start" x="1172.5" y="-67" font-family="Helvetica,sans-Serif" font-size="10.00">cellsociety_team01.parser.</text>
<text text-anchor="middle" x="1237" y="-56" font-family="Helvetica,sans-Serif" font-size="10.00">Parser.parseXmlFile</text>
</a>
</g>
</g>
<!-- Node5&#45;&gt;Node6 -->
<g id="edge5" class="edge"><title>Node5&#45;&gt;Node6</title>
<path fill="none" stroke="midnightblue" d="M1137.92,-64C1146.72,-64 1155.63,-64 1164.29,-64"/>
<polygon fill="midnightblue" stroke="midnightblue" points="1137.66,-60.5001 1127.66,-64 1137.66,-67.5001 1137.66,-60.5001"/>
</g>
<!-- Node7 -->
<g id="node7" class="node"><title>Node7</title>
<g id="a_node7"><a xlink:href="../../db/d10/classcellsociety__team01_1_1modelview_1_1_g_u_i.html#afa183319cc9816a6147cba0869ef82eb" target="_top" xlink:title="cellsociety_team01.modelview.\lGUI.loadXML">
<polygon fill="white" stroke="black" points="1346,-74 1346,-104 1510,-104 1510,-74 1346,-74"/>
<text text-anchor="start" x="1354" y="-92" font-family="Helvetica,sans-Serif" font-size="10.00">cellsociety_team01.modelview.</text>
<text text-anchor="middle" x="1428" y="-81" font-family="Helvetica,sans-Serif" font-size="10.00">GUI.loadXML</text>
</a>
</g>
</g>
<!-- Node6&#45;&gt;Node7 -->
<g id="edge6" class="edge"><title>Node6&#45;&gt;Node7</title>
<path fill="none" stroke="midnightblue" d="M1319.78,-74.8175C1328.42,-75.9604 1337.2,-77.1223 1345.84,-78.2642"/>
<polygon fill="midnightblue" stroke="midnightblue" points="1320.09,-71.3287 1309.72,-73.4871 1319.18,-78.2683 1320.09,-71.3287"/>
</g>
<!-- Node10 -->
<g id="node10" class="node"><title>Node10</title>
<g id="a_node10"><a xlink:href="../../db/d10/classcellsociety__team01_1_1modelview_1_1_g_u_i.html#a5c5e37ae72fe72af97fab2cb9a12b045" target="_top" xlink:title="cellsociety_team01.modelview.\lGUI.reset">
<polygon fill="white" stroke="black" points="1346,-25 1346,-55 1510,-55 1510,-25 1346,-25"/>
<text text-anchor="start" x="1354" y="-43" font-family="Helvetica,sans-Serif" font-size="10.00">cellsociety_team01.modelview.</text>
<text text-anchor="middle" x="1428" y="-32" font-family="Helvetica,sans-Serif" font-size="10.00">GUI.reset</text>
</a>
</g>
</g>
<!-- Node6&#45;&gt;Node10 -->
<g id="edge9" class="edge"><title>Node6&#45;&gt;Node10</title>
<path fill="none" stroke="midnightblue" d="M1319.78,-53.6152C1328.42,-52.518 1337.2,-51.4026 1345.84,-50.3064"/>
<polygon fill="midnightblue" stroke="midnightblue" points="1319.2,-50.1605 1309.72,-54.8924 1320.08,-57.1047 1319.2,-50.1605"/>
</g>
<!-- Node8 -->
<g id="node8" class="node"><title>Node8</title>
<g id="a_node8"><a xlink:href="../../db/d10/classcellsociety__team01_1_1modelview_1_1_g_u_i.html#a4072ce794f518e806e7a912892f1e9da" target="_top" xlink:title="cellsociety_team01.modelview.\lGUI.makeMenuBar">
<polygon fill="white" stroke="black" points="1546,-74 1546,-104 1710,-104 1710,-74 1546,-74"/>
<text text-anchor="start" x="1554" y="-92" font-family="Helvetica,sans-Serif" font-size="10.00">cellsociety_team01.modelview.</text>
<text text-anchor="middle" x="1628" y="-81" font-family="Helvetica,sans-Serif" font-size="10.00">GUI.makeMenuBar</text>
</a>
</g>
</g>
<!-- Node7&#45;&gt;Node8 -->
<g id="edge7" class="edge"><title>Node7&#45;&gt;Node8</title>
<path fill="none" stroke="midnightblue" d="M1520.36,-89C1528.82,-89 1537.35,-89 1545.7,-89"/>
<polygon fill="midnightblue" stroke="midnightblue" points="1520.11,-85.5001 1510.11,-89 1520.11,-92.5001 1520.11,-85.5001"/>
</g>
<!-- Node9 -->
<g id="node9" class="node"><title>Node9</title>
<g id="a_node9"><a xlink:href="../../db/d10/classcellsociety__team01_1_1modelview_1_1_g_u_i.html#a07bcff60812627c8dfe97f1aadc671e5" target="_top" xlink:title="cellsociety_team01.modelview.\lGUI.GUI">
<polygon fill="white" stroke="black" points="1746,-49 1746,-79 1910,-79 1910,-49 1746,-49"/>
<text text-anchor="start" x="1754" y="-67" font-family="Helvetica,sans-Serif" font-size="10.00">cellsociety_team01.modelview.</text>
<text text-anchor="middle" x="1828" y="-56" font-family="Helvetica,sans-Serif" font-size="10.00">GUI.GUI</text>
</a>
</g>
</g>
<!-- Node8&#45;&gt;Node9 -->
<g id="edge8" class="edge"><title>Node8&#45;&gt;Node9</title>
<path fill="none" stroke="midnightblue" d="M1720.08,-77.4994C1728.63,-76.4205 1737.25,-75.3316 1745.7,-74.2651"/>
<polygon fill="midnightblue" stroke="midnightblue" points="1719.59,-74.0342 1710.11,-78.7594 1720.47,-80.9791 1719.59,-74.0342"/>
</g>
<!-- Node11 -->
<g id="node11" class="node"><title>Node11</title>
<g id="a_node11"><a xlink:href="../../db/d10/classcellsociety__team01_1_1modelview_1_1_g_u_i.html#aa924c28ce131195d3f377b18177f6cb9" target="_top" xlink:title="cellsociety_team01.modelview.\lGUI.makeButtonsAndSlider">
<polygon fill="white" stroke="black" points="1546,-25 1546,-55 1710,-55 1710,-25 1546,-25"/>
<text text-anchor="start" x="1554" y="-43" font-family="Helvetica,sans-Serif" font-size="10.00">cellsociety_team01.modelview.</text>
<text text-anchor="middle" x="1628" y="-32" font-family="Helvetica,sans-Serif" font-size="10.00">GUI.makeButtonsAndSlider</text>
</a>
</g>
</g>
<!-- Node10&#45;&gt;Node11 -->
<g id="edge10" class="edge"><title>Node10&#45;&gt;Node11</title>
<path fill="none" stroke="midnightblue" d="M1520.36,-40C1528.82,-40 1537.35,-40 1545.7,-40"/>
<polygon fill="midnightblue" stroke="midnightblue" points="1520.11,-36.5001 1510.11,-40 1520.11,-43.5001 1520.11,-36.5001"/>
</g>
<!-- Node11&#45;&gt;Node9 -->
<g id="edge11" class="edge"><title>Node11&#45;&gt;Node9</title>
<path fill="none" stroke="midnightblue" d="M1720.08,-51.0406C1728.63,-52.0763 1737.25,-53.1217 1745.7,-54.1455"/>
<polygon fill="midnightblue" stroke="midnightblue" points="1720.45,-47.5598 1710.11,-49.831 1719.61,-54.5089 1720.45,-47.5598"/>
</g>
<!-- Node13 -->
<g id="node13" class="node"><title>Node13</title>
<g id="a_node13"><a xlink:href="../../db/d40/classcellsociety__team01_1_1parser_1_1_parser.html#a0ed864ecdf8cf6ee778114ebe5c605ea" target="_top" xlink:title="cellsociety_team01.parser.\lParser.placeDistributedCells">
<polygon fill="white" stroke="black" points="796.5,-49 796.5,-79 945.5,-79 945.5,-49 796.5,-49"/>
<text text-anchor="start" x="804.5" y="-67" font-family="Helvetica,sans-Serif" font-size="10.00">cellsociety_team01.parser.</text>
<text text-anchor="middle" x="871" y="-56" font-family="Helvetica,sans-Serif" font-size="10.00">Parser.placeDistributedCells</text>
</a>
</g>
</g>
<!-- Node12&#45;&gt;Node13 -->
<g id="edge13" class="edge"><title>Node12&#45;&gt;Node13</title>
<path fill="none" stroke="midnightblue" d="M769.918,-61.2505C778.709,-61.492 787.615,-61.7367 796.302,-61.9753"/>
<polygon fill="midnightblue" stroke="midnightblue" points="769.762,-57.745 759.67,-60.969 769.57,-64.7424 769.762,-57.745"/>
</g>
<!-- Node14 -->
<g id="node14" class="node"><title>Node14</title>
<g id="a_node14"><a xlink:href="../../db/d40/classcellsociety__team01_1_1parser_1_1_parser.html#aaaea4078e4a144cf51ab40a295f4f396" target="_top" xlink:title="cellsociety_team01.parser.\lParser.placeRandomCells">
<polygon fill="white" stroke="black" points="798.5,-0 798.5,-30 943.5,-30 943.5,-0 798.5,-0"/>
<text text-anchor="start" x="806.5" y="-18" font-family="Helvetica,sans-Serif" font-size="10.00">cellsociety_team01.parser.</text>
<text text-anchor="middle" x="871" y="-7" font-family="Helvetica,sans-Serif" font-size="10.00">Parser.placeRandomCells</text>
</a>
</g>
</g>
<!-- Node12&#45;&gt;Node14 -->
<g id="edge15" class="edge"><title>Node12&#45;&gt;Node14</title>
<path fill="none" stroke="midnightblue" d="M759.877,-41.6231C775.737,-37.7888 792.409,-33.7582 807.846,-30.0262"/>
<polygon fill="midnightblue" stroke="midnightblue" points="759.023,-38.2288 750.125,-43.9808 760.668,-45.0328 759.023,-38.2288"/>
</g>
<!-- Node13&#45;&gt;Node5 -->
<g id="edge14" class="edge"><title>Node13&#45;&gt;Node5</title>
<path fill="none" stroke="midnightblue" d="M955.534,-64C964.473,-64 973.508,-64 982.292,-64"/>
<polygon fill="midnightblue" stroke="midnightblue" points="955.502,-60.5001 945.502,-64 955.502,-67.5001 955.502,-60.5001"/>
</g>
<!-- Node14&#45;&gt;Node5 -->
<g id="edge16" class="edge"><title>Node14&#45;&gt;Node5</title>
<path fill="none" stroke="midnightblue" d="M937.923,-32.7485C957.648,-38.0591 979.078,-43.8288 998.094,-48.9484"/>
<polygon fill="midnightblue" stroke="midnightblue" points="938.657,-29.3216 928.091,-30.1014 936.837,-36.0809 938.657,-29.3216"/>
</g>
</g>
</svg>
