<?xml version="1.0" encoding="UTF-8" standalone="no"?>
<!DOCTYPE svg PUBLIC "-//W3C//DTD SVG 1.1//EN"
 "http://www.w3.org/Graphics/SVG/1.1/DTD/svg11.dtd">
<!-- Generated by graphviz version 2.36.0 (20140111.2315)
 -->
<!-- Title: cellsociety_team01.rules.UphillMovementRule.apply Pages: 1 -->
<svg width="538pt" height="406pt"
 viewBox="0.00 0.00 538.00 405.65" xmlns="http://www.w3.org/2000/svg" xmlns:xlink="http://www.w3.org/1999/xlink">
<g id="graph0" class="graph" transform="scale(1 1) rotate(0) translate(4 401.652)">
<title>cellsociety_team01.rules.UphillMovementRule.apply</title>
<polygon fill="white" stroke="none" points="-4,4 -4,-401.652 534,-401.652 534,4 -4,4"/>
<!-- Node1 -->
<g id="node1" class="node"><title>Node1</title>
<polygon fill="#bfbfbf" stroke="black" points="0,-191 0,-221 142,-221 142,-191 0,-191"/>
<text text-anchor="start" x="8" y="-209" font-family="Helvetica,sans-Serif" font-size="10.00">cellsociety_team01.rules.</text>
<text text-anchor="middle" x="71" y="-198" font-family="Helvetica,sans-Serif" font-size="10.00">UphillMovementRule.apply</text>
</g>
<!-- Node2 -->
<g id="node2" class="node"><title>Node2</title>
<g id="a_node2"><a xlink:href="../../d2/d25/classcellsociety__team01_1_1_cell_state_1_1_cell.html#aa6bcfad0327a829e6349b8e8ee1b995f" target="_top" xlink:title="cellsociety_team01.CellState.\lCell.getCurState">
<polygon fill="white" stroke="black" points="372,-355 372,-385 530,-385 530,-355 372,-355"/>
<text text-anchor="start" x="380" y="-373" font-family="Helvetica,sans-Serif" font-size="10.00">cellsociety_team01.CellState.</text>
<text text-anchor="middle" x="451" y="-362" font-family="Helvetica,sans-Serif" font-size="10.00">Cell.getCurState</text>
</a>
</g>
</g>
<!-- Node1&#45;&gt;Node2 -->
<g id="edge1" class="edge"><title>Node1&#45;&gt;Node2</title>
<path fill="none" stroke="midnightblue" d="M76.2294,-221.121C86.7549,-255.475 117.725,-338.974 178,-372 242.072,-407.107 328.043,-399.051 386.044,-387.179"/>
<polygon fill="midnightblue" stroke="midnightblue" points="387.133,-390.526 396.178,-385.008 385.666,-383.681 387.133,-390.526"/>
</g>
<!-- Node3 -->
<g id="node3" class="node"><title>Node3</title>
<g id="a_node3"><a xlink:href="../../d2/d65/classcellsociety__team01_1_1_cell_state_1_1_state.html#a07b2228fbfaefdee4c700c42ee6aef40" target="_top" xlink:title="cellsociety_team01.CellState.\lState.getInt">
<polygon fill="white" stroke="black" points="372,-260 372,-290 530,-290 530,-260 372,-260"/>
<text text-anchor="start" x="380" y="-278" font-family="Helvetica,sans-Serif" font-size="10.00">cellsociety_team01.CellState.</text>
<text text-anchor="middle" x="451" y="-267" font-family="Helvetica,sans-Serif" font-size="10.00">State.getInt</text>
</a>
</g>
</g>
<!-- Node1&#45;&gt;Node3 -->
<g id="edge2" class="edge"><title>Node1&#45;&gt;Node3</title>
<path fill="none" stroke="midnightblue" d="M142.189,-205.067C195.962,-205.846 271.609,-210.189 336,-226 362.607,-232.533 390.914,-244.669 412.664,-255.227"/>
<polygon fill="midnightblue" stroke="midnightblue" points="411.349,-258.482 421.863,-259.788 414.458,-252.21 411.349,-258.482"/>
</g>
<!-- Node4 -->
<g id="node4" class="node"><title>Node4</title>
<g id="a_node4"><a xlink:href="../../d2/d25/classcellsociety__team01_1_1_cell_state_1_1_cell.html#a27e65c7283de9ee085111dfe41798a81" target="_top" xlink:title="cellsociety_team01.CellState.\lCell.getNextState">
<polygon fill="white" stroke="black" points="178,-284 178,-314 336,-314 336,-284 178,-284"/>
<text text-anchor="start" x="186" y="-302" font-family="Helvetica,sans-Serif" font-size="10.00">cellsociety_team01.CellState.</text>
<text text-anchor="middle" x="257" y="-291" font-family="Helvetica,sans-Serif" font-size="10.00">Cell.getNextState</text>
</a>
</g>
</g>
<!-- Node1&#45;&gt;Node4 -->
<g id="edge3" class="edge"><title>Node1&#45;&gt;Node4</title>
<path fill="none" stroke="midnightblue" d="M92.1883,-221.226C112.859,-236.256 146.354,-259.091 178,-274 182.703,-276.216 187.654,-278.309 192.686,-280.269"/>
<polygon fill="midnightblue" stroke="midnightblue" points="191.826,-283.682 202.419,-283.871 194.255,-277.117 191.826,-283.682"/>
</g>
<!-- Node5 -->
<g id="node5" class="node"><title>Node5</title>
<g id="a_node5"><a xlink:href="../../d2/d25/classcellsociety__team01_1_1_cell_state_1_1_cell.html#ae0b32ba9532fbce3c09d4200e70eedc4" target="_top" xlink:title="cellsociety_team01.CellState.\lCell.isUpdated">
<polygon fill="white" stroke="black" points="178,-235 178,-265 336,-265 336,-235 178,-235"/>
<text text-anchor="start" x="186" y="-253" font-family="Helvetica,sans-Serif" font-size="10.00">cellsociety_team01.CellState.</text>
<text text-anchor="middle" x="257" y="-242" font-family="Helvetica,sans-Serif" font-size="10.00">Cell.isUpdated</text>
</a>
</g>
</g>
<!-- Node1&#45;&gt;Node5 -->
<g id="edge4" class="edge"><title>Node1&#45;&gt;Node5</title>
<path fill="none" stroke="midnightblue" d="M134.808,-221.019C150.413,-224.751 167.267,-228.781 183.303,-232.616"/>
<polygon fill="midnightblue" stroke="midnightblue" points="182.623,-236.052 193.163,-234.974 184.251,-229.244 182.623,-236.052"/>
</g>
<!-- Node6 -->
<g id="node6" class="node"><title>Node6</title>
<g id="a_node6"><a xlink:href="../../d4/d0c/classcellsociety__team01_1_1rules_1_1_uphill_movement_rule.html#a8daf14bc1c2e2367b7175e4cf2b1902a" target="_top" xlink:title="cellsociety_team01.rules.\lUphillMovementRule.pickCell">
<polygon fill="white" stroke="black" points="181,-333 181,-363 333,-363 333,-333 181,-333"/>
<text text-anchor="start" x="189" y="-351" font-family="Helvetica,sans-Serif" font-size="10.00">cellsociety_team01.rules.</text>
<text text-anchor="middle" x="257" y="-340" font-family="Helvetica,sans-Serif" font-size="10.00">UphillMovementRule.pickCell</text>
</a>
</g>
</g>
<!-- Node1&#45;&gt;Node6 -->
<g id="edge5" class="edge"><title>Node1&#45;&gt;Node6</title>
<path fill="none" stroke="midnightblue" d="M81.8297,-221.265C98.6075,-246.135 135.146,-295.385 178,-323 181.175,-325.046 184.531,-326.937 187.996,-328.682"/>
<polygon fill="midnightblue" stroke="midnightblue" points="186.824,-331.995 197.374,-332.97 189.735,-325.629 186.824,-331.995"/>
</g>
<!-- Node7 -->
<g id="node7" class="node"><title>Node7</title>
<g id="a_node7"><a xlink:href="../../d2/d25/classcellsociety__team01_1_1_cell_state_1_1_cell.html#ae02ddaa5eb4249785047ccdf957c712e" target="_top" xlink:title="cellsociety_team01.CellState.\lCell.setCurState">
<polygon fill="white" stroke="black" points="178,-147 178,-177 336,-177 336,-147 178,-147"/>
<text text-anchor="start" x="186" y="-165" font-family="Helvetica,sans-Serif" font-size="10.00">cellsociety_team01.CellState.</text>
<text text-anchor="middle" x="257" y="-154" font-family="Helvetica,sans-Serif" font-size="10.00">Cell.setCurState</text>
</a>
</g>
</g>
<!-- Node1&#45;&gt;Node7 -->
<g id="edge8" class="edge"><title>Node1&#45;&gt;Node7</title>
<path fill="none" stroke="midnightblue" d="M134.808,-190.981C150.413,-187.249 167.267,-183.219 183.303,-179.384"/>
<polygon fill="midnightblue" stroke="midnightblue" points="184.251,-182.756 193.163,-177.026 182.623,-175.948 184.251,-182.756"/>
</g>
<!-- Node8 -->
<g id="node8" class="node"><title>Node8</title>
<g id="a_node8"><a xlink:href="../../d2/d65/classcellsociety__team01_1_1_cell_state_1_1_state.html#a6ce41bf4246dfd7ce7481b7d549c089a" target="_top" xlink:title="cellsociety_team01.CellState.\lState.setInt">
<polygon fill="white" stroke="black" points="178,-98 178,-128 336,-128 336,-98 178,-98"/>
<text text-anchor="start" x="186" y="-116" font-family="Helvetica,sans-Serif" font-size="10.00">cellsociety_team01.CellState.</text>
<text text-anchor="middle" x="257" y="-105" font-family="Helvetica,sans-Serif" font-size="10.00">State.setInt</text>
</a>
</g>
</g>
<!-- Node1&#45;&gt;Node8 -->
<g id="edge9" class="edge"><title>Node1&#45;&gt;Node8</title>
<path fill="none" stroke="midnightblue" d="M92.1883,-190.774C112.859,-175.744 146.354,-152.909 178,-138 182.703,-135.784 187.654,-133.691 192.686,-131.731"/>
<polygon fill="midnightblue" stroke="midnightblue" points="194.255,-134.883 202.419,-128.129 191.826,-128.318 194.255,-134.883"/>
</g>
<!-- Node9 -->
<g id="node9" class="node"><title>Node9</title>
<g id="a_node9"><a xlink:href="../../d2/d25/classcellsociety__team01_1_1_cell_state_1_1_cell.html#a555615a89d24bf27ad94d192d8df8465" target="_top" xlink:title="cellsociety_team01.CellState.\lCell.setNextState">
<polygon fill="white" stroke="black" points="178,-49 178,-79 336,-79 336,-49 178,-49"/>
<text text-anchor="start" x="186" y="-67" font-family="Helvetica,sans-Serif" font-size="10.00">cellsociety_team01.CellState.</text>
<text text-anchor="middle" x="257" y="-56" font-family="Helvetica,sans-Serif" font-size="10.00">Cell.setNextState</text>
</a>
</g>
</g>
<!-- Node1&#45;&gt;Node9 -->
<g id="edge10" class="edge"><title>Node1&#45;&gt;Node9</title>
<path fill="none" stroke="midnightblue" d="M81.8297,-190.735C98.6075,-165.865 135.146,-116.615 178,-89 181.175,-86.954 184.531,-85.0634 187.996,-83.318"/>
<polygon fill="midnightblue" stroke="midnightblue" points="189.735,-86.3714 197.374,-79.03 186.824,-80.0053 189.735,-86.3714"/>
</g>
<!-- Node10 -->
<g id="node10" class="node"><title>Node10</title>
<g id="a_node10"><a xlink:href="../../d2/d25/classcellsociety__team01_1_1_cell_state_1_1_cell.html#a13f1c90701e1d1ab91e47b03eada7a69" target="_top" xlink:title="cellsociety_team01.CellState.\lCell.setUpdated">
<polygon fill="white" stroke="black" points="178,-0 178,-30 336,-30 336,-0 178,-0"/>
<text text-anchor="start" x="186" y="-18" font-family="Helvetica,sans-Serif" font-size="10.00">cellsociety_team01.CellState.</text>
<text text-anchor="middle" x="257" y="-7" font-family="Helvetica,sans-Serif" font-size="10.00">Cell.setUpdated</text>
</a>
</g>
</g>
<!-- Node1&#45;&gt;Node10 -->
<g id="edge11" class="edge"><title>Node1&#45;&gt;Node10</title>
<path fill="none" stroke="midnightblue" d="M77.598,-190.66C90.2859,-158.023 124.363,-81.3143 178,-40 180.324,-38.2103 182.779,-36.5467 185.33,-35.0004"/>
<polygon fill="midnightblue" stroke="midnightblue" points="187.158,-37.9917 194.319,-30.1831 183.851,-31.8219 187.158,-37.9917"/>
</g>
<!-- Node6&#45;&gt;Node2 -->
<g id="edge6" class="edge"><title>Node6&#45;&gt;Node2</title>
<path fill="none" stroke="midnightblue" d="M333.057,-356.6C342.502,-357.683 352.232,-358.797 361.856,-359.9"/>
<polygon fill="midnightblue" stroke="midnightblue" points="361.497,-363.382 371.83,-361.043 362.293,-356.427 361.497,-363.382"/>
</g>
<!-- Node6&#45;&gt;Node3 -->
<g id="edge7" class="edge"><title>Node6&#45;&gt;Node3</title>
<path fill="none" stroke="midnightblue" d="M307.324,-332.919C316.889,-329.79 326.798,-326.405 336,-323 359.753,-314.212 385.816,-303.334 407.018,-294.156"/>
<polygon fill="midnightblue" stroke="midnightblue" points="408.622,-297.276 416.392,-290.073 405.827,-290.858 408.622,-297.276"/>
</g>
</g>
</svg>
