<?xml version="1.0" encoding="UTF-8" standalone="no"?>
<!DOCTYPE svg PUBLIC "-//W3C//DTD SVG 1.1//EN"
 "http://www.w3.org/Graphics/SVG/1.1/DTD/svg11.dtd">
<!-- Generated by graphviz version 2.36.0 (20140111.2315)
 -->
<!-- Title: cellsociety_team01.rules.UphillMovementRule.pickCell Pages: 1 -->
<svg width="338pt" height="38pt"
 viewBox="0.00 0.00 338.00 38.00" xmlns="http://www.w3.org/2000/svg" xmlns:xlink="http://www.w3.org/1999/xlink">
<g id="graph0" class="graph" transform="scale(1 1) rotate(0) translate(4 34)">
<title>cellsociety_team01.rules.UphillMovementRule.pickCell</title>
<polygon fill="white" stroke="none" points="-4,4 -4,-34 334,-34 334,4 -4,4"/>
<!-- Node1 -->
<g id="node1" class="node"><title>Node1</title>
<polygon fill="#bfbfbf" stroke="black" points="0,-0 0,-30 152,-30 152,-0 0,-0"/>
<text text-anchor="start" x="8" y="-18" font-family="Helvetica,sans-Serif" font-size="10.00">cellsociety_team01.rules.</text>
<text text-anchor="middle" x="76" y="-7" font-family="Helvetica,sans-Serif" font-size="10.00">UphillMovementRule.pickCell</text>
</g>
<!-- Node2 -->
<g id="node2" class="node"><title>Node2</title>
<g id="a_node2"><a xlink:href="../../d4/d0c/classcellsociety__team01_1_1rules_1_1_uphill_movement_rule.html#a7c3becfa5ede6439f068dfbb086b650c" target="_top" xlink:title="cellsociety_team01.rules.\lUphillMovementRule.apply">
<polygon fill="white" stroke="black" points="188,-0 188,-30 330,-30 330,-0 188,-0"/>
<text text-anchor="start" x="196" y="-18" font-family="Helvetica,sans-Serif" font-size="10.00">cellsociety_team01.rules.</text>
<text text-anchor="middle" x="259" y="-7" font-family="Helvetica,sans-Serif" font-size="10.00">UphillMovementRule.apply</text>
</a>
</g>
</g>
<!-- Node1&#45;&gt;Node2 -->
<g id="edge1" class="edge"><title>Node1&#45;&gt;Node2</title>
<path fill="none" stroke="midnightblue" d="M162.253,-15C170.867,-15 179.546,-15 187.974,-15"/>
<polygon fill="midnightblue" stroke="midnightblue" points="162.188,-11.5001 152.188,-15 162.188,-18.5001 162.188,-11.5001"/>
</g>
</g>
</svg>
