<?xml version="1.0" encoding="UTF-8" standalone="no"?>
<!DOCTYPE svg PUBLIC "-//W3C//DTD SVG 1.1//EN"
 "http://www.w3.org/Graphics/SVG/1.1/DTD/svg11.dtd">
<!-- Generated by graphviz version 2.36.0 (20140111.2315)
 -->
<!-- Title: cellsociety_team01.rules.UphillMovementRule Pages: 1 -->
<svg width="416pt" height="258pt"
 viewBox="0.00 0.00 416.00 258.00" xmlns="http://www.w3.org/2000/svg" xmlns:xlink="http://www.w3.org/1999/xlink">
<g id="graph0" class="graph" transform="scale(1 1) rotate(0) translate(4 254)">
<title>cellsociety_team01.rules.UphillMovementRule</title>
<polygon fill="white" stroke="none" points="-4,4 -4,-254 412,-254 412,4 -4,4"/>
<!-- Node1 -->
<g id="node1" class="node"><title>Node1</title>
<polygon fill="#bfbfbf" stroke="black" points="186,-1 186,-31 324,-31 324,-1 186,-1"/>
<text text-anchor="start" x="194" y="-19" font-family="Helvetica,sans-Serif" font-size="10.00">cellsociety_team01.rules.</text>
<text text-anchor="middle" x="255" y="-8" font-family="Helvetica,sans-Serif" font-size="10.00">UphillMovementRule</text>
</g>
<!-- Node2 -->
<g id="node2" class="node"><title>Node2</title>
<g id="a_node2"><a xlink:href="../../d9/d10/classcellsociety__team01_1_1rules_1_1_movement_rule.html" target="_top" xlink:title="cellsociety_team01.rules.\lMovementRule">
<polygon fill="white" stroke="black" points="186,-71 186,-101 324,-101 324,-71 186,-71"/>
<text text-anchor="start" x="194" y="-89" font-family="Helvetica,sans-Serif" font-size="10.00">cellsociety_team01.rules.</text>
<text text-anchor="middle" x="255" y="-78" font-family="Helvetica,sans-Serif" font-size="10.00">MovementRule</text>
</a>
</g>
</g>
<!-- Node2&#45;&gt;Node1 -->
<g id="edge1" class="edge"><title>Node2&#45;&gt;Node1</title>
<path fill="none" stroke="midnightblue" d="M255,-60.7688C255,-50.8141 255,-39.6384 255,-31.0716"/>
<polygon fill="midnightblue" stroke="midnightblue" points="251.5,-60.9103 255,-70.9104 258.5,-60.9104 251.5,-60.9103"/>
</g>
<!-- Node3 -->
<g id="node3" class="node"><title>Node3</title>
<g id="a_node3"><a xlink:href="../../d4/d46/classcellsociety__team01_1_1rules_1_1_rule.html" target="_top" xlink:title="cellsociety_team01.rules.Rule">
<polygon fill="white" stroke="black" points="0,-156.5 0,-175.5 158,-175.5 158,-156.5 0,-156.5"/>
<text text-anchor="middle" x="79" y="-163.5" font-family="Helvetica,sans-Serif" font-size="10.00">cellsociety_team01.rules.Rule</text>
</a>
</g>
</g>
<!-- Node3&#45;&gt;Node2 -->
<g id="edge2" class="edge"><title>Node3&#45;&gt;Node2</title>
<path fill="none" stroke="midnightblue" d="M107.69,-152.285C139.399,-138.232 190.326,-115.662 223.222,-101.084"/>
<polygon fill="midnightblue" stroke="midnightblue" points="106.232,-149.103 98.5075,-156.355 109.068,-155.503 106.232,-149.103"/>
</g>
<!-- Node4 -->
<g id="node4" class="node"><title>Node4</title>
<g id="a_node4"><a xlink:href="../../d2/d65/classcellsociety__team01_1_1_cell_state_1_1_state.html" target="_top" xlink:title="cellsociety_team01.CellState.\lState">
<polygon fill="white" stroke="black" points="176,-151 176,-181 334,-181 334,-151 176,-151"/>
<text text-anchor="start" x="184" y="-169" font-family="Helvetica,sans-Serif" font-size="10.00">cellsociety_team01.CellState.</text>
<text text-anchor="middle" x="255" y="-158" font-family="Helvetica,sans-Serif" font-size="10.00">State</text>
</a>
</g>
</g>
<!-- Node4&#45;&gt;Node2 -->
<g id="edge3" class="edge"><title>Node4&#45;&gt;Node2</title>
<path fill="none" stroke="#9a32cd" stroke-dasharray="5,2" d="M255,-140.564C255,-127.624 255,-112.186 255,-101.216"/>
<polygon fill="#9a32cd" stroke="#9a32cd" points="251.5,-140.694 255,-150.694 258.5,-140.694 251.5,-140.694"/>
<text text-anchor="middle" x="292" y="-123.5" font-family="Helvetica,sans-Serif" font-size="10.00"> myTargetState</text>
</g>
<!-- Node5 -->
<g id="node5" class="node"><title>Node5</title>
<polygon fill="white" stroke="#bfbfbf" points="234.5,-230.5 234.5,-249.5 275.5,-249.5 275.5,-230.5 234.5,-230.5"/>
<text text-anchor="middle" x="255" y="-237.5" font-family="Helvetica,sans-Serif" font-size="10.00">Color</text>
</g>
<!-- Node5&#45;&gt;Node4 -->
<g id="edge4" class="edge"><title>Node5&#45;&gt;Node4</title>
<path fill="none" stroke="#9a32cd" stroke-dasharray="5,2" d="M255,-220.085C255,-207.915 255,-192.354 255,-181.232"/>
<polygon fill="#9a32cd" stroke="#9a32cd" points="251.5,-220.458 255,-230.458 258.5,-220.458 251.5,-220.458"/>
<text text-anchor="middle" x="276.5" y="-203.5" font-family="Helvetica,sans-Serif" font-size="10.00"> myColor</text>
</g>
<!-- Node6 -->
<g id="node6" class="node"><title>Node6</title>
<polygon fill="white" stroke="#bfbfbf" points="352,-156.5 352,-175.5 408,-175.5 408,-156.5 352,-156.5"/>
<text text-anchor="middle" x="380" y="-163.5" font-family="Helvetica,sans-Serif" font-size="10.00">Random</text>
</g>
<!-- Node6&#45;&gt;Node2 -->
<g id="edge5" class="edge"><title>Node6&#45;&gt;Node2</title>
<path fill="none" stroke="#9a32cd" stroke-dasharray="5,2" d="M365.954,-148.88C357.185,-139.539 345.262,-128.068 333,-120 321.699,-112.565 308.447,-106.211 296.106,-101.123"/>
<polygon fill="#9a32cd" stroke="#9a32cd" points="363.466,-151.347 372.777,-156.401 368.651,-146.643 363.466,-151.347"/>
<text text-anchor="middle" x="378" y="-123.5" font-family="Helvetica,sans-Serif" font-size="10.00"> myRandom</text>
</g>
</g>
</svg>
