<?xml version="1.0" encoding="UTF-8" standalone="no"?>
<!DOCTYPE svg PUBLIC "-//W3C//DTD SVG 1.1//EN"
 "http://www.w3.org/Graphics/SVG/1.1/DTD/svg11.dtd">
<!-- Generated by graphviz version 2.36.0 (20140111.2315)
 -->
<!-- Title: cellsociety_team01.modelview.SquareGridModel Pages: 1 -->
<svg width="184pt" height="200pt"
 viewBox="0.00 0.00 184.00 200.00" xmlns="http://www.w3.org/2000/svg" xmlns:xlink="http://www.w3.org/1999/xlink">
<g id="graph0" class="graph" transform="scale(1 1) rotate(0) translate(4 196)">
<title>cellsociety_team01.modelview.SquareGridModel</title>
<polygon fill="white" stroke="none" points="-4,4 -4,-196 180,-196 180,4 -4,4"/>
<!-- Node1 -->
<g id="node1" class="node"><title>Node1</title>
<polygon fill="#bfbfbf" stroke="black" points="0,-1 0,-31 164,-31 164,-1 0,-1"/>
<text text-anchor="start" x="8" y="-19" font-family="Helvetica,sans-Serif" font-size="10.00">cellsociety_team01.modelview.</text>
<text text-anchor="middle" x="82" y="-8" font-family="Helvetica,sans-Serif" font-size="10.00">SquareGridModel</text>
</g>
<!-- Node2 -->
<g id="node2" class="node"><title>Node2</title>
<g id="a_node2"><a xlink:href="../../d7/de1/classcellsociety__team01_1_1modelview_1_1_grid_model.html" target="_top" xlink:title="cellsociety_team01.modelview.\lGridModel">
<polygon fill="white" stroke="black" points="0,-71 0,-101 164,-101 164,-71 0,-71"/>
<text text-anchor="start" x="8" y="-89" font-family="Helvetica,sans-Serif" font-size="10.00">cellsociety_team01.modelview.</text>
<text text-anchor="middle" x="82" y="-78" font-family="Helvetica,sans-Serif" font-size="10.00">GridModel</text>
</a>
</g>
</g>
<!-- Node2&#45;&gt;Node1 -->
<g id="edge1" class="edge"><title>Node2&#45;&gt;Node1</title>
<path fill="none" stroke="midnightblue" d="M82,-60.7688C82,-50.8141 82,-39.6384 82,-31.0716"/>
<polygon fill="midnightblue" stroke="midnightblue" points="78.5001,-60.9103 82,-70.9104 85.5001,-60.9104 78.5001,-60.9103"/>
</g>
<!-- Node3 -->
<g id="node3" class="node"><title>Node3</title>
<g id="a_node3"><a xlink:href="../../d4/df6/classcellsociety__team01_1_1modelview_1_1_refine_neighbors_algorithm.html" target="_top" xlink:title="cellsociety_team01.modelview.\lRefineNeighborsAlgorithm">
<polygon fill="white" stroke="black" points="0,-161 0,-191 164,-191 164,-161 0,-161"/>
<text text-anchor="start" x="8" y="-179" font-family="Helvetica,sans-Serif" font-size="10.00">cellsociety_team01.modelview.</text>
<text text-anchor="middle" x="82" y="-168" font-family="Helvetica,sans-Serif" font-size="10.00">RefineNeighborsAlgorithm</text>
</a>
</g>
</g>
<!-- Node3&#45;&gt;Node2 -->
<g id="edge2" class="edge"><title>Node3&#45;&gt;Node2</title>
<path fill="none" stroke="#9a32cd" stroke-dasharray="5,2" d="M82,-150.654C82,-134.711 82,-114.434 82,-101.104"/>
<polygon fill="#9a32cd" stroke="#9a32cd" points="78.5001,-150.861 82,-160.861 85.5001,-150.861 78.5001,-150.861"/>
<text text-anchor="middle" x="129" y="-134" font-family="Helvetica,sans-Serif" font-size="10.00"> myRefineAlgorithm</text>
<text text-anchor="middle" x="129" y="-123" font-family="Helvetica,sans-Serif" font-size="10.00">rna</text>
</g>
</g>
</svg>
