<?xml version="1.0" encoding="UTF-8" standalone="no"?>
<!DOCTYPE svg PUBLIC "-//W3C//DTD SVG 1.1//EN"
 "http://www.w3.org/Graphics/SVG/1.1/DTD/svg11.dtd">
<!-- Generated by graphviz version 2.36.0 (20140111.2315)
 -->
<!-- Title: cellsociety_team01.modelview.TriangleGridView.drawTriangle Pages: 1 -->
<svg width="388pt" height="38pt"
 viewBox="0.00 0.00 388.00 38.00" xmlns="http://www.w3.org/2000/svg" xmlns:xlink="http://www.w3.org/1999/xlink">
<g id="graph0" class="graph" transform="scale(1 1) rotate(0) translate(4 34)">
<title>cellsociety_team01.modelview.TriangleGridView.drawTriangle</title>
<polygon fill="white" stroke="none" points="-4,4 -4,-34 384,-34 384,4 -4,4"/>
<!-- Node1 -->
<g id="node1" class="node"><title>Node1</title>
<polygon fill="#bfbfbf" stroke="black" points="0,-0 0,-30 164,-30 164,-0 0,-0"/>
<text text-anchor="start" x="8" y="-18" font-family="Helvetica,sans-Serif" font-size="10.00">cellsociety_team01.modelview.</text>
<text text-anchor="middle" x="82" y="-7" font-family="Helvetica,sans-Serif" font-size="10.00">TriangleGridView.drawTriangle</text>
</g>
<!-- Node2 -->
<g id="node2" class="node"><title>Node2</title>
<g id="a_node2"><a xlink:href="../../d3/d67/classcellsociety__team01_1_1modelview_1_1_triangle_grid_view.html#a956d6a78507e574003286ac0e7cdf121" target="_top" xlink:title="cellsociety_team01.modelview.\lTriangleGridView.setGridCellStates">
<polygon fill="white" stroke="black" points="200.5,-0 200.5,-30 379.5,-30 379.5,-0 200.5,-0"/>
<text text-anchor="start" x="208.5" y="-18" font-family="Helvetica,sans-Serif" font-size="10.00">cellsociety_team01.modelview.</text>
<text text-anchor="middle" x="290" y="-7" font-family="Helvetica,sans-Serif" font-size="10.00">TriangleGridView.setGridCellStates</text>
</a>
</g>
</g>
<!-- Node1&#45;&gt;Node2 -->
<g id="edge1" class="edge"><title>Node1&#45;&gt;Node2</title>
<path fill="none" stroke="midnightblue" d="M174.273,-15C182.979,-15 191.797,-15 200.476,-15"/>
<polygon fill="midnightblue" stroke="midnightblue" points="174.121,-11.5001 164.121,-15 174.121,-18.5001 174.121,-11.5001"/>
</g>
</g>
</svg>
