<?xml version="1.0" encoding="UTF-8" standalone="no"?>
<!DOCTYPE svg PUBLIC "-//W3C//DTD SVG 1.1//EN"
 "http://www.w3.org/Graphics/SVG/1.1/DTD/svg11.dtd">
<!-- Generated by graphviz version 2.36.0 (20140111.2315)
 -->
<!-- Title: cellsociety_team01.rules.PriorityForwardRule.apply Pages: 1 -->
<svg width="340pt" height="430pt"
 viewBox="0.00 0.00 340.00 430.00" xmlns="http://www.w3.org/2000/svg" xmlns:xlink="http://www.w3.org/1999/xlink">
<g id="graph0" class="graph" transform="scale(1 1) rotate(0) translate(4 426)">
<title>cellsociety_team01.rules.PriorityForwardRule.apply</title>
<polygon fill="white" stroke="none" points="-4,4 -4,-426 336,-426 336,4 -4,4"/>
<!-- Node1 -->
<g id="node1" class="node"><title>Node1</title>
<polygon fill="#bfbfbf" stroke="black" points="0,-196 0,-226 138,-226 138,-196 0,-196"/>
<text text-anchor="start" x="8" y="-214" font-family="Helvetica,sans-Serif" font-size="10.00">cellsociety_team01.rules.</text>
<text text-anchor="middle" x="69" y="-203" font-family="Helvetica,sans-Serif" font-size="10.00">PriorityForwardRule.apply</text>
</g>
<!-- Node2 -->
<g id="node2" class="node"><title>Node2</title>
<g id="a_node2"><a xlink:href="../../d2/d25/classcellsociety__team01_1_1_cell_state_1_1_cell.html#aa6bcfad0327a829e6349b8e8ee1b995f" target="_top" xlink:title="cellsociety_team01.CellState.\lCell.getCurState">
<polygon fill="white" stroke="black" points="174,-392 174,-422 332,-422 332,-392 174,-392"/>
<text text-anchor="start" x="182" y="-410" font-family="Helvetica,sans-Serif" font-size="10.00">cellsociety_team01.CellState.</text>
<text text-anchor="middle" x="253" y="-399" font-family="Helvetica,sans-Serif" font-size="10.00">Cell.getCurState</text>
</a>
</g>
</g>
<!-- Node1&#45;&gt;Node2 -->
<g id="edge1" class="edge"><title>Node1&#45;&gt;Node2</title>
<path fill="none" stroke="midnightblue" d="M75.0044,-226.043C86.805,-259.215 119.548,-339.101 174,-382 176.304,-383.815 178.743,-385.5 181.28,-387.064"/>
<polygon fill="midnightblue" stroke="midnightblue" points="179.775,-390.229 190.232,-391.928 183.117,-384.078 179.775,-390.229"/>
</g>
<!-- Node3 -->
<g id="node3" class="node"><title>Node3</title>
<g id="a_node3"><a xlink:href="../../d2/d65/classcellsociety__team01_1_1_cell_state_1_1_state.html#aaa6d7979f3d8636a77542dd52ffd3aa6" target="_top" xlink:title="cellsociety_team01.CellState.\lState.getFunc">
<polygon fill="white" stroke="black" points="174,-343 174,-373 332,-373 332,-343 174,-343"/>
<text text-anchor="start" x="182" y="-361" font-family="Helvetica,sans-Serif" font-size="10.00">cellsociety_team01.CellState.</text>
<text text-anchor="middle" x="253" y="-350" font-family="Helvetica,sans-Serif" font-size="10.00">State.getFunc</text>
</a>
</g>
</g>
<!-- Node1&#45;&gt;Node3 -->
<g id="edge2" class="edge"><title>Node1&#45;&gt;Node3</title>
<path fill="none" stroke="midnightblue" d="M78.8971,-226.112C94.776,-251.797 130.45,-303.997 174,-333 177.081,-335.052 180.342,-336.945 183.714,-338.69"/>
<polygon fill="midnightblue" stroke="midnightblue" points="182.314,-341.899 192.855,-342.973 185.284,-335.561 182.314,-341.899"/>
</g>
<!-- Node4 -->
<g id="node4" class="node"><title>Node4</title>
<g id="a_node4"><a xlink:href="../../d8/dd6/classcellsociety__team01_1_1rules_1_1_priority_forward_rule.html#a4819cc6d7211ae171e2919bd5905147f" target="_top" xlink:title="cellsociety_team01.rules.\lPriorityForwardRule.getIndex">
<polygon fill="white" stroke="black" points="177.5,-294 177.5,-324 328.5,-324 328.5,-294 177.5,-294"/>
<text text-anchor="start" x="185.5" y="-312" font-family="Helvetica,sans-Serif" font-size="10.00">cellsociety_team01.rules.</text>
<text text-anchor="middle" x="253" y="-301" font-family="Helvetica,sans-Serif" font-size="10.00">PriorityForwardRule.getIndex</text>
</a>
</g>
</g>
<!-- Node1&#45;&gt;Node4 -->
<g id="edge3" class="edge"><title>Node1&#45;&gt;Node4</title>
<path fill="none" stroke="midnightblue" d="M88.0877,-226.271C108.031,-242.471 141.6,-267.904 174,-284 178.501,-286.236 183.246,-288.331 188.082,-290.282"/>
<polygon fill="midnightblue" stroke="midnightblue" points="186.862,-293.563 197.453,-293.854 189.355,-287.022 186.862,-293.563"/>
</g>
<!-- Node5 -->
<g id="node5" class="node"><title>Node5</title>
<g id="a_node5"><a xlink:href="../../d2/d65/classcellsociety__team01_1_1_cell_state_1_1_state.html#a07b2228fbfaefdee4c700c42ee6aef40" target="_top" xlink:title="cellsociety_team01.CellState.\lState.getInt">
<polygon fill="white" stroke="black" points="174,-245 174,-275 332,-275 332,-245 174,-245"/>
<text text-anchor="start" x="182" y="-263" font-family="Helvetica,sans-Serif" font-size="10.00">cellsociety_team01.CellState.</text>
<text text-anchor="middle" x="253" y="-252" font-family="Helvetica,sans-Serif" font-size="10.00">State.getInt</text>
</a>
</g>
</g>
<!-- Node1&#45;&gt;Node5 -->
<g id="edge4" class="edge"><title>Node1&#45;&gt;Node5</title>
<path fill="none" stroke="midnightblue" d="M126.091,-226.101C145.123,-231.225 166.555,-236.996 186.269,-242.303"/>
<polygon fill="midnightblue" stroke="midnightblue" points="185.528,-245.728 196.094,-244.948 187.348,-238.969 185.528,-245.728"/>
</g>
<!-- Node6 -->
<g id="node6" class="node"><title>Node6</title>
<g id="a_node6"><a xlink:href="../../d2/d25/classcellsociety__team01_1_1_cell_state_1_1_cell.html#a27e65c7283de9ee085111dfe41798a81" target="_top" xlink:title="cellsociety_team01.CellState.\lCell.getNextState">
<polygon fill="white" stroke="black" points="174,-196 174,-226 332,-226 332,-196 174,-196"/>
<text text-anchor="start" x="182" y="-214" font-family="Helvetica,sans-Serif" font-size="10.00">cellsociety_team01.CellState.</text>
<text text-anchor="middle" x="253" y="-203" font-family="Helvetica,sans-Serif" font-size="10.00">Cell.getNextState</text>
</a>
</g>
</g>
<!-- Node1&#45;&gt;Node6 -->
<g id="edge5" class="edge"><title>Node1&#45;&gt;Node6</title>
<path fill="none" stroke="midnightblue" d="M138.029,-211C146.447,-211 155.146,-211 163.81,-211"/>
<polygon fill="midnightblue" stroke="midnightblue" points="163.947,-214.5 173.947,-211 163.947,-207.5 163.947,-214.5"/>
</g>
<!-- Node7 -->
<g id="node7" class="node"><title>Node7</title>
<g id="a_node7"><a xlink:href="../../d2/d25/classcellsociety__team01_1_1_cell_state_1_1_cell.html#ae02ddaa5eb4249785047ccdf957c712e" target="_top" xlink:title="cellsociety_team01.CellState.\lCell.setCurState">
<polygon fill="white" stroke="black" points="174,-147 174,-177 332,-177 332,-147 174,-147"/>
<text text-anchor="start" x="182" y="-165" font-family="Helvetica,sans-Serif" font-size="10.00">cellsociety_team01.CellState.</text>
<text text-anchor="middle" x="253" y="-154" font-family="Helvetica,sans-Serif" font-size="10.00">Cell.setCurState</text>
</a>
</g>
</g>
<!-- Node1&#45;&gt;Node7 -->
<g id="edge6" class="edge"><title>Node1&#45;&gt;Node7</title>
<path fill="none" stroke="midnightblue" d="M126.091,-195.899C145.123,-190.775 166.555,-185.004 186.269,-179.697"/>
<polygon fill="midnightblue" stroke="midnightblue" points="187.348,-183.031 196.094,-177.052 185.528,-176.272 187.348,-183.031"/>
</g>
<!-- Node8 -->
<g id="node8" class="node"><title>Node8</title>
<g id="a_node8"><a xlink:href="../../d2/d65/classcellsociety__team01_1_1_cell_state_1_1_state.html#a6ce41bf4246dfd7ce7481b7d549c089a" target="_top" xlink:title="cellsociety_team01.CellState.\lState.setInt">
<polygon fill="white" stroke="black" points="174,-98 174,-128 332,-128 332,-98 174,-98"/>
<text text-anchor="start" x="182" y="-116" font-family="Helvetica,sans-Serif" font-size="10.00">cellsociety_team01.CellState.</text>
<text text-anchor="middle" x="253" y="-105" font-family="Helvetica,sans-Serif" font-size="10.00">State.setInt</text>
</a>
</g>
</g>
<!-- Node1&#45;&gt;Node8 -->
<g id="edge7" class="edge"><title>Node1&#45;&gt;Node8</title>
<path fill="none" stroke="midnightblue" d="M88.0877,-195.729C108.031,-179.529 141.6,-154.096 174,-138 178.501,-135.764 183.246,-133.669 188.082,-131.718"/>
<polygon fill="midnightblue" stroke="midnightblue" points="189.355,-134.978 197.453,-128.146 186.862,-128.437 189.355,-134.978"/>
</g>
<!-- Node9 -->
<g id="node9" class="node"><title>Node9</title>
<g id="a_node9"><a xlink:href="../../d2/d25/classcellsociety__team01_1_1_cell_state_1_1_cell.html#a555615a89d24bf27ad94d192d8df8465" target="_top" xlink:title="cellsociety_team01.CellState.\lCell.setNextState">
<polygon fill="white" stroke="black" points="174,-49 174,-79 332,-79 332,-49 174,-49"/>
<text text-anchor="start" x="182" y="-67" font-family="Helvetica,sans-Serif" font-size="10.00">cellsociety_team01.CellState.</text>
<text text-anchor="middle" x="253" y="-56" font-family="Helvetica,sans-Serif" font-size="10.00">Cell.setNextState</text>
</a>
</g>
</g>
<!-- Node1&#45;&gt;Node9 -->
<g id="edge8" class="edge"><title>Node1&#45;&gt;Node9</title>
<path fill="none" stroke="midnightblue" d="M78.8971,-195.888C94.776,-170.203 130.45,-118.003 174,-89 177.081,-86.9481 180.342,-85.0551 183.714,-83.3097"/>
<polygon fill="midnightblue" stroke="midnightblue" points="185.284,-86.4393 192.855,-79.0271 182.314,-80.1006 185.284,-86.4393"/>
</g>
<!-- Node10 -->
<g id="node10" class="node"><title>Node10</title>
<g id="a_node10"><a xlink:href="../../d2/d25/classcellsociety__team01_1_1_cell_state_1_1_cell.html#a13f1c90701e1d1ab91e47b03eada7a69" target="_top" xlink:title="cellsociety_team01.CellState.\lCell.setUpdated">
<polygon fill="white" stroke="black" points="174,-0 174,-30 332,-30 332,-0 174,-0"/>
<text text-anchor="start" x="182" y="-18" font-family="Helvetica,sans-Serif" font-size="10.00">cellsociety_team01.CellState.</text>
<text text-anchor="middle" x="253" y="-7" font-family="Helvetica,sans-Serif" font-size="10.00">Cell.setUpdated</text>
</a>
</g>
</g>
<!-- Node1&#45;&gt;Node10 -->
<g id="edge9" class="edge"><title>Node1&#45;&gt;Node10</title>
<path fill="none" stroke="midnightblue" d="M75.0044,-195.957C86.805,-162.785 119.548,-82.8985 174,-40 176.304,-38.185 178.743,-36.5001 181.28,-34.9363"/>
<polygon fill="midnightblue" stroke="midnightblue" points="183.117,-37.9217 190.232,-30.072 179.775,-31.771 183.117,-37.9217"/>
</g>
</g>
</svg>
