<?xml version="1.0" encoding="UTF-8" standalone="no"?>
<!DOCTYPE svg PUBLIC "-//W3C//DTD SVG 1.1//EN"
 "http://www.w3.org/Graphics/SVG/1.1/DTD/svg11.dtd">
<!-- Generated by graphviz version 2.36.0 (20140111.2315)
 -->
<!-- Title: cellsociety_team01.Pair.getX Pages: 1 -->
<svg width="1788pt" height="285pt"
 viewBox="0.00 0.00 1788.00 284.81" xmlns="http://www.w3.org/2000/svg" xmlns:xlink="http://www.w3.org/1999/xlink">
<g id="graph0" class="graph" transform="scale(1 1) rotate(0) translate(4 280.815)">
<title>cellsociety_team01.Pair.getX</title>
<polygon fill="white" stroke="none" points="-4,4 -4,-280.815 1784,-280.815 1784,4 -4,4"/>
<!-- Node1 -->
<g id="node1" class="node"><title>Node1</title>
<polygon fill="#bfbfbf" stroke="black" points="0.5,-140.315 0.5,-159.315 153.5,-159.315 153.5,-140.315 0.5,-140.315"/>
<text text-anchor="middle" x="77" y="-147.315" font-family="Helvetica,sans-Serif" font-size="10.00">cellsociety_team01.Pair.getX</text>
</g>
<!-- Node2 -->
<g id="node2" class="node"><title>Node2</title>
<g id="a_node2"><a xlink:href="../../db/d40/classcellsociety__team01_1_1parser_1_1_parser.html#a13ce7871e46a22a59e23540c9b83ef01" target="_top" xlink:title="cellsociety_team01.parser.\lParser.addCell">
<polygon fill="white" stroke="black" points="209.5,-216.815 209.5,-246.815 354.5,-246.815 354.5,-216.815 209.5,-216.815"/>
<text text-anchor="start" x="217.5" y="-234.815" font-family="Helvetica,sans-Serif" font-size="10.00">cellsociety_team01.parser.</text>
<text text-anchor="middle" x="282" y="-223.815" font-family="Helvetica,sans-Serif" font-size="10.00">Parser.addCell</text>
</a>
</g>
</g>
<!-- Node1&#45;&gt;Node2 -->
<g id="edge1" class="edge"><title>Node1&#45;&gt;Node2</title>
<path fill="none" stroke="midnightblue" d="M105.985,-163.914C128.406,-174.939 160.825,-190.278 190,-201.815 203.458,-207.137 218.279,-212.306 231.982,-216.812"/>
<polygon fill="midnightblue" stroke="midnightblue" points="107.246,-160.633 96.7317,-159.329 104.138,-166.905 107.246,-160.633"/>
</g>
<!-- Node11 -->
<g id="node11" class="node"><title>Node11</title>
<g id="a_node11"><a xlink:href="../../db/d40/classcellsociety__team01_1_1parser_1_1_parser.html#aaf8f8745b89e52aee75fa2920608bbac" target="_top" xlink:title="cellsociety_team01.parser.\lParser.fillMap">
<polygon fill="white" stroke="black" points="440.5,-199.815 440.5,-229.815 585.5,-229.815 585.5,-199.815 440.5,-199.815"/>
<text text-anchor="start" x="448.5" y="-217.815" font-family="Helvetica,sans-Serif" font-size="10.00">cellsociety_team01.parser.</text>
<text text-anchor="middle" x="513" y="-206.815" font-family="Helvetica,sans-Serif" font-size="10.00">Parser.fillMap</text>
</a>
</g>
</g>
<!-- Node1&#45;&gt;Node11 -->
<g id="edge17" class="edge"><title>Node1&#45;&gt;Node11</title>
<path fill="none" stroke="midnightblue" d="M142.414,-161.039C157.98,-163.669 174.575,-166.405 190,-168.815 275.922,-182.238 374.994,-196.158 440.301,-205.119"/>
<polygon fill="midnightblue" stroke="midnightblue" points="142.801,-157.554 132.356,-159.33 141.629,-164.456 142.801,-157.554"/>
</g>
<!-- Node14 -->
<g id="node14" class="node"><title>Node14</title>
<g id="a_node14"><a xlink:href="../../d8/d80/classcellsociety__team01_1_1_pair.html#ab81dd371aa0a18e345d83de86eabad75" target="_top" xlink:title="cellsociety_team01.Pair.compareTo">
<polygon fill="white" stroke="black" points="190,-140.315 190,-159.315 374,-159.315 374,-140.315 190,-140.315"/>
<text text-anchor="middle" x="282" y="-147.315" font-family="Helvetica,sans-Serif" font-size="10.00">cellsociety_team01.Pair.compareTo</text>
</a>
</g>
</g>
<!-- Node1&#45;&gt;Node14 -->
<g id="edge16" class="edge"><title>Node1&#45;&gt;Node14</title>
<path fill="none" stroke="midnightblue" d="M163.68,-149.815C172.351,-149.815 181.18,-149.815 189.905,-149.815"/>
<polygon fill="midnightblue" stroke="midnightblue" points="163.59,-146.315 153.59,-149.815 163.59,-153.315 163.59,-146.315"/>
</g>
<!-- Node15 -->
<g id="node15" class="node"><title>Node15</title>
<g id="a_node15"><a xlink:href="../../d4/df6/classcellsociety__team01_1_1modelview_1_1_refine_neighbors_algorithm.html#ad13484163dff119fcc623ff7b4d7d1de" target="_top" xlink:title="cellsociety_team01.modelview.\lRefineNeighborsAlgorithm.findCell\lForPair">
<polygon fill="white" stroke="black" points="193,-80.315 193,-121.315 371,-121.315 371,-80.315 193,-80.315"/>
<text text-anchor="start" x="201" y="-109.315" font-family="Helvetica,sans-Serif" font-size="10.00">cellsociety_team01.modelview.</text>
<text text-anchor="start" x="201" y="-98.315" font-family="Helvetica,sans-Serif" font-size="10.00">RefineNeighborsAlgorithm.findCell</text>
<text text-anchor="middle" x="282" y="-87.315" font-family="Helvetica,sans-Serif" font-size="10.00">ForPair</text>
</a>
</g>
</g>
<!-- Node1&#45;&gt;Node15 -->
<g id="edge18" class="edge"><title>Node1&#45;&gt;Node15</title>
<path fill="none" stroke="midnightblue" d="M127.376,-137.897C147.931,-132.935 172.399,-127.029 195.699,-121.405"/>
<polygon fill="midnightblue" stroke="midnightblue" points="126.522,-134.502 117.622,-140.251 128.164,-141.307 126.522,-134.502"/>
</g>
<!-- Node19 -->
<g id="node19" class="node"><title>Node19</title>
<g id="a_node19"><a xlink:href="../../d2/d8b/classcellsociety__team01_1_1modelview_1_1_grid.html#a5ef5ff3a343f1c3ab0d043de6c0bc450" target="_top" xlink:title="cellsociety_team01.modelview.\lGrid.setBounds">
<polygon fill="white" stroke="black" points="652,-38.815 652,-68.815 816,-68.815 816,-38.815 652,-38.815"/>
<text text-anchor="start" x="660" y="-56.815" font-family="Helvetica,sans-Serif" font-size="10.00">cellsociety_team01.modelview.</text>
<text text-anchor="middle" x="734" y="-45.815" font-family="Helvetica,sans-Serif" font-size="10.00">Grid.setBounds</text>
</a>
</g>
</g>
<!-- Node1&#45;&gt;Node19 -->
<g id="edge22" class="edge"><title>Node1&#45;&gt;Node19</title>
<path fill="none" stroke="midnightblue" d="M96.8408,-133.384C118.119,-115.609 154.432,-87.5718 190,-70.815 281.683,-27.6206 309.548,-24.2673 410,-10.815 500.745,1.33747 525.86,5.22465 616,-10.815 645.829,-16.1228 678.024,-28.4853 701.076,-38.599"/>
<polygon fill="midnightblue" stroke="midnightblue" points="94.3003,-130.949 88.943,-140.09 98.8312,-136.285 94.3003,-130.949"/>
</g>
<!-- Node3 -->
<g id="node3" class="node"><title>Node3</title>
<g id="a_node3"><a xlink:href="../../db/d40/classcellsociety__team01_1_1parser_1_1_parser.html#a6328c0a6b8dab4bc6d860e80739fadca" target="_top" xlink:title="cellsociety_team01.parser.\lParser.placeGivenCells">
<polygon fill="white" stroke="black" points="661.5,-246.815 661.5,-276.815 806.5,-276.815 806.5,-246.815 661.5,-246.815"/>
<text text-anchor="start" x="669.5" y="-264.815" font-family="Helvetica,sans-Serif" font-size="10.00">cellsociety_team01.parser.</text>
<text text-anchor="middle" x="734" y="-253.815" font-family="Helvetica,sans-Serif" font-size="10.00">Parser.placeGivenCells</text>
</a>
</g>
</g>
<!-- Node2&#45;&gt;Node3 -->
<g id="edge2" class="edge"><title>Node2&#45;&gt;Node3</title>
<path fill="none" stroke="midnightblue" d="M364.902,-237.275C449.66,-242.926 580.727,-251.663 661.454,-257.045"/>
<polygon fill="midnightblue" stroke="midnightblue" points="365.012,-233.775 354.801,-236.602 364.546,-240.759 365.012,-233.775"/>
</g>
<!-- Node2&#45;&gt;Node11 -->
<g id="edge11" class="edge"><title>Node2&#45;&gt;Node11</title>
<path fill="none" stroke="midnightblue" d="M364.586,-225.758C389.29,-223.924 416.229,-221.925 440.24,-220.142"/>
<polygon fill="midnightblue" stroke="midnightblue" points="364.228,-222.275 354.515,-226.506 364.747,-229.256 364.228,-222.275"/>
</g>
<!-- Node4 -->
<g id="node4" class="node"><title>Node4</title>
<g id="a_node4"><a xlink:href="../../db/d40/classcellsociety__team01_1_1parser_1_1_parser.html#afa693f17f280ab1cf88baf2565c593a9" target="_top" xlink:title="cellsociety_team01.parser.\lParser.parseGrid">
<polygon fill="white" stroke="black" points="852.5,-172.815 852.5,-202.815 997.5,-202.815 997.5,-172.815 852.5,-172.815"/>
<text text-anchor="start" x="860.5" y="-190.815" font-family="Helvetica,sans-Serif" font-size="10.00">cellsociety_team01.parser.</text>
<text text-anchor="middle" x="925" y="-179.815" font-family="Helvetica,sans-Serif" font-size="10.00">Parser.parseGrid</text>
</a>
</g>
</g>
<!-- Node3&#45;&gt;Node4 -->
<g id="edge3" class="edge"><title>Node3&#45;&gt;Node4</title>
<path fill="none" stroke="midnightblue" d="M796.745,-243.651C803.286,-241.462 809.806,-239.165 816,-236.815 842.566,-226.735 871.874,-213.284 893.248,-203.025"/>
<polygon fill="midnightblue" stroke="midnightblue" points="795.603,-240.342 787.185,-246.776 797.777,-246.996 795.603,-240.342"/>
</g>
<!-- Node5 -->
<g id="node5" class="node"><title>Node5</title>
<g id="a_node5"><a xlink:href="../../db/d40/classcellsociety__team01_1_1parser_1_1_parser.html#a31a05836dde41569f62542b9ea327f95" target="_top" xlink:title="cellsociety_team01.parser.\lParser.parseXmlFile">
<polygon fill="white" stroke="black" points="1034.5,-172.815 1034.5,-202.815 1179.5,-202.815 1179.5,-172.815 1034.5,-172.815"/>
<text text-anchor="start" x="1042.5" y="-190.815" font-family="Helvetica,sans-Serif" font-size="10.00">cellsociety_team01.parser.</text>
<text text-anchor="middle" x="1107" y="-179.815" font-family="Helvetica,sans-Serif" font-size="10.00">Parser.parseXmlFile</text>
</a>
</g>
</g>
<!-- Node4&#45;&gt;Node5 -->
<g id="edge4" class="edge"><title>Node4&#45;&gt;Node5</title>
<path fill="none" stroke="midnightblue" d="M1007.92,-187.815C1016.72,-187.815 1025.63,-187.815 1034.29,-187.815"/>
<polygon fill="midnightblue" stroke="midnightblue" points="1007.66,-184.315 997.658,-187.815 1007.66,-191.315 1007.66,-184.315"/>
</g>
<!-- Node6 -->
<g id="node6" class="node"><title>Node6</title>
<g id="a_node6"><a xlink:href="../../db/d10/classcellsociety__team01_1_1modelview_1_1_g_u_i.html#afa183319cc9816a6147cba0869ef82eb" target="_top" xlink:title="cellsociety_team01.modelview.\lGUI.loadXML">
<polygon fill="white" stroke="black" points="1216,-197.815 1216,-227.815 1380,-227.815 1380,-197.815 1216,-197.815"/>
<text text-anchor="start" x="1224" y="-215.815" font-family="Helvetica,sans-Serif" font-size="10.00">cellsociety_team01.modelview.</text>
<text text-anchor="middle" x="1298" y="-204.815" font-family="Helvetica,sans-Serif" font-size="10.00">GUI.loadXML</text>
</a>
</g>
</g>
<!-- Node5&#45;&gt;Node6 -->
<g id="edge5" class="edge"><title>Node5&#45;&gt;Node6</title>
<path fill="none" stroke="midnightblue" d="M1189.78,-198.633C1198.42,-199.775 1207.2,-200.937 1215.84,-202.079"/>
<polygon fill="midnightblue" stroke="midnightblue" points="1190.09,-195.144 1179.72,-197.302 1189.18,-202.083 1190.09,-195.144"/>
</g>
<!-- Node9 -->
<g id="node9" class="node"><title>Node9</title>
<g id="a_node9"><a xlink:href="../../db/d10/classcellsociety__team01_1_1modelview_1_1_g_u_i.html#a5c5e37ae72fe72af97fab2cb9a12b045" target="_top" xlink:title="cellsociety_team01.modelview.\lGUI.reset">
<polygon fill="white" stroke="black" points="1216,-148.815 1216,-178.815 1380,-178.815 1380,-148.815 1216,-148.815"/>
<text text-anchor="start" x="1224" y="-166.815" font-family="Helvetica,sans-Serif" font-size="10.00">cellsociety_team01.modelview.</text>
<text text-anchor="middle" x="1298" y="-155.815" font-family="Helvetica,sans-Serif" font-size="10.00">GUI.reset</text>
</a>
</g>
</g>
<!-- Node5&#45;&gt;Node9 -->
<g id="edge8" class="edge"><title>Node5&#45;&gt;Node9</title>
<path fill="none" stroke="midnightblue" d="M1189.78,-177.43C1198.42,-176.333 1207.2,-175.218 1215.84,-174.121"/>
<polygon fill="midnightblue" stroke="midnightblue" points="1189.2,-173.975 1179.72,-178.707 1190.08,-180.92 1189.2,-173.975"/>
</g>
<!-- Node7 -->
<g id="node7" class="node"><title>Node7</title>
<g id="a_node7"><a xlink:href="../../db/d10/classcellsociety__team01_1_1modelview_1_1_g_u_i.html#a4072ce794f518e806e7a912892f1e9da" target="_top" xlink:title="cellsociety_team01.modelview.\lGUI.makeMenuBar">
<polygon fill="white" stroke="black" points="1416,-197.815 1416,-227.815 1580,-227.815 1580,-197.815 1416,-197.815"/>
<text text-anchor="start" x="1424" y="-215.815" font-family="Helvetica,sans-Serif" font-size="10.00">cellsociety_team01.modelview.</text>
<text text-anchor="middle" x="1498" y="-204.815" font-family="Helvetica,sans-Serif" font-size="10.00">GUI.makeMenuBar</text>
</a>
</g>
</g>
<!-- Node6&#45;&gt;Node7 -->
<g id="edge6" class="edge"><title>Node6&#45;&gt;Node7</title>
<path fill="none" stroke="midnightblue" d="M1390.36,-212.815C1398.82,-212.815 1407.35,-212.815 1415.7,-212.815"/>
<polygon fill="midnightblue" stroke="midnightblue" points="1390.11,-209.315 1380.11,-212.815 1390.11,-216.315 1390.11,-209.315"/>
</g>
<!-- Node8 -->
<g id="node8" class="node"><title>Node8</title>
<g id="a_node8"><a xlink:href="../../db/d10/classcellsociety__team01_1_1modelview_1_1_g_u_i.html#a07bcff60812627c8dfe97f1aadc671e5" target="_top" xlink:title="cellsociety_team01.modelview.\lGUI.GUI">
<polygon fill="white" stroke="black" points="1616,-172.815 1616,-202.815 1780,-202.815 1780,-172.815 1616,-172.815"/>
<text text-anchor="start" x="1624" y="-190.815" font-family="Helvetica,sans-Serif" font-size="10.00">cellsociety_team01.modelview.</text>
<text text-anchor="middle" x="1698" y="-179.815" font-family="Helvetica,sans-Serif" font-size="10.00">GUI.GUI</text>
</a>
</g>
</g>
<!-- Node7&#45;&gt;Node8 -->
<g id="edge7" class="edge"><title>Node7&#45;&gt;Node8</title>
<path fill="none" stroke="midnightblue" d="M1590.08,-201.314C1598.63,-200.235 1607.25,-199.147 1615.7,-198.08"/>
<polygon fill="midnightblue" stroke="midnightblue" points="1589.59,-197.849 1580.11,-202.574 1590.47,-204.794 1589.59,-197.849"/>
</g>
<!-- Node10 -->
<g id="node10" class="node"><title>Node10</title>
<g id="a_node10"><a xlink:href="../../db/d10/classcellsociety__team01_1_1modelview_1_1_g_u_i.html#aa924c28ce131195d3f377b18177f6cb9" target="_top" xlink:title="cellsociety_team01.modelview.\lGUI.makeButtonsAndSlider">
<polygon fill="white" stroke="black" points="1416,-148.815 1416,-178.815 1580,-178.815 1580,-148.815 1416,-148.815"/>
<text text-anchor="start" x="1424" y="-166.815" font-family="Helvetica,sans-Serif" font-size="10.00">cellsociety_team01.modelview.</text>
<text text-anchor="middle" x="1498" y="-155.815" font-family="Helvetica,sans-Serif" font-size="10.00">GUI.makeButtonsAndSlider</text>
</a>
</g>
</g>
<!-- Node9&#45;&gt;Node10 -->
<g id="edge9" class="edge"><title>Node9&#45;&gt;Node10</title>
<path fill="none" stroke="midnightblue" d="M1390.36,-163.815C1398.82,-163.815 1407.35,-163.815 1415.7,-163.815"/>
<polygon fill="midnightblue" stroke="midnightblue" points="1390.11,-160.315 1380.11,-163.815 1390.11,-167.315 1390.11,-160.315"/>
</g>
<!-- Node10&#45;&gt;Node8 -->
<g id="edge10" class="edge"><title>Node10&#45;&gt;Node8</title>
<path fill="none" stroke="midnightblue" d="M1590.08,-174.856C1598.63,-175.891 1607.25,-176.937 1615.7,-177.96"/>
<polygon fill="midnightblue" stroke="midnightblue" points="1590.45,-171.375 1580.11,-173.646 1589.61,-178.324 1590.45,-171.375"/>
</g>
<!-- Node12 -->
<g id="node12" class="node"><title>Node12</title>
<g id="a_node12"><a xlink:href="../../db/d40/classcellsociety__team01_1_1parser_1_1_parser.html#a0ed864ecdf8cf6ee778114ebe5c605ea" target="_top" xlink:title="cellsociety_team01.parser.\lParser.placeDistributedCells">
<polygon fill="white" stroke="black" points="659.5,-197.815 659.5,-227.815 808.5,-227.815 808.5,-197.815 659.5,-197.815"/>
<text text-anchor="start" x="667.5" y="-215.815" font-family="Helvetica,sans-Serif" font-size="10.00">cellsociety_team01.parser.</text>
<text text-anchor="middle" x="734" y="-204.815" font-family="Helvetica,sans-Serif" font-size="10.00">Parser.placeDistributedCells</text>
</a>
</g>
</g>
<!-- Node11&#45;&gt;Node12 -->
<g id="edge12" class="edge"><title>Node11&#45;&gt;Node12</title>
<path fill="none" stroke="midnightblue" d="M595.799,-214.068C616.616,-213.878 638.863,-213.675 659.252,-213.488"/>
<polygon fill="midnightblue" stroke="midnightblue" points="595.676,-210.569 585.709,-214.16 595.74,-217.569 595.676,-210.569"/>
</g>
<!-- Node13 -->
<g id="node13" class="node"><title>Node13</title>
<g id="a_node13"><a xlink:href="../../db/d40/classcellsociety__team01_1_1parser_1_1_parser.html#aaaea4078e4a144cf51ab40a295f4f396" target="_top" xlink:title="cellsociety_team01.parser.\lParser.placeRandomCells">
<polygon fill="white" stroke="black" points="661.5,-148.815 661.5,-178.815 806.5,-178.815 806.5,-148.815 661.5,-148.815"/>
<text text-anchor="start" x="669.5" y="-166.815" font-family="Helvetica,sans-Serif" font-size="10.00">cellsociety_team01.parser.</text>
<text text-anchor="middle" x="734" y="-155.815" font-family="Helvetica,sans-Serif" font-size="10.00">Parser.placeRandomCells</text>
</a>
</g>
</g>
<!-- Node11&#45;&gt;Node13 -->
<g id="edge14" class="edge"><title>Node11&#45;&gt;Node13</title>
<path fill="none" stroke="midnightblue" d="M588.344,-197.502C614.386,-191.437 643.396,-184.682 668.56,-178.821"/>
<polygon fill="midnightblue" stroke="midnightblue" points="587.468,-194.112 578.523,-199.789 589.056,-200.93 587.468,-194.112"/>
</g>
<!-- Node12&#45;&gt;Node4 -->
<g id="edge13" class="edge"><title>Node12&#45;&gt;Node4</title>
<path fill="none" stroke="midnightblue" d="M818.837,-201.725C830.052,-200.242 841.47,-198.732 852.448,-197.279"/>
<polygon fill="midnightblue" stroke="midnightblue" points="818.068,-198.297 808.614,-203.078 818.986,-205.236 818.068,-198.297"/>
</g>
<!-- Node13&#45;&gt;Node4 -->
<g id="edge15" class="edge"><title>Node13&#45;&gt;Node4</title>
<path fill="none" stroke="midnightblue" d="M816.978,-174.225C828.746,-175.719 840.778,-177.247 852.327,-178.714"/>
<polygon fill="midnightblue" stroke="midnightblue" points="817.084,-170.71 806.722,-172.923 816.202,-177.655 817.084,-170.71"/>
</g>
<!-- Node16 -->
<g id="node16" class="node"><title>Node16</title>
<g id="a_node16"><a xlink:href="../../d5/de8/classcellsociety__team01_1_1modelview_1_1_finite_refine_neighbors_algorithm.html#a15ebe108e8e06d9b21904b3578630f69" target="_top" xlink:title="cellsociety_team01.modelview.\lFiniteRefineNeighborsAlgorithm.refine\lNeighbors">
<polygon fill="white" stroke="black" points="415.5,-140.315 415.5,-181.315 610.5,-181.315 610.5,-140.315 415.5,-140.315"/>
<text text-anchor="start" x="423.5" y="-169.315" font-family="Helvetica,sans-Serif" font-size="10.00">cellsociety_team01.modelview.</text>
<text text-anchor="start" x="423.5" y="-158.315" font-family="Helvetica,sans-Serif" font-size="10.00">FiniteRefineNeighborsAlgorithm.refine</text>
<text text-anchor="middle" x="513" y="-147.315" font-family="Helvetica,sans-Serif" font-size="10.00">Neighbors</text>
</a>
</g>
</g>
<!-- Node15&#45;&gt;Node16 -->
<g id="edge19" class="edge"><title>Node15&#45;&gt;Node16</title>
<path fill="none" stroke="midnightblue" d="M371.44,-123.987C391.928,-129.355 413.592,-135.031 433.614,-140.277"/>
<polygon fill="midnightblue" stroke="midnightblue" points="372.049,-120.529 361.488,-121.38 370.275,-127.3 372.049,-120.529"/>
</g>
<!-- Node17 -->
<g id="node17" class="node"><title>Node17</title>
<g id="a_node17"><a xlink:href="../../d7/d7c/classcellsociety__team01_1_1modelview_1_1_infinite_refine_neighbors_algorithm.html#a79a4426580d25e90985b242d2f1d917e" target="_top" xlink:title="cellsociety_team01.modelview.\lInfiniteRefineNeighborsAlgorithm.refine\lNeighbors">
<polygon fill="white" stroke="black" points="412,-80.315 412,-121.315 614,-121.315 614,-80.315 412,-80.315"/>
<text text-anchor="start" x="420" y="-109.315" font-family="Helvetica,sans-Serif" font-size="10.00">cellsociety_team01.modelview.</text>
<text text-anchor="start" x="420" y="-98.315" font-family="Helvetica,sans-Serif" font-size="10.00">InfiniteRefineNeighborsAlgorithm.refine</text>
<text text-anchor="middle" x="513" y="-87.315" font-family="Helvetica,sans-Serif" font-size="10.00">Neighbors</text>
</a>
</g>
</g>
<!-- Node15&#45;&gt;Node17 -->
<g id="edge20" class="edge"><title>Node15&#45;&gt;Node17</title>
<path fill="none" stroke="midnightblue" d="M381.213,-100.815C391.285,-100.815 401.529,-100.815 411.624,-100.815"/>
<polygon fill="midnightblue" stroke="midnightblue" points="381.21,-97.3151 371.21,-100.815 381.21,-104.315 381.21,-97.3151"/>
</g>
<!-- Node18 -->
<g id="node18" class="node"><title>Node18</title>
<g id="a_node18"><a xlink:href="../../db/da5/classcellsociety__team01_1_1modelview_1_1_toroidal_refine_neighbors_algorithm.html#ace611e2d26e644366ffb356e27028159" target="_top" xlink:title="cellsociety_team01.modelview.\lToroidalRefineNeighborsAlgorithm.refine\lNeighbors">
<polygon fill="white" stroke="black" points="410,-20.315 410,-61.315 616,-61.315 616,-20.315 410,-20.315"/>
<text text-anchor="start" x="418" y="-49.315" font-family="Helvetica,sans-Serif" font-size="10.00">cellsociety_team01.modelview.</text>
<text text-anchor="start" x="418" y="-38.315" font-family="Helvetica,sans-Serif" font-size="10.00">ToroidalRefineNeighborsAlgorithm.refine</text>
<text text-anchor="middle" x="513" y="-27.315" font-family="Helvetica,sans-Serif" font-size="10.00">Neighbors</text>
</a>
</g>
</g>
<!-- Node15&#45;&gt;Node18 -->
<g id="edge21" class="edge"><title>Node15&#45;&gt;Node18</title>
<path fill="none" stroke="midnightblue" d="M371.44,-77.6431C391.928,-72.275 413.592,-66.5988 433.614,-61.3528"/>
<polygon fill="midnightblue" stroke="midnightblue" points="370.275,-74.33 361.488,-80.2503 372.049,-81.1014 370.275,-74.33"/>
</g>
<!-- Node19&#45;&gt;Node4 -->
<g id="edge23" class="edge"><title>Node19&#45;&gt;Node4</title>
<path fill="none" stroke="midnightblue" d="M764.518,-74.7431C802.89,-101.949 868.978,-148.805 902.765,-172.759"/>
<polygon fill="midnightblue" stroke="midnightblue" points="766.495,-71.8546 756.313,-68.926 762.447,-77.565 766.495,-71.8546"/>
</g>
</g>
</svg>
