<?xml version="1.0" encoding="UTF-8" standalone="no"?>
<!DOCTYPE svg PUBLIC "-//W3C//DTD SVG 1.1//EN"
 "http://www.w3.org/Graphics/SVG/1.1/DTD/svg11.dtd">
<!-- Generated by graphviz version 2.36.0 (20140111.2315)
 -->
<!-- Title: cellsociety_team01.Pair.getY Pages: 1 -->
<!--zoomable 285 -->
<svg id="main" version="1.1" xmlns="http://www.w3.org/2000/svg" xmlns:xlink="http://www.w3.org/1999/xlink" xml:space="preserve" onload="init(evt)">
<style type="text/css"><![CDATA[
.edge:hover path { stroke: red; }
.edge:hover polygon { stroke: red; fill: red; }
]]></style>
<script type="text/javascript"><![CDATA[
var edges = document.getElementsByTagName('g');
if (edges && edges.length) {
  for (var i=0;i<edges.length;i++) {
    if (edges[i].id.substr(0,4)=='edge') {
      edges[i].setAttribute('class','edge');
    }
  }
}
]]></script>
        <defs>
                <circle id="rim" cx="0" cy="0" r="7"/>
                <circle id="rim2" cx="0" cy="0" r="3.5"/>
                <g id="zoomPlus">
                        <use xlink:href="#rim" fill="#404040">
                                <set attributeName="fill" to="#808080" begin="zoomplus.mouseover" end="zoomplus.mouseout"/>
                        </use>
                        <path d="M-4,0h8M0,-4v8" fill="none" stroke="white" stroke-width="1.5" pointer-events="none"/>
                </g>
                <g id="zoomMin">
                        <use xlink:href="#rim" fill="#404040">
                                <set attributeName="fill" to="#808080" begin="zoomminus.mouseover" end="zoomminus.mouseout"/>
                        </use>
                        <path d="M-4,0h8" fill="none" stroke="white" stroke-width="1.5" pointer-events="none"/>
                </g>
                <g id="dirArrow">
                        <path fill="none" stroke="white" stroke-width="1.5" d="M0,-3.0v7 M-2.5,-0.5L0,-3.0L2.5,-0.5"/>
                </g>
               <g id="resetDef">
                       <use xlink:href="#rim2" fill="#404040">
                               <set attributeName="fill" to="#808080" begin="reset.mouseover" end="reset.mouseout"/>
                       </use>
               </g>
        </defs>

<script type="text/javascript">
var viewWidth = 1786;
var viewHeight = 285;
var sectionId = 'dynsection-4';
</script>
<script xlink:href="../../svgpan.js"/>
<svg id="graph" class="graph">
<g id="viewport">
<title>cellsociety_team01.Pair.getY</title>
<polygon fill="white" stroke="none" points="-4,4 -4,-280.815 1782,-280.815 1782,4 -4,4"/>
<!-- Node1 -->
<g id="node1" class="node"><title>Node1</title>
<polygon fill="#bfbfbf" stroke="black" points="0,-140.315 0,-159.315 152,-159.315 152,-140.315 0,-140.315"/>
<text text-anchor="middle" x="76" y="-147.315" font-family="Helvetica,sans-Serif" font-size="10.00">cellsociety_team01.Pair.getY</text>
</g>
<!-- Node2 -->
<g id="node2" class="node"><title>Node2</title>
<g id="a_node2"><a xlink:href="../../db/d40/classcellsociety__team01_1_1parser_1_1_parser.html#a13ce7871e46a22a59e23540c9b83ef01" target="_top" xlink:title="cellsociety_team01.parser.\lParser.addCell">
<polygon fill="white" stroke="black" points="207.5,-216.815 207.5,-246.815 352.5,-246.815 352.5,-216.815 207.5,-216.815"/>
<text text-anchor="start" x="215.5" y="-234.815" font-family="Helvetica,sans-Serif" font-size="10.00">cellsociety_team01.parser.</text>
<text text-anchor="middle" x="280" y="-223.815" font-family="Helvetica,sans-Serif" font-size="10.00">Parser.addCell</text>
</a>
</g>
</g>
<!-- Node1&#45;&gt;Node2 -->
<g id="edge1" class="edge"><title>Node1&#45;&gt;Node2</title>
<path fill="none" stroke="midnightblue" d="M104.721,-163.933C126.933,-174.969 159.059,-190.313 188,-201.815 201.295,-207.099 215.927,-212.218 229.497,-216.687"/>
<polygon fill="midnightblue" stroke="midnightblue" points="106.062,-160.691 95.5536,-159.344 102.929,-166.95 106.062,-160.691"/>
</g>
<!-- Node11 -->
<g id="node11" class="node"><title>Node11</title>
<g id="a_node11"><a xlink:href="../../db/d40/classcellsociety__team01_1_1parser_1_1_parser.html#aaf8f8745b89e52aee75fa2920608bbac" target="_top" xlink:title="cellsociety_team01.parser.\lParser.fillMap">
<polygon fill="white" stroke="black" points="438.5,-199.815 438.5,-229.815 583.5,-229.815 583.5,-199.815 438.5,-199.815"/>
<text text-anchor="start" x="446.5" y="-217.815" font-family="Helvetica,sans-Serif" font-size="10.00">cellsociety_team01.parser.</text>
<text text-anchor="middle" x="511" y="-206.815" font-family="Helvetica,sans-Serif" font-size="10.00">Parser.fillMap</text>
</a>
</g>
</g>
<!-- Node1&#45;&gt;Node11 -->
<g id="edge17" class="edge"><title>Node1&#45;&gt;Node11</title>
<path fill="none" stroke="midnightblue" d="M140.836,-161.052C156.263,-163.682 172.711,-166.415 188,-168.815 273.912,-182.302 372.986,-196.209 438.296,-205.15"/>
<polygon fill="midnightblue" stroke="midnightblue" points="141.316,-157.584 130.868,-159.344 140.133,-164.483 141.316,-157.584"/>
</g>
<!-- Node14 -->
<g id="node14" class="node"><title>Node14</title>
<g id="a_node14"><a xlink:href="../../d8/d80/classcellsociety__team01_1_1_pair.html#ab81dd371aa0a18e345d83de86eabad75" target="_top" xlink:title="cellsociety_team01.Pair.compareTo">
<polygon fill="white" stroke="black" points="188,-140.315 188,-159.315 372,-159.315 372,-140.315 188,-140.315"/>
<text text-anchor="middle" x="280" y="-147.315" font-family="Helvetica,sans-Serif" font-size="10.00">cellsociety_team01.Pair.compareTo</text>
</a>
</g>
</g>
<!-- Node1&#45;&gt;Node14 -->
<g id="edge16" class="edge"><title>Node1&#45;&gt;Node14</title>
<path fill="none" stroke="midnightblue" d="M162.341,-149.815C170.714,-149.815 179.234,-149.815 187.664,-149.815"/>
<polygon fill="midnightblue" stroke="midnightblue" points="162.217,-146.315 152.217,-149.815 162.217,-153.315 162.217,-146.315"/>
</g>
<!-- Node15 -->
<g id="node15" class="node"><title>Node15</title>
<g id="a_node15"><a xlink:href="../../d4/df6/classcellsociety__team01_1_1modelview_1_1_refine_neighbors_algorithm.html#ad13484163dff119fcc623ff7b4d7d1de" target="_top" xlink:title="cellsociety_team01.modelview.\lRefineNeighborsAlgorithm.findCell\lForPair">
<polygon fill="white" stroke="black" points="191,-80.315 191,-121.315 369,-121.315 369,-80.315 191,-80.315"/>
<text text-anchor="start" x="199" y="-109.315" font-family="Helvetica,sans-Serif" font-size="10.00">cellsociety_team01.modelview.</text>
<text text-anchor="start" x="199" y="-98.315" font-family="Helvetica,sans-Serif" font-size="10.00">RefineNeighborsAlgorithm.findCell</text>
<text text-anchor="middle" x="280" y="-87.315" font-family="Helvetica,sans-Serif" font-size="10.00">ForPair</text>
</a>
</g>
</g>
<!-- Node1&#45;&gt;Node15 -->
<g id="edge18" class="edge"><title>Node1&#45;&gt;Node15</title>
<path fill="none" stroke="midnightblue" d="M126.412,-137.829C146.808,-132.881 171.04,-127.003 194.119,-121.405"/>
<polygon fill="midnightblue" stroke="midnightblue" points="125.32,-134.492 116.427,-140.251 126.97,-141.295 125.32,-134.492"/>
</g>
<!-- Node19 -->
<g id="node19" class="node"><title>Node19</title>
<g id="a_node19"><a xlink:href="../../d2/d8b/classcellsociety__team01_1_1modelview_1_1_grid.html#a5ef5ff3a343f1c3ab0d043de6c0bc450" target="_top" xlink:title="cellsociety_team01.modelview.\lGrid.setBounds">
<polygon fill="white" stroke="black" points="650,-38.815 650,-68.815 814,-68.815 814,-38.815 650,-38.815"/>
<text text-anchor="start" x="658" y="-56.815" font-family="Helvetica,sans-Serif" font-size="10.00">cellsociety_team01.modelview.</text>
<text text-anchor="middle" x="732" y="-45.815" font-family="Helvetica,sans-Serif" font-size="10.00">Grid.setBounds</text>
</a>
</g>
</g>
<!-- Node1&#45;&gt;Node19 -->
<g id="edge22" class="edge"><title>Node1&#45;&gt;Node19</title>
<path fill="none" stroke="midnightblue" d="M95.6459,-133.374C116.711,-115.591 152.679,-87.5468 188,-70.815 279.592,-27.4268 307.548,-24.2673 408,-10.815 498.745,1.33747 523.86,5.22465 614,-10.815 643.829,-16.1228 676.024,-28.4853 699.076,-38.599"/>
<polygon fill="midnightblue" stroke="midnightblue" points="93.1372,-130.915 87.8283,-140.084 97.6962,-136.227 93.1372,-130.915"/>
</g>
<!-- Node3 -->
<g id="node3" class="node"><title>Node3</title>
<g id="a_node3"><a xlink:href="../../db/d40/classcellsociety__team01_1_1parser_1_1_parser.html#a6328c0a6b8dab4bc6d860e80739fadca" target="_top" xlink:title="cellsociety_team01.parser.\lParser.placeGivenCells">
<polygon fill="white" stroke="black" points="659.5,-246.815 659.5,-276.815 804.5,-276.815 804.5,-246.815 659.5,-246.815"/>
<text text-anchor="start" x="667.5" y="-264.815" font-family="Helvetica,sans-Serif" font-size="10.00">cellsociety_team01.parser.</text>
<text text-anchor="middle" x="732" y="-253.815" font-family="Helvetica,sans-Serif" font-size="10.00">Parser.placeGivenCells</text>
</a>
</g>
</g>
<!-- Node2&#45;&gt;Node3 -->
<g id="edge2" class="edge"><title>Node2&#45;&gt;Node3</title>
<path fill="none" stroke="midnightblue" d="M362.902,-237.275C447.66,-242.926 578.727,-251.663 659.454,-257.045"/>
<polygon fill="midnightblue" stroke="midnightblue" points="363.012,-233.775 352.801,-236.602 362.546,-240.759 363.012,-233.775"/>
</g>
<!-- Node2&#45;&gt;Node11 -->
<g id="edge11" class="edge"><title>Node2&#45;&gt;Node11</title>
<path fill="none" stroke="midnightblue" d="M362.586,-225.758C387.29,-223.924 414.229,-221.925 438.24,-220.142"/>
<polygon fill="midnightblue" stroke="midnightblue" points="362.228,-222.275 352.515,-226.506 362.747,-229.256 362.228,-222.275"/>
</g>
<!-- Node4 -->
<g id="node4" class="node"><title>Node4</title>
<g id="a_node4"><a xlink:href="../../db/d40/classcellsociety__team01_1_1parser_1_1_parser.html#afa693f17f280ab1cf88baf2565c593a9" target="_top" xlink:title="cellsociety_team01.parser.\lParser.parseGrid">
<polygon fill="white" stroke="black" points="850.5,-172.815 850.5,-202.815 995.5,-202.815 995.5,-172.815 850.5,-172.815"/>
<text text-anchor="start" x="858.5" y="-190.815" font-family="Helvetica,sans-Serif" font-size="10.00">cellsociety_team01.parser.</text>
<text text-anchor="middle" x="923" y="-179.815" font-family="Helvetica,sans-Serif" font-size="10.00">Parser.parseGrid</text>
</a>
</g>
</g>
<!-- Node3&#45;&gt;Node4 -->
<g id="edge3" class="edge"><title>Node3&#45;&gt;Node4</title>
<path fill="none" stroke="midnightblue" d="M794.745,-243.651C801.286,-241.462 807.806,-239.165 814,-236.815 840.566,-226.735 869.874,-213.284 891.248,-203.025"/>
<polygon fill="midnightblue" stroke="midnightblue" points="793.603,-240.342 785.185,-246.776 795.777,-246.996 793.603,-240.342"/>
</g>
<!-- Node5 -->
<g id="node5" class="node"><title>Node5</title>
<g id="a_node5"><a xlink:href="../../db/d40/classcellsociety__team01_1_1parser_1_1_parser.html#a31a05836dde41569f62542b9ea327f95" target="_top" xlink:title="cellsociety_team01.parser.\lParser.parseXmlFile">
<polygon fill="white" stroke="black" points="1032.5,-172.815 1032.5,-202.815 1177.5,-202.815 1177.5,-172.815 1032.5,-172.815"/>
<text text-anchor="start" x="1040.5" y="-190.815" font-family="Helvetica,sans-Serif" font-size="10.00">cellsociety_team01.parser.</text>
<text text-anchor="middle" x="1105" y="-179.815" font-family="Helvetica,sans-Serif" font-size="10.00">Parser.parseXmlFile</text>
</a>
</g>
</g>
<!-- Node4&#45;&gt;Node5 -->
<g id="edge4" class="edge"><title>Node4&#45;&gt;Node5</title>
<path fill="none" stroke="midnightblue" d="M1005.92,-187.815C1014.72,-187.815 1023.63,-187.815 1032.29,-187.815"/>
<polygon fill="midnightblue" stroke="midnightblue" points="1005.66,-184.315 995.658,-187.815 1005.66,-191.315 1005.66,-184.315"/>
</g>
<!-- Node6 -->
<g id="node6" class="node"><title>Node6</title>
<g id="a_node6"><a xlink:href="../../db/d10/classcellsociety__team01_1_1modelview_1_1_g_u_i.html#afa183319cc9816a6147cba0869ef82eb" target="_top" xlink:title="cellsociety_team01.modelview.\lGUI.loadXML">
<polygon fill="white" stroke="black" points="1214,-197.815 1214,-227.815 1378,-227.815 1378,-197.815 1214,-197.815"/>
<text text-anchor="start" x="1222" y="-215.815" font-family="Helvetica,sans-Serif" font-size="10.00">cellsociety_team01.modelview.</text>
<text text-anchor="middle" x="1296" y="-204.815" font-family="Helvetica,sans-Serif" font-size="10.00">GUI.loadXML</text>
</a>
</g>
</g>
<!-- Node5&#45;&gt;Node6 -->
<g id="edge5" class="edge"><title>Node5&#45;&gt;Node6</title>
<path fill="none" stroke="midnightblue" d="M1187.78,-198.633C1196.42,-199.775 1205.2,-200.937 1213.84,-202.079"/>
<polygon fill="midnightblue" stroke="midnightblue" points="1188.09,-195.144 1177.72,-197.302 1187.18,-202.083 1188.09,-195.144"/>
</g>
<!-- Node9 -->
<g id="node9" class="node"><title>Node9</title>
<g id="a_node9"><a xlink:href="../../db/d10/classcellsociety__team01_1_1modelview_1_1_g_u_i.html#a5c5e37ae72fe72af97fab2cb9a12b045" target="_top" xlink:title="cellsociety_team01.modelview.\lGUI.reset">
<polygon fill="white" stroke="black" points="1214,-148.815 1214,-178.815 1378,-178.815 1378,-148.815 1214,-148.815"/>
<text text-anchor="start" x="1222" y="-166.815" font-family="Helvetica,sans-Serif" font-size="10.00">cellsociety_team01.modelview.</text>
<text text-anchor="middle" x="1296" y="-155.815" font-family="Helvetica,sans-Serif" font-size="10.00">GUI.reset</text>
</a>
</g>
</g>
<!-- Node5&#45;&gt;Node9 -->
<g id="edge8" class="edge"><title>Node5&#45;&gt;Node9</title>
<path fill="none" stroke="midnightblue" d="M1187.78,-177.43C1196.42,-176.333 1205.2,-175.218 1213.84,-174.121"/>
<polygon fill="midnightblue" stroke="midnightblue" points="1187.2,-173.975 1177.72,-178.707 1188.08,-180.92 1187.2,-173.975"/>
</g>
<!-- Node7 -->
<g id="node7" class="node"><title>Node7</title>
<g id="a_node7"><a xlink:href="../../db/d10/classcellsociety__team01_1_1modelview_1_1_g_u_i.html#a4072ce794f518e806e7a912892f1e9da" target="_top" xlink:title="cellsociety_team01.modelview.\lGUI.makeMenuBar">
<polygon fill="white" stroke="black" points="1414,-197.815 1414,-227.815 1578,-227.815 1578,-197.815 1414,-197.815"/>
<text text-anchor="start" x="1422" y="-215.815" font-family="Helvetica,sans-Serif" font-size="10.00">cellsociety_team01.modelview.</text>
<text text-anchor="middle" x="1496" y="-204.815" font-family="Helvetica,sans-Serif" font-size="10.00">GUI.makeMenuBar</text>
</a>
</g>
</g>
<!-- Node6&#45;&gt;Node7 -->
<g id="edge6" class="edge"><title>Node6&#45;&gt;Node7</title>
<path fill="none" stroke="midnightblue" d="M1388.36,-212.815C1396.82,-212.815 1405.35,-212.815 1413.7,-212.815"/>
<polygon fill="midnightblue" stroke="midnightblue" points="1388.11,-209.315 1378.11,-212.815 1388.11,-216.315 1388.11,-209.315"/>
</g>
<!-- Node8 -->
<g id="node8" class="node"><title>Node8</title>
<g id="a_node8"><a xlink:href="../../db/d10/classcellsociety__team01_1_1modelview_1_1_g_u_i.html#a07bcff60812627c8dfe97f1aadc671e5" target="_top" xlink:title="cellsociety_team01.modelview.\lGUI.GUI">
<polygon fill="white" stroke="black" points="1614,-172.815 1614,-202.815 1778,-202.815 1778,-172.815 1614,-172.815"/>
<text text-anchor="start" x="1622" y="-190.815" font-family="Helvetica,sans-Serif" font-size="10.00">cellsociety_team01.modelview.</text>
<text text-anchor="middle" x="1696" y="-179.815" font-family="Helvetica,sans-Serif" font-size="10.00">GUI.GUI</text>
</a>
</g>
</g>
<!-- Node7&#45;&gt;Node8 -->
<g id="edge7" class="edge"><title>Node7&#45;&gt;Node8</title>
<path fill="none" stroke="midnightblue" d="M1588.08,-201.314C1596.63,-200.235 1605.25,-199.147 1613.7,-198.08"/>
<polygon fill="midnightblue" stroke="midnightblue" points="1587.59,-197.849 1578.11,-202.574 1588.47,-204.794 1587.59,-197.849"/>
</g>
<!-- Node10 -->
<g id="node10" class="node"><title>Node10</title>
<g id="a_node10"><a xlink:href="../../db/d10/classcellsociety__team01_1_1modelview_1_1_g_u_i.html#aa924c28ce131195d3f377b18177f6cb9" target="_top" xlink:title="cellsociety_team01.modelview.\lGUI.makeButtonsAndSlider">
<polygon fill="white" stroke="black" points="1414,-148.815 1414,-178.815 1578,-178.815 1578,-148.815 1414,-148.815"/>
<text text-anchor="start" x="1422" y="-166.815" font-family="Helvetica,sans-Serif" font-size="10.00">cellsociety_team01.modelview.</text>
<text text-anchor="middle" x="1496" y="-155.815" font-family="Helvetica,sans-Serif" font-size="10.00">GUI.makeButtonsAndSlider</text>
</a>
</g>
</g>
<!-- Node9&#45;&gt;Node10 -->
<g id="edge9" class="edge"><title>Node9&#45;&gt;Node10</title>
<path fill="none" stroke="midnightblue" d="M1388.36,-163.815C1396.82,-163.815 1405.35,-163.815 1413.7,-163.815"/>
<polygon fill="midnightblue" stroke="midnightblue" points="1388.11,-160.315 1378.11,-163.815 1388.11,-167.315 1388.11,-160.315"/>
</g>
<!-- Node10&#45;&gt;Node8 -->
<g id="edge10" class="edge"><title>Node10&#45;&gt;Node8</title>
<path fill="none" stroke="midnightblue" d="M1588.08,-174.856C1596.63,-175.891 1605.25,-176.937 1613.7,-177.96"/>
<polygon fill="midnightblue" stroke="midnightblue" points="1588.45,-171.375 1578.11,-173.646 1587.61,-178.324 1588.45,-171.375"/>
</g>
<!-- Node12 -->
<g id="node12" class="node"><title>Node12</title>
<g id="a_node12"><a xlink:href="../../db/d40/classcellsociety__team01_1_1parser_1_1_parser.html#a0ed864ecdf8cf6ee778114ebe5c605ea" target="_top" xlink:title="cellsociety_team01.parser.\lParser.placeDistributedCells">
<polygon fill="white" stroke="black" points="657.5,-197.815 657.5,-227.815 806.5,-227.815 806.5,-197.815 657.5,-197.815"/>
<text text-anchor="start" x="665.5" y="-215.815" font-family="Helvetica,sans-Serif" font-size="10.00">cellsociety_team01.parser.</text>
<text text-anchor="middle" x="732" y="-204.815" font-family="Helvetica,sans-Serif" font-size="10.00">Parser.placeDistributedCells</text>
</a>
</g>
</g>
<!-- Node11&#45;&gt;Node12 -->
<g id="edge12" class="edge"><title>Node11&#45;&gt;Node12</title>
<path fill="none" stroke="midnightblue" d="M593.799,-214.068C614.616,-213.878 636.863,-213.675 657.252,-213.488"/>
<polygon fill="midnightblue" stroke="midnightblue" points="593.676,-210.569 583.709,-214.16 593.74,-217.569 593.676,-210.569"/>
</g>
<!-- Node13 -->
<g id="node13" class="node"><title>Node13</title>
<g id="a_node13"><a xlink:href="../../db/d40/classcellsociety__team01_1_1parser_1_1_parser.html#aaaea4078e4a144cf51ab40a295f4f396" target="_top" xlink:title="cellsociety_team01.parser.\lParser.placeRandomCells">
<polygon fill="white" stroke="black" points="659.5,-148.815 659.5,-178.815 804.5,-178.815 804.5,-148.815 659.5,-148.815"/>
<text text-anchor="start" x="667.5" y="-166.815" font-family="Helvetica,sans-Serif" font-size="10.00">cellsociety_team01.parser.</text>
<text text-anchor="middle" x="732" y="-155.815" font-family="Helvetica,sans-Serif" font-size="10.00">Parser.placeRandomCells</text>
</a>
</g>
</g>
<!-- Node11&#45;&gt;Node13 -->
<g id="edge14" class="edge"><title>Node11&#45;&gt;Node13</title>
<path fill="none" stroke="midnightblue" d="M586.344,-197.502C612.386,-191.437 641.396,-184.682 666.56,-178.821"/>
<polygon fill="midnightblue" stroke="midnightblue" points="585.468,-194.112 576.523,-199.789 587.056,-200.93 585.468,-194.112"/>
</g>
<!-- Node12&#45;&gt;Node4 -->
<g id="edge13" class="edge"><title>Node12&#45;&gt;Node4</title>
<path fill="none" stroke="midnightblue" d="M816.837,-201.725C828.052,-200.242 839.47,-198.732 850.448,-197.279"/>
<polygon fill="midnightblue" stroke="midnightblue" points="816.068,-198.297 806.614,-203.078 816.986,-205.236 816.068,-198.297"/>
</g>
<!-- Node13&#45;&gt;Node4 -->
<g id="edge15" class="edge"><title>Node13&#45;&gt;Node4</title>
<path fill="none" stroke="midnightblue" d="M814.978,-174.225C826.746,-175.719 838.778,-177.247 850.327,-178.714"/>
<polygon fill="midnightblue" stroke="midnightblue" points="815.084,-170.71 804.722,-172.923 814.202,-177.655 815.084,-170.71"/>
</g>
<!-- Node16 -->
<g id="node16" class="node"><title>Node16</title>
<g id="a_node16"><a xlink:href="../../d5/de8/classcellsociety__team01_1_1modelview_1_1_finite_refine_neighbors_algorithm.html#a15ebe108e8e06d9b21904b3578630f69" target="_top" xlink:title="cellsociety_team01.modelview.\lFiniteRefineNeighborsAlgorithm.refine\lNeighbors">
<polygon fill="white" stroke="black" points="413.5,-140.315 413.5,-181.315 608.5,-181.315 608.5,-140.315 413.5,-140.315"/>
<text text-anchor="start" x="421.5" y="-169.315" font-family="Helvetica,sans-Serif" font-size="10.00">cellsociety_team01.modelview.</text>
<text text-anchor="start" x="421.5" y="-158.315" font-family="Helvetica,sans-Serif" font-size="10.00">FiniteRefineNeighborsAlgorithm.refine</text>
<text text-anchor="middle" x="511" y="-147.315" font-family="Helvetica,sans-Serif" font-size="10.00">Neighbors</text>
</a>
</g>
</g>
<!-- Node15&#45;&gt;Node16 -->
<g id="edge19" class="edge"><title>Node15&#45;&gt;Node16</title>
<path fill="none" stroke="midnightblue" d="M369.44,-123.987C389.928,-129.355 411.592,-135.031 431.614,-140.277"/>
<polygon fill="midnightblue" stroke="midnightblue" points="370.049,-120.529 359.488,-121.38 368.275,-127.3 370.049,-120.529"/>
</g>
<!-- Node17 -->
<g id="node17" class="node"><title>Node17</title>
<g id="a_node17"><a xlink:href="../../d7/d7c/classcellsociety__team01_1_1modelview_1_1_infinite_refine_neighbors_algorithm.html#a79a4426580d25e90985b242d2f1d917e" target="_top" xlink:title="cellsociety_team01.modelview.\lInfiniteRefineNeighborsAlgorithm.refine\lNeighbors">
<polygon fill="white" stroke="black" points="410,-80.315 410,-121.315 612,-121.315 612,-80.315 410,-80.315"/>
<text text-anchor="start" x="418" y="-109.315" font-family="Helvetica,sans-Serif" font-size="10.00">cellsociety_team01.modelview.</text>
<text text-anchor="start" x="418" y="-98.315" font-family="Helvetica,sans-Serif" font-size="10.00">InfiniteRefineNeighborsAlgorithm.refine</text>
<text text-anchor="middle" x="511" y="-87.315" font-family="Helvetica,sans-Serif" font-size="10.00">Neighbors</text>
</a>
</g>
</g>
<!-- Node15&#45;&gt;Node17 -->
<g id="edge20" class="edge"><title>Node15&#45;&gt;Node17</title>
<path fill="none" stroke="midnightblue" d="M379.213,-100.815C389.285,-100.815 399.529,-100.815 409.624,-100.815"/>
<polygon fill="midnightblue" stroke="midnightblue" points="379.21,-97.3151 369.21,-100.815 379.21,-104.315 379.21,-97.3151"/>
</g>
<!-- Node18 -->
<g id="node18" class="node"><title>Node18</title>
<g id="a_node18"><a xlink:href="../../db/da5/classcellsociety__team01_1_1modelview_1_1_toroidal_refine_neighbors_algorithm.html#ace611e2d26e644366ffb356e27028159" target="_top" xlink:title="cellsociety_team01.modelview.\lToroidalRefineNeighborsAlgorithm.refine\lNeighbors">
<polygon fill="white" stroke="black" points="408,-20.315 408,-61.315 614,-61.315 614,-20.315 408,-20.315"/>
<text text-anchor="start" x="416" y="-49.315" font-family="Helvetica,sans-Serif" font-size="10.00">cellsociety_team01.modelview.</text>
<text text-anchor="start" x="416" y="-38.315" font-family="Helvetica,sans-Serif" font-size="10.00">ToroidalRefineNeighborsAlgorithm.refine</text>
<text text-anchor="middle" x="511" y="-27.315" font-family="Helvetica,sans-Serif" font-size="10.00">Neighbors</text>
</a>
</g>
</g>
<!-- Node15&#45;&gt;Node18 -->
<g id="edge21" class="edge"><title>Node15&#45;&gt;Node18</title>
<path fill="none" stroke="midnightblue" d="M369.44,-77.6431C389.928,-72.275 411.592,-66.5988 431.614,-61.3528"/>
<polygon fill="midnightblue" stroke="midnightblue" points="368.275,-74.33 359.488,-80.2503 370.049,-81.1014 368.275,-74.33"/>
</g>
<!-- Node19&#45;&gt;Node4 -->
<g id="edge23" class="edge"><title>Node19&#45;&gt;Node4</title>
<path fill="none" stroke="midnightblue" d="M762.518,-74.7431C800.89,-101.949 866.978,-148.805 900.765,-172.759"/>
<polygon fill="midnightblue" stroke="midnightblue" points="764.495,-71.8546 754.313,-68.926 760.447,-77.565 764.495,-71.8546"/>
</g>
</g>
</svg>
        <g id="navigator" transform="translate(0 0)" fill="#404254">
                <rect fill="#f2f5e9" fill-opacity="0.5" stroke="#606060" stroke-width=".5" x="0" y="0" width="60" height="60"/>
                <use id="zoomplus" xlink:href="#zoomPlus" x="17" y="9" onmousedown="handleZoom(evt,'in')"/>
                <use id="zoomminus" xlink:href="#zoomMin" x="42" y="9" onmousedown="handleZoom(evt,'out')"/>
                <use id="reset" xlink:href="#resetDef" x="30" y="36" onmousedown="handleReset()"/>
                <g id="arrowUp" xlink:href="#dirArrow" transform="translate(30 24)" onmousedown="handlePan(0,-1)">
                  <use xlink:href="#rim" fill="#404040">
                        <set attributeName="fill" to="#808080" begin="arrowUp.mouseover" end="arrowUp.mouseout"/>
                  </use>
                  <path fill="none" stroke="white" stroke-width="1.5" d="M0,-3.0v7 M-2.5,-0.5L0,-3.0L2.5,-0.5"/>
                </g>
                <g id="arrowRight" xlink:href="#dirArrow" transform="rotate(90) translate(36 -43)" onmousedown="handlePan(1,0)">
                  <use xlink:href="#rim" fill="#404040">
                        <set attributeName="fill" to="#808080" begin="arrowRight.mouseover" end="arrowRight.mouseout"/>
                  </use>
                  <path fill="none" stroke="white" stroke-width="1.5" d="M0,-3.0v7 M-2.5,-0.5L0,-3.0L2.5,-0.5"/>
                </g>
                <g id="arrowDown" xlink:href="#dirArrow" transform="rotate(180) translate(-30 -48)" onmousedown="handlePan(0,1)">
                  <use xlink:href="#rim" fill="#404040">
                        <set attributeName="fill" to="#808080" begin="arrowDown.mouseover" end="arrowDown.mouseout"/>
                  </use>
                  <path fill="none" stroke="white" stroke-width="1.5" d="M0,-3.0v7 M-2.5,-0.5L0,-3.0L2.5,-0.5"/>
                </g>
                <g id="arrowLeft" xlink:href="#dirArrow" transform="rotate(270) translate(-36 17)" onmousedown="handlePan(-1,0)">
                  <use xlink:href="#rim" fill="#404040">
                        <set attributeName="fill" to="#808080" begin="arrowLeft.mouseover" end="arrowLeft.mouseout"/>
                  </use>
                  <path fill="none" stroke="white" stroke-width="1.5" d="M0,-3.0v7 M-2.5,-0.5L0,-3.0L2.5,-0.5"/>
                </g>
        </g>
        <svg viewBox="0 0 15 15" width="100%" height="30px" preserveAspectRatio="xMaxYMin meet">
         <g id="arrow_out" transform="scale(0.3 0.3)">
          <a xlink:href="classcellsociety__team01_1_1_pair_a8bf4fdfd4efdf9e3b37eb69706b3b952_icgraph_org.svg" target="_base">
           <rect id="button" ry="5" rx="5" y="6" x="6" height="38" width="38"
                fill="#f2f5e9" fill-opacity="0.5" stroke="#606060" stroke-width="1.0"/>
           <path id="arrow"
             d="M 11.500037,31.436501 C 11.940474,20.09759 22.043105,11.32322 32.158766,21.979434 L 37.068811,17.246167 C 37.068811,17.246167 37.088388,32 37.088388,32 L 22.160133,31.978069 C 22.160133,31.978069 26.997745,27.140456 26.997745,27.140456 C 18.528582,18.264221 13.291696,25.230495 11.500037,31.436501 z"
             style="fill:#404040;"/>
          </a>
         </g>
        </svg>
</svg>
