<?xml version="1.0" encoding="UTF-8" standalone="no"?>
<!DOCTYPE svg PUBLIC "-//W3C//DTD SVG 1.1//EN"
 "http://www.w3.org/Graphics/SVG/1.1/DTD/svg11.dtd">
<!-- Generated by graphviz version 2.36.0 (20140111.2315)
 -->
<!-- Title: cellsociety_team01.rules.RandomRule Pages: 1 -->
<svg width="386pt" height="278pt"
 viewBox="0.00 0.00 386.00 278.00" xmlns="http://www.w3.org/2000/svg" xmlns:xlink="http://www.w3.org/1999/xlink">
<g id="graph0" class="graph" transform="scale(1 1) rotate(0) translate(4 274)">
<title>cellsociety_team01.rules.RandomRule</title>
<polygon fill="white" stroke="none" points="-4,4 -4,-274 382,-274 382,4 -4,4"/>
<!-- Node1 -->
<g id="node1" class="node"><title>Node1</title>
<polygon fill="#bfbfbf" stroke="black" points="186,-1 186,-31 324,-31 324,-1 186,-1"/>
<text text-anchor="start" x="194" y="-19" font-family="Helvetica,sans-Serif" font-size="10.00">cellsociety_team01.rules.</text>
<text text-anchor="middle" x="255" y="-8" font-family="Helvetica,sans-Serif" font-size="10.00">RandomRule</text>
</g>
<!-- Node2 -->
<g id="node2" class="node"><title>Node2</title>
<g id="a_node2"><a xlink:href="../../d3/d9d/classcellsociety__team01_1_1rules_1_1_changing_rule.html" target="_top" xlink:title="cellsociety_team01.rules.\lChangingRule">
<polygon fill="white" stroke="black" points="81,-81 81,-111 219,-111 219,-81 81,-81"/>
<text text-anchor="start" x="89" y="-99" font-family="Helvetica,sans-Serif" font-size="10.00">cellsociety_team01.rules.</text>
<text text-anchor="middle" x="150" y="-88" font-family="Helvetica,sans-Serif" font-size="10.00">ChangingRule</text>
</a>
</g>
</g>
<!-- Node2&#45;&gt;Node1 -->
<g id="edge1" class="edge"><title>Node2&#45;&gt;Node1</title>
<path fill="none" stroke="midnightblue" d="M177.779,-74.3645C196.097,-60.7566 219.619,-43.2833 235.863,-31.2157"/>
<polygon fill="midnightblue" stroke="midnightblue" points="175.199,-71.9207 169.259,-80.6936 179.373,-77.5399 175.199,-71.9207"/>
</g>
<!-- Node3 -->
<g id="node3" class="node"><title>Node3</title>
<g id="a_node3"><a xlink:href="../../d4/d46/classcellsociety__team01_1_1rules_1_1_rule.html" target="_top" xlink:title="cellsociety_team01.rules.Rule">
<polygon fill="white" stroke="black" points="0,-176.5 0,-195.5 158,-195.5 158,-176.5 0,-176.5"/>
<text text-anchor="middle" x="79" y="-183.5" font-family="Helvetica,sans-Serif" font-size="10.00">cellsociety_team01.rules.Rule</text>
</a>
</g>
</g>
<!-- Node3&#45;&gt;Node2 -->
<g id="edge2" class="edge"><title>Node3&#45;&gt;Node2</title>
<path fill="none" stroke="midnightblue" d="M92.6906,-168.031C106.014,-151.518 126.028,-126.712 138.536,-111.209"/>
<polygon fill="midnightblue" stroke="midnightblue" points="89.6226,-166.26 86.0673,-176.241 95.0706,-170.655 89.6226,-166.26"/>
</g>
<!-- Node4 -->
<g id="node4" class="node"><title>Node4</title>
<g id="a_node4"><a xlink:href="../../d2/d65/classcellsociety__team01_1_1_cell_state_1_1_state.html" target="_top" xlink:title="cellsociety_team01.CellState.\lState">
<polygon fill="white" stroke="black" points="176,-171 176,-201 334,-201 334,-171 176,-171"/>
<text text-anchor="start" x="184" y="-189" font-family="Helvetica,sans-Serif" font-size="10.00">cellsociety_team01.CellState.</text>
<text text-anchor="middle" x="255" y="-178" font-family="Helvetica,sans-Serif" font-size="10.00">State</text>
</a>
</g>
</g>
<!-- Node4&#45;&gt;Node1 -->
<g id="edge5" class="edge"><title>Node4&#45;&gt;Node1</title>
<path fill="none" stroke="#9a32cd" stroke-dasharray="5,2" d="M255,-160.528C255,-124.956 255,-60.0822 255,-31.3508"/>
<polygon fill="#9a32cd" stroke="#9a32cd" points="251.5,-160.965 255,-170.965 258.5,-160.965 251.5,-160.965"/>
<text text-anchor="middle" x="279.5" y="-93.5" font-family="Helvetica,sans-Serif" font-size="10.00"> myCause</text>
</g>
<!-- Node4&#45;&gt;Node2 -->
<g id="edge3" class="edge"><title>Node4&#45;&gt;Node2</title>
<path fill="none" stroke="#9a32cd" stroke-dasharray="5,2" d="M217.451,-165.632C210.711,-161.504 203.947,-156.898 198,-152 183.327,-139.913 169.369,-123.108 160.326,-111.263"/>
<polygon fill="#9a32cd" stroke="#9a32cd" points="216.148,-168.924 226.548,-170.947 219.68,-162.88 216.148,-168.924"/>
<text text-anchor="middle" x="219.5" y="-144" font-family="Helvetica,sans-Serif" font-size="10.00"> myStart</text>
<text text-anchor="middle" x="219.5" y="-133" font-family="Helvetica,sans-Serif" font-size="10.00">myEnd</text>
</g>
<!-- Node5 -->
<g id="node5" class="node"><title>Node5</title>
<polygon fill="white" stroke="#bfbfbf" points="234.5,-250.5 234.5,-269.5 275.5,-269.5 275.5,-250.5 234.5,-250.5"/>
<text text-anchor="middle" x="255" y="-257.5" font-family="Helvetica,sans-Serif" font-size="10.00">Color</text>
</g>
<!-- Node5&#45;&gt;Node4 -->
<g id="edge4" class="edge"><title>Node5&#45;&gt;Node4</title>
<path fill="none" stroke="#9a32cd" stroke-dasharray="5,2" d="M255,-240.085C255,-227.915 255,-212.354 255,-201.232"/>
<polygon fill="#9a32cd" stroke="#9a32cd" points="251.5,-240.458 255,-250.458 258.5,-240.458 251.5,-240.458"/>
<text text-anchor="middle" x="276.5" y="-223.5" font-family="Helvetica,sans-Serif" font-size="10.00"> myColor</text>
</g>
<!-- Node6 -->
<g id="node6" class="node"><title>Node6</title>
<polygon fill="white" stroke="#bfbfbf" points="322,-86.5 322,-105.5 378,-105.5 378,-86.5 322,-86.5"/>
<text text-anchor="middle" x="350" y="-93.5" font-family="Helvetica,sans-Serif" font-size="10.00">Random</text>
</g>
<!-- Node6&#45;&gt;Node1 -->
<g id="edge6" class="edge"><title>Node6&#45;&gt;Node1</title>
<path fill="none" stroke="#9a32cd" stroke-dasharray="5,2" d="M331.333,-79.6736C314.202,-65.6082 289.022,-44.9342 272.328,-31.227"/>
<polygon fill="#9a32cd" stroke="#9a32cd" points="329.521,-82.714 339.47,-86.3546 333.963,-77.3039 329.521,-82.714"/>
<text text-anchor="middle" x="328" y="-53.5" font-family="Helvetica,sans-Serif" font-size="10.00"> myGen</text>
</g>
</g>
</svg>
