<?xml version="1.0" encoding="UTF-8" standalone="no"?>
<!DOCTYPE svg PUBLIC "-//W3C//DTD SVG 1.1//EN"
 "http://www.w3.org/Graphics/SVG/1.1/DTD/svg11.dtd">
<!-- Generated by graphviz version 2.36.0 (20140111.2315)
 -->
<!-- Title: /tmp/git/duke&#45;compsci308&#45;spring2015/cellsociety_team01/repository/src/cellsociety_team01 Pages: 1 -->
<svg width="730pt" height="111pt"
 viewBox="0.00 0.00 730.00 111.00" xmlns="http://www.w3.org/2000/svg" xmlns:xlink="http://www.w3.org/1999/xlink">
<g id="graph0" class="graph" transform="scale(1 1) rotate(0) translate(4 107)">
<title>/tmp/git/duke&#45;compsci308&#45;spring2015/cellsociety_team01/repository/src/cellsociety_team01</title>
<polygon fill="white" stroke="none" points="-4,4 -4,-107 726,-107 726,4 -4,4"/>
<g id="clust1" class="cluster"><title>clusterdir_39d5d063ba8902ab8ccfb526744a3057</title>
<g id="a_clust1"><a xlink:href="dir_39d5d063ba8902ab8ccfb526744a3057.html" target="_top" xlink:title="src">
<polygon fill="#ddddee" stroke="black" points="8,-8 8,-95 714,-95 714,-8 8,-8"/>
<text text-anchor="middle" x="361" y="-83" font-family="Helvetica,sans-Serif" font-size="10.00">src</text>
</a>
</g>
</g>
<g id="clust2" class="cluster"><title>clusterdir_c2986ac16a32e6b44bb51a100b0b142c</title>
<g id="a_clust2"><a xlink:href="dir_c2986ac16a32e6b44bb51a100b0b142c.html" target="_top">
<polygon fill="#eeeeff" stroke="black" points="16,-16 16,-68 706,-68 706,-16 16,-16"/>
</a>
</g>
</g>
<!-- dir_c2986ac16a32e6b44bb51a100b0b142c -->
<g id="node1" class="node"><title>dir_c2986ac16a32e6b44bb51a100b0b142c</title>
<text text-anchor="middle" x="643" y="-39.5" font-family="Helvetica,sans-Serif" font-size="10.00">cellsociety_team01</text>
</g>
<!-- dir_aa5c58b6b51b1401daa8ea7f840931e8 -->
<g id="node2" class="node"><title>dir_aa5c58b6b51b1401daa8ea7f840931e8</title>
<g id="a_node2"><a xlink:href="dir_aa5c58b6b51b1401daa8ea7f840931e8.html" target="_top" xlink:title="CellState">
<polygon fill="white" stroke="black" points="569.5,-60 510.5,-60 510.5,-24 569.5,-24 569.5,-60"/>
<text text-anchor="middle" x="540" y="-39.5" font-family="Helvetica,sans-Serif" font-size="10.00">CellState</text>
</a>
</g>
</g>
<!-- dir_2cde6b4e9b802b64265e188eb63089c7 -->
<g id="node3" class="node"><title>dir_2cde6b4e9b802b64265e188eb63089c7</title>
<g id="a_node3"><a xlink:href="dir_2cde6b4e9b802b64265e188eb63089c7.html" target="_top" xlink:title="elements">
<polygon fill="white" stroke="black" points="491.5,-60 430.5,-60 430.5,-24 491.5,-24 491.5,-60"/>
<text text-anchor="middle" x="461" y="-39.5" font-family="Helvetica,sans-Serif" font-size="10.00">elements</text>
</a>
</g>
</g>
<!-- dir_8edc2e45cd9257ffecbc11e6c2acd03a -->
<g id="node4" class="node"><title>dir_8edc2e45cd9257ffecbc11e6c2acd03a</title>
<g id="a_node4"><a xlink:href="dir_8edc2e45cd9257ffecbc11e6c2acd03a.html" target="_top" xlink:title="exceptions">
<polygon fill="white" stroke="black" points="412,-60 344,-60 344,-24 412,-24 412,-60"/>
<text text-anchor="middle" x="378" y="-39.5" font-family="Helvetica,sans-Serif" font-size="10.00">exceptions</text>
</a>
</g>
</g>
<!-- dir_4c1748fa06ce02f83144c5e1dca72469 -->
<g id="node5" class="node"><title>dir_4c1748fa06ce02f83144c5e1dca72469</title>
<g id="a_node5"><a xlink:href="dir_4c1748fa06ce02f83144c5e1dca72469.html" target="_top" xlink:title="modelview">
<polygon fill="white" stroke="black" points="325.25,-60 258.75,-60 258.75,-24 325.25,-24 325.25,-60"/>
<text text-anchor="middle" x="292" y="-39.5" font-family="Helvetica,sans-Serif" font-size="10.00">modelview</text>
</a>
</g>
</g>
<!-- dir_0980d69dde9656643b180b4574ea11ac -->
<g id="node6" class="node"><title>dir_0980d69dde9656643b180b4574ea11ac</title>
<g id="a_node6"><a xlink:href="dir_0980d69dde9656643b180b4574ea11ac.html" target="_top" xlink:title="parser">
<polygon fill="white" stroke="black" points="240,-60 186,-60 186,-24 240,-24 240,-60"/>
<text text-anchor="middle" x="213" y="-39.5" font-family="Helvetica,sans-Serif" font-size="10.00">parser</text>
</a>
</g>
</g>
<!-- dir_564186ab0f271bfa9fc101e50d4bea9c -->
<g id="node7" class="node"><title>dir_564186ab0f271bfa9fc101e50d4bea9c</title>
<g id="a_node7"><a xlink:href="dir_564186ab0f271bfa9fc101e50d4bea9c.html" target="_top" xlink:title="rules">
<polygon fill="white" stroke="black" points="168,-60 114,-60 114,-24 168,-24 168,-60"/>
<text text-anchor="middle" x="141" y="-39.5" font-family="Helvetica,sans-Serif" font-size="10.00">rules</text>
</a>
</g>
</g>
<!-- dir_b5de940fcbed46b8745e39b227d97188 -->
<g id="node8" class="node"><title>dir_b5de940fcbed46b8745e39b227d97188</title>
<g id="a_node8"><a xlink:href="dir_b5de940fcbed46b8745e39b227d97188.html" target="_top" xlink:title="simulations">
<polygon fill="white" stroke="black" points="95.25,-60 24.75,-60 24.75,-24 95.25,-24 95.25,-60"/>
<text text-anchor="middle" x="60" y="-39.5" font-family="Helvetica,sans-Serif" font-size="10.00">simulations</text>
</a>
</g>
</g>
</g>
</svg>
