<?xml version="1.0" encoding="UTF-8" standalone="no"?>
<!DOCTYPE svg PUBLIC "-//W3C//DTD SVG 1.1//EN"
 "http://www.w3.org/Graphics/SVG/1.1/DTD/svg11.dtd">
<!-- Generated by graphviz version 2.36.0 (20140111.2315)
 -->
<!-- Title: Graphical Class Hierarchy Pages: 1 -->
<svg width="554pt" height="479pt"
 viewBox="0.00 0.00 554.00 479.00" xmlns="http://www.w3.org/2000/svg" xmlns:xlink="http://www.w3.org/1999/xlink">
<g id="graph0" class="graph" transform="scale(1 1) rotate(0) translate(4 475)">
<title>Graphical Class Hierarchy</title>
<polygon fill="white" stroke="none" points="-4,4 -4,-475 550,-475 550,4 -4,4"/>
<!-- Node1 -->
<g id="node1" class="node"><title>Node1</title>
<g id="a_node1"><a xlink:href="d4/d46/classcellsociety__team01_1_1rules_1_1_rule.html" target="_top" xlink:title="cellsociety_team01.rules.Rule">
<polygon fill="white" stroke="black" points="0,-261.5 0,-280.5 158,-280.5 158,-261.5 0,-261.5"/>
<text text-anchor="middle" x="79" y="-268.5" font-family="Helvetica,sans-Serif" font-size="10.00">cellsociety_team01.rules.Rule</text>
</a>
</g>
</g>
<!-- Node2 -->
<g id="node2" class="node"><title>Node2</title>
<g id="a_node2"><a xlink:href="d9/d54/classcellsociety__team01_1_1rules_1_1average_update_rule.html" target="_top" xlink:title="cellsociety_team01.rules.average\lUpdateRule">
<polygon fill="white" stroke="black" points="194.5,-367 194.5,-397 371.5,-397 371.5,-367 194.5,-367"/>
<text text-anchor="start" x="202.5" y="-385" font-family="Helvetica,sans-Serif" font-size="10.00">cellsociety_team01.rules.average</text>
<text text-anchor="middle" x="283" y="-374" font-family="Helvetica,sans-Serif" font-size="10.00">UpdateRule</text>
</a>
</g>
</g>
<!-- Node1&#45;&gt;Node2 -->
<g id="edge1" class="edge"><title>Node1&#45;&gt;Node2</title>
<path fill="none" stroke="midnightblue" d="M97.6968,-287.713C118.991,-306.981 156.571,-338.384 194,-357 201.537,-360.749 209.725,-364.017 217.971,-366.842"/>
<polygon fill="midnightblue" stroke="midnightblue" points="99.8454,-284.933 90.1162,-280.739 95.1062,-290.085 99.8454,-284.933"/>
</g>
<!-- Node3 -->
<g id="node3" class="node"><title>Node3</title>
<g id="a_node3"><a xlink:href="d3/d9d/classcellsociety__team01_1_1rules_1_1_changing_rule.html" target="_top" xlink:title="cellsociety_team01.rules.\lChangingRule">
<polygon fill="white" stroke="black" points="214,-318 214,-348 352,-348 352,-318 214,-318"/>
<text text-anchor="start" x="222" y="-336" font-family="Helvetica,sans-Serif" font-size="10.00">cellsociety_team01.rules.</text>
<text text-anchor="middle" x="283" y="-325" font-family="Helvetica,sans-Serif" font-size="10.00">ChangingRule</text>
</a>
</g>
</g>
<!-- Node1&#45;&gt;Node3 -->
<g id="edge2" class="edge"><title>Node1&#45;&gt;Node3</title>
<path fill="none" stroke="midnightblue" d="M120.71,-283.495C153.043,-293.419 198.377,-307.333 232.752,-317.884"/>
<polygon fill="midnightblue" stroke="midnightblue" points="121.707,-280.14 111.12,-280.552 119.653,-286.832 121.707,-280.14"/>
</g>
<!-- Node8 -->
<g id="node8" class="node"><title>Node8</title>
<g id="a_node8"><a xlink:href="d9/d10/classcellsociety__team01_1_1rules_1_1_movement_rule.html" target="_top" xlink:title="cellsociety_team01.rules.\lMovementRule">
<polygon fill="white" stroke="black" points="214,-171 214,-201 352,-201 352,-171 214,-171"/>
<text text-anchor="start" x="222" y="-189" font-family="Helvetica,sans-Serif" font-size="10.00">cellsociety_team01.rules.</text>
<text text-anchor="middle" x="283" y="-178" font-family="Helvetica,sans-Serif" font-size="10.00">MovementRule</text>
</a>
</g>
</g>
<!-- Node1&#45;&gt;Node8 -->
<g id="edge7" class="edge"><title>Node1&#45;&gt;Node8</title>
<path fill="none" stroke="midnightblue" d="M112.444,-257.348C148.97,-241.978 208.152,-217.075 246.056,-201.125"/>
<polygon fill="midnightblue" stroke="midnightblue" points="110.639,-254.31 102.779,-261.415 113.354,-260.762 110.639,-254.31"/>
</g>
<!-- Node15 -->
<g id="node15" class="node"><title>Node15</title>
<g id="a_node15"><a xlink:href="d5/d93/classcellsociety__team01_1_1rules_1_1_threshold_status_rule.html" target="_top" xlink:title="cellsociety_team01.rules.\lThresholdStatusRule">
<polygon fill="white" stroke="black" points="214,-122 214,-152 352,-152 352,-122 214,-122"/>
<text text-anchor="start" x="222" y="-140" font-family="Helvetica,sans-Serif" font-size="10.00">cellsociety_team01.rules.</text>
<text text-anchor="middle" x="283" y="-129" font-family="Helvetica,sans-Serif" font-size="10.00">ThresholdStatusRule</text>
</a>
</g>
</g>
<!-- Node1&#45;&gt;Node15 -->
<g id="edge14" class="edge"><title>Node1&#45;&gt;Node15</title>
<path fill="none" stroke="midnightblue" d="M93.7731,-253.241C113.44,-229.081 151.881,-186.11 194,-162 200.754,-158.134 208.147,-154.832 215.686,-152.02"/>
<polygon fill="midnightblue" stroke="midnightblue" points="90.9065,-251.222 87.4046,-261.221 96.3779,-255.588 90.9065,-251.222"/>
</g>
<!-- Node4 -->
<g id="node4" class="node"><title>Node4</title>
<g id="a_node4"><a xlink:href="df/d10/classcellsociety__team01_1_1rules_1_1_random_rule.html" target="_top" xlink:title="cellsociety_team01.rules.\lRandomRule">
<polygon fill="white" stroke="black" points="408,-441 408,-471 546,-471 546,-441 408,-441"/>
<text text-anchor="start" x="416" y="-459" font-family="Helvetica,sans-Serif" font-size="10.00">cellsociety_team01.rules.</text>
<text text-anchor="middle" x="477" y="-448" font-family="Helvetica,sans-Serif" font-size="10.00">RandomRule</text>
</a>
</g>
</g>
<!-- Node3&#45;&gt;Node4 -->
<g id="edge3" class="edge"><title>Node3&#45;&gt;Node4</title>
<path fill="none" stroke="midnightblue" d="M361.362,-350.634C365.127,-352.811 368.706,-355.255 372,-358 399.791,-381.158 381.103,-406.809 408,-431 412.302,-434.869 417.253,-438.155 422.482,-440.942"/>
<polygon fill="midnightblue" stroke="midnightblue" points="362.782,-347.43 352.28,-346.027 359.615,-353.673 362.782,-347.43"/>
</g>
<!-- Node5 -->
<g id="node5" class="node"><title>Node5</title>
<g id="a_node5"><a xlink:href="d1/ded/classcellsociety__team01_1_1rules_1_1_status_rule.html" target="_top" xlink:title="cellsociety_team01.rules.\lStatusRule">
<polygon fill="white" stroke="black" points="408,-392 408,-422 546,-422 546,-392 408,-392"/>
<text text-anchor="start" x="416" y="-410" font-family="Helvetica,sans-Serif" font-size="10.00">cellsociety_team01.rules.</text>
<text text-anchor="middle" x="477" y="-399" font-family="Helvetica,sans-Serif" font-size="10.00">StatusRule</text>
</a>
</g>
</g>
<!-- Node3&#45;&gt;Node5 -->
<g id="edge4" class="edge"><title>Node3&#45;&gt;Node5</title>
<path fill="none" stroke="midnightblue" d="M356.231,-351.518C361.641,-353.511 366.953,-355.671 372,-358 389.46,-366.058 390.857,-373.289 408,-382 415.064,-385.59 422.77,-388.927 430.373,-391.918"/>
<polygon fill="midnightblue" stroke="midnightblue" points="357.018,-348.086 346.423,-348.11 354.72,-354.698 357.018,-348.086"/>
</g>
<!-- Node6 -->
<g id="node6" class="node"><title>Node6</title>
<g id="a_node6"><a xlink:href="d1/de7/classcellsociety__team01_1_1rules_1_1_threshold_rule.html" target="_top" xlink:title="cellsociety_team01.rules.\lThresholdRule">
<polygon fill="white" stroke="black" points="408,-343 408,-373 546,-373 546,-343 408,-343"/>
<text text-anchor="start" x="416" y="-361" font-family="Helvetica,sans-Serif" font-size="10.00">cellsociety_team01.rules.</text>
<text text-anchor="middle" x="477" y="-350" font-family="Helvetica,sans-Serif" font-size="10.00">ThresholdRule</text>
</a>
</g>
</g>
<!-- Node3&#45;&gt;Node6 -->
<g id="edge5" class="edge"><title>Node3&#45;&gt;Node6</title>
<path fill="none" stroke="midnightblue" d="M362.551,-343.228C377.621,-345.19 393.284,-347.23 407.987,-349.144"/>
<polygon fill="midnightblue" stroke="midnightblue" points="362.601,-339.705 352.233,-341.884 361.697,-346.646 362.601,-339.705"/>
</g>
<!-- Node7 -->
<g id="node7" class="node"><title>Node7</title>
<g id="a_node7"><a xlink:href="d8/d2c/classcellsociety__team01_1_1rules_1_1_timed_status_rule.html" target="_top" xlink:title="cellsociety_team01.rules.\lTimedStatusRule">
<polygon fill="white" stroke="black" points="408,-294 408,-324 546,-324 546,-294 408,-294"/>
<text text-anchor="start" x="416" y="-312" font-family="Helvetica,sans-Serif" font-size="10.00">cellsociety_team01.rules.</text>
<text text-anchor="middle" x="477" y="-301" font-family="Helvetica,sans-Serif" font-size="10.00">TimedStatusRule</text>
</a>
</g>
</g>
<!-- Node3&#45;&gt;Node7 -->
<g id="edge6" class="edge"><title>Node3&#45;&gt;Node7</title>
<path fill="none" stroke="midnightblue" d="M362.551,-323.181C377.621,-321.297 393.284,-319.34 407.987,-317.502"/>
<polygon fill="midnightblue" stroke="midnightblue" points="361.721,-319.758 352.233,-324.471 362.59,-326.703 361.721,-319.758"/>
</g>
<!-- Node9 -->
<g id="node9" class="node"><title>Node9</title>
<g id="a_node9"><a xlink:href="d4/d68/classcellsociety__team01_1_1rules_1_1_consumption_rule.html" target="_top" xlink:title="cellsociety_team01.rules.\lConsumptionRule">
<polygon fill="white" stroke="black" points="408,-245 408,-275 546,-275 546,-245 408,-245"/>
<text text-anchor="start" x="416" y="-263" font-family="Helvetica,sans-Serif" font-size="10.00">cellsociety_team01.rules.</text>
<text text-anchor="middle" x="477" y="-252" font-family="Helvetica,sans-Serif" font-size="10.00">ConsumptionRule</text>
</a>
</g>
</g>
<!-- Node8&#45;&gt;Node9 -->
<g id="edge8" class="edge"><title>Node8&#45;&gt;Node9</title>
<path fill="none" stroke="midnightblue" d="M330.929,-204.852C354.079,-214.073 382.451,-225.257 408,-235 416.579,-238.272 425.795,-241.71 434.587,-244.955"/>
<polygon fill="midnightblue" stroke="midnightblue" points="331.935,-201.485 321.35,-201.03 329.341,-207.987 331.935,-201.485"/>
</g>
<!-- Node10 -->
<g id="node10" class="node"><title>Node10</title>
<g id="a_node10"><a xlink:href="d1/dd1/classcellsociety__team01_1_1rules_1_1_movement_threshold_rule.html" target="_top" xlink:title="cellsociety_team01.rules.\lMovementThresholdRule">
<polygon fill="white" stroke="black" points="408,-196 408,-226 546,-226 546,-196 408,-196"/>
<text text-anchor="start" x="416" y="-214" font-family="Helvetica,sans-Serif" font-size="10.00">cellsociety_team01.rules.</text>
<text text-anchor="middle" x="477" y="-203" font-family="Helvetica,sans-Serif" font-size="10.00">MovementThresholdRule</text>
</a>
</g>
</g>
<!-- Node8&#45;&gt;Node10 -->
<g id="edge9" class="edge"><title>Node8&#45;&gt;Node10</title>
<path fill="none" stroke="midnightblue" d="M362.551,-196.228C377.621,-198.19 393.284,-200.23 407.987,-202.144"/>
<polygon fill="midnightblue" stroke="midnightblue" points="362.601,-192.705 352.233,-194.884 361.697,-199.646 362.601,-192.705"/>
</g>
<!-- Node11 -->
<g id="node11" class="node"><title>Node11</title>
<g id="a_node11"><a xlink:href="d8/dd6/classcellsociety__team01_1_1rules_1_1_priority_forward_rule.html" target="_top" xlink:title="cellsociety_team01.rules.\lPriorityForwardRule">
<polygon fill="white" stroke="black" points="408,-147 408,-177 546,-177 546,-147 408,-147"/>
<text text-anchor="start" x="416" y="-165" font-family="Helvetica,sans-Serif" font-size="10.00">cellsociety_team01.rules.</text>
<text text-anchor="middle" x="477" y="-154" font-family="Helvetica,sans-Serif" font-size="10.00">PriorityForwardRule</text>
</a>
</g>
</g>
<!-- Node8&#45;&gt;Node11 -->
<g id="edge10" class="edge"><title>Node8&#45;&gt;Node11</title>
<path fill="none" stroke="midnightblue" d="M362.551,-176.181C377.621,-174.297 393.284,-172.34 407.987,-170.502"/>
<polygon fill="midnightblue" stroke="midnightblue" points="361.721,-172.758 352.233,-177.471 362.59,-179.703 361.721,-172.758"/>
</g>
<!-- Node12 -->
<g id="node12" class="node"><title>Node12</title>
<g id="a_node12"><a xlink:href="d5/d26/classcellsociety__team01_1_1rules_1_1_reproduction_rule.html" target="_top" xlink:title="cellsociety_team01.rules.\lReproductionRule">
<polygon fill="white" stroke="black" points="408,-98 408,-128 546,-128 546,-98 408,-98"/>
<text text-anchor="start" x="416" y="-116" font-family="Helvetica,sans-Serif" font-size="10.00">cellsociety_team01.rules.</text>
<text text-anchor="middle" x="477" y="-105" font-family="Helvetica,sans-Serif" font-size="10.00">ReproductionRule</text>
</a>
</g>
</g>
<!-- Node8&#45;&gt;Node12 -->
<g id="edge11" class="edge"><title>Node8&#45;&gt;Node12</title>
<path fill="none" stroke="midnightblue" d="M355.476,-167.627C361.14,-165.588 366.711,-163.379 372,-161 389.316,-153.212 390.99,-146.436 408,-138 415.212,-134.423 423.068,-131.072 430.795,-128.058"/>
<polygon fill="midnightblue" stroke="midnightblue" points="354.222,-164.356 345.888,-170.898 356.482,-170.981 354.222,-164.356"/>
</g>
<!-- Node13 -->
<g id="node13" class="node"><title>Node13</title>
<g id="a_node13"><a xlink:href="df/d97/classcellsociety__team01_1_1rules_1_1_threshold_movement_rule.html" target="_top" xlink:title="cellsociety_team01.rules.\lThresholdMovementRule">
<polygon fill="white" stroke="black" points="408,-49 408,-79 546,-79 546,-49 408,-49"/>
<text text-anchor="start" x="416" y="-67" font-family="Helvetica,sans-Serif" font-size="10.00">cellsociety_team01.rules.</text>
<text text-anchor="middle" x="477" y="-56" font-family="Helvetica,sans-Serif" font-size="10.00">ThresholdMovementRule</text>
</a>
</g>
</g>
<!-- Node8&#45;&gt;Node13 -->
<g id="edge12" class="edge"><title>Node8&#45;&gt;Node13</title>
<path fill="none" stroke="midnightblue" d="M361.343,-168.344C365.114,-166.173 368.698,-163.736 372,-161 399.548,-138.172 381.333,-112.851 408,-89 412.313,-85.1427 417.271,-81.8644 422.504,-79.0816"/>
<polygon fill="midnightblue" stroke="midnightblue" points="359.598,-165.304 352.254,-172.941 362.757,-171.551 359.598,-165.304"/>
</g>
<!-- Node14 -->
<g id="node14" class="node"><title>Node14</title>
<g id="a_node14"><a xlink:href="d4/d0c/classcellsociety__team01_1_1rules_1_1_uphill_movement_rule.html" target="_top" xlink:title="cellsociety_team01.rules.\lUphillMovementRule">
<polygon fill="white" stroke="black" points="408,-0 408,-30 546,-30 546,-0 408,-0"/>
<text text-anchor="start" x="416" y="-18" font-family="Helvetica,sans-Serif" font-size="10.00">cellsociety_team01.rules.</text>
<text text-anchor="middle" x="477" y="-7" font-family="Helvetica,sans-Serif" font-size="10.00">UphillMovementRule</text>
</a>
</g>
</g>
<!-- Node8&#45;&gt;Node14 -->
<g id="edge13" class="edge"><title>Node8&#45;&gt;Node14</title>
<path fill="none" stroke="midnightblue" d="M361.176,-169.5C365.083,-167.042 368.734,-164.226 372,-161 411.919,-121.572 369.598,-80.9063 408,-40 411.616,-36.1485 415.875,-32.8878 420.47,-30.1278"/>
<polygon fill="midnightblue" stroke="midnightblue" points="359.39,-166.487 352.265,-174.329 362.725,-172.642 359.39,-166.487"/>
</g>
</g>
</svg>
