<?xml version="1.0" encoding="UTF-8" standalone="no"?>
<!DOCTYPE svg PUBLIC "-//W3C//DTD SVG 1.1//EN"
 "http://www.w3.org/Graphics/SVG/1.1/DTD/svg11.dtd">
<!-- Generated by graphviz version 2.36.0 (20140111.2315)
 -->
<!-- Title: Graphical Class Hierarchy Pages: 1 -->
<svg width="384pt" height="332pt"
 viewBox="0.00 0.00 384.00 332.00" xmlns="http://www.w3.org/2000/svg" xmlns:xlink="http://www.w3.org/1999/xlink">
<g id="graph0" class="graph" transform="scale(1 1) rotate(0) translate(4 328)">
<title>Graphical Class Hierarchy</title>
<polygon fill="white" stroke="none" points="-4,4 -4,-328 380,-328 380,4 -4,4"/>
<!-- Node1 -->
<g id="node1" class="node"><title>Node1</title>
<g id="a_node1"><a xlink:href="da/df7/classcellsociety__team01_1_1simulations_1_1_simulation.html" target="_top" xlink:title="cellsociety_team01.simulations.\lSimulation">
<polygon fill="white" stroke="black" points="0,-147 0,-177 170,-177 170,-147 0,-147"/>
<text text-anchor="start" x="8" y="-165" font-family="Helvetica,sans-Serif" font-size="10.00">cellsociety_team01.simulations.</text>
<text text-anchor="middle" x="85" y="-154" font-family="Helvetica,sans-Serif" font-size="10.00">Simulation</text>
</a>
</g>
</g>
<!-- Node2 -->
<g id="node2" class="node"><title>Node2</title>
<g id="a_node2"><a xlink:href="d2/dd4/classcellsociety__team01_1_1simulations_1_1_ant_foraging.html" target="_top" xlink:title="cellsociety_team01.simulations.\lAntForaging">
<polygon fill="white" stroke="black" points="206,-294 206,-324 376,-324 376,-294 206,-294"/>
<text text-anchor="start" x="214" y="-312" font-family="Helvetica,sans-Serif" font-size="10.00">cellsociety_team01.simulations.</text>
<text text-anchor="middle" x="291" y="-301" font-family="Helvetica,sans-Serif" font-size="10.00">AntForaging</text>
</a>
</g>
</g>
<!-- Node1&#45;&gt;Node2 -->
<g id="edge1" class="edge"><title>Node1&#45;&gt;Node2</title>
<path fill="none" stroke="midnightblue" d="M103.009,-185.416C124.167,-212.903 162.81,-258.025 206,-284 212.389,-287.843 219.41,-291.13 226.586,-293.934"/>
<polygon fill="midnightblue" stroke="midnightblue" points="105.591,-183.027 96.7711,-177.158 100.006,-187.246 105.591,-183.027"/>
</g>
<!-- Node3 -->
<g id="node3" class="node"><title>Node3</title>
<g id="a_node3"><a xlink:href="dc/d72/classcellsociety__team01_1_1simulations_1_1_game_of_life.html" target="_top" xlink:title="cellsociety_team01.simulations.\lGameOfLife">
<polygon fill="white" stroke="black" points="206,-245 206,-275 376,-275 376,-245 206,-245"/>
<text text-anchor="start" x="214" y="-263" font-family="Helvetica,sans-Serif" font-size="10.00">cellsociety_team01.simulations.</text>
<text text-anchor="middle" x="291" y="-252" font-family="Helvetica,sans-Serif" font-size="10.00">GameOfLife</text>
</a>
</g>
</g>
<!-- Node1&#45;&gt;Node3 -->
<g id="edge2" class="edge"><title>Node1&#45;&gt;Node3</title>
<path fill="none" stroke="midnightblue" d="M115.685,-183.039C139.279,-199.011 173.59,-220.608 206,-235 214.344,-238.705 223.391,-242.047 232.353,-244.992"/>
<polygon fill="midnightblue" stroke="midnightblue" points="117.421,-179.985 107.193,-177.219 113.464,-185.759 117.421,-179.985"/>
</g>
<!-- Node4 -->
<g id="node4" class="node"><title>Node4</title>
<g id="a_node4"><a xlink:href="d6/dcf/classcellsociety__team01_1_1simulations_1_1_predator_prey.html" target="_top" xlink:title="cellsociety_team01.simulations.\lPredatorPrey">
<polygon fill="white" stroke="black" points="206,-196 206,-226 376,-226 376,-196 206,-196"/>
<text text-anchor="start" x="214" y="-214" font-family="Helvetica,sans-Serif" font-size="10.00">cellsociety_team01.simulations.</text>
<text text-anchor="middle" x="291" y="-203" font-family="Helvetica,sans-Serif" font-size="10.00">PredatorPrey</text>
</a>
</g>
</g>
<!-- Node1&#45;&gt;Node4 -->
<g id="edge3" class="edge"><title>Node1&#45;&gt;Node4</title>
<path fill="none" stroke="midnightblue" d="M158.457,-179.404C181.024,-184.824 205.702,-190.752 227.525,-195.994"/>
<polygon fill="midnightblue" stroke="midnightblue" points="159.134,-175.967 148.593,-177.035 157.499,-182.773 159.134,-175.967"/>
</g>
<!-- Node5 -->
<g id="node5" class="node"><title>Node5</title>
<g id="a_node5"><a xlink:href="d8/d2f/classcellsociety__team01_1_1simulations_1_1_segregation.html" target="_top" xlink:title="cellsociety_team01.simulations.\lSegregation">
<polygon fill="white" stroke="black" points="206,-147 206,-177 376,-177 376,-147 206,-147"/>
<text text-anchor="start" x="214" y="-165" font-family="Helvetica,sans-Serif" font-size="10.00">cellsociety_team01.simulations.</text>
<text text-anchor="middle" x="291" y="-154" font-family="Helvetica,sans-Serif" font-size="10.00">Segregation</text>
</a>
</g>
</g>
<!-- Node1&#45;&gt;Node5 -->
<g id="edge4" class="edge"><title>Node1&#45;&gt;Node5</title>
<path fill="none" stroke="midnightblue" d="M180.402,-162C188.847,-162 197.361,-162 205.712,-162"/>
<polygon fill="midnightblue" stroke="midnightblue" points="180.152,-158.5 170.152,-162 180.152,-165.5 180.152,-158.5"/>
</g>
<!-- Node6 -->
<g id="node6" class="node"><title>Node6</title>
<g id="a_node6"><a xlink:href="df/df3/classcellsociety__team01_1_1simulations_1_1_slime_molds.html" target="_top" xlink:title="cellsociety_team01.simulations.\lSlimeMolds">
<polygon fill="white" stroke="black" points="206,-98 206,-128 376,-128 376,-98 206,-98"/>
<text text-anchor="start" x="214" y="-116" font-family="Helvetica,sans-Serif" font-size="10.00">cellsociety_team01.simulations.</text>
<text text-anchor="middle" x="291" y="-105" font-family="Helvetica,sans-Serif" font-size="10.00">SlimeMolds</text>
</a>
</g>
</g>
<!-- Node1&#45;&gt;Node6 -->
<g id="edge5" class="edge"><title>Node1&#45;&gt;Node6</title>
<path fill="none" stroke="midnightblue" d="M158.457,-144.596C181.024,-139.176 205.702,-133.248 227.525,-128.006"/>
<polygon fill="midnightblue" stroke="midnightblue" points="157.499,-141.227 148.593,-146.965 159.134,-148.033 157.499,-141.227"/>
</g>
<!-- Node7 -->
<g id="node7" class="node"><title>Node7</title>
<g id="a_node7"><a xlink:href="d3/d2a/classcellsociety__team01_1_1simulations_1_1_spreading_of_fire.html" target="_top" xlink:title="cellsociety_team01.simulations.\lSpreadingOfFire">
<polygon fill="white" stroke="black" points="206,-49 206,-79 376,-79 376,-49 206,-49"/>
<text text-anchor="start" x="214" y="-67" font-family="Helvetica,sans-Serif" font-size="10.00">cellsociety_team01.simulations.</text>
<text text-anchor="middle" x="291" y="-56" font-family="Helvetica,sans-Serif" font-size="10.00">SpreadingOfFire</text>
</a>
</g>
</g>
<!-- Node1&#45;&gt;Node7 -->
<g id="edge6" class="edge"><title>Node1&#45;&gt;Node7</title>
<path fill="none" stroke="midnightblue" d="M115.685,-140.961C139.279,-124.989 173.59,-103.392 206,-89 214.344,-85.295 223.391,-81.9534 232.353,-79.0084"/>
<polygon fill="midnightblue" stroke="midnightblue" points="113.464,-138.241 107.193,-146.781 117.421,-144.015 113.464,-138.241"/>
</g>
<!-- Node8 -->
<g id="node8" class="node"><title>Node8</title>
<g id="a_node8"><a xlink:href="d7/d89/classcellsociety__team01_1_1simulations_1_1_sugarscape.html" target="_top" xlink:title="cellsociety_team01.simulations.\lSugarscape">
<polygon fill="white" stroke="black" points="206,-0 206,-30 376,-30 376,-0 206,-0"/>
<text text-anchor="start" x="214" y="-18" font-family="Helvetica,sans-Serif" font-size="10.00">cellsociety_team01.simulations.</text>
<text text-anchor="middle" x="291" y="-7" font-family="Helvetica,sans-Serif" font-size="10.00">Sugarscape</text>
</a>
</g>
</g>
<!-- Node1&#45;&gt;Node8 -->
<g id="edge7" class="edge"><title>Node1&#45;&gt;Node8</title>
<path fill="none" stroke="midnightblue" d="M103.009,-138.584C124.167,-111.097 162.81,-65.9754 206,-40 212.389,-36.1574 219.41,-32.8699 226.586,-30.0658"/>
<polygon fill="midnightblue" stroke="midnightblue" points="100.006,-136.754 96.7711,-146.842 105.591,-140.973 100.006,-136.754"/>
</g>
</g>
</svg>
