<?xml version="1.0" encoding="UTF-8" standalone="no"?>
<!DOCTYPE svg PUBLIC "-//W3C//DTD SVG 1.1//EN"
 "http://www.w3.org/Graphics/SVG/1.1/DTD/svg11.dtd">
<!-- Generated by graphviz version 2.36.0 (20140111.2315)
 -->
<!-- Title: Graphical Class Hierarchy Pages: 1 -->
<svg width="276pt" height="234pt"
 viewBox="0.00 0.00 276.00 234.00" xmlns="http://www.w3.org/2000/svg" xmlns:xlink="http://www.w3.org/1999/xlink">
<g id="graph0" class="graph" transform="scale(1 1) rotate(0) translate(4 230)">
<title>Graphical Class Hierarchy</title>
<polygon fill="white" stroke="none" points="-4,4 -4,-230 272,-230 272,4 -4,4"/>
<!-- Node1 -->
<g id="node1" class="node"><title>Node1</title>
<polygon fill="white" stroke="#bfbfbf" points="0.5,-103.5 0.5,-122.5 63.5,-122.5 63.5,-103.5 0.5,-103.5"/>
<text text-anchor="middle" x="32" y="-110.5" font-family="Helvetica,sans-Serif" font-size="10.00">Exception</text>
</g>
<!-- Node2 -->
<g id="node2" class="node"><title>Node2</title>
<g id="a_node2"><a xlink:href="df/da9/classcellsociety__team01_1_1exceptions_1_1_bad_grid_config_exception.html" target="_top" xlink:title="cellsociety_team01.exceptions.\lBadGridConfigException">
<polygon fill="white" stroke="black" points="100.5,-196 100.5,-226 267.5,-226 267.5,-196 100.5,-196"/>
<text text-anchor="start" x="108.5" y="-214" font-family="Helvetica,sans-Serif" font-size="10.00">cellsociety_team01.exceptions.</text>
<text text-anchor="middle" x="184" y="-203" font-family="Helvetica,sans-Serif" font-size="10.00">BadGridConfigException</text>
</a>
</g>
</g>
<!-- Node1&#45;&gt;Node2 -->
<g id="edge1" class="edge"><title>Node1&#45;&gt;Node2</title>
<path fill="none" stroke="midnightblue" d="M45.0607,-130.887C57.1225,-147.46 77.1323,-171.651 100,-186 106.119,-189.84 112.861,-193.118 119.778,-195.911"/>
<polygon fill="midnightblue" stroke="midnightblue" points="47.8277,-128.737 39.2096,-122.575 42.1035,-132.767 47.8277,-128.737"/>
</g>
<!-- Node3 -->
<g id="node3" class="node"><title>Node3</title>
<g id="a_node3"><a xlink:href="d2/deb/classcellsociety__team01_1_1exceptions_1_1_bad_state_exception.html" target="_top" xlink:title="cellsociety_team01.exceptions.\lBadStateException">
<polygon fill="white" stroke="black" points="100.5,-147 100.5,-177 267.5,-177 267.5,-147 100.5,-147"/>
<text text-anchor="start" x="108.5" y="-165" font-family="Helvetica,sans-Serif" font-size="10.00">cellsociety_team01.exceptions.</text>
<text text-anchor="middle" x="184" y="-154" font-family="Helvetica,sans-Serif" font-size="10.00">BadStateException</text>
</a>
</g>
</g>
<!-- Node1&#45;&gt;Node3 -->
<g id="edge2" class="edge"><title>Node1&#45;&gt;Node3</title>
<path fill="none" stroke="midnightblue" d="M68.1193,-125.963C78.3606,-129.64 89.5951,-133.572 100,-137 110.148,-140.344 121.052,-143.755 131.511,-146.941"/>
<polygon fill="midnightblue" stroke="midnightblue" points="69.2584,-122.654 58.6641,-122.542 66.8766,-129.236 69.2584,-122.654"/>
</g>
<!-- Node4 -->
<g id="node4" class="node"><title>Node4</title>
<g id="a_node4"><a xlink:href="dc/df0/classcellsociety__team01_1_1exceptions_1_1_cell_location_exception.html" target="_top" xlink:title="cellsociety_team01.exceptions.\lCellLocationException">
<polygon fill="white" stroke="black" points="100.5,-98 100.5,-128 267.5,-128 267.5,-98 100.5,-98"/>
<text text-anchor="start" x="108.5" y="-116" font-family="Helvetica,sans-Serif" font-size="10.00">cellsociety_team01.exceptions.</text>
<text text-anchor="middle" x="184" y="-105" font-family="Helvetica,sans-Serif" font-size="10.00">CellLocationException</text>
</a>
</g>
</g>
<!-- Node1&#45;&gt;Node4 -->
<g id="edge3" class="edge"><title>Node1&#45;&gt;Node4</title>
<path fill="none" stroke="midnightblue" d="M73.7981,-113C82.0897,-113 91.091,-113 100.248,-113"/>
<polygon fill="midnightblue" stroke="midnightblue" points="73.7167,-109.5 63.7167,-113 73.7167,-116.5 73.7167,-109.5"/>
</g>
<!-- Node5 -->
<g id="node5" class="node"><title>Node5</title>
<g id="a_node5"><a xlink:href="d7/db9/classcellsociety__team01_1_1exceptions_1_1_element_value_exception.html" target="_top" xlink:title="cellsociety_team01.exceptions.\lElementValueException">
<polygon fill="white" stroke="black" points="100.5,-49 100.5,-79 267.5,-79 267.5,-49 100.5,-49"/>
<text text-anchor="start" x="108.5" y="-67" font-family="Helvetica,sans-Serif" font-size="10.00">cellsociety_team01.exceptions.</text>
<text text-anchor="middle" x="184" y="-56" font-family="Helvetica,sans-Serif" font-size="10.00">ElementValueException</text>
</a>
</g>
</g>
<!-- Node1&#45;&gt;Node5 -->
<g id="edge4" class="edge"><title>Node1&#45;&gt;Node5</title>
<path fill="none" stroke="midnightblue" d="M68.1193,-100.037C78.3606,-96.3604 89.5951,-92.4281 100,-89 110.148,-85.6565 121.052,-82.2446 131.511,-79.0594"/>
<polygon fill="midnightblue" stroke="midnightblue" points="66.8766,-96.7641 58.6641,-103.458 69.2584,-103.346 66.8766,-96.7641"/>
</g>
<!-- Node6 -->
<g id="node6" class="node"><title>Node6</title>
<g id="a_node6"><a xlink:href="da/d94/classcellsociety__team01_1_1exceptions_1_1_simulation_type_exception.html" target="_top" xlink:title="cellsociety_team01.exceptions.\lSimulationTypeException">
<polygon fill="white" stroke="black" points="100.5,-0 100.5,-30 267.5,-30 267.5,-0 100.5,-0"/>
<text text-anchor="start" x="108.5" y="-18" font-family="Helvetica,sans-Serif" font-size="10.00">cellsociety_team01.exceptions.</text>
<text text-anchor="middle" x="184" y="-7" font-family="Helvetica,sans-Serif" font-size="10.00">SimulationTypeException</text>
</a>
</g>
</g>
<!-- Node1&#45;&gt;Node6 -->
<g id="edge5" class="edge"><title>Node1&#45;&gt;Node6</title>
<path fill="none" stroke="midnightblue" d="M45.0607,-95.1128C57.1225,-78.5399 77.1323,-54.3495 100,-40 106.119,-36.1605 112.861,-32.8819 119.778,-30.0889"/>
<polygon fill="midnightblue" stroke="midnightblue" points="42.1035,-93.2334 39.2096,-103.425 47.8277,-97.2625 42.1035,-93.2334"/>
</g>
</g>
</svg>
