<?xml version="1.0" encoding="UTF-8" standalone="no"?>
<!DOCTYPE svg PUBLIC "-//W3C//DTD SVG 1.1//EN"
 "http://www.w3.org/Graphics/SVG/1.1/DTD/svg11.dtd">
<!-- Generated by graphviz version 2.36.0 (20140111.2315)
 -->
<!-- Title: cellsociety_team01.CellState.Race.comparePopulations Pages: 1 -->
<svg width="360pt" height="87pt"
 viewBox="0.00 0.00 360.00 87.00" xmlns="http://www.w3.org/2000/svg" xmlns:xlink="http://www.w3.org/1999/xlink">
<g id="graph0" class="graph" transform="scale(1 1) rotate(0) translate(4 83)">
<title>cellsociety_team01.CellState.Race.comparePopulations</title>
<polygon fill="white" stroke="none" points="-4,4 -4,-83 356,-83 356,4 -4,4"/>
<!-- Node1 -->
<g id="node1" class="node"><title>Node1</title>
<polygon fill="#bfbfbf" stroke="black" points="0,-24 0,-54 158,-54 158,-24 0,-24"/>
<text text-anchor="start" x="8" y="-42" font-family="Helvetica,sans-Serif" font-size="10.00">cellsociety_team01.CellState.</text>
<text text-anchor="middle" x="79" y="-31" font-family="Helvetica,sans-Serif" font-size="10.00">Race.comparePopulations</text>
</g>
<!-- Node2 -->
<g id="node2" class="node"><title>Node2</title>
<g id="a_node2"><a xlink:href="../../db/d55/classcellsociety__team01_1_1_cell_state_1_1_race.html#a9f1cb33396d7085855da286cc181d2c3" target="_top" xlink:title="cellsociety_team01.CellState.\lRace.getDemonym">
<polygon fill="white" stroke="black" points="194,-49 194,-79 352,-79 352,-49 194,-49"/>
<text text-anchor="start" x="202" y="-67" font-family="Helvetica,sans-Serif" font-size="10.00">cellsociety_team01.CellState.</text>
<text text-anchor="middle" x="273" y="-56" font-family="Helvetica,sans-Serif" font-size="10.00">Race.getDemonym</text>
</a>
</g>
</g>
<!-- Node1&#45;&gt;Node2 -->
<g id="edge1" class="edge"><title>Node1&#45;&gt;Node2</title>
<path fill="none" stroke="midnightblue" d="M158.094,-49.1685C166.601,-50.2761 175.302,-51.4091 183.918,-52.5309"/>
<polygon fill="midnightblue" stroke="midnightblue" points="183.607,-56.02 193.975,-53.8406 184.511,-49.0786 183.607,-56.02"/>
</g>
<!-- Node3 -->
<g id="node3" class="node"><title>Node3</title>
<g id="a_node3"><a xlink:href="../../db/d55/classcellsociety__team01_1_1_cell_state_1_1_race.html#aff6d939f09b4a8759f1fe5a9c22bac85" target="_top" xlink:title="cellsociety_team01.CellState.\lRace.Race">
<polygon fill="white" stroke="black" points="194,-0 194,-30 352,-30 352,-0 194,-0"/>
<text text-anchor="start" x="202" y="-18" font-family="Helvetica,sans-Serif" font-size="10.00">cellsociety_team01.CellState.</text>
<text text-anchor="middle" x="273" y="-7" font-family="Helvetica,sans-Serif" font-size="10.00">Race.Race</text>
</a>
</g>
</g>
<!-- Node1&#45;&gt;Node3 -->
<g id="edge2" class="edge"><title>Node1&#45;&gt;Node3</title>
<path fill="none" stroke="midnightblue" d="M158.094,-29.2383C166.601,-28.1749 175.302,-27.0873 183.918,-26.0103"/>
<polygon fill="midnightblue" stroke="midnightblue" points="184.487,-29.4665 193.975,-24.7531 183.619,-22.5205 184.487,-29.4665"/>
</g>
</g>
</svg>
