<?xml version="1.0" encoding="UTF-8" standalone="no"?>
<!DOCTYPE svg PUBLIC "-//W3C//DTD SVG 1.1//EN"
 "http://www.w3.org/Graphics/SVG/1.1/DTD/svg11.dtd">
<!-- Generated by graphviz version 2.36.0 (20140111.2315)
 -->
<!-- Title: cellsociety_team01.rules.StatusRule Pages: 1 -->
<svg width="341pt" height="268pt"
 viewBox="0.00 0.00 341.00 268.00" xmlns="http://www.w3.org/2000/svg" xmlns:xlink="http://www.w3.org/1999/xlink">
<g id="graph0" class="graph" transform="scale(1 1) rotate(0) translate(4 264)">
<title>cellsociety_team01.rules.StatusRule</title>
<polygon fill="white" stroke="none" points="-4,4 -4,-264 337,-264 337,4 -4,4"/>
<!-- Node1 -->
<g id="node1" class="node"><title>Node1</title>
<polygon fill="#bfbfbf" stroke="black" points="61,-1 61,-31 199,-31 199,-1 61,-1"/>
<text text-anchor="start" x="69" y="-19" font-family="Helvetica,sans-Serif" font-size="10.00">cellsociety_team01.rules.</text>
<text text-anchor="middle" x="130" y="-8" font-family="Helvetica,sans-Serif" font-size="10.00">StatusRule</text>
</g>
<!-- Node2 -->
<g id="node2" class="node"><title>Node2</title>
<g id="a_node2"><a xlink:href="../../d3/d9d/classcellsociety__team01_1_1rules_1_1_changing_rule.html" target="_top" xlink:title="cellsociety_team01.rules.\lChangingRule">
<polygon fill="white" stroke="black" points="61,-71 61,-101 199,-101 199,-71 61,-71"/>
<text text-anchor="start" x="69" y="-89" font-family="Helvetica,sans-Serif" font-size="10.00">cellsociety_team01.rules.</text>
<text text-anchor="middle" x="130" y="-78" font-family="Helvetica,sans-Serif" font-size="10.00">ChangingRule</text>
</a>
</g>
</g>
<!-- Node2&#45;&gt;Node1 -->
<g id="edge1" class="edge"><title>Node2&#45;&gt;Node1</title>
<path fill="none" stroke="midnightblue" d="M130,-60.7688C130,-50.8141 130,-39.6384 130,-31.0716"/>
<polygon fill="midnightblue" stroke="midnightblue" points="126.5,-60.9103 130,-70.9104 133.5,-60.9104 126.5,-60.9103"/>
</g>
<!-- Node3 -->
<g id="node3" class="node"><title>Node3</title>
<g id="a_node3"><a xlink:href="../../d4/d46/classcellsociety__team01_1_1rules_1_1_rule.html" target="_top" xlink:title="cellsociety_team01.rules.Rule">
<polygon fill="white" stroke="black" points="-1,-166.5 -1,-185.5 157,-185.5 157,-166.5 -1,-166.5"/>
<text text-anchor="middle" x="78" y="-173.5" font-family="Helvetica,sans-Serif" font-size="10.00">cellsociety_team01.rules.Rule</text>
</a>
</g>
</g>
<!-- Node3&#45;&gt;Node2 -->
<g id="edge2" class="edge"><title>Node3&#45;&gt;Node2</title>
<path fill="none" stroke="midnightblue" d="M88.2992,-157.571C98.0557,-141.06 112.528,-116.568 121.604,-101.209"/>
<polygon fill="midnightblue" stroke="midnightblue" points="85.2502,-155.851 83.1761,-166.241 91.2767,-159.412 85.2502,-155.851"/>
</g>
<!-- Node4 -->
<g id="node4" class="node"><title>Node4</title>
<g id="a_node4"><a xlink:href="../../d2/d65/classcellsociety__team01_1_1_cell_state_1_1_state.html" target="_top" xlink:title="cellsociety_team01.CellState.\lState">
<polygon fill="white" stroke="black" points="175,-161 175,-191 333,-191 333,-161 175,-161"/>
<text text-anchor="start" x="183" y="-179" font-family="Helvetica,sans-Serif" font-size="10.00">cellsociety_team01.CellState.</text>
<text text-anchor="middle" x="254" y="-168" font-family="Helvetica,sans-Serif" font-size="10.00">State</text>
</a>
</g>
</g>
<!-- Node4&#45;&gt;Node2 -->
<g id="edge3" class="edge"><title>Node4&#45;&gt;Node2</title>
<path fill="none" stroke="#9a32cd" stroke-dasharray="5,2" d="M225.686,-154.907C202.531,-138.473 170.373,-115.652 149.873,-101.104"/>
<polygon fill="#9a32cd" stroke="#9a32cd" points="223.897,-157.928 234.077,-160.861 227.948,-152.219 223.897,-157.928"/>
<text text-anchor="middle" x="227.5" y="-134" font-family="Helvetica,sans-Serif" font-size="10.00"> myStart</text>
<text text-anchor="middle" x="227.5" y="-123" font-family="Helvetica,sans-Serif" font-size="10.00">myEnd</text>
</g>
<!-- Node5 -->
<g id="node5" class="node"><title>Node5</title>
<polygon fill="white" stroke="#bfbfbf" points="233.5,-240.5 233.5,-259.5 274.5,-259.5 274.5,-240.5 233.5,-240.5"/>
<text text-anchor="middle" x="254" y="-247.5" font-family="Helvetica,sans-Serif" font-size="10.00">Color</text>
</g>
<!-- Node5&#45;&gt;Node4 -->
<g id="edge4" class="edge"><title>Node5&#45;&gt;Node4</title>
<path fill="none" stroke="#9a32cd" stroke-dasharray="5,2" d="M254,-230.085C254,-217.915 254,-202.354 254,-191.232"/>
<polygon fill="#9a32cd" stroke="#9a32cd" points="250.5,-230.458 254,-240.458 257.5,-230.458 250.5,-230.458"/>
<text text-anchor="middle" x="275.5" y="-213.5" font-family="Helvetica,sans-Serif" font-size="10.00"> myColor</text>
</g>
</g>
</svg>
