<?xml version="1.0" encoding="UTF-8" standalone="no"?>
<!DOCTYPE svg PUBLIC "-//W3C//DTD SVG 1.1//EN"
 "http://www.w3.org/Graphics/SVG/1.1/DTD/svg11.dtd">
<!-- Generated by graphviz version 2.36.0 (20140111.2315)
 -->
<!-- Title: cellsociety_team01.modelview.Grid Pages: 1 -->
<svg width="1338pt" height="838pt"
 viewBox="0.00 0.00 1338.00 838.00" xmlns="http://www.w3.org/2000/svg" xmlns:xlink="http://www.w3.org/1999/xlink">
<g id="graph0" class="graph" transform="scale(1 1) rotate(0) translate(4 834)">
<title>cellsociety_team01.modelview.Grid</title>
<polygon fill="white" stroke="none" points="-4,4 -4,-834 1334,-834 1334,4 -4,4"/>
<!-- Node1 -->
<g id="node1" class="node"><title>Node1</title>
<polygon fill="#bfbfbf" stroke="black" points="596,-667.5 596,-686.5 780,-686.5 780,-667.5 596,-667.5"/>
<text text-anchor="middle" x="688" y="-674.5" font-family="Helvetica,sans-Serif" font-size="10.00">cellsociety_team01.modelview.Grid</text>
</g>
<!-- Node3 -->
<g id="node3" class="node"><title>Node3</title>
<g id="a_node3"><a xlink:href="../../db/d10/classcellsociety__team01_1_1modelview_1_1_g_u_i.html" target="_top" xlink:title="cellsociety_team01.modelview.GUI">
<polygon fill="white" stroke="black" points="1148,-280.5 1148,-299.5 1330,-299.5 1330,-280.5 1148,-280.5"/>
<text text-anchor="middle" x="1239" y="-287.5" font-family="Helvetica,sans-Serif" font-size="10.00">cellsociety_team01.modelview.GUI</text>
</a>
</g>
</g>
<!-- Node1&#45;&gt;Node3 -->
<g id="edge22" class="edge"><title>Node1&#45;&gt;Node3</title>
<path fill="none" stroke="#9a32cd" stroke-dasharray="5,2" d="M759.418,-665.498C854.449,-646.64 1024.02,-600.772 1130,-501 1194.42,-440.352 1226.81,-332.747 1235.53,-299.836"/>
<polygon fill="#9a32cd" stroke="#9a32cd" points="758.484,-662.114 749.333,-667.453 759.817,-668.986 758.484,-662.114"/>
<text text-anchor="middle" x="956" y="-639" font-family="Helvetica,sans-Serif" font-size="10.00"> myModel</text>
</g>
<!-- Node5 -->
<g id="node5" class="node"><title>Node5</title>
<g id="a_node5"><a xlink:href="../../db/d40/classcellsociety__team01_1_1parser_1_1_parser.html" target="_top" xlink:title="cellsociety_team01.parser.\lParser">
<polygon fill="white" stroke="black" points="883.5,-443 883.5,-473 1028.5,-473 1028.5,-443 883.5,-443"/>
<text text-anchor="start" x="891.5" y="-461" font-family="Helvetica,sans-Serif" font-size="10.00">cellsociety_team01.parser.</text>
<text text-anchor="middle" x="956" y="-450" font-family="Helvetica,sans-Serif" font-size="10.00">Parser</text>
</a>
</g>
</g>
<!-- Node1&#45;&gt;Node5 -->
<g id="edge13" class="edge"><title>Node1&#45;&gt;Node5</title>
<path fill="none" stroke="#9a32cd" stroke-dasharray="5,2" d="M711.461,-661.593C733.049,-647.175 766.893,-625.58 798,-610 822.794,-597.581 838.513,-608.522 856,-587 885.581,-550.593 843.019,-518.223 874,-483 877.402,-479.132 881.388,-475.855 885.734,-473.078"/>
<polygon fill="#9a32cd" stroke="#9a32cd" points="709.338,-658.803 703.003,-667.295 713.251,-664.607 709.338,-658.803"/>
<text text-anchor="middle" x="827" y="-613" font-family="Helvetica,sans-Serif" font-size="10.00"> myGrid</text>
</g>
<!-- Node2 -->
<g id="node2" class="node"><title>Node2</title>
<polygon fill="white" stroke="#bfbfbf" points="379,-760.5 379,-779.5 435,-779.5 435,-760.5 379,-760.5"/>
<text text-anchor="middle" x="407" y="-767.5" font-family="Helvetica,sans-Serif" font-size="10.00">Timeline</text>
</g>
<!-- Node2&#45;&gt;Node1 -->
<g id="edge1" class="edge"><title>Node2&#45;&gt;Node1</title>
<path fill="none" stroke="#9a32cd" stroke-dasharray="5,2" d="M445.523,-761.662C460.093,-758.269 476.882,-754.167 492,-750 530.621,-739.354 540.392,-736.804 578,-723 609.044,-711.606 644.152,-696.349 665.934,-686.595"/>
<polygon fill="#9a32cd" stroke="#9a32cd" points="444.323,-758.346 435.362,-763.998 445.892,-765.168 444.323,-758.346"/>
<text text-anchor="middle" x="544" y="-748" font-family="Helvetica,sans-Serif" font-size="10.00"> myLoop</text>
</g>
<!-- Node3&#45;&gt;Node1 -->
<g id="edge2" class="edge"><title>Node3&#45;&gt;Node1</title>
<path fill="none" stroke="#9a32cd" stroke-dasharray="5,2" d="M1235.02,-309.897C1224.26,-378.769 1185.18,-605.198 1130,-649 1008.48,-745.472 803.715,-706.987 723.088,-686.574"/>
<polygon fill="#9a32cd" stroke="#9a32cd" points="1238.54,-310.006 1236.6,-299.592 1231.62,-308.946 1238.54,-310.006"/>
<text text-anchor="middle" x="956" y="-715" font-family="Helvetica,sans-Serif" font-size="10.00"> myView</text>
</g>
<!-- Node4 -->
<g id="node4" class="node"><title>Node4</title>
<polygon fill="white" stroke="#bfbfbf" points="933.5,-492.5 933.5,-511.5 978.5,-511.5 978.5,-492.5 933.5,-492.5"/>
<text text-anchor="middle" x="956" y="-499.5" font-family="Helvetica,sans-Serif" font-size="10.00">Stage</text>
</g>
<!-- Node4&#45;&gt;Node3 -->
<g id="edge3" class="edge"><title>Node4&#45;&gt;Node3</title>
<path fill="none" stroke="#9a32cd" stroke-dasharray="5,2" d="M988.886,-499.653C1026.12,-495.473 1087.95,-483.902 1130,-452 1186.55,-409.098 1223,-327.57 1234.27,-299.656"/>
<polygon fill="#9a32cd" stroke="#9a32cd" points="988.221,-496.202 978.622,-500.688 988.923,-503.167 988.221,-496.202"/>
<text text-anchor="middle" x="1093" y="-489" font-family="Helvetica,sans-Serif" font-size="10.00"> myStage</text>
</g>
<!-- Node5&#45;&gt;Node3 -->
<g id="edge4" class="edge"><title>Node5&#45;&gt;Node3</title>
<path fill="none" stroke="#9a32cd" stroke-dasharray="5,2" d="M1038.42,-442.346C1068.67,-434.203 1102.33,-422.233 1130,-405 1176.73,-375.896 1216.66,-321.6 1231.66,-299.613"/>
<polygon fill="#9a32cd" stroke="#9a32cd" points="1037.53,-438.961 1028.73,-444.857 1039.28,-445.737 1037.53,-438.961"/>
<text text-anchor="middle" x="1093" y="-440" font-family="Helvetica,sans-Serif" font-size="10.00"> parser</text>
</g>
<!-- Node6 -->
<g id="node6" class="node"><title>Node6</title>
<polygon fill="white" stroke="#bfbfbf" points="612,-346.5 612,-387.5 764,-387.5 764,-346.5 612,-346.5"/>
<text text-anchor="start" x="620" y="-375.5" font-family="Helvetica,sans-Serif" font-size="10.00">Map&lt; cellsociety_team01.</text>
<text text-anchor="start" x="620" y="-364.5" font-family="Helvetica,sans-Serif" font-size="10.00">Pair, cellsociety_team01.Cell</text>
<text text-anchor="middle" x="688" y="-353.5" font-family="Helvetica,sans-Serif" font-size="10.00">State.Cell &gt;</text>
</g>
<!-- Node6&#45;&gt;Node5 -->
<g id="edge5" class="edge"><title>Node6&#45;&gt;Node5</title>
<path fill="none" stroke="#9a32cd" stroke-dasharray="5,2" d="M771.23,-390.55C798.385,-398.742 828.639,-408.316 856,-418 877.494,-425.608 901.188,-435.139 920.006,-442.989"/>
<polygon fill="#9a32cd" stroke="#9a32cd" points="771.96,-387.115 761.376,-387.597 769.95,-393.821 771.96,-387.115"/>
<text text-anchor="middle" x="827" y="-421" font-family="Helvetica,sans-Serif" font-size="10.00"> myCells</text>
</g>
<!-- Node7 -->
<g id="node7" class="node"><title>Node7</title>
<g id="a_node7"><a xlink:href="../../da/df7/classcellsociety__team01_1_1simulations_1_1_simulation.html" target="_top" xlink:title="cellsociety_team01.simulations.\lSimulation">
<polygon fill="white" stroke="black" points="322,-563 322,-593 492,-593 492,-563 322,-563"/>
<text text-anchor="start" x="330" y="-581" font-family="Helvetica,sans-Serif" font-size="10.00">cellsociety_team01.simulations.</text>
<text text-anchor="middle" x="407" y="-570" font-family="Helvetica,sans-Serif" font-size="10.00">Simulation</text>
</a>
</g>
</g>
<!-- Node7&#45;&gt;Node1 -->
<g id="edge25" class="edge"><title>Node7&#45;&gt;Node1</title>
<path fill="none" stroke="#9a32cd" stroke-dasharray="5,2" d="M469.268,-595.956C476.935,-598.284 484.658,-600.67 492,-603 530.448,-615.2 540.226,-617.851 578,-632 608.484,-643.418 643.148,-658.012 665.041,-667.432"/>
<polygon fill="#9a32cd" stroke="#9a32cd" points="470.205,-592.583 459.621,-593.045 468.183,-599.284 470.205,-592.583"/>
<text text-anchor="middle" x="544" y="-635" font-family="Helvetica,sans-Serif" font-size="10.00"> simulation</text>
</g>
<!-- Node7&#45;&gt;Node5 -->
<g id="edge6" class="edge"><title>Node7&#45;&gt;Node5</title>
<path fill="none" stroke="#9a32cd" stroke-dasharray="5,2" d="M502.624,-582.986C617.844,-587.029 803.593,-586.362 856,-544 877.983,-526.23 854.137,-503.111 874,-483 877.826,-479.126 882.239,-475.849 886.988,-473.078"/>
<polygon fill="#9a32cd" stroke="#9a32cd" points="502.512,-579.48 492.39,-582.608 502.254,-586.475 502.512,-579.48"/>
<text text-anchor="middle" x="688" y="-588" font-family="Helvetica,sans-Serif" font-size="10.00"> mySim</text>
</g>
<!-- Node8 -->
<g id="node8" class="node"><title>Node8</title>
<polygon fill="white" stroke="#bfbfbf" points="49.5,-520.5 49.5,-539.5 142.5,-539.5 142.5,-520.5 49.5,-520.5"/>
<text text-anchor="middle" x="96" y="-527.5" font-family="Helvetica,sans-Serif" font-size="10.00">ResourceBundle</text>
</g>
<!-- Node8&#45;&gt;Node3 -->
<g id="edge14" class="edge"><title>Node8&#45;&gt;Node3</title>
<path fill="none" stroke="#9a32cd" stroke-dasharray="5,2" d="M122.25,-515.5C193.672,-475.426 404.401,-363.652 596,-326 662.499,-312.932 1052.85,-337.932 1056,-338 1088.88,-338.714 1097.83,-344.827 1130,-338 1164.72,-330.631 1201.84,-311.301 1222.25,-299.541"/>
<polygon fill="#9a32cd" stroke="#9a32cd" points="120.472,-512.484 113.487,-520.45 123.915,-518.579 120.472,-512.484"/>
<text text-anchor="middle" x="688" y="-329" font-family="Helvetica,sans-Serif" font-size="10.00"> myResources</text>
</g>
<!-- Node8&#45;&gt;Node5 -->
<g id="edge9" class="edge"><title>Node8&#45;&gt;Node5</title>
<path fill="none" stroke="#9a32cd" stroke-dasharray="5,2" d="M152.931,-532.064C269.881,-535.586 548.616,-539.825 780,-511 814.347,-506.721 823.912,-506.977 856,-494 864.692,-490.485 865.454,-486.857 874,-483 882.048,-479.367 890.774,-476.064 899.416,-473.136"/>
<polygon fill="#9a32cd" stroke="#9a32cd" points="152.894,-528.561 142.789,-531.748 152.676,-535.558 152.894,-528.561"/>
<text text-anchor="middle" x="544" y="-535" font-family="Helvetica,sans-Serif" font-size="10.00"> myDefVals</text>
</g>
<!-- Node8&#45;&gt;Node7 -->
<g id="edge7" class="edge"><title>Node8&#45;&gt;Node7</title>
<path fill="none" stroke="#9a32cd" stroke-dasharray="5,2" d="M152.603,-538.637C199.69,-545.952 267.918,-556.55 321.718,-564.908"/>
<polygon fill="#9a32cd" stroke="#9a32cd" points="153.013,-535.159 142.594,-537.083 151.938,-542.076 153.013,-535.159"/>
<text text-anchor="middle" x="257" y="-565" font-family="Helvetica,sans-Serif" font-size="10.00"> myColorScheme</text>
</g>
<!-- Node9 -->
<g id="node9" class="node"><title>Node9</title>
<polygon fill="white" stroke="#bfbfbf" points="0.5,-576.5 0.5,-617.5 191.5,-617.5 191.5,-576.5 0.5,-576.5"/>
<text text-anchor="start" x="8.5" y="-605.5" font-family="Helvetica,sans-Serif" font-size="10.00">Map&lt; cellsociety_team01.</text>
<text text-anchor="start" x="8.5" y="-594.5" font-family="Helvetica,sans-Serif" font-size="10.00">CellState.State, ArrayList</text>
<text text-anchor="middle" x="96" y="-583.5" font-family="Helvetica,sans-Serif" font-size="10.00">&lt; cellsociety_team01.rules.Rule &gt; &gt;</text>
</g>
<!-- Node9&#45;&gt;Node7 -->
<g id="edge8" class="edge"><title>Node9&#45;&gt;Node7</title>
<path fill="none" stroke="#9a32cd" stroke-dasharray="5,2" d="M202.155,-590.534C241.194,-588.134 284.929,-585.444 321.85,-583.174"/>
<polygon fill="#9a32cd" stroke="#9a32cd" points="201.576,-587.063 191.81,-591.17 202.006,-594.05 201.576,-587.063"/>
<text text-anchor="middle" x="257" y="-593" font-family="Helvetica,sans-Serif" font-size="10.00"> myData</text>
</g>
<!-- Node10 -->
<g id="node10" class="node"><title>Node10</title>
<polygon fill="white" stroke="#bfbfbf" points="660,-482.5 660,-501.5 716,-501.5 716,-482.5 660,-482.5"/>
<text text-anchor="middle" x="688" y="-489.5" font-family="Helvetica,sans-Serif" font-size="10.00">Element</text>
</g>
<!-- Node10&#45;&gt;Node5 -->
<g id="edge10" class="edge"><title>Node10&#45;&gt;Node5</title>
<path fill="none" stroke="#9a32cd" stroke-dasharray="5,2" d="M726.464,-487.211C767.044,-482.024 832.751,-473.626 883.318,-467.162"/>
<polygon fill="#9a32cd" stroke="#9a32cd" points="725.94,-483.75 716.465,-488.489 726.828,-490.693 725.94,-483.75"/>
<text text-anchor="middle" x="827" y="-482" font-family="Helvetica,sans-Serif" font-size="10.00"> myRoot</text>
</g>
<!-- Node11 -->
<g id="node11" class="node"><title>Node11</title>
<polygon fill="white" stroke="#bfbfbf" points="672,-406.5 672,-425.5 704,-425.5 704,-406.5 672,-406.5"/>
<text text-anchor="middle" x="688" y="-413.5" font-family="Helvetica,sans-Serif" font-size="10.00">File</text>
</g>
<!-- Node11&#45;&gt;Node3 -->
<g id="edge18" class="edge"><title>Node11&#45;&gt;Node3</title>
<path fill="none" stroke="#9a32cd" stroke-dasharray="5,2" d="M714.491,-417.784C783.897,-421.707 981.014,-426.591 1130,-369 1171.39,-353.002 1211.14,-316.9 1228.65,-299.599"/>
<polygon fill="#9a32cd" stroke="#9a32cd" points="714.313,-414.266 704.117,-417.148 713.885,-421.253 714.313,-414.266"/>
<text text-anchor="middle" x="956" y="-421" font-family="Helvetica,sans-Serif" font-size="10.00"> file</text>
</g>
<!-- Node11&#45;&gt;Node5 -->
<g id="edge11" class="edge"><title>Node11&#45;&gt;Node5</title>
<path fill="none" stroke="#9a32cd" stroke-dasharray="5,2" d="M714.264,-419.61C746.994,-424.326 805.81,-432.935 856,-441 864.867,-442.425 874.174,-443.964 883.383,-445.515"/>
<polygon fill="#9a32cd" stroke="#9a32cd" points="714.61,-416.124 704.214,-418.166 713.615,-423.053 714.61,-416.124"/>
<text text-anchor="middle" x="827" y="-444" font-family="Helvetica,sans-Serif" font-size="10.00"> myFile</text>
</g>
<!-- Node12 -->
<g id="node12" class="node"><title>Node12</title>
<polygon fill="white" stroke="#bfbfbf" points="660,-444.5 660,-463.5 716,-463.5 716,-444.5 660,-444.5"/>
<text text-anchor="middle" x="688" y="-451.5" font-family="Helvetica,sans-Serif" font-size="10.00">Random</text>
</g>
<!-- Node12&#45;&gt;Node5 -->
<g id="edge12" class="edge"><title>Node12&#45;&gt;Node5</title>
<path fill="none" stroke="#9a32cd" stroke-dasharray="5,2" d="M726.464,-454.563C767.044,-455.174 832.751,-456.162 883.318,-456.922"/>
<polygon fill="#9a32cd" stroke="#9a32cd" points="726.516,-451.064 716.465,-454.413 726.411,-458.063 726.516,-451.064"/>
<text text-anchor="middle" x="827" y="-460" font-family="Helvetica,sans-Serif" font-size="10.00"> myRandom</text>
</g>
<!-- Node13 -->
<g id="node13" class="node"><title>Node13</title>
<polygon fill="white" stroke="#bfbfbf" points="928,-297.5 928,-316.5 984,-316.5 984,-297.5 928,-297.5"/>
<text text-anchor="middle" x="956" y="-304.5" font-family="Helvetica,sans-Serif" font-size="10.00">TextField</text>
</g>
<!-- Node13&#45;&gt;Node3 -->
<g id="edge15" class="edge"><title>Node13&#45;&gt;Node3</title>
<path fill="none" stroke="#9a32cd" stroke-dasharray="5,2" d="M994.555,-304.728C1033.58,-302.367 1096.09,-298.586 1147.99,-295.446"/>
<polygon fill="#9a32cd" stroke="#9a32cd" points="993.969,-301.257 984.199,-305.355 994.392,-308.244 993.969,-301.257"/>
<text text-anchor="middle" x="1093" y="-326" font-family="Helvetica,sans-Serif" font-size="10.00"> textField1</text>
<text text-anchor="middle" x="1093" y="-315" font-family="Helvetica,sans-Serif" font-size="10.00">textField2</text>
<text text-anchor="middle" x="1093" y="-304" font-family="Helvetica,sans-Serif" font-size="10.00">textField3</text>
</g>
<!-- Node14 -->
<g id="node14" class="node"><title>Node14</title>
<polygon fill="white" stroke="#bfbfbf" points="934,-259.5 934,-278.5 978,-278.5 978,-259.5 934,-259.5"/>
<text text-anchor="middle" x="956" y="-266.5" font-family="Helvetica,sans-Serif" font-size="10.00">Slider</text>
</g>
<!-- Node14&#45;&gt;Node3 -->
<g id="edge16" class="edge"><title>Node14&#45;&gt;Node3</title>
<path fill="none" stroke="#9a32cd" stroke-dasharray="5,2" d="M988.137,-271.327C1026.44,-274.189 1093.12,-279.173 1147.97,-283.272"/>
<polygon fill="#9a32cd" stroke="#9a32cd" points="988.354,-267.833 978.121,-270.578 987.832,-274.814 988.354,-267.833"/>
<text text-anchor="middle" x="1093" y="-285" font-family="Helvetica,sans-Serif" font-size="10.00"> slider</text>
</g>
<!-- Node15 -->
<g id="node15" class="node"><title>Node15</title>
<polygon fill="white" stroke="#bfbfbf" points="931.5,-202.5 931.5,-221.5 980.5,-221.5 980.5,-202.5 931.5,-202.5"/>
<text text-anchor="middle" x="956" y="-209.5" font-family="Helvetica,sans-Serif" font-size="10.00">Button</text>
</g>
<!-- Node15&#45;&gt;Node3 -->
<g id="edge17" class="edge"><title>Node15&#45;&gt;Node3</title>
<path fill="none" stroke="#9a32cd" stroke-dasharray="5,2" d="M990.831,-211.548C1026.31,-211.982 1083.28,-215.272 1130,-230 1166.82,-241.608 1205.26,-266.555 1224.83,-280.345"/>
<polygon fill="#9a32cd" stroke="#9a32cd" points="990.565,-208.046 980.547,-211.495 990.529,-215.046 990.565,-208.046"/>
<text text-anchor="middle" x="1093" y="-266" font-family="Helvetica,sans-Serif" font-size="10.00"> resetButton</text>
<text text-anchor="middle" x="1093" y="-255" font-family="Helvetica,sans-Serif" font-size="10.00">stepButton</text>
<text text-anchor="middle" x="1093" y="-244" font-family="Helvetica,sans-Serif" font-size="10.00">pauseButton</text>
<text text-anchor="middle" x="1093" y="-233" font-family="Helvetica,sans-Serif" font-size="10.00">playButton</text>
</g>
<!-- Node16 -->
<g id="node16" class="node"><title>Node16</title>
<polygon fill="white" stroke="#bfbfbf" points="932.5,-164.5 932.5,-183.5 979.5,-183.5 979.5,-164.5 932.5,-164.5"/>
<text text-anchor="middle" x="956" y="-171.5" font-family="Helvetica,sans-Serif" font-size="10.00">Scene</text>
</g>
<!-- Node16&#45;&gt;Node3 -->
<g id="edge19" class="edge"><title>Node16&#45;&gt;Node3</title>
<path fill="none" stroke="#9a32cd" stroke-dasharray="5,2" d="M990.031,-174.032C1025.97,-175.21 1084.39,-180.519 1130,-201 1173,-220.307 1212.85,-261.463 1229.63,-280.265"/>
<polygon fill="#9a32cd" stroke="#9a32cd" points="989.719,-170.524 979.639,-173.787 989.553,-177.522 989.719,-170.524"/>
<text text-anchor="middle" x="1093" y="-204" font-family="Helvetica,sans-Serif" font-size="10.00"> myScene</text>
</g>
<!-- Node17 -->
<g id="node17" class="node"><title>Node17</title>
<polygon fill="white" stroke="#bfbfbf" points="922,-126.5 922,-145.5 990,-145.5 990,-126.5 922,-126.5"/>
<text text-anchor="middle" x="956" y="-133.5" font-family="Helvetica,sans-Serif" font-size="10.00">Dimension</text>
</g>
<!-- Node17&#45;&gt;Node3 -->
<g id="edge20" class="edge"><title>Node17&#45;&gt;Node3</title>
<path fill="none" stroke="#9a32cd" stroke-dasharray="5,2" d="M1000.47,-135.61C1037.17,-137.063 1089.99,-143.465 1130,-166 1180.74,-194.582 1219.2,-256.353 1232.72,-280.268"/>
<polygon fill="#9a32cd" stroke="#9a32cd" points="1000.19,-132.101 990.095,-135.314 999.991,-139.098 1000.19,-132.101"/>
<text text-anchor="middle" x="1093" y="-169" font-family="Helvetica,sans-Serif" font-size="10.00"> DEFAULT_SIZE</text>
</g>
<!-- Node18 -->
<g id="node18" class="node"><title>Node18</title>
<g id="a_node18"><a xlink:href="../../d3/d6b/interfacecellsociety__team01_1_1modelview_1_1_grid_view.html" target="_top" xlink:title="cellsociety_team01.modelview.\lGridView">
<polygon fill="white" stroke="black" points="874,-77 874,-107 1038,-107 1038,-77 874,-77"/>
<text text-anchor="start" x="882" y="-95" font-family="Helvetica,sans-Serif" font-size="10.00">cellsociety_team01.modelview.</text>
<text text-anchor="middle" x="956" y="-84" font-family="Helvetica,sans-Serif" font-size="10.00">GridView</text>
</a>
</g>
</g>
<!-- Node18&#45;&gt;Node3 -->
<g id="edge21" class="edge"><title>Node18&#45;&gt;Node3</title>
<path fill="none" stroke="#9a32cd" stroke-dasharray="5,2" d="M1048.49,-96.9868C1076.46,-101.926 1106.12,-110.918 1130,-127 1189.41,-167.007 1224.26,-251.797 1234.67,-280.37"/>
<polygon fill="#9a32cd" stroke="#9a32cd" points="1048.7,-93.476 1038.27,-95.3446 1047.59,-100.387 1048.7,-93.476"/>
<text text-anchor="middle" x="1093" y="-130" font-family="Helvetica,sans-Serif" font-size="10.00"> gridView</text>
</g>
<!-- Node19 -->
<g id="node19" class="node"><title>Node19</title>
<polygon fill="white" stroke="#bfbfbf" points="930,-38.5 930,-57.5 982,-57.5 982,-38.5 930,-38.5"/>
<text text-anchor="middle" x="956" y="-45.5" font-family="Helvetica,sans-Serif" font-size="10.00">Canvas</text>
</g>
<!-- Node19&#45;&gt;Node3 -->
<g id="edge23" class="edge"><title>Node19&#45;&gt;Node3</title>
<path fill="none" stroke="#9a32cd" stroke-dasharray="5,2" d="M992.048,-47.1085C1029.76,-47.9111 1089.72,-54.4856 1130,-85 1199.26,-137.468 1228.53,-247.339 1235.99,-280.392"/>
<polygon fill="#9a32cd" stroke="#9a32cd" points="992.068,-43.6086 982.037,-47.0201 992.006,-50.6083 992.068,-43.6086"/>
<text text-anchor="middle" x="1093" y="-88" font-family="Helvetica,sans-Serif" font-size="10.00"> gridCanvas</text>
</g>
<!-- Node20 -->
<g id="node20" class="node"><title>Node20</title>
<polygon fill="white" stroke="#bfbfbf" points="920,-0.5 920,-19.5 992,-19.5 992,-0.5 920,-0.5"/>
<text text-anchor="middle" x="956" y="-7.5" font-family="Helvetica,sans-Serif" font-size="10.00">BorderPane</text>
</g>
<!-- Node20&#45;&gt;Node3 -->
<g id="edge24" class="edge"><title>Node20&#45;&gt;Node3</title>
<path fill="none" stroke="#9a32cd" stroke-dasharray="5,2" d="M1002.33,-6.62154C1040.28,-6.20608 1093.89,-11.5458 1130,-40 1211.7,-104.376 1232.74,-242.737 1237.04,-280.378"/>
<polygon fill="#9a32cd" stroke="#9a32cd" points="1001.97,-3.12914 992.063,-6.8769 1002.15,-10.127 1001.97,-3.12914"/>
<text text-anchor="middle" x="1093" y="-43" font-family="Helvetica,sans-Serif" font-size="10.00"> myRoot</text>
</g>
<!-- Node21 -->
<g id="node21" class="node"><title>Node21</title>
<g id="a_node21"><a xlink:href="../../da/d73/enumcellsociety__team01_1_1modelview_1_1_grid_1_1grid_shape_types.html" target="_top" xlink:title="cellsociety_team01.modelview.\lGrid.gridShapeTypes">
<polygon fill="white" stroke="black" points="325,-662 325,-692 489,-692 489,-662 325,-662"/>
<text text-anchor="start" x="333" y="-680" font-family="Helvetica,sans-Serif" font-size="10.00">cellsociety_team01.modelview.</text>
<text text-anchor="middle" x="407" y="-669" font-family="Helvetica,sans-Serif" font-size="10.00">Grid.gridShapeTypes</text>
</a>
</g>
</g>
<!-- Node21&#45;&gt;Node1 -->
<g id="edge26" class="edge"><title>Node21&#45;&gt;Node1</title>
<path fill="none" stroke="#9a32cd" stroke-dasharray="5,2" d="M499.428,-677C530.402,-677 564.977,-677 595.922,-677"/>
<polygon fill="#9a32cd" stroke="#9a32cd" points="499.073,-673.5 489.073,-677 499.073,-680.5 499.073,-673.5"/>
<text text-anchor="middle" x="544" y="-680" font-family="Helvetica,sans-Serif" font-size="10.00"> myCellShape</text>
</g>
<!-- Node22 -->
<g id="node22" class="node"><title>Node22</title>
<polygon fill="white" stroke="#bfbfbf" points="338.5,-613 338.5,-643 475.5,-643 475.5,-613 338.5,-613"/>
<text text-anchor="start" x="346.5" y="-631" font-family="Helvetica,sans-Serif" font-size="10.00">ArrayList&lt; cellsociety</text>
<text text-anchor="middle" x="407" y="-620" font-family="Helvetica,sans-Serif" font-size="10.00">_team01.CellState.Cell &gt;</text>
</g>
<!-- Node22&#45;&gt;Node1 -->
<g id="edge27" class="edge"><title>Node22&#45;&gt;Node1</title>
<path fill="none" stroke="#9a32cd" stroke-dasharray="5,2" d="M485.637,-641.635C532.421,-649.852 590.846,-660.113 632.694,-667.462"/>
<polygon fill="#9a32cd" stroke="#9a32cd" points="485.993,-638.144 475.538,-639.862 484.782,-645.039 485.993,-638.144"/>
<text text-anchor="middle" x="544" y="-660" font-family="Helvetica,sans-Serif" font-size="10.00"> cells</text>
</g>
<!-- Node23 -->
<g id="node23" class="node"><title>Node23</title>
<g id="a_node23"><a xlink:href="../../d7/de1/classcellsociety__team01_1_1modelview_1_1_grid_model.html" target="_top" xlink:title="cellsociety_team01.modelview.\lGridModel">
<polygon fill="white" stroke="black" points="325,-711 325,-741 489,-741 489,-711 325,-711"/>
<text text-anchor="start" x="333" y="-729" font-family="Helvetica,sans-Serif" font-size="10.00">cellsociety_team01.modelview.</text>
<text text-anchor="middle" x="407" y="-718" font-family="Helvetica,sans-Serif" font-size="10.00">GridModel</text>
</a>
</g>
</g>
<!-- Node23&#45;&gt;Node1 -->
<g id="edge28" class="edge"><title>Node23&#45;&gt;Node1</title>
<path fill="none" stroke="#9a32cd" stroke-dasharray="5,2" d="M498.959,-710.025C543.13,-702.268 594.719,-693.207 632.676,-686.541"/>
<polygon fill="#9a32cd" stroke="#9a32cd" points="498.317,-706.584 489.073,-711.761 499.528,-713.479 498.317,-706.584"/>
<text text-anchor="middle" x="544" y="-711" font-family="Helvetica,sans-Serif" font-size="10.00"> myGridModel</text>
</g>
<!-- Node24 -->
<g id="node24" class="node"><title>Node24</title>
<g id="a_node24"><a xlink:href="../../d4/df6/classcellsociety__team01_1_1modelview_1_1_refine_neighbors_algorithm.html" target="_top" xlink:title="cellsociety_team01.modelview.\lRefineNeighborsAlgorithm">
<polygon fill="white" stroke="black" points="14,-711 14,-741 178,-741 178,-711 14,-711"/>
<text text-anchor="start" x="22" y="-729" font-family="Helvetica,sans-Serif" font-size="10.00">cellsociety_team01.modelview.</text>
<text text-anchor="middle" x="96" y="-718" font-family="Helvetica,sans-Serif" font-size="10.00">RefineNeighborsAlgorithm</text>
</a>
</g>
</g>
<!-- Node24&#45;&gt;Node23 -->
<g id="edge29" class="edge"><title>Node24&#45;&gt;Node23</title>
<path fill="none" stroke="#9a32cd" stroke-dasharray="5,2" d="M188.43,-726C231.701,-726 282.939,-726 324.82,-726"/>
<polygon fill="#9a32cd" stroke="#9a32cd" points="188.186,-722.5 178.186,-726 188.186,-729.5 188.186,-722.5"/>
<text text-anchor="middle" x="257" y="-740" font-family="Helvetica,sans-Serif" font-size="10.00"> myRefineAlgorithm</text>
<text text-anchor="middle" x="257" y="-729" font-family="Helvetica,sans-Serif" font-size="10.00">rna</text>
</g>
<!-- Node25 -->
<g id="node25" class="node"><title>Node25</title>
<g id="a_node25"><a xlink:href="../../dd/d91/enumcellsociety__team01_1_1modelview_1_1_grid_1_1grid_edge_types.html" target="_top" xlink:title="cellsociety_team01.modelview.\lGrid.gridEdgeTypes">
<polygon fill="white" stroke="black" points="325,-799 325,-829 489,-829 489,-799 325,-799"/>
<text text-anchor="start" x="333" y="-817" font-family="Helvetica,sans-Serif" font-size="10.00">cellsociety_team01.modelview.</text>
<text text-anchor="middle" x="407" y="-806" font-family="Helvetica,sans-Serif" font-size="10.00">Grid.gridEdgeTypes</text>
</a>
</g>
</g>
<!-- Node25&#45;&gt;Node1 -->
<g id="edge30" class="edge"><title>Node25&#45;&gt;Node1</title>
<path fill="none" stroke="#9a32cd" stroke-dasharray="5,2" d="M469.268,-796.044C476.935,-793.716 484.658,-791.33 492,-789 530.448,-776.8 542.372,-778.913 578,-760 617.707,-738.922 658.195,-703.727 676.669,-686.748"/>
<polygon fill="#9a32cd" stroke="#9a32cd" points="468.183,-792.716 459.621,-798.955 470.205,-799.417 468.183,-792.716"/>
<text text-anchor="middle" x="544" y="-787" font-family="Helvetica,sans-Serif" font-size="10.00"> myEdgeType</text>
</g>
</g>
</svg>
