<?xml version="1.0" encoding="UTF-8" standalone="no"?>
<!DOCTYPE svg PUBLIC "-//W3C//DTD SVG 1.1//EN"
 "http://www.w3.org/Graphics/SVG/1.1/DTD/svg11.dtd">
<!-- Generated by graphviz version 2.36.0 (20140111.2315)
 -->
<!-- Title: cellsociety_team01.modelview.InfiniteRefineNeighborsAlgorithm.refineNeighbors Pages: 1 -->
<svg width="614pt" height="66pt"
 viewBox="0.00 0.00 614.00 66.00" xmlns="http://www.w3.org/2000/svg" xmlns:xlink="http://www.w3.org/1999/xlink">
<g id="graph0" class="graph" transform="scale(1 1) rotate(0) translate(4 62)">
<title>cellsociety_team01.modelview.InfiniteRefineNeighborsAlgorithm.refineNeighbors</title>
<polygon fill="white" stroke="none" points="-4,4 -4,-62 610,-62 610,4 -4,4"/>
<!-- Node1 -->
<g id="node1" class="node"><title>Node1</title>
<polygon fill="#bfbfbf" stroke="black" points="0,-8.5 0,-49.5 202,-49.5 202,-8.5 0,-8.5"/>
<text text-anchor="start" x="8" y="-37.5" font-family="Helvetica,sans-Serif" font-size="10.00">cellsociety_team01.modelview.</text>
<text text-anchor="start" x="8" y="-26.5" font-family="Helvetica,sans-Serif" font-size="10.00">InfiniteRefineNeighborsAlgorithm.refine</text>
<text text-anchor="middle" x="101" y="-15.5" font-family="Helvetica,sans-Serif" font-size="10.00">Neighbors</text>
</g>
<!-- Node2 -->
<g id="node2" class="node"><title>Node2</title>
<g id="a_node2"><a xlink:href="../../d4/df6/classcellsociety__team01_1_1modelview_1_1_refine_neighbors_algorithm.html#ad13484163dff119fcc623ff7b4d7d1de" target="_top" xlink:title="cellsociety_team01.modelview.\lRefineNeighborsAlgorithm.findCell\lForPair">
<polygon fill="white" stroke="black" points="238,-8.5 238,-49.5 416,-49.5 416,-8.5 238,-8.5"/>
<text text-anchor="start" x="246" y="-37.5" font-family="Helvetica,sans-Serif" font-size="10.00">cellsociety_team01.modelview.</text>
<text text-anchor="start" x="246" y="-26.5" font-family="Helvetica,sans-Serif" font-size="10.00">RefineNeighborsAlgorithm.findCell</text>
<text text-anchor="middle" x="327" y="-15.5" font-family="Helvetica,sans-Serif" font-size="10.00">ForPair</text>
</a>
</g>
</g>
<!-- Node1&#45;&gt;Node2 -->
<g id="edge1" class="edge"><title>Node1&#45;&gt;Node2</title>
<path fill="none" stroke="midnightblue" d="M202.207,-29C210.654,-29 219.192,-29 227.625,-29"/>
<polygon fill="midnightblue" stroke="midnightblue" points="227.846,-32.5001 237.846,-29 227.846,-25.5001 227.846,-32.5001"/>
</g>
<!-- Node3 -->
<g id="node3" class="node"><title>Node3</title>
<g id="a_node3"><a xlink:href="../../d8/d80/classcellsociety__team01_1_1_pair.html#a1a97e852278e185e3e50f37c826b12e8" target="_top" xlink:title="cellsociety_team01.Pair.getX">
<polygon fill="white" stroke="black" points="452.5,-38.5 452.5,-57.5 605.5,-57.5 605.5,-38.5 452.5,-38.5"/>
<text text-anchor="middle" x="529" y="-45.5" font-family="Helvetica,sans-Serif" font-size="10.00">cellsociety_team01.Pair.getX</text>
</a>
</g>
</g>
<!-- Node2&#45;&gt;Node3 -->
<g id="edge2" class="edge"><title>Node2&#45;&gt;Node3</title>
<path fill="none" stroke="midnightblue" d="M416.014,-37.3613C424.752,-38.1914 433.613,-39.0333 442.327,-39.861"/>
<polygon fill="midnightblue" stroke="midnightblue" points="442.185,-43.3632 452.471,-40.8247 442.847,-36.3946 442.185,-43.3632"/>
</g>
<!-- Node4 -->
<g id="node4" class="node"><title>Node4</title>
<g id="a_node4"><a xlink:href="../../d8/d80/classcellsociety__team01_1_1_pair.html#a8bf4fdfd4efdf9e3b37eb69706b3b952" target="_top" xlink:title="cellsociety_team01.Pair.getY">
<polygon fill="white" stroke="black" points="453,-0.5 453,-19.5 605,-19.5 605,-0.5 453,-0.5"/>
<text text-anchor="middle" x="529" y="-7.5" font-family="Helvetica,sans-Serif" font-size="10.00">cellsociety_team01.Pair.getY</text>
</a>
</g>
</g>
<!-- Node2&#45;&gt;Node4 -->
<g id="edge3" class="edge"><title>Node2&#45;&gt;Node4</title>
<path fill="none" stroke="midnightblue" d="M416.014,-20.6387C424.827,-19.8014 433.766,-18.9522 442.552,-18.1176"/>
<polygon fill="midnightblue" stroke="midnightblue" points="443.155,-21.5762 452.779,-17.146 442.492,-14.6075 443.155,-21.5762"/>
</g>
</g>
</svg>
