<?xml version="1.0" encoding="UTF-8" standalone="no"?>
<!DOCTYPE svg PUBLIC "-//W3C//DTD SVG 1.1//EN"
 "http://www.w3.org/Graphics/SVG/1.1/DTD/svg11.dtd">
<!-- Generated by graphviz version 2.36.0 (20140111.2315)
 -->
<!-- Title: cellsociety_team01.CellState.State Pages: 1 -->
<svg width="578pt" height="102pt"
 viewBox="0.00 0.00 578.00 102.00" xmlns="http://www.w3.org/2000/svg" xmlns:xlink="http://www.w3.org/1999/xlink">
<g id="graph0" class="graph" transform="scale(1 1) rotate(0) translate(4 98)">
<title>cellsociety_team01.CellState.State</title>
<polygon fill="white" stroke="none" points="-4,4 -4,-98 574,-98 574,4 -4,4"/>
<!-- Node1 -->
<g id="node1" class="node"><title>Node1</title>
<polygon fill="#bfbfbf" stroke="black" points="0,-17 0,-47 158,-47 158,-17 0,-17"/>
<text text-anchor="start" x="8" y="-35" font-family="Helvetica,sans-Serif" font-size="10.00">cellsociety_team01.CellState.</text>
<text text-anchor="middle" x="79" y="-24" font-family="Helvetica,sans-Serif" font-size="10.00">State</text>
</g>
<!-- Node2 -->
<g id="node2" class="node"><title>Node2</title>
<g id="a_node2"><a xlink:href="../../d7/d26/classcellsociety__team01_1_1_cell_state_1_1_int_state.html" target="_top" xlink:title="cellsociety_team01.CellState.\lIntState">
<polygon fill="white" stroke="black" points="206,-39 206,-69 364,-69 364,-39 206,-39"/>
<text text-anchor="start" x="214" y="-57" font-family="Helvetica,sans-Serif" font-size="10.00">cellsociety_team01.CellState.</text>
<text text-anchor="middle" x="285" y="-46" font-family="Helvetica,sans-Serif" font-size="10.00">IntState</text>
</a>
</g>
</g>
<!-- Node1&#45;&gt;Node2 -->
<g id="edge1" class="edge"><title>Node1&#45;&gt;Node2</title>
<path fill="none" stroke="midnightblue" d="M168.262,-41.5184C180.792,-42.8697 193.603,-44.2513 205.921,-45.5797"/>
<polygon fill="midnightblue" stroke="midnightblue" points="168.606,-38.0353 158.288,-40.4429 167.855,-44.995 168.606,-38.0353"/>
</g>
<!-- Node5 -->
<g id="node5" class="node"><title>Node5</title>
<g id="a_node5"><a xlink:href="../../db/d55/classcellsociety__team01_1_1_cell_state_1_1_race.html" target="_top" xlink:title="cellsociety_team01.CellState.Race">
<polygon fill="white" stroke="black" points="194,-0.5 194,-19.5 376,-19.5 376,-0.5 194,-0.5"/>
<text text-anchor="middle" x="285" y="-7.5" font-family="Helvetica,sans-Serif" font-size="10.00">cellsociety_team01.CellState.Race</text>
</a>
</g>
</g>
<!-- Node1&#45;&gt;Node5 -->
<g id="edge4" class="edge"><title>Node1&#45;&gt;Node5</title>
<path fill="none" stroke="midnightblue" d="M168.428,-22.4637C177.477,-21.4878 186.671,-20.4963 195.718,-19.5206"/>
<polygon fill="midnightblue" stroke="midnightblue" points="167.855,-19.005 158.288,-23.5571 168.606,-25.9647 167.855,-19.005"/>
</g>
<!-- Node3 -->
<g id="node3" class="node"><title>Node3</title>
<g id="a_node3"><a xlink:href="../../db/d14/classcellsociety__team01_1_1_cell_state_1_1_color_change_int_state.html" target="_top" xlink:title="cellsociety_team01.CellState.\lColorChangeIntState">
<polygon fill="white" stroke="black" points="412,-64 412,-94 570,-94 570,-64 412,-64"/>
<text text-anchor="start" x="420" y="-82" font-family="Helvetica,sans-Serif" font-size="10.00">cellsociety_team01.CellState.</text>
<text text-anchor="middle" x="491" y="-71" font-family="Helvetica,sans-Serif" font-size="10.00">ColorChangeIntState</text>
</a>
</g>
</g>
<!-- Node2&#45;&gt;Node3 -->
<g id="edge2" class="edge"><title>Node2&#45;&gt;Node3</title>
<path fill="none" stroke="midnightblue" d="M374.262,-64.8164C386.792,-66.3519 399.603,-67.9219 411.921,-69.4315"/>
<polygon fill="midnightblue" stroke="midnightblue" points="374.64,-61.3366 364.288,-63.5942 373.788,-68.2846 374.64,-61.3366"/>
</g>
<!-- Node4 -->
<g id="node4" class="node"><title>Node4</title>
<g id="a_node4"><a xlink:href="../../d1/d2b/classcellsociety__team01_1_1_cell_state_1_1_directional_automaton.html" target="_top" xlink:title="cellsociety_team01.CellState.\lDirectionalAutomaton">
<polygon fill="white" stroke="black" points="412,-15 412,-45 570,-45 570,-15 412,-15"/>
<text text-anchor="start" x="420" y="-33" font-family="Helvetica,sans-Serif" font-size="10.00">cellsociety_team01.CellState.</text>
<text text-anchor="middle" x="491" y="-22" font-family="Helvetica,sans-Serif" font-size="10.00">DirectionalAutomaton</text>
</a>
</g>
</g>
<!-- Node2&#45;&gt;Node4 -->
<g id="edge3" class="edge"><title>Node2&#45;&gt;Node4</title>
<path fill="none" stroke="midnightblue" d="M374.262,-43.6163C386.792,-42.1422 399.603,-40.6349 411.921,-39.1857"/>
<polygon fill="midnightblue" stroke="midnightblue" points="373.811,-40.1451 364.288,-44.7896 374.629,-47.0971 373.811,-40.1451"/>
</g>
</g>
</svg>
