<?xml version="1.0" encoding="UTF-8" standalone="no"?>
<!DOCTYPE svg PUBLIC "-//W3C//DTD SVG 1.1//EN"
 "http://www.w3.org/Graphics/SVG/1.1/DTD/svg11.dtd">
<!-- Generated by graphviz version 2.36.0 (20140111.2315)
 -->
<!-- Title: cellsociety_team01.modelview.Grid.getCols Pages: 1 -->
<svg width="772pt" height="61pt"
 viewBox="0.00 0.00 772.00 61.00" xmlns="http://www.w3.org/2000/svg" xmlns:xlink="http://www.w3.org/1999/xlink">
<g id="graph0" class="graph" transform="scale(1 1) rotate(0) translate(4 57)">
<title>cellsociety_team01.modelview.Grid.getCols</title>
<polygon fill="white" stroke="none" points="-4,4 -4,-57 768,-57 768,4 -4,4"/>
<!-- Node1 -->
<g id="node1" class="node"><title>Node1</title>
<polygon fill="#bfbfbf" stroke="black" points="0,-22 0,-52 164,-52 164,-22 0,-22"/>
<text text-anchor="start" x="8" y="-40" font-family="Helvetica,sans-Serif" font-size="10.00">cellsociety_team01.modelview.</text>
<text text-anchor="middle" x="82" y="-29" font-family="Helvetica,sans-Serif" font-size="10.00">Grid.getCols</text>
</g>
<!-- Node2 -->
<g id="node2" class="node"><title>Node2</title>
<g id="a_node2"><a xlink:href="../../db/d10/classcellsociety__team01_1_1modelview_1_1_g_u_i.html#a07bcff60812627c8dfe97f1aadc671e5" target="_top" xlink:title="cellsociety_team01.modelview.\lGUI.GUI">
<polygon fill="white" stroke="black" points="600,-22 600,-52 764,-52 764,-22 600,-22"/>
<text text-anchor="start" x="608" y="-40" font-family="Helvetica,sans-Serif" font-size="10.00">cellsociety_team01.modelview.</text>
<text text-anchor="middle" x="682" y="-29" font-family="Helvetica,sans-Serif" font-size="10.00">GUI.GUI</text>
</a>
</g>
</g>
<!-- Node1&#45;&gt;Node2 -->
<g id="edge1" class="edge"><title>Node1&#45;&gt;Node2</title>
<path fill="none" stroke="midnightblue" d="M174.354,-38.7122C183.022,-38.8293 191.677,-38.9289 200,-39 361.772,-40.3826 402.228,-40.3826 564,-39 575.579,-38.901 587.803,-38.747 599.809,-38.5673"/>
<polygon fill="midnightblue" stroke="midnightblue" points="174.24,-35.2103 164.191,-38.5673 174.14,-42.2096 174.24,-35.2103"/>
</g>
<!-- Node3 -->
<g id="node3" class="node"><title>Node3</title>
<g id="a_node3"><a xlink:href="../../db/d10/classcellsociety__team01_1_1modelview_1_1_g_u_i.html#afa183319cc9816a6147cba0869ef82eb" target="_top" xlink:title="cellsociety_team01.modelview.\lGUI.loadXML">
<polygon fill="white" stroke="black" points="200,-0 200,-30 364,-30 364,-0 200,-0"/>
<text text-anchor="start" x="208" y="-18" font-family="Helvetica,sans-Serif" font-size="10.00">cellsociety_team01.modelview.</text>
<text text-anchor="middle" x="282" y="-7" font-family="Helvetica,sans-Serif" font-size="10.00">GUI.loadXML</text>
</a>
</g>
</g>
<!-- Node1&#45;&gt;Node3 -->
<g id="edge2" class="edge"><title>Node1&#45;&gt;Node3</title>
<path fill="none" stroke="midnightblue" d="M174.085,-26.8795C182.63,-25.93 191.254,-24.9718 199.7,-24.0333"/>
<polygon fill="midnightblue" stroke="midnightblue" points="173.658,-23.4053 164.105,-27.9883 174.431,-30.3625 173.658,-23.4053"/>
</g>
<!-- Node4 -->
<g id="node4" class="node"><title>Node4</title>
<g id="a_node4"><a xlink:href="../../db/d10/classcellsociety__team01_1_1modelview_1_1_g_u_i.html#a4072ce794f518e806e7a912892f1e9da" target="_top" xlink:title="cellsociety_team01.modelview.\lGUI.makeMenuBar">
<polygon fill="white" stroke="black" points="400,-0 400,-30 564,-30 564,-0 400,-0"/>
<text text-anchor="start" x="408" y="-18" font-family="Helvetica,sans-Serif" font-size="10.00">cellsociety_team01.modelview.</text>
<text text-anchor="middle" x="482" y="-7" font-family="Helvetica,sans-Serif" font-size="10.00">GUI.makeMenuBar</text>
</a>
</g>
</g>
<!-- Node3&#45;&gt;Node4 -->
<g id="edge3" class="edge"><title>Node3&#45;&gt;Node4</title>
<path fill="none" stroke="midnightblue" d="M374.363,-15C382.817,-15 391.346,-15 399.7,-15"/>
<polygon fill="midnightblue" stroke="midnightblue" points="374.106,-11.5001 364.105,-15 374.105,-18.5001 374.106,-11.5001"/>
</g>
<!-- Node4&#45;&gt;Node2 -->
<g id="edge4" class="edge"><title>Node4&#45;&gt;Node2</title>
<path fill="none" stroke="midnightblue" d="M574.085,-25.1205C582.63,-26.07 591.254,-27.0282 599.7,-27.9667"/>
<polygon fill="midnightblue" stroke="midnightblue" points="574.431,-21.6375 564.105,-24.0117 573.658,-28.5947 574.431,-21.6375"/>
</g>
</g>
</svg>
