<?xml version="1.0" encoding="UTF-8" standalone="no"?>
<!DOCTYPE svg PUBLIC "-//W3C//DTD SVG 1.1//EN"
 "http://www.w3.org/Graphics/SVG/1.1/DTD/svg11.dtd">
<!-- Generated by graphviz version 2.36.0 (20140111.2315)
 -->
<!-- Title: cellsociety_team01.modelview.Grid.isSimRunning Pages: 1 -->
<!--zoomable 154 -->
<svg id="main" version="1.1" xmlns="http://www.w3.org/2000/svg" xmlns:xlink="http://www.w3.org/1999/xlink" xml:space="preserve" onload="init(evt)">
<style type="text/css"><![CDATA[
.edge:hover path { stroke: red; }
.edge:hover polygon { stroke: red; fill: red; }
]]></style>
<script type="text/javascript"><![CDATA[
var edges = document.getElementsByTagName('g');
if (edges && edges.length) {
  for (var i=0;i<edges.length;i++) {
    if (edges[i].id.substr(0,4)=='edge') {
      edges[i].setAttribute('class','edge');
    }
  }
}
]]></script>
        <defs>
                <circle id="rim" cx="0" cy="0" r="7"/>
                <circle id="rim2" cx="0" cy="0" r="3.5"/>
                <g id="zoomPlus">
                        <use xlink:href="#rim" fill="#404040">
                                <set attributeName="fill" to="#808080" begin="zoomplus.mouseover" end="zoomplus.mouseout"/>
                        </use>
                        <path d="M-4,0h8M0,-4v8" fill="none" stroke="white" stroke-width="1.5" pointer-events="none"/>
                </g>
                <g id="zoomMin">
                        <use xlink:href="#rim" fill="#404040">
                                <set attributeName="fill" to="#808080" begin="zoomminus.mouseover" end="zoomminus.mouseout"/>
                        </use>
                        <path d="M-4,0h8" fill="none" stroke="white" stroke-width="1.5" pointer-events="none"/>
                </g>
                <g id="dirArrow">
                        <path fill="none" stroke="white" stroke-width="1.5" d="M0,-3.0v7 M-2.5,-0.5L0,-3.0L2.5,-0.5"/>
                </g>
               <g id="resetDef">
                       <use xlink:href="#rim2" fill="#404040">
                               <set attributeName="fill" to="#808080" begin="reset.mouseover" end="reset.mouseout"/>
                       </use>
               </g>
        </defs>

<script type="text/javascript">
var viewWidth = 1772;
var viewHeight = 154;
var sectionId = 'dynsection-10';
</script>
<script xlink:href="../../svgpan.js"/>
<svg id="graph" class="graph">
<g id="viewport">
<title>cellsociety_team01.modelview.Grid.isSimRunning</title>
<polygon fill="white" stroke="none" points="-4,4 -4,-150 1768,-150 1768,4 -4,4"/>
<!-- Node1 -->
<g id="node1" class="node"><title>Node1</title>
<polygon fill="#bfbfbf" stroke="black" points="0,-90 0,-120 164,-120 164,-90 0,-90"/>
<text text-anchor="start" x="8" y="-108" font-family="Helvetica,sans-Serif" font-size="10.00">cellsociety_team01.modelview.</text>
<text text-anchor="middle" x="82" y="-97" font-family="Helvetica,sans-Serif" font-size="10.00">Grid.isSimRunning</text>
</g>
<!-- Node2 -->
<g id="node2" class="node"><title>Node2</title>
<g id="a_node2"><a xlink:href="../../db/d10/classcellsociety__team01_1_1modelview_1_1_g_u_i.html#a2f37acaf37d6fecd19d7ede68dc96561" target="_top" xlink:title="cellsociety_team01.modelview.\lGUI.enableButtons">
<polygon fill="white" stroke="black" points="200,-112 200,-142 364,-142 364,-112 200,-112"/>
<text text-anchor="start" x="208" y="-130" font-family="Helvetica,sans-Serif" font-size="10.00">cellsociety_team01.modelview.</text>
<text text-anchor="middle" x="282" y="-119" font-family="Helvetica,sans-Serif" font-size="10.00">GUI.enableButtons</text>
</a>
</g>
</g>
<!-- Node1&#45;&gt;Node2 -->
<g id="edge1" class="edge"><title>Node1&#45;&gt;Node2</title>
<path fill="none" stroke="midnightblue" d="M174.085,-115.121C182.63,-116.07 191.254,-117.028 199.7,-117.967"/>
<polygon fill="midnightblue" stroke="midnightblue" points="174.431,-111.638 164.105,-114.012 173.658,-118.595 174.431,-111.638"/>
</g>
<!-- Node4 -->
<g id="node4" class="node"><title>Node4</title>
<g id="a_node4"><a xlink:href="../../db/d10/classcellsociety__team01_1_1modelview_1_1_g_u_i.html#a2499cd8253adf059aadbe405c01ddde7" target="_top" xlink:title="cellsociety_team01.modelview.\lGUI.update">
<polygon fill="white" stroke="black" points="400,-68 400,-98 564,-98 564,-68 400,-68"/>
<text text-anchor="start" x="408" y="-86" font-family="Helvetica,sans-Serif" font-size="10.00">cellsociety_team01.modelview.</text>
<text text-anchor="middle" x="482" y="-75" font-family="Helvetica,sans-Serif" font-size="10.00">GUI.update</text>
</a>
</g>
</g>
<!-- Node1&#45;&gt;Node4 -->
<g id="edge14" class="edge"><title>Node1&#45;&gt;Node4</title>
<path fill="none" stroke="midnightblue" d="M174.296,-99.9535C242.29,-96.195 334.294,-91.1094 399.751,-87.4911"/>
<polygon fill="midnightblue" stroke="midnightblue" points="173.813,-96.4748 164.021,-100.521 174.199,-103.464 173.813,-96.4748"/>
</g>
<!-- Node3 -->
<g id="node3" class="node"><title>Node3</title>
<g id="a_node3"><a xlink:href="../../db/d10/classcellsociety__team01_1_1modelview_1_1_g_u_i.html#a07bcff60812627c8dfe97f1aadc671e5" target="_top" xlink:title="cellsociety_team01.modelview.\lGUI.GUI">
<polygon fill="white" stroke="black" points="1600,-87 1600,-117 1764,-117 1764,-87 1600,-87"/>
<text text-anchor="start" x="1608" y="-105" font-family="Helvetica,sans-Serif" font-size="10.00">cellsociety_team01.modelview.</text>
<text text-anchor="middle" x="1682" y="-94" font-family="Helvetica,sans-Serif" font-size="10.00">GUI.GUI</text>
</a>
</g>
</g>
<!-- Node2&#45;&gt;Node3 -->
<g id="edge2" class="edge"><title>Node2&#45;&gt;Node3</title>
<path fill="none" stroke="midnightblue" d="M374.247,-133.834C454.878,-139.281 575.687,-146 681,-146 681,-146 681,-146 1283,-146 1393.19,-146 1519.5,-129.133 1599.73,-116.286"/>
<polygon fill="midnightblue" stroke="midnightblue" points="374.342,-130.332 364.126,-133.143 373.864,-137.316 374.342,-130.332"/>
</g>
<!-- Node2&#45;&gt;Node4 -->
<g id="edge3" class="edge"><title>Node2&#45;&gt;Node4</title>
<path fill="none" stroke="midnightblue" d="M360.708,-109.732C378.108,-105.865 396.43,-101.793 413.382,-98.0262"/>
<polygon fill="midnightblue" stroke="midnightblue" points="359.589,-106.395 350.587,-111.981 361.108,-113.228 359.589,-106.395"/>
</g>
<!-- Node5 -->
<g id="node5" class="node"><title>Node5</title>
<g id="a_node5"><a xlink:href="../../d2/d8b/classcellsociety__team01_1_1modelview_1_1_grid.html#a800481f8ea02b9cdbe3ee0f1d9576d63" target="_top" xlink:title="cellsociety_team01.modelview.\lGrid.step">
<polygon fill="white" stroke="black" points="800,-87 800,-117 964,-117 964,-87 800,-87"/>
<text text-anchor="start" x="808" y="-105" font-family="Helvetica,sans-Serif" font-size="10.00">cellsociety_team01.modelview.</text>
<text text-anchor="middle" x="882" y="-94" font-family="Helvetica,sans-Serif" font-size="10.00">Grid.step</text>
</a>
</g>
</g>
<!-- Node4&#45;&gt;Node5 -->
<g id="edge4" class="edge"><title>Node4&#45;&gt;Node5</title>
<path fill="none" stroke="midnightblue" d="M574.296,-87.3583C642.29,-90.6043 734.294,-94.9964 799.751,-98.1213"/>
<polygon fill="midnightblue" stroke="midnightblue" points="574.177,-83.8488 564.021,-86.8678 573.843,-90.8408 574.177,-83.8488"/>
</g>
<!-- Node7 -->
<g id="node7" class="node"><title>Node7</title>
<g id="a_node7"><a xlink:href="../../d2/d8b/classcellsociety__team01_1_1modelview_1_1_grid.html#ab0d0ba2a3e615cedd11e8c56e6ab92ba" target="_top" xlink:title="cellsociety_team01.modelview.\lGrid.update">
<polygon fill="white" stroke="black" points="600,-49 600,-79 764,-79 764,-49 600,-49"/>
<text text-anchor="start" x="608" y="-67" font-family="Helvetica,sans-Serif" font-size="10.00">cellsociety_team01.modelview.</text>
<text text-anchor="middle" x="682" y="-56" font-family="Helvetica,sans-Serif" font-size="10.00">Grid.update</text>
</a>
</g>
</g>
<!-- Node4&#45;&gt;Node7 -->
<g id="edge7" class="edge"><title>Node4&#45;&gt;Node7</title>
<path fill="none" stroke="midnightblue" d="M574.085,-74.2595C582.63,-73.4396 591.254,-72.612 599.7,-71.8015"/>
<polygon fill="midnightblue" stroke="midnightblue" points="573.725,-70.7779 564.105,-75.2172 574.394,-77.7458 573.725,-70.7779"/>
</g>
<!-- Node8 -->
<g id="node8" class="node"><title>Node8</title>
<g id="a_node8"><a xlink:href="../../d2/d8b/classcellsociety__team01_1_1modelview_1_1_grid.html#ab24d28beea073446f08df1aa6f3223ef" target="_top" xlink:title="cellsociety_team01.modelview.\lGrid.cycleCellState">
<polygon fill="white" stroke="black" points="600,-0 600,-30 764,-30 764,-0 600,-0"/>
<text text-anchor="start" x="608" y="-18" font-family="Helvetica,sans-Serif" font-size="10.00">cellsociety_team01.modelview.</text>
<text text-anchor="middle" x="682" y="-7" font-family="Helvetica,sans-Serif" font-size="10.00">Grid.cycleCellState</text>
</a>
</g>
</g>
<!-- Node4&#45;&gt;Node8 -->
<g id="edge8" class="edge"><title>Node4&#45;&gt;Node8</title>
<path fill="none" stroke="midnightblue" d="M530.37,-64.3042C551.548,-56.1744 576.896,-46.756 600,-39 609.038,-35.966 618.708,-32.9255 628.107,-30.0773"/>
<polygon fill="midnightblue" stroke="midnightblue" points="529.024,-61.0718 520.956,-67.9383 531.545,-67.6021 529.024,-61.0718"/>
</g>
<!-- Node6 -->
<g id="node6" class="node"><title>Node6</title>
<g id="a_node6"><a xlink:href="../../db/d10/classcellsociety__team01_1_1modelview_1_1_g_u_i.html#aa924c28ce131195d3f377b18177f6cb9" target="_top" xlink:title="cellsociety_team01.modelview.\lGUI.makeButtonsAndSlider">
<polygon fill="white" stroke="black" points="1000,-87 1000,-117 1164,-117 1164,-87 1000,-87"/>
<text text-anchor="start" x="1008" y="-105" font-family="Helvetica,sans-Serif" font-size="10.00">cellsociety_team01.modelview.</text>
<text text-anchor="middle" x="1082" y="-94" font-family="Helvetica,sans-Serif" font-size="10.00">GUI.makeButtonsAndSlider</text>
</a>
</g>
</g>
<!-- Node5&#45;&gt;Node6 -->
<g id="edge5" class="edge"><title>Node5&#45;&gt;Node6</title>
<path fill="none" stroke="midnightblue" d="M974.363,-102C982.817,-102 991.346,-102 999.7,-102"/>
<polygon fill="midnightblue" stroke="midnightblue" points="974.106,-98.5001 964.105,-102 974.105,-105.5 974.106,-98.5001"/>
</g>
<!-- Node6&#45;&gt;Node3 -->
<g id="edge6" class="edge"><title>Node6&#45;&gt;Node3</title>
<path fill="none" stroke="midnightblue" d="M1174.55,-102C1290.65,-102 1489.02,-102 1599.91,-102"/>
<polygon fill="midnightblue" stroke="midnightblue" points="1174.27,-98.5001 1164.27,-102 1174.27,-105.5 1174.27,-98.5001"/>
</g>
<!-- Node9 -->
<g id="node9" class="node"><title>Node9</title>
<g id="a_node9"><a xlink:href="../../db/d10/classcellsociety__team01_1_1modelview_1_1_g_u_i.html#a6c2a76c08a6f6e837ba5709ef57499b3" target="_top" xlink:title="cellsociety_team01.modelview.\lGUI.cellClicked">
<polygon fill="white" stroke="black" points="800,-10 800,-40 964,-40 964,-10 800,-10"/>
<text text-anchor="start" x="808" y="-28" font-family="Helvetica,sans-Serif" font-size="10.00">cellsociety_team01.modelview.</text>
<text text-anchor="middle" x="882" y="-17" font-family="Helvetica,sans-Serif" font-size="10.00">GUI.cellClicked</text>
</a>
</g>
</g>
<!-- Node8&#45;&gt;Node9 -->
<g id="edge9" class="edge"><title>Node8&#45;&gt;Node9</title>
<path fill="none" stroke="midnightblue" d="M774.363,-19.6143C782.817,-20.0413 791.346,-20.472 799.7,-20.894"/>
<polygon fill="midnightblue" stroke="midnightblue" points="774.269,-16.1052 764.105,-19.0962 773.916,-23.0963 774.269,-16.1052"/>
</g>
<!-- Node10 -->
<g id="node10" class="node"><title>Node10</title>
<g id="a_node10"><a xlink:href="../../db/d10/classcellsociety__team01_1_1modelview_1_1_g_u_i.html#af0760be4f824fab5c2a8b9b91d5823b2" target="_top" xlink:title="cellsociety_team01.modelview.\lGUI.makeGrid">
<polygon fill="white" stroke="black" points="1000,-19 1000,-49 1164,-49 1164,-19 1000,-19"/>
<text text-anchor="start" x="1008" y="-37" font-family="Helvetica,sans-Serif" font-size="10.00">cellsociety_team01.modelview.</text>
<text text-anchor="middle" x="1082" y="-26" font-family="Helvetica,sans-Serif" font-size="10.00">GUI.makeGrid</text>
</a>
</g>
</g>
<!-- Node9&#45;&gt;Node10 -->
<g id="edge10" class="edge"><title>Node9&#45;&gt;Node10</title>
<path fill="none" stroke="midnightblue" d="M974.363,-29.1529C982.817,-29.5371 991.346,-29.9248 999.7,-30.3046"/>
<polygon fill="midnightblue" stroke="midnightblue" points="974.254,-25.6444 964.105,-28.6866 973.936,-32.6372 974.254,-25.6444"/>
</g>
<!-- Node11 -->
<g id="node11" class="node"><title>Node11</title>
<g id="a_node11"><a xlink:href="../../db/d10/classcellsociety__team01_1_1modelview_1_1_g_u_i.html#afa183319cc9816a6147cba0869ef82eb" target="_top" xlink:title="cellsociety_team01.modelview.\lGUI.loadXML">
<polygon fill="white" stroke="black" points="1200,-31 1200,-61 1364,-61 1364,-31 1200,-31"/>
<text text-anchor="start" x="1208" y="-49" font-family="Helvetica,sans-Serif" font-size="10.00">cellsociety_team01.modelview.</text>
<text text-anchor="middle" x="1282" y="-38" font-family="Helvetica,sans-Serif" font-size="10.00">GUI.loadXML</text>
</a>
</g>
</g>
<!-- Node10&#45;&gt;Node11 -->
<g id="edge11" class="edge"><title>Node10&#45;&gt;Node11</title>
<path fill="none" stroke="midnightblue" d="M1174.36,-39.5372C1182.82,-40.0495 1191.35,-40.5664 1199.7,-41.0727"/>
<polygon fill="midnightblue" stroke="midnightblue" points="1174.3,-36.0269 1164.11,-38.9155 1173.88,-43.0141 1174.3,-36.0269"/>
</g>
<!-- Node12 -->
<g id="node12" class="node"><title>Node12</title>
<g id="a_node12"><a xlink:href="../../db/d10/classcellsociety__team01_1_1modelview_1_1_g_u_i.html#a4072ce794f518e806e7a912892f1e9da" target="_top" xlink:title="cellsociety_team01.modelview.\lGUI.makeMenuBar">
<polygon fill="white" stroke="black" points="1400,-37 1400,-67 1564,-67 1564,-37 1400,-37"/>
<text text-anchor="start" x="1408" y="-55" font-family="Helvetica,sans-Serif" font-size="10.00">cellsociety_team01.modelview.</text>
<text text-anchor="middle" x="1482" y="-44" font-family="Helvetica,sans-Serif" font-size="10.00">GUI.makeMenuBar</text>
</a>
</g>
</g>
<!-- Node11&#45;&gt;Node12 -->
<g id="edge12" class="edge"><title>Node11&#45;&gt;Node12</title>
<path fill="none" stroke="midnightblue" d="M1374.36,-48.7686C1382.82,-49.0248 1391.35,-49.2832 1399.7,-49.5364"/>
<polygon fill="midnightblue" stroke="midnightblue" points="1374.21,-45.2623 1364.11,-48.4577 1373.99,-52.2591 1374.21,-45.2623"/>
</g>
<!-- Node12&#45;&gt;Node3 -->
<g id="edge13" class="edge"><title>Node12&#45;&gt;Node3</title>
<path fill="none" stroke="midnightblue" d="M1552.24,-69.484C1574.75,-75.1701 1599.53,-81.428 1621.29,-86.9226"/>
<polygon fill="midnightblue" stroke="midnightblue" points="1552.96,-66.0566 1542.41,-67.0016 1551.25,-72.8436 1552.96,-66.0566"/>
</g>
</g>
</svg>
        <g id="navigator" transform="translate(0 0)" fill="#404254">
                <rect fill="#f2f5e9" fill-opacity="0.5" stroke="#606060" stroke-width=".5" x="0" y="0" width="60" height="60"/>
                <use id="zoomplus" xlink:href="#zoomPlus" x="17" y="9" onmousedown="handleZoom(evt,'in')"/>
                <use id="zoomminus" xlink:href="#zoomMin" x="42" y="9" onmousedown="handleZoom(evt,'out')"/>
                <use id="reset" xlink:href="#resetDef" x="30" y="36" onmousedown="handleReset()"/>
                <g id="arrowUp" xlink:href="#dirArrow" transform="translate(30 24)" onmousedown="handlePan(0,-1)">
                  <use xlink:href="#rim" fill="#404040">
                        <set attributeName="fill" to="#808080" begin="arrowUp.mouseover" end="arrowUp.mouseout"/>
                  </use>
                  <path fill="none" stroke="white" stroke-width="1.5" d="M0,-3.0v7 M-2.5,-0.5L0,-3.0L2.5,-0.5"/>
                </g>
                <g id="arrowRight" xlink:href="#dirArrow" transform="rotate(90) translate(36 -43)" onmousedown="handlePan(1,0)">
                  <use xlink:href="#rim" fill="#404040">
                        <set attributeName="fill" to="#808080" begin="arrowRight.mouseover" end="arrowRight.mouseout"/>
                  </use>
                  <path fill="none" stroke="white" stroke-width="1.5" d="M0,-3.0v7 M-2.5,-0.5L0,-3.0L2.5,-0.5"/>
                </g>
                <g id="arrowDown" xlink:href="#dirArrow" transform="rotate(180) translate(-30 -48)" onmousedown="handlePan(0,1)">
                  <use xlink:href="#rim" fill="#404040">
                        <set attributeName="fill" to="#808080" begin="arrowDown.mouseover" end="arrowDown.mouseout"/>
                  </use>
                  <path fill="none" stroke="white" stroke-width="1.5" d="M0,-3.0v7 M-2.5,-0.5L0,-3.0L2.5,-0.5"/>
                </g>
                <g id="arrowLeft" xlink:href="#dirArrow" transform="rotate(270) translate(-36 17)" onmousedown="handlePan(-1,0)">
                  <use xlink:href="#rim" fill="#404040">
                        <set attributeName="fill" to="#808080" begin="arrowLeft.mouseover" end="arrowLeft.mouseout"/>
                  </use>
                  <path fill="none" stroke="white" stroke-width="1.5" d="M0,-3.0v7 M-2.5,-0.5L0,-3.0L2.5,-0.5"/>
                </g>
        </g>
        <svg viewBox="0 0 15 15" width="100%" height="30px" preserveAspectRatio="xMaxYMin meet">
         <g id="arrow_out" transform="scale(0.3 0.3)">
          <a xlink:href="classcellsociety__team01_1_1modelview_1_1_grid_a64c59347e0e67e52f4902d9ef55a1bdb_icgraph_org.svg" target="_base">
           <rect id="button" ry="5" rx="5" y="6" x="6" height="38" width="38"
                fill="#f2f5e9" fill-opacity="0.5" stroke="#606060" stroke-width="1.0"/>
           <path id="arrow"
             d="M 11.500037,31.436501 C 11.940474,20.09759 22.043105,11.32322 32.158766,21.979434 L 37.068811,17.246167 C 37.068811,17.246167 37.088388,32 37.088388,32 L 22.160133,31.978069 C 22.160133,31.978069 26.997745,27.140456 26.997745,27.140456 C 18.528582,18.264221 13.291696,25.230495 11.500037,31.436501 z"
             style="fill:#404040;"/>
          </a>
         </g>
        </svg>
</svg>
