<?xml version="1.0" encoding="UTF-8" standalone="no"?>
<!DOCTYPE svg PUBLIC "-//W3C//DTD SVG 1.1//EN"
 "http://www.w3.org/Graphics/SVG/1.1/DTD/svg11.dtd">
<!-- Generated by graphviz version 2.36.0 (20140111.2315)
 -->
<!-- Title: cellsociety_team01.modelview.Grid.setNeighbors Pages: 1 -->
<svg width="846pt" height="185pt"
 viewBox="0.00 0.00 846.00 185.00" xmlns="http://www.w3.org/2000/svg" xmlns:xlink="http://www.w3.org/1999/xlink">
<g id="graph0" class="graph" transform="scale(1 1) rotate(0) translate(4 181)">
<title>cellsociety_team01.modelview.Grid.setNeighbors</title>
<polygon fill="white" stroke="none" points="-4,4 -4,-181 842,-181 842,4 -4,4"/>
<!-- Node1 -->
<g id="node1" class="node"><title>Node1</title>
<polygon fill="#bfbfbf" stroke="black" points="0,-73 0,-103 164,-103 164,-73 0,-73"/>
<text text-anchor="start" x="8" y="-91" font-family="Helvetica,sans-Serif" font-size="10.00">cellsociety_team01.modelview.</text>
<text text-anchor="middle" x="82" y="-80" font-family="Helvetica,sans-Serif" font-size="10.00">Grid.setNeighbors</text>
</g>
<!-- Node2 -->
<g id="node2" class="node"><title>Node2</title>
<g id="a_node2"><a xlink:href="../../d7/de1/classcellsociety__team01_1_1modelview_1_1_grid_model.html#a50a93468046d735bbc41c59ee14df150" target="_top" xlink:title="cellsociety_team01.modelview.\lGridModel.setNeighbors">
<polygon fill="white" stroke="black" points="200,-73 200,-103 364,-103 364,-73 200,-73"/>
<text text-anchor="start" x="208" y="-91" font-family="Helvetica,sans-Serif" font-size="10.00">cellsociety_team01.modelview.</text>
<text text-anchor="middle" x="282" y="-80" font-family="Helvetica,sans-Serif" font-size="10.00">GridModel.setNeighbors</text>
</a>
</g>
</g>
<!-- Node1&#45;&gt;Node2 -->
<g id="edge1" class="edge"><title>Node1&#45;&gt;Node2</title>
<path fill="none" stroke="midnightblue" d="M164.105,-88C172.457,-88 180.985,-88 189.44,-88"/>
<polygon fill="midnightblue" stroke="midnightblue" points="189.7,-91.5001 199.7,-88 189.7,-84.5001 189.7,-91.5001"/>
</g>
<!-- Node3 -->
<g id="node3" class="node"><title>Node3</title>
<g id="a_node3"><a xlink:href="../../da/df7/classcellsociety__team01_1_1simulations_1_1_simulation.html#a851f60d3af023c3c79686a3fb0bf3e0d" target="_top" xlink:title="cellsociety_team01.simulations.\lSimulation.getNeighborType">
<polygon fill="white" stroke="black" points="406,-147 406,-177 576,-177 576,-147 406,-147"/>
<text text-anchor="start" x="414" y="-165" font-family="Helvetica,sans-Serif" font-size="10.00">cellsociety_team01.simulations.</text>
<text text-anchor="middle" x="491" y="-154" font-family="Helvetica,sans-Serif" font-size="10.00">Simulation.getNeighborType</text>
</a>
</g>
</g>
<!-- Node2&#45;&gt;Node3 -->
<g id="edge2" class="edge"><title>Node2&#45;&gt;Node3</title>
<path fill="none" stroke="midnightblue" d="M315.855,-103.065C339.071,-113.387 371.079,-126.972 400,-137 406.952,-139.411 414.267,-141.752 421.598,-143.973"/>
<polygon fill="midnightblue" stroke="midnightblue" points="420.99,-147.443 431.572,-146.923 422.975,-140.731 420.99,-147.443"/>
</g>
<!-- Node4 -->
<g id="node4" class="node"><title>Node4</title>
<g id="a_node4"><a xlink:href="../../d7/de1/classcellsociety__team01_1_1modelview_1_1_grid_model.html#a87b600f8e19542b7210757866313fb8d" target="_top" xlink:title="cellsociety_team01.modelview.\lGridModel.getAllPossibleNeighbors">
<polygon fill="white" stroke="black" points="400,-98 400,-128 582,-128 582,-98 400,-98"/>
<text text-anchor="start" x="408" y="-116" font-family="Helvetica,sans-Serif" font-size="10.00">cellsociety_team01.modelview.</text>
<text text-anchor="middle" x="491" y="-105" font-family="Helvetica,sans-Serif" font-size="10.00">GridModel.getAllPossibleNeighbors</text>
</a>
</g>
</g>
<!-- Node2&#45;&gt;Node4 -->
<g id="edge3" class="edge"><title>Node2&#45;&gt;Node4</title>
<path fill="none" stroke="midnightblue" d="M364.218,-97.8089C372.603,-98.8216 381.193,-99.8591 389.753,-100.893"/>
<polygon fill="midnightblue" stroke="midnightblue" points="389.427,-104.379 399.775,-102.103 390.267,-97.4294 389.427,-104.379"/>
</g>
<!-- Node7 -->
<g id="node7" class="node"><title>Node7</title>
<g id="a_node7"><a xlink:href="../../d7/de1/classcellsociety__team01_1_1modelview_1_1_grid_model.html#a5eaf505d5ea180f419030aaf7b0fb645" target="_top" xlink:title="cellsociety_team01.modelview.\lGridModel.verifyNeighbors">
<polygon fill="white" stroke="black" points="409,-49 409,-79 573,-79 573,-49 409,-49"/>
<text text-anchor="start" x="417" y="-67" font-family="Helvetica,sans-Serif" font-size="10.00">cellsociety_team01.modelview.</text>
<text text-anchor="middle" x="491" y="-56" font-family="Helvetica,sans-Serif" font-size="10.00">GridModel.verifyNeighbors</text>
</a>
</g>
</g>
<!-- Node2&#45;&gt;Node7 -->
<g id="edge6" class="edge"><title>Node2&#45;&gt;Node7</title>
<path fill="none" stroke="midnightblue" d="M364.218,-78.5834C375.519,-77.2732 387.192,-75.9198 398.663,-74.5898"/>
<polygon fill="midnightblue" stroke="midnightblue" points="399.146,-78.0573 408.677,-73.4288 398.34,-71.1039 399.146,-78.0573"/>
</g>
<!-- Node9 -->
<g id="node9" class="node"><title>Node9</title>
<g id="a_node9"><a xlink:href="../../d7/de1/classcellsociety__team01_1_1modelview_1_1_grid_model.html#a4494649ae57d4b652939946a28f5754a" target="_top" xlink:title="cellsociety_team01.modelview.\lGridModel.getCardinalNeighbors">
<polygon fill="white" stroke="black" points="405.5,-0 405.5,-30 576.5,-30 576.5,-0 405.5,-0"/>
<text text-anchor="start" x="413.5" y="-18" font-family="Helvetica,sans-Serif" font-size="10.00">cellsociety_team01.modelview.</text>
<text text-anchor="middle" x="491" y="-7" font-family="Helvetica,sans-Serif" font-size="10.00">GridModel.getCardinalNeighbors</text>
</a>
</g>
</g>
<!-- Node2&#45;&gt;Node9 -->
<g id="edge8" class="edge"><title>Node2&#45;&gt;Node9</title>
<path fill="none" stroke="midnightblue" d="M315.572,-72.9525C338.794,-62.5736 370.923,-48.9143 400,-39 406.273,-36.8611 412.844,-34.792 419.457,-32.825"/>
<polygon fill="midnightblue" stroke="midnightblue" points="420.514,-36.1629 429.146,-30.0201 418.567,-29.4389 420.514,-36.1629"/>
</g>
<!-- Node5 -->
<g id="node5" class="node"><title>Node5</title>
<g id="a_node5"><a xlink:href="../../d2/d25/classcellsociety__team01_1_1_cell_state_1_1_cell.html#a03047fd6184158748f1b354520d8811f" target="_top" xlink:title="cellsociety_team01.CellState.\lCell.getX">
<polygon fill="white" stroke="black" points="649,-147 649,-177 807,-177 807,-147 649,-147"/>
<text text-anchor="start" x="657" y="-165" font-family="Helvetica,sans-Serif" font-size="10.00">cellsociety_team01.CellState.</text>
<text text-anchor="middle" x="728" y="-154" font-family="Helvetica,sans-Serif" font-size="10.00">Cell.getX</text>
</a>
</g>
</g>
<!-- Node4&#45;&gt;Node5 -->
<g id="edge4" class="edge"><title>Node4&#45;&gt;Node5</title>
<path fill="none" stroke="midnightblue" d="M564.105,-128.035C589.707,-133.373 618.707,-139.42 645.07,-144.917"/>
<polygon fill="midnightblue" stroke="midnightblue" points="644.528,-148.379 655.032,-146.994 645.957,-141.526 644.528,-148.379"/>
</g>
<!-- Node6 -->
<g id="node6" class="node"><title>Node6</title>
<g id="a_node6"><a xlink:href="../../d2/d25/classcellsociety__team01_1_1_cell_state_1_1_cell.html#ad1f154c2a9a8d34c8e60bdd53df5a70f" target="_top" xlink:title="cellsociety_team01.CellState.\lCell.getY">
<polygon fill="white" stroke="black" points="649,-98 649,-128 807,-128 807,-98 649,-98"/>
<text text-anchor="start" x="657" y="-116" font-family="Helvetica,sans-Serif" font-size="10.00">cellsociety_team01.CellState.</text>
<text text-anchor="middle" x="728" y="-105" font-family="Helvetica,sans-Serif" font-size="10.00">Cell.getY</text>
</a>
</g>
</g>
<!-- Node4&#45;&gt;Node6 -->
<g id="edge5" class="edge"><title>Node4&#45;&gt;Node6</title>
<path fill="none" stroke="midnightblue" d="M582.185,-113C600.751,-113 620.28,-113 638.776,-113"/>
<polygon fill="midnightblue" stroke="midnightblue" points="638.932,-116.5 648.932,-113 638.932,-109.5 638.932,-116.5"/>
</g>
<!-- Node8 -->
<g id="node8" class="node"><title>Node8</title>
<g id="a_node8"><a xlink:href="../../d4/df6/classcellsociety__team01_1_1modelview_1_1_refine_neighbors_algorithm.html#a002765eca147ba01744b600a47713858" target="_top" xlink:title="cellsociety_team01.modelview.\lRefineNeighborsAlgorithm.refineNeighbors">
<polygon fill="white" stroke="black" points="618.5,-49 618.5,-79 837.5,-79 837.5,-49 618.5,-49"/>
<text text-anchor="start" x="626.5" y="-67" font-family="Helvetica,sans-Serif" font-size="10.00">cellsociety_team01.modelview.</text>
<text text-anchor="middle" x="728" y="-56" font-family="Helvetica,sans-Serif" font-size="10.00">RefineNeighborsAlgorithm.refineNeighbors</text>
</a>
</g>
</g>
<!-- Node7&#45;&gt;Node8 -->
<g id="edge7" class="edge"><title>Node7&#45;&gt;Node8</title>
<path fill="none" stroke="midnightblue" d="M573.203,-64C584.604,-64 596.511,-64 608.432,-64"/>
<polygon fill="midnightblue" stroke="midnightblue" points="608.439,-67.5001 618.438,-64 608.438,-60.5001 608.439,-67.5001"/>
</g>
</g>
</svg>
