<?xml version="1.0" encoding="UTF-8" standalone="no"?>
<!DOCTYPE svg PUBLIC "-//W3C//DTD SVG 1.1//EN"
 "http://www.w3.org/Graphics/SVG/1.1/DTD/svg11.dtd">
<!-- Generated by graphviz version 2.36.0 (20140111.2315)
 -->
<!-- Title: cellsociety_team01.modelview.Grid.cycleCellState Pages: 1 -->
<!--zoomable 199 -->
<svg id="main" version="1.1" xmlns="http://www.w3.org/2000/svg" xmlns:xlink="http://www.w3.org/1999/xlink" xml:space="preserve" onload="init(evt)">
<style type="text/css"><![CDATA[
.edge:hover path { stroke: red; }
.edge:hover polygon { stroke: red; fill: red; }
]]></style>
<script type="text/javascript"><![CDATA[
var edges = document.getElementsByTagName('g');
if (edges && edges.length) {
  for (var i=0;i<edges.length;i++) {
    if (edges[i].id.substr(0,4)=='edge') {
      edges[i].setAttribute('class','edge');
    }
  }
}
]]></script>
        <defs>
                <circle id="rim" cx="0" cy="0" r="7"/>
                <circle id="rim2" cx="0" cy="0" r="3.5"/>
                <g id="zoomPlus">
                        <use xlink:href="#rim" fill="#404040">
                                <set attributeName="fill" to="#808080" begin="zoomplus.mouseover" end="zoomplus.mouseout"/>
                        </use>
                        <path d="M-4,0h8M0,-4v8" fill="none" stroke="white" stroke-width="1.5" pointer-events="none"/>
                </g>
                <g id="zoomMin">
                        <use xlink:href="#rim" fill="#404040">
                                <set attributeName="fill" to="#808080" begin="zoomminus.mouseover" end="zoomminus.mouseout"/>
                        </use>
                        <path d="M-4,0h8" fill="none" stroke="white" stroke-width="1.5" pointer-events="none"/>
                </g>
                <g id="dirArrow">
                        <path fill="none" stroke="white" stroke-width="1.5" d="M0,-3.0v7 M-2.5,-0.5L0,-3.0L2.5,-0.5"/>
                </g>
               <g id="resetDef">
                       <use xlink:href="#rim2" fill="#404040">
                               <set attributeName="fill" to="#808080" begin="reset.mouseover" end="reset.mouseout"/>
                       </use>
               </g>
        </defs>

<script type="text/javascript">
var viewWidth = 778;
var viewHeight = 199;
var sectionId = 'dynsection-2';
</script>
<script xlink:href="../../svgpan.js"/>
<svg id="graph" class="graph">
<g id="viewport">
<title>cellsociety_team01.modelview.Grid.cycleCellState</title>
<polygon fill="white" stroke="none" points="-4,4 -4,-195 774,-195 774,4 -4,4"/>
<!-- Node1 -->
<g id="node1" class="node"><title>Node1</title>
<polygon fill="#bfbfbf" stroke="black" points="0,-95 0,-125 164,-125 164,-95 0,-95"/>
<text text-anchor="start" x="8" y="-113" font-family="Helvetica,sans-Serif" font-size="10.00">cellsociety_team01.modelview.</text>
<text text-anchor="middle" x="82" y="-102" font-family="Helvetica,sans-Serif" font-size="10.00">Grid.cycleCellState</text>
</g>
<!-- Node2 -->
<g id="node2" class="node"><title>Node2</title>
<g id="a_node2"><a xlink:href="../../da/df7/classcellsociety__team01_1_1simulations_1_1_simulation.html#a2e00706ce2fb9ba272c2b114a89683eb" target="_top" xlink:title="cellsociety_team01.simulations.\lSimulation.cycleNextState">
<polygon fill="white" stroke="black" points="200,-120 200,-150 370,-150 370,-120 200,-120"/>
<text text-anchor="start" x="208" y="-138" font-family="Helvetica,sans-Serif" font-size="10.00">cellsociety_team01.simulations.</text>
<text text-anchor="middle" x="285" y="-127" font-family="Helvetica,sans-Serif" font-size="10.00">Simulation.cycleNextState</text>
</a>
</g>
</g>
<!-- Node1&#45;&gt;Node2 -->
<g id="edge1" class="edge"><title>Node1&#45;&gt;Node2</title>
<path fill="none" stroke="midnightblue" d="M164.175,-120.096C172.633,-121.148 181.28,-122.224 189.865,-123.292"/>
<polygon fill="midnightblue" stroke="midnightblue" points="189.544,-126.779 199.9,-124.54 190.408,-119.832 189.544,-126.779"/>
</g>
<!-- Node3 -->
<g id="node3" class="node"><title>Node3</title>
<g id="a_node3"><a xlink:href="../../db/d10/classcellsociety__team01_1_1modelview_1_1_g_u_i.html#a2499cd8253adf059aadbe405c01ddde7" target="_top" xlink:title="cellsociety_team01.modelview.\lGUI.update">
<polygon fill="white" stroke="black" points="203,-71 203,-101 367,-101 367,-71 203,-71"/>
<text text-anchor="start" x="211" y="-89" font-family="Helvetica,sans-Serif" font-size="10.00">cellsociety_team01.modelview.</text>
<text text-anchor="middle" x="285" y="-78" font-family="Helvetica,sans-Serif" font-size="10.00">GUI.update</text>
</a>
</g>
</g>
<!-- Node1&#45;&gt;Node3 -->
<g id="edge2" class="edge"><title>Node1&#45;&gt;Node3</title>
<path fill="none" stroke="midnightblue" d="M164.175,-100.307C173.636,-99.1778 183.335,-98.0197 192.918,-96.8754"/>
<polygon fill="midnightblue" stroke="midnightblue" points="193.334,-100.351 202.849,-95.6897 192.504,-93.4001 193.334,-100.351"/>
</g>
<!-- Node4 -->
<g id="node4" class="node"><title>Node4</title>
<g id="a_node4"><a xlink:href="../../d2/d8b/classcellsociety__team01_1_1modelview_1_1_grid.html#a64c59347e0e67e52f4902d9ef55a1bdb" target="_top" xlink:title="cellsociety_team01.modelview.\lGrid.isSimRunning">
<polygon fill="white" stroke="black" points="606,-31 606,-61 770,-61 770,-31 606,-31"/>
<text text-anchor="start" x="614" y="-49" font-family="Helvetica,sans-Serif" font-size="10.00">cellsociety_team01.modelview.</text>
<text text-anchor="middle" x="688" y="-38" font-family="Helvetica,sans-Serif" font-size="10.00">Grid.isSimRunning</text>
</a>
</g>
</g>
<!-- Node3&#45;&gt;Node4 -->
<g id="edge3" class="edge"><title>Node3&#45;&gt;Node4</title>
<path fill="none" stroke="midnightblue" d="M367.121,-94.2145C424.273,-98.1467 502.357,-99.7732 570,-88 595.744,-83.5192 623.31,-73.8813 645.214,-64.9671"/>
<polygon fill="midnightblue" stroke="midnightblue" points="646.66,-68.1562 654.542,-61.0763 643.965,-61.6957 646.66,-68.1562"/>
</g>
<!-- Node5 -->
<g id="node5" class="node"><title>Node5</title>
<g id="a_node5"><a xlink:href="../../db/d10/classcellsociety__team01_1_1modelview_1_1_g_u_i.html#a9e9097427a1074d21da7f938399a6be7" target="_top" xlink:title="cellsociety_team01.modelview.\lGUI.setGridCellStates">
<polygon fill="white" stroke="black" points="406,-137 406,-167 570,-167 570,-137 406,-137"/>
<text text-anchor="start" x="414" y="-155" font-family="Helvetica,sans-Serif" font-size="10.00">cellsociety_team01.modelview.</text>
<text text-anchor="middle" x="488" y="-144" font-family="Helvetica,sans-Serif" font-size="10.00">GUI.setGridCellStates</text>
</a>
</g>
</g>
<!-- Node3&#45;&gt;Node5 -->
<g id="edge4" class="edge"><title>Node3&#45;&gt;Node5</title>
<path fill="none" stroke="midnightblue" d="M340.833,-101.099C350.582,-103.944 360.616,-106.979 370,-110 392.346,-117.194 416.825,-125.857 437.59,-133.442"/>
<polygon fill="midnightblue" stroke="midnightblue" points="436.56,-136.793 447.154,-136.955 438.974,-130.222 436.56,-136.793"/>
</g>
<!-- Node8 -->
<g id="node8" class="node"><title>Node8</title>
<g id="a_node8"><a xlink:href="../../d2/d8b/classcellsociety__team01_1_1modelview_1_1_grid.html#ac461e9ca102207e02d6478f5542ba650" target="_top" xlink:title="cellsociety_team01.modelview.\lGrid.changeUpdateRate">
<polygon fill="white" stroke="black" points="406,-49 406,-79 570,-79 570,-49 406,-49"/>
<text text-anchor="start" x="414" y="-67" font-family="Helvetica,sans-Serif" font-size="10.00">cellsociety_team01.modelview.</text>
<text text-anchor="middle" x="488" y="-56" font-family="Helvetica,sans-Serif" font-size="10.00">Grid.changeUpdateRate</text>
</a>
</g>
</g>
<!-- Node3&#45;&gt;Node8 -->
<g id="edge7" class="edge"><title>Node3&#45;&gt;Node8</title>
<path fill="none" stroke="midnightblue" d="M367.175,-77.1152C376.537,-76.0905 386.131,-75.0404 395.616,-74.0023"/>
<polygon fill="midnightblue" stroke="midnightblue" points="396.289,-77.4496 405.849,-72.8822 395.527,-70.4911 396.289,-77.4496"/>
</g>
<!-- Node9 -->
<g id="node9" class="node"><title>Node9</title>
<g id="a_node9"><a xlink:href="../../db/d10/classcellsociety__team01_1_1modelview_1_1_g_u_i.html#a2f37acaf37d6fecd19d7ede68dc96561" target="_top" xlink:title="cellsociety_team01.modelview.\lGUI.enableButtons">
<polygon fill="white" stroke="black" points="406,-0 406,-30 570,-30 570,-0 406,-0"/>
<text text-anchor="start" x="414" y="-18" font-family="Helvetica,sans-Serif" font-size="10.00">cellsociety_team01.modelview.</text>
<text text-anchor="middle" x="488" y="-7" font-family="Helvetica,sans-Serif" font-size="10.00">GUI.enableButtons</text>
</a>
</g>
</g>
<!-- Node3&#45;&gt;Node9 -->
<g id="edge8" class="edge"><title>Node3&#45;&gt;Node9</title>
<path fill="none" stroke="midnightblue" d="M321.936,-70.9987C345.623,-61.3412 377.431,-48.8072 406,-39 411.826,-36.9999 417.921,-35.0101 424.039,-33.0811"/>
<polygon fill="midnightblue" stroke="midnightblue" points="425.122,-36.4098 433.638,-30.1069 423.05,-29.7235 425.122,-36.4098"/>
</g>
<!-- Node6 -->
<g id="node6" class="node"><title>Node6</title>
<g id="a_node6"><a xlink:href="../../d3/d6b/interfacecellsociety__team01_1_1modelview_1_1_grid_view.html#a0e41d85ba1146b4ed70b39a2389faaa3" target="_top" xlink:title="cellsociety_team01.modelview.\lGridView.setGridCellStates">
<polygon fill="white" stroke="black" points="606,-112 606,-142 770,-142 770,-112 606,-112"/>
<text text-anchor="start" x="614" y="-130" font-family="Helvetica,sans-Serif" font-size="10.00">cellsociety_team01.modelview.</text>
<text text-anchor="middle" x="688" y="-119" font-family="Helvetica,sans-Serif" font-size="10.00">GridView.setGridCellStates</text>
</a>
</g>
</g>
<!-- Node5&#45;&gt;Node6 -->
<g id="edge5" class="edge"><title>Node5&#45;&gt;Node6</title>
<path fill="none" stroke="midnightblue" d="M570.105,-141.759C578.549,-140.693 587.172,-139.604 595.719,-138.525"/>
<polygon fill="midnightblue" stroke="midnightblue" points="596.217,-141.99 605.7,-137.265 595.341,-135.045 596.217,-141.99"/>
</g>
<!-- Node7 -->
<g id="node7" class="node"><title>Node7</title>
<g id="a_node7"><a xlink:href="../../d2/d8b/classcellsociety__team01_1_1modelview_1_1_grid.html#ad277c8aa0861d7d5cb6d339971017785" target="_top" xlink:title="cellsociety_team01.modelview.\lGrid.getCells">
<polygon fill="white" stroke="black" points="606,-161 606,-191 770,-191 770,-161 606,-161"/>
<text text-anchor="start" x="614" y="-179" font-family="Helvetica,sans-Serif" font-size="10.00">cellsociety_team01.modelview.</text>
<text text-anchor="middle" x="688" y="-168" font-family="Helvetica,sans-Serif" font-size="10.00">Grid.getCells</text>
</a>
</g>
</g>
<!-- Node5&#45;&gt;Node7 -->
<g id="edge6" class="edge"><title>Node5&#45;&gt;Node7</title>
<path fill="none" stroke="midnightblue" d="M570.105,-161.831C578.549,-162.854 587.172,-163.9 595.719,-164.936"/>
<polygon fill="midnightblue" stroke="midnightblue" points="595.352,-168.417 605.7,-166.145 596.194,-161.468 595.352,-168.417"/>
</g>
<!-- Node9&#45;&gt;Node4 -->
<g id="edge9" class="edge"><title>Node9&#45;&gt;Node4</title>
<path fill="none" stroke="midnightblue" d="M570.105,-27.6983C578.549,-29.0203 587.172,-30.3704 595.719,-31.7085"/>
<polygon fill="midnightblue" stroke="midnightblue" points="595.279,-35.1822 605.7,-33.2713 596.362,-28.2665 595.279,-35.1822"/>
</g>
</g>
</svg>
        <g id="navigator" transform="translate(0 0)" fill="#404254">
                <rect fill="#f2f5e9" fill-opacity="0.5" stroke="#606060" stroke-width=".5" x="0" y="0" width="60" height="60"/>
                <use id="zoomplus" xlink:href="#zoomPlus" x="17" y="9" onmousedown="handleZoom(evt,'in')"/>
                <use id="zoomminus" xlink:href="#zoomMin" x="42" y="9" onmousedown="handleZoom(evt,'out')"/>
                <use id="reset" xlink:href="#resetDef" x="30" y="36" onmousedown="handleReset()"/>
                <g id="arrowUp" xlink:href="#dirArrow" transform="translate(30 24)" onmousedown="handlePan(0,-1)">
                  <use xlink:href="#rim" fill="#404040">
                        <set attributeName="fill" to="#808080" begin="arrowUp.mouseover" end="arrowUp.mouseout"/>
                  </use>
                  <path fill="none" stroke="white" stroke-width="1.5" d="M0,-3.0v7 M-2.5,-0.5L0,-3.0L2.5,-0.5"/>
                </g>
                <g id="arrowRight" xlink:href="#dirArrow" transform="rotate(90) translate(36 -43)" onmousedown="handlePan(1,0)">
                  <use xlink:href="#rim" fill="#404040">
                        <set attributeName="fill" to="#808080" begin="arrowRight.mouseover" end="arrowRight.mouseout"/>
                  </use>
                  <path fill="none" stroke="white" stroke-width="1.5" d="M0,-3.0v7 M-2.5,-0.5L0,-3.0L2.5,-0.5"/>
                </g>
                <g id="arrowDown" xlink:href="#dirArrow" transform="rotate(180) translate(-30 -48)" onmousedown="handlePan(0,1)">
                  <use xlink:href="#rim" fill="#404040">
                        <set attributeName="fill" to="#808080" begin="arrowDown.mouseover" end="arrowDown.mouseout"/>
                  </use>
                  <path fill="none" stroke="white" stroke-width="1.5" d="M0,-3.0v7 M-2.5,-0.5L0,-3.0L2.5,-0.5"/>
                </g>
                <g id="arrowLeft" xlink:href="#dirArrow" transform="rotate(270) translate(-36 17)" onmousedown="handlePan(-1,0)">
                  <use xlink:href="#rim" fill="#404040">
                        <set attributeName="fill" to="#808080" begin="arrowLeft.mouseover" end="arrowLeft.mouseout"/>
                  </use>
                  <path fill="none" stroke="white" stroke-width="1.5" d="M0,-3.0v7 M-2.5,-0.5L0,-3.0L2.5,-0.5"/>
                </g>
        </g>
        <svg viewBox="0 0 15 15" width="100%" height="30px" preserveAspectRatio="xMaxYMin meet">
         <g id="arrow_out" transform="scale(0.3 0.3)">
          <a xlink:href="classcellsociety__team01_1_1modelview_1_1_grid_ab24d28beea073446f08df1aa6f3223ef_cgraph_org.svg" target="_base">
           <rect id="button" ry="5" rx="5" y="6" x="6" height="38" width="38"
                fill="#f2f5e9" fill-opacity="0.5" stroke="#606060" stroke-width="1.0"/>
           <path id="arrow"
             d="M 11.500037,31.436501 C 11.940474,20.09759 22.043105,11.32322 32.158766,21.979434 L 37.068811,17.246167 C 37.068811,17.246167 37.088388,32 37.088388,32 L 22.160133,31.978069 C 22.160133,31.978069 26.997745,27.140456 26.997745,27.140456 C 18.528582,18.264221 13.291696,25.230495 11.500037,31.436501 z"
             style="fill:#404040;"/>
          </a>
         </g>
        </svg>
</svg>
