<?xml version="1.0" encoding="UTF-8" standalone="no"?>
<!DOCTYPE svg PUBLIC "-//W3C//DTD SVG 1.1//EN"
 "http://www.w3.org/Graphics/SVG/1.1/DTD/svg11.dtd">
<!-- Generated by graphviz version 2.36.0 (20140111.2315)
 -->
<!-- Title: cellsociety_team01.modelview.Grid.updateCells Pages: 1 -->
<svg width="378pt" height="87pt"
 viewBox="0.00 0.00 378.00 87.00" xmlns="http://www.w3.org/2000/svg" xmlns:xlink="http://www.w3.org/1999/xlink">
<g id="graph0" class="graph" transform="scale(1 1) rotate(0) translate(4 83)">
<title>cellsociety_team01.modelview.Grid.updateCells</title>
<polygon fill="white" stroke="none" points="-4,4 -4,-83 374,-83 374,4 -4,4"/>
<!-- Node1 -->
<g id="node1" class="node"><title>Node1</title>
<polygon fill="#bfbfbf" stroke="black" points="0,-24 0,-54 164,-54 164,-24 0,-24"/>
<text text-anchor="start" x="8" y="-42" font-family="Helvetica,sans-Serif" font-size="10.00">cellsociety_team01.modelview.</text>
<text text-anchor="middle" x="82" y="-31" font-family="Helvetica,sans-Serif" font-size="10.00">Grid.updateCells</text>
</g>
<!-- Node2 -->
<g id="node2" class="node"><title>Node2</title>
<g id="a_node2"><a xlink:href="../../da/df7/classcellsociety__team01_1_1simulations_1_1_simulation.html#aa8f1268442571afdb2ebc740b2dbfdec" target="_top" xlink:title="cellsociety_team01.simulations.\lSimulation.getStates">
<polygon fill="white" stroke="black" points="200,-49 200,-79 370,-79 370,-49 200,-49"/>
<text text-anchor="start" x="208" y="-67" font-family="Helvetica,sans-Serif" font-size="10.00">cellsociety_team01.simulations.</text>
<text text-anchor="middle" x="285" y="-56" font-family="Helvetica,sans-Serif" font-size="10.00">Simulation.getStates</text>
</a>
</g>
</g>
<!-- Node1&#45;&gt;Node2 -->
<g id="edge1" class="edge"><title>Node1&#45;&gt;Node2</title>
<path fill="none" stroke="midnightblue" d="M164.175,-49.0964C172.633,-50.1483 181.28,-51.2239 189.865,-52.2917"/>
<polygon fill="midnightblue" stroke="midnightblue" points="189.544,-55.7787 199.9,-53.5398 190.408,-48.8322 189.544,-55.7787"/>
</g>
<!-- Node3 -->
<g id="node3" class="node"><title>Node3</title>
<g id="a_node3"><a xlink:href="../../da/df7/classcellsociety__team01_1_1simulations_1_1_simulation.html#aade57b1b87e71cacfc0f2e3e9356aeeb" target="_top" xlink:title="cellsociety_team01.simulations.\lSimulation.update">
<polygon fill="white" stroke="black" points="200,-0 200,-30 370,-30 370,-0 200,-0"/>
<text text-anchor="start" x="208" y="-18" font-family="Helvetica,sans-Serif" font-size="10.00">cellsociety_team01.simulations.</text>
<text text-anchor="middle" x="285" y="-7" font-family="Helvetica,sans-Serif" font-size="10.00">Simulation.update</text>
</a>
</g>
</g>
<!-- Node1&#45;&gt;Node3 -->
<g id="edge2" class="edge"><title>Node1&#45;&gt;Node3</title>
<path fill="none" stroke="midnightblue" d="M164.175,-29.3075C172.633,-28.2976 181.28,-27.2651 189.865,-26.24"/>
<polygon fill="midnightblue" stroke="midnightblue" points="190.385,-29.7028 199.9,-25.0418 189.555,-22.7522 190.385,-29.7028"/>
</g>
</g>
</svg>
