<?xml version="1.0" encoding="UTF-8" standalone="no"?>
<!DOCTYPE svg PUBLIC "-//W3C//DTD SVG 1.1//EN"
 "http://www.w3.org/Graphics/SVG/1.1/DTD/svg11.dtd">
<!-- Generated by graphviz version 2.36.0 (20140111.2315)
 -->
<!-- Title: cellsociety_team01.rules.MovementThresholdRule Pages: 1 -->
<svg width="437pt" height="258pt"
 viewBox="0.00 0.00 437.00 258.00" xmlns="http://www.w3.org/2000/svg" xmlns:xlink="http://www.w3.org/1999/xlink">
<g id="graph0" class="graph" transform="scale(1 1) rotate(0) translate(4 254)">
<title>cellsociety_team01.rules.MovementThresholdRule</title>
<polygon fill="white" stroke="none" points="-4,4 -4,-254 433,-254 433,4 -4,4"/>
<!-- Node1 -->
<g id="node1" class="node"><title>Node1</title>
<polygon fill="#bfbfbf" stroke="black" points="256,-1 256,-31 394,-31 394,-1 256,-1"/>
<text text-anchor="start" x="264" y="-19" font-family="Helvetica,sans-Serif" font-size="10.00">cellsociety_team01.rules.</text>
<text text-anchor="middle" x="325" y="-8" font-family="Helvetica,sans-Serif" font-size="10.00">MovementThresholdRule</text>
</g>
<!-- Node2 -->
<g id="node2" class="node"><title>Node2</title>
<g id="a_node2"><a xlink:href="../../d9/d10/classcellsociety__team01_1_1rules_1_1_movement_rule.html" target="_top" xlink:title="cellsociety_team01.rules.\lMovementRule">
<polygon fill="white" stroke="black" points="167,-71 167,-101 305,-101 305,-71 167,-71"/>
<text text-anchor="start" x="175" y="-89" font-family="Helvetica,sans-Serif" font-size="10.00">cellsociety_team01.rules.</text>
<text text-anchor="middle" x="236" y="-78" font-family="Helvetica,sans-Serif" font-size="10.00">MovementRule</text>
</a>
</g>
</g>
<!-- Node2&#45;&gt;Node1 -->
<g id="edge1" class="edge"><title>Node2&#45;&gt;Node1</title>
<path fill="none" stroke="midnightblue" d="M262.414,-64.8188C276.632,-53.9551 293.82,-40.8232 306.583,-31.0716"/>
<polygon fill="midnightblue" stroke="midnightblue" points="260.262,-62.058 254.441,-70.9104 264.512,-67.6203 260.262,-62.058"/>
</g>
<!-- Node3 -->
<g id="node3" class="node"><title>Node3</title>
<g id="a_node3"><a xlink:href="../../d4/d46/classcellsociety__team01_1_1rules_1_1_rule.html" target="_top" xlink:title="cellsociety_team01.rules.Rule">
<polygon fill="white" stroke="black" points="0,-156.5 0,-175.5 158,-175.5 158,-156.5 0,-156.5"/>
<text text-anchor="middle" x="79" y="-163.5" font-family="Helvetica,sans-Serif" font-size="10.00">cellsociety_team01.rules.Rule</text>
</a>
</g>
</g>
<!-- Node3&#45;&gt;Node2 -->
<g id="edge2" class="edge"><title>Node3&#45;&gt;Node2</title>
<path fill="none" stroke="midnightblue" d="M105.699,-151.736C134.05,-137.65 178.687,-115.474 207.652,-101.084"/>
<polygon fill="midnightblue" stroke="midnightblue" points="103.8,-148.771 96.4016,-156.355 106.915,-155.04 103.8,-148.771"/>
</g>
<!-- Node4 -->
<g id="node4" class="node"><title>Node4</title>
<g id="a_node4"><a xlink:href="../../d2/d65/classcellsociety__team01_1_1_cell_state_1_1_state.html" target="_top" xlink:title="cellsociety_team01.CellState.\lState">
<polygon fill="white" stroke="black" points="272,-151 272,-181 430,-181 430,-151 272,-151"/>
<text text-anchor="start" x="280" y="-169" font-family="Helvetica,sans-Serif" font-size="10.00">cellsociety_team01.CellState.</text>
<text text-anchor="middle" x="351" y="-158" font-family="Helvetica,sans-Serif" font-size="10.00">State</text>
</a>
</g>
</g>
<!-- Node4&#45;&gt;Node1 -->
<g id="edge6" class="edge"><title>Node4&#45;&gt;Node1</title>
<path fill="none" stroke="#9a32cd" stroke-dasharray="5,2" d="M359.084,-140.913C360.459,-134.163 361.125,-126.809 360,-120 354.58,-87.2052 340.07,-50.8197 331.53,-31.2813"/>
<polygon fill="#9a32cd" stroke="#9a32cd" points="355.627,-140.298 356.496,-150.858 362.401,-142.061 355.627,-140.298"/>
<text text-anchor="middle" x="380.5" y="-83.5" font-family="Helvetica,sans-Serif" font-size="10.00"> myCause</text>
</g>
<!-- Node4&#45;&gt;Node2 -->
<g id="edge3" class="edge"><title>Node4&#45;&gt;Node2</title>
<path fill="none" stroke="#9a32cd" stroke-dasharray="5,2" d="M310.154,-146.339C301.926,-142.011 293.507,-137.15 286,-132 272.71,-122.883 259.219,-110.519 249.606,-101.057"/>
<polygon fill="#9a32cd" stroke="#9a32cd" points="308.801,-149.578 319.302,-150.986 311.971,-143.337 308.801,-149.578"/>
<text text-anchor="middle" x="323" y="-123.5" font-family="Helvetica,sans-Serif" font-size="10.00"> myTargetState</text>
</g>
<!-- Node5 -->
<g id="node5" class="node"><title>Node5</title>
<polygon fill="white" stroke="#bfbfbf" points="330.5,-230.5 330.5,-249.5 371.5,-249.5 371.5,-230.5 330.5,-230.5"/>
<text text-anchor="middle" x="351" y="-237.5" font-family="Helvetica,sans-Serif" font-size="10.00">Color</text>
</g>
<!-- Node5&#45;&gt;Node4 -->
<g id="edge4" class="edge"><title>Node5&#45;&gt;Node4</title>
<path fill="none" stroke="#9a32cd" stroke-dasharray="5,2" d="M351,-220.085C351,-207.915 351,-192.354 351,-181.232"/>
<polygon fill="#9a32cd" stroke="#9a32cd" points="347.5,-220.458 351,-230.458 354.5,-220.458 347.5,-220.458"/>
<text text-anchor="middle" x="372.5" y="-203.5" font-family="Helvetica,sans-Serif" font-size="10.00"> myColor</text>
</g>
<!-- Node6 -->
<g id="node6" class="node"><title>Node6</title>
<polygon fill="white" stroke="#bfbfbf" points="176,-156.5 176,-175.5 232,-175.5 232,-156.5 176,-156.5"/>
<text text-anchor="middle" x="204" y="-163.5" font-family="Helvetica,sans-Serif" font-size="10.00">Random</text>
</g>
<!-- Node6&#45;&gt;Node2 -->
<g id="edge5" class="edge"><title>Node6&#45;&gt;Node2</title>
<path fill="none" stroke="#9a32cd" stroke-dasharray="5,2" d="M201.456,-146.159C201.074,-137.856 201.665,-128.155 205,-120 207.916,-112.87 213.142,-106.363 218.483,-101.046"/>
<polygon fill="#9a32cd" stroke="#9a32cd" points="197.993,-146.71 202.415,-156.338 204.962,-146.054 197.993,-146.71"/>
<text text-anchor="middle" x="234" y="-123.5" font-family="Helvetica,sans-Serif" font-size="10.00"> myRandom</text>
</g>
</g>
</svg>
