<?xml version="1.0" encoding="UTF-8" standalone="no"?>
<!DOCTYPE svg PUBLIC "-//W3C//DTD SVG 1.1//EN"
 "http://www.w3.org/Graphics/SVG/1.1/DTD/svg11.dtd">
<!-- Generated by graphviz version 2.36.0 (20140111.2315)
 -->
<!-- Title: cellsociety_team01.CellState.Race Pages: 1 -->
<svg width="190pt" height="166pt"
 viewBox="0.00 0.00 190.00 166.00" xmlns="http://www.w3.org/2000/svg" xmlns:xlink="http://www.w3.org/1999/xlink">
<g id="graph0" class="graph" transform="scale(1 1) rotate(0) translate(4 162)">
<title>cellsociety_team01.CellState.Race</title>
<polygon fill="white" stroke="none" points="-4,4 -4,-162 186,-162 186,4 -4,4"/>
<!-- Node1 -->
<g id="node1" class="node"><title>Node1</title>
<polygon fill="#bfbfbf" stroke="black" points="0,-0.5 0,-19.5 182,-19.5 182,-0.5 0,-0.5"/>
<text text-anchor="middle" x="91" y="-7.5" font-family="Helvetica,sans-Serif" font-size="10.00">cellsociety_team01.CellState.Race</text>
</g>
<!-- Node2 -->
<g id="node2" class="node"><title>Node2</title>
<g id="a_node2"><a xlink:href="../../d2/d65/classcellsociety__team01_1_1_cell_state_1_1_state.html" target="_top" xlink:title="cellsociety_team01.CellState.\lState">
<polygon fill="white" stroke="black" points="12,-59 12,-89 170,-89 170,-59 12,-59"/>
<text text-anchor="start" x="20" y="-77" font-family="Helvetica,sans-Serif" font-size="10.00">cellsociety_team01.CellState.</text>
<text text-anchor="middle" x="91" y="-66" font-family="Helvetica,sans-Serif" font-size="10.00">State</text>
</a>
</g>
</g>
<!-- Node2&#45;&gt;Node1 -->
<g id="edge1" class="edge"><title>Node2&#45;&gt;Node1</title>
<path fill="none" stroke="midnightblue" d="M91,-48.8706C91,-38.6625 91,-27.4077 91,-19.8419"/>
<polygon fill="midnightblue" stroke="midnightblue" points="87.5001,-48.9312 91,-58.9312 94.5001,-48.9313 87.5001,-48.9312"/>
</g>
<!-- Node3 -->
<g id="node3" class="node"><title>Node3</title>
<polygon fill="white" stroke="#bfbfbf" points="70.5,-138.5 70.5,-157.5 111.5,-157.5 111.5,-138.5 70.5,-138.5"/>
<text text-anchor="middle" x="91" y="-145.5" font-family="Helvetica,sans-Serif" font-size="10.00">Color</text>
</g>
<!-- Node3&#45;&gt;Node2 -->
<g id="edge2" class="edge"><title>Node3&#45;&gt;Node2</title>
<path fill="none" stroke="#9a32cd" stroke-dasharray="5,2" d="M91,-128.085C91,-115.915 91,-100.354 91,-89.2316"/>
<polygon fill="#9a32cd" stroke="#9a32cd" points="87.5001,-128.458 91,-138.458 94.5001,-128.458 87.5001,-128.458"/>
<text text-anchor="middle" x="112.5" y="-111.5" font-family="Helvetica,sans-Serif" font-size="10.00"> myColor</text>
</g>
</g>
</svg>
