<?xml version="1.0" encoding="UTF-8" standalone="no"?>
<!DOCTYPE svg PUBLIC "-//W3C//DTD SVG 1.1//EN"
 "http://www.w3.org/Graphics/SVG/1.1/DTD/svg11.dtd">
<!-- Generated by graphviz version 2.36.0 (20140111.2315)
 -->
<!-- Title: cellsociety_team01.simulations.Sugarscape.update Pages: 1 -->
<svg width="372pt" height="234pt"
 viewBox="0.00 0.00 372.00 234.00" xmlns="http://www.w3.org/2000/svg" xmlns:xlink="http://www.w3.org/1999/xlink">
<g id="graph0" class="graph" transform="scale(1 1) rotate(0) translate(4 230)">
<title>cellsociety_team01.simulations.Sugarscape.update</title>
<polygon fill="white" stroke="none" points="-4,4 -4,-230 368,-230 368,4 -4,4"/>
<!-- Node1 -->
<g id="node1" class="node"><title>Node1</title>
<polygon fill="#bfbfbf" stroke="black" points="0,-98 0,-128 170,-128 170,-98 0,-98"/>
<text text-anchor="start" x="8" y="-116" font-family="Helvetica,sans-Serif" font-size="10.00">cellsociety_team01.simulations.</text>
<text text-anchor="middle" x="85" y="-105" font-family="Helvetica,sans-Serif" font-size="10.00">Sugarscape.update</text>
</g>
<!-- Node2 -->
<g id="node2" class="node"><title>Node2</title>
<g id="a_node2"><a xlink:href="../../d2/d25/classcellsociety__team01_1_1_cell_state_1_1_cell.html#aa6bcfad0327a829e6349b8e8ee1b995f" target="_top" xlink:title="cellsociety_team01.CellState.\lCell.getCurState">
<polygon fill="white" stroke="black" points="206,-196 206,-226 364,-226 364,-196 206,-196"/>
<text text-anchor="start" x="214" y="-214" font-family="Helvetica,sans-Serif" font-size="10.00">cellsociety_team01.CellState.</text>
<text text-anchor="middle" x="285" y="-203" font-family="Helvetica,sans-Serif" font-size="10.00">Cell.getCurState</text>
</a>
</g>
</g>
<!-- Node1&#45;&gt;Node2 -->
<g id="edge1" class="edge"><title>Node1&#45;&gt;Node2</title>
<path fill="none" stroke="midnightblue" d="M107.26,-128.071C130.605,-144.101 169.621,-169.389 206,-186 211.012,-188.289 216.295,-190.458 221.65,-192.49"/>
<polygon fill="midnightblue" stroke="midnightblue" points="220.732,-195.88 231.326,-195.998 223.118,-189.299 220.732,-195.88"/>
</g>
<!-- Node3 -->
<g id="node3" class="node"><title>Node3</title>
<g id="a_node3"><a xlink:href="../../d2/d25/classcellsociety__team01_1_1_cell_state_1_1_cell.html#a27e65c7283de9ee085111dfe41798a81" target="_top" xlink:title="cellsociety_team01.CellState.\lCell.getNextState">
<polygon fill="white" stroke="black" points="206,-147 206,-177 364,-177 364,-147 206,-147"/>
<text text-anchor="start" x="214" y="-165" font-family="Helvetica,sans-Serif" font-size="10.00">cellsociety_team01.CellState.</text>
<text text-anchor="middle" x="285" y="-154" font-family="Helvetica,sans-Serif" font-size="10.00">Cell.getNextState</text>
</a>
</g>
</g>
<!-- Node1&#45;&gt;Node3 -->
<g id="edge2" class="edge"><title>Node1&#45;&gt;Node3</title>
<path fill="none" stroke="midnightblue" d="M146.752,-128.035C167.848,-133.255 191.682,-139.154 213.498,-144.553"/>
<polygon fill="midnightblue" stroke="midnightblue" points="212.815,-147.989 223.363,-146.994 214.496,-141.194 212.815,-147.989"/>
</g>
<!-- Node4 -->
<g id="node4" class="node"><title>Node4</title>
<g id="a_node4"><a xlink:href="../../d2/d25/classcellsociety__team01_1_1_cell_state_1_1_cell.html#ae0b32ba9532fbce3c09d4200e70eedc4" target="_top" xlink:title="cellsociety_team01.CellState.\lCell.isUpdated">
<polygon fill="white" stroke="black" points="206,-98 206,-128 364,-128 364,-98 206,-98"/>
<text text-anchor="start" x="214" y="-116" font-family="Helvetica,sans-Serif" font-size="10.00">cellsociety_team01.CellState.</text>
<text text-anchor="middle" x="285" y="-105" font-family="Helvetica,sans-Serif" font-size="10.00">Cell.isUpdated</text>
</a>
</g>
</g>
<!-- Node1&#45;&gt;Node4 -->
<g id="edge3" class="edge"><title>Node1&#45;&gt;Node4</title>
<path fill="none" stroke="midnightblue" d="M170.257,-113C178.638,-113 187.163,-113 195.585,-113"/>
<polygon fill="midnightblue" stroke="midnightblue" points="195.79,-116.5 205.79,-113 195.79,-109.5 195.79,-116.5"/>
</g>
<!-- Node5 -->
<g id="node5" class="node"><title>Node5</title>
<g id="a_node5"><a xlink:href="../../d2/d25/classcellsociety__team01_1_1_cell_state_1_1_cell.html#a555615a89d24bf27ad94d192d8df8465" target="_top" xlink:title="cellsociety_team01.CellState.\lCell.setNextState">
<polygon fill="white" stroke="black" points="206,-49 206,-79 364,-79 364,-49 206,-49"/>
<text text-anchor="start" x="214" y="-67" font-family="Helvetica,sans-Serif" font-size="10.00">cellsociety_team01.CellState.</text>
<text text-anchor="middle" x="285" y="-56" font-family="Helvetica,sans-Serif" font-size="10.00">Cell.setNextState</text>
</a>
</g>
</g>
<!-- Node1&#45;&gt;Node5 -->
<g id="edge4" class="edge"><title>Node1&#45;&gt;Node5</title>
<path fill="none" stroke="midnightblue" d="M146.752,-97.9654C167.848,-92.7446 191.682,-86.8463 213.498,-81.4474"/>
<polygon fill="midnightblue" stroke="midnightblue" points="214.496,-84.806 223.363,-79.0062 212.815,-78.011 214.496,-84.806"/>
</g>
<!-- Node6 -->
<g id="node6" class="node"><title>Node6</title>
<g id="a_node6"><a xlink:href="../../d2/d65/classcellsociety__team01_1_1_cell_state_1_1_state.html#a63a38cfb01adae4aefc85ea603cd95c8" target="_top" xlink:title="cellsociety_team01.CellState.\lState.updateColor">
<polygon fill="white" stroke="black" points="206,-0 206,-30 364,-30 364,-0 206,-0"/>
<text text-anchor="start" x="214" y="-18" font-family="Helvetica,sans-Serif" font-size="10.00">cellsociety_team01.CellState.</text>
<text text-anchor="middle" x="285" y="-7" font-family="Helvetica,sans-Serif" font-size="10.00">State.updateColor</text>
</a>
</g>
</g>
<!-- Node1&#45;&gt;Node6 -->
<g id="edge5" class="edge"><title>Node1&#45;&gt;Node6</title>
<path fill="none" stroke="midnightblue" d="M107.26,-97.9285C130.605,-81.8987 169.621,-56.6114 206,-40 211.012,-37.7112 216.295,-35.5425 221.65,-33.51"/>
<polygon fill="midnightblue" stroke="midnightblue" points="223.118,-36.7007 231.326,-30.002 220.732,-30.1199 223.118,-36.7007"/>
</g>
</g>
</svg>
