<?xml version="1.0" encoding="UTF-8" standalone="no"?>
<!DOCTYPE svg PUBLIC "-//W3C//DTD SVG 1.1//EN"
 "http://www.w3.org/Graphics/SVG/1.1/DTD/svg11.dtd">
<!-- Generated by graphviz version 2.36.0 (20140111.2315)
 -->
<!-- Title: cellsociety_team01.modelview.GUI.setGridCellStates Pages: 1 -->
<svg width="1572pt" height="187pt"
 viewBox="0.00 0.00 1572.00 187.00" xmlns="http://www.w3.org/2000/svg" xmlns:xlink="http://www.w3.org/1999/xlink">
<g id="graph0" class="graph" transform="scale(1 1) rotate(0) translate(4 183)">
<title>cellsociety_team01.modelview.GUI.setGridCellStates</title>
<polygon fill="white" stroke="none" points="-4,4 -4,-183 1568,-183 1568,4 -4,4"/>
<!-- Node1 -->
<g id="node1" class="node"><title>Node1</title>
<polygon fill="#bfbfbf" stroke="black" points="0,-71 0,-101 164,-101 164,-71 0,-71"/>
<text text-anchor="start" x="8" y="-89" font-family="Helvetica,sans-Serif" font-size="10.00">cellsociety_team01.modelview.</text>
<text text-anchor="middle" x="82" y="-78" font-family="Helvetica,sans-Serif" font-size="10.00">GUI.setGridCellStates</text>
</g>
<!-- Node2 -->
<g id="node2" class="node"><title>Node2</title>
<g id="a_node2"><a xlink:href="../../db/d10/classcellsociety__team01_1_1modelview_1_1_g_u_i.html#afa183319cc9816a6147cba0869ef82eb" target="_top" xlink:title="cellsociety_team01.modelview.\lGUI.loadXML">
<polygon fill="white" stroke="black" points="1000,-120 1000,-150 1164,-150 1164,-120 1000,-120"/>
<text text-anchor="start" x="1008" y="-138" font-family="Helvetica,sans-Serif" font-size="10.00">cellsociety_team01.modelview.</text>
<text text-anchor="middle" x="1082" y="-127" font-family="Helvetica,sans-Serif" font-size="10.00">GUI.loadXML</text>
</a>
</g>
</g>
<!-- Node1&#45;&gt;Node2 -->
<g id="edge1" class="edge"><title>Node1&#45;&gt;Node2</title>
<path fill="none" stroke="midnightblue" d="M130.495,-104.572C204.284,-131.708 351.463,-179 481,-179 481,-179 481,-179 683,-179 808.205,-179 839.963,-176.061 964,-159 980.742,-156.697 998.682,-153.428 1015.36,-150.042"/>
<polygon fill="midnightblue" stroke="midnightblue" points="131.601,-101.25 121.008,-101.045 129.162,-107.811 131.601,-101.25"/>
</g>
<!-- Node5 -->
<g id="node5" class="node"><title>Node5</title>
<g id="a_node5"><a xlink:href="../../db/d10/classcellsociety__team01_1_1modelview_1_1_g_u_i.html#a5c5e37ae72fe72af97fab2cb9a12b045" target="_top" xlink:title="cellsociety_team01.modelview.\lGUI.reset">
<polygon fill="white" stroke="black" points="200,-0 200,-30 364,-30 364,-0 200,-0"/>
<text text-anchor="start" x="208" y="-18" font-family="Helvetica,sans-Serif" font-size="10.00">cellsociety_team01.modelview.</text>
<text text-anchor="middle" x="282" y="-7" font-family="Helvetica,sans-Serif" font-size="10.00">GUI.reset</text>
</a>
</g>
</g>
<!-- Node1&#45;&gt;Node5 -->
<g id="edge4" class="edge"><title>Node1&#45;&gt;Node5</title>
<path fill="none" stroke="midnightblue" d="M134.77,-67.4362C167.267,-55.7829 208.633,-40.9497 239.07,-30.0356"/>
<polygon fill="midnightblue" stroke="midnightblue" points="133.222,-64.2727 124.991,-70.9427 135.585,-70.8618 133.222,-64.2727"/>
</g>
<!-- Node7 -->
<g id="node7" class="node"><title>Node7</title>
<g id="a_node7"><a xlink:href="../../db/d10/classcellsociety__team01_1_1modelview_1_1_g_u_i.html#a2499cd8253adf059aadbe405c01ddde7" target="_top" xlink:title="cellsociety_team01.modelview.\lGUI.update">
<polygon fill="white" stroke="black" points="200,-71 200,-101 364,-101 364,-71 200,-71"/>
<text text-anchor="start" x="208" y="-89" font-family="Helvetica,sans-Serif" font-size="10.00">cellsociety_team01.modelview.</text>
<text text-anchor="middle" x="282" y="-78" font-family="Helvetica,sans-Serif" font-size="10.00">GUI.update</text>
</a>
</g>
</g>
<!-- Node1&#45;&gt;Node7 -->
<g id="edge7" class="edge"><title>Node1&#45;&gt;Node7</title>
<path fill="none" stroke="midnightblue" d="M174.363,-86C182.817,-86 191.346,-86 199.7,-86"/>
<polygon fill="midnightblue" stroke="midnightblue" points="174.106,-82.5001 164.105,-86 174.105,-89.5001 174.106,-82.5001"/>
</g>
<!-- Node3 -->
<g id="node3" class="node"><title>Node3</title>
<g id="a_node3"><a xlink:href="../../db/d10/classcellsociety__team01_1_1modelview_1_1_g_u_i.html#a4072ce794f518e806e7a912892f1e9da" target="_top" xlink:title="cellsociety_team01.modelview.\lGUI.makeMenuBar">
<polygon fill="white" stroke="black" points="1200,-106 1200,-136 1364,-136 1364,-106 1200,-106"/>
<text text-anchor="start" x="1208" y="-124" font-family="Helvetica,sans-Serif" font-size="10.00">cellsociety_team01.modelview.</text>
<text text-anchor="middle" x="1282" y="-113" font-family="Helvetica,sans-Serif" font-size="10.00">GUI.makeMenuBar</text>
</a>
</g>
</g>
<!-- Node2&#45;&gt;Node3 -->
<g id="edge2" class="edge"><title>Node2&#45;&gt;Node3</title>
<path fill="none" stroke="midnightblue" d="M1174.08,-128.56C1182.63,-127.955 1191.25,-127.346 1199.7,-126.748"/>
<polygon fill="midnightblue" stroke="midnightblue" points="1173.83,-125.069 1164.11,-129.265 1174.33,-132.051 1173.83,-125.069"/>
</g>
<!-- Node4 -->
<g id="node4" class="node"><title>Node4</title>
<g id="a_node4"><a xlink:href="../../db/d10/classcellsociety__team01_1_1modelview_1_1_g_u_i.html#a07bcff60812627c8dfe97f1aadc671e5" target="_top" xlink:title="cellsociety_team01.modelview.\lGUI.GUI">
<polygon fill="white" stroke="black" points="1400,-70 1400,-100 1564,-100 1564,-70 1400,-70"/>
<text text-anchor="start" x="1408" y="-88" font-family="Helvetica,sans-Serif" font-size="10.00">cellsociety_team01.modelview.</text>
<text text-anchor="middle" x="1482" y="-77" font-family="Helvetica,sans-Serif" font-size="10.00">GUI.GUI</text>
</a>
</g>
</g>
<!-- Node3&#45;&gt;Node4 -->
<g id="edge3" class="edge"><title>Node3&#45;&gt;Node4</title>
<path fill="none" stroke="midnightblue" d="M1374.08,-104.439C1382.63,-102.886 1391.25,-101.317 1399.7,-99.7818"/>
<polygon fill="midnightblue" stroke="midnightblue" points="1373.32,-101.021 1364.11,-106.254 1374.57,-107.908 1373.32,-101.021"/>
</g>
<!-- Node6 -->
<g id="node6" class="node"><title>Node6</title>
<g id="a_node6"><a xlink:href="../../db/d10/classcellsociety__team01_1_1modelview_1_1_g_u_i.html#aa924c28ce131195d3f377b18177f6cb9" target="_top" xlink:title="cellsociety_team01.modelview.\lGUI.makeButtonsAndSlider">
<polygon fill="white" stroke="black" points="600,-22 600,-52 764,-52 764,-22 600,-22"/>
<text text-anchor="start" x="608" y="-40" font-family="Helvetica,sans-Serif" font-size="10.00">cellsociety_team01.modelview.</text>
<text text-anchor="middle" x="682" y="-29" font-family="Helvetica,sans-Serif" font-size="10.00">GUI.makeButtonsAndSlider</text>
</a>
</g>
</g>
<!-- Node5&#45;&gt;Node6 -->
<g id="edge5" class="edge"><title>Node5&#45;&gt;Node6</title>
<path fill="none" stroke="midnightblue" d="M374.18,-8.70116C429.286,-6.21643 500.855,-5.32901 564,-12 583.21,-14.0295 603.904,-17.8837 622.468,-21.9691"/>
<polygon fill="midnightblue" stroke="midnightblue" points="373.909,-5.20997 364.087,-9.18224 374.243,-12.202 373.909,-5.20997"/>
</g>
<!-- Node6&#45;&gt;Node4 -->
<g id="edge6" class="edge"><title>Node6&#45;&gt;Node4</title>
<path fill="none" stroke="midnightblue" d="M774.39,-42.4971C931.5,-51.9474 1250.3,-71.1236 1399.97,-80.126"/>
<polygon fill="midnightblue" stroke="midnightblue" points="774.471,-38.9958 764.279,-41.8889 774.05,-45.9831 774.471,-38.9958"/>
</g>
<!-- Node8 -->
<g id="node8" class="node"><title>Node8</title>
<g id="a_node8"><a xlink:href="../../d2/d8b/classcellsociety__team01_1_1modelview_1_1_grid.html#a800481f8ea02b9cdbe3ee0f1d9576d63" target="_top" xlink:title="cellsociety_team01.modelview.\lGrid.step">
<polygon fill="white" stroke="black" points="400,-22 400,-52 564,-52 564,-22 400,-22"/>
<text text-anchor="start" x="408" y="-40" font-family="Helvetica,sans-Serif" font-size="10.00">cellsociety_team01.modelview.</text>
<text text-anchor="middle" x="482" y="-29" font-family="Helvetica,sans-Serif" font-size="10.00">Grid.step</text>
</a>
</g>
</g>
<!-- Node7&#45;&gt;Node8 -->
<g id="edge8" class="edge"><title>Node7&#45;&gt;Node8</title>
<path fill="none" stroke="midnightblue" d="M353.621,-68.5232C375.444,-63.1225 399.277,-57.2245 420.363,-52.0062"/>
<polygon fill="midnightblue" stroke="midnightblue" points="352.618,-65.1655 343.752,-70.9654 354.3,-71.9605 352.618,-65.1655"/>
</g>
<!-- Node9 -->
<g id="node9" class="node"><title>Node9</title>
<g id="a_node9"><a xlink:href="../../d2/d8b/classcellsociety__team01_1_1modelview_1_1_grid.html#ab0d0ba2a3e615cedd11e8c56e6ab92ba" target="_top" xlink:title="cellsociety_team01.modelview.\lGrid.update">
<polygon fill="white" stroke="black" points="400,-71 400,-101 564,-101 564,-71 400,-71"/>
<text text-anchor="start" x="408" y="-89" font-family="Helvetica,sans-Serif" font-size="10.00">cellsociety_team01.modelview.</text>
<text text-anchor="middle" x="482" y="-78" font-family="Helvetica,sans-Serif" font-size="10.00">Grid.update</text>
</a>
</g>
</g>
<!-- Node7&#45;&gt;Node9 -->
<g id="edge10" class="edge"><title>Node7&#45;&gt;Node9</title>
<path fill="none" stroke="midnightblue" d="M374.363,-86C382.817,-86 391.346,-86 399.7,-86"/>
<polygon fill="midnightblue" stroke="midnightblue" points="374.106,-82.5001 364.105,-86 374.105,-89.5001 374.106,-82.5001"/>
</g>
<!-- Node10 -->
<g id="node10" class="node"><title>Node10</title>
<g id="a_node10"><a xlink:href="../../d2/d8b/classcellsociety__team01_1_1modelview_1_1_grid.html#ab24d28beea073446f08df1aa6f3223ef" target="_top" xlink:title="cellsociety_team01.modelview.\lGrid.cycleCellState">
<polygon fill="white" stroke="black" points="400,-120 400,-150 564,-150 564,-120 400,-120"/>
<text text-anchor="start" x="408" y="-138" font-family="Helvetica,sans-Serif" font-size="10.00">cellsociety_team01.modelview.</text>
<text text-anchor="middle" x="482" y="-127" font-family="Helvetica,sans-Serif" font-size="10.00">Grid.cycleCellState</text>
</a>
</g>
</g>
<!-- Node7&#45;&gt;Node10 -->
<g id="edge11" class="edge"><title>Node7&#45;&gt;Node10</title>
<path fill="none" stroke="midnightblue" d="M353.621,-103.477C375.444,-108.877 399.277,-114.776 420.363,-119.994"/>
<polygon fill="midnightblue" stroke="midnightblue" points="354.3,-100.039 343.752,-101.035 352.618,-106.834 354.3,-100.039"/>
</g>
<!-- Node8&#45;&gt;Node6 -->
<g id="edge9" class="edge"><title>Node8&#45;&gt;Node6</title>
<path fill="none" stroke="midnightblue" d="M574.363,-37C582.817,-37 591.346,-37 599.7,-37"/>
<polygon fill="midnightblue" stroke="midnightblue" points="574.106,-33.5001 564.105,-37 574.105,-40.5001 574.106,-33.5001"/>
</g>
<!-- Node11 -->
<g id="node11" class="node"><title>Node11</title>
<g id="a_node11"><a xlink:href="../../db/d10/classcellsociety__team01_1_1modelview_1_1_g_u_i.html#a6c2a76c08a6f6e837ba5709ef57499b3" target="_top" xlink:title="cellsociety_team01.modelview.\lGUI.cellClicked">
<polygon fill="white" stroke="black" points="600,-120 600,-150 764,-150 764,-120 600,-120"/>
<text text-anchor="start" x="608" y="-138" font-family="Helvetica,sans-Serif" font-size="10.00">cellsociety_team01.modelview.</text>
<text text-anchor="middle" x="682" y="-127" font-family="Helvetica,sans-Serif" font-size="10.00">GUI.cellClicked</text>
</a>
</g>
</g>
<!-- Node10&#45;&gt;Node11 -->
<g id="edge12" class="edge"><title>Node10&#45;&gt;Node11</title>
<path fill="none" stroke="midnightblue" d="M574.363,-135C582.817,-135 591.346,-135 599.7,-135"/>
<polygon fill="midnightblue" stroke="midnightblue" points="574.106,-131.5 564.105,-135 574.105,-138.5 574.106,-131.5"/>
</g>
<!-- Node12 -->
<g id="node12" class="node"><title>Node12</title>
<g id="a_node12"><a xlink:href="../../db/d10/classcellsociety__team01_1_1modelview_1_1_g_u_i.html#af0760be4f824fab5c2a8b9b91d5823b2" target="_top" xlink:title="cellsociety_team01.modelview.\lGUI.makeGrid">
<polygon fill="white" stroke="black" points="800,-120 800,-150 964,-150 964,-120 800,-120"/>
<text text-anchor="start" x="808" y="-138" font-family="Helvetica,sans-Serif" font-size="10.00">cellsociety_team01.modelview.</text>
<text text-anchor="middle" x="882" y="-127" font-family="Helvetica,sans-Serif" font-size="10.00">GUI.makeGrid</text>
</a>
</g>
</g>
<!-- Node11&#45;&gt;Node12 -->
<g id="edge13" class="edge"><title>Node11&#45;&gt;Node12</title>
<path fill="none" stroke="midnightblue" d="M774.363,-135C782.817,-135 791.346,-135 799.7,-135"/>
<polygon fill="midnightblue" stroke="midnightblue" points="774.106,-131.5 764.105,-135 774.105,-138.5 774.106,-131.5"/>
</g>
<!-- Node12&#45;&gt;Node2 -->
<g id="edge14" class="edge"><title>Node12&#45;&gt;Node2</title>
<path fill="none" stroke="midnightblue" d="M974.363,-135C982.817,-135 991.346,-135 999.7,-135"/>
<polygon fill="midnightblue" stroke="midnightblue" points="974.106,-131.5 964.105,-135 974.105,-138.5 974.106,-131.5"/>
</g>
</g>
</svg>
