<?xml version="1.0" encoding="UTF-8" standalone="no"?>
<!DOCTYPE svg PUBLIC "-//W3C//DTD SVG 1.1//EN"
 "http://www.w3.org/Graphics/SVG/1.1/DTD/svg11.dtd">
<!-- Generated by graphviz version 2.36.0 (20140111.2315)
 -->
<!-- Title: cellsociety_team01.modelview.GUI.update Pages: 1 -->
<svg width="572pt" height="214pt"
 viewBox="0.00 0.00 572.00 214.00" xmlns="http://www.w3.org/2000/svg" xmlns:xlink="http://www.w3.org/1999/xlink">
<g id="graph0" class="graph" transform="scale(1 1) rotate(0) translate(4 210)">
<title>cellsociety_team01.modelview.GUI.update</title>
<polygon fill="white" stroke="none" points="-4,4 -4,-210 568,-210 568,4 -4,4"/>
<!-- Node1 -->
<g id="node1" class="node"><title>Node1</title>
<polygon fill="#bfbfbf" stroke="black" points="0,-105 0,-135 164,-135 164,-105 0,-105"/>
<text text-anchor="start" x="8" y="-123" font-family="Helvetica,sans-Serif" font-size="10.00">cellsociety_team01.modelview.</text>
<text text-anchor="middle" x="82" y="-112" font-family="Helvetica,sans-Serif" font-size="10.00">GUI.update</text>
</g>
<!-- Node2 -->
<g id="node2" class="node"><title>Node2</title>
<g id="a_node2"><a xlink:href="../../d2/d8b/classcellsociety__team01_1_1modelview_1_1_grid.html#ac461e9ca102207e02d6478f5542ba650" target="_top" xlink:title="cellsociety_team01.modelview.\lGrid.changeUpdateRate">
<polygon fill="white" stroke="black" points="200,-176 200,-206 364,-206 364,-176 200,-176"/>
<text text-anchor="start" x="208" y="-194" font-family="Helvetica,sans-Serif" font-size="10.00">cellsociety_team01.modelview.</text>
<text text-anchor="middle" x="282" y="-183" font-family="Helvetica,sans-Serif" font-size="10.00">Grid.changeUpdateRate</text>
</a>
</g>
</g>
<!-- Node1&#45;&gt;Node2 -->
<g id="edge1" class="edge"><title>Node1&#45;&gt;Node2</title>
<path fill="none" stroke="midnightblue" d="M119.101,-135.006C142.094,-144.361 172.604,-156.402 200,-166 206.532,-168.289 213.398,-170.58 220.255,-172.796"/>
<polygon fill="midnightblue" stroke="midnightblue" points="219.663,-176.281 230.254,-175.98 221.787,-169.611 219.663,-176.281"/>
</g>
<!-- Node3 -->
<g id="node3" class="node"><title>Node3</title>
<g id="a_node3"><a xlink:href="../../db/d10/classcellsociety__team01_1_1modelview_1_1_g_u_i.html#a2f37acaf37d6fecd19d7ede68dc96561" target="_top" xlink:title="cellsociety_team01.modelview.\lGUI.enableButtons">
<polygon fill="white" stroke="black" points="200,-127 200,-157 364,-157 364,-127 200,-127"/>
<text text-anchor="start" x="208" y="-145" font-family="Helvetica,sans-Serif" font-size="10.00">cellsociety_team01.modelview.</text>
<text text-anchor="middle" x="282" y="-134" font-family="Helvetica,sans-Serif" font-size="10.00">GUI.enableButtons</text>
</a>
</g>
</g>
<!-- Node1&#45;&gt;Node3 -->
<g id="edge2" class="edge"><title>Node1&#45;&gt;Node3</title>
<path fill="none" stroke="midnightblue" d="M164.105,-129.012C172.549,-129.95 181.172,-130.908 189.719,-131.858"/>
<polygon fill="midnightblue" stroke="midnightblue" points="189.375,-135.341 199.7,-132.967 190.148,-128.384 189.375,-135.341"/>
</g>
<!-- Node4 -->
<g id="node4" class="node"><title>Node4</title>
<g id="a_node4"><a xlink:href="../../d2/d8b/classcellsociety__team01_1_1modelview_1_1_grid.html#a64c59347e0e67e52f4902d9ef55a1bdb" target="_top" xlink:title="cellsociety_team01.modelview.\lGrid.isSimRunning">
<polygon fill="white" stroke="black" points="400,-108 400,-138 564,-138 564,-108 400,-108"/>
<text text-anchor="start" x="408" y="-126" font-family="Helvetica,sans-Serif" font-size="10.00">cellsociety_team01.modelview.</text>
<text text-anchor="middle" x="482" y="-115" font-family="Helvetica,sans-Serif" font-size="10.00">Grid.isSimRunning</text>
</a>
</g>
</g>
<!-- Node1&#45;&gt;Node4 -->
<g id="edge4" class="edge"><title>Node1&#45;&gt;Node4</title>
<path fill="none" stroke="midnightblue" d="M164.166,-118.201C220.294,-117.256 296.691,-116.562 364,-118 372.327,-118.178 380.986,-118.427 389.657,-118.72"/>
<polygon fill="midnightblue" stroke="midnightblue" points="389.703,-122.223 399.821,-119.082 389.952,-115.228 389.703,-122.223"/>
</g>
<!-- Node5 -->
<g id="node5" class="node"><title>Node5</title>
<g id="a_node5"><a xlink:href="../../db/d10/classcellsociety__team01_1_1modelview_1_1_g_u_i.html#a9e9097427a1074d21da7f938399a6be7" target="_top" xlink:title="cellsociety_team01.modelview.\lGUI.setGridCellStates">
<polygon fill="white" stroke="black" points="200,-39 200,-69 364,-69 364,-39 200,-39"/>
<text text-anchor="start" x="208" y="-57" font-family="Helvetica,sans-Serif" font-size="10.00">cellsociety_team01.modelview.</text>
<text text-anchor="middle" x="282" y="-46" font-family="Helvetica,sans-Serif" font-size="10.00">GUI.setGridCellStates</text>
</a>
</g>
</g>
<!-- Node1&#45;&gt;Node5 -->
<g id="edge5" class="edge"><title>Node1&#45;&gt;Node5</title>
<path fill="none" stroke="midnightblue" d="M128.425,-104.858C157.478,-95.1741 195.339,-82.5537 226.077,-72.3077"/>
<polygon fill="midnightblue" stroke="midnightblue" points="227.406,-75.554 235.786,-69.0713 225.193,-68.9132 227.406,-75.554"/>
</g>
<!-- Node3&#45;&gt;Node4 -->
<g id="edge3" class="edge"><title>Node3&#45;&gt;Node4</title>
<path fill="none" stroke="midnightblue" d="M364.105,-134.217C372.549,-133.407 381.172,-132.579 389.719,-131.759"/>
<polygon fill="midnightblue" stroke="midnightblue" points="390.08,-135.241 399.7,-130.801 389.412,-128.273 390.08,-135.241"/>
</g>
<!-- Node6 -->
<g id="node6" class="node"><title>Node6</title>
<g id="a_node6"><a xlink:href="../../d2/d8b/classcellsociety__team01_1_1modelview_1_1_grid.html#ad277c8aa0861d7d5cb6d339971017785" target="_top" xlink:title="cellsociety_team01.modelview.\lGrid.getCells">
<polygon fill="white" stroke="black" points="400,-49 400,-79 564,-79 564,-49 400,-49"/>
<text text-anchor="start" x="408" y="-67" font-family="Helvetica,sans-Serif" font-size="10.00">cellsociety_team01.modelview.</text>
<text text-anchor="middle" x="482" y="-56" font-family="Helvetica,sans-Serif" font-size="10.00">Grid.getCells</text>
</a>
</g>
</g>
<!-- Node5&#45;&gt;Node6 -->
<g id="edge6" class="edge"><title>Node5&#45;&gt;Node6</title>
<path fill="none" stroke="midnightblue" d="M364.105,-58.0962C372.457,-58.518 380.985,-58.9487 389.44,-59.3758"/>
<polygon fill="midnightblue" stroke="midnightblue" points="389.536,-62.885 399.7,-59.894 389.89,-55.8939 389.536,-62.885"/>
</g>
<!-- Node7 -->
<g id="node7" class="node"><title>Node7</title>
<g id="a_node7"><a xlink:href="../../d3/d6b/interfacecellsociety__team01_1_1modelview_1_1_grid_view.html#a0e41d85ba1146b4ed70b39a2389faaa3" target="_top" xlink:title="cellsociety_team01.modelview.\lGridView.setGridCellStates">
<polygon fill="white" stroke="black" points="400,-0 400,-30 564,-30 564,-0 400,-0"/>
<text text-anchor="start" x="408" y="-18" font-family="Helvetica,sans-Serif" font-size="10.00">cellsociety_team01.modelview.</text>
<text text-anchor="middle" x="482" y="-7" font-family="Helvetica,sans-Serif" font-size="10.00">GridView.setGridCellStates</text>
</a>
</g>
</g>
<!-- Node5&#45;&gt;Node7 -->
<g id="edge7" class="edge"><title>Node5&#45;&gt;Node7</title>
<path fill="none" stroke="midnightblue" d="M359.269,-38.9774C370.929,-36.6807 383.033,-34.2964 394.887,-31.9616"/>
<polygon fill="midnightblue" stroke="midnightblue" points="395.635,-35.3816 404.771,-30.0149 394.283,-28.5135 395.635,-35.3816"/>
</g>
</g>
</svg>
