<?xml version="1.0" encoding="UTF-8" standalone="no"?>
<!DOCTYPE svg PUBLIC "-//W3C//DTD SVG 1.1//EN"
 "http://www.w3.org/Graphics/SVG/1.1/DTD/svg11.dtd">
<!-- Generated by graphviz version 2.36.0 (20140111.2315)
 -->
<!-- Title: cellsociety_team01.modelview.GUI.update Pages: 1 -->
<svg width="1372pt" height="129pt"
 viewBox="0.00 0.00 1372.00 129.00" xmlns="http://www.w3.org/2000/svg" xmlns:xlink="http://www.w3.org/1999/xlink">
<g id="graph0" class="graph" transform="scale(1 1) rotate(0) translate(4 125)">
<title>cellsociety_team01.modelview.GUI.update</title>
<polygon fill="white" stroke="none" points="-4,4 -4,-125 1368,-125 1368,4 -4,4"/>
<!-- Node1 -->
<g id="node1" class="node"><title>Node1</title>
<polygon fill="#bfbfbf" stroke="black" points="0,-44 0,-74 164,-74 164,-44 0,-44"/>
<text text-anchor="start" x="8" y="-62" font-family="Helvetica,sans-Serif" font-size="10.00">cellsociety_team01.modelview.</text>
<text text-anchor="middle" x="82" y="-51" font-family="Helvetica,sans-Serif" font-size="10.00">GUI.update</text>
</g>
<!-- Node2 -->
<g id="node2" class="node"><title>Node2</title>
<g id="a_node2"><a xlink:href="../../d2/d8b/classcellsociety__team01_1_1modelview_1_1_grid.html#ab24d28beea073446f08df1aa6f3223ef" target="_top" xlink:title="cellsociety_team01.modelview.\lGrid.cycleCellState">
<polygon fill="white" stroke="black" points="200,-89 200,-119 364,-119 364,-89 200,-89"/>
<text text-anchor="start" x="208" y="-107" font-family="Helvetica,sans-Serif" font-size="10.00">cellsociety_team01.modelview.</text>
<text text-anchor="middle" x="282" y="-96" font-family="Helvetica,sans-Serif" font-size="10.00">Grid.cycleCellState</text>
</a>
</g>
</g>
<!-- Node1&#45;&gt;Node2 -->
<g id="edge1" class="edge"><title>Node1&#45;&gt;Node2</title>
<path fill="none" stroke="midnightblue" d="M159.007,-76.2742C177.414,-80.4577 196.944,-84.8964 214.856,-88.9673"/>
<polygon fill="midnightblue" stroke="midnightblue" points="159.733,-72.8502 149.206,-74.0469 158.182,-79.6762 159.733,-72.8502"/>
</g>
<!-- Node8 -->
<g id="node8" class="node"><title>Node8</title>
<g id="a_node8"><a xlink:href="../../d2/d8b/classcellsociety__team01_1_1modelview_1_1_grid.html#a800481f8ea02b9cdbe3ee0f1d9576d63" target="_top" xlink:title="cellsociety_team01.modelview.\lGrid.step">
<polygon fill="white" stroke="black" points="400,-42 400,-72 564,-72 564,-42 400,-42"/>
<text text-anchor="start" x="408" y="-60" font-family="Helvetica,sans-Serif" font-size="10.00">cellsociety_team01.modelview.</text>
<text text-anchor="middle" x="482" y="-49" font-family="Helvetica,sans-Serif" font-size="10.00">Grid.step</text>
</a>
</g>
</g>
<!-- Node1&#45;&gt;Node8 -->
<g id="edge7" class="edge"><title>Node1&#45;&gt;Node8</title>
<path fill="none" stroke="midnightblue" d="M174.296,-58.5412C242.29,-58.1995 334.294,-57.7372 399.751,-57.4083"/>
<polygon fill="midnightblue" stroke="midnightblue" points="174.003,-55.0426 164.021,-58.5929 174.038,-62.0425 174.003,-55.0426"/>
</g>
<!-- Node10 -->
<g id="node10" class="node"><title>Node10</title>
<g id="a_node10"><a xlink:href="../../d2/d8b/classcellsociety__team01_1_1modelview_1_1_grid.html#ab0d0ba2a3e615cedd11e8c56e6ab92ba" target="_top" xlink:title="cellsociety_team01.modelview.\lGrid.update">
<polygon fill="white" stroke="black" points="200,-0 200,-30 364,-30 364,-0 200,-0"/>
<text text-anchor="start" x="208" y="-18" font-family="Helvetica,sans-Serif" font-size="10.00">cellsociety_team01.modelview.</text>
<text text-anchor="middle" x="282" y="-7" font-family="Helvetica,sans-Serif" font-size="10.00">Grid.update</text>
</a>
</g>
</g>
<!-- Node1&#45;&gt;Node10 -->
<g id="edge10" class="edge"><title>Node1&#45;&gt;Node10</title>
<path fill="none" stroke="midnightblue" d="M160.708,-41.7316C178.108,-37.8648 196.43,-33.7934 213.382,-30.0262"/>
<polygon fill="midnightblue" stroke="midnightblue" points="159.589,-38.3947 150.587,-43.9808 161.108,-45.228 159.589,-38.3947"/>
</g>
<!-- Node3 -->
<g id="node3" class="node"><title>Node3</title>
<g id="a_node3"><a xlink:href="../../db/d10/classcellsociety__team01_1_1modelview_1_1_g_u_i.html#a6c2a76c08a6f6e837ba5709ef57499b3" target="_top" xlink:title="cellsociety_team01.modelview.\lGUI.cellClicked">
<polygon fill="white" stroke="black" points="400,-91 400,-121 564,-121 564,-91 400,-91"/>
<text text-anchor="start" x="408" y="-109" font-family="Helvetica,sans-Serif" font-size="10.00">cellsociety_team01.modelview.</text>
<text text-anchor="middle" x="482" y="-98" font-family="Helvetica,sans-Serif" font-size="10.00">GUI.cellClicked</text>
</a>
</g>
</g>
<!-- Node2&#45;&gt;Node3 -->
<g id="edge2" class="edge"><title>Node2&#45;&gt;Node3</title>
<path fill="none" stroke="midnightblue" d="M374.363,-104.923C382.817,-105.008 391.346,-105.094 399.7,-105.179"/>
<polygon fill="midnightblue" stroke="midnightblue" points="374.14,-101.421 364.105,-104.819 374.07,-108.42 374.14,-101.421"/>
</g>
<!-- Node4 -->
<g id="node4" class="node"><title>Node4</title>
<g id="a_node4"><a xlink:href="../../db/d10/classcellsociety__team01_1_1modelview_1_1_g_u_i.html#af0760be4f824fab5c2a8b9b91d5823b2" target="_top" xlink:title="cellsociety_team01.modelview.\lGUI.makeGrid">
<polygon fill="white" stroke="black" points="600,-91 600,-121 764,-121 764,-91 600,-91"/>
<text text-anchor="start" x="608" y="-109" font-family="Helvetica,sans-Serif" font-size="10.00">cellsociety_team01.modelview.</text>
<text text-anchor="middle" x="682" y="-98" font-family="Helvetica,sans-Serif" font-size="10.00">GUI.makeGrid</text>
</a>
</g>
</g>
<!-- Node3&#45;&gt;Node4 -->
<g id="edge3" class="edge"><title>Node3&#45;&gt;Node4</title>
<path fill="none" stroke="midnightblue" d="M574.363,-106C582.817,-106 591.346,-106 599.7,-106"/>
<polygon fill="midnightblue" stroke="midnightblue" points="574.106,-102.5 564.105,-106 574.105,-109.5 574.106,-102.5"/>
</g>
<!-- Node5 -->
<g id="node5" class="node"><title>Node5</title>
<g id="a_node5"><a xlink:href="../../db/d10/classcellsociety__team01_1_1modelview_1_1_g_u_i.html#afa183319cc9816a6147cba0869ef82eb" target="_top" xlink:title="cellsociety_team01.modelview.\lGUI.loadXML">
<polygon fill="white" stroke="black" points="800,-90 800,-120 964,-120 964,-90 800,-90"/>
<text text-anchor="start" x="808" y="-108" font-family="Helvetica,sans-Serif" font-size="10.00">cellsociety_team01.modelview.</text>
<text text-anchor="middle" x="882" y="-97" font-family="Helvetica,sans-Serif" font-size="10.00">GUI.loadXML</text>
</a>
</g>
</g>
<!-- Node4&#45;&gt;Node5 -->
<g id="edge4" class="edge"><title>Node4&#45;&gt;Node5</title>
<path fill="none" stroke="midnightblue" d="M774.363,-105.539C782.817,-105.496 791.346,-105.453 799.7,-105.411"/>
<polygon fill="midnightblue" stroke="midnightblue" points="774.088,-102.04 764.105,-105.59 774.123,-109.04 774.088,-102.04"/>
</g>
<!-- Node6 -->
<g id="node6" class="node"><title>Node6</title>
<g id="a_node6"><a xlink:href="../../db/d10/classcellsociety__team01_1_1modelview_1_1_g_u_i.html#a4072ce794f518e806e7a912892f1e9da" target="_top" xlink:title="cellsociety_team01.modelview.\lGUI.makeMenuBar">
<polygon fill="white" stroke="black" points="1000,-89 1000,-119 1164,-119 1164,-89 1000,-89"/>
<text text-anchor="start" x="1008" y="-107" font-family="Helvetica,sans-Serif" font-size="10.00">cellsociety_team01.modelview.</text>
<text text-anchor="middle" x="1082" y="-96" font-family="Helvetica,sans-Serif" font-size="10.00">GUI.makeMenuBar</text>
</a>
</g>
</g>
<!-- Node5&#45;&gt;Node6 -->
<g id="edge5" class="edge"><title>Node5&#45;&gt;Node6</title>
<path fill="none" stroke="midnightblue" d="M974.363,-104.539C982.817,-104.496 991.346,-104.453 999.7,-104.411"/>
<polygon fill="midnightblue" stroke="midnightblue" points="974.088,-101.04 964.105,-104.59 974.123,-108.04 974.088,-101.04"/>
</g>
<!-- Node7 -->
<g id="node7" class="node"><title>Node7</title>
<g id="a_node7"><a xlink:href="../../db/d10/classcellsociety__team01_1_1modelview_1_1_g_u_i.html#a07bcff60812627c8dfe97f1aadc671e5" target="_top" xlink:title="cellsociety_team01.modelview.\lGUI.GUI">
<polygon fill="white" stroke="black" points="1200,-66 1200,-96 1364,-96 1364,-66 1200,-66"/>
<text text-anchor="start" x="1208" y="-84" font-family="Helvetica,sans-Serif" font-size="10.00">cellsociety_team01.modelview.</text>
<text text-anchor="middle" x="1282" y="-73" font-family="Helvetica,sans-Serif" font-size="10.00">GUI.GUI</text>
</a>
</g>
</g>
<!-- Node6&#45;&gt;Node7 -->
<g id="edge6" class="edge"><title>Node6&#45;&gt;Node7</title>
<path fill="none" stroke="midnightblue" d="M1174.08,-93.4194C1182.63,-92.4269 1191.25,-91.4251 1199.7,-90.4439"/>
<polygon fill="midnightblue" stroke="midnightblue" points="1173.63,-89.9481 1164.11,-94.5787 1174.44,-96.9013 1173.63,-89.9481"/>
</g>
<!-- Node9 -->
<g id="node9" class="node"><title>Node9</title>
<g id="a_node9"><a xlink:href="../../db/d10/classcellsociety__team01_1_1modelview_1_1_g_u_i.html#aa924c28ce131195d3f377b18177f6cb9" target="_top" xlink:title="cellsociety_team01.modelview.\lGUI.makeButtonsAndSlider">
<polygon fill="white" stroke="black" points="600,-42 600,-72 764,-72 764,-42 600,-42"/>
<text text-anchor="start" x="608" y="-60" font-family="Helvetica,sans-Serif" font-size="10.00">cellsociety_team01.modelview.</text>
<text text-anchor="middle" x="682" y="-49" font-family="Helvetica,sans-Serif" font-size="10.00">GUI.makeButtonsAndSlider</text>
</a>
</g>
</g>
<!-- Node8&#45;&gt;Node9 -->
<g id="edge8" class="edge"><title>Node8&#45;&gt;Node9</title>
<path fill="none" stroke="midnightblue" d="M574.363,-57C582.817,-57 591.346,-57 599.7,-57"/>
<polygon fill="midnightblue" stroke="midnightblue" points="574.106,-53.5001 564.105,-57 574.105,-60.5001 574.106,-53.5001"/>
</g>
<!-- Node9&#45;&gt;Node7 -->
<g id="edge9" class="edge"><title>Node9&#45;&gt;Node7</title>
<path fill="none" stroke="midnightblue" d="M774.554,-60.6744C890.65,-65.3338 1089.02,-73.2953 1199.91,-77.7454"/>
<polygon fill="midnightblue" stroke="midnightblue" points="774.404,-57.1656 764.271,-60.2617 774.123,-64.16 774.404,-57.1656"/>
</g>
</g>
</svg>
