<?xml version="1.0" encoding="UTF-8" standalone="no"?>
<!DOCTYPE svg PUBLIC "-//W3C//DTD SVG 1.1//EN"
 "http://www.w3.org/Graphics/SVG/1.1/DTD/svg11.dtd">
<!-- Generated by graphviz version 2.36.0 (20140111.2315)
 -->
<!-- Title: cellsociety_team01.modelview.GUI.cellClicked Pages: 1 -->
<svg width="978pt" height="199pt"
 viewBox="0.00 0.00 978.00 199.00" xmlns="http://www.w3.org/2000/svg" xmlns:xlink="http://www.w3.org/1999/xlink">
<g id="graph0" class="graph" transform="scale(1 1) rotate(0) translate(4 195)">
<title>cellsociety_team01.modelview.GUI.cellClicked</title>
<polygon fill="white" stroke="none" points="-4,4 -4,-195 974,-195 974,4 -4,4"/>
<!-- Node1 -->
<g id="node1" class="node"><title>Node1</title>
<polygon fill="#bfbfbf" stroke="black" points="0,-95 0,-125 164,-125 164,-95 0,-95"/>
<text text-anchor="start" x="8" y="-113" font-family="Helvetica,sans-Serif" font-size="10.00">cellsociety_team01.modelview.</text>
<text text-anchor="middle" x="82" y="-102" font-family="Helvetica,sans-Serif" font-size="10.00">GUI.cellClicked</text>
</g>
<!-- Node2 -->
<g id="node2" class="node"><title>Node2</title>
<g id="a_node2"><a xlink:href="../../d2/d8b/classcellsociety__team01_1_1modelview_1_1_grid.html#ab24d28beea073446f08df1aa6f3223ef" target="_top" xlink:title="cellsociety_team01.modelview.\lGrid.cycleCellState">
<polygon fill="white" stroke="black" points="200,-95 200,-125 364,-125 364,-95 200,-95"/>
<text text-anchor="start" x="208" y="-113" font-family="Helvetica,sans-Serif" font-size="10.00">cellsociety_team01.modelview.</text>
<text text-anchor="middle" x="282" y="-102" font-family="Helvetica,sans-Serif" font-size="10.00">Grid.cycleCellState</text>
</a>
</g>
</g>
<!-- Node1&#45;&gt;Node2 -->
<g id="edge1" class="edge"><title>Node1&#45;&gt;Node2</title>
<path fill="none" stroke="midnightblue" d="M164.105,-110C172.457,-110 180.985,-110 189.44,-110"/>
<polygon fill="midnightblue" stroke="midnightblue" points="189.7,-113.5 199.7,-110 189.7,-106.5 189.7,-113.5"/>
</g>
<!-- Node3 -->
<g id="node3" class="node"><title>Node3</title>
<g id="a_node3"><a xlink:href="../../da/df7/classcellsociety__team01_1_1simulations_1_1_simulation.html#a2e00706ce2fb9ba272c2b114a89683eb" target="_top" xlink:title="cellsociety_team01.simulations.\lSimulation.cycleNextState">
<polygon fill="white" stroke="black" points="400,-120 400,-150 570,-150 570,-120 400,-120"/>
<text text-anchor="start" x="408" y="-138" font-family="Helvetica,sans-Serif" font-size="10.00">cellsociety_team01.simulations.</text>
<text text-anchor="middle" x="485" y="-127" font-family="Helvetica,sans-Serif" font-size="10.00">Simulation.cycleNextState</text>
</a>
</g>
</g>
<!-- Node2&#45;&gt;Node3 -->
<g id="edge2" class="edge"><title>Node2&#45;&gt;Node3</title>
<path fill="none" stroke="midnightblue" d="M364.175,-120.096C372.633,-121.148 381.28,-122.224 389.865,-123.292"/>
<polygon fill="midnightblue" stroke="midnightblue" points="389.544,-126.779 399.9,-124.54 390.408,-119.832 389.544,-126.779"/>
</g>
<!-- Node4 -->
<g id="node4" class="node"><title>Node4</title>
<g id="a_node4"><a xlink:href="../../db/d10/classcellsociety__team01_1_1modelview_1_1_g_u_i.html#a2499cd8253adf059aadbe405c01ddde7" target="_top" xlink:title="cellsociety_team01.modelview.\lGUI.update">
<polygon fill="white" stroke="black" points="403,-71 403,-101 567,-101 567,-71 403,-71"/>
<text text-anchor="start" x="411" y="-89" font-family="Helvetica,sans-Serif" font-size="10.00">cellsociety_team01.modelview.</text>
<text text-anchor="middle" x="485" y="-78" font-family="Helvetica,sans-Serif" font-size="10.00">GUI.update</text>
</a>
</g>
</g>
<!-- Node2&#45;&gt;Node4 -->
<g id="edge3" class="edge"><title>Node2&#45;&gt;Node4</title>
<path fill="none" stroke="midnightblue" d="M364.175,-100.307C373.636,-99.1778 383.335,-98.0197 392.918,-96.8754"/>
<polygon fill="midnightblue" stroke="midnightblue" points="393.334,-100.351 402.849,-95.6897 392.504,-93.4001 393.334,-100.351"/>
</g>
<!-- Node5 -->
<g id="node5" class="node"><title>Node5</title>
<g id="a_node5"><a xlink:href="../../d2/d8b/classcellsociety__team01_1_1modelview_1_1_grid.html#a64c59347e0e67e52f4902d9ef55a1bdb" target="_top" xlink:title="cellsociety_team01.modelview.\lGrid.isSimRunning">
<polygon fill="white" stroke="black" points="806,-31 806,-61 970,-61 970,-31 806,-31"/>
<text text-anchor="start" x="814" y="-49" font-family="Helvetica,sans-Serif" font-size="10.00">cellsociety_team01.modelview.</text>
<text text-anchor="middle" x="888" y="-38" font-family="Helvetica,sans-Serif" font-size="10.00">Grid.isSimRunning</text>
</a>
</g>
</g>
<!-- Node4&#45;&gt;Node5 -->
<g id="edge4" class="edge"><title>Node4&#45;&gt;Node5</title>
<path fill="none" stroke="midnightblue" d="M567.121,-94.2145C624.273,-98.1467 702.357,-99.7732 770,-88 795.744,-83.5192 823.31,-73.8813 845.214,-64.9671"/>
<polygon fill="midnightblue" stroke="midnightblue" points="846.66,-68.1562 854.542,-61.0763 843.965,-61.6957 846.66,-68.1562"/>
</g>
<!-- Node6 -->
<g id="node6" class="node"><title>Node6</title>
<g id="a_node6"><a xlink:href="../../db/d10/classcellsociety__team01_1_1modelview_1_1_g_u_i.html#a9e9097427a1074d21da7f938399a6be7" target="_top" xlink:title="cellsociety_team01.modelview.\lGUI.setGridCellStates">
<polygon fill="white" stroke="black" points="606,-137 606,-167 770,-167 770,-137 606,-137"/>
<text text-anchor="start" x="614" y="-155" font-family="Helvetica,sans-Serif" font-size="10.00">cellsociety_team01.modelview.</text>
<text text-anchor="middle" x="688" y="-144" font-family="Helvetica,sans-Serif" font-size="10.00">GUI.setGridCellStates</text>
</a>
</g>
</g>
<!-- Node4&#45;&gt;Node6 -->
<g id="edge5" class="edge"><title>Node4&#45;&gt;Node6</title>
<path fill="none" stroke="midnightblue" d="M540.833,-101.099C550.582,-103.944 560.616,-106.979 570,-110 592.346,-117.194 616.825,-125.857 637.59,-133.442"/>
<polygon fill="midnightblue" stroke="midnightblue" points="636.56,-136.793 647.154,-136.955 638.974,-130.222 636.56,-136.793"/>
</g>
<!-- Node9 -->
<g id="node9" class="node"><title>Node9</title>
<g id="a_node9"><a xlink:href="../../d2/d8b/classcellsociety__team01_1_1modelview_1_1_grid.html#ac461e9ca102207e02d6478f5542ba650" target="_top" xlink:title="cellsociety_team01.modelview.\lGrid.changeUpdateRate">
<polygon fill="white" stroke="black" points="606,-49 606,-79 770,-79 770,-49 606,-49"/>
<text text-anchor="start" x="614" y="-67" font-family="Helvetica,sans-Serif" font-size="10.00">cellsociety_team01.modelview.</text>
<text text-anchor="middle" x="688" y="-56" font-family="Helvetica,sans-Serif" font-size="10.00">Grid.changeUpdateRate</text>
</a>
</g>
</g>
<!-- Node4&#45;&gt;Node9 -->
<g id="edge8" class="edge"><title>Node4&#45;&gt;Node9</title>
<path fill="none" stroke="midnightblue" d="M567.175,-77.1152C576.537,-76.0905 586.131,-75.0404 595.616,-74.0023"/>
<polygon fill="midnightblue" stroke="midnightblue" points="596.289,-77.4496 605.849,-72.8822 595.527,-70.4911 596.289,-77.4496"/>
</g>
<!-- Node10 -->
<g id="node10" class="node"><title>Node10</title>
<g id="a_node10"><a xlink:href="../../db/d10/classcellsociety__team01_1_1modelview_1_1_g_u_i.html#a2f37acaf37d6fecd19d7ede68dc96561" target="_top" xlink:title="cellsociety_team01.modelview.\lGUI.enableButtons">
<polygon fill="white" stroke="black" points="606,-0 606,-30 770,-30 770,-0 606,-0"/>
<text text-anchor="start" x="614" y="-18" font-family="Helvetica,sans-Serif" font-size="10.00">cellsociety_team01.modelview.</text>
<text text-anchor="middle" x="688" y="-7" font-family="Helvetica,sans-Serif" font-size="10.00">GUI.enableButtons</text>
</a>
</g>
</g>
<!-- Node4&#45;&gt;Node10 -->
<g id="edge9" class="edge"><title>Node4&#45;&gt;Node10</title>
<path fill="none" stroke="midnightblue" d="M521.936,-70.9987C545.623,-61.3412 577.431,-48.8072 606,-39 611.826,-36.9999 617.921,-35.0101 624.039,-33.0811"/>
<polygon fill="midnightblue" stroke="midnightblue" points="625.122,-36.4098 633.638,-30.1069 623.05,-29.7235 625.122,-36.4098"/>
</g>
<!-- Node7 -->
<g id="node7" class="node"><title>Node7</title>
<g id="a_node7"><a xlink:href="../../d3/d6b/interfacecellsociety__team01_1_1modelview_1_1_grid_view.html#a0e41d85ba1146b4ed70b39a2389faaa3" target="_top" xlink:title="cellsociety_team01.modelview.\lGridView.setGridCellStates">
<polygon fill="white" stroke="black" points="806,-112 806,-142 970,-142 970,-112 806,-112"/>
<text text-anchor="start" x="814" y="-130" font-family="Helvetica,sans-Serif" font-size="10.00">cellsociety_team01.modelview.</text>
<text text-anchor="middle" x="888" y="-119" font-family="Helvetica,sans-Serif" font-size="10.00">GridView.setGridCellStates</text>
</a>
</g>
</g>
<!-- Node6&#45;&gt;Node7 -->
<g id="edge6" class="edge"><title>Node6&#45;&gt;Node7</title>
<path fill="none" stroke="midnightblue" d="M770.105,-141.759C778.549,-140.693 787.172,-139.604 795.719,-138.525"/>
<polygon fill="midnightblue" stroke="midnightblue" points="796.217,-141.99 805.7,-137.265 795.341,-135.045 796.217,-141.99"/>
</g>
<!-- Node8 -->
<g id="node8" class="node"><title>Node8</title>
<g id="a_node8"><a xlink:href="../../d2/d8b/classcellsociety__team01_1_1modelview_1_1_grid.html#ad277c8aa0861d7d5cb6d339971017785" target="_top" xlink:title="cellsociety_team01.modelview.\lGrid.getCells">
<polygon fill="white" stroke="black" points="806,-161 806,-191 970,-191 970,-161 806,-161"/>
<text text-anchor="start" x="814" y="-179" font-family="Helvetica,sans-Serif" font-size="10.00">cellsociety_team01.modelview.</text>
<text text-anchor="middle" x="888" y="-168" font-family="Helvetica,sans-Serif" font-size="10.00">Grid.getCells</text>
</a>
</g>
</g>
<!-- Node6&#45;&gt;Node8 -->
<g id="edge7" class="edge"><title>Node6&#45;&gt;Node8</title>
<path fill="none" stroke="midnightblue" d="M770.105,-161.831C778.549,-162.854 787.172,-163.9 795.719,-164.936"/>
<polygon fill="midnightblue" stroke="midnightblue" points="795.352,-168.417 805.7,-166.145 796.194,-161.468 795.352,-168.417"/>
</g>
<!-- Node10&#45;&gt;Node5 -->
<g id="edge10" class="edge"><title>Node10&#45;&gt;Node5</title>
<path fill="none" stroke="midnightblue" d="M770.105,-27.6983C778.549,-29.0203 787.172,-30.3704 795.719,-31.7085"/>
<polygon fill="midnightblue" stroke="midnightblue" points="795.279,-35.1822 805.7,-33.2713 796.362,-28.2665 795.279,-35.1822"/>
</g>
</g>
</svg>
