<?xml version="1.0" encoding="UTF-8" standalone="no"?>
<!DOCTYPE svg PUBLIC "-//W3C//DTD SVG 1.1//EN"
 "http://www.w3.org/Graphics/SVG/1.1/DTD/svg11.dtd">
<!-- Generated by graphviz version 2.36.0 (20140111.2315)
 -->
<!-- Title: cellsociety_team01.modelview.GUI.makeGrid Pages: 1 -->
<svg width="1178pt" height="252pt"
 viewBox="0.00 0.00 1178.00 252.00" xmlns="http://www.w3.org/2000/svg" xmlns:xlink="http://www.w3.org/1999/xlink">
<g id="graph0" class="graph" transform="scale(1 1) rotate(0) translate(4 248)">
<title>cellsociety_team01.modelview.GUI.makeGrid</title>
<polygon fill="white" stroke="none" points="-4,4 -4,-248 1174,-248 1174,4 -4,4"/>
<!-- Node1 -->
<g id="node1" class="node"><title>Node1</title>
<polygon fill="#bfbfbf" stroke="black" points="0,-74 0,-104 164,-104 164,-74 0,-74"/>
<text text-anchor="start" x="8" y="-92" font-family="Helvetica,sans-Serif" font-size="10.00">cellsociety_team01.modelview.</text>
<text text-anchor="middle" x="82" y="-81" font-family="Helvetica,sans-Serif" font-size="10.00">GUI.makeGrid</text>
</g>
<!-- Node2 -->
<g id="node2" class="node"><title>Node2</title>
<g id="a_node2"><a xlink:href="../../db/d10/classcellsociety__team01_1_1modelview_1_1_g_u_i.html#a6c2a76c08a6f6e837ba5709ef57499b3" target="_top" xlink:title="cellsociety_team01.modelview.\lGUI.cellClicked">
<polygon fill="white" stroke="black" points="200,-148 200,-178 364,-178 364,-148 200,-148"/>
<text text-anchor="start" x="208" y="-166" font-family="Helvetica,sans-Serif" font-size="10.00">cellsociety_team01.modelview.</text>
<text text-anchor="middle" x="282" y="-155" font-family="Helvetica,sans-Serif" font-size="10.00">GUI.cellClicked</text>
</a>
</g>
</g>
<!-- Node1&#45;&gt;Node2 -->
<g id="edge1" class="edge"><title>Node1&#45;&gt;Node2</title>
<path fill="none" stroke="midnightblue" d="M116.449,-104.029C139.664,-114.207 171.431,-127.637 200,-138 206.321,-140.293 212.965,-142.564 219.617,-144.747"/>
<polygon fill="midnightblue" stroke="midnightblue" points="218.739,-148.141 229.33,-147.876 220.885,-141.478 218.739,-148.141"/>
</g>
<!-- Node12 -->
<g id="node12" class="node"><title>Node12</title>
<g id="a_node12"><a xlink:href="../../d2/d8b/classcellsociety__team01_1_1modelview_1_1_grid.html#a1ace325cc5f9ad17c502237dbfe7267a" target="_top" xlink:title="cellsociety_team01.modelview.\lGrid.getShape">
<polygon fill="white" stroke="black" points="200,-99 200,-129 364,-129 364,-99 200,-99"/>
<text text-anchor="start" x="208" y="-117" font-family="Helvetica,sans-Serif" font-size="10.00">cellsociety_team01.modelview.</text>
<text text-anchor="middle" x="282" y="-106" font-family="Helvetica,sans-Serif" font-size="10.00">Grid.getShape</text>
</a>
</g>
</g>
<!-- Node1&#45;&gt;Node12 -->
<g id="edge12" class="edge"><title>Node1&#45;&gt;Node12</title>
<path fill="none" stroke="midnightblue" d="M164.105,-99.2406C172.549,-100.307 181.172,-101.396 189.719,-102.475"/>
<polygon fill="midnightblue" stroke="midnightblue" points="189.341,-105.955 199.7,-103.735 190.217,-99.0097 189.341,-105.955"/>
</g>
<!-- Node13 -->
<g id="node13" class="node"><title>Node13</title>
<g id="a_node13"><a xlink:href="../../d2/d8b/classcellsociety__team01_1_1modelview_1_1_grid.html#a445cbbdca1428e165d871ba34ba989e1" target="_top" xlink:title="cellsociety_team01.modelview.\lGrid.isGridOutlined">
<polygon fill="white" stroke="black" points="200,-50 200,-80 364,-80 364,-50 200,-50"/>
<text text-anchor="start" x="208" y="-68" font-family="Helvetica,sans-Serif" font-size="10.00">cellsociety_team01.modelview.</text>
<text text-anchor="middle" x="282" y="-57" font-family="Helvetica,sans-Serif" font-size="10.00">Grid.isGridOutlined</text>
</a>
</g>
</g>
<!-- Node1&#45;&gt;Node13 -->
<g id="edge13" class="edge"><title>Node1&#45;&gt;Node13</title>
<path fill="none" stroke="midnightblue" d="M164.105,-79.169C172.549,-78.1456 181.172,-77.1003 189.719,-76.0644"/>
<polygon fill="midnightblue" stroke="midnightblue" points="190.194,-79.5325 199.7,-74.8545 189.352,-72.5833 190.194,-79.5325"/>
</g>
<!-- Node14 -->
<g id="node14" class="node"><title>Node14</title>
<g id="a_node14"><a xlink:href="../../d3/d6b/interfacecellsociety__team01_1_1modelview_1_1_grid_view.html#a46d179c58cdc0d9192f2798f511aebfc" target="_top" xlink:title="cellsociety_team01.modelview.\lGridView.makeGrid">
<polygon fill="white" stroke="black" points="200,-1 200,-31 364,-31 364,-1 200,-1"/>
<text text-anchor="start" x="208" y="-19" font-family="Helvetica,sans-Serif" font-size="10.00">cellsociety_team01.modelview.</text>
<text text-anchor="middle" x="282" y="-8" font-family="Helvetica,sans-Serif" font-size="10.00">GridView.makeGrid</text>
</a>
</g>
</g>
<!-- Node1&#45;&gt;Node14 -->
<g id="edge14" class="edge"><title>Node1&#45;&gt;Node14</title>
<path fill="none" stroke="midnightblue" d="M117.495,-73.8915C140.63,-63.9967 171.893,-51.0799 200,-41 206.422,-38.6968 213.175,-36.4079 219.927,-34.2037"/>
<polygon fill="midnightblue" stroke="midnightblue" points="221.329,-37.4299 229.782,-31.0431 219.191,-30.7643 221.329,-37.4299"/>
</g>
<!-- Node3 -->
<g id="node3" class="node"><title>Node3</title>
<g id="a_node3"><a xlink:href="../../d2/d8b/classcellsociety__team01_1_1modelview_1_1_grid.html#ab24d28beea073446f08df1aa6f3223ef" target="_top" xlink:title="cellsociety_team01.modelview.\lGrid.cycleCellState">
<polygon fill="white" stroke="black" points="400,-148 400,-178 564,-178 564,-148 400,-148"/>
<text text-anchor="start" x="408" y="-166" font-family="Helvetica,sans-Serif" font-size="10.00">cellsociety_team01.modelview.</text>
<text text-anchor="middle" x="482" y="-155" font-family="Helvetica,sans-Serif" font-size="10.00">Grid.cycleCellState</text>
</a>
</g>
</g>
<!-- Node2&#45;&gt;Node3 -->
<g id="edge2" class="edge"><title>Node2&#45;&gt;Node3</title>
<path fill="none" stroke="midnightblue" d="M364.105,-163C372.457,-163 380.985,-163 389.44,-163"/>
<polygon fill="midnightblue" stroke="midnightblue" points="389.7,-166.5 399.7,-163 389.7,-159.5 389.7,-166.5"/>
</g>
<!-- Node4 -->
<g id="node4" class="node"><title>Node4</title>
<g id="a_node4"><a xlink:href="../../da/df7/classcellsociety__team01_1_1simulations_1_1_simulation.html#a2e00706ce2fb9ba272c2b114a89683eb" target="_top" xlink:title="cellsociety_team01.simulations.\lSimulation.cycleNextState">
<polygon fill="white" stroke="black" points="600,-173 600,-203 770,-203 770,-173 600,-173"/>
<text text-anchor="start" x="608" y="-191" font-family="Helvetica,sans-Serif" font-size="10.00">cellsociety_team01.simulations.</text>
<text text-anchor="middle" x="685" y="-180" font-family="Helvetica,sans-Serif" font-size="10.00">Simulation.cycleNextState</text>
</a>
</g>
</g>
<!-- Node3&#45;&gt;Node4 -->
<g id="edge3" class="edge"><title>Node3&#45;&gt;Node4</title>
<path fill="none" stroke="midnightblue" d="M564.175,-173.096C572.633,-174.148 581.28,-175.224 589.865,-176.292"/>
<polygon fill="midnightblue" stroke="midnightblue" points="589.544,-179.779 599.9,-177.54 590.408,-172.832 589.544,-179.779"/>
</g>
<!-- Node5 -->
<g id="node5" class="node"><title>Node5</title>
<g id="a_node5"><a xlink:href="../../db/d10/classcellsociety__team01_1_1modelview_1_1_g_u_i.html#a2499cd8253adf059aadbe405c01ddde7" target="_top" xlink:title="cellsociety_team01.modelview.\lGUI.update">
<polygon fill="white" stroke="black" points="603,-124 603,-154 767,-154 767,-124 603,-124"/>
<text text-anchor="start" x="611" y="-142" font-family="Helvetica,sans-Serif" font-size="10.00">cellsociety_team01.modelview.</text>
<text text-anchor="middle" x="685" y="-131" font-family="Helvetica,sans-Serif" font-size="10.00">GUI.update</text>
</a>
</g>
</g>
<!-- Node3&#45;&gt;Node5 -->
<g id="edge4" class="edge"><title>Node3&#45;&gt;Node5</title>
<path fill="none" stroke="midnightblue" d="M564.175,-153.307C573.636,-152.178 583.335,-151.02 592.918,-149.875"/>
<polygon fill="midnightblue" stroke="midnightblue" points="593.334,-153.351 602.849,-148.69 592.504,-146.4 593.334,-153.351"/>
</g>
<!-- Node6 -->
<g id="node6" class="node"><title>Node6</title>
<g id="a_node6"><a xlink:href="../../d2/d8b/classcellsociety__team01_1_1modelview_1_1_grid.html#a64c59347e0e67e52f4902d9ef55a1bdb" target="_top" xlink:title="cellsociety_team01.modelview.\lGrid.isSimRunning">
<polygon fill="white" stroke="black" points="1006,-84 1006,-114 1170,-114 1170,-84 1006,-84"/>
<text text-anchor="start" x="1014" y="-102" font-family="Helvetica,sans-Serif" font-size="10.00">cellsociety_team01.modelview.</text>
<text text-anchor="middle" x="1088" y="-91" font-family="Helvetica,sans-Serif" font-size="10.00">Grid.isSimRunning</text>
</a>
</g>
</g>
<!-- Node5&#45;&gt;Node6 -->
<g id="edge5" class="edge"><title>Node5&#45;&gt;Node6</title>
<path fill="none" stroke="midnightblue" d="M767.121,-147.214C824.273,-151.147 902.357,-152.773 970,-141 995.744,-136.519 1023.31,-126.881 1045.21,-117.967"/>
<polygon fill="midnightblue" stroke="midnightblue" points="1046.66,-121.156 1054.54,-114.076 1043.97,-114.696 1046.66,-121.156"/>
</g>
<!-- Node7 -->
<g id="node7" class="node"><title>Node7</title>
<g id="a_node7"><a xlink:href="../../db/d10/classcellsociety__team01_1_1modelview_1_1_g_u_i.html#a9e9097427a1074d21da7f938399a6be7" target="_top" xlink:title="cellsociety_team01.modelview.\lGUI.setGridCellStates">
<polygon fill="white" stroke="black" points="806,-190 806,-220 970,-220 970,-190 806,-190"/>
<text text-anchor="start" x="814" y="-208" font-family="Helvetica,sans-Serif" font-size="10.00">cellsociety_team01.modelview.</text>
<text text-anchor="middle" x="888" y="-197" font-family="Helvetica,sans-Serif" font-size="10.00">GUI.setGridCellStates</text>
</a>
</g>
</g>
<!-- Node5&#45;&gt;Node7 -->
<g id="edge6" class="edge"><title>Node5&#45;&gt;Node7</title>
<path fill="none" stroke="midnightblue" d="M738.098,-154.084C748.684,-157.267 759.722,-160.672 770,-164 791.743,-171.041 815.578,-179.295 836.028,-186.544"/>
<polygon fill="midnightblue" stroke="midnightblue" points="834.874,-189.848 845.468,-189.904 837.221,-183.253 834.874,-189.848"/>
</g>
<!-- Node10 -->
<g id="node10" class="node"><title>Node10</title>
<g id="a_node10"><a xlink:href="../../d2/d8b/classcellsociety__team01_1_1modelview_1_1_grid.html#ac461e9ca102207e02d6478f5542ba650" target="_top" xlink:title="cellsociety_team01.modelview.\lGrid.changeUpdateRate">
<polygon fill="white" stroke="black" points="806,-102 806,-132 970,-132 970,-102 806,-102"/>
<text text-anchor="start" x="814" y="-120" font-family="Helvetica,sans-Serif" font-size="10.00">cellsociety_team01.modelview.</text>
<text text-anchor="middle" x="888" y="-109" font-family="Helvetica,sans-Serif" font-size="10.00">Grid.changeUpdateRate</text>
</a>
</g>
</g>
<!-- Node5&#45;&gt;Node10 -->
<g id="edge9" class="edge"><title>Node5&#45;&gt;Node10</title>
<path fill="none" stroke="midnightblue" d="M767.175,-130.115C776.537,-129.091 786.131,-128.04 795.616,-127.002"/>
<polygon fill="midnightblue" stroke="midnightblue" points="796.289,-130.45 805.849,-125.882 795.527,-123.491 796.289,-130.45"/>
</g>
<!-- Node11 -->
<g id="node11" class="node"><title>Node11</title>
<g id="a_node11"><a xlink:href="../../db/d10/classcellsociety__team01_1_1modelview_1_1_g_u_i.html#a2f37acaf37d6fecd19d7ede68dc96561" target="_top" xlink:title="cellsociety_team01.modelview.\lGUI.enableButtons">
<polygon fill="white" stroke="black" points="806,-53 806,-83 970,-83 970,-53 806,-53"/>
<text text-anchor="start" x="814" y="-71" font-family="Helvetica,sans-Serif" font-size="10.00">cellsociety_team01.modelview.</text>
<text text-anchor="middle" x="888" y="-60" font-family="Helvetica,sans-Serif" font-size="10.00">GUI.enableButtons</text>
</a>
</g>
</g>
<!-- Node5&#45;&gt;Node11 -->
<g id="edge10" class="edge"><title>Node5&#45;&gt;Node11</title>
<path fill="none" stroke="midnightblue" d="M723.329,-123.954C746.894,-114.639 778.058,-102.655 806,-93 812.542,-90.7394 819.414,-88.4655 826.274,-86.2597"/>
<polygon fill="midnightblue" stroke="midnightblue" points="827.804,-89.4465 836.277,-83.086 825.687,-82.7743 827.804,-89.4465"/>
</g>
<!-- Node8 -->
<g id="node8" class="node"><title>Node8</title>
<g id="a_node8"><a xlink:href="../../d3/d6b/interfacecellsociety__team01_1_1modelview_1_1_grid_view.html#a0e41d85ba1146b4ed70b39a2389faaa3" target="_top" xlink:title="cellsociety_team01.modelview.\lGridView.setGridCellStates">
<polygon fill="white" stroke="black" points="1006,-165 1006,-195 1170,-195 1170,-165 1006,-165"/>
<text text-anchor="start" x="1014" y="-183" font-family="Helvetica,sans-Serif" font-size="10.00">cellsociety_team01.modelview.</text>
<text text-anchor="middle" x="1088" y="-172" font-family="Helvetica,sans-Serif" font-size="10.00">GridView.setGridCellStates</text>
</a>
</g>
</g>
<!-- Node7&#45;&gt;Node8 -->
<g id="edge7" class="edge"><title>Node7&#45;&gt;Node8</title>
<path fill="none" stroke="midnightblue" d="M970.105,-194.759C978.549,-193.693 987.172,-192.604 995.719,-191.525"/>
<polygon fill="midnightblue" stroke="midnightblue" points="996.217,-194.99 1005.7,-190.265 995.341,-188.045 996.217,-194.99"/>
</g>
<!-- Node9 -->
<g id="node9" class="node"><title>Node9</title>
<g id="a_node9"><a xlink:href="../../d2/d8b/classcellsociety__team01_1_1modelview_1_1_grid.html#ad277c8aa0861d7d5cb6d339971017785" target="_top" xlink:title="cellsociety_team01.modelview.\lGrid.getCells">
<polygon fill="white" stroke="black" points="1006,-214 1006,-244 1170,-244 1170,-214 1006,-214"/>
<text text-anchor="start" x="1014" y="-232" font-family="Helvetica,sans-Serif" font-size="10.00">cellsociety_team01.modelview.</text>
<text text-anchor="middle" x="1088" y="-221" font-family="Helvetica,sans-Serif" font-size="10.00">Grid.getCells</text>
</a>
</g>
</g>
<!-- Node7&#45;&gt;Node9 -->
<g id="edge8" class="edge"><title>Node7&#45;&gt;Node9</title>
<path fill="none" stroke="midnightblue" d="M970.105,-214.831C978.549,-215.854 987.172,-216.9 995.719,-217.936"/>
<polygon fill="midnightblue" stroke="midnightblue" points="995.352,-221.417 1005.7,-219.145 996.194,-214.468 995.352,-221.417"/>
</g>
<!-- Node11&#45;&gt;Node6 -->
<g id="edge11" class="edge"><title>Node11&#45;&gt;Node6</title>
<path fill="none" stroke="midnightblue" d="M970.105,-80.6983C978.549,-82.0203 987.172,-83.3704 995.719,-84.7085"/>
<polygon fill="midnightblue" stroke="midnightblue" points="995.279,-88.1822 1005.7,-86.2713 996.362,-81.2665 995.279,-88.1822"/>
</g>
</g>
</svg>
