<?xml version="1.0" encoding="UTF-8" standalone="no"?>
<!DOCTYPE svg PUBLIC "-//W3C//DTD SVG 1.1//EN"
 "http://www.w3.org/Graphics/SVG/1.1/DTD/svg11.dtd">
<!-- Generated by graphviz version 2.36.0 (20140111.2315)
 -->
<!-- Title: cellsociety_team01.modelview.GUI.enableButtons Pages: 1 -->
<svg width="1572pt" height="154pt"
 viewBox="0.00 0.00 1572.00 154.00" xmlns="http://www.w3.org/2000/svg" xmlns:xlink="http://www.w3.org/1999/xlink">
<g id="graph0" class="graph" transform="scale(1 1) rotate(0) translate(4 150)">
<title>cellsociety_team01.modelview.GUI.enableButtons</title>
<polygon fill="white" stroke="none" points="-4,4 -4,-150 1568,-150 1568,4 -4,4"/>
<!-- Node1 -->
<g id="node1" class="node"><title>Node1</title>
<polygon fill="#bfbfbf" stroke="black" points="0,-109 0,-139 164,-139 164,-109 0,-109"/>
<text text-anchor="start" x="8" y="-127" font-family="Helvetica,sans-Serif" font-size="10.00">cellsociety_team01.modelview.</text>
<text text-anchor="middle" x="82" y="-116" font-family="Helvetica,sans-Serif" font-size="10.00">GUI.enableButtons</text>
</g>
<!-- Node2 -->
<g id="node2" class="node"><title>Node2</title>
<g id="a_node2"><a xlink:href="../../db/d10/classcellsociety__team01_1_1modelview_1_1_g_u_i.html#a07bcff60812627c8dfe97f1aadc671e5" target="_top" xlink:title="cellsociety_team01.modelview.\lGUI.GUI">
<polygon fill="white" stroke="black" points="1400,-87 1400,-117 1564,-117 1564,-87 1400,-87"/>
<text text-anchor="start" x="1408" y="-105" font-family="Helvetica,sans-Serif" font-size="10.00">cellsociety_team01.modelview.</text>
<text text-anchor="middle" x="1482" y="-94" font-family="Helvetica,sans-Serif" font-size="10.00">GUI.GUI</text>
</a>
</g>
</g>
<!-- Node1&#45;&gt;Node2 -->
<g id="edge1" class="edge"><title>Node1&#45;&gt;Node2</title>
<path fill="none" stroke="midnightblue" d="M174.227,-131.913C254.845,-138.22 375.647,-146 481,-146 481,-146 481,-146 1083,-146 1193.19,-146 1319.5,-129.133 1399.73,-116.286"/>
<polygon fill="midnightblue" stroke="midnightblue" points="174.353,-128.412 164.108,-131.112 173.801,-135.39 174.353,-128.412"/>
</g>
<!-- Node3 -->
<g id="node3" class="node"><title>Node3</title>
<g id="a_node3"><a xlink:href="../../db/d10/classcellsociety__team01_1_1modelview_1_1_g_u_i.html#a2499cd8253adf059aadbe405c01ddde7" target="_top" xlink:title="cellsociety_team01.modelview.\lGUI.update">
<polygon fill="white" stroke="black" points="200,-68 200,-98 364,-98 364,-68 200,-68"/>
<text text-anchor="start" x="208" y="-86" font-family="Helvetica,sans-Serif" font-size="10.00">cellsociety_team01.modelview.</text>
<text text-anchor="middle" x="282" y="-75" font-family="Helvetica,sans-Serif" font-size="10.00">GUI.update</text>
</a>
</g>
</g>
<!-- Node1&#45;&gt;Node3 -->
<g id="edge2" class="edge"><title>Node1&#45;&gt;Node3</title>
<path fill="none" stroke="midnightblue" d="M165.806,-106.853C179.952,-103.924 194.551,-100.901 208.405,-98.0323"/>
<polygon fill="midnightblue" stroke="midnightblue" points="164.686,-103.511 155.604,-108.966 166.106,-110.365 164.686,-103.511"/>
</g>
<!-- Node4 -->
<g id="node4" class="node"><title>Node4</title>
<g id="a_node4"><a xlink:href="../../d2/d8b/classcellsociety__team01_1_1modelview_1_1_grid.html#a800481f8ea02b9cdbe3ee0f1d9576d63" target="_top" xlink:title="cellsociety_team01.modelview.\lGrid.step">
<polygon fill="white" stroke="black" points="600,-87 600,-117 764,-117 764,-87 600,-87"/>
<text text-anchor="start" x="608" y="-105" font-family="Helvetica,sans-Serif" font-size="10.00">cellsociety_team01.modelview.</text>
<text text-anchor="middle" x="682" y="-94" font-family="Helvetica,sans-Serif" font-size="10.00">Grid.step</text>
</a>
</g>
</g>
<!-- Node3&#45;&gt;Node4 -->
<g id="edge3" class="edge"><title>Node3&#45;&gt;Node4</title>
<path fill="none" stroke="midnightblue" d="M374.296,-87.3583C442.29,-90.6043 534.294,-94.9964 599.751,-98.1213"/>
<polygon fill="midnightblue" stroke="midnightblue" points="374.177,-83.8488 364.021,-86.8678 373.843,-90.8408 374.177,-83.8488"/>
</g>
<!-- Node6 -->
<g id="node6" class="node"><title>Node6</title>
<g id="a_node6"><a xlink:href="../../d2/d8b/classcellsociety__team01_1_1modelview_1_1_grid.html#ab0d0ba2a3e615cedd11e8c56e6ab92ba" target="_top" xlink:title="cellsociety_team01.modelview.\lGrid.update">
<polygon fill="white" stroke="black" points="400,-49 400,-79 564,-79 564,-49 400,-49"/>
<text text-anchor="start" x="408" y="-67" font-family="Helvetica,sans-Serif" font-size="10.00">cellsociety_team01.modelview.</text>
<text text-anchor="middle" x="482" y="-56" font-family="Helvetica,sans-Serif" font-size="10.00">Grid.update</text>
</a>
</g>
</g>
<!-- Node3&#45;&gt;Node6 -->
<g id="edge6" class="edge"><title>Node3&#45;&gt;Node6</title>
<path fill="none" stroke="midnightblue" d="M374.085,-74.2595C382.63,-73.4396 391.254,-72.612 399.7,-71.8015"/>
<polygon fill="midnightblue" stroke="midnightblue" points="373.725,-70.7779 364.105,-75.2172 374.394,-77.7458 373.725,-70.7779"/>
</g>
<!-- Node7 -->
<g id="node7" class="node"><title>Node7</title>
<g id="a_node7"><a xlink:href="../../d2/d8b/classcellsociety__team01_1_1modelview_1_1_grid.html#ab24d28beea073446f08df1aa6f3223ef" target="_top" xlink:title="cellsociety_team01.modelview.\lGrid.cycleCellState">
<polygon fill="white" stroke="black" points="400,-0 400,-30 564,-30 564,-0 400,-0"/>
<text text-anchor="start" x="408" y="-18" font-family="Helvetica,sans-Serif" font-size="10.00">cellsociety_team01.modelview.</text>
<text text-anchor="middle" x="482" y="-7" font-family="Helvetica,sans-Serif" font-size="10.00">Grid.cycleCellState</text>
</a>
</g>
</g>
<!-- Node3&#45;&gt;Node7 -->
<g id="edge7" class="edge"><title>Node3&#45;&gt;Node7</title>
<path fill="none" stroke="midnightblue" d="M330.37,-64.3042C351.548,-56.1744 376.896,-46.756 400,-39 409.038,-35.966 418.708,-32.9255 428.107,-30.0773"/>
<polygon fill="midnightblue" stroke="midnightblue" points="329.024,-61.0718 320.956,-67.9383 331.545,-67.6021 329.024,-61.0718"/>
</g>
<!-- Node5 -->
<g id="node5" class="node"><title>Node5</title>
<g id="a_node5"><a xlink:href="../../db/d10/classcellsociety__team01_1_1modelview_1_1_g_u_i.html#aa924c28ce131195d3f377b18177f6cb9" target="_top" xlink:title="cellsociety_team01.modelview.\lGUI.makeButtonsAndSlider">
<polygon fill="white" stroke="black" points="800,-87 800,-117 964,-117 964,-87 800,-87"/>
<text text-anchor="start" x="808" y="-105" font-family="Helvetica,sans-Serif" font-size="10.00">cellsociety_team01.modelview.</text>
<text text-anchor="middle" x="882" y="-94" font-family="Helvetica,sans-Serif" font-size="10.00">GUI.makeButtonsAndSlider</text>
</a>
</g>
</g>
<!-- Node4&#45;&gt;Node5 -->
<g id="edge4" class="edge"><title>Node4&#45;&gt;Node5</title>
<path fill="none" stroke="midnightblue" d="M774.363,-102C782.817,-102 791.346,-102 799.7,-102"/>
<polygon fill="midnightblue" stroke="midnightblue" points="774.106,-98.5001 764.105,-102 774.105,-105.5 774.106,-98.5001"/>
</g>
<!-- Node5&#45;&gt;Node2 -->
<g id="edge5" class="edge"><title>Node5&#45;&gt;Node2</title>
<path fill="none" stroke="midnightblue" d="M974.554,-102C1090.65,-102 1289.02,-102 1399.91,-102"/>
<polygon fill="midnightblue" stroke="midnightblue" points="974.271,-98.5001 964.271,-102 974.271,-105.5 974.271,-98.5001"/>
</g>
<!-- Node8 -->
<g id="node8" class="node"><title>Node8</title>
<g id="a_node8"><a xlink:href="../../db/d10/classcellsociety__team01_1_1modelview_1_1_g_u_i.html#a6c2a76c08a6f6e837ba5709ef57499b3" target="_top" xlink:title="cellsociety_team01.modelview.\lGUI.cellClicked">
<polygon fill="white" stroke="black" points="600,-9 600,-39 764,-39 764,-9 600,-9"/>
<text text-anchor="start" x="608" y="-27" font-family="Helvetica,sans-Serif" font-size="10.00">cellsociety_team01.modelview.</text>
<text text-anchor="middle" x="682" y="-16" font-family="Helvetica,sans-Serif" font-size="10.00">GUI.cellClicked</text>
</a>
</g>
</g>
<!-- Node7&#45;&gt;Node8 -->
<g id="edge8" class="edge"><title>Node7&#45;&gt;Node8</title>
<path fill="none" stroke="midnightblue" d="M574.363,-19.1529C582.817,-19.5371 591.346,-19.9248 599.7,-20.3046"/>
<polygon fill="midnightblue" stroke="midnightblue" points="574.254,-15.6444 564.105,-18.6866 573.936,-22.6372 574.254,-15.6444"/>
</g>
<!-- Node9 -->
<g id="node9" class="node"><title>Node9</title>
<g id="a_node9"><a xlink:href="../../db/d10/classcellsociety__team01_1_1modelview_1_1_g_u_i.html#af0760be4f824fab5c2a8b9b91d5823b2" target="_top" xlink:title="cellsociety_team01.modelview.\lGUI.makeGrid">
<polygon fill="white" stroke="black" points="800,-19 800,-49 964,-49 964,-19 800,-19"/>
<text text-anchor="start" x="808" y="-37" font-family="Helvetica,sans-Serif" font-size="10.00">cellsociety_team01.modelview.</text>
<text text-anchor="middle" x="882" y="-26" font-family="Helvetica,sans-Serif" font-size="10.00">GUI.makeGrid</text>
</a>
</g>
</g>
<!-- Node8&#45;&gt;Node9 -->
<g id="edge9" class="edge"><title>Node8&#45;&gt;Node9</title>
<path fill="none" stroke="midnightblue" d="M774.363,-28.6143C782.817,-29.0413 791.346,-29.472 799.7,-29.894"/>
<polygon fill="midnightblue" stroke="midnightblue" points="774.269,-25.1052 764.105,-28.0962 773.916,-32.0963 774.269,-25.1052"/>
</g>
<!-- Node10 -->
<g id="node10" class="node"><title>Node10</title>
<g id="a_node10"><a xlink:href="../../db/d10/classcellsociety__team01_1_1modelview_1_1_g_u_i.html#afa183319cc9816a6147cba0869ef82eb" target="_top" xlink:title="cellsociety_team01.modelview.\lGUI.loadXML">
<polygon fill="white" stroke="black" points="1000,-20 1000,-50 1164,-50 1164,-20 1000,-20"/>
<text text-anchor="start" x="1008" y="-38" font-family="Helvetica,sans-Serif" font-size="10.00">cellsociety_team01.modelview.</text>
<text text-anchor="middle" x="1082" y="-27" font-family="Helvetica,sans-Serif" font-size="10.00">GUI.loadXML</text>
</a>
</g>
</g>
<!-- Node9&#45;&gt;Node10 -->
<g id="edge10" class="edge"><title>Node9&#45;&gt;Node10</title>
<path fill="none" stroke="midnightblue" d="M974.363,-34.4614C982.817,-34.5041 991.346,-34.5472 999.7,-34.5894"/>
<polygon fill="midnightblue" stroke="midnightblue" points="974.123,-30.9603 964.105,-34.4096 974.088,-37.9602 974.123,-30.9603"/>
</g>
<!-- Node11 -->
<g id="node11" class="node"><title>Node11</title>
<g id="a_node11"><a xlink:href="../../db/d10/classcellsociety__team01_1_1modelview_1_1_g_u_i.html#a4072ce794f518e806e7a912892f1e9da" target="_top" xlink:title="cellsociety_team01.modelview.\lGUI.makeMenuBar">
<polygon fill="white" stroke="black" points="1200,-41 1200,-71 1364,-71 1364,-41 1200,-41"/>
<text text-anchor="start" x="1208" y="-59" font-family="Helvetica,sans-Serif" font-size="10.00">cellsociety_team01.modelview.</text>
<text text-anchor="middle" x="1282" y="-48" font-family="Helvetica,sans-Serif" font-size="10.00">GUI.makeMenuBar</text>
</a>
</g>
</g>
<!-- Node10&#45;&gt;Node11 -->
<g id="edge11" class="edge"><title>Node10&#45;&gt;Node11</title>
<path fill="none" stroke="midnightblue" d="M1174.08,-44.6605C1182.63,-45.5668 1191.25,-46.4815 1199.7,-47.3773"/>
<polygon fill="midnightblue" stroke="midnightblue" points="1174.42,-41.1764 1164.11,-43.6021 1173.68,-48.1374 1174.42,-41.1764"/>
</g>
<!-- Node11&#45;&gt;Node2 -->
<g id="edge12" class="edge"><title>Node11&#45;&gt;Node2</title>
<path fill="none" stroke="midnightblue" d="M1357.78,-73.3729C1377.06,-77.8521 1397.64,-82.6346 1416.36,-86.9826"/>
<polygon fill="midnightblue" stroke="midnightblue" points="1358.37,-69.916 1347.83,-71.0621 1356.78,-76.7344 1358.37,-69.916"/>
</g>
</g>
</svg>
