<?xml version="1.0" encoding="UTF-8" standalone="no"?>
<!DOCTYPE svg PUBLIC "-//W3C//DTD SVG 1.1//EN"
 "http://www.w3.org/Graphics/SVG/1.1/DTD/svg11.dtd">
<!-- Generated by graphviz version 2.36.0 (20140111.2315)
 -->
<!-- Title: cellsociety_team01.modelview.GUI.getStage Pages: 1 -->
<svg width="1336pt" height="87pt"
 viewBox="0.00 0.00 1336.00 87.00" xmlns="http://www.w3.org/2000/svg" xmlns:xlink="http://www.w3.org/1999/xlink">
<g id="graph0" class="graph" transform="scale(1 1) rotate(0) translate(4 83)">
<title>cellsociety_team01.modelview.GUI.getStage</title>
<polygon fill="white" stroke="none" points="-4,4 -4,-83 1332,-83 1332,4 -4,4"/>
<!-- Node1 -->
<g id="node1" class="node"><title>Node1</title>
<polygon fill="#bfbfbf" stroke="black" points="0,-24 0,-54 164,-54 164,-24 0,-24"/>
<text text-anchor="start" x="8" y="-42" font-family="Helvetica,sans-Serif" font-size="10.00">cellsociety_team01.modelview.</text>
<text text-anchor="middle" x="82" y="-31" font-family="Helvetica,sans-Serif" font-size="10.00">GUI.getStage</text>
</g>
<!-- Node2 -->
<g id="node2" class="node"><title>Node2</title>
<g id="a_node2"><a xlink:href="../../d2/d8b/classcellsociety__team01_1_1modelview_1_1_grid.html#ab049109d919d1d5bddc18d27215f89eb" target="_top" xlink:title="cellsociety_team01.modelview.\lGrid.setTitle">
<polygon fill="white" stroke="black" points="200,-24 200,-54 364,-54 364,-24 200,-24"/>
<text text-anchor="start" x="208" y="-42" font-family="Helvetica,sans-Serif" font-size="10.00">cellsociety_team01.modelview.</text>
<text text-anchor="middle" x="282" y="-31" font-family="Helvetica,sans-Serif" font-size="10.00">Grid.setTitle</text>
</a>
</g>
</g>
<!-- Node1&#45;&gt;Node2 -->
<g id="edge1" class="edge"><title>Node1&#45;&gt;Node2</title>
<path fill="none" stroke="midnightblue" d="M174.363,-39C182.817,-39 191.346,-39 199.7,-39"/>
<polygon fill="midnightblue" stroke="midnightblue" points="174.106,-35.5001 164.105,-39 174.105,-42.5001 174.106,-35.5001"/>
</g>
<!-- Node3 -->
<g id="node3" class="node"><title>Node3</title>
<g id="a_node3"><a xlink:href="../../db/d40/classcellsociety__team01_1_1parser_1_1_parser.html#ae652e938cb743e128a14b1181392eeda" target="_top" xlink:title="cellsociety_team01.parser.\lParser.parseInfo">
<polygon fill="white" stroke="black" points="400.5,-24 400.5,-54 545.5,-54 545.5,-24 400.5,-24"/>
<text text-anchor="start" x="408.5" y="-42" font-family="Helvetica,sans-Serif" font-size="10.00">cellsociety_team01.parser.</text>
<text text-anchor="middle" x="473" y="-31" font-family="Helvetica,sans-Serif" font-size="10.00">Parser.parseInfo</text>
</a>
</g>
</g>
<!-- Node2&#45;&gt;Node3 -->
<g id="edge2" class="edge"><title>Node2&#45;&gt;Node3</title>
<path fill="none" stroke="midnightblue" d="M374.431,-39C383.133,-39 391.869,-39 400.345,-39"/>
<polygon fill="midnightblue" stroke="midnightblue" points="374.25,-35.5001 364.25,-39 374.25,-42.5001 374.25,-35.5001"/>
</g>
<!-- Node4 -->
<g id="node4" class="node"><title>Node4</title>
<g id="a_node4"><a xlink:href="../../db/d40/classcellsociety__team01_1_1parser_1_1_parser.html#a31a05836dde41569f62542b9ea327f95" target="_top" xlink:title="cellsociety_team01.parser.\lParser.parseXmlFile">
<polygon fill="white" stroke="black" points="582.5,-24 582.5,-54 727.5,-54 727.5,-24 582.5,-24"/>
<text text-anchor="start" x="590.5" y="-42" font-family="Helvetica,sans-Serif" font-size="10.00">cellsociety_team01.parser.</text>
<text text-anchor="middle" x="655" y="-31" font-family="Helvetica,sans-Serif" font-size="10.00">Parser.parseXmlFile</text>
</a>
</g>
</g>
<!-- Node3&#45;&gt;Node4 -->
<g id="edge3" class="edge"><title>Node3&#45;&gt;Node4</title>
<path fill="none" stroke="midnightblue" d="M555.921,-39C564.722,-39 573.626,-39 582.295,-39"/>
<polygon fill="midnightblue" stroke="midnightblue" points="555.658,-35.5001 545.658,-39 555.658,-42.5001 555.658,-35.5001"/>
</g>
<!-- Node5 -->
<g id="node5" class="node"><title>Node5</title>
<g id="a_node5"><a xlink:href="../../db/d10/classcellsociety__team01_1_1modelview_1_1_g_u_i.html#afa183319cc9816a6147cba0869ef82eb" target="_top" xlink:title="cellsociety_team01.modelview.\lGUI.loadXML">
<polygon fill="white" stroke="black" points="764,-49 764,-79 928,-79 928,-49 764,-49"/>
<text text-anchor="start" x="772" y="-67" font-family="Helvetica,sans-Serif" font-size="10.00">cellsociety_team01.modelview.</text>
<text text-anchor="middle" x="846" y="-56" font-family="Helvetica,sans-Serif" font-size="10.00">GUI.loadXML</text>
</a>
</g>
</g>
<!-- Node4&#45;&gt;Node5 -->
<g id="edge4" class="edge"><title>Node4&#45;&gt;Node5</title>
<path fill="none" stroke="midnightblue" d="M737.781,-49.8175C746.42,-50.9604 755.205,-52.1223 763.837,-53.2642"/>
<polygon fill="midnightblue" stroke="midnightblue" points="738.095,-46.3287 727.722,-48.4871 737.177,-53.2683 738.095,-46.3287"/>
</g>
<!-- Node8 -->
<g id="node8" class="node"><title>Node8</title>
<g id="a_node8"><a xlink:href="../../db/d10/classcellsociety__team01_1_1modelview_1_1_g_u_i.html#a5c5e37ae72fe72af97fab2cb9a12b045" target="_top" xlink:title="cellsociety_team01.modelview.\lGUI.reset">
<polygon fill="white" stroke="black" points="764,-0 764,-30 928,-30 928,-0 764,-0"/>
<text text-anchor="start" x="772" y="-18" font-family="Helvetica,sans-Serif" font-size="10.00">cellsociety_team01.modelview.</text>
<text text-anchor="middle" x="846" y="-7" font-family="Helvetica,sans-Serif" font-size="10.00">GUI.reset</text>
</a>
</g>
</g>
<!-- Node4&#45;&gt;Node8 -->
<g id="edge7" class="edge"><title>Node4&#45;&gt;Node8</title>
<path fill="none" stroke="midnightblue" d="M737.781,-28.6152C746.42,-27.518 755.205,-26.4026 763.837,-25.3064"/>
<polygon fill="midnightblue" stroke="midnightblue" points="737.202,-25.1605 727.722,-29.8924 738.084,-32.1047 737.202,-25.1605"/>
</g>
<!-- Node6 -->
<g id="node6" class="node"><title>Node6</title>
<g id="a_node6"><a xlink:href="../../db/d10/classcellsociety__team01_1_1modelview_1_1_g_u_i.html#a4072ce794f518e806e7a912892f1e9da" target="_top" xlink:title="cellsociety_team01.modelview.\lGUI.makeMenuBar">
<polygon fill="white" stroke="black" points="964,-49 964,-79 1128,-79 1128,-49 964,-49"/>
<text text-anchor="start" x="972" y="-67" font-family="Helvetica,sans-Serif" font-size="10.00">cellsociety_team01.modelview.</text>
<text text-anchor="middle" x="1046" y="-56" font-family="Helvetica,sans-Serif" font-size="10.00">GUI.makeMenuBar</text>
</a>
</g>
</g>
<!-- Node5&#45;&gt;Node6 -->
<g id="edge5" class="edge"><title>Node5&#45;&gt;Node6</title>
<path fill="none" stroke="midnightblue" d="M938.363,-64C946.817,-64 955.346,-64 963.7,-64"/>
<polygon fill="midnightblue" stroke="midnightblue" points="938.106,-60.5001 928.105,-64 938.105,-67.5001 938.106,-60.5001"/>
</g>
<!-- Node7 -->
<g id="node7" class="node"><title>Node7</title>
<g id="a_node7"><a xlink:href="../../db/d10/classcellsociety__team01_1_1modelview_1_1_g_u_i.html#a07bcff60812627c8dfe97f1aadc671e5" target="_top" xlink:title="cellsociety_team01.modelview.\lGUI.GUI">
<polygon fill="white" stroke="black" points="1164,-24 1164,-54 1328,-54 1328,-24 1164,-24"/>
<text text-anchor="start" x="1172" y="-42" font-family="Helvetica,sans-Serif" font-size="10.00">cellsociety_team01.modelview.</text>
<text text-anchor="middle" x="1246" y="-31" font-family="Helvetica,sans-Serif" font-size="10.00">GUI.GUI</text>
</a>
</g>
</g>
<!-- Node6&#45;&gt;Node7 -->
<g id="edge6" class="edge"><title>Node6&#45;&gt;Node7</title>
<path fill="none" stroke="midnightblue" d="M1138.08,-52.4994C1146.63,-51.4205 1155.25,-50.3316 1163.7,-49.2651"/>
<polygon fill="midnightblue" stroke="midnightblue" points="1137.59,-49.0342 1128.11,-53.7594 1138.47,-55.9791 1137.59,-49.0342"/>
</g>
<!-- Node9 -->
<g id="node9" class="node"><title>Node9</title>
<g id="a_node9"><a xlink:href="../../db/d10/classcellsociety__team01_1_1modelview_1_1_g_u_i.html#aa924c28ce131195d3f377b18177f6cb9" target="_top" xlink:title="cellsociety_team01.modelview.\lGUI.makeButtonsAndSlider">
<polygon fill="white" stroke="black" points="964,-0 964,-30 1128,-30 1128,-0 964,-0"/>
<text text-anchor="start" x="972" y="-18" font-family="Helvetica,sans-Serif" font-size="10.00">cellsociety_team01.modelview.</text>
<text text-anchor="middle" x="1046" y="-7" font-family="Helvetica,sans-Serif" font-size="10.00">GUI.makeButtonsAndSlider</text>
</a>
</g>
</g>
<!-- Node8&#45;&gt;Node9 -->
<g id="edge8" class="edge"><title>Node8&#45;&gt;Node9</title>
<path fill="none" stroke="midnightblue" d="M938.363,-15C946.817,-15 955.346,-15 963.7,-15"/>
<polygon fill="midnightblue" stroke="midnightblue" points="938.106,-11.5001 928.105,-15 938.105,-18.5001 938.106,-11.5001"/>
</g>
<!-- Node9&#45;&gt;Node7 -->
<g id="edge9" class="edge"><title>Node9&#45;&gt;Node7</title>
<path fill="none" stroke="midnightblue" d="M1138.08,-26.0406C1146.63,-27.0763 1155.25,-28.1217 1163.7,-29.1455"/>
<polygon fill="midnightblue" stroke="midnightblue" points="1138.45,-22.5598 1128.11,-24.831 1137.61,-29.5089 1138.45,-22.5598"/>
</g>
</g>
</svg>
