<?xml version="1.0" encoding="UTF-8" standalone="no"?>
<!DOCTYPE svg PUBLIC "-//W3C//DTD SVG 1.1//EN"
 "http://www.w3.org/Graphics/SVG/1.1/DTD/svg11.dtd">
<!-- Generated by graphviz version 2.36.0 (20140111.2315)
 -->
<!-- Title: cellsociety_team01.CellState.DirectionalAutomaton.DirectionalAutomaton Pages: 1 -->
<svg width="378pt" height="48pt"
 viewBox="0.00 0.00 378.00 48.00" xmlns="http://www.w3.org/2000/svg" xmlns:xlink="http://www.w3.org/1999/xlink">
<g id="graph0" class="graph" transform="scale(1 1) rotate(0) translate(4 44)">
<title>cellsociety_team01.CellState.DirectionalAutomaton.DirectionalAutomaton</title>
<polygon fill="white" stroke="none" points="-4,4 -4,-44 374,-44 374,4 -4,4"/>
<!-- Node1 -->
<g id="node1" class="node"><title>Node1</title>
<polygon fill="#bfbfbf" stroke="black" points="0,0.5 0,-40.5 176,-40.5 176,0.5 0,0.5"/>
<text text-anchor="start" x="8" y="-28.5" font-family="Helvetica,sans-Serif" font-size="10.00">cellsociety_team01.CellState.</text>
<text text-anchor="start" x="8" y="-17.5" font-family="Helvetica,sans-Serif" font-size="10.00">DirectionalAutomaton.Directional</text>
<text text-anchor="middle" x="88" y="-6.5" font-family="Helvetica,sans-Serif" font-size="10.00">Automaton</text>
</g>
<!-- Node2 -->
<g id="node2" class="node"><title>Node2</title>
<g id="a_node2"><a xlink:href="../../d7/d26/classcellsociety__team01_1_1_cell_state_1_1_int_state.html#a563cc1b0ffa80b30cc23df837fc157ea" target="_top" xlink:title="cellsociety_team01.CellState.\lIntState.initialize">
<polygon fill="white" stroke="black" points="212,-5 212,-35 370,-35 370,-5 212,-5"/>
<text text-anchor="start" x="220" y="-23" font-family="Helvetica,sans-Serif" font-size="10.00">cellsociety_team01.CellState.</text>
<text text-anchor="middle" x="291" y="-12" font-family="Helvetica,sans-Serif" font-size="10.00">IntState.initialize</text>
</a>
</g>
</g>
<!-- Node1&#45;&gt;Node2 -->
<g id="edge1" class="edge"><title>Node1&#45;&gt;Node2</title>
<path fill="none" stroke="midnightblue" d="M176.285,-20C184.721,-20 193.283,-20 201.728,-20"/>
<polygon fill="midnightblue" stroke="midnightblue" points="201.956,-23.5001 211.955,-20 201.955,-16.5001 201.956,-23.5001"/>
</g>
</g>
</svg>
