<?xml version="1.0" encoding="UTF-8" standalone="no"?>
<!DOCTYPE svg PUBLIC "-//W3C//DTD SVG 1.1//EN"
 "http://www.w3.org/Graphics/SVG/1.1/DTD/svg11.dtd">
<!-- Generated by graphviz version 2.36.0 (20140111.2315)
 -->
<!-- Title: cellsociety_team01.modelview.FiniteRefineNeighborsAlgorithm.refineNeighbors Pages: 1 -->
<svg width="608pt" height="66pt"
 viewBox="0.00 0.00 608.00 66.00" xmlns="http://www.w3.org/2000/svg" xmlns:xlink="http://www.w3.org/1999/xlink">
<g id="graph0" class="graph" transform="scale(1 1) rotate(0) translate(4 62)">
<title>cellsociety_team01.modelview.FiniteRefineNeighborsAlgorithm.refineNeighbors</title>
<polygon fill="white" stroke="none" points="-4,4 -4,-62 604,-62 604,4 -4,4"/>
<!-- Node1 -->
<g id="node1" class="node"><title>Node1</title>
<polygon fill="#bfbfbf" stroke="black" points="0.5,-8.5 0.5,-49.5 195.5,-49.5 195.5,-8.5 0.5,-8.5"/>
<text text-anchor="start" x="8.5" y="-37.5" font-family="Helvetica,sans-Serif" font-size="10.00">cellsociety_team01.modelview.</text>
<text text-anchor="start" x="8.5" y="-26.5" font-family="Helvetica,sans-Serif" font-size="10.00">FiniteRefineNeighborsAlgorithm.refine</text>
<text text-anchor="middle" x="98" y="-15.5" font-family="Helvetica,sans-Serif" font-size="10.00">Neighbors</text>
</g>
<!-- Node2 -->
<g id="node2" class="node"><title>Node2</title>
<g id="a_node2"><a xlink:href="../../d4/df6/classcellsociety__team01_1_1modelview_1_1_refine_neighbors_algorithm.html#ad13484163dff119fcc623ff7b4d7d1de" target="_top" xlink:title="cellsociety_team01.modelview.\lRefineNeighborsAlgorithm.findCell\lForPair">
<polygon fill="white" stroke="black" points="232,-8.5 232,-49.5 410,-49.5 410,-8.5 232,-8.5"/>
<text text-anchor="start" x="240" y="-37.5" font-family="Helvetica,sans-Serif" font-size="10.00">cellsociety_team01.modelview.</text>
<text text-anchor="start" x="240" y="-26.5" font-family="Helvetica,sans-Serif" font-size="10.00">RefineNeighborsAlgorithm.findCell</text>
<text text-anchor="middle" x="321" y="-15.5" font-family="Helvetica,sans-Serif" font-size="10.00">ForPair</text>
</a>
</g>
</g>
<!-- Node1&#45;&gt;Node2 -->
<g id="edge1" class="edge"><title>Node1&#45;&gt;Node2</title>
<path fill="none" stroke="midnightblue" d="M195.612,-29C204.294,-29 213.093,-29 221.788,-29"/>
<polygon fill="midnightblue" stroke="midnightblue" points="221.936,-32.5001 231.936,-29 221.936,-25.5001 221.936,-32.5001"/>
</g>
<!-- Node3 -->
<g id="node3" class="node"><title>Node3</title>
<g id="a_node3"><a xlink:href="../../d8/d80/classcellsociety__team01_1_1_pair.html#a1a97e852278e185e3e50f37c826b12e8" target="_top" xlink:title="cellsociety_team01.Pair.getX">
<polygon fill="white" stroke="black" points="446.5,-38.5 446.5,-57.5 599.5,-57.5 599.5,-38.5 446.5,-38.5"/>
<text text-anchor="middle" x="523" y="-45.5" font-family="Helvetica,sans-Serif" font-size="10.00">cellsociety_team01.Pair.getX</text>
</a>
</g>
</g>
<!-- Node2&#45;&gt;Node3 -->
<g id="edge2" class="edge"><title>Node2&#45;&gt;Node3</title>
<path fill="none" stroke="midnightblue" d="M410.014,-37.3613C418.752,-38.1914 427.613,-39.0333 436.327,-39.861"/>
<polygon fill="midnightblue" stroke="midnightblue" points="436.185,-43.3632 446.471,-40.8247 436.847,-36.3946 436.185,-43.3632"/>
</g>
<!-- Node4 -->
<g id="node4" class="node"><title>Node4</title>
<g id="a_node4"><a xlink:href="../../d8/d80/classcellsociety__team01_1_1_pair.html#a8bf4fdfd4efdf9e3b37eb69706b3b952" target="_top" xlink:title="cellsociety_team01.Pair.getY">
<polygon fill="white" stroke="black" points="447,-0.5 447,-19.5 599,-19.5 599,-0.5 447,-0.5"/>
<text text-anchor="middle" x="523" y="-7.5" font-family="Helvetica,sans-Serif" font-size="10.00">cellsociety_team01.Pair.getY</text>
</a>
</g>
</g>
<!-- Node2&#45;&gt;Node4 -->
<g id="edge3" class="edge"><title>Node2&#45;&gt;Node4</title>
<path fill="none" stroke="midnightblue" d="M410.014,-20.6387C418.827,-19.8014 427.766,-18.9522 436.552,-18.1176"/>
<polygon fill="midnightblue" stroke="midnightblue" points="437.155,-21.5762 446.779,-17.146 436.492,-14.6075 437.155,-21.5762"/>
</g>
</g>
</svg>
