<?xml version="1.0" encoding="UTF-8" standalone="no"?>
<!DOCTYPE svg PUBLIC "-//W3C//DTD SVG 1.1//EN"
 "http://www.w3.org/Graphics/SVG/1.1/DTD/svg11.dtd">
<!-- Generated by graphviz version 2.36.0 (20140111.2315)
 -->
<!-- Title: cellsociety_team01.exceptions.ElementValueException Pages: 1 -->
<svg width="185pt" height="108pt"
 viewBox="0.00 0.00 185.00 108.00" xmlns="http://www.w3.org/2000/svg" xmlns:xlink="http://www.w3.org/1999/xlink">
<g id="graph0" class="graph" transform="scale(1 1) rotate(0) translate(4 104)">
<title>cellsociety_team01.exceptions.ElementValueException</title>
<polygon fill="white" stroke="none" points="-4,4 -4,-104 181,-104 181,4 -4,4"/>
<!-- Node1 -->
<g id="node1" class="node"><title>Node1</title>
<polygon fill="#bfbfbf" stroke="black" points="-0.5,-1 -0.5,-31 166.5,-31 166.5,-1 -0.5,-1"/>
<text text-anchor="start" x="7.5" y="-19" font-family="Helvetica,sans-Serif" font-size="10.00">cellsociety_team01.exceptions.</text>
<text text-anchor="middle" x="83" y="-8" font-family="Helvetica,sans-Serif" font-size="10.00">ElementValueException</text>
</g>
<!-- Node2 -->
<g id="node2" class="node"><title>Node2</title>
<polygon fill="white" stroke="#bfbfbf" points="3.5,-80.5 3.5,-99.5 66.5,-99.5 66.5,-80.5 3.5,-80.5"/>
<text text-anchor="middle" x="35" y="-87.5" font-family="Helvetica,sans-Serif" font-size="10.00">Exception</text>
</g>
<!-- Node2&#45;&gt;Node1 -->
<g id="edge1" class="edge"><title>Node2&#45;&gt;Node1</title>
<path fill="none" stroke="midnightblue" d="M46.3744,-71.9385C54.6461,-59.5308 65.7152,-42.9271 73.5123,-31.2316"/>
<polygon fill="midnightblue" stroke="midnightblue" points="43.3296,-70.1959 40.6947,-80.4579 49.154,-74.0789 43.3296,-70.1959"/>
</g>
<!-- Node3 -->
<g id="node3" class="node"><title>Node3</title>
<polygon fill="white" stroke="#bfbfbf" points="84.5,-80.5 84.5,-99.5 177.5,-99.5 177.5,-80.5 84.5,-80.5"/>
<text text-anchor="middle" x="131" y="-87.5" font-family="Helvetica,sans-Serif" font-size="10.00">ResourceBundle</text>
</g>
<!-- Node3&#45;&gt;Node1 -->
<g id="edge2" class="edge"><title>Node3&#45;&gt;Node1</title>
<path fill="none" stroke="#9a32cd" stroke-dasharray="5,2" d="M119.626,-71.9385C111.354,-59.5308 100.285,-42.9271 92.4877,-31.2316"/>
<polygon fill="#9a32cd" stroke="#9a32cd" points="116.846,-74.0789 125.305,-80.4579 122.67,-70.1959 116.846,-74.0789"/>
<text text-anchor="middle" x="139.5" y="-53.5" font-family="Helvetica,sans-Serif" font-size="10.00"> myDefVals</text>
</g>
</g>
</svg>
