<?xml version="1.0" encoding="UTF-8" standalone="no"?>
<!DOCTYPE svg PUBLIC "-//W3C//DTD SVG 1.1//EN"
 "http://www.w3.org/Graphics/SVG/1.1/DTD/svg11.dtd">
<!-- Generated by graphviz version 2.36.0 (20140111.2315)
 -->
<!-- Title: cellsociety_team01.simulations.PredatorPrey Pages: 1 -->
<svg width="754pt" height="97pt"
 viewBox="0.00 0.00 754.00 97.00" xmlns="http://www.w3.org/2000/svg" xmlns:xlink="http://www.w3.org/1999/xlink">
<g id="graph0" class="graph" transform="scale(1 1) rotate(0) translate(4 93)">
<title>cellsociety_team01.simulations.PredatorPrey</title>
<polygon fill="white" stroke="none" points="-4,4 -4,-93 750,-93 750,4 -4,4"/>
<!-- Node1 -->
<g id="node1" class="node"><title>Node1</title>
<polygon fill="#bfbfbf" stroke="black" points="576,-12 576,-42 746,-42 746,-12 576,-12"/>
<text text-anchor="start" x="584" y="-30" font-family="Helvetica,sans-Serif" font-size="10.00">cellsociety_team01.simulations.</text>
<text text-anchor="middle" x="661" y="-19" font-family="Helvetica,sans-Serif" font-size="10.00">PredatorPrey</text>
</g>
<!-- Node2 -->
<g id="node2" class="node"><title>Node2</title>
<g id="a_node2"><a xlink:href="../../da/df7/classcellsociety__team01_1_1simulations_1_1_simulation.html" target="_top" xlink:title="cellsociety_team01.simulations.\lSimulation">
<polygon fill="white" stroke="black" points="312,-39 312,-69 482,-69 482,-39 312,-39"/>
<text text-anchor="start" x="320" y="-57" font-family="Helvetica,sans-Serif" font-size="10.00">cellsociety_team01.simulations.</text>
<text text-anchor="middle" x="397" y="-46" font-family="Helvetica,sans-Serif" font-size="10.00">Simulation</text>
</a>
</g>
</g>
<!-- Node2&#45;&gt;Node1 -->
<g id="edge1" class="edge"><title>Node2&#45;&gt;Node1</title>
<path fill="none" stroke="midnightblue" d="M492.641,-44.2469C519.835,-41.4444 549.3,-38.408 575.817,-35.6753"/>
<polygon fill="midnightblue" stroke="midnightblue" points="491.929,-40.8017 482.341,-45.3084 492.647,-47.7648 491.929,-40.8017"/>
</g>
<!-- Node3 -->
<g id="node3" class="node"><title>Node3</title>
<polygon fill="white" stroke="#bfbfbf" points="49.5,-69.5 49.5,-88.5 142.5,-88.5 142.5,-69.5 49.5,-69.5"/>
<text text-anchor="middle" x="96" y="-76.5" font-family="Helvetica,sans-Serif" font-size="10.00">ResourceBundle</text>
</g>
<!-- Node3&#45;&gt;Node2 -->
<g id="edge2" class="edge"><title>Node3&#45;&gt;Node2</title>
<path fill="none" stroke="#9a32cd" stroke-dasharray="5,2" d="M152.825,-74.3324C197.513,-70.5959 260.903,-65.2957 311.759,-61.0436"/>
<polygon fill="#9a32cd" stroke="#9a32cd" points="152.411,-70.8547 142.737,-75.1758 152.994,-77.8304 152.411,-70.8547"/>
<text text-anchor="middle" x="252" y="-73" font-family="Helvetica,sans-Serif" font-size="10.00"> myColorScheme</text>
</g>
<!-- Node4 -->
<g id="node4" class="node"><title>Node4</title>
<polygon fill="white" stroke="#bfbfbf" points="0.5,-9.5 0.5,-50.5 191.5,-50.5 191.5,-9.5 0.5,-9.5"/>
<text text-anchor="start" x="8.5" y="-38.5" font-family="Helvetica,sans-Serif" font-size="10.00">Map&lt; cellsociety_team01.</text>
<text text-anchor="start" x="8.5" y="-27.5" font-family="Helvetica,sans-Serif" font-size="10.00">CellState.State, ArrayList</text>
<text text-anchor="middle" x="96" y="-16.5" font-family="Helvetica,sans-Serif" font-size="10.00">&lt; cellsociety_team01.rules.Rule &gt; &gt;</text>
</g>
<!-- Node4&#45;&gt;Node2 -->
<g id="edge3" class="edge"><title>Node4&#45;&gt;Node2</title>
<path fill="none" stroke="#9a32cd" stroke-dasharray="5,2" d="M201.647,-38.3998C237.636,-41.2885 277.447,-44.484 311.617,-47.2268"/>
<polygon fill="#9a32cd" stroke="#9a32cd" points="201.853,-34.9052 191.605,-37.5938 201.293,-41.8827 201.853,-34.9052"/>
<text text-anchor="middle" x="252" y="-49" font-family="Helvetica,sans-Serif" font-size="10.00"> myData</text>
</g>
<!-- Node5 -->
<g id="node5" class="node"><title>Node5</title>
<polygon fill="white" stroke="#bfbfbf" points="369,-0.5 369,-19.5 425,-19.5 425,-0.5 369,-0.5"/>
<text text-anchor="middle" x="397" y="-7.5" font-family="Helvetica,sans-Serif" font-size="10.00">Random</text>
</g>
<!-- Node5&#45;&gt;Node1 -->
<g id="edge4" class="edge"><title>Node5&#45;&gt;Node1</title>
<path fill="none" stroke="#9a32cd" stroke-dasharray="5,2" d="M435.545,-12.2817C467.973,-14.2679 516.081,-17.2517 558,-20 563.845,-20.3832 569.878,-20.7839 575.953,-21.1913"/>
<polygon fill="#9a32cd" stroke="#9a32cd" points="435.376,-8.7649 425.181,-11.6481 434.949,-15.7519 435.376,-8.7649"/>
<text text-anchor="middle" x="529" y="-23" font-family="Helvetica,sans-Serif" font-size="10.00"> myRandom</text>
</g>
</g>
</svg>
