<?xml version="1.0" encoding="UTF-8" standalone="no"?>
<!DOCTYPE svg PUBLIC "-//W3C//DTD SVG 1.1//EN"
 "http://www.w3.org/Graphics/SVG/1.1/DTD/svg11.dtd">
<!-- Generated by graphviz version 2.36.0 (20140111.2315)
 -->
<!-- Title: cellsociety_team01.CellState.IntState Pages: 1 -->
<svg width="554pt" height="87pt"
 viewBox="0.00 0.00 554.00 87.00" xmlns="http://www.w3.org/2000/svg" xmlns:xlink="http://www.w3.org/1999/xlink">
<g id="graph0" class="graph" transform="scale(1 1) rotate(0) translate(4 83)">
<title>cellsociety_team01.CellState.IntState</title>
<polygon fill="white" stroke="none" points="-4,4 -4,-83 550,-83 550,4 -4,4"/>
<!-- Node1 -->
<g id="node1" class="node"><title>Node1</title>
<polygon fill="#bfbfbf" stroke="black" points="194,-24 194,-54 352,-54 352,-24 194,-24"/>
<text text-anchor="start" x="202" y="-42" font-family="Helvetica,sans-Serif" font-size="10.00">cellsociety_team01.CellState.</text>
<text text-anchor="middle" x="273" y="-31" font-family="Helvetica,sans-Serif" font-size="10.00">IntState</text>
</g>
<!-- Node3 -->
<g id="node3" class="node"><title>Node3</title>
<g id="a_node3"><a xlink:href="../../db/d14/classcellsociety__team01_1_1_cell_state_1_1_color_change_int_state.html" target="_top" xlink:title="cellsociety_team01.CellState.\lColorChangeIntState">
<polygon fill="white" stroke="black" points="388,-49 388,-79 546,-79 546,-49 388,-49"/>
<text text-anchor="start" x="396" y="-67" font-family="Helvetica,sans-Serif" font-size="10.00">cellsociety_team01.CellState.</text>
<text text-anchor="middle" x="467" y="-56" font-family="Helvetica,sans-Serif" font-size="10.00">ColorChangeIntState</text>
</a>
</g>
</g>
<!-- Node1&#45;&gt;Node3 -->
<g id="edge2" class="edge"><title>Node1&#45;&gt;Node3</title>
<path fill="none" stroke="midnightblue" d="M362.153,-50.4782C370.769,-51.6001 379.47,-52.733 387.975,-53.8406"/>
<polygon fill="midnightblue" stroke="midnightblue" points="362.462,-46.989 352.094,-49.1685 361.558,-53.9304 362.462,-46.989"/>
</g>
<!-- Node4 -->
<g id="node4" class="node"><title>Node4</title>
<g id="a_node4"><a xlink:href="../../d1/d2b/classcellsociety__team01_1_1_cell_state_1_1_directional_automaton.html" target="_top" xlink:title="cellsociety_team01.CellState.\lDirectionalAutomaton">
<polygon fill="white" stroke="black" points="388,-0 388,-30 546,-30 546,-0 388,-0"/>
<text text-anchor="start" x="396" y="-18" font-family="Helvetica,sans-Serif" font-size="10.00">cellsociety_team01.CellState.</text>
<text text-anchor="middle" x="467" y="-7" font-family="Helvetica,sans-Serif" font-size="10.00">DirectionalAutomaton</text>
</a>
</g>
</g>
<!-- Node1&#45;&gt;Node4 -->
<g id="edge3" class="edge"><title>Node1&#45;&gt;Node4</title>
<path fill="none" stroke="midnightblue" d="M362.153,-27.9809C370.769,-26.9039 379.47,-25.8163 387.975,-24.7531"/>
<polygon fill="midnightblue" stroke="midnightblue" points="361.582,-24.5249 352.094,-29.2383 362.451,-31.4708 361.582,-24.5249"/>
</g>
<!-- Node2 -->
<g id="node2" class="node"><title>Node2</title>
<g id="a_node2"><a xlink:href="../../d2/d65/classcellsociety__team01_1_1_cell_state_1_1_state.html" target="_top" xlink:title="cellsociety_team01.CellState.\lState">
<polygon fill="white" stroke="black" points="0,-24 0,-54 158,-54 158,-24 0,-24"/>
<text text-anchor="start" x="8" y="-42" font-family="Helvetica,sans-Serif" font-size="10.00">cellsociety_team01.CellState.</text>
<text text-anchor="middle" x="79" y="-31" font-family="Helvetica,sans-Serif" font-size="10.00">State</text>
</a>
</g>
</g>
<!-- Node2&#45;&gt;Node1 -->
<g id="edge1" class="edge"><title>Node2&#45;&gt;Node1</title>
<path fill="none" stroke="midnightblue" d="M168.153,-39C176.769,-39 185.47,-39 193.975,-39"/>
<polygon fill="midnightblue" stroke="midnightblue" points="168.094,-35.5001 158.094,-39 168.094,-42.5001 168.094,-35.5001"/>
</g>
</g>
</svg>
