<?xml version="1.0" encoding="UTF-8" standalone="no"?>
<!DOCTYPE svg PUBLIC "-//W3C//DTD SVG 1.1//EN"
 "http://www.w3.org/Graphics/SVG/1.1/DTD/svg11.dtd">
<!-- Generated by graphviz version 2.36.0 (20140111.2315)
 -->
<!-- Title: cellsociety_team01.rules.ChangingRule Pages: 1 -->
<svg width="514pt" height="185pt"
 viewBox="0.00 0.00 514.00 185.00" xmlns="http://www.w3.org/2000/svg" xmlns:xlink="http://www.w3.org/1999/xlink">
<g id="graph0" class="graph" transform="scale(1 1) rotate(0) translate(4 181)">
<title>cellsociety_team01.rules.ChangingRule</title>
<polygon fill="white" stroke="none" points="-4,4 -4,-181 510,-181 510,4 -4,4"/>
<!-- Node1 -->
<g id="node1" class="node"><title>Node1</title>
<polygon fill="#bfbfbf" stroke="black" points="194,-73 194,-103 332,-103 332,-73 194,-73"/>
<text text-anchor="start" x="202" y="-91" font-family="Helvetica,sans-Serif" font-size="10.00">cellsociety_team01.rules.</text>
<text text-anchor="middle" x="263" y="-80" font-family="Helvetica,sans-Serif" font-size="10.00">ChangingRule</text>
</g>
<!-- Node3 -->
<g id="node3" class="node"><title>Node3</title>
<g id="a_node3"><a xlink:href="../../df/d10/classcellsociety__team01_1_1rules_1_1_random_rule.html" target="_top" xlink:title="cellsociety_team01.rules.\lRandomRule">
<polygon fill="white" stroke="black" points="368,-147 368,-177 506,-177 506,-147 368,-147"/>
<text text-anchor="start" x="376" y="-165" font-family="Helvetica,sans-Serif" font-size="10.00">cellsociety_team01.rules.</text>
<text text-anchor="middle" x="437" y="-154" font-family="Helvetica,sans-Serif" font-size="10.00">RandomRule</text>
</a>
</g>
</g>
<!-- Node1&#45;&gt;Node3 -->
<g id="edge2" class="edge"><title>Node1&#45;&gt;Node3</title>
<path fill="none" stroke="midnightblue" d="M303.272,-107.503C322.587,-116.838 346.322,-127.929 368,-137 376.122,-140.399 384.887,-143.808 393.335,-146.968"/>
<polygon fill="midnightblue" stroke="midnightblue" points="304.697,-104.304 294.173,-103.078 301.635,-110.599 304.697,-104.304"/>
</g>
<!-- Node4 -->
<g id="node4" class="node"><title>Node4</title>
<g id="a_node4"><a xlink:href="../../d1/ded/classcellsociety__team01_1_1rules_1_1_status_rule.html" target="_top" xlink:title="cellsociety_team01.rules.\lStatusRule">
<polygon fill="white" stroke="black" points="368,-98 368,-128 506,-128 506,-98 368,-98"/>
<text text-anchor="start" x="376" y="-116" font-family="Helvetica,sans-Serif" font-size="10.00">cellsociety_team01.rules.</text>
<text text-anchor="middle" x="437" y="-105" font-family="Helvetica,sans-Serif" font-size="10.00">StatusRule</text>
</a>
</g>
</g>
<!-- Node1&#45;&gt;Node4 -->
<g id="edge3" class="edge"><title>Node1&#45;&gt;Node4</title>
<path fill="none" stroke="midnightblue" d="M342.637,-99.4298C351.025,-100.649 359.508,-101.882 367.762,-103.082"/>
<polygon fill="midnightblue" stroke="midnightblue" points="342.873,-95.9273 332.473,-97.9525 341.866,-102.855 342.873,-95.9273"/>
</g>
<!-- Node5 -->
<g id="node5" class="node"><title>Node5</title>
<g id="a_node5"><a xlink:href="../../d1/de7/classcellsociety__team01_1_1rules_1_1_threshold_rule.html" target="_top" xlink:title="cellsociety_team01.rules.\lThresholdRule">
<polygon fill="white" stroke="black" points="368,-49 368,-79 506,-79 506,-49 368,-49"/>
<text text-anchor="start" x="376" y="-67" font-family="Helvetica,sans-Serif" font-size="10.00">cellsociety_team01.rules.</text>
<text text-anchor="middle" x="437" y="-56" font-family="Helvetica,sans-Serif" font-size="10.00">ThresholdRule</text>
</a>
</g>
</g>
<!-- Node1&#45;&gt;Node5 -->
<g id="edge4" class="edge"><title>Node1&#45;&gt;Node5</title>
<path fill="none" stroke="midnightblue" d="M342.637,-77.0274C351.025,-75.8569 359.508,-74.6733 367.762,-73.5215"/>
<polygon fill="midnightblue" stroke="midnightblue" points="341.894,-73.5971 332.473,-78.4456 342.861,-80.53 341.894,-73.5971"/>
</g>
<!-- Node6 -->
<g id="node6" class="node"><title>Node6</title>
<g id="a_node6"><a xlink:href="../../d8/d2c/classcellsociety__team01_1_1rules_1_1_timed_status_rule.html" target="_top" xlink:title="cellsociety_team01.rules.\lTimedStatusRule">
<polygon fill="white" stroke="black" points="368,-0 368,-30 506,-30 506,-0 368,-0"/>
<text text-anchor="start" x="376" y="-18" font-family="Helvetica,sans-Serif" font-size="10.00">cellsociety_team01.rules.</text>
<text text-anchor="middle" x="437" y="-7" font-family="Helvetica,sans-Serif" font-size="10.00">TimedStatusRule</text>
</a>
</g>
</g>
<!-- Node1&#45;&gt;Node6 -->
<g id="edge5" class="edge"><title>Node1&#45;&gt;Node6</title>
<path fill="none" stroke="midnightblue" d="M303.22,-68.3735C322.524,-59.0097 346.264,-47.9296 368,-39 375.411,-35.9553 383.367,-32.9329 391.132,-30.1121"/>
<polygon fill="midnightblue" stroke="midnightblue" points="301.577,-65.2808 294.129,-72.8155 304.65,-71.5703 301.577,-65.2808"/>
</g>
<!-- Node2 -->
<g id="node2" class="node"><title>Node2</title>
<g id="a_node2"><a xlink:href="../../d4/d46/classcellsociety__team01_1_1rules_1_1_rule.html" target="_top" xlink:title="cellsociety_team01.rules.Rule">
<polygon fill="white" stroke="black" points="0,-78.5 0,-97.5 158,-97.5 158,-78.5 0,-78.5"/>
<text text-anchor="middle" x="79" y="-85.5" font-family="Helvetica,sans-Serif" font-size="10.00">cellsociety_team01.rules.Rule</text>
</a>
</g>
</g>
<!-- Node2&#45;&gt;Node1 -->
<g id="edge1" class="edge"><title>Node2&#45;&gt;Node1</title>
<path fill="none" stroke="midnightblue" d="M168.291,-88C176.88,-88 185.502,-88 193.85,-88"/>
<polygon fill="midnightblue" stroke="midnightblue" points="168.241,-84.5001 158.241,-88 168.241,-91.5001 168.241,-84.5001"/>
</g>
</g>
</svg>
