<?xml version="1.0" encoding="UTF-8" standalone="no"?>
<!DOCTYPE svg PUBLIC "-//W3C//DTD SVG 1.1//EN"
 "http://www.w3.org/Graphics/SVG/1.1/DTD/svg11.dtd">
<!-- Generated by graphviz version 2.36.0 (20140111.2315)
 -->
<!-- Title: cellsociety_team01.modelview.RefineNeighborsAlgorithm Pages: 1 -->
<svg width="384pt" height="136pt"
 viewBox="0.00 0.00 384.00 136.00" xmlns="http://www.w3.org/2000/svg" xmlns:xlink="http://www.w3.org/1999/xlink">
<g id="graph0" class="graph" transform="scale(1 1) rotate(0) translate(4 132)">
<title>cellsociety_team01.modelview.RefineNeighborsAlgorithm</title>
<polygon fill="white" stroke="none" points="-4,4 -4,-132 380,-132 380,4 -4,4"/>
<!-- Node1 -->
<g id="node1" class="node"><title>Node1</title>
<polygon fill="#bfbfbf" stroke="black" points="0,-49 0,-79 164,-79 164,-49 0,-49"/>
<text text-anchor="start" x="8" y="-67" font-family="Helvetica,sans-Serif" font-size="10.00">cellsociety_team01.modelview.</text>
<text text-anchor="middle" x="82" y="-56" font-family="Helvetica,sans-Serif" font-size="10.00">RefineNeighborsAlgorithm</text>
</g>
<!-- Node2 -->
<g id="node2" class="node"><title>Node2</title>
<g id="a_node2"><a xlink:href="../../d5/de8/classcellsociety__team01_1_1modelview_1_1_finite_refine_neighbors_algorithm.html" target="_top" xlink:title="cellsociety_team01.modelview.\lFiniteRefineNeighborsAlgorithm">
<polygon fill="white" stroke="black" points="205.5,-98 205.5,-128 370.5,-128 370.5,-98 205.5,-98"/>
<text text-anchor="start" x="213.5" y="-116" font-family="Helvetica,sans-Serif" font-size="10.00">cellsociety_team01.modelview.</text>
<text text-anchor="middle" x="288" y="-105" font-family="Helvetica,sans-Serif" font-size="10.00">FiniteRefineNeighborsAlgorithm</text>
</a>
</g>
</g>
<!-- Node1&#45;&gt;Node2 -->
<g id="edge1" class="edge"><title>Node1&#45;&gt;Node2</title>
<path fill="none" stroke="midnightblue" d="M155.457,-81.4038C178.024,-86.8243 202.702,-92.752 224.525,-97.9938"/>
<polygon fill="midnightblue" stroke="midnightblue" points="156.134,-77.967 145.593,-79.0346 154.499,-84.7734 156.134,-77.967"/>
</g>
<!-- Node3 -->
<g id="node3" class="node"><title>Node3</title>
<g id="a_node3"><a xlink:href="../../d7/d7c/classcellsociety__team01_1_1modelview_1_1_infinite_refine_neighbors_algorithm.html" target="_top" xlink:title="cellsociety_team01.modelview.\lInfiniteRefineNeighborsAlgorithm">
<polygon fill="white" stroke="black" points="202,-49 202,-79 374,-79 374,-49 202,-49"/>
<text text-anchor="start" x="210" y="-67" font-family="Helvetica,sans-Serif" font-size="10.00">cellsociety_team01.modelview.</text>
<text text-anchor="middle" x="288" y="-56" font-family="Helvetica,sans-Serif" font-size="10.00">InfiniteRefineNeighborsAlgorithm</text>
</a>
</g>
</g>
<!-- Node1&#45;&gt;Node3 -->
<g id="edge2" class="edge"><title>Node1&#45;&gt;Node3</title>
<path fill="none" stroke="midnightblue" d="M174.409,-64C183.497,-64 192.698,-64 201.72,-64"/>
<polygon fill="midnightblue" stroke="midnightblue" points="174.212,-60.5001 164.212,-64 174.212,-67.5001 174.212,-60.5001"/>
</g>
<!-- Node4 -->
<g id="node4" class="node"><title>Node4</title>
<g id="a_node4"><a xlink:href="../../db/da5/classcellsociety__team01_1_1modelview_1_1_toroidal_refine_neighbors_algorithm.html" target="_top" xlink:title="cellsociety_team01.modelview.\lToroidalRefineNeighborsAlgorithm">
<polygon fill="white" stroke="black" points="200,-0 200,-30 376,-30 376,-0 200,-0"/>
<text text-anchor="start" x="208" y="-18" font-family="Helvetica,sans-Serif" font-size="10.00">cellsociety_team01.modelview.</text>
<text text-anchor="middle" x="288" y="-7" font-family="Helvetica,sans-Serif" font-size="10.00">ToroidalRefineNeighborsAlgorithm</text>
</a>
</g>
</g>
<!-- Node1&#45;&gt;Node4 -->
<g id="edge3" class="edge"><title>Node1&#45;&gt;Node4</title>
<path fill="none" stroke="midnightblue" d="M155.457,-46.5962C178.024,-41.1757 202.702,-35.248 224.525,-30.0062"/>
<polygon fill="midnightblue" stroke="midnightblue" points="154.499,-43.2266 145.593,-48.9654 156.134,-50.033 154.499,-43.2266"/>
</g>
</g>
</svg>
